G04 #@! TF.GenerationSoftware,KiCad,Pcbnew,5.1.5+dfsg1-2build2*
G04 #@! TF.CreationDate,2021-01-21T00:37:08+01:00*
G04 #@! TF.ProjectId,t100-raspi,74313030-2d72-4617-9370-692e6b696361,rev?*
G04 #@! TF.SameCoordinates,Original*
G04 #@! TF.FileFunction,Soldermask,Bot*
G04 #@! TF.FilePolarity,Negative*
%FSLAX46Y46*%
G04 Gerber Fmt 4.6, Leading zero omitted, Abs format (unit mm)*
G04 Created by KiCad (PCBNEW 5.1.5+dfsg1-2build2) date 2021-01-21 00:37:08*
%MOMM*%
%LPD*%
G04 APERTURE LIST*
%ADD10C,0.100000*%
G04 APERTURE END LIST*
D10*
G36*
X112028576Y-145421205D02*
G01*
X112110431Y-145455110D01*
X112184098Y-145504333D01*
X112246747Y-145566982D01*
X112295970Y-145640649D01*
X112329875Y-145722504D01*
X112347160Y-145809401D01*
X112347160Y-145897999D01*
X112329875Y-145984896D01*
X112295970Y-146066751D01*
X112246747Y-146140418D01*
X112184098Y-146203067D01*
X112110431Y-146252290D01*
X112034708Y-146283655D01*
X112028576Y-146286195D01*
X111941679Y-146303480D01*
X111853081Y-146303480D01*
X111766184Y-146286195D01*
X111760052Y-146283655D01*
X111684329Y-146252290D01*
X111610662Y-146203067D01*
X111548013Y-146140418D01*
X111498790Y-146066751D01*
X111464885Y-145984896D01*
X111447600Y-145897999D01*
X111447600Y-145809401D01*
X111464885Y-145722504D01*
X111498790Y-145640649D01*
X111548013Y-145566982D01*
X111610662Y-145504333D01*
X111684329Y-145455110D01*
X111766184Y-145421205D01*
X111853081Y-145403920D01*
X111941679Y-145403920D01*
X112028576Y-145421205D01*
G37*
G36*
X108231276Y-145418665D02*
G01*
X108313131Y-145452570D01*
X108386798Y-145501793D01*
X108449447Y-145564442D01*
X108498670Y-145638109D01*
X108532575Y-145719964D01*
X108549860Y-145806861D01*
X108549860Y-145895459D01*
X108532575Y-145982356D01*
X108498670Y-146064211D01*
X108449447Y-146137878D01*
X108386798Y-146200527D01*
X108313131Y-146249750D01*
X108231276Y-146283655D01*
X108144379Y-146300940D01*
X108055781Y-146300940D01*
X107968884Y-146283655D01*
X107887029Y-146249750D01*
X107813362Y-146200527D01*
X107750713Y-146137878D01*
X107701490Y-146064211D01*
X107667585Y-145982356D01*
X107650300Y-145895459D01*
X107650300Y-145806861D01*
X107667585Y-145719964D01*
X107701490Y-145638109D01*
X107750713Y-145564442D01*
X107813362Y-145501793D01*
X107887029Y-145452570D01*
X107968884Y-145418665D01*
X108055781Y-145401380D01*
X108144379Y-145401380D01*
X108231276Y-145418665D01*
G37*
G36*
X122901000Y-137401000D02*
G01*
X121099000Y-137401000D01*
X121099000Y-135599000D01*
X122901000Y-135599000D01*
X122901000Y-137401000D01*
G37*
G36*
X122113512Y-133063927D02*
G01*
X122262812Y-133093624D01*
X122426784Y-133161544D01*
X122574354Y-133260147D01*
X122699853Y-133385646D01*
X122798456Y-133533216D01*
X122866376Y-133697188D01*
X122901000Y-133871259D01*
X122901000Y-134048741D01*
X122866376Y-134222812D01*
X122798456Y-134386784D01*
X122699853Y-134534354D01*
X122574354Y-134659853D01*
X122426784Y-134758456D01*
X122262812Y-134826376D01*
X122113512Y-134856073D01*
X122088742Y-134861000D01*
X121911258Y-134861000D01*
X121886488Y-134856073D01*
X121737188Y-134826376D01*
X121573216Y-134758456D01*
X121425646Y-134659853D01*
X121300147Y-134534354D01*
X121201544Y-134386784D01*
X121133624Y-134222812D01*
X121099000Y-134048741D01*
X121099000Y-133871259D01*
X121133624Y-133697188D01*
X121201544Y-133533216D01*
X121300147Y-133385646D01*
X121425646Y-133260147D01*
X121573216Y-133161544D01*
X121737188Y-133093624D01*
X121886488Y-133063927D01*
X121911258Y-133059000D01*
X122088742Y-133059000D01*
X122113512Y-133063927D01*
G37*
G36*
X122113512Y-130523927D02*
G01*
X122262812Y-130553624D01*
X122426784Y-130621544D01*
X122574354Y-130720147D01*
X122699853Y-130845646D01*
X122798456Y-130993216D01*
X122866376Y-131157188D01*
X122901000Y-131331259D01*
X122901000Y-131508741D01*
X122866376Y-131682812D01*
X122798456Y-131846784D01*
X122699853Y-131994354D01*
X122574354Y-132119853D01*
X122426784Y-132218456D01*
X122262812Y-132286376D01*
X122113512Y-132316073D01*
X122088742Y-132321000D01*
X121911258Y-132321000D01*
X121886488Y-132316073D01*
X121737188Y-132286376D01*
X121573216Y-132218456D01*
X121425646Y-132119853D01*
X121300147Y-131994354D01*
X121201544Y-131846784D01*
X121133624Y-131682812D01*
X121099000Y-131508741D01*
X121099000Y-131331259D01*
X121133624Y-131157188D01*
X121201544Y-130993216D01*
X121300147Y-130845646D01*
X121425646Y-130720147D01*
X121573216Y-130621544D01*
X121737188Y-130553624D01*
X121886488Y-130523927D01*
X121911258Y-130519000D01*
X122088742Y-130519000D01*
X122113512Y-130523927D01*
G37*
G36*
X104678210Y-116218489D02*
G01*
X104764950Y-116244802D01*
X104844889Y-116287530D01*
X104914962Y-116345038D01*
X104972470Y-116415111D01*
X105015198Y-116495050D01*
X105041511Y-116581790D01*
X105051000Y-116678140D01*
X105051000Y-117841860D01*
X105041511Y-117938210D01*
X105015198Y-118024950D01*
X104972470Y-118104889D01*
X104914962Y-118174962D01*
X104844889Y-118232470D01*
X104764950Y-118275198D01*
X104678210Y-118301511D01*
X104581860Y-118311000D01*
X103418140Y-118311000D01*
X103321790Y-118301511D01*
X103235050Y-118275198D01*
X103155111Y-118232470D01*
X103085038Y-118174962D01*
X103027530Y-118104889D01*
X102984802Y-118024950D01*
X102958489Y-117938210D01*
X102949000Y-117841860D01*
X102949000Y-116678140D01*
X102958489Y-116581790D01*
X102984802Y-116495050D01*
X103027530Y-116415111D01*
X103085038Y-116345038D01*
X103155111Y-116287530D01*
X103235050Y-116244802D01*
X103321790Y-116218489D01*
X103418140Y-116209000D01*
X104581860Y-116209000D01*
X104678210Y-116218489D01*
G37*
G36*
X102138210Y-116218489D02*
G01*
X102224950Y-116244802D01*
X102304889Y-116287530D01*
X102374962Y-116345038D01*
X102432470Y-116415111D01*
X102475198Y-116495050D01*
X102501511Y-116581790D01*
X102511000Y-116678140D01*
X102511000Y-117841860D01*
X102501511Y-117938210D01*
X102475198Y-118024950D01*
X102432470Y-118104889D01*
X102374962Y-118174962D01*
X102304889Y-118232470D01*
X102224950Y-118275198D01*
X102138210Y-118301511D01*
X102041860Y-118311000D01*
X100878140Y-118311000D01*
X100781790Y-118301511D01*
X100695050Y-118275198D01*
X100615111Y-118232470D01*
X100545038Y-118174962D01*
X100487530Y-118104889D01*
X100444802Y-118024950D01*
X100418489Y-117938210D01*
X100409000Y-117841860D01*
X100409000Y-116678140D01*
X100418489Y-116581790D01*
X100444802Y-116495050D01*
X100487530Y-116415111D01*
X100545038Y-116345038D01*
X100615111Y-116287530D01*
X100695050Y-116244802D01*
X100781790Y-116218489D01*
X100878140Y-116209000D01*
X102041860Y-116209000D01*
X102138210Y-116218489D01*
G37*
G36*
X104678210Y-113678489D02*
G01*
X104764950Y-113704802D01*
X104844889Y-113747530D01*
X104914962Y-113805038D01*
X104972470Y-113875111D01*
X105015198Y-113955050D01*
X105041511Y-114041790D01*
X105051000Y-114138140D01*
X105051000Y-115301860D01*
X105041511Y-115398210D01*
X105015198Y-115484950D01*
X104972470Y-115564889D01*
X104914962Y-115634962D01*
X104844889Y-115692470D01*
X104764950Y-115735198D01*
X104678210Y-115761511D01*
X104581860Y-115771000D01*
X103418140Y-115771000D01*
X103321790Y-115761511D01*
X103235050Y-115735198D01*
X103155111Y-115692470D01*
X103085038Y-115634962D01*
X103027530Y-115564889D01*
X102984802Y-115484950D01*
X102958489Y-115398210D01*
X102949000Y-115301860D01*
X102949000Y-114138140D01*
X102958489Y-114041790D01*
X102984802Y-113955050D01*
X103027530Y-113875111D01*
X103085038Y-113805038D01*
X103155111Y-113747530D01*
X103235050Y-113704802D01*
X103321790Y-113678489D01*
X103418140Y-113669000D01*
X104581860Y-113669000D01*
X104678210Y-113678489D01*
G37*
G36*
X102138210Y-113678489D02*
G01*
X102224950Y-113704802D01*
X102304889Y-113747530D01*
X102374962Y-113805038D01*
X102432470Y-113875111D01*
X102475198Y-113955050D01*
X102501511Y-114041790D01*
X102511000Y-114138140D01*
X102511000Y-115301860D01*
X102501511Y-115398210D01*
X102475198Y-115484950D01*
X102432470Y-115564889D01*
X102374962Y-115634962D01*
X102304889Y-115692470D01*
X102224950Y-115735198D01*
X102138210Y-115761511D01*
X102041860Y-115771000D01*
X100878140Y-115771000D01*
X100781790Y-115761511D01*
X100695050Y-115735198D01*
X100615111Y-115692470D01*
X100545038Y-115634962D01*
X100487530Y-115564889D01*
X100444802Y-115484950D01*
X100418489Y-115398210D01*
X100409000Y-115301860D01*
X100409000Y-114138140D01*
X100418489Y-114041790D01*
X100444802Y-113955050D01*
X100487530Y-113875111D01*
X100545038Y-113805038D01*
X100615111Y-113747530D01*
X100695050Y-113704802D01*
X100781790Y-113678489D01*
X100878140Y-113669000D01*
X102041860Y-113669000D01*
X102138210Y-113678489D01*
G37*
G36*
X104678210Y-111138489D02*
G01*
X104764950Y-111164802D01*
X104844889Y-111207530D01*
X104914962Y-111265038D01*
X104972470Y-111335111D01*
X105015198Y-111415050D01*
X105041511Y-111501790D01*
X105051000Y-111598140D01*
X105051000Y-112761860D01*
X105041511Y-112858210D01*
X105015198Y-112944950D01*
X104972470Y-113024889D01*
X104914962Y-113094962D01*
X104844889Y-113152470D01*
X104764950Y-113195198D01*
X104678210Y-113221511D01*
X104581860Y-113231000D01*
X103418140Y-113231000D01*
X103321790Y-113221511D01*
X103235050Y-113195198D01*
X103155111Y-113152470D01*
X103085038Y-113094962D01*
X103027530Y-113024889D01*
X102984802Y-112944950D01*
X102958489Y-112858210D01*
X102949000Y-112761860D01*
X102949000Y-111598140D01*
X102958489Y-111501790D01*
X102984802Y-111415050D01*
X103027530Y-111335111D01*
X103085038Y-111265038D01*
X103155111Y-111207530D01*
X103235050Y-111164802D01*
X103321790Y-111138489D01*
X103418140Y-111129000D01*
X104581860Y-111129000D01*
X104678210Y-111138489D01*
G37*
G36*
X102138210Y-111138489D02*
G01*
X102224950Y-111164802D01*
X102304889Y-111207530D01*
X102374962Y-111265038D01*
X102432470Y-111335111D01*
X102475198Y-111415050D01*
X102501511Y-111501790D01*
X102511000Y-111598140D01*
X102511000Y-112761860D01*
X102501511Y-112858210D01*
X102475198Y-112944950D01*
X102432470Y-113024889D01*
X102374962Y-113094962D01*
X102304889Y-113152470D01*
X102224950Y-113195198D01*
X102138210Y-113221511D01*
X102041860Y-113231000D01*
X100878140Y-113231000D01*
X100781790Y-113221511D01*
X100695050Y-113195198D01*
X100615111Y-113152470D01*
X100545038Y-113094962D01*
X100487530Y-113024889D01*
X100444802Y-112944950D01*
X100418489Y-112858210D01*
X100409000Y-112761860D01*
X100409000Y-111598140D01*
X100418489Y-111501790D01*
X100444802Y-111415050D01*
X100487530Y-111335111D01*
X100545038Y-111265038D01*
X100615111Y-111207530D01*
X100695050Y-111164802D01*
X100781790Y-111138489D01*
X100878140Y-111129000D01*
X102041860Y-111129000D01*
X102138210Y-111138489D01*
G37*
G36*
X102138210Y-108598489D02*
G01*
X102224950Y-108624802D01*
X102304889Y-108667530D01*
X102374962Y-108725038D01*
X102432470Y-108795111D01*
X102475198Y-108875050D01*
X102501511Y-108961790D01*
X102511000Y-109058140D01*
X102511000Y-110221860D01*
X102501511Y-110318210D01*
X102475198Y-110404950D01*
X102432470Y-110484889D01*
X102374962Y-110554962D01*
X102304889Y-110612470D01*
X102224950Y-110655198D01*
X102138210Y-110681511D01*
X102041860Y-110691000D01*
X100878140Y-110691000D01*
X100781790Y-110681511D01*
X100695050Y-110655198D01*
X100615111Y-110612470D01*
X100545038Y-110554962D01*
X100487530Y-110484889D01*
X100444802Y-110404950D01*
X100418489Y-110318210D01*
X100409000Y-110221860D01*
X100409000Y-109058140D01*
X100418489Y-108961790D01*
X100444802Y-108875050D01*
X100487530Y-108795111D01*
X100545038Y-108725038D01*
X100615111Y-108667530D01*
X100695050Y-108624802D01*
X100781790Y-108598489D01*
X100878140Y-108589000D01*
X102041860Y-108589000D01*
X102138210Y-108598489D01*
G37*
G36*
X104678210Y-108598489D02*
G01*
X104764950Y-108624802D01*
X104844889Y-108667530D01*
X104914962Y-108725038D01*
X104972470Y-108795111D01*
X105015198Y-108875050D01*
X105041511Y-108961790D01*
X105051000Y-109058140D01*
X105051000Y-110221860D01*
X105041511Y-110318210D01*
X105015198Y-110404950D01*
X104972470Y-110484889D01*
X104914962Y-110554962D01*
X104844889Y-110612470D01*
X104764950Y-110655198D01*
X104678210Y-110681511D01*
X104581860Y-110691000D01*
X103418140Y-110691000D01*
X103321790Y-110681511D01*
X103235050Y-110655198D01*
X103155111Y-110612470D01*
X103085038Y-110554962D01*
X103027530Y-110484889D01*
X102984802Y-110404950D01*
X102958489Y-110318210D01*
X102949000Y-110221860D01*
X102949000Y-109058140D01*
X102958489Y-108961790D01*
X102984802Y-108875050D01*
X103027530Y-108795111D01*
X103085038Y-108725038D01*
X103155111Y-108667530D01*
X103235050Y-108624802D01*
X103321790Y-108598489D01*
X103418140Y-108589000D01*
X104581860Y-108589000D01*
X104678210Y-108598489D01*
G37*
G36*
X102138210Y-106058489D02*
G01*
X102224950Y-106084802D01*
X102304889Y-106127530D01*
X102374962Y-106185038D01*
X102432470Y-106255111D01*
X102475198Y-106335050D01*
X102501511Y-106421790D01*
X102511000Y-106518140D01*
X102511000Y-107681860D01*
X102501511Y-107778210D01*
X102475198Y-107864950D01*
X102432470Y-107944889D01*
X102374962Y-108014962D01*
X102304889Y-108072470D01*
X102224950Y-108115198D01*
X102138210Y-108141511D01*
X102041860Y-108151000D01*
X100878140Y-108151000D01*
X100781790Y-108141511D01*
X100695050Y-108115198D01*
X100615111Y-108072470D01*
X100545038Y-108014962D01*
X100487530Y-107944889D01*
X100444802Y-107864950D01*
X100418489Y-107778210D01*
X100409000Y-107681860D01*
X100409000Y-106518140D01*
X100418489Y-106421790D01*
X100444802Y-106335050D01*
X100487530Y-106255111D01*
X100545038Y-106185038D01*
X100615111Y-106127530D01*
X100695050Y-106084802D01*
X100781790Y-106058489D01*
X100878140Y-106049000D01*
X102041860Y-106049000D01*
X102138210Y-106058489D01*
G37*
G36*
X104678210Y-106058489D02*
G01*
X104764950Y-106084802D01*
X104844889Y-106127530D01*
X104914962Y-106185038D01*
X104972470Y-106255111D01*
X105015198Y-106335050D01*
X105041511Y-106421790D01*
X105051000Y-106518140D01*
X105051000Y-107681860D01*
X105041511Y-107778210D01*
X105015198Y-107864950D01*
X104972470Y-107944889D01*
X104914962Y-108014962D01*
X104844889Y-108072470D01*
X104764950Y-108115198D01*
X104678210Y-108141511D01*
X104581860Y-108151000D01*
X103418140Y-108151000D01*
X103321790Y-108141511D01*
X103235050Y-108115198D01*
X103155111Y-108072470D01*
X103085038Y-108014962D01*
X103027530Y-107944889D01*
X102984802Y-107864950D01*
X102958489Y-107778210D01*
X102949000Y-107681860D01*
X102949000Y-106518140D01*
X102958489Y-106421790D01*
X102984802Y-106335050D01*
X103027530Y-106255111D01*
X103085038Y-106185038D01*
X103155111Y-106127530D01*
X103235050Y-106084802D01*
X103321790Y-106058489D01*
X103418140Y-106049000D01*
X104581860Y-106049000D01*
X104678210Y-106058489D01*
G37*
G36*
X104678210Y-103518489D02*
G01*
X104764950Y-103544802D01*
X104844889Y-103587530D01*
X104914962Y-103645038D01*
X104972470Y-103715111D01*
X105015198Y-103795050D01*
X105041511Y-103881790D01*
X105051000Y-103978140D01*
X105051000Y-105141860D01*
X105041511Y-105238210D01*
X105015198Y-105324950D01*
X104972470Y-105404889D01*
X104914962Y-105474962D01*
X104844889Y-105532470D01*
X104764950Y-105575198D01*
X104678210Y-105601511D01*
X104581860Y-105611000D01*
X103418140Y-105611000D01*
X103321790Y-105601511D01*
X103235050Y-105575198D01*
X103155111Y-105532470D01*
X103085038Y-105474962D01*
X103027530Y-105404889D01*
X102984802Y-105324950D01*
X102958489Y-105238210D01*
X102949000Y-105141860D01*
X102949000Y-103978140D01*
X102958489Y-103881790D01*
X102984802Y-103795050D01*
X103027530Y-103715111D01*
X103085038Y-103645038D01*
X103155111Y-103587530D01*
X103235050Y-103544802D01*
X103321790Y-103518489D01*
X103418140Y-103509000D01*
X104581860Y-103509000D01*
X104678210Y-103518489D01*
G37*
G36*
X102138210Y-103518489D02*
G01*
X102224950Y-103544802D01*
X102304889Y-103587530D01*
X102374962Y-103645038D01*
X102432470Y-103715111D01*
X102475198Y-103795050D01*
X102501511Y-103881790D01*
X102511000Y-103978140D01*
X102511000Y-105141860D01*
X102501511Y-105238210D01*
X102475198Y-105324950D01*
X102432470Y-105404889D01*
X102374962Y-105474962D01*
X102304889Y-105532470D01*
X102224950Y-105575198D01*
X102138210Y-105601511D01*
X102041860Y-105611000D01*
X100878140Y-105611000D01*
X100781790Y-105601511D01*
X100695050Y-105575198D01*
X100615111Y-105532470D01*
X100545038Y-105474962D01*
X100487530Y-105404889D01*
X100444802Y-105324950D01*
X100418489Y-105238210D01*
X100409000Y-105141860D01*
X100409000Y-103978140D01*
X100418489Y-103881790D01*
X100444802Y-103795050D01*
X100487530Y-103715111D01*
X100545038Y-103645038D01*
X100615111Y-103587530D01*
X100695050Y-103544802D01*
X100781790Y-103518489D01*
X100878140Y-103509000D01*
X102041860Y-103509000D01*
X102138210Y-103518489D01*
G37*
G36*
X104678210Y-100978489D02*
G01*
X104764950Y-101004802D01*
X104844889Y-101047530D01*
X104914962Y-101105038D01*
X104972470Y-101175111D01*
X105015198Y-101255050D01*
X105041511Y-101341790D01*
X105051000Y-101438140D01*
X105051000Y-102601860D01*
X105041511Y-102698210D01*
X105015198Y-102784950D01*
X104972470Y-102864889D01*
X104914962Y-102934962D01*
X104844889Y-102992470D01*
X104764950Y-103035198D01*
X104678210Y-103061511D01*
X104581860Y-103071000D01*
X103418140Y-103071000D01*
X103321790Y-103061511D01*
X103235050Y-103035198D01*
X103155111Y-102992470D01*
X103085038Y-102934962D01*
X103027530Y-102864889D01*
X102984802Y-102784950D01*
X102958489Y-102698210D01*
X102949000Y-102601860D01*
X102949000Y-101438140D01*
X102958489Y-101341790D01*
X102984802Y-101255050D01*
X103027530Y-101175111D01*
X103085038Y-101105038D01*
X103155111Y-101047530D01*
X103235050Y-101004802D01*
X103321790Y-100978489D01*
X103418140Y-100969000D01*
X104581860Y-100969000D01*
X104678210Y-100978489D01*
G37*
G36*
X102138210Y-100978489D02*
G01*
X102224950Y-101004802D01*
X102304889Y-101047530D01*
X102374962Y-101105038D01*
X102432470Y-101175111D01*
X102475198Y-101255050D01*
X102501511Y-101341790D01*
X102511000Y-101438140D01*
X102511000Y-102601860D01*
X102501511Y-102698210D01*
X102475198Y-102784950D01*
X102432470Y-102864889D01*
X102374962Y-102934962D01*
X102304889Y-102992470D01*
X102224950Y-103035198D01*
X102138210Y-103061511D01*
X102041860Y-103071000D01*
X100878140Y-103071000D01*
X100781790Y-103061511D01*
X100695050Y-103035198D01*
X100615111Y-102992470D01*
X100545038Y-102934962D01*
X100487530Y-102864889D01*
X100444802Y-102784950D01*
X100418489Y-102698210D01*
X100409000Y-102601860D01*
X100409000Y-101438140D01*
X100418489Y-101341790D01*
X100444802Y-101255050D01*
X100487530Y-101175111D01*
X100545038Y-101105038D01*
X100615111Y-101047530D01*
X100695050Y-101004802D01*
X100781790Y-100978489D01*
X100878140Y-100969000D01*
X102041860Y-100969000D01*
X102138210Y-100978489D01*
G37*
G36*
X104678210Y-98438489D02*
G01*
X104764950Y-98464802D01*
X104844889Y-98507530D01*
X104914962Y-98565038D01*
X104972470Y-98635111D01*
X105015198Y-98715050D01*
X105041511Y-98801790D01*
X105051000Y-98898140D01*
X105051000Y-100061860D01*
X105041511Y-100158210D01*
X105015198Y-100244950D01*
X104972470Y-100324889D01*
X104914962Y-100394962D01*
X104844889Y-100452470D01*
X104764950Y-100495198D01*
X104678210Y-100521511D01*
X104581860Y-100531000D01*
X103418140Y-100531000D01*
X103321790Y-100521511D01*
X103235050Y-100495198D01*
X103155111Y-100452470D01*
X103085038Y-100394962D01*
X103027530Y-100324889D01*
X102984802Y-100244950D01*
X102958489Y-100158210D01*
X102949000Y-100061860D01*
X102949000Y-98898140D01*
X102958489Y-98801790D01*
X102984802Y-98715050D01*
X103027530Y-98635111D01*
X103085038Y-98565038D01*
X103155111Y-98507530D01*
X103235050Y-98464802D01*
X103321790Y-98438489D01*
X103418140Y-98429000D01*
X104581860Y-98429000D01*
X104678210Y-98438489D01*
G37*
G36*
X102138210Y-98438489D02*
G01*
X102224950Y-98464802D01*
X102304889Y-98507530D01*
X102374962Y-98565038D01*
X102432470Y-98635111D01*
X102475198Y-98715050D01*
X102501511Y-98801790D01*
X102511000Y-98898140D01*
X102511000Y-100061860D01*
X102501511Y-100158210D01*
X102475198Y-100244950D01*
X102432470Y-100324889D01*
X102374962Y-100394962D01*
X102304889Y-100452470D01*
X102224950Y-100495198D01*
X102138210Y-100521511D01*
X102041860Y-100531000D01*
X100878140Y-100531000D01*
X100781790Y-100521511D01*
X100695050Y-100495198D01*
X100615111Y-100452470D01*
X100545038Y-100394962D01*
X100487530Y-100324889D01*
X100444802Y-100244950D01*
X100418489Y-100158210D01*
X100409000Y-100061860D01*
X100409000Y-98898140D01*
X100418489Y-98801790D01*
X100444802Y-98715050D01*
X100487530Y-98635111D01*
X100545038Y-98565038D01*
X100615111Y-98507530D01*
X100695050Y-98464802D01*
X100781790Y-98438489D01*
X100878140Y-98429000D01*
X102041860Y-98429000D01*
X102138210Y-98438489D01*
G37*
G36*
X102138210Y-95898489D02*
G01*
X102224950Y-95924802D01*
X102304889Y-95967530D01*
X102374962Y-96025038D01*
X102432470Y-96095111D01*
X102475198Y-96175050D01*
X102501511Y-96261790D01*
X102511000Y-96358140D01*
X102511000Y-97521860D01*
X102501511Y-97618210D01*
X102475198Y-97704950D01*
X102432470Y-97784889D01*
X102374962Y-97854962D01*
X102304889Y-97912470D01*
X102224950Y-97955198D01*
X102138210Y-97981511D01*
X102041860Y-97991000D01*
X100878140Y-97991000D01*
X100781790Y-97981511D01*
X100695050Y-97955198D01*
X100615111Y-97912470D01*
X100545038Y-97854962D01*
X100487530Y-97784889D01*
X100444802Y-97704950D01*
X100418489Y-97618210D01*
X100409000Y-97521860D01*
X100409000Y-96358140D01*
X100418489Y-96261790D01*
X100444802Y-96175050D01*
X100487530Y-96095111D01*
X100545038Y-96025038D01*
X100615111Y-95967530D01*
X100695050Y-95924802D01*
X100781790Y-95898489D01*
X100878140Y-95889000D01*
X102041860Y-95889000D01*
X102138210Y-95898489D01*
G37*
G36*
X104678210Y-95898489D02*
G01*
X104764950Y-95924802D01*
X104844889Y-95967530D01*
X104914962Y-96025038D01*
X104972470Y-96095111D01*
X105015198Y-96175050D01*
X105041511Y-96261790D01*
X105051000Y-96358140D01*
X105051000Y-97521860D01*
X105041511Y-97618210D01*
X105015198Y-97704950D01*
X104972470Y-97784889D01*
X104914962Y-97854962D01*
X104844889Y-97912470D01*
X104764950Y-97955198D01*
X104678210Y-97981511D01*
X104581860Y-97991000D01*
X103418140Y-97991000D01*
X103321790Y-97981511D01*
X103235050Y-97955198D01*
X103155111Y-97912470D01*
X103085038Y-97854962D01*
X103027530Y-97784889D01*
X102984802Y-97704950D01*
X102958489Y-97618210D01*
X102949000Y-97521860D01*
X102949000Y-96358140D01*
X102958489Y-96261790D01*
X102984802Y-96175050D01*
X103027530Y-96095111D01*
X103085038Y-96025038D01*
X103155111Y-95967530D01*
X103235050Y-95924802D01*
X103321790Y-95898489D01*
X103418140Y-95889000D01*
X104581860Y-95889000D01*
X104678210Y-95898489D01*
G37*
G36*
X102138210Y-93358489D02*
G01*
X102224950Y-93384802D01*
X102304889Y-93427530D01*
X102374962Y-93485038D01*
X102432470Y-93555111D01*
X102475198Y-93635050D01*
X102501511Y-93721790D01*
X102511000Y-93818140D01*
X102511000Y-94981860D01*
X102501511Y-95078210D01*
X102475198Y-95164950D01*
X102432470Y-95244889D01*
X102374962Y-95314962D01*
X102304889Y-95372470D01*
X102224950Y-95415198D01*
X102138210Y-95441511D01*
X102041860Y-95451000D01*
X100878140Y-95451000D01*
X100781790Y-95441511D01*
X100695050Y-95415198D01*
X100615111Y-95372470D01*
X100545038Y-95314962D01*
X100487530Y-95244889D01*
X100444802Y-95164950D01*
X100418489Y-95078210D01*
X100409000Y-94981860D01*
X100409000Y-93818140D01*
X100418489Y-93721790D01*
X100444802Y-93635050D01*
X100487530Y-93555111D01*
X100545038Y-93485038D01*
X100615111Y-93427530D01*
X100695050Y-93384802D01*
X100781790Y-93358489D01*
X100878140Y-93349000D01*
X102041860Y-93349000D01*
X102138210Y-93358489D01*
G37*
G36*
X104678210Y-93358489D02*
G01*
X104764950Y-93384802D01*
X104844889Y-93427530D01*
X104914962Y-93485038D01*
X104972470Y-93555111D01*
X105015198Y-93635050D01*
X105041511Y-93721790D01*
X105051000Y-93818140D01*
X105051000Y-94981860D01*
X105041511Y-95078210D01*
X105015198Y-95164950D01*
X104972470Y-95244889D01*
X104914962Y-95314962D01*
X104844889Y-95372470D01*
X104764950Y-95415198D01*
X104678210Y-95441511D01*
X104581860Y-95451000D01*
X103418140Y-95451000D01*
X103321790Y-95441511D01*
X103235050Y-95415198D01*
X103155111Y-95372470D01*
X103085038Y-95314962D01*
X103027530Y-95244889D01*
X102984802Y-95164950D01*
X102958489Y-95078210D01*
X102949000Y-94981860D01*
X102949000Y-93818140D01*
X102958489Y-93721790D01*
X102984802Y-93635050D01*
X103027530Y-93555111D01*
X103085038Y-93485038D01*
X103155111Y-93427530D01*
X103235050Y-93384802D01*
X103321790Y-93358489D01*
X103418140Y-93349000D01*
X104581860Y-93349000D01*
X104678210Y-93358489D01*
G37*
G36*
X104678210Y-90818489D02*
G01*
X104764950Y-90844802D01*
X104844889Y-90887530D01*
X104914962Y-90945038D01*
X104972470Y-91015111D01*
X105015198Y-91095050D01*
X105041511Y-91181790D01*
X105051000Y-91278140D01*
X105051000Y-92441860D01*
X105041511Y-92538210D01*
X105015198Y-92624950D01*
X104972470Y-92704889D01*
X104914962Y-92774962D01*
X104844889Y-92832470D01*
X104764950Y-92875198D01*
X104678210Y-92901511D01*
X104581860Y-92911000D01*
X103418140Y-92911000D01*
X103321790Y-92901511D01*
X103235050Y-92875198D01*
X103155111Y-92832470D01*
X103085038Y-92774962D01*
X103027530Y-92704889D01*
X102984802Y-92624950D01*
X102958489Y-92538210D01*
X102949000Y-92441860D01*
X102949000Y-91278140D01*
X102958489Y-91181790D01*
X102984802Y-91095050D01*
X103027530Y-91015111D01*
X103085038Y-90945038D01*
X103155111Y-90887530D01*
X103235050Y-90844802D01*
X103321790Y-90818489D01*
X103418140Y-90809000D01*
X104581860Y-90809000D01*
X104678210Y-90818489D01*
G37*
G36*
X102138210Y-90818489D02*
G01*
X102224950Y-90844802D01*
X102304889Y-90887530D01*
X102374962Y-90945038D01*
X102432470Y-91015111D01*
X102475198Y-91095050D01*
X102501511Y-91181790D01*
X102511000Y-91278140D01*
X102511000Y-92441860D01*
X102501511Y-92538210D01*
X102475198Y-92624950D01*
X102432470Y-92704889D01*
X102374962Y-92774962D01*
X102304889Y-92832470D01*
X102224950Y-92875198D01*
X102138210Y-92901511D01*
X102041860Y-92911000D01*
X100878140Y-92911000D01*
X100781790Y-92901511D01*
X100695050Y-92875198D01*
X100615111Y-92832470D01*
X100545038Y-92774962D01*
X100487530Y-92704889D01*
X100444802Y-92624950D01*
X100418489Y-92538210D01*
X100409000Y-92441860D01*
X100409000Y-91278140D01*
X100418489Y-91181790D01*
X100444802Y-91095050D01*
X100487530Y-91015111D01*
X100545038Y-90945038D01*
X100615111Y-90887530D01*
X100695050Y-90844802D01*
X100781790Y-90818489D01*
X100878140Y-90809000D01*
X102041860Y-90809000D01*
X102138210Y-90818489D01*
G37*
G36*
X115651000Y-91091000D02*
G01*
X113849000Y-91091000D01*
X113849000Y-89289000D01*
X115651000Y-89289000D01*
X115651000Y-91091000D01*
G37*
G36*
X104678210Y-88278489D02*
G01*
X104764950Y-88304802D01*
X104844889Y-88347530D01*
X104914962Y-88405038D01*
X104972470Y-88475111D01*
X105015198Y-88555050D01*
X105041511Y-88641790D01*
X105051000Y-88738140D01*
X105051000Y-89901860D01*
X105041511Y-89998210D01*
X105015198Y-90084950D01*
X104972470Y-90164889D01*
X104914962Y-90234962D01*
X104844889Y-90292470D01*
X104764950Y-90335198D01*
X104678210Y-90361511D01*
X104581860Y-90371000D01*
X103418140Y-90371000D01*
X103321790Y-90361511D01*
X103235050Y-90335198D01*
X103155111Y-90292470D01*
X103085038Y-90234962D01*
X103027530Y-90164889D01*
X102984802Y-90084950D01*
X102958489Y-89998210D01*
X102949000Y-89901860D01*
X102949000Y-88738140D01*
X102958489Y-88641790D01*
X102984802Y-88555050D01*
X103027530Y-88475111D01*
X103085038Y-88405038D01*
X103155111Y-88347530D01*
X103235050Y-88304802D01*
X103321790Y-88278489D01*
X103418140Y-88269000D01*
X104581860Y-88269000D01*
X104678210Y-88278489D01*
G37*
G36*
X102138210Y-88278489D02*
G01*
X102224950Y-88304802D01*
X102304889Y-88347530D01*
X102374962Y-88405038D01*
X102432470Y-88475111D01*
X102475198Y-88555050D01*
X102501511Y-88641790D01*
X102511000Y-88738140D01*
X102511000Y-89901860D01*
X102501511Y-89998210D01*
X102475198Y-90084950D01*
X102432470Y-90164889D01*
X102374962Y-90234962D01*
X102304889Y-90292470D01*
X102224950Y-90335198D01*
X102138210Y-90361511D01*
X102041860Y-90371000D01*
X100878140Y-90371000D01*
X100781790Y-90361511D01*
X100695050Y-90335198D01*
X100615111Y-90292470D01*
X100545038Y-90234962D01*
X100487530Y-90164889D01*
X100444802Y-90084950D01*
X100418489Y-89998210D01*
X100409000Y-89901860D01*
X100409000Y-88738140D01*
X100418489Y-88641790D01*
X100444802Y-88555050D01*
X100487530Y-88475111D01*
X100545038Y-88405038D01*
X100615111Y-88347530D01*
X100695050Y-88304802D01*
X100781790Y-88278489D01*
X100878140Y-88269000D01*
X102041860Y-88269000D01*
X102138210Y-88278489D01*
G37*
G36*
X114863512Y-86753927D02*
G01*
X115012812Y-86783624D01*
X115176784Y-86851544D01*
X115324354Y-86950147D01*
X115449853Y-87075646D01*
X115548456Y-87223216D01*
X115616376Y-87387188D01*
X115651000Y-87561259D01*
X115651000Y-87738741D01*
X115616376Y-87912812D01*
X115548456Y-88076784D01*
X115449853Y-88224354D01*
X115324354Y-88349853D01*
X115176784Y-88448456D01*
X115012812Y-88516376D01*
X114863512Y-88546073D01*
X114838742Y-88551000D01*
X114661258Y-88551000D01*
X114636488Y-88546073D01*
X114487188Y-88516376D01*
X114323216Y-88448456D01*
X114175646Y-88349853D01*
X114050147Y-88224354D01*
X113951544Y-88076784D01*
X113883624Y-87912812D01*
X113849000Y-87738741D01*
X113849000Y-87561259D01*
X113883624Y-87387188D01*
X113951544Y-87223216D01*
X114050147Y-87075646D01*
X114175646Y-86950147D01*
X114323216Y-86851544D01*
X114487188Y-86783624D01*
X114636488Y-86753927D01*
X114661258Y-86749000D01*
X114838742Y-86749000D01*
X114863512Y-86753927D01*
G37*
G36*
X104678210Y-85738489D02*
G01*
X104764950Y-85764802D01*
X104844889Y-85807530D01*
X104914962Y-85865038D01*
X104972470Y-85935111D01*
X105015198Y-86015050D01*
X105041511Y-86101790D01*
X105051000Y-86198140D01*
X105051000Y-87361860D01*
X105041511Y-87458210D01*
X105015198Y-87544950D01*
X104972470Y-87624889D01*
X104914962Y-87694962D01*
X104844889Y-87752470D01*
X104764950Y-87795198D01*
X104678210Y-87821511D01*
X104581860Y-87831000D01*
X103418140Y-87831000D01*
X103321790Y-87821511D01*
X103235050Y-87795198D01*
X103155111Y-87752470D01*
X103085038Y-87694962D01*
X103027530Y-87624889D01*
X102984802Y-87544950D01*
X102958489Y-87458210D01*
X102949000Y-87361860D01*
X102949000Y-86198140D01*
X102958489Y-86101790D01*
X102984802Y-86015050D01*
X103027530Y-85935111D01*
X103085038Y-85865038D01*
X103155111Y-85807530D01*
X103235050Y-85764802D01*
X103321790Y-85738489D01*
X103418140Y-85729000D01*
X104581860Y-85729000D01*
X104678210Y-85738489D01*
G37*
G36*
X102138210Y-85738489D02*
G01*
X102224950Y-85764802D01*
X102304889Y-85807530D01*
X102374962Y-85865038D01*
X102432470Y-85935111D01*
X102475198Y-86015050D01*
X102501511Y-86101790D01*
X102511000Y-86198140D01*
X102511000Y-87361860D01*
X102501511Y-87458210D01*
X102475198Y-87544950D01*
X102432470Y-87624889D01*
X102374962Y-87694962D01*
X102304889Y-87752470D01*
X102224950Y-87795198D01*
X102138210Y-87821511D01*
X102041860Y-87831000D01*
X100878140Y-87831000D01*
X100781790Y-87821511D01*
X100695050Y-87795198D01*
X100615111Y-87752470D01*
X100545038Y-87694962D01*
X100487530Y-87624889D01*
X100444802Y-87544950D01*
X100418489Y-87458210D01*
X100409000Y-87361860D01*
X100409000Y-86198140D01*
X100418489Y-86101790D01*
X100444802Y-86015050D01*
X100487530Y-85935111D01*
X100545038Y-85865038D01*
X100615111Y-85807530D01*
X100695050Y-85764802D01*
X100781790Y-85738489D01*
X100878140Y-85729000D01*
X102041860Y-85729000D01*
X102138210Y-85738489D01*
G37*
G36*
X114863512Y-84213927D02*
G01*
X115012812Y-84243624D01*
X115176784Y-84311544D01*
X115324354Y-84410147D01*
X115449853Y-84535646D01*
X115548456Y-84683216D01*
X115616376Y-84847188D01*
X115651000Y-85021259D01*
X115651000Y-85198741D01*
X115616376Y-85372812D01*
X115548456Y-85536784D01*
X115449853Y-85684354D01*
X115324354Y-85809853D01*
X115176784Y-85908456D01*
X115012812Y-85976376D01*
X114863512Y-86006073D01*
X114838742Y-86011000D01*
X114661258Y-86011000D01*
X114636488Y-86006073D01*
X114487188Y-85976376D01*
X114323216Y-85908456D01*
X114175646Y-85809853D01*
X114050147Y-85684354D01*
X113951544Y-85536784D01*
X113883624Y-85372812D01*
X113849000Y-85198741D01*
X113849000Y-85021259D01*
X113883624Y-84847188D01*
X113951544Y-84683216D01*
X114050147Y-84535646D01*
X114175646Y-84410147D01*
X114323216Y-84311544D01*
X114487188Y-84243624D01*
X114636488Y-84213927D01*
X114661258Y-84209000D01*
X114838742Y-84209000D01*
X114863512Y-84213927D01*
G37*
G36*
X104678210Y-83198489D02*
G01*
X104764950Y-83224802D01*
X104844889Y-83267530D01*
X104914962Y-83325038D01*
X104972470Y-83395111D01*
X105015198Y-83475050D01*
X105041511Y-83561790D01*
X105051000Y-83658140D01*
X105051000Y-84821860D01*
X105041511Y-84918210D01*
X105015198Y-85004950D01*
X104972470Y-85084889D01*
X104914962Y-85154962D01*
X104844889Y-85212470D01*
X104764950Y-85255198D01*
X104678210Y-85281511D01*
X104581860Y-85291000D01*
X103418140Y-85291000D01*
X103321790Y-85281511D01*
X103235050Y-85255198D01*
X103155111Y-85212470D01*
X103085038Y-85154962D01*
X103027530Y-85084889D01*
X102984802Y-85004950D01*
X102958489Y-84918210D01*
X102949000Y-84821860D01*
X102949000Y-83658140D01*
X102958489Y-83561790D01*
X102984802Y-83475050D01*
X103027530Y-83395111D01*
X103085038Y-83325038D01*
X103155111Y-83267530D01*
X103235050Y-83224802D01*
X103321790Y-83198489D01*
X103418140Y-83189000D01*
X104581860Y-83189000D01*
X104678210Y-83198489D01*
G37*
G36*
X102138210Y-83198489D02*
G01*
X102224950Y-83224802D01*
X102304889Y-83267530D01*
X102374962Y-83325038D01*
X102432470Y-83395111D01*
X102475198Y-83475050D01*
X102501511Y-83561790D01*
X102511000Y-83658140D01*
X102511000Y-84821860D01*
X102501511Y-84918210D01*
X102475198Y-85004950D01*
X102432470Y-85084889D01*
X102374962Y-85154962D01*
X102304889Y-85212470D01*
X102224950Y-85255198D01*
X102138210Y-85281511D01*
X102041860Y-85291000D01*
X100878140Y-85291000D01*
X100781790Y-85281511D01*
X100695050Y-85255198D01*
X100615111Y-85212470D01*
X100545038Y-85154962D01*
X100487530Y-85084889D01*
X100444802Y-85004950D01*
X100418489Y-84918210D01*
X100409000Y-84821860D01*
X100409000Y-83658140D01*
X100418489Y-83561790D01*
X100444802Y-83475050D01*
X100487530Y-83395111D01*
X100545038Y-83325038D01*
X100615111Y-83267530D01*
X100695050Y-83224802D01*
X100781790Y-83198489D01*
X100878140Y-83189000D01*
X102041860Y-83189000D01*
X102138210Y-83198489D01*
G37*
G36*
X114863512Y-81673927D02*
G01*
X115012812Y-81703624D01*
X115176784Y-81771544D01*
X115324354Y-81870147D01*
X115449853Y-81995646D01*
X115548456Y-82143216D01*
X115616376Y-82307188D01*
X115651000Y-82481259D01*
X115651000Y-82658741D01*
X115616376Y-82832812D01*
X115548456Y-82996784D01*
X115449853Y-83144354D01*
X115324354Y-83269853D01*
X115176784Y-83368456D01*
X115012812Y-83436376D01*
X114863512Y-83466073D01*
X114838742Y-83471000D01*
X114661258Y-83471000D01*
X114636488Y-83466073D01*
X114487188Y-83436376D01*
X114323216Y-83368456D01*
X114175646Y-83269853D01*
X114050147Y-83144354D01*
X113951544Y-82996784D01*
X113883624Y-82832812D01*
X113849000Y-82658741D01*
X113849000Y-82481259D01*
X113883624Y-82307188D01*
X113951544Y-82143216D01*
X114050147Y-81995646D01*
X114175646Y-81870147D01*
X114323216Y-81771544D01*
X114487188Y-81703624D01*
X114636488Y-81673927D01*
X114661258Y-81669000D01*
X114838742Y-81669000D01*
X114863512Y-81673927D01*
G37*
G36*
X102138210Y-80658489D02*
G01*
X102224950Y-80684802D01*
X102304889Y-80727530D01*
X102374962Y-80785038D01*
X102432470Y-80855111D01*
X102475198Y-80935050D01*
X102501511Y-81021790D01*
X102511000Y-81118140D01*
X102511000Y-82281860D01*
X102501511Y-82378210D01*
X102475198Y-82464950D01*
X102432470Y-82544889D01*
X102374962Y-82614962D01*
X102304889Y-82672470D01*
X102224950Y-82715198D01*
X102138210Y-82741511D01*
X102041860Y-82751000D01*
X100878140Y-82751000D01*
X100781790Y-82741511D01*
X100695050Y-82715198D01*
X100615111Y-82672470D01*
X100545038Y-82614962D01*
X100487530Y-82544889D01*
X100444802Y-82464950D01*
X100418489Y-82378210D01*
X100409000Y-82281860D01*
X100409000Y-81118140D01*
X100418489Y-81021790D01*
X100444802Y-80935050D01*
X100487530Y-80855111D01*
X100545038Y-80785038D01*
X100615111Y-80727530D01*
X100695050Y-80684802D01*
X100781790Y-80658489D01*
X100878140Y-80649000D01*
X102041860Y-80649000D01*
X102138210Y-80658489D01*
G37*
G36*
X104678210Y-80658489D02*
G01*
X104764950Y-80684802D01*
X104844889Y-80727530D01*
X104914962Y-80785038D01*
X104972470Y-80855111D01*
X105015198Y-80935050D01*
X105041511Y-81021790D01*
X105051000Y-81118140D01*
X105051000Y-82281860D01*
X105041511Y-82378210D01*
X105015198Y-82464950D01*
X104972470Y-82544889D01*
X104914962Y-82614962D01*
X104844889Y-82672470D01*
X104764950Y-82715198D01*
X104678210Y-82741511D01*
X104581860Y-82751000D01*
X103418140Y-82751000D01*
X103321790Y-82741511D01*
X103235050Y-82715198D01*
X103155111Y-82672470D01*
X103085038Y-82614962D01*
X103027530Y-82544889D01*
X102984802Y-82464950D01*
X102958489Y-82378210D01*
X102949000Y-82281860D01*
X102949000Y-81118140D01*
X102958489Y-81021790D01*
X102984802Y-80935050D01*
X103027530Y-80855111D01*
X103085038Y-80785038D01*
X103155111Y-80727530D01*
X103235050Y-80684802D01*
X103321790Y-80658489D01*
X103418140Y-80649000D01*
X104581860Y-80649000D01*
X104678210Y-80658489D01*
G37*
G36*
X114863512Y-79133927D02*
G01*
X115012812Y-79163624D01*
X115176784Y-79231544D01*
X115324354Y-79330147D01*
X115449853Y-79455646D01*
X115548456Y-79603216D01*
X115616376Y-79767188D01*
X115651000Y-79941259D01*
X115651000Y-80118741D01*
X115616376Y-80292812D01*
X115548456Y-80456784D01*
X115449853Y-80604354D01*
X115324354Y-80729853D01*
X115176784Y-80828456D01*
X115012812Y-80896376D01*
X114863512Y-80926073D01*
X114838742Y-80931000D01*
X114661258Y-80931000D01*
X114636488Y-80926073D01*
X114487188Y-80896376D01*
X114323216Y-80828456D01*
X114175646Y-80729853D01*
X114050147Y-80604354D01*
X113951544Y-80456784D01*
X113883624Y-80292812D01*
X113849000Y-80118741D01*
X113849000Y-79941259D01*
X113883624Y-79767188D01*
X113951544Y-79603216D01*
X114050147Y-79455646D01*
X114175646Y-79330147D01*
X114323216Y-79231544D01*
X114487188Y-79163624D01*
X114636488Y-79133927D01*
X114661258Y-79129000D01*
X114838742Y-79129000D01*
X114863512Y-79133927D01*
G37*
G36*
X102138210Y-78118489D02*
G01*
X102224950Y-78144802D01*
X102304889Y-78187530D01*
X102374962Y-78245038D01*
X102432470Y-78315111D01*
X102475198Y-78395050D01*
X102501511Y-78481790D01*
X102511000Y-78578140D01*
X102511000Y-79741860D01*
X102501511Y-79838210D01*
X102475198Y-79924950D01*
X102432470Y-80004889D01*
X102374962Y-80074962D01*
X102304889Y-80132470D01*
X102224950Y-80175198D01*
X102138210Y-80201511D01*
X102041860Y-80211000D01*
X100878140Y-80211000D01*
X100781790Y-80201511D01*
X100695050Y-80175198D01*
X100615111Y-80132470D01*
X100545038Y-80074962D01*
X100487530Y-80004889D01*
X100444802Y-79924950D01*
X100418489Y-79838210D01*
X100409000Y-79741860D01*
X100409000Y-78578140D01*
X100418489Y-78481790D01*
X100444802Y-78395050D01*
X100487530Y-78315111D01*
X100545038Y-78245038D01*
X100615111Y-78187530D01*
X100695050Y-78144802D01*
X100781790Y-78118489D01*
X100878140Y-78109000D01*
X102041860Y-78109000D01*
X102138210Y-78118489D01*
G37*
G36*
X104678210Y-78118489D02*
G01*
X104764950Y-78144802D01*
X104844889Y-78187530D01*
X104914962Y-78245038D01*
X104972470Y-78315111D01*
X105015198Y-78395050D01*
X105041511Y-78481790D01*
X105051000Y-78578140D01*
X105051000Y-79741860D01*
X105041511Y-79838210D01*
X105015198Y-79924950D01*
X104972470Y-80004889D01*
X104914962Y-80074962D01*
X104844889Y-80132470D01*
X104764950Y-80175198D01*
X104678210Y-80201511D01*
X104581860Y-80211000D01*
X103418140Y-80211000D01*
X103321790Y-80201511D01*
X103235050Y-80175198D01*
X103155111Y-80132470D01*
X103085038Y-80074962D01*
X103027530Y-80004889D01*
X102984802Y-79924950D01*
X102958489Y-79838210D01*
X102949000Y-79741860D01*
X102949000Y-78578140D01*
X102958489Y-78481790D01*
X102984802Y-78395050D01*
X103027530Y-78315111D01*
X103085038Y-78245038D01*
X103155111Y-78187530D01*
X103235050Y-78144802D01*
X103321790Y-78118489D01*
X103418140Y-78109000D01*
X104581860Y-78109000D01*
X104678210Y-78118489D01*
G37*
G36*
X114863512Y-76593927D02*
G01*
X115012812Y-76623624D01*
X115176784Y-76691544D01*
X115324354Y-76790147D01*
X115449853Y-76915646D01*
X115548456Y-77063216D01*
X115616376Y-77227188D01*
X115651000Y-77401259D01*
X115651000Y-77578741D01*
X115616376Y-77752812D01*
X115548456Y-77916784D01*
X115449853Y-78064354D01*
X115324354Y-78189853D01*
X115176784Y-78288456D01*
X115012812Y-78356376D01*
X114863512Y-78386073D01*
X114838742Y-78391000D01*
X114661258Y-78391000D01*
X114636488Y-78386073D01*
X114487188Y-78356376D01*
X114323216Y-78288456D01*
X114175646Y-78189853D01*
X114050147Y-78064354D01*
X113951544Y-77916784D01*
X113883624Y-77752812D01*
X113849000Y-77578741D01*
X113849000Y-77401259D01*
X113883624Y-77227188D01*
X113951544Y-77063216D01*
X114050147Y-76915646D01*
X114175646Y-76790147D01*
X114323216Y-76691544D01*
X114487188Y-76623624D01*
X114636488Y-76593927D01*
X114661258Y-76589000D01*
X114838742Y-76589000D01*
X114863512Y-76593927D01*
G37*
G36*
X104678210Y-75578489D02*
G01*
X104764950Y-75604802D01*
X104844889Y-75647530D01*
X104914962Y-75705038D01*
X104972470Y-75775111D01*
X105015198Y-75855050D01*
X105041511Y-75941790D01*
X105051000Y-76038140D01*
X105051000Y-77201860D01*
X105041511Y-77298210D01*
X105015198Y-77384950D01*
X104972470Y-77464889D01*
X104914962Y-77534962D01*
X104844889Y-77592470D01*
X104764950Y-77635198D01*
X104678210Y-77661511D01*
X104581860Y-77671000D01*
X103418140Y-77671000D01*
X103321790Y-77661511D01*
X103235050Y-77635198D01*
X103155111Y-77592470D01*
X103085038Y-77534962D01*
X103027530Y-77464889D01*
X102984802Y-77384950D01*
X102958489Y-77298210D01*
X102949000Y-77201860D01*
X102949000Y-76038140D01*
X102958489Y-75941790D01*
X102984802Y-75855050D01*
X103027530Y-75775111D01*
X103085038Y-75705038D01*
X103155111Y-75647530D01*
X103235050Y-75604802D01*
X103321790Y-75578489D01*
X103418140Y-75569000D01*
X104581860Y-75569000D01*
X104678210Y-75578489D01*
G37*
G36*
X102138210Y-75578489D02*
G01*
X102224950Y-75604802D01*
X102304889Y-75647530D01*
X102374962Y-75705038D01*
X102432470Y-75775111D01*
X102475198Y-75855050D01*
X102501511Y-75941790D01*
X102511000Y-76038140D01*
X102511000Y-77201860D01*
X102501511Y-77298210D01*
X102475198Y-77384950D01*
X102432470Y-77464889D01*
X102374962Y-77534962D01*
X102304889Y-77592470D01*
X102224950Y-77635198D01*
X102138210Y-77661511D01*
X102041860Y-77671000D01*
X100878140Y-77671000D01*
X100781790Y-77661511D01*
X100695050Y-77635198D01*
X100615111Y-77592470D01*
X100545038Y-77534962D01*
X100487530Y-77464889D01*
X100444802Y-77384950D01*
X100418489Y-77298210D01*
X100409000Y-77201860D01*
X100409000Y-76038140D01*
X100418489Y-75941790D01*
X100444802Y-75855050D01*
X100487530Y-75775111D01*
X100545038Y-75705038D01*
X100615111Y-75647530D01*
X100695050Y-75604802D01*
X100781790Y-75578489D01*
X100878140Y-75569000D01*
X102041860Y-75569000D01*
X102138210Y-75578489D01*
G37*
G36*
X114863512Y-74053927D02*
G01*
X115012812Y-74083624D01*
X115176784Y-74151544D01*
X115324354Y-74250147D01*
X115449853Y-74375646D01*
X115548456Y-74523216D01*
X115616376Y-74687188D01*
X115651000Y-74861259D01*
X115651000Y-75038741D01*
X115616376Y-75212812D01*
X115548456Y-75376784D01*
X115449853Y-75524354D01*
X115324354Y-75649853D01*
X115176784Y-75748456D01*
X115012812Y-75816376D01*
X114863512Y-75846073D01*
X114838742Y-75851000D01*
X114661258Y-75851000D01*
X114636488Y-75846073D01*
X114487188Y-75816376D01*
X114323216Y-75748456D01*
X114175646Y-75649853D01*
X114050147Y-75524354D01*
X113951544Y-75376784D01*
X113883624Y-75212812D01*
X113849000Y-75038741D01*
X113849000Y-74861259D01*
X113883624Y-74687188D01*
X113951544Y-74523216D01*
X114050147Y-74375646D01*
X114175646Y-74250147D01*
X114323216Y-74151544D01*
X114487188Y-74083624D01*
X114636488Y-74053927D01*
X114661258Y-74049000D01*
X114838742Y-74049000D01*
X114863512Y-74053927D01*
G37*
G36*
X102138210Y-73038489D02*
G01*
X102224950Y-73064802D01*
X102304889Y-73107530D01*
X102374962Y-73165038D01*
X102432470Y-73235111D01*
X102475198Y-73315050D01*
X102501511Y-73401790D01*
X102511000Y-73498140D01*
X102511000Y-74661860D01*
X102501511Y-74758210D01*
X102475198Y-74844950D01*
X102432470Y-74924889D01*
X102374962Y-74994962D01*
X102304889Y-75052470D01*
X102224950Y-75095198D01*
X102138210Y-75121511D01*
X102041860Y-75131000D01*
X100878140Y-75131000D01*
X100781790Y-75121511D01*
X100695050Y-75095198D01*
X100615111Y-75052470D01*
X100545038Y-74994962D01*
X100487530Y-74924889D01*
X100444802Y-74844950D01*
X100418489Y-74758210D01*
X100409000Y-74661860D01*
X100409000Y-73498140D01*
X100418489Y-73401790D01*
X100444802Y-73315050D01*
X100487530Y-73235111D01*
X100545038Y-73165038D01*
X100615111Y-73107530D01*
X100695050Y-73064802D01*
X100781790Y-73038489D01*
X100878140Y-73029000D01*
X102041860Y-73029000D01*
X102138210Y-73038489D01*
G37*
G36*
X104678210Y-73038489D02*
G01*
X104764950Y-73064802D01*
X104844889Y-73107530D01*
X104914962Y-73165038D01*
X104972470Y-73235111D01*
X105015198Y-73315050D01*
X105041511Y-73401790D01*
X105051000Y-73498140D01*
X105051000Y-74661860D01*
X105041511Y-74758210D01*
X105015198Y-74844950D01*
X104972470Y-74924889D01*
X104914962Y-74994962D01*
X104844889Y-75052470D01*
X104764950Y-75095198D01*
X104678210Y-75121511D01*
X104581860Y-75131000D01*
X103418140Y-75131000D01*
X103321790Y-75121511D01*
X103235050Y-75095198D01*
X103155111Y-75052470D01*
X103085038Y-74994962D01*
X103027530Y-74924889D01*
X102984802Y-74844950D01*
X102958489Y-74758210D01*
X102949000Y-74661860D01*
X102949000Y-73498140D01*
X102958489Y-73401790D01*
X102984802Y-73315050D01*
X103027530Y-73235111D01*
X103085038Y-73165038D01*
X103155111Y-73107530D01*
X103235050Y-73064802D01*
X103321790Y-73038489D01*
X103418140Y-73029000D01*
X104581860Y-73029000D01*
X104678210Y-73038489D01*
G37*
G36*
X114863512Y-71513927D02*
G01*
X115012812Y-71543624D01*
X115176784Y-71611544D01*
X115324354Y-71710147D01*
X115449853Y-71835646D01*
X115548456Y-71983216D01*
X115616376Y-72147188D01*
X115651000Y-72321259D01*
X115651000Y-72498741D01*
X115616376Y-72672812D01*
X115548456Y-72836784D01*
X115449853Y-72984354D01*
X115324354Y-73109853D01*
X115176784Y-73208456D01*
X115012812Y-73276376D01*
X114863512Y-73306073D01*
X114838742Y-73311000D01*
X114661258Y-73311000D01*
X114636488Y-73306073D01*
X114487188Y-73276376D01*
X114323216Y-73208456D01*
X114175646Y-73109853D01*
X114050147Y-72984354D01*
X113951544Y-72836784D01*
X113883624Y-72672812D01*
X113849000Y-72498741D01*
X113849000Y-72321259D01*
X113883624Y-72147188D01*
X113951544Y-71983216D01*
X114050147Y-71835646D01*
X114175646Y-71710147D01*
X114323216Y-71611544D01*
X114487188Y-71543624D01*
X114636488Y-71513927D01*
X114661258Y-71509000D01*
X114838742Y-71509000D01*
X114863512Y-71513927D01*
G37*
G36*
X102138210Y-70498489D02*
G01*
X102224950Y-70524802D01*
X102304889Y-70567530D01*
X102374962Y-70625038D01*
X102432470Y-70695111D01*
X102475198Y-70775050D01*
X102501511Y-70861790D01*
X102511000Y-70958140D01*
X102511000Y-72121860D01*
X102501511Y-72218210D01*
X102475198Y-72304950D01*
X102432470Y-72384889D01*
X102374962Y-72454962D01*
X102304889Y-72512470D01*
X102224950Y-72555198D01*
X102138210Y-72581511D01*
X102041860Y-72591000D01*
X100878140Y-72591000D01*
X100781790Y-72581511D01*
X100695050Y-72555198D01*
X100615111Y-72512470D01*
X100545038Y-72454962D01*
X100487530Y-72384889D01*
X100444802Y-72304950D01*
X100418489Y-72218210D01*
X100409000Y-72121860D01*
X100409000Y-70958140D01*
X100418489Y-70861790D01*
X100444802Y-70775050D01*
X100487530Y-70695111D01*
X100545038Y-70625038D01*
X100615111Y-70567530D01*
X100695050Y-70524802D01*
X100781790Y-70498489D01*
X100878140Y-70489000D01*
X102041860Y-70489000D01*
X102138210Y-70498489D01*
G37*
G36*
X104678210Y-70498489D02*
G01*
X104764950Y-70524802D01*
X104844889Y-70567530D01*
X104914962Y-70625038D01*
X104972470Y-70695111D01*
X105015198Y-70775050D01*
X105041511Y-70861790D01*
X105051000Y-70958140D01*
X105051000Y-72121860D01*
X105041511Y-72218210D01*
X105015198Y-72304950D01*
X104972470Y-72384889D01*
X104914962Y-72454962D01*
X104844889Y-72512470D01*
X104764950Y-72555198D01*
X104678210Y-72581511D01*
X104581860Y-72591000D01*
X103418140Y-72591000D01*
X103321790Y-72581511D01*
X103235050Y-72555198D01*
X103155111Y-72512470D01*
X103085038Y-72454962D01*
X103027530Y-72384889D01*
X102984802Y-72304950D01*
X102958489Y-72218210D01*
X102949000Y-72121860D01*
X102949000Y-70958140D01*
X102958489Y-70861790D01*
X102984802Y-70775050D01*
X103027530Y-70695111D01*
X103085038Y-70625038D01*
X103155111Y-70567530D01*
X103235050Y-70524802D01*
X103321790Y-70498489D01*
X103418140Y-70489000D01*
X104581860Y-70489000D01*
X104678210Y-70498489D01*
G37*
G36*
X114863512Y-68973927D02*
G01*
X115012812Y-69003624D01*
X115176784Y-69071544D01*
X115324354Y-69170147D01*
X115449853Y-69295646D01*
X115548456Y-69443216D01*
X115616376Y-69607188D01*
X115651000Y-69781259D01*
X115651000Y-69958741D01*
X115616376Y-70132812D01*
X115548456Y-70296784D01*
X115449853Y-70444354D01*
X115324354Y-70569853D01*
X115176784Y-70668456D01*
X115012812Y-70736376D01*
X114863512Y-70766073D01*
X114838742Y-70771000D01*
X114661258Y-70771000D01*
X114636488Y-70766073D01*
X114487188Y-70736376D01*
X114323216Y-70668456D01*
X114175646Y-70569853D01*
X114050147Y-70444354D01*
X113951544Y-70296784D01*
X113883624Y-70132812D01*
X113849000Y-69958741D01*
X113849000Y-69781259D01*
X113883624Y-69607188D01*
X113951544Y-69443216D01*
X114050147Y-69295646D01*
X114175646Y-69170147D01*
X114323216Y-69071544D01*
X114487188Y-69003624D01*
X114636488Y-68973927D01*
X114661258Y-68969000D01*
X114838742Y-68969000D01*
X114863512Y-68973927D01*
G37*
G36*
X102138210Y-67958489D02*
G01*
X102224950Y-67984802D01*
X102304889Y-68027530D01*
X102374962Y-68085038D01*
X102432470Y-68155111D01*
X102475198Y-68235050D01*
X102501511Y-68321790D01*
X102511000Y-68418140D01*
X102511000Y-69581860D01*
X102501511Y-69678210D01*
X102475198Y-69764950D01*
X102432470Y-69844889D01*
X102374962Y-69914962D01*
X102304889Y-69972470D01*
X102224950Y-70015198D01*
X102138210Y-70041511D01*
X102041860Y-70051000D01*
X100878140Y-70051000D01*
X100781790Y-70041511D01*
X100695050Y-70015198D01*
X100615111Y-69972470D01*
X100545038Y-69914962D01*
X100487530Y-69844889D01*
X100444802Y-69764950D01*
X100418489Y-69678210D01*
X100409000Y-69581860D01*
X100409000Y-68418140D01*
X100418489Y-68321790D01*
X100444802Y-68235050D01*
X100487530Y-68155111D01*
X100545038Y-68085038D01*
X100615111Y-68027530D01*
X100695050Y-67984802D01*
X100781790Y-67958489D01*
X100878140Y-67949000D01*
X102041860Y-67949000D01*
X102138210Y-67958489D01*
G37*
G36*
X104678210Y-67958489D02*
G01*
X104764950Y-67984802D01*
X104844889Y-68027530D01*
X104914962Y-68085038D01*
X104972470Y-68155111D01*
X105015198Y-68235050D01*
X105041511Y-68321790D01*
X105051000Y-68418140D01*
X105051000Y-69581860D01*
X105041511Y-69678210D01*
X105015198Y-69764950D01*
X104972470Y-69844889D01*
X104914962Y-69914962D01*
X104844889Y-69972470D01*
X104764950Y-70015198D01*
X104678210Y-70041511D01*
X104581860Y-70051000D01*
X103418140Y-70051000D01*
X103321790Y-70041511D01*
X103235050Y-70015198D01*
X103155111Y-69972470D01*
X103085038Y-69914962D01*
X103027530Y-69844889D01*
X102984802Y-69764950D01*
X102958489Y-69678210D01*
X102949000Y-69581860D01*
X102949000Y-68418140D01*
X102958489Y-68321790D01*
X102984802Y-68235050D01*
X103027530Y-68155111D01*
X103085038Y-68085038D01*
X103155111Y-68027530D01*
X103235050Y-67984802D01*
X103321790Y-67958489D01*
X103418140Y-67949000D01*
X104581860Y-67949000D01*
X104678210Y-67958489D01*
G37*
G36*
X114863512Y-66433927D02*
G01*
X115012812Y-66463624D01*
X115176784Y-66531544D01*
X115324354Y-66630147D01*
X115449853Y-66755646D01*
X115548456Y-66903216D01*
X115616376Y-67067188D01*
X115651000Y-67241259D01*
X115651000Y-67418741D01*
X115616376Y-67592812D01*
X115548456Y-67756784D01*
X115449853Y-67904354D01*
X115324354Y-68029853D01*
X115176784Y-68128456D01*
X115012812Y-68196376D01*
X114863512Y-68226073D01*
X114838742Y-68231000D01*
X114661258Y-68231000D01*
X114636488Y-68226073D01*
X114487188Y-68196376D01*
X114323216Y-68128456D01*
X114175646Y-68029853D01*
X114050147Y-67904354D01*
X113951544Y-67756784D01*
X113883624Y-67592812D01*
X113849000Y-67418741D01*
X113849000Y-67241259D01*
X113883624Y-67067188D01*
X113951544Y-66903216D01*
X114050147Y-66755646D01*
X114175646Y-66630147D01*
X114323216Y-66531544D01*
X114487188Y-66463624D01*
X114636488Y-66433927D01*
X114661258Y-66429000D01*
X114838742Y-66429000D01*
X114863512Y-66433927D01*
G37*
G36*
X114863512Y-63893927D02*
G01*
X115012812Y-63923624D01*
X115176784Y-63991544D01*
X115324354Y-64090147D01*
X115449853Y-64215646D01*
X115548456Y-64363216D01*
X115616376Y-64527188D01*
X115651000Y-64701259D01*
X115651000Y-64878741D01*
X115616376Y-65052812D01*
X115548456Y-65216784D01*
X115449853Y-65364354D01*
X115324354Y-65489853D01*
X115176784Y-65588456D01*
X115012812Y-65656376D01*
X114863512Y-65686073D01*
X114838742Y-65691000D01*
X114661258Y-65691000D01*
X114636488Y-65686073D01*
X114487188Y-65656376D01*
X114323216Y-65588456D01*
X114175646Y-65489853D01*
X114050147Y-65364354D01*
X113951544Y-65216784D01*
X113883624Y-65052812D01*
X113849000Y-64878741D01*
X113849000Y-64701259D01*
X113883624Y-64527188D01*
X113951544Y-64363216D01*
X114050147Y-64215646D01*
X114175646Y-64090147D01*
X114323216Y-63991544D01*
X114487188Y-63923624D01*
X114636488Y-63893927D01*
X114661258Y-63889000D01*
X114838742Y-63889000D01*
X114863512Y-63893927D01*
G37*
G36*
X114863512Y-61353927D02*
G01*
X115012812Y-61383624D01*
X115176784Y-61451544D01*
X115324354Y-61550147D01*
X115449853Y-61675646D01*
X115548456Y-61823216D01*
X115616376Y-61987188D01*
X115651000Y-62161259D01*
X115651000Y-62338741D01*
X115616376Y-62512812D01*
X115548456Y-62676784D01*
X115449853Y-62824354D01*
X115324354Y-62949853D01*
X115176784Y-63048456D01*
X115012812Y-63116376D01*
X114863512Y-63146073D01*
X114838742Y-63151000D01*
X114661258Y-63151000D01*
X114636488Y-63146073D01*
X114487188Y-63116376D01*
X114323216Y-63048456D01*
X114175646Y-62949853D01*
X114050147Y-62824354D01*
X113951544Y-62676784D01*
X113883624Y-62512812D01*
X113849000Y-62338741D01*
X113849000Y-62161259D01*
X113883624Y-61987188D01*
X113951544Y-61823216D01*
X114050147Y-61675646D01*
X114175646Y-61550147D01*
X114323216Y-61451544D01*
X114487188Y-61383624D01*
X114636488Y-61353927D01*
X114661258Y-61349000D01*
X114838742Y-61349000D01*
X114863512Y-61353927D01*
G37*
G36*
X87755040Y-51967825D02*
G01*
X88000280Y-52042218D01*
X88226294Y-52163025D01*
X88277899Y-52205376D01*
X88424397Y-52325603D01*
X88544624Y-52472101D01*
X88586975Y-52523706D01*
X88707782Y-52749721D01*
X88782175Y-52994961D01*
X88801000Y-53186096D01*
X88801000Y-53813905D01*
X88782175Y-54005040D01*
X88707782Y-54250280D01*
X88586975Y-54476294D01*
X88424396Y-54674396D01*
X88226293Y-54836975D01*
X88000279Y-54957782D01*
X87755039Y-55032175D01*
X87500000Y-55057294D01*
X87244960Y-55032175D01*
X86999720Y-54957782D01*
X86999718Y-54957781D01*
X86773707Y-54836976D01*
X86575604Y-54674396D01*
X86413026Y-54476294D01*
X86413025Y-54476293D01*
X86292218Y-54250279D01*
X86217825Y-54005039D01*
X86199000Y-53813904D01*
X86199000Y-53186095D01*
X86217825Y-52994960D01*
X86292218Y-52749720D01*
X86292219Y-52749718D01*
X86413024Y-52523707D01*
X86575604Y-52325604D01*
X86686805Y-52234344D01*
X86773707Y-52163025D01*
X86999721Y-52042218D01*
X87244961Y-51967825D01*
X87500000Y-51942706D01*
X87755040Y-51967825D01*
G37*
G36*
X92755040Y-51967825D02*
G01*
X93000280Y-52042218D01*
X93226294Y-52163025D01*
X93277899Y-52205376D01*
X93424397Y-52325603D01*
X93544624Y-52472101D01*
X93586975Y-52523706D01*
X93707782Y-52749721D01*
X93782175Y-52994961D01*
X93801000Y-53186096D01*
X93801000Y-53813905D01*
X93782175Y-54005040D01*
X93707782Y-54250280D01*
X93586975Y-54476294D01*
X93424396Y-54674396D01*
X93226293Y-54836975D01*
X93000279Y-54957782D01*
X92755039Y-55032175D01*
X92500000Y-55057294D01*
X92244960Y-55032175D01*
X91999720Y-54957782D01*
X91999718Y-54957781D01*
X91773707Y-54836976D01*
X91575604Y-54674396D01*
X91413026Y-54476294D01*
X91413025Y-54476293D01*
X91292218Y-54250279D01*
X91217825Y-54005039D01*
X91199000Y-53813904D01*
X91199000Y-53186095D01*
X91217825Y-52994960D01*
X91292218Y-52749720D01*
X91292219Y-52749718D01*
X91413024Y-52523707D01*
X91575604Y-52325604D01*
X91686805Y-52234344D01*
X91773707Y-52163025D01*
X91999721Y-52042218D01*
X92244961Y-51967825D01*
X92500000Y-51942706D01*
X92755040Y-51967825D01*
G37*
M02*
