G04 #@! TF.GenerationSoftware,KiCad,Pcbnew,5.1.5+dfsg1-2build2*
G04 #@! TF.CreationDate,2021-01-21T00:37:08+01:00*
G04 #@! TF.ProjectId,t100-raspi,74313030-2d72-4617-9370-692e6b696361,rev?*
G04 #@! TF.SameCoordinates,Original*
G04 #@! TF.FileFunction,Soldermask,Top*
G04 #@! TF.FilePolarity,Negative*
%FSLAX46Y46*%
G04 Gerber Fmt 4.6, Leading zero omitted, Abs format (unit mm)*
G04 Created by KiCad (PCBNEW 5.1.5+dfsg1-2build2) date 2021-01-21 00:37:08*
%MOMM*%
%LPD*%
G04 APERTURE LIST*
%ADD10C,0.100000*%
G04 APERTURE END LIST*
D10*
G36*
X109800810Y-148999690D02*
G01*
X107801430Y-148999690D01*
X107801430Y-147000310D01*
X109800810Y-147000310D01*
X109800810Y-148999690D01*
G37*
G36*
X112198570Y-148999690D02*
G01*
X110199190Y-148999690D01*
X110199190Y-147000310D01*
X112198570Y-147000310D01*
X112198570Y-148999690D01*
G37*
G36*
X114949390Y-148999690D02*
G01*
X112950010Y-148999690D01*
X112950010Y-147000310D01*
X114949390Y-147000310D01*
X114949390Y-148999690D01*
G37*
G36*
X107049990Y-148999690D02*
G01*
X105050610Y-148999690D01*
X105050610Y-147000310D01*
X107049990Y-147000310D01*
X107049990Y-148999690D01*
G37*
G36*
X111550870Y-145323317D02*
G01*
X111553272Y-145347703D01*
X111560385Y-145371152D01*
X111571936Y-145392763D01*
X111587481Y-145411705D01*
X111606423Y-145427250D01*
X111628034Y-145438801D01*
X111651483Y-145445914D01*
X111675869Y-145448316D01*
X111700255Y-145445914D01*
X111723700Y-145438802D01*
X111766184Y-145421205D01*
X111853081Y-145403920D01*
X111941679Y-145403920D01*
X112028576Y-145421205D01*
X112110431Y-145455110D01*
X112184098Y-145504333D01*
X112246747Y-145566982D01*
X112295970Y-145640649D01*
X112329875Y-145722504D01*
X112347160Y-145809401D01*
X112347160Y-145897999D01*
X112329875Y-145984896D01*
X112295970Y-146066751D01*
X112246747Y-146140418D01*
X112184098Y-146203067D01*
X112110431Y-146252290D01*
X112034708Y-146283655D01*
X112028576Y-146286195D01*
X111941679Y-146303480D01*
X111853081Y-146303480D01*
X111766184Y-146286195D01*
X111760052Y-146283655D01*
X111684329Y-146252290D01*
X111610662Y-146203067D01*
X111548013Y-146140418D01*
X111525384Y-146106552D01*
X111509841Y-146087612D01*
X111490899Y-146072067D01*
X111469289Y-146060515D01*
X111445840Y-146053402D01*
X111421453Y-146051000D01*
X108574310Y-146051000D01*
X108549924Y-146053402D01*
X108526475Y-146060515D01*
X108504864Y-146072066D01*
X108485922Y-146087611D01*
X108470378Y-146106553D01*
X108449447Y-146137878D01*
X108386798Y-146200527D01*
X108313131Y-146249750D01*
X108231276Y-146283655D01*
X108144379Y-146300940D01*
X108055781Y-146300940D01*
X107968884Y-146283655D01*
X107887029Y-146249750D01*
X107813362Y-146200527D01*
X107750713Y-146137878D01*
X107701490Y-146064211D01*
X107667585Y-145982356D01*
X107650300Y-145895459D01*
X107650300Y-145806861D01*
X107667585Y-145719964D01*
X107701490Y-145638109D01*
X107750713Y-145564442D01*
X107813362Y-145501793D01*
X107887029Y-145452570D01*
X107968884Y-145418665D01*
X108055781Y-145401380D01*
X108144379Y-145401380D01*
X108231276Y-145418665D01*
X108276299Y-145437314D01*
X108299745Y-145444426D01*
X108324131Y-145446828D01*
X108348517Y-145444426D01*
X108371966Y-145437313D01*
X108393577Y-145425762D01*
X108412519Y-145410216D01*
X108428064Y-145391274D01*
X108439615Y-145369664D01*
X108446728Y-145346215D01*
X108449130Y-145321829D01*
X108449130Y-143949000D01*
X111550870Y-143949000D01*
X111550870Y-145323317D01*
G37*
G36*
X112664928Y-139951764D02*
G01*
X112686009Y-139958160D01*
X112705445Y-139968548D01*
X112722476Y-139982524D01*
X112736452Y-139999555D01*
X112746840Y-140018991D01*
X112753236Y-140040072D01*
X112756000Y-140068140D01*
X112756000Y-141881860D01*
X112753236Y-141909928D01*
X112746840Y-141931009D01*
X112736452Y-141950445D01*
X112722476Y-141967476D01*
X112705445Y-141981452D01*
X112686009Y-141991840D01*
X112664928Y-141998236D01*
X112636860Y-142001000D01*
X112173140Y-142001000D01*
X112145072Y-141998236D01*
X112123991Y-141991840D01*
X112104555Y-141981452D01*
X112087524Y-141967476D01*
X112073548Y-141950445D01*
X112063160Y-141931009D01*
X112056764Y-141909928D01*
X112054000Y-141881860D01*
X112054000Y-140068140D01*
X112056764Y-140040072D01*
X112063160Y-140018991D01*
X112073548Y-139999555D01*
X112087524Y-139982524D01*
X112104555Y-139968548D01*
X112123991Y-139958160D01*
X112145072Y-139951764D01*
X112173140Y-139949000D01*
X112636860Y-139949000D01*
X112664928Y-139951764D01*
G37*
G36*
X108854928Y-139951764D02*
G01*
X108876009Y-139958160D01*
X108895445Y-139968548D01*
X108912476Y-139982524D01*
X108926452Y-139999555D01*
X108936840Y-140018991D01*
X108943236Y-140040072D01*
X108946000Y-140068140D01*
X108946000Y-141881860D01*
X108943236Y-141909928D01*
X108936840Y-141931009D01*
X108926452Y-141950445D01*
X108912476Y-141967476D01*
X108895445Y-141981452D01*
X108876009Y-141991840D01*
X108854928Y-141998236D01*
X108826860Y-142001000D01*
X108363140Y-142001000D01*
X108335072Y-141998236D01*
X108313991Y-141991840D01*
X108294555Y-141981452D01*
X108277524Y-141967476D01*
X108263548Y-141950445D01*
X108253160Y-141931009D01*
X108246764Y-141909928D01*
X108244000Y-141881860D01*
X108244000Y-140068140D01*
X108246764Y-140040072D01*
X108253160Y-140018991D01*
X108263548Y-139999555D01*
X108277524Y-139982524D01*
X108294555Y-139968548D01*
X108313991Y-139958160D01*
X108335072Y-139951764D01*
X108363140Y-139949000D01*
X108826860Y-139949000D01*
X108854928Y-139951764D01*
G37*
G36*
X110124928Y-139951764D02*
G01*
X110146009Y-139958160D01*
X110165445Y-139968548D01*
X110182476Y-139982524D01*
X110196452Y-139999555D01*
X110206840Y-140018991D01*
X110213236Y-140040072D01*
X110216000Y-140068140D01*
X110216000Y-141881860D01*
X110213236Y-141909928D01*
X110206840Y-141931009D01*
X110196452Y-141950445D01*
X110182476Y-141967476D01*
X110165445Y-141981452D01*
X110146009Y-141991840D01*
X110124928Y-141998236D01*
X110096860Y-142001000D01*
X109633140Y-142001000D01*
X109605072Y-141998236D01*
X109583991Y-141991840D01*
X109564555Y-141981452D01*
X109547524Y-141967476D01*
X109533548Y-141950445D01*
X109523160Y-141931009D01*
X109516764Y-141909928D01*
X109514000Y-141881860D01*
X109514000Y-140068140D01*
X109516764Y-140040072D01*
X109523160Y-140018991D01*
X109533548Y-139999555D01*
X109547524Y-139982524D01*
X109564555Y-139968548D01*
X109583991Y-139958160D01*
X109605072Y-139951764D01*
X109633140Y-139949000D01*
X110096860Y-139949000D01*
X110124928Y-139951764D01*
G37*
G36*
X111394928Y-139951764D02*
G01*
X111416009Y-139958160D01*
X111435445Y-139968548D01*
X111452476Y-139982524D01*
X111466452Y-139999555D01*
X111476840Y-140018991D01*
X111483236Y-140040072D01*
X111486000Y-140068140D01*
X111486000Y-141881860D01*
X111483236Y-141909928D01*
X111476840Y-141931009D01*
X111466452Y-141950445D01*
X111452476Y-141967476D01*
X111435445Y-141981452D01*
X111416009Y-141991840D01*
X111394928Y-141998236D01*
X111366860Y-142001000D01*
X110903140Y-142001000D01*
X110875072Y-141998236D01*
X110853991Y-141991840D01*
X110834555Y-141981452D01*
X110817524Y-141967476D01*
X110803548Y-141950445D01*
X110793160Y-141931009D01*
X110786764Y-141909928D01*
X110784000Y-141881860D01*
X110784000Y-140068140D01*
X110786764Y-140040072D01*
X110793160Y-140018991D01*
X110803548Y-139999555D01*
X110817524Y-139982524D01*
X110834555Y-139968548D01*
X110853991Y-139958160D01*
X110875072Y-139951764D01*
X110903140Y-139949000D01*
X111366860Y-139949000D01*
X111394928Y-139951764D01*
G37*
G36*
X115588674Y-138403465D02*
G01*
X115626367Y-138414899D01*
X115661103Y-138433466D01*
X115691548Y-138458452D01*
X115716534Y-138488897D01*
X115735101Y-138523633D01*
X115746535Y-138561326D01*
X115751000Y-138606661D01*
X115751000Y-139443339D01*
X115746535Y-139488674D01*
X115735101Y-139526367D01*
X115716534Y-139561103D01*
X115691548Y-139591548D01*
X115661103Y-139616534D01*
X115626367Y-139635101D01*
X115588674Y-139646535D01*
X115543339Y-139651000D01*
X114456661Y-139651000D01*
X114411326Y-139646535D01*
X114373633Y-139635101D01*
X114338897Y-139616534D01*
X114308452Y-139591548D01*
X114283466Y-139561103D01*
X114264899Y-139526367D01*
X114253465Y-139488674D01*
X114249000Y-139443339D01*
X114249000Y-138606661D01*
X114253465Y-138561326D01*
X114264899Y-138523633D01*
X114283466Y-138488897D01*
X114308452Y-138458452D01*
X114338897Y-138433466D01*
X114373633Y-138414899D01*
X114411326Y-138403465D01*
X114456661Y-138399000D01*
X115543339Y-138399000D01*
X115588674Y-138403465D01*
G37*
G36*
X118088674Y-138403465D02*
G01*
X118126367Y-138414899D01*
X118161103Y-138433466D01*
X118191548Y-138458452D01*
X118216534Y-138488897D01*
X118235101Y-138523633D01*
X118246535Y-138561326D01*
X118251000Y-138606661D01*
X118251000Y-139443339D01*
X118246535Y-139488674D01*
X118235101Y-139526367D01*
X118216534Y-139561103D01*
X118191548Y-139591548D01*
X118161103Y-139616534D01*
X118126367Y-139635101D01*
X118088674Y-139646535D01*
X118043339Y-139651000D01*
X116956661Y-139651000D01*
X116911326Y-139646535D01*
X116873633Y-139635101D01*
X116838897Y-139616534D01*
X116808452Y-139591548D01*
X116783466Y-139561103D01*
X116764899Y-139526367D01*
X116753465Y-139488674D01*
X116749000Y-139443339D01*
X116749000Y-138606661D01*
X116753465Y-138561326D01*
X116764899Y-138523633D01*
X116783466Y-138488897D01*
X116808452Y-138458452D01*
X116838897Y-138433466D01*
X116873633Y-138414899D01*
X116911326Y-138403465D01*
X116956661Y-138399000D01*
X118043339Y-138399000D01*
X118088674Y-138403465D01*
G37*
G36*
X115588674Y-136353465D02*
G01*
X115626367Y-136364899D01*
X115661103Y-136383466D01*
X115691548Y-136408452D01*
X115716534Y-136438897D01*
X115735101Y-136473633D01*
X115746535Y-136511326D01*
X115751000Y-136556661D01*
X115751000Y-137393339D01*
X115746535Y-137438674D01*
X115735101Y-137476367D01*
X115716534Y-137511103D01*
X115691548Y-137541548D01*
X115661103Y-137566534D01*
X115626367Y-137585101D01*
X115588674Y-137596535D01*
X115543339Y-137601000D01*
X114456661Y-137601000D01*
X114411326Y-137596535D01*
X114373633Y-137585101D01*
X114338897Y-137566534D01*
X114308452Y-137541548D01*
X114283466Y-137511103D01*
X114264899Y-137476367D01*
X114253465Y-137438674D01*
X114249000Y-137393339D01*
X114249000Y-136556661D01*
X114253465Y-136511326D01*
X114264899Y-136473633D01*
X114283466Y-136438897D01*
X114308452Y-136408452D01*
X114338897Y-136383466D01*
X114373633Y-136364899D01*
X114411326Y-136353465D01*
X114456661Y-136349000D01*
X115543339Y-136349000D01*
X115588674Y-136353465D01*
G37*
G36*
X118088674Y-136353465D02*
G01*
X118126367Y-136364899D01*
X118161103Y-136383466D01*
X118191548Y-136408452D01*
X118216534Y-136438897D01*
X118235101Y-136473633D01*
X118246535Y-136511326D01*
X118251000Y-136556661D01*
X118251000Y-137393339D01*
X118246535Y-137438674D01*
X118235101Y-137476367D01*
X118216534Y-137511103D01*
X118191548Y-137541548D01*
X118161103Y-137566534D01*
X118126367Y-137585101D01*
X118088674Y-137596535D01*
X118043339Y-137601000D01*
X116956661Y-137601000D01*
X116911326Y-137596535D01*
X116873633Y-137585101D01*
X116838897Y-137566534D01*
X116808452Y-137541548D01*
X116783466Y-137511103D01*
X116764899Y-137476367D01*
X116753465Y-137438674D01*
X116749000Y-137393339D01*
X116749000Y-136556661D01*
X116753465Y-136511326D01*
X116764899Y-136473633D01*
X116783466Y-136438897D01*
X116808452Y-136408452D01*
X116838897Y-136383466D01*
X116873633Y-136364899D01*
X116911326Y-136353465D01*
X116956661Y-136349000D01*
X118043339Y-136349000D01*
X118088674Y-136353465D01*
G37*
G36*
X122901000Y-137401000D02*
G01*
X121099000Y-137401000D01*
X121099000Y-135599000D01*
X122901000Y-135599000D01*
X122901000Y-137401000D01*
G37*
G36*
X111394928Y-135001764D02*
G01*
X111416009Y-135008160D01*
X111435445Y-135018548D01*
X111452476Y-135032524D01*
X111466452Y-135049555D01*
X111476840Y-135068991D01*
X111483236Y-135090072D01*
X111486000Y-135118140D01*
X111486000Y-136931860D01*
X111483236Y-136959928D01*
X111476840Y-136981009D01*
X111466452Y-137000445D01*
X111452476Y-137017476D01*
X111435445Y-137031452D01*
X111416009Y-137041840D01*
X111394928Y-137048236D01*
X111366860Y-137051000D01*
X110903140Y-137051000D01*
X110875072Y-137048236D01*
X110853991Y-137041840D01*
X110834555Y-137031452D01*
X110817524Y-137017476D01*
X110803548Y-137000445D01*
X110793160Y-136981009D01*
X110786764Y-136959928D01*
X110784000Y-136931860D01*
X110784000Y-135118140D01*
X110786764Y-135090072D01*
X110793160Y-135068991D01*
X110803548Y-135049555D01*
X110817524Y-135032524D01*
X110834555Y-135018548D01*
X110853991Y-135008160D01*
X110875072Y-135001764D01*
X110903140Y-134999000D01*
X111366860Y-134999000D01*
X111394928Y-135001764D01*
G37*
G36*
X110124928Y-135001764D02*
G01*
X110146009Y-135008160D01*
X110165445Y-135018548D01*
X110182476Y-135032524D01*
X110196452Y-135049555D01*
X110206840Y-135068991D01*
X110213236Y-135090072D01*
X110216000Y-135118140D01*
X110216000Y-136931860D01*
X110213236Y-136959928D01*
X110206840Y-136981009D01*
X110196452Y-137000445D01*
X110182476Y-137017476D01*
X110165445Y-137031452D01*
X110146009Y-137041840D01*
X110124928Y-137048236D01*
X110096860Y-137051000D01*
X109633140Y-137051000D01*
X109605072Y-137048236D01*
X109583991Y-137041840D01*
X109564555Y-137031452D01*
X109547524Y-137017476D01*
X109533548Y-137000445D01*
X109523160Y-136981009D01*
X109516764Y-136959928D01*
X109514000Y-136931860D01*
X109514000Y-135118140D01*
X109516764Y-135090072D01*
X109523160Y-135068991D01*
X109533548Y-135049555D01*
X109547524Y-135032524D01*
X109564555Y-135018548D01*
X109583991Y-135008160D01*
X109605072Y-135001764D01*
X109633140Y-134999000D01*
X110096860Y-134999000D01*
X110124928Y-135001764D01*
G37*
G36*
X112664928Y-135001764D02*
G01*
X112686009Y-135008160D01*
X112705445Y-135018548D01*
X112722476Y-135032524D01*
X112736452Y-135049555D01*
X112746840Y-135068991D01*
X112753236Y-135090072D01*
X112756000Y-135118140D01*
X112756000Y-136931860D01*
X112753236Y-136959928D01*
X112746840Y-136981009D01*
X112736452Y-137000445D01*
X112722476Y-137017476D01*
X112705445Y-137031452D01*
X112686009Y-137041840D01*
X112664928Y-137048236D01*
X112636860Y-137051000D01*
X112173140Y-137051000D01*
X112145072Y-137048236D01*
X112123991Y-137041840D01*
X112104555Y-137031452D01*
X112087524Y-137017476D01*
X112073548Y-137000445D01*
X112063160Y-136981009D01*
X112056764Y-136959928D01*
X112054000Y-136931860D01*
X112054000Y-135118140D01*
X112056764Y-135090072D01*
X112063160Y-135068991D01*
X112073548Y-135049555D01*
X112087524Y-135032524D01*
X112104555Y-135018548D01*
X112123991Y-135008160D01*
X112145072Y-135001764D01*
X112173140Y-134999000D01*
X112636860Y-134999000D01*
X112664928Y-135001764D01*
G37*
G36*
X108854928Y-135001764D02*
G01*
X108876009Y-135008160D01*
X108895445Y-135018548D01*
X108912476Y-135032524D01*
X108926452Y-135049555D01*
X108936840Y-135068991D01*
X108943236Y-135090072D01*
X108946000Y-135118140D01*
X108946000Y-136931860D01*
X108943236Y-136959928D01*
X108936840Y-136981009D01*
X108926452Y-137000445D01*
X108912476Y-137017476D01*
X108895445Y-137031452D01*
X108876009Y-137041840D01*
X108854928Y-137048236D01*
X108826860Y-137051000D01*
X108363140Y-137051000D01*
X108335072Y-137048236D01*
X108313991Y-137041840D01*
X108294555Y-137031452D01*
X108277524Y-137017476D01*
X108263548Y-137000445D01*
X108253160Y-136981009D01*
X108246764Y-136959928D01*
X108244000Y-136931860D01*
X108244000Y-135118140D01*
X108246764Y-135090072D01*
X108253160Y-135068991D01*
X108263548Y-135049555D01*
X108277524Y-135032524D01*
X108294555Y-135018548D01*
X108313991Y-135008160D01*
X108335072Y-135001764D01*
X108363140Y-134999000D01*
X108826860Y-134999000D01*
X108854928Y-135001764D01*
G37*
G36*
X122113512Y-133063927D02*
G01*
X122262812Y-133093624D01*
X122426784Y-133161544D01*
X122574354Y-133260147D01*
X122699853Y-133385646D01*
X122798456Y-133533216D01*
X122866376Y-133697188D01*
X122901000Y-133871259D01*
X122901000Y-134048741D01*
X122866376Y-134222812D01*
X122798456Y-134386784D01*
X122699853Y-134534354D01*
X122574354Y-134659853D01*
X122426784Y-134758456D01*
X122262812Y-134826376D01*
X122113512Y-134856073D01*
X122088742Y-134861000D01*
X121911258Y-134861000D01*
X121886488Y-134856073D01*
X121737188Y-134826376D01*
X121573216Y-134758456D01*
X121425646Y-134659853D01*
X121300147Y-134534354D01*
X121201544Y-134386784D01*
X121133624Y-134222812D01*
X121099000Y-134048741D01*
X121099000Y-133871259D01*
X121133624Y-133697188D01*
X121201544Y-133533216D01*
X121300147Y-133385646D01*
X121425646Y-133260147D01*
X121573216Y-133161544D01*
X121737188Y-133093624D01*
X121886488Y-133063927D01*
X121911258Y-133059000D01*
X122088742Y-133059000D01*
X122113512Y-133063927D01*
G37*
G36*
X122113512Y-130523927D02*
G01*
X122262812Y-130553624D01*
X122426784Y-130621544D01*
X122574354Y-130720147D01*
X122699853Y-130845646D01*
X122798456Y-130993216D01*
X122866376Y-131157188D01*
X122901000Y-131331259D01*
X122901000Y-131508741D01*
X122866376Y-131682812D01*
X122798456Y-131846784D01*
X122699853Y-131994354D01*
X122574354Y-132119853D01*
X122426784Y-132218456D01*
X122262812Y-132286376D01*
X122113512Y-132316073D01*
X122088742Y-132321000D01*
X121911258Y-132321000D01*
X121886488Y-132316073D01*
X121737188Y-132286376D01*
X121573216Y-132218456D01*
X121425646Y-132119853D01*
X121300147Y-131994354D01*
X121201544Y-131846784D01*
X121133624Y-131682812D01*
X121099000Y-131508741D01*
X121099000Y-131331259D01*
X121133624Y-131157188D01*
X121201544Y-130993216D01*
X121300147Y-130845646D01*
X121425646Y-130720147D01*
X121573216Y-130621544D01*
X121737188Y-130553624D01*
X121886488Y-130523927D01*
X121911258Y-130519000D01*
X122088742Y-130519000D01*
X122113512Y-130523927D01*
G37*
G36*
X113855997Y-122153051D02*
G01*
X113889652Y-122163261D01*
X113920665Y-122179838D01*
X113947851Y-122202149D01*
X113970162Y-122229335D01*
X113986739Y-122260348D01*
X113996949Y-122294003D01*
X114001000Y-122335138D01*
X114001000Y-123664862D01*
X113996949Y-123705997D01*
X113986739Y-123739652D01*
X113970162Y-123770665D01*
X113947851Y-123797851D01*
X113920665Y-123820162D01*
X113889652Y-123836739D01*
X113855997Y-123846949D01*
X113814862Y-123851000D01*
X110585138Y-123851000D01*
X110544003Y-123846949D01*
X110510348Y-123836739D01*
X110479335Y-123820162D01*
X110452149Y-123797851D01*
X110429838Y-123770665D01*
X110413261Y-123739652D01*
X110403051Y-123705997D01*
X110399000Y-123664862D01*
X110399000Y-122335138D01*
X110403051Y-122294003D01*
X110413261Y-122260348D01*
X110429838Y-122229335D01*
X110452149Y-122202149D01*
X110479335Y-122179838D01*
X110510348Y-122163261D01*
X110544003Y-122153051D01*
X110585138Y-122149000D01*
X113814862Y-122149000D01*
X113855997Y-122153051D01*
G37*
G36*
X119455997Y-122153051D02*
G01*
X119489652Y-122163261D01*
X119520665Y-122179838D01*
X119547851Y-122202149D01*
X119570162Y-122229335D01*
X119586739Y-122260348D01*
X119596949Y-122294003D01*
X119601000Y-122335138D01*
X119601000Y-123664862D01*
X119596949Y-123705997D01*
X119586739Y-123739652D01*
X119570162Y-123770665D01*
X119547851Y-123797851D01*
X119520665Y-123820162D01*
X119489652Y-123836739D01*
X119455997Y-123846949D01*
X119414862Y-123851000D01*
X116185138Y-123851000D01*
X116144003Y-123846949D01*
X116110348Y-123836739D01*
X116079335Y-123820162D01*
X116052149Y-123797851D01*
X116029838Y-123770665D01*
X116013261Y-123739652D01*
X116003051Y-123705997D01*
X115999000Y-123664862D01*
X115999000Y-122335138D01*
X116003051Y-122294003D01*
X116013261Y-122260348D01*
X116029838Y-122229335D01*
X116052149Y-122202149D01*
X116079335Y-122179838D01*
X116110348Y-122163261D01*
X116144003Y-122153051D01*
X116185138Y-122149000D01*
X119414862Y-122149000D01*
X119455997Y-122153051D01*
G37*
G36*
X102138210Y-116218489D02*
G01*
X102224950Y-116244802D01*
X102304889Y-116287530D01*
X102374962Y-116345038D01*
X102432470Y-116415111D01*
X102475198Y-116495050D01*
X102501511Y-116581790D01*
X102511000Y-116678140D01*
X102511000Y-117841860D01*
X102501511Y-117938210D01*
X102475198Y-118024950D01*
X102432470Y-118104889D01*
X102374962Y-118174962D01*
X102304889Y-118232470D01*
X102224950Y-118275198D01*
X102138210Y-118301511D01*
X102041860Y-118311000D01*
X100878140Y-118311000D01*
X100781790Y-118301511D01*
X100695050Y-118275198D01*
X100615111Y-118232470D01*
X100545038Y-118174962D01*
X100487530Y-118104889D01*
X100444802Y-118024950D01*
X100418489Y-117938210D01*
X100409000Y-117841860D01*
X100409000Y-116678140D01*
X100418489Y-116581790D01*
X100444802Y-116495050D01*
X100487530Y-116415111D01*
X100545038Y-116345038D01*
X100615111Y-116287530D01*
X100695050Y-116244802D01*
X100781790Y-116218489D01*
X100878140Y-116209000D01*
X102041860Y-116209000D01*
X102138210Y-116218489D01*
G37*
G36*
X104678210Y-116218489D02*
G01*
X104764950Y-116244802D01*
X104844889Y-116287530D01*
X104914962Y-116345038D01*
X104972470Y-116415111D01*
X105015198Y-116495050D01*
X105041511Y-116581790D01*
X105051000Y-116678140D01*
X105051000Y-117841860D01*
X105041511Y-117938210D01*
X105015198Y-118024950D01*
X104972470Y-118104889D01*
X104914962Y-118174962D01*
X104844889Y-118232470D01*
X104764950Y-118275198D01*
X104678210Y-118301511D01*
X104581860Y-118311000D01*
X103418140Y-118311000D01*
X103321790Y-118301511D01*
X103235050Y-118275198D01*
X103155111Y-118232470D01*
X103085038Y-118174962D01*
X103027530Y-118104889D01*
X102984802Y-118024950D01*
X102958489Y-117938210D01*
X102949000Y-117841860D01*
X102949000Y-116678140D01*
X102958489Y-116581790D01*
X102984802Y-116495050D01*
X103027530Y-116415111D01*
X103085038Y-116345038D01*
X103155111Y-116287530D01*
X103235050Y-116244802D01*
X103321790Y-116218489D01*
X103418140Y-116209000D01*
X104581860Y-116209000D01*
X104678210Y-116218489D01*
G37*
G36*
X113501000Y-118001000D02*
G01*
X110949000Y-118001000D01*
X110949000Y-111999000D01*
X113501000Y-111999000D01*
X113501000Y-118001000D01*
G37*
G36*
X119051000Y-118001000D02*
G01*
X116499000Y-118001000D01*
X116499000Y-111999000D01*
X119051000Y-111999000D01*
X119051000Y-118001000D01*
G37*
G36*
X102138210Y-113678489D02*
G01*
X102224950Y-113704802D01*
X102304889Y-113747530D01*
X102374962Y-113805038D01*
X102432470Y-113875111D01*
X102475198Y-113955050D01*
X102501511Y-114041790D01*
X102511000Y-114138140D01*
X102511000Y-115301860D01*
X102501511Y-115398210D01*
X102475198Y-115484950D01*
X102432470Y-115564889D01*
X102374962Y-115634962D01*
X102304889Y-115692470D01*
X102224950Y-115735198D01*
X102138210Y-115761511D01*
X102041860Y-115771000D01*
X100878140Y-115771000D01*
X100781790Y-115761511D01*
X100695050Y-115735198D01*
X100615111Y-115692470D01*
X100545038Y-115634962D01*
X100487530Y-115564889D01*
X100444802Y-115484950D01*
X100418489Y-115398210D01*
X100409000Y-115301860D01*
X100409000Y-114138140D01*
X100418489Y-114041790D01*
X100444802Y-113955050D01*
X100487530Y-113875111D01*
X100545038Y-113805038D01*
X100615111Y-113747530D01*
X100695050Y-113704802D01*
X100781790Y-113678489D01*
X100878140Y-113669000D01*
X102041860Y-113669000D01*
X102138210Y-113678489D01*
G37*
G36*
X104678210Y-113678489D02*
G01*
X104764950Y-113704802D01*
X104844889Y-113747530D01*
X104914962Y-113805038D01*
X104972470Y-113875111D01*
X105015198Y-113955050D01*
X105041511Y-114041790D01*
X105051000Y-114138140D01*
X105051000Y-115301860D01*
X105041511Y-115398210D01*
X105015198Y-115484950D01*
X104972470Y-115564889D01*
X104914962Y-115634962D01*
X104844889Y-115692470D01*
X104764950Y-115735198D01*
X104678210Y-115761511D01*
X104581860Y-115771000D01*
X103418140Y-115771000D01*
X103321790Y-115761511D01*
X103235050Y-115735198D01*
X103155111Y-115692470D01*
X103085038Y-115634962D01*
X103027530Y-115564889D01*
X102984802Y-115484950D01*
X102958489Y-115398210D01*
X102949000Y-115301860D01*
X102949000Y-114138140D01*
X102958489Y-114041790D01*
X102984802Y-113955050D01*
X103027530Y-113875111D01*
X103085038Y-113805038D01*
X103155111Y-113747530D01*
X103235050Y-113704802D01*
X103321790Y-113678489D01*
X103418140Y-113669000D01*
X104581860Y-113669000D01*
X104678210Y-113678489D01*
G37*
G36*
X104678210Y-111138489D02*
G01*
X104764950Y-111164802D01*
X104844889Y-111207530D01*
X104914962Y-111265038D01*
X104972470Y-111335111D01*
X105015198Y-111415050D01*
X105041511Y-111501790D01*
X105051000Y-111598140D01*
X105051000Y-112761860D01*
X105041511Y-112858210D01*
X105015198Y-112944950D01*
X104972470Y-113024889D01*
X104914962Y-113094962D01*
X104844889Y-113152470D01*
X104764950Y-113195198D01*
X104678210Y-113221511D01*
X104581860Y-113231000D01*
X103418140Y-113231000D01*
X103321790Y-113221511D01*
X103235050Y-113195198D01*
X103155111Y-113152470D01*
X103085038Y-113094962D01*
X103027530Y-113024889D01*
X102984802Y-112944950D01*
X102958489Y-112858210D01*
X102949000Y-112761860D01*
X102949000Y-111598140D01*
X102958489Y-111501790D01*
X102984802Y-111415050D01*
X103027530Y-111335111D01*
X103085038Y-111265038D01*
X103155111Y-111207530D01*
X103235050Y-111164802D01*
X103321790Y-111138489D01*
X103418140Y-111129000D01*
X104581860Y-111129000D01*
X104678210Y-111138489D01*
G37*
G36*
X102138210Y-111138489D02*
G01*
X102224950Y-111164802D01*
X102304889Y-111207530D01*
X102374962Y-111265038D01*
X102432470Y-111335111D01*
X102475198Y-111415050D01*
X102501511Y-111501790D01*
X102511000Y-111598140D01*
X102511000Y-112761860D01*
X102501511Y-112858210D01*
X102475198Y-112944950D01*
X102432470Y-113024889D01*
X102374962Y-113094962D01*
X102304889Y-113152470D01*
X102224950Y-113195198D01*
X102138210Y-113221511D01*
X102041860Y-113231000D01*
X100878140Y-113231000D01*
X100781790Y-113221511D01*
X100695050Y-113195198D01*
X100615111Y-113152470D01*
X100545038Y-113094962D01*
X100487530Y-113024889D01*
X100444802Y-112944950D01*
X100418489Y-112858210D01*
X100409000Y-112761860D01*
X100409000Y-111598140D01*
X100418489Y-111501790D01*
X100444802Y-111415050D01*
X100487530Y-111335111D01*
X100545038Y-111265038D01*
X100615111Y-111207530D01*
X100695050Y-111164802D01*
X100781790Y-111138489D01*
X100878140Y-111129000D01*
X102041860Y-111129000D01*
X102138210Y-111138489D01*
G37*
G36*
X114434468Y-109253565D02*
G01*
X114473138Y-109265296D01*
X114508777Y-109284346D01*
X114540017Y-109309983D01*
X114565654Y-109341223D01*
X114584704Y-109376862D01*
X114596435Y-109415532D01*
X114601000Y-109461888D01*
X114601000Y-110538112D01*
X114596435Y-110584468D01*
X114584704Y-110623138D01*
X114565654Y-110658777D01*
X114540017Y-110690017D01*
X114508777Y-110715654D01*
X114473138Y-110734704D01*
X114434468Y-110746435D01*
X114388112Y-110751000D01*
X113736888Y-110751000D01*
X113690532Y-110746435D01*
X113651862Y-110734704D01*
X113616223Y-110715654D01*
X113584983Y-110690017D01*
X113559346Y-110658777D01*
X113540296Y-110623138D01*
X113528565Y-110584468D01*
X113524000Y-110538112D01*
X113524000Y-109461888D01*
X113528565Y-109415532D01*
X113540296Y-109376862D01*
X113559346Y-109341223D01*
X113584983Y-109309983D01*
X113616223Y-109284346D01*
X113651862Y-109265296D01*
X113690532Y-109253565D01*
X113736888Y-109249000D01*
X114388112Y-109249000D01*
X114434468Y-109253565D01*
G37*
G36*
X116309468Y-109253565D02*
G01*
X116348138Y-109265296D01*
X116383777Y-109284346D01*
X116415017Y-109309983D01*
X116440654Y-109341223D01*
X116459704Y-109376862D01*
X116471435Y-109415532D01*
X116476000Y-109461888D01*
X116476000Y-110538112D01*
X116471435Y-110584468D01*
X116459704Y-110623138D01*
X116440654Y-110658777D01*
X116415017Y-110690017D01*
X116383777Y-110715654D01*
X116348138Y-110734704D01*
X116309468Y-110746435D01*
X116263112Y-110751000D01*
X115611888Y-110751000D01*
X115565532Y-110746435D01*
X115526862Y-110734704D01*
X115491223Y-110715654D01*
X115459983Y-110690017D01*
X115434346Y-110658777D01*
X115415296Y-110623138D01*
X115403565Y-110584468D01*
X115399000Y-110538112D01*
X115399000Y-109461888D01*
X115403565Y-109415532D01*
X115415296Y-109376862D01*
X115434346Y-109341223D01*
X115459983Y-109309983D01*
X115491223Y-109284346D01*
X115526862Y-109265296D01*
X115565532Y-109253565D01*
X115611888Y-109249000D01*
X116263112Y-109249000D01*
X116309468Y-109253565D01*
G37*
G36*
X104678210Y-108598489D02*
G01*
X104764950Y-108624802D01*
X104844889Y-108667530D01*
X104914962Y-108725038D01*
X104972470Y-108795111D01*
X105015198Y-108875050D01*
X105041511Y-108961790D01*
X105051000Y-109058140D01*
X105051000Y-110221860D01*
X105041511Y-110318210D01*
X105015198Y-110404950D01*
X104972470Y-110484889D01*
X104914962Y-110554962D01*
X104844889Y-110612470D01*
X104764950Y-110655198D01*
X104678210Y-110681511D01*
X104581860Y-110691000D01*
X103418140Y-110691000D01*
X103321790Y-110681511D01*
X103235050Y-110655198D01*
X103155111Y-110612470D01*
X103085038Y-110554962D01*
X103027530Y-110484889D01*
X102984802Y-110404950D01*
X102958489Y-110318210D01*
X102949000Y-110221860D01*
X102949000Y-109058140D01*
X102958489Y-108961790D01*
X102984802Y-108875050D01*
X103027530Y-108795111D01*
X103085038Y-108725038D01*
X103155111Y-108667530D01*
X103235050Y-108624802D01*
X103321790Y-108598489D01*
X103418140Y-108589000D01*
X104581860Y-108589000D01*
X104678210Y-108598489D01*
G37*
G36*
X102138210Y-108598489D02*
G01*
X102224950Y-108624802D01*
X102304889Y-108667530D01*
X102374962Y-108725038D01*
X102432470Y-108795111D01*
X102475198Y-108875050D01*
X102501511Y-108961790D01*
X102511000Y-109058140D01*
X102511000Y-110221860D01*
X102501511Y-110318210D01*
X102475198Y-110404950D01*
X102432470Y-110484889D01*
X102374962Y-110554962D01*
X102304889Y-110612470D01*
X102224950Y-110655198D01*
X102138210Y-110681511D01*
X102041860Y-110691000D01*
X100878140Y-110691000D01*
X100781790Y-110681511D01*
X100695050Y-110655198D01*
X100615111Y-110612470D01*
X100545038Y-110554962D01*
X100487530Y-110484889D01*
X100444802Y-110404950D01*
X100418489Y-110318210D01*
X100409000Y-110221860D01*
X100409000Y-109058140D01*
X100418489Y-108961790D01*
X100444802Y-108875050D01*
X100487530Y-108795111D01*
X100545038Y-108725038D01*
X100615111Y-108667530D01*
X100695050Y-108624802D01*
X100781790Y-108598489D01*
X100878140Y-108589000D01*
X102041860Y-108589000D01*
X102138210Y-108598489D01*
G37*
G36*
X119584468Y-108403565D02*
G01*
X119623138Y-108415296D01*
X119658777Y-108434346D01*
X119690017Y-108459983D01*
X119715654Y-108491223D01*
X119734704Y-108526862D01*
X119746435Y-108565532D01*
X119751000Y-108611888D01*
X119751000Y-109263112D01*
X119746435Y-109309468D01*
X119734704Y-109348138D01*
X119715654Y-109383777D01*
X119690017Y-109415017D01*
X119658777Y-109440654D01*
X119623138Y-109459704D01*
X119584468Y-109471435D01*
X119538112Y-109476000D01*
X118461888Y-109476000D01*
X118415532Y-109471435D01*
X118376862Y-109459704D01*
X118341223Y-109440654D01*
X118309983Y-109415017D01*
X118284346Y-109383777D01*
X118265296Y-109348138D01*
X118253565Y-109309468D01*
X118249000Y-109263112D01*
X118249000Y-108611888D01*
X118253565Y-108565532D01*
X118265296Y-108526862D01*
X118284346Y-108491223D01*
X118309983Y-108459983D01*
X118341223Y-108434346D01*
X118376862Y-108415296D01*
X118415532Y-108403565D01*
X118461888Y-108399000D01*
X119538112Y-108399000D01*
X119584468Y-108403565D01*
G37*
G36*
X102138210Y-106058489D02*
G01*
X102224950Y-106084802D01*
X102304889Y-106127530D01*
X102374962Y-106185038D01*
X102432470Y-106255111D01*
X102475198Y-106335050D01*
X102501511Y-106421790D01*
X102511000Y-106518140D01*
X102511000Y-107681860D01*
X102501511Y-107778210D01*
X102475198Y-107864950D01*
X102432470Y-107944889D01*
X102374962Y-108014962D01*
X102304889Y-108072470D01*
X102224950Y-108115198D01*
X102138210Y-108141511D01*
X102041860Y-108151000D01*
X100878140Y-108151000D01*
X100781790Y-108141511D01*
X100695050Y-108115198D01*
X100615111Y-108072470D01*
X100545038Y-108014962D01*
X100487530Y-107944889D01*
X100444802Y-107864950D01*
X100418489Y-107778210D01*
X100409000Y-107681860D01*
X100409000Y-106518140D01*
X100418489Y-106421790D01*
X100444802Y-106335050D01*
X100487530Y-106255111D01*
X100545038Y-106185038D01*
X100615111Y-106127530D01*
X100695050Y-106084802D01*
X100781790Y-106058489D01*
X100878140Y-106049000D01*
X102041860Y-106049000D01*
X102138210Y-106058489D01*
G37*
G36*
X104678210Y-106058489D02*
G01*
X104764950Y-106084802D01*
X104844889Y-106127530D01*
X104914962Y-106185038D01*
X104972470Y-106255111D01*
X105015198Y-106335050D01*
X105041511Y-106421790D01*
X105051000Y-106518140D01*
X105051000Y-107681860D01*
X105041511Y-107778210D01*
X105015198Y-107864950D01*
X104972470Y-107944889D01*
X104914962Y-108014962D01*
X104844889Y-108072470D01*
X104764950Y-108115198D01*
X104678210Y-108141511D01*
X104581860Y-108151000D01*
X103418140Y-108151000D01*
X103321790Y-108141511D01*
X103235050Y-108115198D01*
X103155111Y-108072470D01*
X103085038Y-108014962D01*
X103027530Y-107944889D01*
X102984802Y-107864950D01*
X102958489Y-107778210D01*
X102949000Y-107681860D01*
X102949000Y-106518140D01*
X102958489Y-106421790D01*
X102984802Y-106335050D01*
X103027530Y-106255111D01*
X103085038Y-106185038D01*
X103155111Y-106127530D01*
X103235050Y-106084802D01*
X103321790Y-106058489D01*
X103418140Y-106049000D01*
X104581860Y-106049000D01*
X104678210Y-106058489D01*
G37*
G36*
X119584468Y-106528565D02*
G01*
X119623138Y-106540296D01*
X119658777Y-106559346D01*
X119690017Y-106584983D01*
X119715654Y-106616223D01*
X119734704Y-106651862D01*
X119746435Y-106690532D01*
X119751000Y-106736888D01*
X119751000Y-107388112D01*
X119746435Y-107434468D01*
X119734704Y-107473138D01*
X119715654Y-107508777D01*
X119690017Y-107540017D01*
X119658777Y-107565654D01*
X119623138Y-107584704D01*
X119584468Y-107596435D01*
X119538112Y-107601000D01*
X118461888Y-107601000D01*
X118415532Y-107596435D01*
X118376862Y-107584704D01*
X118341223Y-107565654D01*
X118309983Y-107540017D01*
X118284346Y-107508777D01*
X118265296Y-107473138D01*
X118253565Y-107434468D01*
X118249000Y-107388112D01*
X118249000Y-106736888D01*
X118253565Y-106690532D01*
X118265296Y-106651862D01*
X118284346Y-106616223D01*
X118309983Y-106584983D01*
X118341223Y-106559346D01*
X118376862Y-106540296D01*
X118415532Y-106528565D01*
X118461888Y-106524000D01*
X119538112Y-106524000D01*
X119584468Y-106528565D01*
G37*
G36*
X111584468Y-106403565D02*
G01*
X111623138Y-106415296D01*
X111658777Y-106434346D01*
X111690017Y-106459983D01*
X111715654Y-106491223D01*
X111734704Y-106526862D01*
X111746435Y-106565532D01*
X111751000Y-106611888D01*
X111751000Y-107263112D01*
X111746435Y-107309468D01*
X111734704Y-107348138D01*
X111715654Y-107383777D01*
X111690017Y-107415017D01*
X111658777Y-107440654D01*
X111623138Y-107459704D01*
X111584468Y-107471435D01*
X111538112Y-107476000D01*
X110461888Y-107476000D01*
X110415532Y-107471435D01*
X110376862Y-107459704D01*
X110341223Y-107440654D01*
X110309983Y-107415017D01*
X110284346Y-107383777D01*
X110265296Y-107348138D01*
X110253565Y-107309468D01*
X110249000Y-107263112D01*
X110249000Y-106611888D01*
X110253565Y-106565532D01*
X110265296Y-106526862D01*
X110284346Y-106491223D01*
X110309983Y-106459983D01*
X110341223Y-106434346D01*
X110376862Y-106415296D01*
X110415532Y-106403565D01*
X110461888Y-106399000D01*
X111538112Y-106399000D01*
X111584468Y-106403565D01*
G37*
G36*
X116681000Y-107326000D02*
G01*
X115519000Y-107326000D01*
X115519000Y-104674000D01*
X116681000Y-104674000D01*
X116681000Y-107326000D01*
G37*
G36*
X114481000Y-107326000D02*
G01*
X113319000Y-107326000D01*
X113319000Y-104674000D01*
X114481000Y-104674000D01*
X114481000Y-107326000D01*
G37*
G36*
X102138210Y-103518489D02*
G01*
X102224950Y-103544802D01*
X102304889Y-103587530D01*
X102374962Y-103645038D01*
X102432470Y-103715111D01*
X102475198Y-103795050D01*
X102501511Y-103881790D01*
X102511000Y-103978140D01*
X102511000Y-105141860D01*
X102501511Y-105238210D01*
X102475198Y-105324950D01*
X102432470Y-105404889D01*
X102374962Y-105474962D01*
X102304889Y-105532470D01*
X102224950Y-105575198D01*
X102138210Y-105601511D01*
X102041860Y-105611000D01*
X100878140Y-105611000D01*
X100781790Y-105601511D01*
X100695050Y-105575198D01*
X100615111Y-105532470D01*
X100545038Y-105474962D01*
X100487530Y-105404889D01*
X100444802Y-105324950D01*
X100418489Y-105238210D01*
X100409000Y-105141860D01*
X100409000Y-103978140D01*
X100418489Y-103881790D01*
X100444802Y-103795050D01*
X100487530Y-103715111D01*
X100545038Y-103645038D01*
X100615111Y-103587530D01*
X100695050Y-103544802D01*
X100781790Y-103518489D01*
X100878140Y-103509000D01*
X102041860Y-103509000D01*
X102138210Y-103518489D01*
G37*
G36*
X104678210Y-103518489D02*
G01*
X104764950Y-103544802D01*
X104844889Y-103587530D01*
X104914962Y-103645038D01*
X104972470Y-103715111D01*
X105015198Y-103795050D01*
X105041511Y-103881790D01*
X105051000Y-103978140D01*
X105051000Y-105141860D01*
X105041511Y-105238210D01*
X105015198Y-105324950D01*
X104972470Y-105404889D01*
X104914962Y-105474962D01*
X104844889Y-105532470D01*
X104764950Y-105575198D01*
X104678210Y-105601511D01*
X104581860Y-105611000D01*
X103418140Y-105611000D01*
X103321790Y-105601511D01*
X103235050Y-105575198D01*
X103155111Y-105532470D01*
X103085038Y-105474962D01*
X103027530Y-105404889D01*
X102984802Y-105324950D01*
X102958489Y-105238210D01*
X102949000Y-105141860D01*
X102949000Y-103978140D01*
X102958489Y-103881790D01*
X102984802Y-103795050D01*
X103027530Y-103715111D01*
X103085038Y-103645038D01*
X103155111Y-103587530D01*
X103235050Y-103544802D01*
X103321790Y-103518489D01*
X103418140Y-103509000D01*
X104581860Y-103509000D01*
X104678210Y-103518489D01*
G37*
G36*
X111584468Y-104528565D02*
G01*
X111623138Y-104540296D01*
X111658777Y-104559346D01*
X111690017Y-104584983D01*
X111715654Y-104616223D01*
X111734704Y-104651862D01*
X111746435Y-104690532D01*
X111751000Y-104736888D01*
X111751000Y-105388112D01*
X111746435Y-105434468D01*
X111734704Y-105473138D01*
X111715654Y-105508777D01*
X111690017Y-105540017D01*
X111658777Y-105565654D01*
X111623138Y-105584704D01*
X111584468Y-105596435D01*
X111538112Y-105601000D01*
X110461888Y-105601000D01*
X110415532Y-105596435D01*
X110376862Y-105584704D01*
X110341223Y-105565654D01*
X110309983Y-105540017D01*
X110284346Y-105508777D01*
X110265296Y-105473138D01*
X110253565Y-105434468D01*
X110249000Y-105388112D01*
X110249000Y-104736888D01*
X110253565Y-104690532D01*
X110265296Y-104651862D01*
X110284346Y-104616223D01*
X110309983Y-104584983D01*
X110341223Y-104559346D01*
X110376862Y-104540296D01*
X110415532Y-104528565D01*
X110461888Y-104524000D01*
X111538112Y-104524000D01*
X111584468Y-104528565D01*
G37*
G36*
X119584468Y-104403565D02*
G01*
X119623138Y-104415296D01*
X119658777Y-104434346D01*
X119690017Y-104459983D01*
X119715654Y-104491223D01*
X119734704Y-104526862D01*
X119746435Y-104565532D01*
X119751000Y-104611888D01*
X119751000Y-105263112D01*
X119746435Y-105309468D01*
X119734704Y-105348138D01*
X119715654Y-105383777D01*
X119690017Y-105415017D01*
X119658777Y-105440654D01*
X119623138Y-105459704D01*
X119584468Y-105471435D01*
X119538112Y-105476000D01*
X118461888Y-105476000D01*
X118415532Y-105471435D01*
X118376862Y-105459704D01*
X118341223Y-105440654D01*
X118309983Y-105415017D01*
X118284346Y-105383777D01*
X118265296Y-105348138D01*
X118253565Y-105309468D01*
X118249000Y-105263112D01*
X118249000Y-104611888D01*
X118253565Y-104565532D01*
X118265296Y-104526862D01*
X118284346Y-104491223D01*
X118309983Y-104459983D01*
X118341223Y-104434346D01*
X118376862Y-104415296D01*
X118415532Y-104403565D01*
X118461888Y-104399000D01*
X119538112Y-104399000D01*
X119584468Y-104403565D01*
G37*
G36*
X119584468Y-102528565D02*
G01*
X119623138Y-102540296D01*
X119658777Y-102559346D01*
X119690017Y-102584983D01*
X119715654Y-102616223D01*
X119734704Y-102651862D01*
X119746435Y-102690532D01*
X119751000Y-102736888D01*
X119751000Y-103388112D01*
X119746435Y-103434468D01*
X119734704Y-103473138D01*
X119715654Y-103508777D01*
X119690017Y-103540017D01*
X119658777Y-103565654D01*
X119623138Y-103584704D01*
X119584468Y-103596435D01*
X119538112Y-103601000D01*
X118461888Y-103601000D01*
X118415532Y-103596435D01*
X118376862Y-103584704D01*
X118341223Y-103565654D01*
X118309983Y-103540017D01*
X118284346Y-103508777D01*
X118265296Y-103473138D01*
X118253565Y-103434468D01*
X118249000Y-103388112D01*
X118249000Y-102736888D01*
X118253565Y-102690532D01*
X118265296Y-102651862D01*
X118284346Y-102616223D01*
X118309983Y-102584983D01*
X118341223Y-102559346D01*
X118376862Y-102540296D01*
X118415532Y-102528565D01*
X118461888Y-102524000D01*
X119538112Y-102524000D01*
X119584468Y-102528565D01*
G37*
G36*
X102138210Y-100978489D02*
G01*
X102224950Y-101004802D01*
X102304889Y-101047530D01*
X102374962Y-101105038D01*
X102432470Y-101175111D01*
X102475198Y-101255050D01*
X102501511Y-101341790D01*
X102511000Y-101438140D01*
X102511000Y-102601860D01*
X102501511Y-102698210D01*
X102475198Y-102784950D01*
X102432470Y-102864889D01*
X102374962Y-102934962D01*
X102304889Y-102992470D01*
X102224950Y-103035198D01*
X102138210Y-103061511D01*
X102041860Y-103071000D01*
X100878140Y-103071000D01*
X100781790Y-103061511D01*
X100695050Y-103035198D01*
X100615111Y-102992470D01*
X100545038Y-102934962D01*
X100487530Y-102864889D01*
X100444802Y-102784950D01*
X100418489Y-102698210D01*
X100409000Y-102601860D01*
X100409000Y-101438140D01*
X100418489Y-101341790D01*
X100444802Y-101255050D01*
X100487530Y-101175111D01*
X100545038Y-101105038D01*
X100615111Y-101047530D01*
X100695050Y-101004802D01*
X100781790Y-100978489D01*
X100878140Y-100969000D01*
X102041860Y-100969000D01*
X102138210Y-100978489D01*
G37*
G36*
X104678210Y-100978489D02*
G01*
X104764950Y-101004802D01*
X104844889Y-101047530D01*
X104914962Y-101105038D01*
X104972470Y-101175111D01*
X105015198Y-101255050D01*
X105041511Y-101341790D01*
X105051000Y-101438140D01*
X105051000Y-102601860D01*
X105041511Y-102698210D01*
X105015198Y-102784950D01*
X104972470Y-102864889D01*
X104914962Y-102934962D01*
X104844889Y-102992470D01*
X104764950Y-103035198D01*
X104678210Y-103061511D01*
X104581860Y-103071000D01*
X103418140Y-103071000D01*
X103321790Y-103061511D01*
X103235050Y-103035198D01*
X103155111Y-102992470D01*
X103085038Y-102934962D01*
X103027530Y-102864889D01*
X102984802Y-102784950D01*
X102958489Y-102698210D01*
X102949000Y-102601860D01*
X102949000Y-101438140D01*
X102958489Y-101341790D01*
X102984802Y-101255050D01*
X103027530Y-101175111D01*
X103085038Y-101105038D01*
X103155111Y-101047530D01*
X103235050Y-101004802D01*
X103321790Y-100978489D01*
X103418140Y-100969000D01*
X104581860Y-100969000D01*
X104678210Y-100978489D01*
G37*
G36*
X116309468Y-101253565D02*
G01*
X116348138Y-101265296D01*
X116383777Y-101284346D01*
X116415017Y-101309983D01*
X116440654Y-101341223D01*
X116459704Y-101376862D01*
X116471435Y-101415532D01*
X116476000Y-101461888D01*
X116476000Y-102538112D01*
X116471435Y-102584468D01*
X116459704Y-102623138D01*
X116440654Y-102658777D01*
X116415017Y-102690017D01*
X116383777Y-102715654D01*
X116348138Y-102734704D01*
X116309468Y-102746435D01*
X116263112Y-102751000D01*
X115611888Y-102751000D01*
X115565532Y-102746435D01*
X115526862Y-102734704D01*
X115491223Y-102715654D01*
X115459983Y-102690017D01*
X115434346Y-102658777D01*
X115415296Y-102623138D01*
X115403565Y-102584468D01*
X115399000Y-102538112D01*
X115399000Y-101461888D01*
X115403565Y-101415532D01*
X115415296Y-101376862D01*
X115434346Y-101341223D01*
X115459983Y-101309983D01*
X115491223Y-101284346D01*
X115526862Y-101265296D01*
X115565532Y-101253565D01*
X115611888Y-101249000D01*
X116263112Y-101249000D01*
X116309468Y-101253565D01*
G37*
G36*
X114434468Y-101253565D02*
G01*
X114473138Y-101265296D01*
X114508777Y-101284346D01*
X114540017Y-101309983D01*
X114565654Y-101341223D01*
X114584704Y-101376862D01*
X114596435Y-101415532D01*
X114601000Y-101461888D01*
X114601000Y-102538112D01*
X114596435Y-102584468D01*
X114584704Y-102623138D01*
X114565654Y-102658777D01*
X114540017Y-102690017D01*
X114508777Y-102715654D01*
X114473138Y-102734704D01*
X114434468Y-102746435D01*
X114388112Y-102751000D01*
X113736888Y-102751000D01*
X113690532Y-102746435D01*
X113651862Y-102734704D01*
X113616223Y-102715654D01*
X113584983Y-102690017D01*
X113559346Y-102658777D01*
X113540296Y-102623138D01*
X113528565Y-102584468D01*
X113524000Y-102538112D01*
X113524000Y-101461888D01*
X113528565Y-101415532D01*
X113540296Y-101376862D01*
X113559346Y-101341223D01*
X113584983Y-101309983D01*
X113616223Y-101284346D01*
X113651862Y-101265296D01*
X113690532Y-101253565D01*
X113736888Y-101249000D01*
X114388112Y-101249000D01*
X114434468Y-101253565D01*
G37*
G36*
X102138210Y-98438489D02*
G01*
X102224950Y-98464802D01*
X102304889Y-98507530D01*
X102374962Y-98565038D01*
X102432470Y-98635111D01*
X102475198Y-98715050D01*
X102501511Y-98801790D01*
X102511000Y-98898140D01*
X102511000Y-100061860D01*
X102501511Y-100158210D01*
X102475198Y-100244950D01*
X102432470Y-100324889D01*
X102374962Y-100394962D01*
X102304889Y-100452470D01*
X102224950Y-100495198D01*
X102138210Y-100521511D01*
X102041860Y-100531000D01*
X100878140Y-100531000D01*
X100781790Y-100521511D01*
X100695050Y-100495198D01*
X100615111Y-100452470D01*
X100545038Y-100394962D01*
X100487530Y-100324889D01*
X100444802Y-100244950D01*
X100418489Y-100158210D01*
X100409000Y-100061860D01*
X100409000Y-98898140D01*
X100418489Y-98801790D01*
X100444802Y-98715050D01*
X100487530Y-98635111D01*
X100545038Y-98565038D01*
X100615111Y-98507530D01*
X100695050Y-98464802D01*
X100781790Y-98438489D01*
X100878140Y-98429000D01*
X102041860Y-98429000D01*
X102138210Y-98438489D01*
G37*
G36*
X104678210Y-98438489D02*
G01*
X104764950Y-98464802D01*
X104844889Y-98507530D01*
X104914962Y-98565038D01*
X104972470Y-98635111D01*
X105015198Y-98715050D01*
X105041511Y-98801790D01*
X105051000Y-98898140D01*
X105051000Y-100061860D01*
X105041511Y-100158210D01*
X105015198Y-100244950D01*
X104972470Y-100324889D01*
X104914962Y-100394962D01*
X104844889Y-100452470D01*
X104764950Y-100495198D01*
X104678210Y-100521511D01*
X104581860Y-100531000D01*
X103418140Y-100531000D01*
X103321790Y-100521511D01*
X103235050Y-100495198D01*
X103155111Y-100452470D01*
X103085038Y-100394962D01*
X103027530Y-100324889D01*
X102984802Y-100244950D01*
X102958489Y-100158210D01*
X102949000Y-100061860D01*
X102949000Y-98898140D01*
X102958489Y-98801790D01*
X102984802Y-98715050D01*
X103027530Y-98635111D01*
X103085038Y-98565038D01*
X103155111Y-98507530D01*
X103235050Y-98464802D01*
X103321790Y-98438489D01*
X103418140Y-98429000D01*
X104581860Y-98429000D01*
X104678210Y-98438489D01*
G37*
G36*
X102138210Y-95898489D02*
G01*
X102224950Y-95924802D01*
X102304889Y-95967530D01*
X102374962Y-96025038D01*
X102432470Y-96095111D01*
X102475198Y-96175050D01*
X102501511Y-96261790D01*
X102511000Y-96358140D01*
X102511000Y-97521860D01*
X102501511Y-97618210D01*
X102475198Y-97704950D01*
X102432470Y-97784889D01*
X102374962Y-97854962D01*
X102304889Y-97912470D01*
X102224950Y-97955198D01*
X102138210Y-97981511D01*
X102041860Y-97991000D01*
X100878140Y-97991000D01*
X100781790Y-97981511D01*
X100695050Y-97955198D01*
X100615111Y-97912470D01*
X100545038Y-97854962D01*
X100487530Y-97784889D01*
X100444802Y-97704950D01*
X100418489Y-97618210D01*
X100409000Y-97521860D01*
X100409000Y-96358140D01*
X100418489Y-96261790D01*
X100444802Y-96175050D01*
X100487530Y-96095111D01*
X100545038Y-96025038D01*
X100615111Y-95967530D01*
X100695050Y-95924802D01*
X100781790Y-95898489D01*
X100878140Y-95889000D01*
X102041860Y-95889000D01*
X102138210Y-95898489D01*
G37*
G36*
X104678210Y-95898489D02*
G01*
X104764950Y-95924802D01*
X104844889Y-95967530D01*
X104914962Y-96025038D01*
X104972470Y-96095111D01*
X105015198Y-96175050D01*
X105041511Y-96261790D01*
X105051000Y-96358140D01*
X105051000Y-97521860D01*
X105041511Y-97618210D01*
X105015198Y-97704950D01*
X104972470Y-97784889D01*
X104914962Y-97854962D01*
X104844889Y-97912470D01*
X104764950Y-97955198D01*
X104678210Y-97981511D01*
X104581860Y-97991000D01*
X103418140Y-97991000D01*
X103321790Y-97981511D01*
X103235050Y-97955198D01*
X103155111Y-97912470D01*
X103085038Y-97854962D01*
X103027530Y-97784889D01*
X102984802Y-97704950D01*
X102958489Y-97618210D01*
X102949000Y-97521860D01*
X102949000Y-96358140D01*
X102958489Y-96261790D01*
X102984802Y-96175050D01*
X103027530Y-96095111D01*
X103085038Y-96025038D01*
X103155111Y-95967530D01*
X103235050Y-95924802D01*
X103321790Y-95898489D01*
X103418140Y-95889000D01*
X104581860Y-95889000D01*
X104678210Y-95898489D01*
G37*
G36*
X119455997Y-96153051D02*
G01*
X119489652Y-96163261D01*
X119520665Y-96179838D01*
X119547851Y-96202149D01*
X119570162Y-96229335D01*
X119586739Y-96260348D01*
X119596949Y-96294003D01*
X119601000Y-96335138D01*
X119601000Y-97664862D01*
X119596949Y-97705997D01*
X119586739Y-97739652D01*
X119570162Y-97770665D01*
X119547851Y-97797851D01*
X119520665Y-97820162D01*
X119489652Y-97836739D01*
X119455997Y-97846949D01*
X119414862Y-97851000D01*
X116185138Y-97851000D01*
X116144003Y-97846949D01*
X116110348Y-97836739D01*
X116079335Y-97820162D01*
X116052149Y-97797851D01*
X116029838Y-97770665D01*
X116013261Y-97739652D01*
X116003051Y-97705997D01*
X115999000Y-97664862D01*
X115999000Y-96335138D01*
X116003051Y-96294003D01*
X116013261Y-96260348D01*
X116029838Y-96229335D01*
X116052149Y-96202149D01*
X116079335Y-96179838D01*
X116110348Y-96163261D01*
X116144003Y-96153051D01*
X116185138Y-96149000D01*
X119414862Y-96149000D01*
X119455997Y-96153051D01*
G37*
G36*
X113855997Y-96153051D02*
G01*
X113889652Y-96163261D01*
X113920665Y-96179838D01*
X113947851Y-96202149D01*
X113970162Y-96229335D01*
X113986739Y-96260348D01*
X113996949Y-96294003D01*
X114001000Y-96335138D01*
X114001000Y-97664862D01*
X113996949Y-97705997D01*
X113986739Y-97739652D01*
X113970162Y-97770665D01*
X113947851Y-97797851D01*
X113920665Y-97820162D01*
X113889652Y-97836739D01*
X113855997Y-97846949D01*
X113814862Y-97851000D01*
X110585138Y-97851000D01*
X110544003Y-97846949D01*
X110510348Y-97836739D01*
X110479335Y-97820162D01*
X110452149Y-97797851D01*
X110429838Y-97770665D01*
X110413261Y-97739652D01*
X110403051Y-97705997D01*
X110399000Y-97664862D01*
X110399000Y-96335138D01*
X110403051Y-96294003D01*
X110413261Y-96260348D01*
X110429838Y-96229335D01*
X110452149Y-96202149D01*
X110479335Y-96179838D01*
X110510348Y-96163261D01*
X110544003Y-96153051D01*
X110585138Y-96149000D01*
X113814862Y-96149000D01*
X113855997Y-96153051D01*
G37*
G36*
X102138210Y-93358489D02*
G01*
X102224950Y-93384802D01*
X102304889Y-93427530D01*
X102374962Y-93485038D01*
X102432470Y-93555111D01*
X102475198Y-93635050D01*
X102501511Y-93721790D01*
X102511000Y-93818140D01*
X102511000Y-94981860D01*
X102501511Y-95078210D01*
X102475198Y-95164950D01*
X102432470Y-95244889D01*
X102374962Y-95314962D01*
X102304889Y-95372470D01*
X102224950Y-95415198D01*
X102138210Y-95441511D01*
X102041860Y-95451000D01*
X100878140Y-95451000D01*
X100781790Y-95441511D01*
X100695050Y-95415198D01*
X100615111Y-95372470D01*
X100545038Y-95314962D01*
X100487530Y-95244889D01*
X100444802Y-95164950D01*
X100418489Y-95078210D01*
X100409000Y-94981860D01*
X100409000Y-93818140D01*
X100418489Y-93721790D01*
X100444802Y-93635050D01*
X100487530Y-93555111D01*
X100545038Y-93485038D01*
X100615111Y-93427530D01*
X100695050Y-93384802D01*
X100781790Y-93358489D01*
X100878140Y-93349000D01*
X102041860Y-93349000D01*
X102138210Y-93358489D01*
G37*
G36*
X104678210Y-93358489D02*
G01*
X104764950Y-93384802D01*
X104844889Y-93427530D01*
X104914962Y-93485038D01*
X104972470Y-93555111D01*
X105015198Y-93635050D01*
X105041511Y-93721790D01*
X105051000Y-93818140D01*
X105051000Y-94981860D01*
X105041511Y-95078210D01*
X105015198Y-95164950D01*
X104972470Y-95244889D01*
X104914962Y-95314962D01*
X104844889Y-95372470D01*
X104764950Y-95415198D01*
X104678210Y-95441511D01*
X104581860Y-95451000D01*
X103418140Y-95451000D01*
X103321790Y-95441511D01*
X103235050Y-95415198D01*
X103155111Y-95372470D01*
X103085038Y-95314962D01*
X103027530Y-95244889D01*
X102984802Y-95164950D01*
X102958489Y-95078210D01*
X102949000Y-94981860D01*
X102949000Y-93818140D01*
X102958489Y-93721790D01*
X102984802Y-93635050D01*
X103027530Y-93555111D01*
X103085038Y-93485038D01*
X103155111Y-93427530D01*
X103235050Y-93384802D01*
X103321790Y-93358489D01*
X103418140Y-93349000D01*
X104581860Y-93349000D01*
X104678210Y-93358489D01*
G37*
G36*
X104678210Y-90818489D02*
G01*
X104764950Y-90844802D01*
X104844889Y-90887530D01*
X104914962Y-90945038D01*
X104972470Y-91015111D01*
X105015198Y-91095050D01*
X105041511Y-91181790D01*
X105051000Y-91278140D01*
X105051000Y-92441860D01*
X105041511Y-92538210D01*
X105015198Y-92624950D01*
X104972470Y-92704889D01*
X104914962Y-92774962D01*
X104844889Y-92832470D01*
X104764950Y-92875198D01*
X104678210Y-92901511D01*
X104581860Y-92911000D01*
X103418140Y-92911000D01*
X103321790Y-92901511D01*
X103235050Y-92875198D01*
X103155111Y-92832470D01*
X103085038Y-92774962D01*
X103027530Y-92704889D01*
X102984802Y-92624950D01*
X102958489Y-92538210D01*
X102949000Y-92441860D01*
X102949000Y-91278140D01*
X102958489Y-91181790D01*
X102984802Y-91095050D01*
X103027530Y-91015111D01*
X103085038Y-90945038D01*
X103155111Y-90887530D01*
X103235050Y-90844802D01*
X103321790Y-90818489D01*
X103418140Y-90809000D01*
X104581860Y-90809000D01*
X104678210Y-90818489D01*
G37*
G36*
X102138210Y-90818489D02*
G01*
X102224950Y-90844802D01*
X102304889Y-90887530D01*
X102374962Y-90945038D01*
X102432470Y-91015111D01*
X102475198Y-91095050D01*
X102501511Y-91181790D01*
X102511000Y-91278140D01*
X102511000Y-92441860D01*
X102501511Y-92538210D01*
X102475198Y-92624950D01*
X102432470Y-92704889D01*
X102374962Y-92774962D01*
X102304889Y-92832470D01*
X102224950Y-92875198D01*
X102138210Y-92901511D01*
X102041860Y-92911000D01*
X100878140Y-92911000D01*
X100781790Y-92901511D01*
X100695050Y-92875198D01*
X100615111Y-92832470D01*
X100545038Y-92774962D01*
X100487530Y-92704889D01*
X100444802Y-92624950D01*
X100418489Y-92538210D01*
X100409000Y-92441860D01*
X100409000Y-91278140D01*
X100418489Y-91181790D01*
X100444802Y-91095050D01*
X100487530Y-91015111D01*
X100545038Y-90945038D01*
X100615111Y-90887530D01*
X100695050Y-90844802D01*
X100781790Y-90818489D01*
X100878140Y-90809000D01*
X102041860Y-90809000D01*
X102138210Y-90818489D01*
G37*
G36*
X111084468Y-91653565D02*
G01*
X111123138Y-91665296D01*
X111158777Y-91684346D01*
X111190017Y-91709983D01*
X111215654Y-91741223D01*
X111234704Y-91776862D01*
X111246435Y-91815532D01*
X111251000Y-91861888D01*
X111251000Y-92513112D01*
X111246435Y-92559468D01*
X111234704Y-92598138D01*
X111215654Y-92633777D01*
X111190017Y-92665017D01*
X111158777Y-92690654D01*
X111123138Y-92709704D01*
X111084468Y-92721435D01*
X111038112Y-92726000D01*
X109961888Y-92726000D01*
X109915532Y-92721435D01*
X109876862Y-92709704D01*
X109841223Y-92690654D01*
X109809983Y-92665017D01*
X109784346Y-92633777D01*
X109765296Y-92598138D01*
X109753565Y-92559468D01*
X109749000Y-92513112D01*
X109749000Y-91861888D01*
X109753565Y-91815532D01*
X109765296Y-91776862D01*
X109784346Y-91741223D01*
X109809983Y-91709983D01*
X109841223Y-91684346D01*
X109876862Y-91665296D01*
X109915532Y-91653565D01*
X109961888Y-91649000D01*
X111038112Y-91649000D01*
X111084468Y-91653565D01*
G37*
G36*
X115651000Y-91091000D02*
G01*
X113849000Y-91091000D01*
X113849000Y-89289000D01*
X115651000Y-89289000D01*
X115651000Y-91091000D01*
G37*
G36*
X111084468Y-89778565D02*
G01*
X111123138Y-89790296D01*
X111158777Y-89809346D01*
X111190017Y-89834983D01*
X111215654Y-89866223D01*
X111234704Y-89901862D01*
X111246435Y-89940532D01*
X111251000Y-89986888D01*
X111251000Y-90638112D01*
X111246435Y-90684468D01*
X111234704Y-90723138D01*
X111215654Y-90758777D01*
X111190017Y-90790017D01*
X111158777Y-90815654D01*
X111123138Y-90834704D01*
X111084468Y-90846435D01*
X111038112Y-90851000D01*
X109961888Y-90851000D01*
X109915532Y-90846435D01*
X109876862Y-90834704D01*
X109841223Y-90815654D01*
X109809983Y-90790017D01*
X109784346Y-90758777D01*
X109765296Y-90723138D01*
X109753565Y-90684468D01*
X109749000Y-90638112D01*
X109749000Y-89986888D01*
X109753565Y-89940532D01*
X109765296Y-89901862D01*
X109784346Y-89866223D01*
X109809983Y-89834983D01*
X109841223Y-89809346D01*
X109876862Y-89790296D01*
X109915532Y-89778565D01*
X109961888Y-89774000D01*
X111038112Y-89774000D01*
X111084468Y-89778565D01*
G37*
G36*
X104678210Y-88278489D02*
G01*
X104764950Y-88304802D01*
X104844889Y-88347530D01*
X104914962Y-88405038D01*
X104972470Y-88475111D01*
X105015198Y-88555050D01*
X105041511Y-88641790D01*
X105051000Y-88738140D01*
X105051000Y-89901860D01*
X105041511Y-89998210D01*
X105015198Y-90084950D01*
X104972470Y-90164889D01*
X104914962Y-90234962D01*
X104844889Y-90292470D01*
X104764950Y-90335198D01*
X104678210Y-90361511D01*
X104581860Y-90371000D01*
X103418140Y-90371000D01*
X103321790Y-90361511D01*
X103235050Y-90335198D01*
X103155111Y-90292470D01*
X103085038Y-90234962D01*
X103027530Y-90164889D01*
X102984802Y-90084950D01*
X102958489Y-89998210D01*
X102949000Y-89901860D01*
X102949000Y-88738140D01*
X102958489Y-88641790D01*
X102984802Y-88555050D01*
X103027530Y-88475111D01*
X103085038Y-88405038D01*
X103155111Y-88347530D01*
X103235050Y-88304802D01*
X103321790Y-88278489D01*
X103418140Y-88269000D01*
X104581860Y-88269000D01*
X104678210Y-88278489D01*
G37*
G36*
X102138210Y-88278489D02*
G01*
X102224950Y-88304802D01*
X102304889Y-88347530D01*
X102374962Y-88405038D01*
X102432470Y-88475111D01*
X102475198Y-88555050D01*
X102501511Y-88641790D01*
X102511000Y-88738140D01*
X102511000Y-89901860D01*
X102501511Y-89998210D01*
X102475198Y-90084950D01*
X102432470Y-90164889D01*
X102374962Y-90234962D01*
X102304889Y-90292470D01*
X102224950Y-90335198D01*
X102138210Y-90361511D01*
X102041860Y-90371000D01*
X100878140Y-90371000D01*
X100781790Y-90361511D01*
X100695050Y-90335198D01*
X100615111Y-90292470D01*
X100545038Y-90234962D01*
X100487530Y-90164889D01*
X100444802Y-90084950D01*
X100418489Y-89998210D01*
X100409000Y-89901860D01*
X100409000Y-88738140D01*
X100418489Y-88641790D01*
X100444802Y-88555050D01*
X100487530Y-88475111D01*
X100545038Y-88405038D01*
X100615111Y-88347530D01*
X100695050Y-88304802D01*
X100781790Y-88278489D01*
X100878140Y-88269000D01*
X102041860Y-88269000D01*
X102138210Y-88278489D01*
G37*
G36*
X114863512Y-86753927D02*
G01*
X115012812Y-86783624D01*
X115176784Y-86851544D01*
X115324354Y-86950147D01*
X115449853Y-87075646D01*
X115548456Y-87223216D01*
X115616376Y-87387188D01*
X115651000Y-87561259D01*
X115651000Y-87738741D01*
X115616376Y-87912812D01*
X115548456Y-88076784D01*
X115449853Y-88224354D01*
X115324354Y-88349853D01*
X115176784Y-88448456D01*
X115012812Y-88516376D01*
X114863512Y-88546073D01*
X114838742Y-88551000D01*
X114661258Y-88551000D01*
X114636488Y-88546073D01*
X114487188Y-88516376D01*
X114323216Y-88448456D01*
X114175646Y-88349853D01*
X114050147Y-88224354D01*
X113951544Y-88076784D01*
X113883624Y-87912812D01*
X113849000Y-87738741D01*
X113849000Y-87561259D01*
X113883624Y-87387188D01*
X113951544Y-87223216D01*
X114050147Y-87075646D01*
X114175646Y-86950147D01*
X114323216Y-86851544D01*
X114487188Y-86783624D01*
X114636488Y-86753927D01*
X114661258Y-86749000D01*
X114838742Y-86749000D01*
X114863512Y-86753927D01*
G37*
G36*
X102138210Y-85738489D02*
G01*
X102224950Y-85764802D01*
X102304889Y-85807530D01*
X102374962Y-85865038D01*
X102432470Y-85935111D01*
X102475198Y-86015050D01*
X102501511Y-86101790D01*
X102511000Y-86198140D01*
X102511000Y-87361860D01*
X102501511Y-87458210D01*
X102475198Y-87544950D01*
X102432470Y-87624889D01*
X102374962Y-87694962D01*
X102304889Y-87752470D01*
X102224950Y-87795198D01*
X102138210Y-87821511D01*
X102041860Y-87831000D01*
X100878140Y-87831000D01*
X100781790Y-87821511D01*
X100695050Y-87795198D01*
X100615111Y-87752470D01*
X100545038Y-87694962D01*
X100487530Y-87624889D01*
X100444802Y-87544950D01*
X100418489Y-87458210D01*
X100409000Y-87361860D01*
X100409000Y-86198140D01*
X100418489Y-86101790D01*
X100444802Y-86015050D01*
X100487530Y-85935111D01*
X100545038Y-85865038D01*
X100615111Y-85807530D01*
X100695050Y-85764802D01*
X100781790Y-85738489D01*
X100878140Y-85729000D01*
X102041860Y-85729000D01*
X102138210Y-85738489D01*
G37*
G36*
X104678210Y-85738489D02*
G01*
X104764950Y-85764802D01*
X104844889Y-85807530D01*
X104914962Y-85865038D01*
X104972470Y-85935111D01*
X105015198Y-86015050D01*
X105041511Y-86101790D01*
X105051000Y-86198140D01*
X105051000Y-87361860D01*
X105041511Y-87458210D01*
X105015198Y-87544950D01*
X104972470Y-87624889D01*
X104914962Y-87694962D01*
X104844889Y-87752470D01*
X104764950Y-87795198D01*
X104678210Y-87821511D01*
X104581860Y-87831000D01*
X103418140Y-87831000D01*
X103321790Y-87821511D01*
X103235050Y-87795198D01*
X103155111Y-87752470D01*
X103085038Y-87694962D01*
X103027530Y-87624889D01*
X102984802Y-87544950D01*
X102958489Y-87458210D01*
X102949000Y-87361860D01*
X102949000Y-86198140D01*
X102958489Y-86101790D01*
X102984802Y-86015050D01*
X103027530Y-85935111D01*
X103085038Y-85865038D01*
X103155111Y-85807530D01*
X103235050Y-85764802D01*
X103321790Y-85738489D01*
X103418140Y-85729000D01*
X104581860Y-85729000D01*
X104678210Y-85738489D01*
G37*
G36*
X114863512Y-84213927D02*
G01*
X115012812Y-84243624D01*
X115176784Y-84311544D01*
X115324354Y-84410147D01*
X115449853Y-84535646D01*
X115548456Y-84683216D01*
X115616376Y-84847188D01*
X115651000Y-85021259D01*
X115651000Y-85198741D01*
X115616376Y-85372812D01*
X115548456Y-85536784D01*
X115449853Y-85684354D01*
X115324354Y-85809853D01*
X115176784Y-85908456D01*
X115012812Y-85976376D01*
X114863512Y-86006073D01*
X114838742Y-86011000D01*
X114661258Y-86011000D01*
X114636488Y-86006073D01*
X114487188Y-85976376D01*
X114323216Y-85908456D01*
X114175646Y-85809853D01*
X114050147Y-85684354D01*
X113951544Y-85536784D01*
X113883624Y-85372812D01*
X113849000Y-85198741D01*
X113849000Y-85021259D01*
X113883624Y-84847188D01*
X113951544Y-84683216D01*
X114050147Y-84535646D01*
X114175646Y-84410147D01*
X114323216Y-84311544D01*
X114487188Y-84243624D01*
X114636488Y-84213927D01*
X114661258Y-84209000D01*
X114838742Y-84209000D01*
X114863512Y-84213927D01*
G37*
G36*
X102138210Y-83198489D02*
G01*
X102224950Y-83224802D01*
X102304889Y-83267530D01*
X102374962Y-83325038D01*
X102432470Y-83395111D01*
X102475198Y-83475050D01*
X102501511Y-83561790D01*
X102511000Y-83658140D01*
X102511000Y-84821860D01*
X102501511Y-84918210D01*
X102475198Y-85004950D01*
X102432470Y-85084889D01*
X102374962Y-85154962D01*
X102304889Y-85212470D01*
X102224950Y-85255198D01*
X102138210Y-85281511D01*
X102041860Y-85291000D01*
X100878140Y-85291000D01*
X100781790Y-85281511D01*
X100695050Y-85255198D01*
X100615111Y-85212470D01*
X100545038Y-85154962D01*
X100487530Y-85084889D01*
X100444802Y-85004950D01*
X100418489Y-84918210D01*
X100409000Y-84821860D01*
X100409000Y-83658140D01*
X100418489Y-83561790D01*
X100444802Y-83475050D01*
X100487530Y-83395111D01*
X100545038Y-83325038D01*
X100615111Y-83267530D01*
X100695050Y-83224802D01*
X100781790Y-83198489D01*
X100878140Y-83189000D01*
X102041860Y-83189000D01*
X102138210Y-83198489D01*
G37*
G36*
X104678210Y-83198489D02*
G01*
X104764950Y-83224802D01*
X104844889Y-83267530D01*
X104914962Y-83325038D01*
X104972470Y-83395111D01*
X105015198Y-83475050D01*
X105041511Y-83561790D01*
X105051000Y-83658140D01*
X105051000Y-84821860D01*
X105041511Y-84918210D01*
X105015198Y-85004950D01*
X104972470Y-85084889D01*
X104914962Y-85154962D01*
X104844889Y-85212470D01*
X104764950Y-85255198D01*
X104678210Y-85281511D01*
X104581860Y-85291000D01*
X103418140Y-85291000D01*
X103321790Y-85281511D01*
X103235050Y-85255198D01*
X103155111Y-85212470D01*
X103085038Y-85154962D01*
X103027530Y-85084889D01*
X102984802Y-85004950D01*
X102958489Y-84918210D01*
X102949000Y-84821860D01*
X102949000Y-83658140D01*
X102958489Y-83561790D01*
X102984802Y-83475050D01*
X103027530Y-83395111D01*
X103085038Y-83325038D01*
X103155111Y-83267530D01*
X103235050Y-83224802D01*
X103321790Y-83198489D01*
X103418140Y-83189000D01*
X104581860Y-83189000D01*
X104678210Y-83198489D01*
G37*
G36*
X114863512Y-81673927D02*
G01*
X115012812Y-81703624D01*
X115176784Y-81771544D01*
X115324354Y-81870147D01*
X115449853Y-81995646D01*
X115548456Y-82143216D01*
X115616376Y-82307188D01*
X115651000Y-82481259D01*
X115651000Y-82658741D01*
X115616376Y-82832812D01*
X115548456Y-82996784D01*
X115449853Y-83144354D01*
X115324354Y-83269853D01*
X115176784Y-83368456D01*
X115012812Y-83436376D01*
X114863512Y-83466073D01*
X114838742Y-83471000D01*
X114661258Y-83471000D01*
X114636488Y-83466073D01*
X114487188Y-83436376D01*
X114323216Y-83368456D01*
X114175646Y-83269853D01*
X114050147Y-83144354D01*
X113951544Y-82996784D01*
X113883624Y-82832812D01*
X113849000Y-82658741D01*
X113849000Y-82481259D01*
X113883624Y-82307188D01*
X113951544Y-82143216D01*
X114050147Y-81995646D01*
X114175646Y-81870147D01*
X114323216Y-81771544D01*
X114487188Y-81703624D01*
X114636488Y-81673927D01*
X114661258Y-81669000D01*
X114838742Y-81669000D01*
X114863512Y-81673927D01*
G37*
G36*
X102138210Y-80658489D02*
G01*
X102224950Y-80684802D01*
X102304889Y-80727530D01*
X102374962Y-80785038D01*
X102432470Y-80855111D01*
X102475198Y-80935050D01*
X102501511Y-81021790D01*
X102511000Y-81118140D01*
X102511000Y-82281860D01*
X102501511Y-82378210D01*
X102475198Y-82464950D01*
X102432470Y-82544889D01*
X102374962Y-82614962D01*
X102304889Y-82672470D01*
X102224950Y-82715198D01*
X102138210Y-82741511D01*
X102041860Y-82751000D01*
X100878140Y-82751000D01*
X100781790Y-82741511D01*
X100695050Y-82715198D01*
X100615111Y-82672470D01*
X100545038Y-82614962D01*
X100487530Y-82544889D01*
X100444802Y-82464950D01*
X100418489Y-82378210D01*
X100409000Y-82281860D01*
X100409000Y-81118140D01*
X100418489Y-81021790D01*
X100444802Y-80935050D01*
X100487530Y-80855111D01*
X100545038Y-80785038D01*
X100615111Y-80727530D01*
X100695050Y-80684802D01*
X100781790Y-80658489D01*
X100878140Y-80649000D01*
X102041860Y-80649000D01*
X102138210Y-80658489D01*
G37*
G36*
X104678210Y-80658489D02*
G01*
X104764950Y-80684802D01*
X104844889Y-80727530D01*
X104914962Y-80785038D01*
X104972470Y-80855111D01*
X105015198Y-80935050D01*
X105041511Y-81021790D01*
X105051000Y-81118140D01*
X105051000Y-82281860D01*
X105041511Y-82378210D01*
X105015198Y-82464950D01*
X104972470Y-82544889D01*
X104914962Y-82614962D01*
X104844889Y-82672470D01*
X104764950Y-82715198D01*
X104678210Y-82741511D01*
X104581860Y-82751000D01*
X103418140Y-82751000D01*
X103321790Y-82741511D01*
X103235050Y-82715198D01*
X103155111Y-82672470D01*
X103085038Y-82614962D01*
X103027530Y-82544889D01*
X102984802Y-82464950D01*
X102958489Y-82378210D01*
X102949000Y-82281860D01*
X102949000Y-81118140D01*
X102958489Y-81021790D01*
X102984802Y-80935050D01*
X103027530Y-80855111D01*
X103085038Y-80785038D01*
X103155111Y-80727530D01*
X103235050Y-80684802D01*
X103321790Y-80658489D01*
X103418140Y-80649000D01*
X104581860Y-80649000D01*
X104678210Y-80658489D01*
G37*
G36*
X112084468Y-81341065D02*
G01*
X112123138Y-81352796D01*
X112158777Y-81371846D01*
X112190017Y-81397483D01*
X112215654Y-81428723D01*
X112234704Y-81464362D01*
X112246435Y-81503032D01*
X112251000Y-81549388D01*
X112251000Y-82200612D01*
X112246435Y-82246968D01*
X112234704Y-82285638D01*
X112215654Y-82321277D01*
X112190017Y-82352517D01*
X112158777Y-82378154D01*
X112123138Y-82397204D01*
X112084468Y-82408935D01*
X112038112Y-82413500D01*
X110961888Y-82413500D01*
X110915532Y-82408935D01*
X110876862Y-82397204D01*
X110841223Y-82378154D01*
X110809983Y-82352517D01*
X110784346Y-82321277D01*
X110765296Y-82285638D01*
X110753565Y-82246968D01*
X110749000Y-82200612D01*
X110749000Y-81549388D01*
X110753565Y-81503032D01*
X110765296Y-81464362D01*
X110784346Y-81428723D01*
X110809983Y-81397483D01*
X110841223Y-81371846D01*
X110876862Y-81352796D01*
X110915532Y-81341065D01*
X110961888Y-81336500D01*
X112038112Y-81336500D01*
X112084468Y-81341065D01*
G37*
G36*
X114863512Y-79133927D02*
G01*
X115012812Y-79163624D01*
X115176784Y-79231544D01*
X115324354Y-79330147D01*
X115449853Y-79455646D01*
X115548456Y-79603216D01*
X115616376Y-79767188D01*
X115651000Y-79941259D01*
X115651000Y-80118741D01*
X115616376Y-80292812D01*
X115548456Y-80456784D01*
X115449853Y-80604354D01*
X115324354Y-80729853D01*
X115176784Y-80828456D01*
X115012812Y-80896376D01*
X114863512Y-80926073D01*
X114838742Y-80931000D01*
X114661258Y-80931000D01*
X114636488Y-80926073D01*
X114487188Y-80896376D01*
X114323216Y-80828456D01*
X114175646Y-80729853D01*
X114050147Y-80604354D01*
X113951544Y-80456784D01*
X113883624Y-80292812D01*
X113849000Y-80118741D01*
X113849000Y-79941259D01*
X113883624Y-79767188D01*
X113951544Y-79603216D01*
X114050147Y-79455646D01*
X114175646Y-79330147D01*
X114323216Y-79231544D01*
X114487188Y-79163624D01*
X114636488Y-79133927D01*
X114661258Y-79129000D01*
X114838742Y-79129000D01*
X114863512Y-79133927D01*
G37*
G36*
X112084468Y-79466065D02*
G01*
X112123138Y-79477796D01*
X112158777Y-79496846D01*
X112190017Y-79522483D01*
X112215654Y-79553723D01*
X112234704Y-79589362D01*
X112246435Y-79628032D01*
X112251000Y-79674388D01*
X112251000Y-80325612D01*
X112246435Y-80371968D01*
X112234704Y-80410638D01*
X112215654Y-80446277D01*
X112190017Y-80477517D01*
X112158777Y-80503154D01*
X112123138Y-80522204D01*
X112084468Y-80533935D01*
X112038112Y-80538500D01*
X110961888Y-80538500D01*
X110915532Y-80533935D01*
X110876862Y-80522204D01*
X110841223Y-80503154D01*
X110809983Y-80477517D01*
X110784346Y-80446277D01*
X110765296Y-80410638D01*
X110753565Y-80371968D01*
X110749000Y-80325612D01*
X110749000Y-79674388D01*
X110753565Y-79628032D01*
X110765296Y-79589362D01*
X110784346Y-79553723D01*
X110809983Y-79522483D01*
X110841223Y-79496846D01*
X110876862Y-79477796D01*
X110915532Y-79466065D01*
X110961888Y-79461500D01*
X112038112Y-79461500D01*
X112084468Y-79466065D01*
G37*
G36*
X104678210Y-78118489D02*
G01*
X104764950Y-78144802D01*
X104844889Y-78187530D01*
X104914962Y-78245038D01*
X104972470Y-78315111D01*
X105015198Y-78395050D01*
X105041511Y-78481790D01*
X105051000Y-78578140D01*
X105051000Y-79741860D01*
X105041511Y-79838210D01*
X105015198Y-79924950D01*
X104972470Y-80004889D01*
X104914962Y-80074962D01*
X104844889Y-80132470D01*
X104764950Y-80175198D01*
X104678210Y-80201511D01*
X104581860Y-80211000D01*
X103418140Y-80211000D01*
X103321790Y-80201511D01*
X103235050Y-80175198D01*
X103155111Y-80132470D01*
X103085038Y-80074962D01*
X103027530Y-80004889D01*
X102984802Y-79924950D01*
X102958489Y-79838210D01*
X102949000Y-79741860D01*
X102949000Y-78578140D01*
X102958489Y-78481790D01*
X102984802Y-78395050D01*
X103027530Y-78315111D01*
X103085038Y-78245038D01*
X103155111Y-78187530D01*
X103235050Y-78144802D01*
X103321790Y-78118489D01*
X103418140Y-78109000D01*
X104581860Y-78109000D01*
X104678210Y-78118489D01*
G37*
G36*
X102138210Y-78118489D02*
G01*
X102224950Y-78144802D01*
X102304889Y-78187530D01*
X102374962Y-78245038D01*
X102432470Y-78315111D01*
X102475198Y-78395050D01*
X102501511Y-78481790D01*
X102511000Y-78578140D01*
X102511000Y-79741860D01*
X102501511Y-79838210D01*
X102475198Y-79924950D01*
X102432470Y-80004889D01*
X102374962Y-80074962D01*
X102304889Y-80132470D01*
X102224950Y-80175198D01*
X102138210Y-80201511D01*
X102041860Y-80211000D01*
X100878140Y-80211000D01*
X100781790Y-80201511D01*
X100695050Y-80175198D01*
X100615111Y-80132470D01*
X100545038Y-80074962D01*
X100487530Y-80004889D01*
X100444802Y-79924950D01*
X100418489Y-79838210D01*
X100409000Y-79741860D01*
X100409000Y-78578140D01*
X100418489Y-78481790D01*
X100444802Y-78395050D01*
X100487530Y-78315111D01*
X100545038Y-78245038D01*
X100615111Y-78187530D01*
X100695050Y-78144802D01*
X100781790Y-78118489D01*
X100878140Y-78109000D01*
X102041860Y-78109000D01*
X102138210Y-78118489D01*
G37*
G36*
X114863512Y-76593927D02*
G01*
X115012812Y-76623624D01*
X115176784Y-76691544D01*
X115324354Y-76790147D01*
X115449853Y-76915646D01*
X115548456Y-77063216D01*
X115616376Y-77227188D01*
X115651000Y-77401259D01*
X115651000Y-77578741D01*
X115616376Y-77752812D01*
X115548456Y-77916784D01*
X115449853Y-78064354D01*
X115324354Y-78189853D01*
X115176784Y-78288456D01*
X115012812Y-78356376D01*
X114863512Y-78386073D01*
X114838742Y-78391000D01*
X114661258Y-78391000D01*
X114636488Y-78386073D01*
X114487188Y-78356376D01*
X114323216Y-78288456D01*
X114175646Y-78189853D01*
X114050147Y-78064354D01*
X113951544Y-77916784D01*
X113883624Y-77752812D01*
X113849000Y-77578741D01*
X113849000Y-77401259D01*
X113883624Y-77227188D01*
X113951544Y-77063216D01*
X114050147Y-76915646D01*
X114175646Y-76790147D01*
X114323216Y-76691544D01*
X114487188Y-76623624D01*
X114636488Y-76593927D01*
X114661258Y-76589000D01*
X114838742Y-76589000D01*
X114863512Y-76593927D01*
G37*
G36*
X108871968Y-76753565D02*
G01*
X108910638Y-76765296D01*
X108946277Y-76784346D01*
X108977517Y-76809983D01*
X109003154Y-76841223D01*
X109022204Y-76876862D01*
X109033935Y-76915532D01*
X109038500Y-76961888D01*
X109038500Y-78038112D01*
X109033935Y-78084468D01*
X109022204Y-78123138D01*
X109003154Y-78158777D01*
X108977517Y-78190017D01*
X108946277Y-78215654D01*
X108910638Y-78234704D01*
X108871968Y-78246435D01*
X108825612Y-78251000D01*
X108174388Y-78251000D01*
X108128032Y-78246435D01*
X108089362Y-78234704D01*
X108053723Y-78215654D01*
X108022483Y-78190017D01*
X107996846Y-78158777D01*
X107977796Y-78123138D01*
X107966065Y-78084468D01*
X107961500Y-78038112D01*
X107961500Y-76961888D01*
X107966065Y-76915532D01*
X107977796Y-76876862D01*
X107996846Y-76841223D01*
X108022483Y-76809983D01*
X108053723Y-76784346D01*
X108089362Y-76765296D01*
X108128032Y-76753565D01*
X108174388Y-76749000D01*
X108825612Y-76749000D01*
X108871968Y-76753565D01*
G37*
G36*
X110746968Y-76753565D02*
G01*
X110785638Y-76765296D01*
X110821277Y-76784346D01*
X110852517Y-76809983D01*
X110878154Y-76841223D01*
X110897204Y-76876862D01*
X110908935Y-76915532D01*
X110913500Y-76961888D01*
X110913500Y-78038112D01*
X110908935Y-78084468D01*
X110897204Y-78123138D01*
X110878154Y-78158777D01*
X110852517Y-78190017D01*
X110821277Y-78215654D01*
X110785638Y-78234704D01*
X110746968Y-78246435D01*
X110700612Y-78251000D01*
X110049388Y-78251000D01*
X110003032Y-78246435D01*
X109964362Y-78234704D01*
X109928723Y-78215654D01*
X109897483Y-78190017D01*
X109871846Y-78158777D01*
X109852796Y-78123138D01*
X109841065Y-78084468D01*
X109836500Y-78038112D01*
X109836500Y-76961888D01*
X109841065Y-76915532D01*
X109852796Y-76876862D01*
X109871846Y-76841223D01*
X109897483Y-76809983D01*
X109928723Y-76784346D01*
X109964362Y-76765296D01*
X110003032Y-76753565D01*
X110049388Y-76749000D01*
X110700612Y-76749000D01*
X110746968Y-76753565D01*
G37*
G36*
X104678210Y-75578489D02*
G01*
X104764950Y-75604802D01*
X104844889Y-75647530D01*
X104914962Y-75705038D01*
X104972470Y-75775111D01*
X105015198Y-75855050D01*
X105041511Y-75941790D01*
X105051000Y-76038140D01*
X105051000Y-77201860D01*
X105041511Y-77298210D01*
X105015198Y-77384950D01*
X104972470Y-77464889D01*
X104914962Y-77534962D01*
X104844889Y-77592470D01*
X104764950Y-77635198D01*
X104678210Y-77661511D01*
X104581860Y-77671000D01*
X103418140Y-77671000D01*
X103321790Y-77661511D01*
X103235050Y-77635198D01*
X103155111Y-77592470D01*
X103085038Y-77534962D01*
X103027530Y-77464889D01*
X102984802Y-77384950D01*
X102958489Y-77298210D01*
X102949000Y-77201860D01*
X102949000Y-76038140D01*
X102958489Y-75941790D01*
X102984802Y-75855050D01*
X103027530Y-75775111D01*
X103085038Y-75705038D01*
X103155111Y-75647530D01*
X103235050Y-75604802D01*
X103321790Y-75578489D01*
X103418140Y-75569000D01*
X104581860Y-75569000D01*
X104678210Y-75578489D01*
G37*
G36*
X102138210Y-75578489D02*
G01*
X102224950Y-75604802D01*
X102304889Y-75647530D01*
X102374962Y-75705038D01*
X102432470Y-75775111D01*
X102475198Y-75855050D01*
X102501511Y-75941790D01*
X102511000Y-76038140D01*
X102511000Y-77201860D01*
X102501511Y-77298210D01*
X102475198Y-77384950D01*
X102432470Y-77464889D01*
X102374962Y-77534962D01*
X102304889Y-77592470D01*
X102224950Y-77635198D01*
X102138210Y-77661511D01*
X102041860Y-77671000D01*
X100878140Y-77671000D01*
X100781790Y-77661511D01*
X100695050Y-77635198D01*
X100615111Y-77592470D01*
X100545038Y-77534962D01*
X100487530Y-77464889D01*
X100444802Y-77384950D01*
X100418489Y-77298210D01*
X100409000Y-77201860D01*
X100409000Y-76038140D01*
X100418489Y-75941790D01*
X100444802Y-75855050D01*
X100487530Y-75775111D01*
X100545038Y-75705038D01*
X100615111Y-75647530D01*
X100695050Y-75604802D01*
X100781790Y-75578489D01*
X100878140Y-75569000D01*
X102041860Y-75569000D01*
X102138210Y-75578489D01*
G37*
G36*
X114863512Y-74053927D02*
G01*
X115012812Y-74083624D01*
X115176784Y-74151544D01*
X115324354Y-74250147D01*
X115449853Y-74375646D01*
X115548456Y-74523216D01*
X115616376Y-74687188D01*
X115651000Y-74861259D01*
X115651000Y-75038741D01*
X115616376Y-75212812D01*
X115548456Y-75376784D01*
X115449853Y-75524354D01*
X115324354Y-75649853D01*
X115176784Y-75748456D01*
X115012812Y-75816376D01*
X114863512Y-75846073D01*
X114838742Y-75851000D01*
X114661258Y-75851000D01*
X114636488Y-75846073D01*
X114487188Y-75816376D01*
X114323216Y-75748456D01*
X114175646Y-75649853D01*
X114050147Y-75524354D01*
X113951544Y-75376784D01*
X113883624Y-75212812D01*
X113849000Y-75038741D01*
X113849000Y-74861259D01*
X113883624Y-74687188D01*
X113951544Y-74523216D01*
X114050147Y-74375646D01*
X114175646Y-74250147D01*
X114323216Y-74151544D01*
X114487188Y-74083624D01*
X114636488Y-74053927D01*
X114661258Y-74049000D01*
X114838742Y-74049000D01*
X114863512Y-74053927D01*
G37*
G36*
X112084468Y-74403565D02*
G01*
X112123138Y-74415296D01*
X112158777Y-74434346D01*
X112190017Y-74459983D01*
X112215654Y-74491223D01*
X112234704Y-74526862D01*
X112246435Y-74565532D01*
X112251000Y-74611888D01*
X112251000Y-75263112D01*
X112246435Y-75309468D01*
X112234704Y-75348138D01*
X112215654Y-75383777D01*
X112190017Y-75415017D01*
X112158777Y-75440654D01*
X112123138Y-75459704D01*
X112084468Y-75471435D01*
X112038112Y-75476000D01*
X110961888Y-75476000D01*
X110915532Y-75471435D01*
X110876862Y-75459704D01*
X110841223Y-75440654D01*
X110809983Y-75415017D01*
X110784346Y-75383777D01*
X110765296Y-75348138D01*
X110753565Y-75309468D01*
X110749000Y-75263112D01*
X110749000Y-74611888D01*
X110753565Y-74565532D01*
X110765296Y-74526862D01*
X110784346Y-74491223D01*
X110809983Y-74459983D01*
X110841223Y-74434346D01*
X110876862Y-74415296D01*
X110915532Y-74403565D01*
X110961888Y-74399000D01*
X112038112Y-74399000D01*
X112084468Y-74403565D01*
G37*
G36*
X104678210Y-73038489D02*
G01*
X104764950Y-73064802D01*
X104844889Y-73107530D01*
X104914962Y-73165038D01*
X104972470Y-73235111D01*
X105015198Y-73315050D01*
X105041511Y-73401790D01*
X105051000Y-73498140D01*
X105051000Y-74661860D01*
X105041511Y-74758210D01*
X105015198Y-74844950D01*
X104972470Y-74924889D01*
X104914962Y-74994962D01*
X104844889Y-75052470D01*
X104764950Y-75095198D01*
X104678210Y-75121511D01*
X104581860Y-75131000D01*
X103418140Y-75131000D01*
X103321790Y-75121511D01*
X103235050Y-75095198D01*
X103155111Y-75052470D01*
X103085038Y-74994962D01*
X103027530Y-74924889D01*
X102984802Y-74844950D01*
X102958489Y-74758210D01*
X102949000Y-74661860D01*
X102949000Y-73498140D01*
X102958489Y-73401790D01*
X102984802Y-73315050D01*
X103027530Y-73235111D01*
X103085038Y-73165038D01*
X103155111Y-73107530D01*
X103235050Y-73064802D01*
X103321790Y-73038489D01*
X103418140Y-73029000D01*
X104581860Y-73029000D01*
X104678210Y-73038489D01*
G37*
G36*
X102138210Y-73038489D02*
G01*
X102224950Y-73064802D01*
X102304889Y-73107530D01*
X102374962Y-73165038D01*
X102432470Y-73235111D01*
X102475198Y-73315050D01*
X102501511Y-73401790D01*
X102511000Y-73498140D01*
X102511000Y-74661860D01*
X102501511Y-74758210D01*
X102475198Y-74844950D01*
X102432470Y-74924889D01*
X102374962Y-74994962D01*
X102304889Y-75052470D01*
X102224950Y-75095198D01*
X102138210Y-75121511D01*
X102041860Y-75131000D01*
X100878140Y-75131000D01*
X100781790Y-75121511D01*
X100695050Y-75095198D01*
X100615111Y-75052470D01*
X100545038Y-74994962D01*
X100487530Y-74924889D01*
X100444802Y-74844950D01*
X100418489Y-74758210D01*
X100409000Y-74661860D01*
X100409000Y-73498140D01*
X100418489Y-73401790D01*
X100444802Y-73315050D01*
X100487530Y-73235111D01*
X100545038Y-73165038D01*
X100615111Y-73107530D01*
X100695050Y-73064802D01*
X100781790Y-73038489D01*
X100878140Y-73029000D01*
X102041860Y-73029000D01*
X102138210Y-73038489D01*
G37*
G36*
X112084468Y-72528565D02*
G01*
X112123138Y-72540296D01*
X112158777Y-72559346D01*
X112190017Y-72584983D01*
X112215654Y-72616223D01*
X112234704Y-72651862D01*
X112246435Y-72690532D01*
X112251000Y-72736888D01*
X112251000Y-73388112D01*
X112246435Y-73434468D01*
X112234704Y-73473138D01*
X112215654Y-73508777D01*
X112190017Y-73540017D01*
X112158777Y-73565654D01*
X112123138Y-73584704D01*
X112084468Y-73596435D01*
X112038112Y-73601000D01*
X110961888Y-73601000D01*
X110915532Y-73596435D01*
X110876862Y-73584704D01*
X110841223Y-73565654D01*
X110809983Y-73540017D01*
X110784346Y-73508777D01*
X110765296Y-73473138D01*
X110753565Y-73434468D01*
X110749000Y-73388112D01*
X110749000Y-72736888D01*
X110753565Y-72690532D01*
X110765296Y-72651862D01*
X110784346Y-72616223D01*
X110809983Y-72584983D01*
X110841223Y-72559346D01*
X110876862Y-72540296D01*
X110915532Y-72528565D01*
X110961888Y-72524000D01*
X112038112Y-72524000D01*
X112084468Y-72528565D01*
G37*
G36*
X114863512Y-71513927D02*
G01*
X115012812Y-71543624D01*
X115176784Y-71611544D01*
X115324354Y-71710147D01*
X115449853Y-71835646D01*
X115548456Y-71983216D01*
X115616376Y-72147188D01*
X115651000Y-72321259D01*
X115651000Y-72498741D01*
X115616376Y-72672812D01*
X115548456Y-72836784D01*
X115449853Y-72984354D01*
X115324354Y-73109853D01*
X115176784Y-73208456D01*
X115012812Y-73276376D01*
X114863512Y-73306073D01*
X114838742Y-73311000D01*
X114661258Y-73311000D01*
X114636488Y-73306073D01*
X114487188Y-73276376D01*
X114323216Y-73208456D01*
X114175646Y-73109853D01*
X114050147Y-72984354D01*
X113951544Y-72836784D01*
X113883624Y-72672812D01*
X113849000Y-72498741D01*
X113849000Y-72321259D01*
X113883624Y-72147188D01*
X113951544Y-71983216D01*
X114050147Y-71835646D01*
X114175646Y-71710147D01*
X114323216Y-71611544D01*
X114487188Y-71543624D01*
X114636488Y-71513927D01*
X114661258Y-71509000D01*
X114838742Y-71509000D01*
X114863512Y-71513927D01*
G37*
G36*
X104678210Y-70498489D02*
G01*
X104764950Y-70524802D01*
X104844889Y-70567530D01*
X104914962Y-70625038D01*
X104972470Y-70695111D01*
X105015198Y-70775050D01*
X105041511Y-70861790D01*
X105051000Y-70958140D01*
X105051000Y-72121860D01*
X105041511Y-72218210D01*
X105015198Y-72304950D01*
X104972470Y-72384889D01*
X104914962Y-72454962D01*
X104844889Y-72512470D01*
X104764950Y-72555198D01*
X104678210Y-72581511D01*
X104581860Y-72591000D01*
X103418140Y-72591000D01*
X103321790Y-72581511D01*
X103235050Y-72555198D01*
X103155111Y-72512470D01*
X103085038Y-72454962D01*
X103027530Y-72384889D01*
X102984802Y-72304950D01*
X102958489Y-72218210D01*
X102949000Y-72121860D01*
X102949000Y-70958140D01*
X102958489Y-70861790D01*
X102984802Y-70775050D01*
X103027530Y-70695111D01*
X103085038Y-70625038D01*
X103155111Y-70567530D01*
X103235050Y-70524802D01*
X103321790Y-70498489D01*
X103418140Y-70489000D01*
X104581860Y-70489000D01*
X104678210Y-70498489D01*
G37*
G36*
X102138210Y-70498489D02*
G01*
X102224950Y-70524802D01*
X102304889Y-70567530D01*
X102374962Y-70625038D01*
X102432470Y-70695111D01*
X102475198Y-70775050D01*
X102501511Y-70861790D01*
X102511000Y-70958140D01*
X102511000Y-72121860D01*
X102501511Y-72218210D01*
X102475198Y-72304950D01*
X102432470Y-72384889D01*
X102374962Y-72454962D01*
X102304889Y-72512470D01*
X102224950Y-72555198D01*
X102138210Y-72581511D01*
X102041860Y-72591000D01*
X100878140Y-72591000D01*
X100781790Y-72581511D01*
X100695050Y-72555198D01*
X100615111Y-72512470D01*
X100545038Y-72454962D01*
X100487530Y-72384889D01*
X100444802Y-72304950D01*
X100418489Y-72218210D01*
X100409000Y-72121860D01*
X100409000Y-70958140D01*
X100418489Y-70861790D01*
X100444802Y-70775050D01*
X100487530Y-70695111D01*
X100545038Y-70625038D01*
X100615111Y-70567530D01*
X100695050Y-70524802D01*
X100781790Y-70498489D01*
X100878140Y-70489000D01*
X102041860Y-70489000D01*
X102138210Y-70498489D01*
G37*
G36*
X114863512Y-68973927D02*
G01*
X115012812Y-69003624D01*
X115176784Y-69071544D01*
X115324354Y-69170147D01*
X115449853Y-69295646D01*
X115548456Y-69443216D01*
X115616376Y-69607188D01*
X115651000Y-69781259D01*
X115651000Y-69958741D01*
X115616376Y-70132812D01*
X115548456Y-70296784D01*
X115449853Y-70444354D01*
X115324354Y-70569853D01*
X115176784Y-70668456D01*
X115012812Y-70736376D01*
X114863512Y-70766073D01*
X114838742Y-70771000D01*
X114661258Y-70771000D01*
X114636488Y-70766073D01*
X114487188Y-70736376D01*
X114323216Y-70668456D01*
X114175646Y-70569853D01*
X114050147Y-70444354D01*
X113951544Y-70296784D01*
X113883624Y-70132812D01*
X113849000Y-69958741D01*
X113849000Y-69781259D01*
X113883624Y-69607188D01*
X113951544Y-69443216D01*
X114050147Y-69295646D01*
X114175646Y-69170147D01*
X114323216Y-69071544D01*
X114487188Y-69003624D01*
X114636488Y-68973927D01*
X114661258Y-68969000D01*
X114838742Y-68969000D01*
X114863512Y-68973927D01*
G37*
G36*
X104678210Y-67958489D02*
G01*
X104764950Y-67984802D01*
X104844889Y-68027530D01*
X104914962Y-68085038D01*
X104972470Y-68155111D01*
X105015198Y-68235050D01*
X105041511Y-68321790D01*
X105051000Y-68418140D01*
X105051000Y-69581860D01*
X105041511Y-69678210D01*
X105015198Y-69764950D01*
X104972470Y-69844889D01*
X104914962Y-69914962D01*
X104844889Y-69972470D01*
X104764950Y-70015198D01*
X104678210Y-70041511D01*
X104581860Y-70051000D01*
X103418140Y-70051000D01*
X103321790Y-70041511D01*
X103235050Y-70015198D01*
X103155111Y-69972470D01*
X103085038Y-69914962D01*
X103027530Y-69844889D01*
X102984802Y-69764950D01*
X102958489Y-69678210D01*
X102949000Y-69581860D01*
X102949000Y-68418140D01*
X102958489Y-68321790D01*
X102984802Y-68235050D01*
X103027530Y-68155111D01*
X103085038Y-68085038D01*
X103155111Y-68027530D01*
X103235050Y-67984802D01*
X103321790Y-67958489D01*
X103418140Y-67949000D01*
X104581860Y-67949000D01*
X104678210Y-67958489D01*
G37*
G36*
X102138210Y-67958489D02*
G01*
X102224950Y-67984802D01*
X102304889Y-68027530D01*
X102374962Y-68085038D01*
X102432470Y-68155111D01*
X102475198Y-68235050D01*
X102501511Y-68321790D01*
X102511000Y-68418140D01*
X102511000Y-69581860D01*
X102501511Y-69678210D01*
X102475198Y-69764950D01*
X102432470Y-69844889D01*
X102374962Y-69914962D01*
X102304889Y-69972470D01*
X102224950Y-70015198D01*
X102138210Y-70041511D01*
X102041860Y-70051000D01*
X100878140Y-70051000D01*
X100781790Y-70041511D01*
X100695050Y-70015198D01*
X100615111Y-69972470D01*
X100545038Y-69914962D01*
X100487530Y-69844889D01*
X100444802Y-69764950D01*
X100418489Y-69678210D01*
X100409000Y-69581860D01*
X100409000Y-68418140D01*
X100418489Y-68321790D01*
X100444802Y-68235050D01*
X100487530Y-68155111D01*
X100545038Y-68085038D01*
X100615111Y-68027530D01*
X100695050Y-67984802D01*
X100781790Y-67958489D01*
X100878140Y-67949000D01*
X102041860Y-67949000D01*
X102138210Y-67958489D01*
G37*
G36*
X107434468Y-68253565D02*
G01*
X107473138Y-68265296D01*
X107508777Y-68284346D01*
X107540017Y-68309983D01*
X107565654Y-68341223D01*
X107584704Y-68376862D01*
X107596435Y-68415532D01*
X107601000Y-68461888D01*
X107601000Y-69538112D01*
X107596435Y-69584468D01*
X107584704Y-69623138D01*
X107565654Y-69658777D01*
X107540017Y-69690017D01*
X107508777Y-69715654D01*
X107473138Y-69734704D01*
X107434468Y-69746435D01*
X107388112Y-69751000D01*
X106736888Y-69751000D01*
X106690532Y-69746435D01*
X106651862Y-69734704D01*
X106616223Y-69715654D01*
X106584983Y-69690017D01*
X106559346Y-69658777D01*
X106540296Y-69623138D01*
X106528565Y-69584468D01*
X106524000Y-69538112D01*
X106524000Y-68461888D01*
X106528565Y-68415532D01*
X106540296Y-68376862D01*
X106559346Y-68341223D01*
X106584983Y-68309983D01*
X106616223Y-68284346D01*
X106651862Y-68265296D01*
X106690532Y-68253565D01*
X106736888Y-68249000D01*
X107388112Y-68249000D01*
X107434468Y-68253565D01*
G37*
G36*
X109309468Y-68253565D02*
G01*
X109348138Y-68265296D01*
X109383777Y-68284346D01*
X109415017Y-68309983D01*
X109440654Y-68341223D01*
X109459704Y-68376862D01*
X109471435Y-68415532D01*
X109476000Y-68461888D01*
X109476000Y-69538112D01*
X109471435Y-69584468D01*
X109459704Y-69623138D01*
X109440654Y-69658777D01*
X109415017Y-69690017D01*
X109383777Y-69715654D01*
X109348138Y-69734704D01*
X109309468Y-69746435D01*
X109263112Y-69751000D01*
X108611888Y-69751000D01*
X108565532Y-69746435D01*
X108526862Y-69734704D01*
X108491223Y-69715654D01*
X108459983Y-69690017D01*
X108434346Y-69658777D01*
X108415296Y-69623138D01*
X108403565Y-69584468D01*
X108399000Y-69538112D01*
X108399000Y-68461888D01*
X108403565Y-68415532D01*
X108415296Y-68376862D01*
X108434346Y-68341223D01*
X108459983Y-68309983D01*
X108491223Y-68284346D01*
X108526862Y-68265296D01*
X108565532Y-68253565D01*
X108611888Y-68249000D01*
X109263112Y-68249000D01*
X109309468Y-68253565D01*
G37*
G36*
X114863512Y-66433927D02*
G01*
X115012812Y-66463624D01*
X115176784Y-66531544D01*
X115324354Y-66630147D01*
X115449853Y-66755646D01*
X115548456Y-66903216D01*
X115616376Y-67067188D01*
X115651000Y-67241259D01*
X115651000Y-67418741D01*
X115616376Y-67592812D01*
X115548456Y-67756784D01*
X115449853Y-67904354D01*
X115324354Y-68029853D01*
X115176784Y-68128456D01*
X115012812Y-68196376D01*
X114863512Y-68226073D01*
X114838742Y-68231000D01*
X114661258Y-68231000D01*
X114636488Y-68226073D01*
X114487188Y-68196376D01*
X114323216Y-68128456D01*
X114175646Y-68029853D01*
X114050147Y-67904354D01*
X113951544Y-67756784D01*
X113883624Y-67592812D01*
X113849000Y-67418741D01*
X113849000Y-67241259D01*
X113883624Y-67067188D01*
X113951544Y-66903216D01*
X114050147Y-66755646D01*
X114175646Y-66630147D01*
X114323216Y-66531544D01*
X114487188Y-66463624D01*
X114636488Y-66433927D01*
X114661258Y-66429000D01*
X114838742Y-66429000D01*
X114863512Y-66433927D01*
G37*
G36*
X114863512Y-63893927D02*
G01*
X115012812Y-63923624D01*
X115176784Y-63991544D01*
X115324354Y-64090147D01*
X115449853Y-64215646D01*
X115548456Y-64363216D01*
X115616376Y-64527188D01*
X115651000Y-64701259D01*
X115651000Y-64878741D01*
X115616376Y-65052812D01*
X115548456Y-65216784D01*
X115449853Y-65364354D01*
X115324354Y-65489853D01*
X115176784Y-65588456D01*
X115012812Y-65656376D01*
X114863512Y-65686073D01*
X114838742Y-65691000D01*
X114661258Y-65691000D01*
X114636488Y-65686073D01*
X114487188Y-65656376D01*
X114323216Y-65588456D01*
X114175646Y-65489853D01*
X114050147Y-65364354D01*
X113951544Y-65216784D01*
X113883624Y-65052812D01*
X113849000Y-64878741D01*
X113849000Y-64701259D01*
X113883624Y-64527188D01*
X113951544Y-64363216D01*
X114050147Y-64215646D01*
X114175646Y-64090147D01*
X114323216Y-63991544D01*
X114487188Y-63923624D01*
X114636488Y-63893927D01*
X114661258Y-63889000D01*
X114838742Y-63889000D01*
X114863512Y-63893927D01*
G37*
G36*
X99455997Y-61653051D02*
G01*
X99489652Y-61663261D01*
X99520665Y-61679838D01*
X99547851Y-61702149D01*
X99570162Y-61729335D01*
X99586739Y-61760348D01*
X99596949Y-61794003D01*
X99601000Y-61835138D01*
X99601000Y-63164862D01*
X99596949Y-63205997D01*
X99586739Y-63239652D01*
X99570162Y-63270665D01*
X99547851Y-63297851D01*
X99520665Y-63320162D01*
X99489652Y-63336739D01*
X99455997Y-63346949D01*
X99414862Y-63351000D01*
X96185138Y-63351000D01*
X96144003Y-63346949D01*
X96110348Y-63336739D01*
X96079335Y-63320162D01*
X96052149Y-63297851D01*
X96029838Y-63270665D01*
X96013261Y-63239652D01*
X96003051Y-63205997D01*
X95999000Y-63164862D01*
X95999000Y-61835138D01*
X96003051Y-61794003D01*
X96013261Y-61760348D01*
X96029838Y-61729335D01*
X96052149Y-61702149D01*
X96079335Y-61679838D01*
X96110348Y-61663261D01*
X96144003Y-61653051D01*
X96185138Y-61649000D01*
X99414862Y-61649000D01*
X99455997Y-61653051D01*
G37*
G36*
X93855997Y-61653051D02*
G01*
X93889652Y-61663261D01*
X93920665Y-61679838D01*
X93947851Y-61702149D01*
X93970162Y-61729335D01*
X93986739Y-61760348D01*
X93996949Y-61794003D01*
X94001000Y-61835138D01*
X94001000Y-63164862D01*
X93996949Y-63205997D01*
X93986739Y-63239652D01*
X93970162Y-63270665D01*
X93947851Y-63297851D01*
X93920665Y-63320162D01*
X93889652Y-63336739D01*
X93855997Y-63346949D01*
X93814862Y-63351000D01*
X90585138Y-63351000D01*
X90544003Y-63346949D01*
X90510348Y-63336739D01*
X90479335Y-63320162D01*
X90452149Y-63297851D01*
X90429838Y-63270665D01*
X90413261Y-63239652D01*
X90403051Y-63205997D01*
X90399000Y-63164862D01*
X90399000Y-61835138D01*
X90403051Y-61794003D01*
X90413261Y-61760348D01*
X90429838Y-61729335D01*
X90452149Y-61702149D01*
X90479335Y-61679838D01*
X90510348Y-61663261D01*
X90544003Y-61653051D01*
X90585138Y-61649000D01*
X93814862Y-61649000D01*
X93855997Y-61653051D01*
G37*
G36*
X109434468Y-61753565D02*
G01*
X109473138Y-61765296D01*
X109508777Y-61784346D01*
X109540017Y-61809983D01*
X109565654Y-61841223D01*
X109584704Y-61876862D01*
X109596435Y-61915532D01*
X109601000Y-61961888D01*
X109601000Y-63038112D01*
X109596435Y-63084468D01*
X109584704Y-63123138D01*
X109565654Y-63158777D01*
X109540017Y-63190017D01*
X109508777Y-63215654D01*
X109473138Y-63234704D01*
X109434468Y-63246435D01*
X109388112Y-63251000D01*
X108736888Y-63251000D01*
X108690532Y-63246435D01*
X108651862Y-63234704D01*
X108616223Y-63215654D01*
X108584983Y-63190017D01*
X108559346Y-63158777D01*
X108540296Y-63123138D01*
X108528565Y-63084468D01*
X108524000Y-63038112D01*
X108524000Y-61961888D01*
X108528565Y-61915532D01*
X108540296Y-61876862D01*
X108559346Y-61841223D01*
X108584983Y-61809983D01*
X108616223Y-61784346D01*
X108651862Y-61765296D01*
X108690532Y-61753565D01*
X108736888Y-61749000D01*
X109388112Y-61749000D01*
X109434468Y-61753565D01*
G37*
G36*
X106809468Y-61753565D02*
G01*
X106848138Y-61765296D01*
X106883777Y-61784346D01*
X106915017Y-61809983D01*
X106940654Y-61841223D01*
X106959704Y-61876862D01*
X106971435Y-61915532D01*
X106976000Y-61961888D01*
X106976000Y-63038112D01*
X106971435Y-63084468D01*
X106959704Y-63123138D01*
X106940654Y-63158777D01*
X106915017Y-63190017D01*
X106883777Y-63215654D01*
X106848138Y-63234704D01*
X106809468Y-63246435D01*
X106763112Y-63251000D01*
X106111888Y-63251000D01*
X106065532Y-63246435D01*
X106026862Y-63234704D01*
X105991223Y-63215654D01*
X105959983Y-63190017D01*
X105934346Y-63158777D01*
X105915296Y-63123138D01*
X105903565Y-63084468D01*
X105899000Y-63038112D01*
X105899000Y-61961888D01*
X105903565Y-61915532D01*
X105915296Y-61876862D01*
X105934346Y-61841223D01*
X105959983Y-61809983D01*
X105991223Y-61784346D01*
X106026862Y-61765296D01*
X106065532Y-61753565D01*
X106111888Y-61749000D01*
X106763112Y-61749000D01*
X106809468Y-61753565D01*
G37*
G36*
X104934468Y-61753565D02*
G01*
X104973138Y-61765296D01*
X105008777Y-61784346D01*
X105040017Y-61809983D01*
X105065654Y-61841223D01*
X105084704Y-61876862D01*
X105096435Y-61915532D01*
X105101000Y-61961888D01*
X105101000Y-63038112D01*
X105096435Y-63084468D01*
X105084704Y-63123138D01*
X105065654Y-63158777D01*
X105040017Y-63190017D01*
X105008777Y-63215654D01*
X104973138Y-63234704D01*
X104934468Y-63246435D01*
X104888112Y-63251000D01*
X104236888Y-63251000D01*
X104190532Y-63246435D01*
X104151862Y-63234704D01*
X104116223Y-63215654D01*
X104084983Y-63190017D01*
X104059346Y-63158777D01*
X104040296Y-63123138D01*
X104028565Y-63084468D01*
X104024000Y-63038112D01*
X104024000Y-61961888D01*
X104028565Y-61915532D01*
X104040296Y-61876862D01*
X104059346Y-61841223D01*
X104084983Y-61809983D01*
X104116223Y-61784346D01*
X104151862Y-61765296D01*
X104190532Y-61753565D01*
X104236888Y-61749000D01*
X104888112Y-61749000D01*
X104934468Y-61753565D01*
G37*
G36*
X111309468Y-61753565D02*
G01*
X111348138Y-61765296D01*
X111383777Y-61784346D01*
X111415017Y-61809983D01*
X111440654Y-61841223D01*
X111459704Y-61876862D01*
X111471435Y-61915532D01*
X111476000Y-61961888D01*
X111476000Y-63038112D01*
X111471435Y-63084468D01*
X111459704Y-63123138D01*
X111440654Y-63158777D01*
X111415017Y-63190017D01*
X111383777Y-63215654D01*
X111348138Y-63234704D01*
X111309468Y-63246435D01*
X111263112Y-63251000D01*
X110611888Y-63251000D01*
X110565532Y-63246435D01*
X110526862Y-63234704D01*
X110491223Y-63215654D01*
X110459983Y-63190017D01*
X110434346Y-63158777D01*
X110415296Y-63123138D01*
X110403565Y-63084468D01*
X110399000Y-63038112D01*
X110399000Y-61961888D01*
X110403565Y-61915532D01*
X110415296Y-61876862D01*
X110434346Y-61841223D01*
X110459983Y-61809983D01*
X110491223Y-61784346D01*
X110526862Y-61765296D01*
X110565532Y-61753565D01*
X110611888Y-61749000D01*
X111263112Y-61749000D01*
X111309468Y-61753565D01*
G37*
G36*
X114863512Y-61353927D02*
G01*
X115012812Y-61383624D01*
X115176784Y-61451544D01*
X115324354Y-61550147D01*
X115449853Y-61675646D01*
X115548456Y-61823216D01*
X115616376Y-61987188D01*
X115651000Y-62161259D01*
X115651000Y-62338741D01*
X115616376Y-62512812D01*
X115548456Y-62676784D01*
X115449853Y-62824354D01*
X115324354Y-62949853D01*
X115176784Y-63048456D01*
X115012812Y-63116376D01*
X114863512Y-63146073D01*
X114838742Y-63151000D01*
X114661258Y-63151000D01*
X114636488Y-63146073D01*
X114487188Y-63116376D01*
X114323216Y-63048456D01*
X114175646Y-62949853D01*
X114050147Y-62824354D01*
X113951544Y-62676784D01*
X113883624Y-62512812D01*
X113849000Y-62338741D01*
X113849000Y-62161259D01*
X113883624Y-61987188D01*
X113951544Y-61823216D01*
X114050147Y-61675646D01*
X114175646Y-61550147D01*
X114323216Y-61451544D01*
X114487188Y-61383624D01*
X114636488Y-61353927D01*
X114661258Y-61349000D01*
X114838742Y-61349000D01*
X114863512Y-61353927D01*
G37*
G36*
X112205997Y-56503051D02*
G01*
X112239652Y-56513261D01*
X112270665Y-56529838D01*
X112297851Y-56552149D01*
X112320162Y-56579335D01*
X112336739Y-56610348D01*
X112346949Y-56644003D01*
X112351000Y-56685138D01*
X112351000Y-59914862D01*
X112346949Y-59955997D01*
X112336739Y-59989652D01*
X112320162Y-60020665D01*
X112297851Y-60047851D01*
X112270665Y-60070162D01*
X112239652Y-60086739D01*
X112205997Y-60096949D01*
X112164862Y-60101000D01*
X110835138Y-60101000D01*
X110794003Y-60096949D01*
X110760348Y-60086739D01*
X110729335Y-60070162D01*
X110702149Y-60047851D01*
X110679838Y-60020665D01*
X110663261Y-59989652D01*
X110653051Y-59955997D01*
X110649000Y-59914862D01*
X110649000Y-56685138D01*
X110653051Y-56644003D01*
X110663261Y-56610348D01*
X110679838Y-56579335D01*
X110702149Y-56552149D01*
X110729335Y-56529838D01*
X110760348Y-56513261D01*
X110794003Y-56503051D01*
X110835138Y-56499000D01*
X112164862Y-56499000D01*
X112205997Y-56503051D01*
G37*
G36*
X107001000Y-60051000D02*
G01*
X100999000Y-60051000D01*
X100999000Y-57499000D01*
X107001000Y-57499000D01*
X107001000Y-60051000D01*
G37*
G36*
X90309468Y-58253565D02*
G01*
X90348138Y-58265296D01*
X90383777Y-58284346D01*
X90415017Y-58309983D01*
X90440654Y-58341223D01*
X90459704Y-58376862D01*
X90471435Y-58415532D01*
X90476000Y-58461888D01*
X90476000Y-59538112D01*
X90471435Y-59584468D01*
X90459704Y-59623138D01*
X90440654Y-59658777D01*
X90415017Y-59690017D01*
X90383777Y-59715654D01*
X90348138Y-59734704D01*
X90309468Y-59746435D01*
X90263112Y-59751000D01*
X89611888Y-59751000D01*
X89565532Y-59746435D01*
X89526862Y-59734704D01*
X89491223Y-59715654D01*
X89459983Y-59690017D01*
X89434346Y-59658777D01*
X89415296Y-59623138D01*
X89403565Y-59584468D01*
X89399000Y-59538112D01*
X89399000Y-58461888D01*
X89403565Y-58415532D01*
X89415296Y-58376862D01*
X89434346Y-58341223D01*
X89459983Y-58309983D01*
X89491223Y-58284346D01*
X89526862Y-58265296D01*
X89565532Y-58253565D01*
X89611888Y-58249000D01*
X90263112Y-58249000D01*
X90309468Y-58253565D01*
G37*
G36*
X88434468Y-58253565D02*
G01*
X88473138Y-58265296D01*
X88508777Y-58284346D01*
X88540017Y-58309983D01*
X88565654Y-58341223D01*
X88584704Y-58376862D01*
X88596435Y-58415532D01*
X88601000Y-58461888D01*
X88601000Y-59538112D01*
X88596435Y-59584468D01*
X88584704Y-59623138D01*
X88565654Y-59658777D01*
X88540017Y-59690017D01*
X88508777Y-59715654D01*
X88473138Y-59734704D01*
X88434468Y-59746435D01*
X88388112Y-59751000D01*
X87736888Y-59751000D01*
X87690532Y-59746435D01*
X87651862Y-59734704D01*
X87616223Y-59715654D01*
X87584983Y-59690017D01*
X87559346Y-59658777D01*
X87540296Y-59623138D01*
X87528565Y-59584468D01*
X87524000Y-59538112D01*
X87524000Y-58461888D01*
X87528565Y-58415532D01*
X87540296Y-58376862D01*
X87559346Y-58341223D01*
X87584983Y-58309983D01*
X87616223Y-58284346D01*
X87651862Y-58265296D01*
X87690532Y-58253565D01*
X87736888Y-58249000D01*
X88388112Y-58249000D01*
X88434468Y-58253565D01*
G37*
G36*
X97481000Y-57326000D02*
G01*
X96319000Y-57326000D01*
X96319000Y-54674000D01*
X97481000Y-54674000D01*
X97481000Y-57326000D01*
G37*
G36*
X99681000Y-57326000D02*
G01*
X98519000Y-57326000D01*
X98519000Y-54674000D01*
X99681000Y-54674000D01*
X99681000Y-57326000D01*
G37*
G36*
X87755040Y-51967825D02*
G01*
X88000280Y-52042218D01*
X88226294Y-52163025D01*
X88277899Y-52205376D01*
X88424397Y-52325603D01*
X88544624Y-52472101D01*
X88586975Y-52523706D01*
X88707782Y-52749721D01*
X88782175Y-52994961D01*
X88782175Y-52994962D01*
X88801000Y-53186095D01*
X88801000Y-53813906D01*
X88782175Y-54005039D01*
X88707781Y-54250282D01*
X88597726Y-54456182D01*
X88586975Y-54476294D01*
X88424396Y-54674396D01*
X88226293Y-54836975D01*
X88000279Y-54957782D01*
X87755039Y-55032175D01*
X87500000Y-55057294D01*
X87244960Y-55032175D01*
X86999720Y-54957782D01*
X86999718Y-54957781D01*
X86773707Y-54836976D01*
X86575604Y-54674396D01*
X86433302Y-54501000D01*
X86413025Y-54476293D01*
X86292218Y-54250279D01*
X86217825Y-54005039D01*
X86199000Y-53813904D01*
X86199000Y-53186095D01*
X86200375Y-53172139D01*
X86217825Y-52994961D01*
X86217825Y-52994960D01*
X86292218Y-52749720D01*
X86292219Y-52749718D01*
X86413024Y-52523707D01*
X86575604Y-52325604D01*
X86686805Y-52234344D01*
X86773707Y-52163025D01*
X86999721Y-52042218D01*
X87244961Y-51967825D01*
X87500000Y-51942706D01*
X87755040Y-51967825D01*
G37*
G36*
X92755040Y-51967825D02*
G01*
X93000280Y-52042218D01*
X93226294Y-52163025D01*
X93277899Y-52205376D01*
X93424397Y-52325603D01*
X93544624Y-52472101D01*
X93586975Y-52523706D01*
X93707782Y-52749721D01*
X93782175Y-52994961D01*
X93782175Y-52994962D01*
X93801000Y-53186095D01*
X93801000Y-53813906D01*
X93782175Y-54005039D01*
X93707781Y-54250282D01*
X93597726Y-54456182D01*
X93586975Y-54476294D01*
X93424396Y-54674396D01*
X93226293Y-54836975D01*
X93000279Y-54957782D01*
X92755039Y-55032175D01*
X92500000Y-55057294D01*
X92244960Y-55032175D01*
X91999720Y-54957782D01*
X91999718Y-54957781D01*
X91773707Y-54836976D01*
X91575604Y-54674396D01*
X91433302Y-54501000D01*
X91413025Y-54476293D01*
X91292218Y-54250279D01*
X91217825Y-54005039D01*
X91199000Y-53813904D01*
X91199000Y-53186095D01*
X91200375Y-53172139D01*
X91217825Y-52994961D01*
X91217825Y-52994960D01*
X91292218Y-52749720D01*
X91292219Y-52749718D01*
X91413024Y-52523707D01*
X91575604Y-52325604D01*
X91686805Y-52234344D01*
X91773707Y-52163025D01*
X91999721Y-52042218D01*
X92244961Y-51967825D01*
X92500000Y-51942706D01*
X92755040Y-51967825D01*
G37*
G36*
X112205997Y-50903051D02*
G01*
X112239652Y-50913261D01*
X112270665Y-50929838D01*
X112297851Y-50952149D01*
X112320162Y-50979335D01*
X112336739Y-51010348D01*
X112346949Y-51044003D01*
X112351000Y-51085138D01*
X112351000Y-54314862D01*
X112346949Y-54355997D01*
X112336739Y-54389652D01*
X112320162Y-54420665D01*
X112297851Y-54447851D01*
X112270665Y-54470162D01*
X112239652Y-54486739D01*
X112205997Y-54496949D01*
X112164862Y-54501000D01*
X110835138Y-54501000D01*
X110794003Y-54496949D01*
X110760348Y-54486739D01*
X110729335Y-54470162D01*
X110702149Y-54447851D01*
X110679838Y-54420665D01*
X110663261Y-54389652D01*
X110653051Y-54355997D01*
X110649000Y-54314862D01*
X110649000Y-51085138D01*
X110653051Y-51044003D01*
X110663261Y-51010348D01*
X110679838Y-50979335D01*
X110702149Y-50952149D01*
X110729335Y-50929838D01*
X110760348Y-50913261D01*
X110794003Y-50903051D01*
X110835138Y-50899000D01*
X112164862Y-50899000D01*
X112205997Y-50903051D01*
G37*
G36*
X107001000Y-54501000D02*
G01*
X100999000Y-54501000D01*
X100999000Y-51949000D01*
X107001000Y-51949000D01*
X107001000Y-54501000D01*
G37*
G36*
X97434468Y-51753565D02*
G01*
X97473138Y-51765296D01*
X97508777Y-51784346D01*
X97540017Y-51809983D01*
X97565654Y-51841223D01*
X97584704Y-51876862D01*
X97596435Y-51915532D01*
X97601000Y-51961888D01*
X97601000Y-53038112D01*
X97596435Y-53084468D01*
X97584704Y-53123138D01*
X97565654Y-53158777D01*
X97540017Y-53190017D01*
X97508777Y-53215654D01*
X97473138Y-53234704D01*
X97434468Y-53246435D01*
X97388112Y-53251000D01*
X96736888Y-53251000D01*
X96690532Y-53246435D01*
X96651862Y-53234704D01*
X96616223Y-53215654D01*
X96584983Y-53190017D01*
X96559346Y-53158777D01*
X96540296Y-53123138D01*
X96528565Y-53084468D01*
X96524000Y-53038112D01*
X96524000Y-51961888D01*
X96528565Y-51915532D01*
X96540296Y-51876862D01*
X96559346Y-51841223D01*
X96584983Y-51809983D01*
X96616223Y-51784346D01*
X96651862Y-51765296D01*
X96690532Y-51753565D01*
X96736888Y-51749000D01*
X97388112Y-51749000D01*
X97434468Y-51753565D01*
G37*
G36*
X99309468Y-51753565D02*
G01*
X99348138Y-51765296D01*
X99383777Y-51784346D01*
X99415017Y-51809983D01*
X99440654Y-51841223D01*
X99459704Y-51876862D01*
X99471435Y-51915532D01*
X99476000Y-51961888D01*
X99476000Y-53038112D01*
X99471435Y-53084468D01*
X99459704Y-53123138D01*
X99440654Y-53158777D01*
X99415017Y-53190017D01*
X99383777Y-53215654D01*
X99348138Y-53234704D01*
X99309468Y-53246435D01*
X99263112Y-53251000D01*
X98611888Y-53251000D01*
X98565532Y-53246435D01*
X98526862Y-53234704D01*
X98491223Y-53215654D01*
X98459983Y-53190017D01*
X98434346Y-53158777D01*
X98415296Y-53123138D01*
X98403565Y-53084468D01*
X98399000Y-53038112D01*
X98399000Y-51961888D01*
X98403565Y-51915532D01*
X98415296Y-51876862D01*
X98434346Y-51841223D01*
X98459983Y-51809983D01*
X98491223Y-51784346D01*
X98526862Y-51765296D01*
X98565532Y-51753565D01*
X98611888Y-51749000D01*
X99263112Y-51749000D01*
X99309468Y-51753565D01*
G37*
M02*
