M48
; DRILL file {KiCad 5.1.5+dfsg1-2build2} date Čt 21. ledna 2021, 00:37:03
; FORMAT={-:-/ absolute / inch / decimal}
; #@! TF.CreationDate,2021-01-21T00:37:03+01:00
; #@! TF.GenerationSoftware,Kicad,Pcbnew,5.1.5+dfsg1-2build2
; #@! TF.FileFunction,Plated,1,2,PTH
FMAT,2
INCH
T1C0.0236
T2C0.0314
T3C0.0394
T4C0.0512
%
G90
G05
T1
X3.6811Y-2.3031
X3.7992Y-2.4606
X3.878Y-2.4606
X3.9173Y-2.4606
X3.9567Y-2.4606
X3.9961Y-2.4606
X4.0354Y-2.4606
X4.2126Y-3.1693
X4.2224Y-3.5531
X4.252Y-2.7756
X4.2717Y-4.8031
X4.2717Y-4.8425
X4.2717Y-4.8819
X4.2717Y-5.2559
X4.2913Y-3.9173
X4.2913Y-3.9567
X4.2913Y-3.9961
X4.2938Y-2.3844
X4.311Y-4.8031
X4.311Y-4.8425
X4.311Y-4.8819
X4.3254Y-5.1915
X4.3307Y-3.9173
X4.3307Y-3.9567
X4.3307Y-3.9961
X4.3406Y-2.7756
X4.3996Y-3.5138
X4.4291Y-5.2559
X4.4685Y-2.0276
X4.4685Y-2.0669
X4.4685Y-5.4734
X4.498Y-5.2165
X4.5079Y-2.0276
X4.5079Y-2.0669
X4.5472Y-2.0276
X4.5472Y-2.0669
X4.5758Y-5.4734
X4.7441Y-3.7795
X4.7441Y-3.8189
X4.7441Y-3.8583
X4.7835Y-3.7795
X4.7835Y-3.8189
X4.7835Y-3.8583
T2
X4.2559Y-5.7422
X4.4054Y-5.7423
T3
X3.9945Y-2.7165
X3.9945Y-2.8165
X3.9945Y-2.9165
X3.9945Y-3.0165
X3.9945Y-3.1165
X3.9945Y-3.2165
X3.9945Y-3.3165
X3.9945Y-3.4165
X3.9945Y-3.5165
X3.9945Y-3.6165
X3.9945Y-3.7165
X3.9945Y-3.8165
X3.9945Y-3.9165
X3.9945Y-4.0165
X3.9945Y-4.1165
X3.9945Y-4.2165
X3.9945Y-4.3165
X3.9945Y-4.4165
X3.9945Y-4.5165
X3.9945Y-4.6165
X4.0945Y-2.7165
X4.0945Y-2.8165
X4.0945Y-2.9165
X4.0945Y-3.0165
X4.0945Y-3.1165
X4.0945Y-3.2165
X4.0945Y-3.3165
X4.0945Y-3.4165
X4.0945Y-3.5165
X4.0945Y-3.6165
X4.0945Y-3.7165
X4.0945Y-3.8165
X4.0945Y-3.9165
X4.0945Y-4.0165
X4.0945Y-4.1165
X4.0945Y-4.2165
X4.0945Y-4.3165
X4.0945Y-4.4165
X4.0945Y-4.5165
X4.0945Y-4.6165
X4.8031Y-5.174
X4.8031Y-5.274
X4.8031Y-5.374
X4.5177Y-2.4508
X4.5177Y-2.5508
X4.5177Y-2.6508
X4.5177Y-2.7508
X4.5177Y-2.8508
X4.5177Y-2.9508
X4.5177Y-3.0508
X4.5177Y-3.1508
X4.5177Y-3.2508
X4.5177Y-3.3508
X4.5177Y-3.4508
X4.5177Y-3.5508
T4
X3.4449Y-2.1063
X3.6417Y-2.1063
T0
M30
