G04 #@! TF.GenerationSoftware,KiCad,Pcbnew,5.1.5+dfsg1-2build2*
G04 #@! TF.CreationDate,2021-01-21T00:37:08+01:00*
G04 #@! TF.ProjectId,t100-raspi,74313030-2d72-4617-9370-692e6b696361,rev?*
G04 #@! TF.SameCoordinates,Original*
G04 #@! TF.FileFunction,Legend,Top*
G04 #@! TF.FilePolarity,Positive*
%FSLAX46Y46*%
G04 Gerber Fmt 4.6, Leading zero omitted, Abs format (unit mm)*
G04 Created by KiCad (PCBNEW 5.1.5+dfsg1-2build2) date 2021-01-21 00:37:08*
%MOMM*%
%LPD*%
G04 APERTURE LIST*
%ADD10C,0.150000*%
%ADD11C,0.120000*%
%ADD12C,0.254000*%
%ADD13C,0.200660*%
G04 APERTURE END LIST*
D10*
X80797619Y-70785714D02*
X80797619Y-71357142D01*
X79797619Y-71071428D02*
X80797619Y-71071428D01*
X79797619Y-72214285D02*
X79797619Y-71642857D01*
X79797619Y-71928571D02*
X80797619Y-71928571D01*
X80654761Y-71833333D01*
X80559523Y-71738095D01*
X80511904Y-71642857D01*
X80797619Y-72833333D02*
X80797619Y-72928571D01*
X80750000Y-73023809D01*
X80702380Y-73071428D01*
X80607142Y-73119047D01*
X80416666Y-73166666D01*
X80178571Y-73166666D01*
X79988095Y-73119047D01*
X79892857Y-73071428D01*
X79845238Y-73023809D01*
X79797619Y-72928571D01*
X79797619Y-72833333D01*
X79845238Y-72738095D01*
X79892857Y-72690476D01*
X79988095Y-72642857D01*
X80178571Y-72595238D01*
X80416666Y-72595238D01*
X80607142Y-72642857D01*
X80702380Y-72690476D01*
X80750000Y-72738095D01*
X80797619Y-72833333D01*
X80797619Y-73785714D02*
X80797619Y-73880952D01*
X80750000Y-73976190D01*
X80702380Y-74023809D01*
X80607142Y-74071428D01*
X80416666Y-74119047D01*
X80178571Y-74119047D01*
X79988095Y-74071428D01*
X79892857Y-74023809D01*
X79845238Y-73976190D01*
X79797619Y-73880952D01*
X79797619Y-73785714D01*
X79845238Y-73690476D01*
X79892857Y-73642857D01*
X79988095Y-73595238D01*
X80178571Y-73547619D01*
X80416666Y-73547619D01*
X80607142Y-73595238D01*
X80702380Y-73642857D01*
X80750000Y-73690476D01*
X80797619Y-73785714D01*
X80178571Y-74547619D02*
X80178571Y-75309523D01*
X79797619Y-76357142D02*
X80273809Y-76023809D01*
X79797619Y-75785714D02*
X80797619Y-75785714D01*
X80797619Y-76166666D01*
X80750000Y-76261904D01*
X80702380Y-76309523D01*
X80607142Y-76357142D01*
X80464285Y-76357142D01*
X80369047Y-76309523D01*
X80321428Y-76261904D01*
X80273809Y-76166666D01*
X80273809Y-75785714D01*
X80083333Y-76738095D02*
X80083333Y-77214285D01*
X79797619Y-76642857D02*
X80797619Y-76976190D01*
X79797619Y-77309523D01*
X79845238Y-77595238D02*
X79797619Y-77738095D01*
X79797619Y-77976190D01*
X79845238Y-78071428D01*
X79892857Y-78119047D01*
X79988095Y-78166666D01*
X80083333Y-78166666D01*
X80178571Y-78119047D01*
X80226190Y-78071428D01*
X80273809Y-77976190D01*
X80321428Y-77785714D01*
X80369047Y-77690476D01*
X80416666Y-77642857D01*
X80511904Y-77595238D01*
X80607142Y-77595238D01*
X80702380Y-77642857D01*
X80750000Y-77690476D01*
X80797619Y-77785714D01*
X80797619Y-78023809D01*
X80750000Y-78166666D01*
X79797619Y-78595238D02*
X80797619Y-78595238D01*
X80797619Y-78976190D01*
X80750000Y-79071428D01*
X80702380Y-79119047D01*
X80607142Y-79166666D01*
X80464285Y-79166666D01*
X80369047Y-79119047D01*
X80321428Y-79071428D01*
X80273809Y-78976190D01*
X80273809Y-78595238D01*
X79797619Y-79595238D02*
X80797619Y-79595238D01*
X80464285Y-80738095D02*
X79797619Y-80976190D01*
X80464285Y-81214285D01*
X79797619Y-82119047D02*
X79797619Y-81547619D01*
X79797619Y-81833333D02*
X80797619Y-81833333D01*
X80654761Y-81738095D01*
X80559523Y-81642857D01*
X80511904Y-81547619D01*
X80988095Y-51321428D02*
X81750000Y-51321428D01*
X81369047Y-51702380D02*
X81369047Y-50940476D01*
X82750000Y-51702380D02*
X82178571Y-51702380D01*
X82464285Y-51702380D02*
X82464285Y-50702380D01*
X82369047Y-50845238D01*
X82273809Y-50940476D01*
X82178571Y-50988095D01*
X83130952Y-50797619D02*
X83178571Y-50750000D01*
X83273809Y-50702380D01*
X83511904Y-50702380D01*
X83607142Y-50750000D01*
X83654761Y-50797619D01*
X83702380Y-50892857D01*
X83702380Y-50988095D01*
X83654761Y-51130952D01*
X83083333Y-51702380D01*
X83702380Y-51702380D01*
X83988095Y-50702380D02*
X84321428Y-51702380D01*
X84654761Y-50702380D01*
X95890476Y-50600000D02*
X95814285Y-50561904D01*
X95700000Y-50561904D01*
X95585714Y-50600000D01*
X95509523Y-50676190D01*
X95471428Y-50752380D01*
X95433333Y-50904761D01*
X95433333Y-51019047D01*
X95471428Y-51171428D01*
X95509523Y-51247619D01*
X95585714Y-51323809D01*
X95700000Y-51361904D01*
X95776190Y-51361904D01*
X95890476Y-51323809D01*
X95928571Y-51285714D01*
X95928571Y-51019047D01*
X95776190Y-51019047D01*
X96271428Y-51361904D02*
X96271428Y-50561904D01*
X96728571Y-51361904D01*
X96728571Y-50561904D01*
X97109523Y-51361904D02*
X97109523Y-50561904D01*
X97300000Y-50561904D01*
X97414285Y-50600000D01*
X97490476Y-50676190D01*
X97528571Y-50752380D01*
X97566666Y-50904761D01*
X97566666Y-51019047D01*
X97528571Y-51171428D01*
X97490476Y-51247619D01*
X97414285Y-51323809D01*
X97300000Y-51361904D01*
X97109523Y-51361904D01*
D11*
X123250000Y-127750000D02*
X123250000Y-130000000D01*
X118500000Y-127750000D02*
X123250000Y-127750000D01*
X118500000Y-137750000D02*
X118500000Y-127750000D01*
X118500000Y-137750000D02*
X123250000Y-137750000D01*
D10*
X119000000Y-136238095D02*
X118952380Y-136333333D01*
X118952380Y-136476190D01*
X119000000Y-136619047D01*
X119095238Y-136714285D01*
X119190476Y-136761904D01*
X119380952Y-136809523D01*
X119523809Y-136809523D01*
X119714285Y-136761904D01*
X119809523Y-136714285D01*
X119904761Y-136619047D01*
X119952380Y-136476190D01*
X119952380Y-136380952D01*
X119904761Y-136238095D01*
X119857142Y-136190476D01*
X119523809Y-136190476D01*
X119523809Y-136380952D01*
X119952380Y-131666666D02*
X119476190Y-132000000D01*
X119952380Y-132238095D02*
X118952380Y-132238095D01*
X118952380Y-131857142D01*
X119000000Y-131761904D01*
X119047619Y-131714285D01*
X119142857Y-131666666D01*
X119285714Y-131666666D01*
X119380952Y-131714285D01*
X119428571Y-131761904D01*
X119476190Y-131857142D01*
X119476190Y-132238095D01*
X118952380Y-131333333D02*
X119952380Y-130666666D01*
X118952380Y-130666666D02*
X119952380Y-131333333D01*
X118952380Y-134761904D02*
X118952380Y-134190476D01*
X119952380Y-134476190D02*
X118952380Y-134476190D01*
X118952380Y-133952380D02*
X119952380Y-133285714D01*
X118952380Y-133285714D02*
X119952380Y-133952380D01*
X119154761Y-128202380D02*
X119154761Y-129011904D01*
X119202380Y-129107142D01*
X119250000Y-129154761D01*
X119345238Y-129202380D01*
X119535714Y-129202380D01*
X119630952Y-129154761D01*
X119678571Y-129107142D01*
X119726190Y-129011904D01*
X119726190Y-128202380D01*
X120154761Y-128916666D02*
X120630952Y-128916666D01*
X120059523Y-129202380D02*
X120392857Y-128202380D01*
X120726190Y-129202380D01*
X121630952Y-129202380D02*
X121297619Y-128726190D01*
X121059523Y-129202380D02*
X121059523Y-128202380D01*
X121440476Y-128202380D01*
X121535714Y-128250000D01*
X121583333Y-128297619D01*
X121630952Y-128392857D01*
X121630952Y-128535714D01*
X121583333Y-128630952D01*
X121535714Y-128678571D01*
X121440476Y-128726190D01*
X121059523Y-128726190D01*
X121916666Y-128202380D02*
X122488095Y-128202380D01*
X122202380Y-129202380D02*
X122202380Y-128202380D01*
D12*
X85020000Y-122130001D02*
X88220000Y-122130001D01*
X85020000Y-64130001D02*
X88220000Y-64130001D01*
D11*
X104635000Y-67095000D02*
X104000000Y-67730000D01*
X103365000Y-67095000D02*
X104635000Y-67095000D01*
X104000000Y-67730000D02*
X103365000Y-67095000D01*
D12*
X85570000Y-59526447D02*
X85920000Y-60083554D01*
X85570000Y-58630000D02*
X85570000Y-59526447D01*
X86570000Y-58630000D02*
X85570000Y-58630000D01*
X86570000Y-58630000D02*
X86570000Y-60630001D01*
X99760000Y-67730001D02*
X99760000Y-118530000D01*
X91260000Y-67730001D02*
X99760000Y-67730001D01*
X91260000Y-118530000D02*
X91260000Y-67730001D01*
X99760000Y-118530000D02*
X91260000Y-118530000D01*
X88220000Y-60630001D02*
X85020000Y-60630001D01*
X88220000Y-145630000D02*
X85020000Y-145630000D01*
X88220000Y-149523826D02*
X88220000Y-128123826D01*
X103820001Y-149523826D02*
X103820001Y-128123826D01*
X103820001Y-149523826D02*
X88220000Y-149523826D01*
X103820001Y-128123826D02*
X88220000Y-128123826D01*
X88220000Y-145630000D02*
X88220000Y-60630001D01*
X85020000Y-145630000D02*
X85020000Y-60630001D01*
X85920000Y-60083554D02*
X85920000Y-60630001D01*
D11*
X98900000Y-54390000D02*
X96450000Y-54390000D01*
X97100000Y-57610000D02*
X98900000Y-57610000D01*
X114100000Y-107610000D02*
X116550000Y-107610000D01*
X115900000Y-104390000D02*
X114100000Y-104390000D01*
X107940000Y-138500000D02*
X107940000Y-141950000D01*
X107940000Y-138500000D02*
X107940000Y-136550000D01*
X113060000Y-138500000D02*
X113060000Y-140450000D01*
X113060000Y-138500000D02*
X113060000Y-136550000D01*
X107741422Y-69710000D02*
X108258578Y-69710000D01*
X107741422Y-68290000D02*
X108258578Y-68290000D01*
X109741422Y-63210000D02*
X110258578Y-63210000D01*
X109741422Y-61790000D02*
X110258578Y-61790000D01*
X118290000Y-103741422D02*
X118290000Y-104258578D01*
X119710000Y-103741422D02*
X119710000Y-104258578D01*
X118290000Y-107741422D02*
X118290000Y-108258578D01*
X119710000Y-107741422D02*
X119710000Y-108258578D01*
X112210000Y-81196078D02*
X112210000Y-80678922D01*
X110790000Y-81196078D02*
X110790000Y-80678922D01*
X109790000Y-90991422D02*
X109790000Y-91508578D01*
X111210000Y-90991422D02*
X111210000Y-91508578D01*
X110790000Y-73741422D02*
X110790000Y-74258578D01*
X112210000Y-73741422D02*
X112210000Y-74258578D01*
X109178922Y-78210000D02*
X109696078Y-78210000D01*
X109178922Y-76790000D02*
X109696078Y-76790000D01*
X105241422Y-63210000D02*
X105758578Y-63210000D01*
X105241422Y-61790000D02*
X105758578Y-61790000D01*
X110290000Y-105741422D02*
X110290000Y-106258578D01*
X111710000Y-105741422D02*
X111710000Y-106258578D01*
X100900000Y-52000000D02*
X100900000Y-60000000D01*
X107100000Y-52000000D02*
X107100000Y-60000000D01*
X111000000Y-118100000D02*
X119000000Y-118100000D01*
X111000000Y-111900000D02*
X119000000Y-111900000D01*
X114750000Y-91520000D02*
X113640000Y-91520000D01*
X113640000Y-91520000D02*
X113640000Y-90190000D01*
X124840000Y-91520000D02*
X124840000Y-60920000D01*
X124840000Y-60920000D02*
X116210000Y-60920000D01*
X116210000Y-91520000D02*
X116210000Y-60920000D01*
X124840000Y-91520000D02*
X116210000Y-91520000D01*
X124840000Y-63520000D02*
X116210000Y-63520000D01*
X124840000Y-66060000D02*
X116210000Y-66060000D01*
X124840000Y-68600000D02*
X116210000Y-68600000D01*
X124840000Y-71140000D02*
X116210000Y-71140000D01*
X124840000Y-73680000D02*
X116210000Y-73680000D01*
X124840000Y-76220000D02*
X116210000Y-76220000D01*
X124840000Y-78760000D02*
X116210000Y-78760000D01*
X124840000Y-81300000D02*
X116210000Y-81300000D01*
X124840000Y-83840000D02*
X116210000Y-83840000D01*
X124840000Y-86380000D02*
X116210000Y-86380000D01*
X124840000Y-88920000D02*
X116210000Y-88920000D01*
X116210000Y-61890000D02*
X115800000Y-61890000D01*
X116210000Y-62610000D02*
X115800000Y-62610000D01*
X116210000Y-64430000D02*
X115800000Y-64430000D01*
X116210000Y-65150000D02*
X115800000Y-65150000D01*
X116210000Y-66970000D02*
X115800000Y-66970000D01*
X116210000Y-67690000D02*
X115800000Y-67690000D01*
X116210000Y-69510000D02*
X115800000Y-69510000D01*
X116210000Y-70230000D02*
X115800000Y-70230000D01*
X116210000Y-72050000D02*
X115800000Y-72050000D01*
X116210000Y-72770000D02*
X115800000Y-72770000D01*
X116210000Y-74590000D02*
X115800000Y-74590000D01*
X116210000Y-75310000D02*
X115800000Y-75310000D01*
X116210000Y-77130000D02*
X115800000Y-77130000D01*
X116210000Y-77850000D02*
X115800000Y-77850000D01*
X116210000Y-79670000D02*
X115800000Y-79670000D01*
X116210000Y-80390000D02*
X115800000Y-80390000D01*
X116210000Y-82210000D02*
X115800000Y-82210000D01*
X116210000Y-82930000D02*
X115800000Y-82930000D01*
X116210000Y-84750000D02*
X115800000Y-84750000D01*
X116210000Y-85470000D02*
X115800000Y-85470000D01*
X116210000Y-87290000D02*
X115800000Y-87290000D01*
X116210000Y-88010000D02*
X115800000Y-88010000D01*
X116210000Y-89830000D02*
X115860000Y-89830000D01*
X116210000Y-90550000D02*
X115860000Y-90550000D01*
X124840000Y-89038100D02*
X116210000Y-89038100D01*
X124840000Y-89156195D02*
X116210000Y-89156195D01*
X124840000Y-89274290D02*
X116210000Y-89274290D01*
X124840000Y-89392385D02*
X116210000Y-89392385D01*
X124840000Y-89510480D02*
X116210000Y-89510480D01*
X124840000Y-89628575D02*
X116210000Y-89628575D01*
X124840000Y-89746670D02*
X116210000Y-89746670D01*
X124840000Y-89864765D02*
X116210000Y-89864765D01*
X124840000Y-89982860D02*
X116210000Y-89982860D01*
X124840000Y-90100955D02*
X116210000Y-90100955D01*
X124840000Y-90219050D02*
X116210000Y-90219050D01*
X124840000Y-90337145D02*
X116210000Y-90337145D01*
X124840000Y-90455240D02*
X116210000Y-90455240D01*
X124840000Y-90573335D02*
X116210000Y-90573335D01*
X124840000Y-90691430D02*
X116210000Y-90691430D01*
X124840000Y-90809525D02*
X116210000Y-90809525D01*
X124840000Y-90927620D02*
X116210000Y-90927620D01*
X124840000Y-91045715D02*
X116210000Y-91045715D01*
X124840000Y-91163810D02*
X116210000Y-91163810D01*
X124840000Y-91281905D02*
X116210000Y-91281905D01*
X124840000Y-91400000D02*
X116210000Y-91400000D01*
D10*
X95000000Y-57700000D02*
X85000000Y-57700000D01*
X85000000Y-57700000D02*
X85000000Y-50300000D01*
X85000000Y-50300000D02*
X95000000Y-50300000D01*
X95000000Y-50300000D02*
X95000000Y-57700000D01*
X95000000Y-55700000D02*
X85000000Y-55700000D01*
X95000000Y-51300000D02*
X85000000Y-51300000D01*
D11*
X123330000Y-137830000D02*
X122000000Y-137830000D01*
X123330000Y-136500000D02*
X123330000Y-137830000D01*
X123330000Y-135230000D02*
X120670000Y-135230000D01*
X120670000Y-135230000D02*
X120670000Y-130090000D01*
X123330000Y-135230000D02*
X123330000Y-130090000D01*
X123330000Y-130090000D02*
X120670000Y-130090000D01*
D13*
X113898900Y-145099320D02*
X113898900Y-150100580D01*
X106101100Y-145099320D02*
X113898900Y-145099320D01*
X106101100Y-150100580D02*
X106101100Y-145099320D01*
X105798840Y-149899920D02*
X105798840Y-150100580D01*
X114201160Y-149899920D02*
X105798840Y-149899920D01*
X114201160Y-150100580D02*
X114201160Y-149899920D01*
X105798840Y-150100580D02*
X114201160Y-150100580D01*
X105798840Y-149998980D02*
X114201160Y-149998980D01*
D11*
X109258750Y-59543750D02*
X110046250Y-59543750D01*
X109652500Y-59937500D02*
X109652500Y-59150000D01*
X113845563Y-58910000D02*
X114910000Y-57845563D01*
X109154437Y-58910000D02*
X108090000Y-57845563D01*
X109154437Y-58910000D02*
X110440000Y-58910000D01*
X113845563Y-58910000D02*
X112560000Y-58910000D01*
X114910000Y-57845563D02*
X114910000Y-52090000D01*
X108090000Y-57845563D02*
X108090000Y-52090000D01*
X108090000Y-52090000D02*
X110440000Y-52090000D01*
X114910000Y-52090000D02*
X112560000Y-52090000D01*
X119043750Y-125241250D02*
X119043750Y-124453750D01*
X119437500Y-124847500D02*
X118650000Y-124847500D01*
X118410000Y-120654437D02*
X117345563Y-119590000D01*
X118410000Y-125345563D02*
X117345563Y-126410000D01*
X118410000Y-125345563D02*
X118410000Y-124060000D01*
X118410000Y-120654437D02*
X118410000Y-121940000D01*
X117345563Y-119590000D02*
X111590000Y-119590000D01*
X117345563Y-126410000D02*
X111590000Y-126410000D01*
X111590000Y-126410000D02*
X111590000Y-124060000D01*
X111590000Y-119590000D02*
X111590000Y-121940000D01*
X97741422Y-53210000D02*
X98258578Y-53210000D01*
X97741422Y-51790000D02*
X98258578Y-51790000D01*
X115258578Y-109290000D02*
X114741422Y-109290000D01*
X115258578Y-110710000D02*
X114741422Y-110710000D01*
X89258578Y-58290000D02*
X88741422Y-58290000D01*
X89258578Y-59710000D02*
X88741422Y-59710000D01*
X115258578Y-101290000D02*
X114741422Y-101290000D01*
X115258578Y-102710000D02*
X114741422Y-102710000D01*
X90956250Y-60258750D02*
X90956250Y-61046250D01*
X90562500Y-60652500D02*
X91350000Y-60652500D01*
X91590000Y-64845563D02*
X92654437Y-65910000D01*
X91590000Y-60154437D02*
X92654437Y-59090000D01*
X91590000Y-60154437D02*
X91590000Y-61440000D01*
X91590000Y-64845563D02*
X91590000Y-63560000D01*
X92654437Y-65910000D02*
X98410000Y-65910000D01*
X92654437Y-59090000D02*
X98410000Y-59090000D01*
X98410000Y-59090000D02*
X98410000Y-61440000D01*
X98410000Y-65910000D02*
X98410000Y-63560000D01*
X110956250Y-94758750D02*
X110956250Y-95546250D01*
X110562500Y-95152500D02*
X111350000Y-95152500D01*
X111590000Y-99345563D02*
X112654437Y-100410000D01*
X111590000Y-94654437D02*
X112654437Y-93590000D01*
X111590000Y-94654437D02*
X111590000Y-95940000D01*
X111590000Y-99345563D02*
X111590000Y-98060000D01*
X112654437Y-100410000D02*
X118410000Y-100410000D01*
X112654437Y-93590000D02*
X118410000Y-93590000D01*
X118410000Y-93590000D02*
X118410000Y-95940000D01*
X118410000Y-100410000D02*
X118410000Y-98060000D01*
X114290000Y-137738748D02*
X114290000Y-138261252D01*
X115710000Y-137738748D02*
X115710000Y-138261252D01*
X116790000Y-137738748D02*
X116790000Y-138261252D01*
X118210000Y-137738748D02*
X118210000Y-138261252D01*
D10*
X95832380Y-64253333D02*
X96546666Y-64253333D01*
X96689523Y-64300952D01*
X96784761Y-64396190D01*
X96832380Y-64539047D01*
X96832380Y-64634285D01*
X95832380Y-63872380D02*
X95832380Y-63253333D01*
X96213333Y-63586666D01*
X96213333Y-63443809D01*
X96260952Y-63348571D01*
X96308571Y-63300952D01*
X96403809Y-63253333D01*
X96641904Y-63253333D01*
X96737142Y-63300952D01*
X96784761Y-63348571D01*
X96832380Y-63443809D01*
X96832380Y-63729523D01*
X96784761Y-63824761D01*
X96737142Y-63872380D01*
X95311904Y-55609523D02*
X95959523Y-55609523D01*
X96035714Y-55571428D01*
X96073809Y-55533333D01*
X96111904Y-55457142D01*
X96111904Y-55304761D01*
X96073809Y-55228571D01*
X96035714Y-55190476D01*
X95959523Y-55152380D01*
X95311904Y-55152380D01*
X95311904Y-54847619D02*
X95311904Y-54352380D01*
X95616666Y-54619047D01*
X95616666Y-54504761D01*
X95654761Y-54428571D01*
X95692857Y-54390476D01*
X95769047Y-54352380D01*
X95959523Y-54352380D01*
X96035714Y-54390476D01*
X96073809Y-54428571D01*
X96111904Y-54504761D01*
X96111904Y-54733333D01*
X96073809Y-54809523D01*
X96035714Y-54847619D01*
X111238095Y-107952380D02*
X111238095Y-108761904D01*
X111285714Y-108857142D01*
X111333333Y-108904761D01*
X111428571Y-108952380D01*
X111619047Y-108952380D01*
X111714285Y-108904761D01*
X111761904Y-108857142D01*
X111809523Y-108761904D01*
X111809523Y-107952380D01*
X112238095Y-108047619D02*
X112285714Y-108000000D01*
X112380952Y-107952380D01*
X112619047Y-107952380D01*
X112714285Y-108000000D01*
X112761904Y-108047619D01*
X112809523Y-108142857D01*
X112809523Y-108238095D01*
X112761904Y-108380952D01*
X112190476Y-108952380D01*
X112809523Y-108952380D01*
X106552380Y-139261904D02*
X107361904Y-139261904D01*
X107457142Y-139214285D01*
X107504761Y-139166666D01*
X107552380Y-139071428D01*
X107552380Y-138880952D01*
X107504761Y-138785714D01*
X107457142Y-138738095D01*
X107361904Y-138690476D01*
X106552380Y-138690476D01*
X107552380Y-137690476D02*
X107552380Y-138261904D01*
X107552380Y-137976190D02*
X106552380Y-137976190D01*
X106695238Y-138071428D01*
X106790476Y-138166666D01*
X106838095Y-138261904D01*
X107357142Y-67802380D02*
X107023809Y-67326190D01*
X106785714Y-67802380D02*
X106785714Y-66802380D01*
X107166666Y-66802380D01*
X107261904Y-66850000D01*
X107309523Y-66897619D01*
X107357142Y-66992857D01*
X107357142Y-67135714D01*
X107309523Y-67230952D01*
X107261904Y-67278571D01*
X107166666Y-67326190D01*
X106785714Y-67326190D01*
X108309523Y-67802380D02*
X107738095Y-67802380D01*
X108023809Y-67802380D02*
X108023809Y-66802380D01*
X107928571Y-66945238D01*
X107833333Y-67040476D01*
X107738095Y-67088095D01*
X108928571Y-66802380D02*
X109023809Y-66802380D01*
X109119047Y-66850000D01*
X109166666Y-66897619D01*
X109214285Y-66992857D01*
X109261904Y-67183333D01*
X109261904Y-67421428D01*
X109214285Y-67611904D01*
X109166666Y-67707142D01*
X109119047Y-67754761D01*
X109023809Y-67802380D01*
X108928571Y-67802380D01*
X108833333Y-67754761D01*
X108785714Y-67707142D01*
X108738095Y-67611904D01*
X108690476Y-67421428D01*
X108690476Y-67183333D01*
X108738095Y-66992857D01*
X108785714Y-66897619D01*
X108833333Y-66850000D01*
X108928571Y-66802380D01*
X109833333Y-61302380D02*
X109500000Y-60826190D01*
X109261904Y-61302380D02*
X109261904Y-60302380D01*
X109642857Y-60302380D01*
X109738095Y-60350000D01*
X109785714Y-60397619D01*
X109833333Y-60492857D01*
X109833333Y-60635714D01*
X109785714Y-60730952D01*
X109738095Y-60778571D01*
X109642857Y-60826190D01*
X109261904Y-60826190D01*
X110309523Y-61302380D02*
X110500000Y-61302380D01*
X110595238Y-61254761D01*
X110642857Y-61207142D01*
X110738095Y-61064285D01*
X110785714Y-60873809D01*
X110785714Y-60492857D01*
X110738095Y-60397619D01*
X110690476Y-60350000D01*
X110595238Y-60302380D01*
X110404761Y-60302380D01*
X110309523Y-60350000D01*
X110261904Y-60397619D01*
X110214285Y-60492857D01*
X110214285Y-60730952D01*
X110261904Y-60826190D01*
X110309523Y-60873809D01*
X110404761Y-60921428D01*
X110595238Y-60921428D01*
X110690476Y-60873809D01*
X110738095Y-60826190D01*
X110785714Y-60730952D01*
X121102380Y-104166666D02*
X120626190Y-104500000D01*
X121102380Y-104738095D02*
X120102380Y-104738095D01*
X120102380Y-104357142D01*
X120150000Y-104261904D01*
X120197619Y-104214285D01*
X120292857Y-104166666D01*
X120435714Y-104166666D01*
X120530952Y-104214285D01*
X120578571Y-104261904D01*
X120626190Y-104357142D01*
X120626190Y-104738095D01*
X120530952Y-103595238D02*
X120483333Y-103690476D01*
X120435714Y-103738095D01*
X120340476Y-103785714D01*
X120292857Y-103785714D01*
X120197619Y-103738095D01*
X120150000Y-103690476D01*
X120102380Y-103595238D01*
X120102380Y-103404761D01*
X120150000Y-103309523D01*
X120197619Y-103261904D01*
X120292857Y-103214285D01*
X120340476Y-103214285D01*
X120435714Y-103261904D01*
X120483333Y-103309523D01*
X120530952Y-103404761D01*
X120530952Y-103595238D01*
X120578571Y-103690476D01*
X120626190Y-103738095D01*
X120721428Y-103785714D01*
X120911904Y-103785714D01*
X121007142Y-103738095D01*
X121054761Y-103690476D01*
X121102380Y-103595238D01*
X121102380Y-103404761D01*
X121054761Y-103309523D01*
X121007142Y-103261904D01*
X120911904Y-103214285D01*
X120721428Y-103214285D01*
X120626190Y-103261904D01*
X120578571Y-103309523D01*
X120530952Y-103404761D01*
X121102380Y-108166666D02*
X120626190Y-108500000D01*
X121102380Y-108738095D02*
X120102380Y-108738095D01*
X120102380Y-108357142D01*
X120150000Y-108261904D01*
X120197619Y-108214285D01*
X120292857Y-108166666D01*
X120435714Y-108166666D01*
X120530952Y-108214285D01*
X120578571Y-108261904D01*
X120626190Y-108357142D01*
X120626190Y-108738095D01*
X120102380Y-107833333D02*
X120102380Y-107166666D01*
X121102380Y-107595238D01*
X110302380Y-81104166D02*
X109826190Y-81437500D01*
X110302380Y-81675595D02*
X109302380Y-81675595D01*
X109302380Y-81294642D01*
X109350000Y-81199404D01*
X109397619Y-81151785D01*
X109492857Y-81104166D01*
X109635714Y-81104166D01*
X109730952Y-81151785D01*
X109778571Y-81199404D01*
X109826190Y-81294642D01*
X109826190Y-81675595D01*
X109302380Y-80247023D02*
X109302380Y-80437500D01*
X109350000Y-80532738D01*
X109397619Y-80580357D01*
X109540476Y-80675595D01*
X109730952Y-80723214D01*
X110111904Y-80723214D01*
X110207142Y-80675595D01*
X110254761Y-80627976D01*
X110302380Y-80532738D01*
X110302380Y-80342261D01*
X110254761Y-80247023D01*
X110207142Y-80199404D01*
X110111904Y-80151785D01*
X109873809Y-80151785D01*
X109778571Y-80199404D01*
X109730952Y-80247023D01*
X109683333Y-80342261D01*
X109683333Y-80532738D01*
X109730952Y-80627976D01*
X109778571Y-80675595D01*
X109873809Y-80723214D01*
X112602380Y-91416666D02*
X112126190Y-91750000D01*
X112602380Y-91988095D02*
X111602380Y-91988095D01*
X111602380Y-91607142D01*
X111650000Y-91511904D01*
X111697619Y-91464285D01*
X111792857Y-91416666D01*
X111935714Y-91416666D01*
X112030952Y-91464285D01*
X112078571Y-91511904D01*
X112126190Y-91607142D01*
X112126190Y-91988095D01*
X111602380Y-90511904D02*
X111602380Y-90988095D01*
X112078571Y-91035714D01*
X112030952Y-90988095D01*
X111983333Y-90892857D01*
X111983333Y-90654761D01*
X112030952Y-90559523D01*
X112078571Y-90511904D01*
X112173809Y-90464285D01*
X112411904Y-90464285D01*
X112507142Y-90511904D01*
X112554761Y-90559523D01*
X112602380Y-90654761D01*
X112602380Y-90892857D01*
X112554761Y-90988095D01*
X112507142Y-91035714D01*
X113602380Y-74166666D02*
X113126190Y-74500000D01*
X113602380Y-74738095D02*
X112602380Y-74738095D01*
X112602380Y-74357142D01*
X112650000Y-74261904D01*
X112697619Y-74214285D01*
X112792857Y-74166666D01*
X112935714Y-74166666D01*
X113030952Y-74214285D01*
X113078571Y-74261904D01*
X113126190Y-74357142D01*
X113126190Y-74738095D01*
X112935714Y-73309523D02*
X113602380Y-73309523D01*
X112554761Y-73547619D02*
X113269047Y-73785714D01*
X113269047Y-73166666D01*
X109270833Y-76302380D02*
X108937500Y-75826190D01*
X108699404Y-76302380D02*
X108699404Y-75302380D01*
X109080357Y-75302380D01*
X109175595Y-75350000D01*
X109223214Y-75397619D01*
X109270833Y-75492857D01*
X109270833Y-75635714D01*
X109223214Y-75730952D01*
X109175595Y-75778571D01*
X109080357Y-75826190D01*
X108699404Y-75826190D01*
X109604166Y-75302380D02*
X110223214Y-75302380D01*
X109889880Y-75683333D01*
X110032738Y-75683333D01*
X110127976Y-75730952D01*
X110175595Y-75778571D01*
X110223214Y-75873809D01*
X110223214Y-76111904D01*
X110175595Y-76207142D01*
X110127976Y-76254761D01*
X110032738Y-76302380D01*
X109747023Y-76302380D01*
X109651785Y-76254761D01*
X109604166Y-76207142D01*
X105333333Y-61302380D02*
X105000000Y-60826190D01*
X104761904Y-61302380D02*
X104761904Y-60302380D01*
X105142857Y-60302380D01*
X105238095Y-60350000D01*
X105285714Y-60397619D01*
X105333333Y-60492857D01*
X105333333Y-60635714D01*
X105285714Y-60730952D01*
X105238095Y-60778571D01*
X105142857Y-60826190D01*
X104761904Y-60826190D01*
X105714285Y-60397619D02*
X105761904Y-60350000D01*
X105857142Y-60302380D01*
X106095238Y-60302380D01*
X106190476Y-60350000D01*
X106238095Y-60397619D01*
X106285714Y-60492857D01*
X106285714Y-60588095D01*
X106238095Y-60730952D01*
X105666666Y-61302380D01*
X106285714Y-61302380D01*
X109702380Y-106166666D02*
X109226190Y-106500000D01*
X109702380Y-106738095D02*
X108702380Y-106738095D01*
X108702380Y-106357142D01*
X108750000Y-106261904D01*
X108797619Y-106214285D01*
X108892857Y-106166666D01*
X109035714Y-106166666D01*
X109130952Y-106214285D01*
X109178571Y-106261904D01*
X109226190Y-106357142D01*
X109226190Y-106738095D01*
X109702380Y-105214285D02*
X109702380Y-105785714D01*
X109702380Y-105500000D02*
X108702380Y-105500000D01*
X108845238Y-105595238D01*
X108940476Y-105690476D01*
X108988095Y-105785714D01*
X103833333Y-51452380D02*
X103357142Y-51452380D01*
X103357142Y-50452380D01*
X104119047Y-50547619D02*
X104166666Y-50500000D01*
X104261904Y-50452380D01*
X104500000Y-50452380D01*
X104595238Y-50500000D01*
X104642857Y-50547619D01*
X104690476Y-50642857D01*
X104690476Y-50738095D01*
X104642857Y-50880952D01*
X104071428Y-51452380D01*
X104690476Y-51452380D01*
X109583333Y-112952380D02*
X109107142Y-112952380D01*
X109107142Y-111952380D01*
X110440476Y-112952380D02*
X109869047Y-112952380D01*
X110154761Y-112952380D02*
X110154761Y-111952380D01*
X110059523Y-112095238D01*
X109964285Y-112190476D01*
X109869047Y-112238095D01*
X118796666Y-92412380D02*
X118796666Y-93126666D01*
X118749047Y-93269523D01*
X118653809Y-93364761D01*
X118510952Y-93412380D01*
X118415714Y-93412380D01*
X119749047Y-92412380D02*
X119272857Y-92412380D01*
X119225238Y-92888571D01*
X119272857Y-92840952D01*
X119368095Y-92793333D01*
X119606190Y-92793333D01*
X119701428Y-92840952D01*
X119749047Y-92888571D01*
X119796666Y-92983809D01*
X119796666Y-93221904D01*
X119749047Y-93317142D01*
X119701428Y-93364761D01*
X119606190Y-93412380D01*
X119368095Y-93412380D01*
X119272857Y-93364761D01*
X119225238Y-93317142D01*
X83666666Y-55952380D02*
X83666666Y-56666666D01*
X83619047Y-56809523D01*
X83523809Y-56904761D01*
X83380952Y-56952380D01*
X83285714Y-56952380D01*
X84571428Y-56285714D02*
X84571428Y-56952380D01*
X84333333Y-55904761D02*
X84095238Y-56619047D01*
X84714285Y-56619047D01*
X121452380Y-140333333D02*
X122166666Y-140333333D01*
X122309523Y-140380952D01*
X122404761Y-140476190D01*
X122452380Y-140619047D01*
X122452380Y-140714285D01*
X121547619Y-139904761D02*
X121500000Y-139857142D01*
X121452380Y-139761904D01*
X121452380Y-139523809D01*
X121500000Y-139428571D01*
X121547619Y-139380952D01*
X121642857Y-139333333D01*
X121738095Y-139333333D01*
X121880952Y-139380952D01*
X122452380Y-139952380D01*
X122452380Y-139333333D01*
X112666666Y-143702380D02*
X112666666Y-144416666D01*
X112619047Y-144559523D01*
X112523809Y-144654761D01*
X112380952Y-144702380D01*
X112285714Y-144702380D01*
X113666666Y-144702380D02*
X113095238Y-144702380D01*
X113380952Y-144702380D02*
X113380952Y-143702380D01*
X113285714Y-143845238D01*
X113190476Y-143940476D01*
X113095238Y-143988095D01*
X116107142Y-55892857D02*
X116154761Y-55940476D01*
X116202380Y-56083333D01*
X116202380Y-56178571D01*
X116154761Y-56321428D01*
X116059523Y-56416666D01*
X115964285Y-56464285D01*
X115773809Y-56511904D01*
X115630952Y-56511904D01*
X115440476Y-56464285D01*
X115345238Y-56416666D01*
X115250000Y-56321428D01*
X115202380Y-56178571D01*
X115202380Y-56083333D01*
X115250000Y-55940476D01*
X115297619Y-55892857D01*
X116202380Y-54940476D02*
X116202380Y-55511904D01*
X116202380Y-55226190D02*
X115202380Y-55226190D01*
X115345238Y-55321428D01*
X115440476Y-55416666D01*
X115488095Y-55511904D01*
X115202380Y-54321428D02*
X115202380Y-54226190D01*
X115250000Y-54130952D01*
X115297619Y-54083333D01*
X115392857Y-54035714D01*
X115583333Y-53988095D01*
X115821428Y-53988095D01*
X116011904Y-54035714D01*
X116107142Y-54083333D01*
X116154761Y-54130952D01*
X116202380Y-54226190D01*
X116202380Y-54321428D01*
X116154761Y-54416666D01*
X116107142Y-54464285D01*
X116011904Y-54511904D01*
X115821428Y-54559523D01*
X115583333Y-54559523D01*
X115392857Y-54511904D01*
X115297619Y-54464285D01*
X115250000Y-54416666D01*
X115202380Y-54321428D01*
X114833333Y-127707142D02*
X114785714Y-127754761D01*
X114642857Y-127802380D01*
X114547619Y-127802380D01*
X114404761Y-127754761D01*
X114309523Y-127659523D01*
X114261904Y-127564285D01*
X114214285Y-127373809D01*
X114214285Y-127230952D01*
X114261904Y-127040476D01*
X114309523Y-126945238D01*
X114404761Y-126850000D01*
X114547619Y-126802380D01*
X114642857Y-126802380D01*
X114785714Y-126850000D01*
X114833333Y-126897619D01*
X115309523Y-127802380D02*
X115500000Y-127802380D01*
X115595238Y-127754761D01*
X115642857Y-127707142D01*
X115738095Y-127564285D01*
X115785714Y-127373809D01*
X115785714Y-126992857D01*
X115738095Y-126897619D01*
X115690476Y-126850000D01*
X115595238Y-126802380D01*
X115404761Y-126802380D01*
X115309523Y-126850000D01*
X115261904Y-126897619D01*
X115214285Y-126992857D01*
X115214285Y-127230952D01*
X115261904Y-127326190D01*
X115309523Y-127373809D01*
X115404761Y-127421428D01*
X115595238Y-127421428D01*
X115690476Y-127373809D01*
X115738095Y-127326190D01*
X115785714Y-127230952D01*
X100583333Y-51357142D02*
X100535714Y-51404761D01*
X100392857Y-51452380D01*
X100297619Y-51452380D01*
X100154761Y-51404761D01*
X100059523Y-51309523D01*
X100011904Y-51214285D01*
X99964285Y-51023809D01*
X99964285Y-50880952D01*
X100011904Y-50690476D01*
X100059523Y-50595238D01*
X100154761Y-50500000D01*
X100297619Y-50452380D01*
X100392857Y-50452380D01*
X100535714Y-50500000D01*
X100583333Y-50547619D01*
X101154761Y-50880952D02*
X101059523Y-50833333D01*
X101011904Y-50785714D01*
X100964285Y-50690476D01*
X100964285Y-50642857D01*
X101011904Y-50547619D01*
X101059523Y-50500000D01*
X101154761Y-50452380D01*
X101345238Y-50452380D01*
X101440476Y-50500000D01*
X101488095Y-50547619D01*
X101535714Y-50642857D01*
X101535714Y-50690476D01*
X101488095Y-50785714D01*
X101440476Y-50833333D01*
X101345238Y-50880952D01*
X101154761Y-50880952D01*
X101059523Y-50928571D01*
X101011904Y-50976190D01*
X100964285Y-51071428D01*
X100964285Y-51261904D01*
X101011904Y-51357142D01*
X101059523Y-51404761D01*
X101154761Y-51452380D01*
X101345238Y-51452380D01*
X101440476Y-51404761D01*
X101488095Y-51357142D01*
X101535714Y-51261904D01*
X101535714Y-51071428D01*
X101488095Y-50976190D01*
X101440476Y-50928571D01*
X101345238Y-50880952D01*
X111833333Y-110607142D02*
X111785714Y-110654761D01*
X111642857Y-110702380D01*
X111547619Y-110702380D01*
X111404761Y-110654761D01*
X111309523Y-110559523D01*
X111261904Y-110464285D01*
X111214285Y-110273809D01*
X111214285Y-110130952D01*
X111261904Y-109940476D01*
X111309523Y-109845238D01*
X111404761Y-109750000D01*
X111547619Y-109702380D01*
X111642857Y-109702380D01*
X111785714Y-109750000D01*
X111833333Y-109797619D01*
X112166666Y-109702380D02*
X112833333Y-109702380D01*
X112404761Y-110702380D01*
X88833333Y-61007142D02*
X88785714Y-61054761D01*
X88642857Y-61102380D01*
X88547619Y-61102380D01*
X88404761Y-61054761D01*
X88309523Y-60959523D01*
X88261904Y-60864285D01*
X88214285Y-60673809D01*
X88214285Y-60530952D01*
X88261904Y-60340476D01*
X88309523Y-60245238D01*
X88404761Y-60150000D01*
X88547619Y-60102380D01*
X88642857Y-60102380D01*
X88785714Y-60150000D01*
X88833333Y-60197619D01*
X89690476Y-60102380D02*
X89500000Y-60102380D01*
X89404761Y-60150000D01*
X89357142Y-60197619D01*
X89261904Y-60340476D01*
X89214285Y-60530952D01*
X89214285Y-60911904D01*
X89261904Y-61007142D01*
X89309523Y-61054761D01*
X89404761Y-61102380D01*
X89595238Y-61102380D01*
X89690476Y-61054761D01*
X89738095Y-61007142D01*
X89785714Y-60911904D01*
X89785714Y-60673809D01*
X89738095Y-60578571D01*
X89690476Y-60530952D01*
X89595238Y-60483333D01*
X89404761Y-60483333D01*
X89309523Y-60530952D01*
X89261904Y-60578571D01*
X89214285Y-60673809D01*
X114833333Y-104007142D02*
X114785714Y-104054761D01*
X114642857Y-104102380D01*
X114547619Y-104102380D01*
X114404761Y-104054761D01*
X114309523Y-103959523D01*
X114261904Y-103864285D01*
X114214285Y-103673809D01*
X114214285Y-103530952D01*
X114261904Y-103340476D01*
X114309523Y-103245238D01*
X114404761Y-103150000D01*
X114547619Y-103102380D01*
X114642857Y-103102380D01*
X114785714Y-103150000D01*
X114833333Y-103197619D01*
X115738095Y-103102380D02*
X115261904Y-103102380D01*
X115214285Y-103578571D01*
X115261904Y-103530952D01*
X115357142Y-103483333D01*
X115595238Y-103483333D01*
X115690476Y-103530952D01*
X115738095Y-103578571D01*
X115785714Y-103673809D01*
X115785714Y-103911904D01*
X115738095Y-104007142D01*
X115690476Y-104054761D01*
X115595238Y-104102380D01*
X115357142Y-104102380D01*
X115261904Y-104054761D01*
X115214285Y-104007142D01*
X99333333Y-59357142D02*
X99285714Y-59404761D01*
X99142857Y-59452380D01*
X99047619Y-59452380D01*
X98904761Y-59404761D01*
X98809523Y-59309523D01*
X98761904Y-59214285D01*
X98714285Y-59023809D01*
X98714285Y-58880952D01*
X98761904Y-58690476D01*
X98809523Y-58595238D01*
X98904761Y-58500000D01*
X99047619Y-58452380D01*
X99142857Y-58452380D01*
X99285714Y-58500000D01*
X99333333Y-58547619D01*
X100190476Y-58785714D02*
X100190476Y-59452380D01*
X99952380Y-58404761D02*
X99714285Y-59119047D01*
X100333333Y-59119047D01*
X114833333Y-93007142D02*
X114785714Y-93054761D01*
X114642857Y-93102380D01*
X114547619Y-93102380D01*
X114404761Y-93054761D01*
X114309523Y-92959523D01*
X114261904Y-92864285D01*
X114214285Y-92673809D01*
X114214285Y-92530952D01*
X114261904Y-92340476D01*
X114309523Y-92245238D01*
X114404761Y-92150000D01*
X114547619Y-92102380D01*
X114642857Y-92102380D01*
X114785714Y-92150000D01*
X114833333Y-92197619D01*
X115166666Y-92102380D02*
X115785714Y-92102380D01*
X115452380Y-92483333D01*
X115595238Y-92483333D01*
X115690476Y-92530952D01*
X115738095Y-92578571D01*
X115785714Y-92673809D01*
X115785714Y-92911904D01*
X115738095Y-93007142D01*
X115690476Y-93054761D01*
X115595238Y-93102380D01*
X115309523Y-93102380D01*
X115214285Y-93054761D01*
X115166666Y-93007142D01*
X115357142Y-141166666D02*
X115404761Y-141214285D01*
X115452380Y-141357142D01*
X115452380Y-141452380D01*
X115404761Y-141595238D01*
X115309523Y-141690476D01*
X115214285Y-141738095D01*
X115023809Y-141785714D01*
X114880952Y-141785714D01*
X114690476Y-141738095D01*
X114595238Y-141690476D01*
X114500000Y-141595238D01*
X114452380Y-141452380D01*
X114452380Y-141357142D01*
X114500000Y-141214285D01*
X114547619Y-141166666D01*
X114547619Y-140785714D02*
X114500000Y-140738095D01*
X114452380Y-140642857D01*
X114452380Y-140404761D01*
X114500000Y-140309523D01*
X114547619Y-140261904D01*
X114642857Y-140214285D01*
X114738095Y-140214285D01*
X114880952Y-140261904D01*
X115452380Y-140833333D01*
X115452380Y-140214285D01*
X117857142Y-141166666D02*
X117904761Y-141214285D01*
X117952380Y-141357142D01*
X117952380Y-141452380D01*
X117904761Y-141595238D01*
X117809523Y-141690476D01*
X117714285Y-141738095D01*
X117523809Y-141785714D01*
X117380952Y-141785714D01*
X117190476Y-141738095D01*
X117095238Y-141690476D01*
X117000000Y-141595238D01*
X116952380Y-141452380D01*
X116952380Y-141357142D01*
X117000000Y-141214285D01*
X117047619Y-141166666D01*
X117952380Y-140214285D02*
X117952380Y-140785714D01*
X117952380Y-140500000D02*
X116952380Y-140500000D01*
X117095238Y-140595238D01*
X117190476Y-140690476D01*
X117238095Y-140785714D01*
M02*
