G04 #@! TF.GenerationSoftware,KiCad,Pcbnew,5.1.5+dfsg1-2build2*
G04 #@! TF.CreationDate,2021-01-21T00:37:08+01:00*
G04 #@! TF.ProjectId,t100-raspi,74313030-2d72-4617-9370-692e6b696361,rev?*
G04 #@! TF.SameCoordinates,Original*
G04 #@! TF.FileFunction,Copper,L1,Top*
G04 #@! TF.FilePolarity,Positive*
%FSLAX46Y46*%
G04 Gerber Fmt 4.6, Leading zero omitted, Abs format (unit mm)*
G04 Created by KiCad (PCBNEW 5.1.5+dfsg1-2build2) date 2021-01-21 00:37:08*
%MOMM*%
%LPD*%
G04 APERTURE LIST*
%ADD10C,0.100000*%
%ADD11R,1.060000X0.650000*%
%ADD12R,5.900000X2.450000*%
%ADD13R,2.450000X5.900000*%
%ADD14O,1.700000X1.700000*%
%ADD15R,1.700000X1.700000*%
%ADD16O,2.500000X3.000000*%
%ADD17C,0.797560*%
%ADD18R,0.398780X2.000000*%
%ADD19R,1.897380X1.897380*%
%ADD20C,0.900000*%
%ADD21C,1.200000*%
%ADD22C,0.600000*%
%ADD23C,0.400000*%
%ADD24C,2.000000*%
G04 APERTURE END LIST*
G04 #@! TA.AperFunction,ComponentPad*
D10*
G36*
X102009009Y-116262408D02*
G01*
X102057545Y-116269607D01*
X102105142Y-116281530D01*
X102151342Y-116298060D01*
X102195698Y-116319039D01*
X102237785Y-116344265D01*
X102277197Y-116373495D01*
X102313553Y-116406447D01*
X102346505Y-116442803D01*
X102375735Y-116482215D01*
X102400961Y-116524302D01*
X102421940Y-116568658D01*
X102438470Y-116614858D01*
X102450393Y-116662455D01*
X102457592Y-116710991D01*
X102460000Y-116760000D01*
X102460000Y-117760000D01*
X102457592Y-117809009D01*
X102450393Y-117857545D01*
X102438470Y-117905142D01*
X102421940Y-117951342D01*
X102400961Y-117995698D01*
X102375735Y-118037785D01*
X102346505Y-118077197D01*
X102313553Y-118113553D01*
X102277197Y-118146505D01*
X102237785Y-118175735D01*
X102195698Y-118200961D01*
X102151342Y-118221940D01*
X102105142Y-118238470D01*
X102057545Y-118250393D01*
X102009009Y-118257592D01*
X101960000Y-118260000D01*
X100960000Y-118260000D01*
X100910991Y-118257592D01*
X100862455Y-118250393D01*
X100814858Y-118238470D01*
X100768658Y-118221940D01*
X100724302Y-118200961D01*
X100682215Y-118175735D01*
X100642803Y-118146505D01*
X100606447Y-118113553D01*
X100573495Y-118077197D01*
X100544265Y-118037785D01*
X100519039Y-117995698D01*
X100498060Y-117951342D01*
X100481530Y-117905142D01*
X100469607Y-117857545D01*
X100462408Y-117809009D01*
X100460000Y-117760000D01*
X100460000Y-116760000D01*
X100462408Y-116710991D01*
X100469607Y-116662455D01*
X100481530Y-116614858D01*
X100498060Y-116568658D01*
X100519039Y-116524302D01*
X100544265Y-116482215D01*
X100573495Y-116442803D01*
X100606447Y-116406447D01*
X100642803Y-116373495D01*
X100682215Y-116344265D01*
X100724302Y-116319039D01*
X100768658Y-116298060D01*
X100814858Y-116281530D01*
X100862455Y-116269607D01*
X100910991Y-116262408D01*
X100960000Y-116260000D01*
X101960000Y-116260000D01*
X102009009Y-116262408D01*
G37*
G04 #@! TD.AperFunction*
G04 #@! TA.AperFunction,ComponentPad*
G36*
X104549009Y-116262408D02*
G01*
X104597545Y-116269607D01*
X104645142Y-116281530D01*
X104691342Y-116298060D01*
X104735698Y-116319039D01*
X104777785Y-116344265D01*
X104817197Y-116373495D01*
X104853553Y-116406447D01*
X104886505Y-116442803D01*
X104915735Y-116482215D01*
X104940961Y-116524302D01*
X104961940Y-116568658D01*
X104978470Y-116614858D01*
X104990393Y-116662455D01*
X104997592Y-116710991D01*
X105000000Y-116760000D01*
X105000000Y-117760000D01*
X104997592Y-117809009D01*
X104990393Y-117857545D01*
X104978470Y-117905142D01*
X104961940Y-117951342D01*
X104940961Y-117995698D01*
X104915735Y-118037785D01*
X104886505Y-118077197D01*
X104853553Y-118113553D01*
X104817197Y-118146505D01*
X104777785Y-118175735D01*
X104735698Y-118200961D01*
X104691342Y-118221940D01*
X104645142Y-118238470D01*
X104597545Y-118250393D01*
X104549009Y-118257592D01*
X104500000Y-118260000D01*
X103500000Y-118260000D01*
X103450991Y-118257592D01*
X103402455Y-118250393D01*
X103354858Y-118238470D01*
X103308658Y-118221940D01*
X103264302Y-118200961D01*
X103222215Y-118175735D01*
X103182803Y-118146505D01*
X103146447Y-118113553D01*
X103113495Y-118077197D01*
X103084265Y-118037785D01*
X103059039Y-117995698D01*
X103038060Y-117951342D01*
X103021530Y-117905142D01*
X103009607Y-117857545D01*
X103002408Y-117809009D01*
X103000000Y-117760000D01*
X103000000Y-116760000D01*
X103002408Y-116710991D01*
X103009607Y-116662455D01*
X103021530Y-116614858D01*
X103038060Y-116568658D01*
X103059039Y-116524302D01*
X103084265Y-116482215D01*
X103113495Y-116442803D01*
X103146447Y-116406447D01*
X103182803Y-116373495D01*
X103222215Y-116344265D01*
X103264302Y-116319039D01*
X103308658Y-116298060D01*
X103354858Y-116281530D01*
X103402455Y-116269607D01*
X103450991Y-116262408D01*
X103500000Y-116260000D01*
X104500000Y-116260000D01*
X104549009Y-116262408D01*
G37*
G04 #@! TD.AperFunction*
G04 #@! TA.AperFunction,ComponentPad*
G36*
X102009009Y-113722408D02*
G01*
X102057545Y-113729607D01*
X102105142Y-113741530D01*
X102151342Y-113758060D01*
X102195698Y-113779039D01*
X102237785Y-113804265D01*
X102277197Y-113833495D01*
X102313553Y-113866447D01*
X102346505Y-113902803D01*
X102375735Y-113942215D01*
X102400961Y-113984302D01*
X102421940Y-114028658D01*
X102438470Y-114074858D01*
X102450393Y-114122455D01*
X102457592Y-114170991D01*
X102460000Y-114220000D01*
X102460000Y-115220000D01*
X102457592Y-115269009D01*
X102450393Y-115317545D01*
X102438470Y-115365142D01*
X102421940Y-115411342D01*
X102400961Y-115455698D01*
X102375735Y-115497785D01*
X102346505Y-115537197D01*
X102313553Y-115573553D01*
X102277197Y-115606505D01*
X102237785Y-115635735D01*
X102195698Y-115660961D01*
X102151342Y-115681940D01*
X102105142Y-115698470D01*
X102057545Y-115710393D01*
X102009009Y-115717592D01*
X101960000Y-115720000D01*
X100960000Y-115720000D01*
X100910991Y-115717592D01*
X100862455Y-115710393D01*
X100814858Y-115698470D01*
X100768658Y-115681940D01*
X100724302Y-115660961D01*
X100682215Y-115635735D01*
X100642803Y-115606505D01*
X100606447Y-115573553D01*
X100573495Y-115537197D01*
X100544265Y-115497785D01*
X100519039Y-115455698D01*
X100498060Y-115411342D01*
X100481530Y-115365142D01*
X100469607Y-115317545D01*
X100462408Y-115269009D01*
X100460000Y-115220000D01*
X100460000Y-114220000D01*
X100462408Y-114170991D01*
X100469607Y-114122455D01*
X100481530Y-114074858D01*
X100498060Y-114028658D01*
X100519039Y-113984302D01*
X100544265Y-113942215D01*
X100573495Y-113902803D01*
X100606447Y-113866447D01*
X100642803Y-113833495D01*
X100682215Y-113804265D01*
X100724302Y-113779039D01*
X100768658Y-113758060D01*
X100814858Y-113741530D01*
X100862455Y-113729607D01*
X100910991Y-113722408D01*
X100960000Y-113720000D01*
X101960000Y-113720000D01*
X102009009Y-113722408D01*
G37*
G04 #@! TD.AperFunction*
G04 #@! TA.AperFunction,ComponentPad*
G36*
X104549009Y-113722408D02*
G01*
X104597545Y-113729607D01*
X104645142Y-113741530D01*
X104691342Y-113758060D01*
X104735698Y-113779039D01*
X104777785Y-113804265D01*
X104817197Y-113833495D01*
X104853553Y-113866447D01*
X104886505Y-113902803D01*
X104915735Y-113942215D01*
X104940961Y-113984302D01*
X104961940Y-114028658D01*
X104978470Y-114074858D01*
X104990393Y-114122455D01*
X104997592Y-114170991D01*
X105000000Y-114220000D01*
X105000000Y-115220000D01*
X104997592Y-115269009D01*
X104990393Y-115317545D01*
X104978470Y-115365142D01*
X104961940Y-115411342D01*
X104940961Y-115455698D01*
X104915735Y-115497785D01*
X104886505Y-115537197D01*
X104853553Y-115573553D01*
X104817197Y-115606505D01*
X104777785Y-115635735D01*
X104735698Y-115660961D01*
X104691342Y-115681940D01*
X104645142Y-115698470D01*
X104597545Y-115710393D01*
X104549009Y-115717592D01*
X104500000Y-115720000D01*
X103500000Y-115720000D01*
X103450991Y-115717592D01*
X103402455Y-115710393D01*
X103354858Y-115698470D01*
X103308658Y-115681940D01*
X103264302Y-115660961D01*
X103222215Y-115635735D01*
X103182803Y-115606505D01*
X103146447Y-115573553D01*
X103113495Y-115537197D01*
X103084265Y-115497785D01*
X103059039Y-115455698D01*
X103038060Y-115411342D01*
X103021530Y-115365142D01*
X103009607Y-115317545D01*
X103002408Y-115269009D01*
X103000000Y-115220000D01*
X103000000Y-114220000D01*
X103002408Y-114170991D01*
X103009607Y-114122455D01*
X103021530Y-114074858D01*
X103038060Y-114028658D01*
X103059039Y-113984302D01*
X103084265Y-113942215D01*
X103113495Y-113902803D01*
X103146447Y-113866447D01*
X103182803Y-113833495D01*
X103222215Y-113804265D01*
X103264302Y-113779039D01*
X103308658Y-113758060D01*
X103354858Y-113741530D01*
X103402455Y-113729607D01*
X103450991Y-113722408D01*
X103500000Y-113720000D01*
X104500000Y-113720000D01*
X104549009Y-113722408D01*
G37*
G04 #@! TD.AperFunction*
G04 #@! TA.AperFunction,ComponentPad*
G36*
X102009009Y-111182408D02*
G01*
X102057545Y-111189607D01*
X102105142Y-111201530D01*
X102151342Y-111218060D01*
X102195698Y-111239039D01*
X102237785Y-111264265D01*
X102277197Y-111293495D01*
X102313553Y-111326447D01*
X102346505Y-111362803D01*
X102375735Y-111402215D01*
X102400961Y-111444302D01*
X102421940Y-111488658D01*
X102438470Y-111534858D01*
X102450393Y-111582455D01*
X102457592Y-111630991D01*
X102460000Y-111680000D01*
X102460000Y-112680000D01*
X102457592Y-112729009D01*
X102450393Y-112777545D01*
X102438470Y-112825142D01*
X102421940Y-112871342D01*
X102400961Y-112915698D01*
X102375735Y-112957785D01*
X102346505Y-112997197D01*
X102313553Y-113033553D01*
X102277197Y-113066505D01*
X102237785Y-113095735D01*
X102195698Y-113120961D01*
X102151342Y-113141940D01*
X102105142Y-113158470D01*
X102057545Y-113170393D01*
X102009009Y-113177592D01*
X101960000Y-113180000D01*
X100960000Y-113180000D01*
X100910991Y-113177592D01*
X100862455Y-113170393D01*
X100814858Y-113158470D01*
X100768658Y-113141940D01*
X100724302Y-113120961D01*
X100682215Y-113095735D01*
X100642803Y-113066505D01*
X100606447Y-113033553D01*
X100573495Y-112997197D01*
X100544265Y-112957785D01*
X100519039Y-112915698D01*
X100498060Y-112871342D01*
X100481530Y-112825142D01*
X100469607Y-112777545D01*
X100462408Y-112729009D01*
X100460000Y-112680000D01*
X100460000Y-111680000D01*
X100462408Y-111630991D01*
X100469607Y-111582455D01*
X100481530Y-111534858D01*
X100498060Y-111488658D01*
X100519039Y-111444302D01*
X100544265Y-111402215D01*
X100573495Y-111362803D01*
X100606447Y-111326447D01*
X100642803Y-111293495D01*
X100682215Y-111264265D01*
X100724302Y-111239039D01*
X100768658Y-111218060D01*
X100814858Y-111201530D01*
X100862455Y-111189607D01*
X100910991Y-111182408D01*
X100960000Y-111180000D01*
X101960000Y-111180000D01*
X102009009Y-111182408D01*
G37*
G04 #@! TD.AperFunction*
G04 #@! TA.AperFunction,ComponentPad*
G36*
X104549009Y-111182408D02*
G01*
X104597545Y-111189607D01*
X104645142Y-111201530D01*
X104691342Y-111218060D01*
X104735698Y-111239039D01*
X104777785Y-111264265D01*
X104817197Y-111293495D01*
X104853553Y-111326447D01*
X104886505Y-111362803D01*
X104915735Y-111402215D01*
X104940961Y-111444302D01*
X104961940Y-111488658D01*
X104978470Y-111534858D01*
X104990393Y-111582455D01*
X104997592Y-111630991D01*
X105000000Y-111680000D01*
X105000000Y-112680000D01*
X104997592Y-112729009D01*
X104990393Y-112777545D01*
X104978470Y-112825142D01*
X104961940Y-112871342D01*
X104940961Y-112915698D01*
X104915735Y-112957785D01*
X104886505Y-112997197D01*
X104853553Y-113033553D01*
X104817197Y-113066505D01*
X104777785Y-113095735D01*
X104735698Y-113120961D01*
X104691342Y-113141940D01*
X104645142Y-113158470D01*
X104597545Y-113170393D01*
X104549009Y-113177592D01*
X104500000Y-113180000D01*
X103500000Y-113180000D01*
X103450991Y-113177592D01*
X103402455Y-113170393D01*
X103354858Y-113158470D01*
X103308658Y-113141940D01*
X103264302Y-113120961D01*
X103222215Y-113095735D01*
X103182803Y-113066505D01*
X103146447Y-113033553D01*
X103113495Y-112997197D01*
X103084265Y-112957785D01*
X103059039Y-112915698D01*
X103038060Y-112871342D01*
X103021530Y-112825142D01*
X103009607Y-112777545D01*
X103002408Y-112729009D01*
X103000000Y-112680000D01*
X103000000Y-111680000D01*
X103002408Y-111630991D01*
X103009607Y-111582455D01*
X103021530Y-111534858D01*
X103038060Y-111488658D01*
X103059039Y-111444302D01*
X103084265Y-111402215D01*
X103113495Y-111362803D01*
X103146447Y-111326447D01*
X103182803Y-111293495D01*
X103222215Y-111264265D01*
X103264302Y-111239039D01*
X103308658Y-111218060D01*
X103354858Y-111201530D01*
X103402455Y-111189607D01*
X103450991Y-111182408D01*
X103500000Y-111180000D01*
X104500000Y-111180000D01*
X104549009Y-111182408D01*
G37*
G04 #@! TD.AperFunction*
G04 #@! TA.AperFunction,ComponentPad*
G36*
X102009009Y-108642408D02*
G01*
X102057545Y-108649607D01*
X102105142Y-108661530D01*
X102151342Y-108678060D01*
X102195698Y-108699039D01*
X102237785Y-108724265D01*
X102277197Y-108753495D01*
X102313553Y-108786447D01*
X102346505Y-108822803D01*
X102375735Y-108862215D01*
X102400961Y-108904302D01*
X102421940Y-108948658D01*
X102438470Y-108994858D01*
X102450393Y-109042455D01*
X102457592Y-109090991D01*
X102460000Y-109140000D01*
X102460000Y-110140000D01*
X102457592Y-110189009D01*
X102450393Y-110237545D01*
X102438470Y-110285142D01*
X102421940Y-110331342D01*
X102400961Y-110375698D01*
X102375735Y-110417785D01*
X102346505Y-110457197D01*
X102313553Y-110493553D01*
X102277197Y-110526505D01*
X102237785Y-110555735D01*
X102195698Y-110580961D01*
X102151342Y-110601940D01*
X102105142Y-110618470D01*
X102057545Y-110630393D01*
X102009009Y-110637592D01*
X101960000Y-110640000D01*
X100960000Y-110640000D01*
X100910991Y-110637592D01*
X100862455Y-110630393D01*
X100814858Y-110618470D01*
X100768658Y-110601940D01*
X100724302Y-110580961D01*
X100682215Y-110555735D01*
X100642803Y-110526505D01*
X100606447Y-110493553D01*
X100573495Y-110457197D01*
X100544265Y-110417785D01*
X100519039Y-110375698D01*
X100498060Y-110331342D01*
X100481530Y-110285142D01*
X100469607Y-110237545D01*
X100462408Y-110189009D01*
X100460000Y-110140000D01*
X100460000Y-109140000D01*
X100462408Y-109090991D01*
X100469607Y-109042455D01*
X100481530Y-108994858D01*
X100498060Y-108948658D01*
X100519039Y-108904302D01*
X100544265Y-108862215D01*
X100573495Y-108822803D01*
X100606447Y-108786447D01*
X100642803Y-108753495D01*
X100682215Y-108724265D01*
X100724302Y-108699039D01*
X100768658Y-108678060D01*
X100814858Y-108661530D01*
X100862455Y-108649607D01*
X100910991Y-108642408D01*
X100960000Y-108640000D01*
X101960000Y-108640000D01*
X102009009Y-108642408D01*
G37*
G04 #@! TD.AperFunction*
G04 #@! TA.AperFunction,ComponentPad*
G36*
X104549009Y-108642408D02*
G01*
X104597545Y-108649607D01*
X104645142Y-108661530D01*
X104691342Y-108678060D01*
X104735698Y-108699039D01*
X104777785Y-108724265D01*
X104817197Y-108753495D01*
X104853553Y-108786447D01*
X104886505Y-108822803D01*
X104915735Y-108862215D01*
X104940961Y-108904302D01*
X104961940Y-108948658D01*
X104978470Y-108994858D01*
X104990393Y-109042455D01*
X104997592Y-109090991D01*
X105000000Y-109140000D01*
X105000000Y-110140000D01*
X104997592Y-110189009D01*
X104990393Y-110237545D01*
X104978470Y-110285142D01*
X104961940Y-110331342D01*
X104940961Y-110375698D01*
X104915735Y-110417785D01*
X104886505Y-110457197D01*
X104853553Y-110493553D01*
X104817197Y-110526505D01*
X104777785Y-110555735D01*
X104735698Y-110580961D01*
X104691342Y-110601940D01*
X104645142Y-110618470D01*
X104597545Y-110630393D01*
X104549009Y-110637592D01*
X104500000Y-110640000D01*
X103500000Y-110640000D01*
X103450991Y-110637592D01*
X103402455Y-110630393D01*
X103354858Y-110618470D01*
X103308658Y-110601940D01*
X103264302Y-110580961D01*
X103222215Y-110555735D01*
X103182803Y-110526505D01*
X103146447Y-110493553D01*
X103113495Y-110457197D01*
X103084265Y-110417785D01*
X103059039Y-110375698D01*
X103038060Y-110331342D01*
X103021530Y-110285142D01*
X103009607Y-110237545D01*
X103002408Y-110189009D01*
X103000000Y-110140000D01*
X103000000Y-109140000D01*
X103002408Y-109090991D01*
X103009607Y-109042455D01*
X103021530Y-108994858D01*
X103038060Y-108948658D01*
X103059039Y-108904302D01*
X103084265Y-108862215D01*
X103113495Y-108822803D01*
X103146447Y-108786447D01*
X103182803Y-108753495D01*
X103222215Y-108724265D01*
X103264302Y-108699039D01*
X103308658Y-108678060D01*
X103354858Y-108661530D01*
X103402455Y-108649607D01*
X103450991Y-108642408D01*
X103500000Y-108640000D01*
X104500000Y-108640000D01*
X104549009Y-108642408D01*
G37*
G04 #@! TD.AperFunction*
G04 #@! TA.AperFunction,ComponentPad*
G36*
X102009009Y-106102408D02*
G01*
X102057545Y-106109607D01*
X102105142Y-106121530D01*
X102151342Y-106138060D01*
X102195698Y-106159039D01*
X102237785Y-106184265D01*
X102277197Y-106213495D01*
X102313553Y-106246447D01*
X102346505Y-106282803D01*
X102375735Y-106322215D01*
X102400961Y-106364302D01*
X102421940Y-106408658D01*
X102438470Y-106454858D01*
X102450393Y-106502455D01*
X102457592Y-106550991D01*
X102460000Y-106600000D01*
X102460000Y-107600000D01*
X102457592Y-107649009D01*
X102450393Y-107697545D01*
X102438470Y-107745142D01*
X102421940Y-107791342D01*
X102400961Y-107835698D01*
X102375735Y-107877785D01*
X102346505Y-107917197D01*
X102313553Y-107953553D01*
X102277197Y-107986505D01*
X102237785Y-108015735D01*
X102195698Y-108040961D01*
X102151342Y-108061940D01*
X102105142Y-108078470D01*
X102057545Y-108090393D01*
X102009009Y-108097592D01*
X101960000Y-108100000D01*
X100960000Y-108100000D01*
X100910991Y-108097592D01*
X100862455Y-108090393D01*
X100814858Y-108078470D01*
X100768658Y-108061940D01*
X100724302Y-108040961D01*
X100682215Y-108015735D01*
X100642803Y-107986505D01*
X100606447Y-107953553D01*
X100573495Y-107917197D01*
X100544265Y-107877785D01*
X100519039Y-107835698D01*
X100498060Y-107791342D01*
X100481530Y-107745142D01*
X100469607Y-107697545D01*
X100462408Y-107649009D01*
X100460000Y-107600000D01*
X100460000Y-106600000D01*
X100462408Y-106550991D01*
X100469607Y-106502455D01*
X100481530Y-106454858D01*
X100498060Y-106408658D01*
X100519039Y-106364302D01*
X100544265Y-106322215D01*
X100573495Y-106282803D01*
X100606447Y-106246447D01*
X100642803Y-106213495D01*
X100682215Y-106184265D01*
X100724302Y-106159039D01*
X100768658Y-106138060D01*
X100814858Y-106121530D01*
X100862455Y-106109607D01*
X100910991Y-106102408D01*
X100960000Y-106100000D01*
X101960000Y-106100000D01*
X102009009Y-106102408D01*
G37*
G04 #@! TD.AperFunction*
G04 #@! TA.AperFunction,ComponentPad*
G36*
X104549009Y-106102408D02*
G01*
X104597545Y-106109607D01*
X104645142Y-106121530D01*
X104691342Y-106138060D01*
X104735698Y-106159039D01*
X104777785Y-106184265D01*
X104817197Y-106213495D01*
X104853553Y-106246447D01*
X104886505Y-106282803D01*
X104915735Y-106322215D01*
X104940961Y-106364302D01*
X104961940Y-106408658D01*
X104978470Y-106454858D01*
X104990393Y-106502455D01*
X104997592Y-106550991D01*
X105000000Y-106600000D01*
X105000000Y-107600000D01*
X104997592Y-107649009D01*
X104990393Y-107697545D01*
X104978470Y-107745142D01*
X104961940Y-107791342D01*
X104940961Y-107835698D01*
X104915735Y-107877785D01*
X104886505Y-107917197D01*
X104853553Y-107953553D01*
X104817197Y-107986505D01*
X104777785Y-108015735D01*
X104735698Y-108040961D01*
X104691342Y-108061940D01*
X104645142Y-108078470D01*
X104597545Y-108090393D01*
X104549009Y-108097592D01*
X104500000Y-108100000D01*
X103500000Y-108100000D01*
X103450991Y-108097592D01*
X103402455Y-108090393D01*
X103354858Y-108078470D01*
X103308658Y-108061940D01*
X103264302Y-108040961D01*
X103222215Y-108015735D01*
X103182803Y-107986505D01*
X103146447Y-107953553D01*
X103113495Y-107917197D01*
X103084265Y-107877785D01*
X103059039Y-107835698D01*
X103038060Y-107791342D01*
X103021530Y-107745142D01*
X103009607Y-107697545D01*
X103002408Y-107649009D01*
X103000000Y-107600000D01*
X103000000Y-106600000D01*
X103002408Y-106550991D01*
X103009607Y-106502455D01*
X103021530Y-106454858D01*
X103038060Y-106408658D01*
X103059039Y-106364302D01*
X103084265Y-106322215D01*
X103113495Y-106282803D01*
X103146447Y-106246447D01*
X103182803Y-106213495D01*
X103222215Y-106184265D01*
X103264302Y-106159039D01*
X103308658Y-106138060D01*
X103354858Y-106121530D01*
X103402455Y-106109607D01*
X103450991Y-106102408D01*
X103500000Y-106100000D01*
X104500000Y-106100000D01*
X104549009Y-106102408D01*
G37*
G04 #@! TD.AperFunction*
G04 #@! TA.AperFunction,ComponentPad*
G36*
X102009009Y-103562408D02*
G01*
X102057545Y-103569607D01*
X102105142Y-103581530D01*
X102151342Y-103598060D01*
X102195698Y-103619039D01*
X102237785Y-103644265D01*
X102277197Y-103673495D01*
X102313553Y-103706447D01*
X102346505Y-103742803D01*
X102375735Y-103782215D01*
X102400961Y-103824302D01*
X102421940Y-103868658D01*
X102438470Y-103914858D01*
X102450393Y-103962455D01*
X102457592Y-104010991D01*
X102460000Y-104060000D01*
X102460000Y-105060000D01*
X102457592Y-105109009D01*
X102450393Y-105157545D01*
X102438470Y-105205142D01*
X102421940Y-105251342D01*
X102400961Y-105295698D01*
X102375735Y-105337785D01*
X102346505Y-105377197D01*
X102313553Y-105413553D01*
X102277197Y-105446505D01*
X102237785Y-105475735D01*
X102195698Y-105500961D01*
X102151342Y-105521940D01*
X102105142Y-105538470D01*
X102057545Y-105550393D01*
X102009009Y-105557592D01*
X101960000Y-105560000D01*
X100960000Y-105560000D01*
X100910991Y-105557592D01*
X100862455Y-105550393D01*
X100814858Y-105538470D01*
X100768658Y-105521940D01*
X100724302Y-105500961D01*
X100682215Y-105475735D01*
X100642803Y-105446505D01*
X100606447Y-105413553D01*
X100573495Y-105377197D01*
X100544265Y-105337785D01*
X100519039Y-105295698D01*
X100498060Y-105251342D01*
X100481530Y-105205142D01*
X100469607Y-105157545D01*
X100462408Y-105109009D01*
X100460000Y-105060000D01*
X100460000Y-104060000D01*
X100462408Y-104010991D01*
X100469607Y-103962455D01*
X100481530Y-103914858D01*
X100498060Y-103868658D01*
X100519039Y-103824302D01*
X100544265Y-103782215D01*
X100573495Y-103742803D01*
X100606447Y-103706447D01*
X100642803Y-103673495D01*
X100682215Y-103644265D01*
X100724302Y-103619039D01*
X100768658Y-103598060D01*
X100814858Y-103581530D01*
X100862455Y-103569607D01*
X100910991Y-103562408D01*
X100960000Y-103560000D01*
X101960000Y-103560000D01*
X102009009Y-103562408D01*
G37*
G04 #@! TD.AperFunction*
G04 #@! TA.AperFunction,ComponentPad*
G36*
X104549009Y-103562408D02*
G01*
X104597545Y-103569607D01*
X104645142Y-103581530D01*
X104691342Y-103598060D01*
X104735698Y-103619039D01*
X104777785Y-103644265D01*
X104817197Y-103673495D01*
X104853553Y-103706447D01*
X104886505Y-103742803D01*
X104915735Y-103782215D01*
X104940961Y-103824302D01*
X104961940Y-103868658D01*
X104978470Y-103914858D01*
X104990393Y-103962455D01*
X104997592Y-104010991D01*
X105000000Y-104060000D01*
X105000000Y-105060000D01*
X104997592Y-105109009D01*
X104990393Y-105157545D01*
X104978470Y-105205142D01*
X104961940Y-105251342D01*
X104940961Y-105295698D01*
X104915735Y-105337785D01*
X104886505Y-105377197D01*
X104853553Y-105413553D01*
X104817197Y-105446505D01*
X104777785Y-105475735D01*
X104735698Y-105500961D01*
X104691342Y-105521940D01*
X104645142Y-105538470D01*
X104597545Y-105550393D01*
X104549009Y-105557592D01*
X104500000Y-105560000D01*
X103500000Y-105560000D01*
X103450991Y-105557592D01*
X103402455Y-105550393D01*
X103354858Y-105538470D01*
X103308658Y-105521940D01*
X103264302Y-105500961D01*
X103222215Y-105475735D01*
X103182803Y-105446505D01*
X103146447Y-105413553D01*
X103113495Y-105377197D01*
X103084265Y-105337785D01*
X103059039Y-105295698D01*
X103038060Y-105251342D01*
X103021530Y-105205142D01*
X103009607Y-105157545D01*
X103002408Y-105109009D01*
X103000000Y-105060000D01*
X103000000Y-104060000D01*
X103002408Y-104010991D01*
X103009607Y-103962455D01*
X103021530Y-103914858D01*
X103038060Y-103868658D01*
X103059039Y-103824302D01*
X103084265Y-103782215D01*
X103113495Y-103742803D01*
X103146447Y-103706447D01*
X103182803Y-103673495D01*
X103222215Y-103644265D01*
X103264302Y-103619039D01*
X103308658Y-103598060D01*
X103354858Y-103581530D01*
X103402455Y-103569607D01*
X103450991Y-103562408D01*
X103500000Y-103560000D01*
X104500000Y-103560000D01*
X104549009Y-103562408D01*
G37*
G04 #@! TD.AperFunction*
G04 #@! TA.AperFunction,ComponentPad*
G36*
X102009009Y-101022408D02*
G01*
X102057545Y-101029607D01*
X102105142Y-101041530D01*
X102151342Y-101058060D01*
X102195698Y-101079039D01*
X102237785Y-101104265D01*
X102277197Y-101133495D01*
X102313553Y-101166447D01*
X102346505Y-101202803D01*
X102375735Y-101242215D01*
X102400961Y-101284302D01*
X102421940Y-101328658D01*
X102438470Y-101374858D01*
X102450393Y-101422455D01*
X102457592Y-101470991D01*
X102460000Y-101520000D01*
X102460000Y-102520000D01*
X102457592Y-102569009D01*
X102450393Y-102617545D01*
X102438470Y-102665142D01*
X102421940Y-102711342D01*
X102400961Y-102755698D01*
X102375735Y-102797785D01*
X102346505Y-102837197D01*
X102313553Y-102873553D01*
X102277197Y-102906505D01*
X102237785Y-102935735D01*
X102195698Y-102960961D01*
X102151342Y-102981940D01*
X102105142Y-102998470D01*
X102057545Y-103010393D01*
X102009009Y-103017592D01*
X101960000Y-103020000D01*
X100960000Y-103020000D01*
X100910991Y-103017592D01*
X100862455Y-103010393D01*
X100814858Y-102998470D01*
X100768658Y-102981940D01*
X100724302Y-102960961D01*
X100682215Y-102935735D01*
X100642803Y-102906505D01*
X100606447Y-102873553D01*
X100573495Y-102837197D01*
X100544265Y-102797785D01*
X100519039Y-102755698D01*
X100498060Y-102711342D01*
X100481530Y-102665142D01*
X100469607Y-102617545D01*
X100462408Y-102569009D01*
X100460000Y-102520000D01*
X100460000Y-101520000D01*
X100462408Y-101470991D01*
X100469607Y-101422455D01*
X100481530Y-101374858D01*
X100498060Y-101328658D01*
X100519039Y-101284302D01*
X100544265Y-101242215D01*
X100573495Y-101202803D01*
X100606447Y-101166447D01*
X100642803Y-101133495D01*
X100682215Y-101104265D01*
X100724302Y-101079039D01*
X100768658Y-101058060D01*
X100814858Y-101041530D01*
X100862455Y-101029607D01*
X100910991Y-101022408D01*
X100960000Y-101020000D01*
X101960000Y-101020000D01*
X102009009Y-101022408D01*
G37*
G04 #@! TD.AperFunction*
G04 #@! TA.AperFunction,ComponentPad*
G36*
X104549009Y-101022408D02*
G01*
X104597545Y-101029607D01*
X104645142Y-101041530D01*
X104691342Y-101058060D01*
X104735698Y-101079039D01*
X104777785Y-101104265D01*
X104817197Y-101133495D01*
X104853553Y-101166447D01*
X104886505Y-101202803D01*
X104915735Y-101242215D01*
X104940961Y-101284302D01*
X104961940Y-101328658D01*
X104978470Y-101374858D01*
X104990393Y-101422455D01*
X104997592Y-101470991D01*
X105000000Y-101520000D01*
X105000000Y-102520000D01*
X104997592Y-102569009D01*
X104990393Y-102617545D01*
X104978470Y-102665142D01*
X104961940Y-102711342D01*
X104940961Y-102755698D01*
X104915735Y-102797785D01*
X104886505Y-102837197D01*
X104853553Y-102873553D01*
X104817197Y-102906505D01*
X104777785Y-102935735D01*
X104735698Y-102960961D01*
X104691342Y-102981940D01*
X104645142Y-102998470D01*
X104597545Y-103010393D01*
X104549009Y-103017592D01*
X104500000Y-103020000D01*
X103500000Y-103020000D01*
X103450991Y-103017592D01*
X103402455Y-103010393D01*
X103354858Y-102998470D01*
X103308658Y-102981940D01*
X103264302Y-102960961D01*
X103222215Y-102935735D01*
X103182803Y-102906505D01*
X103146447Y-102873553D01*
X103113495Y-102837197D01*
X103084265Y-102797785D01*
X103059039Y-102755698D01*
X103038060Y-102711342D01*
X103021530Y-102665142D01*
X103009607Y-102617545D01*
X103002408Y-102569009D01*
X103000000Y-102520000D01*
X103000000Y-101520000D01*
X103002408Y-101470991D01*
X103009607Y-101422455D01*
X103021530Y-101374858D01*
X103038060Y-101328658D01*
X103059039Y-101284302D01*
X103084265Y-101242215D01*
X103113495Y-101202803D01*
X103146447Y-101166447D01*
X103182803Y-101133495D01*
X103222215Y-101104265D01*
X103264302Y-101079039D01*
X103308658Y-101058060D01*
X103354858Y-101041530D01*
X103402455Y-101029607D01*
X103450991Y-101022408D01*
X103500000Y-101020000D01*
X104500000Y-101020000D01*
X104549009Y-101022408D01*
G37*
G04 #@! TD.AperFunction*
G04 #@! TA.AperFunction,ComponentPad*
G36*
X102009009Y-98482408D02*
G01*
X102057545Y-98489607D01*
X102105142Y-98501530D01*
X102151342Y-98518060D01*
X102195698Y-98539039D01*
X102237785Y-98564265D01*
X102277197Y-98593495D01*
X102313553Y-98626447D01*
X102346505Y-98662803D01*
X102375735Y-98702215D01*
X102400961Y-98744302D01*
X102421940Y-98788658D01*
X102438470Y-98834858D01*
X102450393Y-98882455D01*
X102457592Y-98930991D01*
X102460000Y-98980000D01*
X102460000Y-99980000D01*
X102457592Y-100029009D01*
X102450393Y-100077545D01*
X102438470Y-100125142D01*
X102421940Y-100171342D01*
X102400961Y-100215698D01*
X102375735Y-100257785D01*
X102346505Y-100297197D01*
X102313553Y-100333553D01*
X102277197Y-100366505D01*
X102237785Y-100395735D01*
X102195698Y-100420961D01*
X102151342Y-100441940D01*
X102105142Y-100458470D01*
X102057545Y-100470393D01*
X102009009Y-100477592D01*
X101960000Y-100480000D01*
X100960000Y-100480000D01*
X100910991Y-100477592D01*
X100862455Y-100470393D01*
X100814858Y-100458470D01*
X100768658Y-100441940D01*
X100724302Y-100420961D01*
X100682215Y-100395735D01*
X100642803Y-100366505D01*
X100606447Y-100333553D01*
X100573495Y-100297197D01*
X100544265Y-100257785D01*
X100519039Y-100215698D01*
X100498060Y-100171342D01*
X100481530Y-100125142D01*
X100469607Y-100077545D01*
X100462408Y-100029009D01*
X100460000Y-99980000D01*
X100460000Y-98980000D01*
X100462408Y-98930991D01*
X100469607Y-98882455D01*
X100481530Y-98834858D01*
X100498060Y-98788658D01*
X100519039Y-98744302D01*
X100544265Y-98702215D01*
X100573495Y-98662803D01*
X100606447Y-98626447D01*
X100642803Y-98593495D01*
X100682215Y-98564265D01*
X100724302Y-98539039D01*
X100768658Y-98518060D01*
X100814858Y-98501530D01*
X100862455Y-98489607D01*
X100910991Y-98482408D01*
X100960000Y-98480000D01*
X101960000Y-98480000D01*
X102009009Y-98482408D01*
G37*
G04 #@! TD.AperFunction*
G04 #@! TA.AperFunction,ComponentPad*
G36*
X104549009Y-98482408D02*
G01*
X104597545Y-98489607D01*
X104645142Y-98501530D01*
X104691342Y-98518060D01*
X104735698Y-98539039D01*
X104777785Y-98564265D01*
X104817197Y-98593495D01*
X104853553Y-98626447D01*
X104886505Y-98662803D01*
X104915735Y-98702215D01*
X104940961Y-98744302D01*
X104961940Y-98788658D01*
X104978470Y-98834858D01*
X104990393Y-98882455D01*
X104997592Y-98930991D01*
X105000000Y-98980000D01*
X105000000Y-99980000D01*
X104997592Y-100029009D01*
X104990393Y-100077545D01*
X104978470Y-100125142D01*
X104961940Y-100171342D01*
X104940961Y-100215698D01*
X104915735Y-100257785D01*
X104886505Y-100297197D01*
X104853553Y-100333553D01*
X104817197Y-100366505D01*
X104777785Y-100395735D01*
X104735698Y-100420961D01*
X104691342Y-100441940D01*
X104645142Y-100458470D01*
X104597545Y-100470393D01*
X104549009Y-100477592D01*
X104500000Y-100480000D01*
X103500000Y-100480000D01*
X103450991Y-100477592D01*
X103402455Y-100470393D01*
X103354858Y-100458470D01*
X103308658Y-100441940D01*
X103264302Y-100420961D01*
X103222215Y-100395735D01*
X103182803Y-100366505D01*
X103146447Y-100333553D01*
X103113495Y-100297197D01*
X103084265Y-100257785D01*
X103059039Y-100215698D01*
X103038060Y-100171342D01*
X103021530Y-100125142D01*
X103009607Y-100077545D01*
X103002408Y-100029009D01*
X103000000Y-99980000D01*
X103000000Y-98980000D01*
X103002408Y-98930991D01*
X103009607Y-98882455D01*
X103021530Y-98834858D01*
X103038060Y-98788658D01*
X103059039Y-98744302D01*
X103084265Y-98702215D01*
X103113495Y-98662803D01*
X103146447Y-98626447D01*
X103182803Y-98593495D01*
X103222215Y-98564265D01*
X103264302Y-98539039D01*
X103308658Y-98518060D01*
X103354858Y-98501530D01*
X103402455Y-98489607D01*
X103450991Y-98482408D01*
X103500000Y-98480000D01*
X104500000Y-98480000D01*
X104549009Y-98482408D01*
G37*
G04 #@! TD.AperFunction*
G04 #@! TA.AperFunction,ComponentPad*
G36*
X102009009Y-95942408D02*
G01*
X102057545Y-95949607D01*
X102105142Y-95961530D01*
X102151342Y-95978060D01*
X102195698Y-95999039D01*
X102237785Y-96024265D01*
X102277197Y-96053495D01*
X102313553Y-96086447D01*
X102346505Y-96122803D01*
X102375735Y-96162215D01*
X102400961Y-96204302D01*
X102421940Y-96248658D01*
X102438470Y-96294858D01*
X102450393Y-96342455D01*
X102457592Y-96390991D01*
X102460000Y-96440000D01*
X102460000Y-97440000D01*
X102457592Y-97489009D01*
X102450393Y-97537545D01*
X102438470Y-97585142D01*
X102421940Y-97631342D01*
X102400961Y-97675698D01*
X102375735Y-97717785D01*
X102346505Y-97757197D01*
X102313553Y-97793553D01*
X102277197Y-97826505D01*
X102237785Y-97855735D01*
X102195698Y-97880961D01*
X102151342Y-97901940D01*
X102105142Y-97918470D01*
X102057545Y-97930393D01*
X102009009Y-97937592D01*
X101960000Y-97940000D01*
X100960000Y-97940000D01*
X100910991Y-97937592D01*
X100862455Y-97930393D01*
X100814858Y-97918470D01*
X100768658Y-97901940D01*
X100724302Y-97880961D01*
X100682215Y-97855735D01*
X100642803Y-97826505D01*
X100606447Y-97793553D01*
X100573495Y-97757197D01*
X100544265Y-97717785D01*
X100519039Y-97675698D01*
X100498060Y-97631342D01*
X100481530Y-97585142D01*
X100469607Y-97537545D01*
X100462408Y-97489009D01*
X100460000Y-97440000D01*
X100460000Y-96440000D01*
X100462408Y-96390991D01*
X100469607Y-96342455D01*
X100481530Y-96294858D01*
X100498060Y-96248658D01*
X100519039Y-96204302D01*
X100544265Y-96162215D01*
X100573495Y-96122803D01*
X100606447Y-96086447D01*
X100642803Y-96053495D01*
X100682215Y-96024265D01*
X100724302Y-95999039D01*
X100768658Y-95978060D01*
X100814858Y-95961530D01*
X100862455Y-95949607D01*
X100910991Y-95942408D01*
X100960000Y-95940000D01*
X101960000Y-95940000D01*
X102009009Y-95942408D01*
G37*
G04 #@! TD.AperFunction*
G04 #@! TA.AperFunction,ComponentPad*
G36*
X104549009Y-95942408D02*
G01*
X104597545Y-95949607D01*
X104645142Y-95961530D01*
X104691342Y-95978060D01*
X104735698Y-95999039D01*
X104777785Y-96024265D01*
X104817197Y-96053495D01*
X104853553Y-96086447D01*
X104886505Y-96122803D01*
X104915735Y-96162215D01*
X104940961Y-96204302D01*
X104961940Y-96248658D01*
X104978470Y-96294858D01*
X104990393Y-96342455D01*
X104997592Y-96390991D01*
X105000000Y-96440000D01*
X105000000Y-97440000D01*
X104997592Y-97489009D01*
X104990393Y-97537545D01*
X104978470Y-97585142D01*
X104961940Y-97631342D01*
X104940961Y-97675698D01*
X104915735Y-97717785D01*
X104886505Y-97757197D01*
X104853553Y-97793553D01*
X104817197Y-97826505D01*
X104777785Y-97855735D01*
X104735698Y-97880961D01*
X104691342Y-97901940D01*
X104645142Y-97918470D01*
X104597545Y-97930393D01*
X104549009Y-97937592D01*
X104500000Y-97940000D01*
X103500000Y-97940000D01*
X103450991Y-97937592D01*
X103402455Y-97930393D01*
X103354858Y-97918470D01*
X103308658Y-97901940D01*
X103264302Y-97880961D01*
X103222215Y-97855735D01*
X103182803Y-97826505D01*
X103146447Y-97793553D01*
X103113495Y-97757197D01*
X103084265Y-97717785D01*
X103059039Y-97675698D01*
X103038060Y-97631342D01*
X103021530Y-97585142D01*
X103009607Y-97537545D01*
X103002408Y-97489009D01*
X103000000Y-97440000D01*
X103000000Y-96440000D01*
X103002408Y-96390991D01*
X103009607Y-96342455D01*
X103021530Y-96294858D01*
X103038060Y-96248658D01*
X103059039Y-96204302D01*
X103084265Y-96162215D01*
X103113495Y-96122803D01*
X103146447Y-96086447D01*
X103182803Y-96053495D01*
X103222215Y-96024265D01*
X103264302Y-95999039D01*
X103308658Y-95978060D01*
X103354858Y-95961530D01*
X103402455Y-95949607D01*
X103450991Y-95942408D01*
X103500000Y-95940000D01*
X104500000Y-95940000D01*
X104549009Y-95942408D01*
G37*
G04 #@! TD.AperFunction*
G04 #@! TA.AperFunction,ComponentPad*
G36*
X102009009Y-93402408D02*
G01*
X102057545Y-93409607D01*
X102105142Y-93421530D01*
X102151342Y-93438060D01*
X102195698Y-93459039D01*
X102237785Y-93484265D01*
X102277197Y-93513495D01*
X102313553Y-93546447D01*
X102346505Y-93582803D01*
X102375735Y-93622215D01*
X102400961Y-93664302D01*
X102421940Y-93708658D01*
X102438470Y-93754858D01*
X102450393Y-93802455D01*
X102457592Y-93850991D01*
X102460000Y-93900000D01*
X102460000Y-94900000D01*
X102457592Y-94949009D01*
X102450393Y-94997545D01*
X102438470Y-95045142D01*
X102421940Y-95091342D01*
X102400961Y-95135698D01*
X102375735Y-95177785D01*
X102346505Y-95217197D01*
X102313553Y-95253553D01*
X102277197Y-95286505D01*
X102237785Y-95315735D01*
X102195698Y-95340961D01*
X102151342Y-95361940D01*
X102105142Y-95378470D01*
X102057545Y-95390393D01*
X102009009Y-95397592D01*
X101960000Y-95400000D01*
X100960000Y-95400000D01*
X100910991Y-95397592D01*
X100862455Y-95390393D01*
X100814858Y-95378470D01*
X100768658Y-95361940D01*
X100724302Y-95340961D01*
X100682215Y-95315735D01*
X100642803Y-95286505D01*
X100606447Y-95253553D01*
X100573495Y-95217197D01*
X100544265Y-95177785D01*
X100519039Y-95135698D01*
X100498060Y-95091342D01*
X100481530Y-95045142D01*
X100469607Y-94997545D01*
X100462408Y-94949009D01*
X100460000Y-94900000D01*
X100460000Y-93900000D01*
X100462408Y-93850991D01*
X100469607Y-93802455D01*
X100481530Y-93754858D01*
X100498060Y-93708658D01*
X100519039Y-93664302D01*
X100544265Y-93622215D01*
X100573495Y-93582803D01*
X100606447Y-93546447D01*
X100642803Y-93513495D01*
X100682215Y-93484265D01*
X100724302Y-93459039D01*
X100768658Y-93438060D01*
X100814858Y-93421530D01*
X100862455Y-93409607D01*
X100910991Y-93402408D01*
X100960000Y-93400000D01*
X101960000Y-93400000D01*
X102009009Y-93402408D01*
G37*
G04 #@! TD.AperFunction*
G04 #@! TA.AperFunction,ComponentPad*
G36*
X104549009Y-93402408D02*
G01*
X104597545Y-93409607D01*
X104645142Y-93421530D01*
X104691342Y-93438060D01*
X104735698Y-93459039D01*
X104777785Y-93484265D01*
X104817197Y-93513495D01*
X104853553Y-93546447D01*
X104886505Y-93582803D01*
X104915735Y-93622215D01*
X104940961Y-93664302D01*
X104961940Y-93708658D01*
X104978470Y-93754858D01*
X104990393Y-93802455D01*
X104997592Y-93850991D01*
X105000000Y-93900000D01*
X105000000Y-94900000D01*
X104997592Y-94949009D01*
X104990393Y-94997545D01*
X104978470Y-95045142D01*
X104961940Y-95091342D01*
X104940961Y-95135698D01*
X104915735Y-95177785D01*
X104886505Y-95217197D01*
X104853553Y-95253553D01*
X104817197Y-95286505D01*
X104777785Y-95315735D01*
X104735698Y-95340961D01*
X104691342Y-95361940D01*
X104645142Y-95378470D01*
X104597545Y-95390393D01*
X104549009Y-95397592D01*
X104500000Y-95400000D01*
X103500000Y-95400000D01*
X103450991Y-95397592D01*
X103402455Y-95390393D01*
X103354858Y-95378470D01*
X103308658Y-95361940D01*
X103264302Y-95340961D01*
X103222215Y-95315735D01*
X103182803Y-95286505D01*
X103146447Y-95253553D01*
X103113495Y-95217197D01*
X103084265Y-95177785D01*
X103059039Y-95135698D01*
X103038060Y-95091342D01*
X103021530Y-95045142D01*
X103009607Y-94997545D01*
X103002408Y-94949009D01*
X103000000Y-94900000D01*
X103000000Y-93900000D01*
X103002408Y-93850991D01*
X103009607Y-93802455D01*
X103021530Y-93754858D01*
X103038060Y-93708658D01*
X103059039Y-93664302D01*
X103084265Y-93622215D01*
X103113495Y-93582803D01*
X103146447Y-93546447D01*
X103182803Y-93513495D01*
X103222215Y-93484265D01*
X103264302Y-93459039D01*
X103308658Y-93438060D01*
X103354858Y-93421530D01*
X103402455Y-93409607D01*
X103450991Y-93402408D01*
X103500000Y-93400000D01*
X104500000Y-93400000D01*
X104549009Y-93402408D01*
G37*
G04 #@! TD.AperFunction*
G04 #@! TA.AperFunction,ComponentPad*
G36*
X102009009Y-90862408D02*
G01*
X102057545Y-90869607D01*
X102105142Y-90881530D01*
X102151342Y-90898060D01*
X102195698Y-90919039D01*
X102237785Y-90944265D01*
X102277197Y-90973495D01*
X102313553Y-91006447D01*
X102346505Y-91042803D01*
X102375735Y-91082215D01*
X102400961Y-91124302D01*
X102421940Y-91168658D01*
X102438470Y-91214858D01*
X102450393Y-91262455D01*
X102457592Y-91310991D01*
X102460000Y-91360000D01*
X102460000Y-92360000D01*
X102457592Y-92409009D01*
X102450393Y-92457545D01*
X102438470Y-92505142D01*
X102421940Y-92551342D01*
X102400961Y-92595698D01*
X102375735Y-92637785D01*
X102346505Y-92677197D01*
X102313553Y-92713553D01*
X102277197Y-92746505D01*
X102237785Y-92775735D01*
X102195698Y-92800961D01*
X102151342Y-92821940D01*
X102105142Y-92838470D01*
X102057545Y-92850393D01*
X102009009Y-92857592D01*
X101960000Y-92860000D01*
X100960000Y-92860000D01*
X100910991Y-92857592D01*
X100862455Y-92850393D01*
X100814858Y-92838470D01*
X100768658Y-92821940D01*
X100724302Y-92800961D01*
X100682215Y-92775735D01*
X100642803Y-92746505D01*
X100606447Y-92713553D01*
X100573495Y-92677197D01*
X100544265Y-92637785D01*
X100519039Y-92595698D01*
X100498060Y-92551342D01*
X100481530Y-92505142D01*
X100469607Y-92457545D01*
X100462408Y-92409009D01*
X100460000Y-92360000D01*
X100460000Y-91360000D01*
X100462408Y-91310991D01*
X100469607Y-91262455D01*
X100481530Y-91214858D01*
X100498060Y-91168658D01*
X100519039Y-91124302D01*
X100544265Y-91082215D01*
X100573495Y-91042803D01*
X100606447Y-91006447D01*
X100642803Y-90973495D01*
X100682215Y-90944265D01*
X100724302Y-90919039D01*
X100768658Y-90898060D01*
X100814858Y-90881530D01*
X100862455Y-90869607D01*
X100910991Y-90862408D01*
X100960000Y-90860000D01*
X101960000Y-90860000D01*
X102009009Y-90862408D01*
G37*
G04 #@! TD.AperFunction*
G04 #@! TA.AperFunction,ComponentPad*
G36*
X104549009Y-90862408D02*
G01*
X104597545Y-90869607D01*
X104645142Y-90881530D01*
X104691342Y-90898060D01*
X104735698Y-90919039D01*
X104777785Y-90944265D01*
X104817197Y-90973495D01*
X104853553Y-91006447D01*
X104886505Y-91042803D01*
X104915735Y-91082215D01*
X104940961Y-91124302D01*
X104961940Y-91168658D01*
X104978470Y-91214858D01*
X104990393Y-91262455D01*
X104997592Y-91310991D01*
X105000000Y-91360000D01*
X105000000Y-92360000D01*
X104997592Y-92409009D01*
X104990393Y-92457545D01*
X104978470Y-92505142D01*
X104961940Y-92551342D01*
X104940961Y-92595698D01*
X104915735Y-92637785D01*
X104886505Y-92677197D01*
X104853553Y-92713553D01*
X104817197Y-92746505D01*
X104777785Y-92775735D01*
X104735698Y-92800961D01*
X104691342Y-92821940D01*
X104645142Y-92838470D01*
X104597545Y-92850393D01*
X104549009Y-92857592D01*
X104500000Y-92860000D01*
X103500000Y-92860000D01*
X103450991Y-92857592D01*
X103402455Y-92850393D01*
X103354858Y-92838470D01*
X103308658Y-92821940D01*
X103264302Y-92800961D01*
X103222215Y-92775735D01*
X103182803Y-92746505D01*
X103146447Y-92713553D01*
X103113495Y-92677197D01*
X103084265Y-92637785D01*
X103059039Y-92595698D01*
X103038060Y-92551342D01*
X103021530Y-92505142D01*
X103009607Y-92457545D01*
X103002408Y-92409009D01*
X103000000Y-92360000D01*
X103000000Y-91360000D01*
X103002408Y-91310991D01*
X103009607Y-91262455D01*
X103021530Y-91214858D01*
X103038060Y-91168658D01*
X103059039Y-91124302D01*
X103084265Y-91082215D01*
X103113495Y-91042803D01*
X103146447Y-91006447D01*
X103182803Y-90973495D01*
X103222215Y-90944265D01*
X103264302Y-90919039D01*
X103308658Y-90898060D01*
X103354858Y-90881530D01*
X103402455Y-90869607D01*
X103450991Y-90862408D01*
X103500000Y-90860000D01*
X104500000Y-90860000D01*
X104549009Y-90862408D01*
G37*
G04 #@! TD.AperFunction*
G04 #@! TA.AperFunction,ComponentPad*
G36*
X102009009Y-88322408D02*
G01*
X102057545Y-88329607D01*
X102105142Y-88341530D01*
X102151342Y-88358060D01*
X102195698Y-88379039D01*
X102237785Y-88404265D01*
X102277197Y-88433495D01*
X102313553Y-88466447D01*
X102346505Y-88502803D01*
X102375735Y-88542215D01*
X102400961Y-88584302D01*
X102421940Y-88628658D01*
X102438470Y-88674858D01*
X102450393Y-88722455D01*
X102457592Y-88770991D01*
X102460000Y-88820000D01*
X102460000Y-89820000D01*
X102457592Y-89869009D01*
X102450393Y-89917545D01*
X102438470Y-89965142D01*
X102421940Y-90011342D01*
X102400961Y-90055698D01*
X102375735Y-90097785D01*
X102346505Y-90137197D01*
X102313553Y-90173553D01*
X102277197Y-90206505D01*
X102237785Y-90235735D01*
X102195698Y-90260961D01*
X102151342Y-90281940D01*
X102105142Y-90298470D01*
X102057545Y-90310393D01*
X102009009Y-90317592D01*
X101960000Y-90320000D01*
X100960000Y-90320000D01*
X100910991Y-90317592D01*
X100862455Y-90310393D01*
X100814858Y-90298470D01*
X100768658Y-90281940D01*
X100724302Y-90260961D01*
X100682215Y-90235735D01*
X100642803Y-90206505D01*
X100606447Y-90173553D01*
X100573495Y-90137197D01*
X100544265Y-90097785D01*
X100519039Y-90055698D01*
X100498060Y-90011342D01*
X100481530Y-89965142D01*
X100469607Y-89917545D01*
X100462408Y-89869009D01*
X100460000Y-89820000D01*
X100460000Y-88820000D01*
X100462408Y-88770991D01*
X100469607Y-88722455D01*
X100481530Y-88674858D01*
X100498060Y-88628658D01*
X100519039Y-88584302D01*
X100544265Y-88542215D01*
X100573495Y-88502803D01*
X100606447Y-88466447D01*
X100642803Y-88433495D01*
X100682215Y-88404265D01*
X100724302Y-88379039D01*
X100768658Y-88358060D01*
X100814858Y-88341530D01*
X100862455Y-88329607D01*
X100910991Y-88322408D01*
X100960000Y-88320000D01*
X101960000Y-88320000D01*
X102009009Y-88322408D01*
G37*
G04 #@! TD.AperFunction*
G04 #@! TA.AperFunction,ComponentPad*
G36*
X104549009Y-88322408D02*
G01*
X104597545Y-88329607D01*
X104645142Y-88341530D01*
X104691342Y-88358060D01*
X104735698Y-88379039D01*
X104777785Y-88404265D01*
X104817197Y-88433495D01*
X104853553Y-88466447D01*
X104886505Y-88502803D01*
X104915735Y-88542215D01*
X104940961Y-88584302D01*
X104961940Y-88628658D01*
X104978470Y-88674858D01*
X104990393Y-88722455D01*
X104997592Y-88770991D01*
X105000000Y-88820000D01*
X105000000Y-89820000D01*
X104997592Y-89869009D01*
X104990393Y-89917545D01*
X104978470Y-89965142D01*
X104961940Y-90011342D01*
X104940961Y-90055698D01*
X104915735Y-90097785D01*
X104886505Y-90137197D01*
X104853553Y-90173553D01*
X104817197Y-90206505D01*
X104777785Y-90235735D01*
X104735698Y-90260961D01*
X104691342Y-90281940D01*
X104645142Y-90298470D01*
X104597545Y-90310393D01*
X104549009Y-90317592D01*
X104500000Y-90320000D01*
X103500000Y-90320000D01*
X103450991Y-90317592D01*
X103402455Y-90310393D01*
X103354858Y-90298470D01*
X103308658Y-90281940D01*
X103264302Y-90260961D01*
X103222215Y-90235735D01*
X103182803Y-90206505D01*
X103146447Y-90173553D01*
X103113495Y-90137197D01*
X103084265Y-90097785D01*
X103059039Y-90055698D01*
X103038060Y-90011342D01*
X103021530Y-89965142D01*
X103009607Y-89917545D01*
X103002408Y-89869009D01*
X103000000Y-89820000D01*
X103000000Y-88820000D01*
X103002408Y-88770991D01*
X103009607Y-88722455D01*
X103021530Y-88674858D01*
X103038060Y-88628658D01*
X103059039Y-88584302D01*
X103084265Y-88542215D01*
X103113495Y-88502803D01*
X103146447Y-88466447D01*
X103182803Y-88433495D01*
X103222215Y-88404265D01*
X103264302Y-88379039D01*
X103308658Y-88358060D01*
X103354858Y-88341530D01*
X103402455Y-88329607D01*
X103450991Y-88322408D01*
X103500000Y-88320000D01*
X104500000Y-88320000D01*
X104549009Y-88322408D01*
G37*
G04 #@! TD.AperFunction*
G04 #@! TA.AperFunction,ComponentPad*
G36*
X102009009Y-85782408D02*
G01*
X102057545Y-85789607D01*
X102105142Y-85801530D01*
X102151342Y-85818060D01*
X102195698Y-85839039D01*
X102237785Y-85864265D01*
X102277197Y-85893495D01*
X102313553Y-85926447D01*
X102346505Y-85962803D01*
X102375735Y-86002215D01*
X102400961Y-86044302D01*
X102421940Y-86088658D01*
X102438470Y-86134858D01*
X102450393Y-86182455D01*
X102457592Y-86230991D01*
X102460000Y-86280000D01*
X102460000Y-87280000D01*
X102457592Y-87329009D01*
X102450393Y-87377545D01*
X102438470Y-87425142D01*
X102421940Y-87471342D01*
X102400961Y-87515698D01*
X102375735Y-87557785D01*
X102346505Y-87597197D01*
X102313553Y-87633553D01*
X102277197Y-87666505D01*
X102237785Y-87695735D01*
X102195698Y-87720961D01*
X102151342Y-87741940D01*
X102105142Y-87758470D01*
X102057545Y-87770393D01*
X102009009Y-87777592D01*
X101960000Y-87780000D01*
X100960000Y-87780000D01*
X100910991Y-87777592D01*
X100862455Y-87770393D01*
X100814858Y-87758470D01*
X100768658Y-87741940D01*
X100724302Y-87720961D01*
X100682215Y-87695735D01*
X100642803Y-87666505D01*
X100606447Y-87633553D01*
X100573495Y-87597197D01*
X100544265Y-87557785D01*
X100519039Y-87515698D01*
X100498060Y-87471342D01*
X100481530Y-87425142D01*
X100469607Y-87377545D01*
X100462408Y-87329009D01*
X100460000Y-87280000D01*
X100460000Y-86280000D01*
X100462408Y-86230991D01*
X100469607Y-86182455D01*
X100481530Y-86134858D01*
X100498060Y-86088658D01*
X100519039Y-86044302D01*
X100544265Y-86002215D01*
X100573495Y-85962803D01*
X100606447Y-85926447D01*
X100642803Y-85893495D01*
X100682215Y-85864265D01*
X100724302Y-85839039D01*
X100768658Y-85818060D01*
X100814858Y-85801530D01*
X100862455Y-85789607D01*
X100910991Y-85782408D01*
X100960000Y-85780000D01*
X101960000Y-85780000D01*
X102009009Y-85782408D01*
G37*
G04 #@! TD.AperFunction*
G04 #@! TA.AperFunction,ComponentPad*
G36*
X104549009Y-85782408D02*
G01*
X104597545Y-85789607D01*
X104645142Y-85801530D01*
X104691342Y-85818060D01*
X104735698Y-85839039D01*
X104777785Y-85864265D01*
X104817197Y-85893495D01*
X104853553Y-85926447D01*
X104886505Y-85962803D01*
X104915735Y-86002215D01*
X104940961Y-86044302D01*
X104961940Y-86088658D01*
X104978470Y-86134858D01*
X104990393Y-86182455D01*
X104997592Y-86230991D01*
X105000000Y-86280000D01*
X105000000Y-87280000D01*
X104997592Y-87329009D01*
X104990393Y-87377545D01*
X104978470Y-87425142D01*
X104961940Y-87471342D01*
X104940961Y-87515698D01*
X104915735Y-87557785D01*
X104886505Y-87597197D01*
X104853553Y-87633553D01*
X104817197Y-87666505D01*
X104777785Y-87695735D01*
X104735698Y-87720961D01*
X104691342Y-87741940D01*
X104645142Y-87758470D01*
X104597545Y-87770393D01*
X104549009Y-87777592D01*
X104500000Y-87780000D01*
X103500000Y-87780000D01*
X103450991Y-87777592D01*
X103402455Y-87770393D01*
X103354858Y-87758470D01*
X103308658Y-87741940D01*
X103264302Y-87720961D01*
X103222215Y-87695735D01*
X103182803Y-87666505D01*
X103146447Y-87633553D01*
X103113495Y-87597197D01*
X103084265Y-87557785D01*
X103059039Y-87515698D01*
X103038060Y-87471342D01*
X103021530Y-87425142D01*
X103009607Y-87377545D01*
X103002408Y-87329009D01*
X103000000Y-87280000D01*
X103000000Y-86280000D01*
X103002408Y-86230991D01*
X103009607Y-86182455D01*
X103021530Y-86134858D01*
X103038060Y-86088658D01*
X103059039Y-86044302D01*
X103084265Y-86002215D01*
X103113495Y-85962803D01*
X103146447Y-85926447D01*
X103182803Y-85893495D01*
X103222215Y-85864265D01*
X103264302Y-85839039D01*
X103308658Y-85818060D01*
X103354858Y-85801530D01*
X103402455Y-85789607D01*
X103450991Y-85782408D01*
X103500000Y-85780000D01*
X104500000Y-85780000D01*
X104549009Y-85782408D01*
G37*
G04 #@! TD.AperFunction*
G04 #@! TA.AperFunction,ComponentPad*
G36*
X102009009Y-83242408D02*
G01*
X102057545Y-83249607D01*
X102105142Y-83261530D01*
X102151342Y-83278060D01*
X102195698Y-83299039D01*
X102237785Y-83324265D01*
X102277197Y-83353495D01*
X102313553Y-83386447D01*
X102346505Y-83422803D01*
X102375735Y-83462215D01*
X102400961Y-83504302D01*
X102421940Y-83548658D01*
X102438470Y-83594858D01*
X102450393Y-83642455D01*
X102457592Y-83690991D01*
X102460000Y-83740000D01*
X102460000Y-84740000D01*
X102457592Y-84789009D01*
X102450393Y-84837545D01*
X102438470Y-84885142D01*
X102421940Y-84931342D01*
X102400961Y-84975698D01*
X102375735Y-85017785D01*
X102346505Y-85057197D01*
X102313553Y-85093553D01*
X102277197Y-85126505D01*
X102237785Y-85155735D01*
X102195698Y-85180961D01*
X102151342Y-85201940D01*
X102105142Y-85218470D01*
X102057545Y-85230393D01*
X102009009Y-85237592D01*
X101960000Y-85240000D01*
X100960000Y-85240000D01*
X100910991Y-85237592D01*
X100862455Y-85230393D01*
X100814858Y-85218470D01*
X100768658Y-85201940D01*
X100724302Y-85180961D01*
X100682215Y-85155735D01*
X100642803Y-85126505D01*
X100606447Y-85093553D01*
X100573495Y-85057197D01*
X100544265Y-85017785D01*
X100519039Y-84975698D01*
X100498060Y-84931342D01*
X100481530Y-84885142D01*
X100469607Y-84837545D01*
X100462408Y-84789009D01*
X100460000Y-84740000D01*
X100460000Y-83740000D01*
X100462408Y-83690991D01*
X100469607Y-83642455D01*
X100481530Y-83594858D01*
X100498060Y-83548658D01*
X100519039Y-83504302D01*
X100544265Y-83462215D01*
X100573495Y-83422803D01*
X100606447Y-83386447D01*
X100642803Y-83353495D01*
X100682215Y-83324265D01*
X100724302Y-83299039D01*
X100768658Y-83278060D01*
X100814858Y-83261530D01*
X100862455Y-83249607D01*
X100910991Y-83242408D01*
X100960000Y-83240000D01*
X101960000Y-83240000D01*
X102009009Y-83242408D01*
G37*
G04 #@! TD.AperFunction*
G04 #@! TA.AperFunction,ComponentPad*
G36*
X104549009Y-83242408D02*
G01*
X104597545Y-83249607D01*
X104645142Y-83261530D01*
X104691342Y-83278060D01*
X104735698Y-83299039D01*
X104777785Y-83324265D01*
X104817197Y-83353495D01*
X104853553Y-83386447D01*
X104886505Y-83422803D01*
X104915735Y-83462215D01*
X104940961Y-83504302D01*
X104961940Y-83548658D01*
X104978470Y-83594858D01*
X104990393Y-83642455D01*
X104997592Y-83690991D01*
X105000000Y-83740000D01*
X105000000Y-84740000D01*
X104997592Y-84789009D01*
X104990393Y-84837545D01*
X104978470Y-84885142D01*
X104961940Y-84931342D01*
X104940961Y-84975698D01*
X104915735Y-85017785D01*
X104886505Y-85057197D01*
X104853553Y-85093553D01*
X104817197Y-85126505D01*
X104777785Y-85155735D01*
X104735698Y-85180961D01*
X104691342Y-85201940D01*
X104645142Y-85218470D01*
X104597545Y-85230393D01*
X104549009Y-85237592D01*
X104500000Y-85240000D01*
X103500000Y-85240000D01*
X103450991Y-85237592D01*
X103402455Y-85230393D01*
X103354858Y-85218470D01*
X103308658Y-85201940D01*
X103264302Y-85180961D01*
X103222215Y-85155735D01*
X103182803Y-85126505D01*
X103146447Y-85093553D01*
X103113495Y-85057197D01*
X103084265Y-85017785D01*
X103059039Y-84975698D01*
X103038060Y-84931342D01*
X103021530Y-84885142D01*
X103009607Y-84837545D01*
X103002408Y-84789009D01*
X103000000Y-84740000D01*
X103000000Y-83740000D01*
X103002408Y-83690991D01*
X103009607Y-83642455D01*
X103021530Y-83594858D01*
X103038060Y-83548658D01*
X103059039Y-83504302D01*
X103084265Y-83462215D01*
X103113495Y-83422803D01*
X103146447Y-83386447D01*
X103182803Y-83353495D01*
X103222215Y-83324265D01*
X103264302Y-83299039D01*
X103308658Y-83278060D01*
X103354858Y-83261530D01*
X103402455Y-83249607D01*
X103450991Y-83242408D01*
X103500000Y-83240000D01*
X104500000Y-83240000D01*
X104549009Y-83242408D01*
G37*
G04 #@! TD.AperFunction*
G04 #@! TA.AperFunction,ComponentPad*
G36*
X102009009Y-80702408D02*
G01*
X102057545Y-80709607D01*
X102105142Y-80721530D01*
X102151342Y-80738060D01*
X102195698Y-80759039D01*
X102237785Y-80784265D01*
X102277197Y-80813495D01*
X102313553Y-80846447D01*
X102346505Y-80882803D01*
X102375735Y-80922215D01*
X102400961Y-80964302D01*
X102421940Y-81008658D01*
X102438470Y-81054858D01*
X102450393Y-81102455D01*
X102457592Y-81150991D01*
X102460000Y-81200000D01*
X102460000Y-82200000D01*
X102457592Y-82249009D01*
X102450393Y-82297545D01*
X102438470Y-82345142D01*
X102421940Y-82391342D01*
X102400961Y-82435698D01*
X102375735Y-82477785D01*
X102346505Y-82517197D01*
X102313553Y-82553553D01*
X102277197Y-82586505D01*
X102237785Y-82615735D01*
X102195698Y-82640961D01*
X102151342Y-82661940D01*
X102105142Y-82678470D01*
X102057545Y-82690393D01*
X102009009Y-82697592D01*
X101960000Y-82700000D01*
X100960000Y-82700000D01*
X100910991Y-82697592D01*
X100862455Y-82690393D01*
X100814858Y-82678470D01*
X100768658Y-82661940D01*
X100724302Y-82640961D01*
X100682215Y-82615735D01*
X100642803Y-82586505D01*
X100606447Y-82553553D01*
X100573495Y-82517197D01*
X100544265Y-82477785D01*
X100519039Y-82435698D01*
X100498060Y-82391342D01*
X100481530Y-82345142D01*
X100469607Y-82297545D01*
X100462408Y-82249009D01*
X100460000Y-82200000D01*
X100460000Y-81200000D01*
X100462408Y-81150991D01*
X100469607Y-81102455D01*
X100481530Y-81054858D01*
X100498060Y-81008658D01*
X100519039Y-80964302D01*
X100544265Y-80922215D01*
X100573495Y-80882803D01*
X100606447Y-80846447D01*
X100642803Y-80813495D01*
X100682215Y-80784265D01*
X100724302Y-80759039D01*
X100768658Y-80738060D01*
X100814858Y-80721530D01*
X100862455Y-80709607D01*
X100910991Y-80702408D01*
X100960000Y-80700000D01*
X101960000Y-80700000D01*
X102009009Y-80702408D01*
G37*
G04 #@! TD.AperFunction*
G04 #@! TA.AperFunction,ComponentPad*
G36*
X104549009Y-80702408D02*
G01*
X104597545Y-80709607D01*
X104645142Y-80721530D01*
X104691342Y-80738060D01*
X104735698Y-80759039D01*
X104777785Y-80784265D01*
X104817197Y-80813495D01*
X104853553Y-80846447D01*
X104886505Y-80882803D01*
X104915735Y-80922215D01*
X104940961Y-80964302D01*
X104961940Y-81008658D01*
X104978470Y-81054858D01*
X104990393Y-81102455D01*
X104997592Y-81150991D01*
X105000000Y-81200000D01*
X105000000Y-82200000D01*
X104997592Y-82249009D01*
X104990393Y-82297545D01*
X104978470Y-82345142D01*
X104961940Y-82391342D01*
X104940961Y-82435698D01*
X104915735Y-82477785D01*
X104886505Y-82517197D01*
X104853553Y-82553553D01*
X104817197Y-82586505D01*
X104777785Y-82615735D01*
X104735698Y-82640961D01*
X104691342Y-82661940D01*
X104645142Y-82678470D01*
X104597545Y-82690393D01*
X104549009Y-82697592D01*
X104500000Y-82700000D01*
X103500000Y-82700000D01*
X103450991Y-82697592D01*
X103402455Y-82690393D01*
X103354858Y-82678470D01*
X103308658Y-82661940D01*
X103264302Y-82640961D01*
X103222215Y-82615735D01*
X103182803Y-82586505D01*
X103146447Y-82553553D01*
X103113495Y-82517197D01*
X103084265Y-82477785D01*
X103059039Y-82435698D01*
X103038060Y-82391342D01*
X103021530Y-82345142D01*
X103009607Y-82297545D01*
X103002408Y-82249009D01*
X103000000Y-82200000D01*
X103000000Y-81200000D01*
X103002408Y-81150991D01*
X103009607Y-81102455D01*
X103021530Y-81054858D01*
X103038060Y-81008658D01*
X103059039Y-80964302D01*
X103084265Y-80922215D01*
X103113495Y-80882803D01*
X103146447Y-80846447D01*
X103182803Y-80813495D01*
X103222215Y-80784265D01*
X103264302Y-80759039D01*
X103308658Y-80738060D01*
X103354858Y-80721530D01*
X103402455Y-80709607D01*
X103450991Y-80702408D01*
X103500000Y-80700000D01*
X104500000Y-80700000D01*
X104549009Y-80702408D01*
G37*
G04 #@! TD.AperFunction*
G04 #@! TA.AperFunction,ComponentPad*
G36*
X102009009Y-78162408D02*
G01*
X102057545Y-78169607D01*
X102105142Y-78181530D01*
X102151342Y-78198060D01*
X102195698Y-78219039D01*
X102237785Y-78244265D01*
X102277197Y-78273495D01*
X102313553Y-78306447D01*
X102346505Y-78342803D01*
X102375735Y-78382215D01*
X102400961Y-78424302D01*
X102421940Y-78468658D01*
X102438470Y-78514858D01*
X102450393Y-78562455D01*
X102457592Y-78610991D01*
X102460000Y-78660000D01*
X102460000Y-79660000D01*
X102457592Y-79709009D01*
X102450393Y-79757545D01*
X102438470Y-79805142D01*
X102421940Y-79851342D01*
X102400961Y-79895698D01*
X102375735Y-79937785D01*
X102346505Y-79977197D01*
X102313553Y-80013553D01*
X102277197Y-80046505D01*
X102237785Y-80075735D01*
X102195698Y-80100961D01*
X102151342Y-80121940D01*
X102105142Y-80138470D01*
X102057545Y-80150393D01*
X102009009Y-80157592D01*
X101960000Y-80160000D01*
X100960000Y-80160000D01*
X100910991Y-80157592D01*
X100862455Y-80150393D01*
X100814858Y-80138470D01*
X100768658Y-80121940D01*
X100724302Y-80100961D01*
X100682215Y-80075735D01*
X100642803Y-80046505D01*
X100606447Y-80013553D01*
X100573495Y-79977197D01*
X100544265Y-79937785D01*
X100519039Y-79895698D01*
X100498060Y-79851342D01*
X100481530Y-79805142D01*
X100469607Y-79757545D01*
X100462408Y-79709009D01*
X100460000Y-79660000D01*
X100460000Y-78660000D01*
X100462408Y-78610991D01*
X100469607Y-78562455D01*
X100481530Y-78514858D01*
X100498060Y-78468658D01*
X100519039Y-78424302D01*
X100544265Y-78382215D01*
X100573495Y-78342803D01*
X100606447Y-78306447D01*
X100642803Y-78273495D01*
X100682215Y-78244265D01*
X100724302Y-78219039D01*
X100768658Y-78198060D01*
X100814858Y-78181530D01*
X100862455Y-78169607D01*
X100910991Y-78162408D01*
X100960000Y-78160000D01*
X101960000Y-78160000D01*
X102009009Y-78162408D01*
G37*
G04 #@! TD.AperFunction*
G04 #@! TA.AperFunction,ComponentPad*
G36*
X104549009Y-78162408D02*
G01*
X104597545Y-78169607D01*
X104645142Y-78181530D01*
X104691342Y-78198060D01*
X104735698Y-78219039D01*
X104777785Y-78244265D01*
X104817197Y-78273495D01*
X104853553Y-78306447D01*
X104886505Y-78342803D01*
X104915735Y-78382215D01*
X104940961Y-78424302D01*
X104961940Y-78468658D01*
X104978470Y-78514858D01*
X104990393Y-78562455D01*
X104997592Y-78610991D01*
X105000000Y-78660000D01*
X105000000Y-79660000D01*
X104997592Y-79709009D01*
X104990393Y-79757545D01*
X104978470Y-79805142D01*
X104961940Y-79851342D01*
X104940961Y-79895698D01*
X104915735Y-79937785D01*
X104886505Y-79977197D01*
X104853553Y-80013553D01*
X104817197Y-80046505D01*
X104777785Y-80075735D01*
X104735698Y-80100961D01*
X104691342Y-80121940D01*
X104645142Y-80138470D01*
X104597545Y-80150393D01*
X104549009Y-80157592D01*
X104500000Y-80160000D01*
X103500000Y-80160000D01*
X103450991Y-80157592D01*
X103402455Y-80150393D01*
X103354858Y-80138470D01*
X103308658Y-80121940D01*
X103264302Y-80100961D01*
X103222215Y-80075735D01*
X103182803Y-80046505D01*
X103146447Y-80013553D01*
X103113495Y-79977197D01*
X103084265Y-79937785D01*
X103059039Y-79895698D01*
X103038060Y-79851342D01*
X103021530Y-79805142D01*
X103009607Y-79757545D01*
X103002408Y-79709009D01*
X103000000Y-79660000D01*
X103000000Y-78660000D01*
X103002408Y-78610991D01*
X103009607Y-78562455D01*
X103021530Y-78514858D01*
X103038060Y-78468658D01*
X103059039Y-78424302D01*
X103084265Y-78382215D01*
X103113495Y-78342803D01*
X103146447Y-78306447D01*
X103182803Y-78273495D01*
X103222215Y-78244265D01*
X103264302Y-78219039D01*
X103308658Y-78198060D01*
X103354858Y-78181530D01*
X103402455Y-78169607D01*
X103450991Y-78162408D01*
X103500000Y-78160000D01*
X104500000Y-78160000D01*
X104549009Y-78162408D01*
G37*
G04 #@! TD.AperFunction*
G04 #@! TA.AperFunction,ComponentPad*
G36*
X102009009Y-75622408D02*
G01*
X102057545Y-75629607D01*
X102105142Y-75641530D01*
X102151342Y-75658060D01*
X102195698Y-75679039D01*
X102237785Y-75704265D01*
X102277197Y-75733495D01*
X102313553Y-75766447D01*
X102346505Y-75802803D01*
X102375735Y-75842215D01*
X102400961Y-75884302D01*
X102421940Y-75928658D01*
X102438470Y-75974858D01*
X102450393Y-76022455D01*
X102457592Y-76070991D01*
X102460000Y-76120000D01*
X102460000Y-77120000D01*
X102457592Y-77169009D01*
X102450393Y-77217545D01*
X102438470Y-77265142D01*
X102421940Y-77311342D01*
X102400961Y-77355698D01*
X102375735Y-77397785D01*
X102346505Y-77437197D01*
X102313553Y-77473553D01*
X102277197Y-77506505D01*
X102237785Y-77535735D01*
X102195698Y-77560961D01*
X102151342Y-77581940D01*
X102105142Y-77598470D01*
X102057545Y-77610393D01*
X102009009Y-77617592D01*
X101960000Y-77620000D01*
X100960000Y-77620000D01*
X100910991Y-77617592D01*
X100862455Y-77610393D01*
X100814858Y-77598470D01*
X100768658Y-77581940D01*
X100724302Y-77560961D01*
X100682215Y-77535735D01*
X100642803Y-77506505D01*
X100606447Y-77473553D01*
X100573495Y-77437197D01*
X100544265Y-77397785D01*
X100519039Y-77355698D01*
X100498060Y-77311342D01*
X100481530Y-77265142D01*
X100469607Y-77217545D01*
X100462408Y-77169009D01*
X100460000Y-77120000D01*
X100460000Y-76120000D01*
X100462408Y-76070991D01*
X100469607Y-76022455D01*
X100481530Y-75974858D01*
X100498060Y-75928658D01*
X100519039Y-75884302D01*
X100544265Y-75842215D01*
X100573495Y-75802803D01*
X100606447Y-75766447D01*
X100642803Y-75733495D01*
X100682215Y-75704265D01*
X100724302Y-75679039D01*
X100768658Y-75658060D01*
X100814858Y-75641530D01*
X100862455Y-75629607D01*
X100910991Y-75622408D01*
X100960000Y-75620000D01*
X101960000Y-75620000D01*
X102009009Y-75622408D01*
G37*
G04 #@! TD.AperFunction*
G04 #@! TA.AperFunction,ComponentPad*
G36*
X104549009Y-75622408D02*
G01*
X104597545Y-75629607D01*
X104645142Y-75641530D01*
X104691342Y-75658060D01*
X104735698Y-75679039D01*
X104777785Y-75704265D01*
X104817197Y-75733495D01*
X104853553Y-75766447D01*
X104886505Y-75802803D01*
X104915735Y-75842215D01*
X104940961Y-75884302D01*
X104961940Y-75928658D01*
X104978470Y-75974858D01*
X104990393Y-76022455D01*
X104997592Y-76070991D01*
X105000000Y-76120000D01*
X105000000Y-77120000D01*
X104997592Y-77169009D01*
X104990393Y-77217545D01*
X104978470Y-77265142D01*
X104961940Y-77311342D01*
X104940961Y-77355698D01*
X104915735Y-77397785D01*
X104886505Y-77437197D01*
X104853553Y-77473553D01*
X104817197Y-77506505D01*
X104777785Y-77535735D01*
X104735698Y-77560961D01*
X104691342Y-77581940D01*
X104645142Y-77598470D01*
X104597545Y-77610393D01*
X104549009Y-77617592D01*
X104500000Y-77620000D01*
X103500000Y-77620000D01*
X103450991Y-77617592D01*
X103402455Y-77610393D01*
X103354858Y-77598470D01*
X103308658Y-77581940D01*
X103264302Y-77560961D01*
X103222215Y-77535735D01*
X103182803Y-77506505D01*
X103146447Y-77473553D01*
X103113495Y-77437197D01*
X103084265Y-77397785D01*
X103059039Y-77355698D01*
X103038060Y-77311342D01*
X103021530Y-77265142D01*
X103009607Y-77217545D01*
X103002408Y-77169009D01*
X103000000Y-77120000D01*
X103000000Y-76120000D01*
X103002408Y-76070991D01*
X103009607Y-76022455D01*
X103021530Y-75974858D01*
X103038060Y-75928658D01*
X103059039Y-75884302D01*
X103084265Y-75842215D01*
X103113495Y-75802803D01*
X103146447Y-75766447D01*
X103182803Y-75733495D01*
X103222215Y-75704265D01*
X103264302Y-75679039D01*
X103308658Y-75658060D01*
X103354858Y-75641530D01*
X103402455Y-75629607D01*
X103450991Y-75622408D01*
X103500000Y-75620000D01*
X104500000Y-75620000D01*
X104549009Y-75622408D01*
G37*
G04 #@! TD.AperFunction*
G04 #@! TA.AperFunction,ComponentPad*
G36*
X102009009Y-73082408D02*
G01*
X102057545Y-73089607D01*
X102105142Y-73101530D01*
X102151342Y-73118060D01*
X102195698Y-73139039D01*
X102237785Y-73164265D01*
X102277197Y-73193495D01*
X102313553Y-73226447D01*
X102346505Y-73262803D01*
X102375735Y-73302215D01*
X102400961Y-73344302D01*
X102421940Y-73388658D01*
X102438470Y-73434858D01*
X102450393Y-73482455D01*
X102457592Y-73530991D01*
X102460000Y-73580000D01*
X102460000Y-74580000D01*
X102457592Y-74629009D01*
X102450393Y-74677545D01*
X102438470Y-74725142D01*
X102421940Y-74771342D01*
X102400961Y-74815698D01*
X102375735Y-74857785D01*
X102346505Y-74897197D01*
X102313553Y-74933553D01*
X102277197Y-74966505D01*
X102237785Y-74995735D01*
X102195698Y-75020961D01*
X102151342Y-75041940D01*
X102105142Y-75058470D01*
X102057545Y-75070393D01*
X102009009Y-75077592D01*
X101960000Y-75080000D01*
X100960000Y-75080000D01*
X100910991Y-75077592D01*
X100862455Y-75070393D01*
X100814858Y-75058470D01*
X100768658Y-75041940D01*
X100724302Y-75020961D01*
X100682215Y-74995735D01*
X100642803Y-74966505D01*
X100606447Y-74933553D01*
X100573495Y-74897197D01*
X100544265Y-74857785D01*
X100519039Y-74815698D01*
X100498060Y-74771342D01*
X100481530Y-74725142D01*
X100469607Y-74677545D01*
X100462408Y-74629009D01*
X100460000Y-74580000D01*
X100460000Y-73580000D01*
X100462408Y-73530991D01*
X100469607Y-73482455D01*
X100481530Y-73434858D01*
X100498060Y-73388658D01*
X100519039Y-73344302D01*
X100544265Y-73302215D01*
X100573495Y-73262803D01*
X100606447Y-73226447D01*
X100642803Y-73193495D01*
X100682215Y-73164265D01*
X100724302Y-73139039D01*
X100768658Y-73118060D01*
X100814858Y-73101530D01*
X100862455Y-73089607D01*
X100910991Y-73082408D01*
X100960000Y-73080000D01*
X101960000Y-73080000D01*
X102009009Y-73082408D01*
G37*
G04 #@! TD.AperFunction*
G04 #@! TA.AperFunction,ComponentPad*
G36*
X104549009Y-73082408D02*
G01*
X104597545Y-73089607D01*
X104645142Y-73101530D01*
X104691342Y-73118060D01*
X104735698Y-73139039D01*
X104777785Y-73164265D01*
X104817197Y-73193495D01*
X104853553Y-73226447D01*
X104886505Y-73262803D01*
X104915735Y-73302215D01*
X104940961Y-73344302D01*
X104961940Y-73388658D01*
X104978470Y-73434858D01*
X104990393Y-73482455D01*
X104997592Y-73530991D01*
X105000000Y-73580000D01*
X105000000Y-74580000D01*
X104997592Y-74629009D01*
X104990393Y-74677545D01*
X104978470Y-74725142D01*
X104961940Y-74771342D01*
X104940961Y-74815698D01*
X104915735Y-74857785D01*
X104886505Y-74897197D01*
X104853553Y-74933553D01*
X104817197Y-74966505D01*
X104777785Y-74995735D01*
X104735698Y-75020961D01*
X104691342Y-75041940D01*
X104645142Y-75058470D01*
X104597545Y-75070393D01*
X104549009Y-75077592D01*
X104500000Y-75080000D01*
X103500000Y-75080000D01*
X103450991Y-75077592D01*
X103402455Y-75070393D01*
X103354858Y-75058470D01*
X103308658Y-75041940D01*
X103264302Y-75020961D01*
X103222215Y-74995735D01*
X103182803Y-74966505D01*
X103146447Y-74933553D01*
X103113495Y-74897197D01*
X103084265Y-74857785D01*
X103059039Y-74815698D01*
X103038060Y-74771342D01*
X103021530Y-74725142D01*
X103009607Y-74677545D01*
X103002408Y-74629009D01*
X103000000Y-74580000D01*
X103000000Y-73580000D01*
X103002408Y-73530991D01*
X103009607Y-73482455D01*
X103021530Y-73434858D01*
X103038060Y-73388658D01*
X103059039Y-73344302D01*
X103084265Y-73302215D01*
X103113495Y-73262803D01*
X103146447Y-73226447D01*
X103182803Y-73193495D01*
X103222215Y-73164265D01*
X103264302Y-73139039D01*
X103308658Y-73118060D01*
X103354858Y-73101530D01*
X103402455Y-73089607D01*
X103450991Y-73082408D01*
X103500000Y-73080000D01*
X104500000Y-73080000D01*
X104549009Y-73082408D01*
G37*
G04 #@! TD.AperFunction*
G04 #@! TA.AperFunction,ComponentPad*
G36*
X102009009Y-70542408D02*
G01*
X102057545Y-70549607D01*
X102105142Y-70561530D01*
X102151342Y-70578060D01*
X102195698Y-70599039D01*
X102237785Y-70624265D01*
X102277197Y-70653495D01*
X102313553Y-70686447D01*
X102346505Y-70722803D01*
X102375735Y-70762215D01*
X102400961Y-70804302D01*
X102421940Y-70848658D01*
X102438470Y-70894858D01*
X102450393Y-70942455D01*
X102457592Y-70990991D01*
X102460000Y-71040000D01*
X102460000Y-72040000D01*
X102457592Y-72089009D01*
X102450393Y-72137545D01*
X102438470Y-72185142D01*
X102421940Y-72231342D01*
X102400961Y-72275698D01*
X102375735Y-72317785D01*
X102346505Y-72357197D01*
X102313553Y-72393553D01*
X102277197Y-72426505D01*
X102237785Y-72455735D01*
X102195698Y-72480961D01*
X102151342Y-72501940D01*
X102105142Y-72518470D01*
X102057545Y-72530393D01*
X102009009Y-72537592D01*
X101960000Y-72540000D01*
X100960000Y-72540000D01*
X100910991Y-72537592D01*
X100862455Y-72530393D01*
X100814858Y-72518470D01*
X100768658Y-72501940D01*
X100724302Y-72480961D01*
X100682215Y-72455735D01*
X100642803Y-72426505D01*
X100606447Y-72393553D01*
X100573495Y-72357197D01*
X100544265Y-72317785D01*
X100519039Y-72275698D01*
X100498060Y-72231342D01*
X100481530Y-72185142D01*
X100469607Y-72137545D01*
X100462408Y-72089009D01*
X100460000Y-72040000D01*
X100460000Y-71040000D01*
X100462408Y-70990991D01*
X100469607Y-70942455D01*
X100481530Y-70894858D01*
X100498060Y-70848658D01*
X100519039Y-70804302D01*
X100544265Y-70762215D01*
X100573495Y-70722803D01*
X100606447Y-70686447D01*
X100642803Y-70653495D01*
X100682215Y-70624265D01*
X100724302Y-70599039D01*
X100768658Y-70578060D01*
X100814858Y-70561530D01*
X100862455Y-70549607D01*
X100910991Y-70542408D01*
X100960000Y-70540000D01*
X101960000Y-70540000D01*
X102009009Y-70542408D01*
G37*
G04 #@! TD.AperFunction*
G04 #@! TA.AperFunction,ComponentPad*
G36*
X104549009Y-70542408D02*
G01*
X104597545Y-70549607D01*
X104645142Y-70561530D01*
X104691342Y-70578060D01*
X104735698Y-70599039D01*
X104777785Y-70624265D01*
X104817197Y-70653495D01*
X104853553Y-70686447D01*
X104886505Y-70722803D01*
X104915735Y-70762215D01*
X104940961Y-70804302D01*
X104961940Y-70848658D01*
X104978470Y-70894858D01*
X104990393Y-70942455D01*
X104997592Y-70990991D01*
X105000000Y-71040000D01*
X105000000Y-72040000D01*
X104997592Y-72089009D01*
X104990393Y-72137545D01*
X104978470Y-72185142D01*
X104961940Y-72231342D01*
X104940961Y-72275698D01*
X104915735Y-72317785D01*
X104886505Y-72357197D01*
X104853553Y-72393553D01*
X104817197Y-72426505D01*
X104777785Y-72455735D01*
X104735698Y-72480961D01*
X104691342Y-72501940D01*
X104645142Y-72518470D01*
X104597545Y-72530393D01*
X104549009Y-72537592D01*
X104500000Y-72540000D01*
X103500000Y-72540000D01*
X103450991Y-72537592D01*
X103402455Y-72530393D01*
X103354858Y-72518470D01*
X103308658Y-72501940D01*
X103264302Y-72480961D01*
X103222215Y-72455735D01*
X103182803Y-72426505D01*
X103146447Y-72393553D01*
X103113495Y-72357197D01*
X103084265Y-72317785D01*
X103059039Y-72275698D01*
X103038060Y-72231342D01*
X103021530Y-72185142D01*
X103009607Y-72137545D01*
X103002408Y-72089009D01*
X103000000Y-72040000D01*
X103000000Y-71040000D01*
X103002408Y-70990991D01*
X103009607Y-70942455D01*
X103021530Y-70894858D01*
X103038060Y-70848658D01*
X103059039Y-70804302D01*
X103084265Y-70762215D01*
X103113495Y-70722803D01*
X103146447Y-70686447D01*
X103182803Y-70653495D01*
X103222215Y-70624265D01*
X103264302Y-70599039D01*
X103308658Y-70578060D01*
X103354858Y-70561530D01*
X103402455Y-70549607D01*
X103450991Y-70542408D01*
X103500000Y-70540000D01*
X104500000Y-70540000D01*
X104549009Y-70542408D01*
G37*
G04 #@! TD.AperFunction*
G04 #@! TA.AperFunction,ComponentPad*
G36*
X102009009Y-68002408D02*
G01*
X102057545Y-68009607D01*
X102105142Y-68021530D01*
X102151342Y-68038060D01*
X102195698Y-68059039D01*
X102237785Y-68084265D01*
X102277197Y-68113495D01*
X102313553Y-68146447D01*
X102346505Y-68182803D01*
X102375735Y-68222215D01*
X102400961Y-68264302D01*
X102421940Y-68308658D01*
X102438470Y-68354858D01*
X102450393Y-68402455D01*
X102457592Y-68450991D01*
X102460000Y-68500000D01*
X102460000Y-69500000D01*
X102457592Y-69549009D01*
X102450393Y-69597545D01*
X102438470Y-69645142D01*
X102421940Y-69691342D01*
X102400961Y-69735698D01*
X102375735Y-69777785D01*
X102346505Y-69817197D01*
X102313553Y-69853553D01*
X102277197Y-69886505D01*
X102237785Y-69915735D01*
X102195698Y-69940961D01*
X102151342Y-69961940D01*
X102105142Y-69978470D01*
X102057545Y-69990393D01*
X102009009Y-69997592D01*
X101960000Y-70000000D01*
X100960000Y-70000000D01*
X100910991Y-69997592D01*
X100862455Y-69990393D01*
X100814858Y-69978470D01*
X100768658Y-69961940D01*
X100724302Y-69940961D01*
X100682215Y-69915735D01*
X100642803Y-69886505D01*
X100606447Y-69853553D01*
X100573495Y-69817197D01*
X100544265Y-69777785D01*
X100519039Y-69735698D01*
X100498060Y-69691342D01*
X100481530Y-69645142D01*
X100469607Y-69597545D01*
X100462408Y-69549009D01*
X100460000Y-69500000D01*
X100460000Y-68500000D01*
X100462408Y-68450991D01*
X100469607Y-68402455D01*
X100481530Y-68354858D01*
X100498060Y-68308658D01*
X100519039Y-68264302D01*
X100544265Y-68222215D01*
X100573495Y-68182803D01*
X100606447Y-68146447D01*
X100642803Y-68113495D01*
X100682215Y-68084265D01*
X100724302Y-68059039D01*
X100768658Y-68038060D01*
X100814858Y-68021530D01*
X100862455Y-68009607D01*
X100910991Y-68002408D01*
X100960000Y-68000000D01*
X101960000Y-68000000D01*
X102009009Y-68002408D01*
G37*
G04 #@! TD.AperFunction*
G04 #@! TA.AperFunction,ComponentPad*
G36*
X104549009Y-68002408D02*
G01*
X104597545Y-68009607D01*
X104645142Y-68021530D01*
X104691342Y-68038060D01*
X104735698Y-68059039D01*
X104777785Y-68084265D01*
X104817197Y-68113495D01*
X104853553Y-68146447D01*
X104886505Y-68182803D01*
X104915735Y-68222215D01*
X104940961Y-68264302D01*
X104961940Y-68308658D01*
X104978470Y-68354858D01*
X104990393Y-68402455D01*
X104997592Y-68450991D01*
X105000000Y-68500000D01*
X105000000Y-69500000D01*
X104997592Y-69549009D01*
X104990393Y-69597545D01*
X104978470Y-69645142D01*
X104961940Y-69691342D01*
X104940961Y-69735698D01*
X104915735Y-69777785D01*
X104886505Y-69817197D01*
X104853553Y-69853553D01*
X104817197Y-69886505D01*
X104777785Y-69915735D01*
X104735698Y-69940961D01*
X104691342Y-69961940D01*
X104645142Y-69978470D01*
X104597545Y-69990393D01*
X104549009Y-69997592D01*
X104500000Y-70000000D01*
X103500000Y-70000000D01*
X103450991Y-69997592D01*
X103402455Y-69990393D01*
X103354858Y-69978470D01*
X103308658Y-69961940D01*
X103264302Y-69940961D01*
X103222215Y-69915735D01*
X103182803Y-69886505D01*
X103146447Y-69853553D01*
X103113495Y-69817197D01*
X103084265Y-69777785D01*
X103059039Y-69735698D01*
X103038060Y-69691342D01*
X103021530Y-69645142D01*
X103009607Y-69597545D01*
X103002408Y-69549009D01*
X103000000Y-69500000D01*
X103000000Y-68500000D01*
X103002408Y-68450991D01*
X103009607Y-68402455D01*
X103021530Y-68354858D01*
X103038060Y-68308658D01*
X103059039Y-68264302D01*
X103084265Y-68222215D01*
X103113495Y-68182803D01*
X103146447Y-68146447D01*
X103182803Y-68113495D01*
X103222215Y-68084265D01*
X103264302Y-68059039D01*
X103308658Y-68038060D01*
X103354858Y-68021530D01*
X103402455Y-68009607D01*
X103450991Y-68002408D01*
X103500000Y-68000000D01*
X104500000Y-68000000D01*
X104549009Y-68002408D01*
G37*
G04 #@! TD.AperFunction*
D11*
X99100000Y-56000000D03*
X99100000Y-55050000D03*
X99100000Y-56950000D03*
X96900000Y-56950000D03*
X96900000Y-56000000D03*
X96900000Y-55050000D03*
X113900000Y-106000000D03*
X113900000Y-106950000D03*
X113900000Y-105050000D03*
X116100000Y-105050000D03*
X116100000Y-106000000D03*
X116100000Y-106950000D03*
G04 #@! TA.AperFunction,SMDPad,CuDef*
D10*
G36*
X108759703Y-135050722D02*
G01*
X108774264Y-135052882D01*
X108788543Y-135056459D01*
X108802403Y-135061418D01*
X108815710Y-135067712D01*
X108828336Y-135075280D01*
X108840159Y-135084048D01*
X108851066Y-135093934D01*
X108860952Y-135104841D01*
X108869720Y-135116664D01*
X108877288Y-135129290D01*
X108883582Y-135142597D01*
X108888541Y-135156457D01*
X108892118Y-135170736D01*
X108894278Y-135185297D01*
X108895000Y-135200000D01*
X108895000Y-136850000D01*
X108894278Y-136864703D01*
X108892118Y-136879264D01*
X108888541Y-136893543D01*
X108883582Y-136907403D01*
X108877288Y-136920710D01*
X108869720Y-136933336D01*
X108860952Y-136945159D01*
X108851066Y-136956066D01*
X108840159Y-136965952D01*
X108828336Y-136974720D01*
X108815710Y-136982288D01*
X108802403Y-136988582D01*
X108788543Y-136993541D01*
X108774264Y-136997118D01*
X108759703Y-136999278D01*
X108745000Y-137000000D01*
X108445000Y-137000000D01*
X108430297Y-136999278D01*
X108415736Y-136997118D01*
X108401457Y-136993541D01*
X108387597Y-136988582D01*
X108374290Y-136982288D01*
X108361664Y-136974720D01*
X108349841Y-136965952D01*
X108338934Y-136956066D01*
X108329048Y-136945159D01*
X108320280Y-136933336D01*
X108312712Y-136920710D01*
X108306418Y-136907403D01*
X108301459Y-136893543D01*
X108297882Y-136879264D01*
X108295722Y-136864703D01*
X108295000Y-136850000D01*
X108295000Y-135200000D01*
X108295722Y-135185297D01*
X108297882Y-135170736D01*
X108301459Y-135156457D01*
X108306418Y-135142597D01*
X108312712Y-135129290D01*
X108320280Y-135116664D01*
X108329048Y-135104841D01*
X108338934Y-135093934D01*
X108349841Y-135084048D01*
X108361664Y-135075280D01*
X108374290Y-135067712D01*
X108387597Y-135061418D01*
X108401457Y-135056459D01*
X108415736Y-135052882D01*
X108430297Y-135050722D01*
X108445000Y-135050000D01*
X108745000Y-135050000D01*
X108759703Y-135050722D01*
G37*
G04 #@! TD.AperFunction*
G04 #@! TA.AperFunction,SMDPad,CuDef*
G36*
X110029703Y-135050722D02*
G01*
X110044264Y-135052882D01*
X110058543Y-135056459D01*
X110072403Y-135061418D01*
X110085710Y-135067712D01*
X110098336Y-135075280D01*
X110110159Y-135084048D01*
X110121066Y-135093934D01*
X110130952Y-135104841D01*
X110139720Y-135116664D01*
X110147288Y-135129290D01*
X110153582Y-135142597D01*
X110158541Y-135156457D01*
X110162118Y-135170736D01*
X110164278Y-135185297D01*
X110165000Y-135200000D01*
X110165000Y-136850000D01*
X110164278Y-136864703D01*
X110162118Y-136879264D01*
X110158541Y-136893543D01*
X110153582Y-136907403D01*
X110147288Y-136920710D01*
X110139720Y-136933336D01*
X110130952Y-136945159D01*
X110121066Y-136956066D01*
X110110159Y-136965952D01*
X110098336Y-136974720D01*
X110085710Y-136982288D01*
X110072403Y-136988582D01*
X110058543Y-136993541D01*
X110044264Y-136997118D01*
X110029703Y-136999278D01*
X110015000Y-137000000D01*
X109715000Y-137000000D01*
X109700297Y-136999278D01*
X109685736Y-136997118D01*
X109671457Y-136993541D01*
X109657597Y-136988582D01*
X109644290Y-136982288D01*
X109631664Y-136974720D01*
X109619841Y-136965952D01*
X109608934Y-136956066D01*
X109599048Y-136945159D01*
X109590280Y-136933336D01*
X109582712Y-136920710D01*
X109576418Y-136907403D01*
X109571459Y-136893543D01*
X109567882Y-136879264D01*
X109565722Y-136864703D01*
X109565000Y-136850000D01*
X109565000Y-135200000D01*
X109565722Y-135185297D01*
X109567882Y-135170736D01*
X109571459Y-135156457D01*
X109576418Y-135142597D01*
X109582712Y-135129290D01*
X109590280Y-135116664D01*
X109599048Y-135104841D01*
X109608934Y-135093934D01*
X109619841Y-135084048D01*
X109631664Y-135075280D01*
X109644290Y-135067712D01*
X109657597Y-135061418D01*
X109671457Y-135056459D01*
X109685736Y-135052882D01*
X109700297Y-135050722D01*
X109715000Y-135050000D01*
X110015000Y-135050000D01*
X110029703Y-135050722D01*
G37*
G04 #@! TD.AperFunction*
G04 #@! TA.AperFunction,SMDPad,CuDef*
G36*
X111299703Y-135050722D02*
G01*
X111314264Y-135052882D01*
X111328543Y-135056459D01*
X111342403Y-135061418D01*
X111355710Y-135067712D01*
X111368336Y-135075280D01*
X111380159Y-135084048D01*
X111391066Y-135093934D01*
X111400952Y-135104841D01*
X111409720Y-135116664D01*
X111417288Y-135129290D01*
X111423582Y-135142597D01*
X111428541Y-135156457D01*
X111432118Y-135170736D01*
X111434278Y-135185297D01*
X111435000Y-135200000D01*
X111435000Y-136850000D01*
X111434278Y-136864703D01*
X111432118Y-136879264D01*
X111428541Y-136893543D01*
X111423582Y-136907403D01*
X111417288Y-136920710D01*
X111409720Y-136933336D01*
X111400952Y-136945159D01*
X111391066Y-136956066D01*
X111380159Y-136965952D01*
X111368336Y-136974720D01*
X111355710Y-136982288D01*
X111342403Y-136988582D01*
X111328543Y-136993541D01*
X111314264Y-136997118D01*
X111299703Y-136999278D01*
X111285000Y-137000000D01*
X110985000Y-137000000D01*
X110970297Y-136999278D01*
X110955736Y-136997118D01*
X110941457Y-136993541D01*
X110927597Y-136988582D01*
X110914290Y-136982288D01*
X110901664Y-136974720D01*
X110889841Y-136965952D01*
X110878934Y-136956066D01*
X110869048Y-136945159D01*
X110860280Y-136933336D01*
X110852712Y-136920710D01*
X110846418Y-136907403D01*
X110841459Y-136893543D01*
X110837882Y-136879264D01*
X110835722Y-136864703D01*
X110835000Y-136850000D01*
X110835000Y-135200000D01*
X110835722Y-135185297D01*
X110837882Y-135170736D01*
X110841459Y-135156457D01*
X110846418Y-135142597D01*
X110852712Y-135129290D01*
X110860280Y-135116664D01*
X110869048Y-135104841D01*
X110878934Y-135093934D01*
X110889841Y-135084048D01*
X110901664Y-135075280D01*
X110914290Y-135067712D01*
X110927597Y-135061418D01*
X110941457Y-135056459D01*
X110955736Y-135052882D01*
X110970297Y-135050722D01*
X110985000Y-135050000D01*
X111285000Y-135050000D01*
X111299703Y-135050722D01*
G37*
G04 #@! TD.AperFunction*
G04 #@! TA.AperFunction,SMDPad,CuDef*
G36*
X112569703Y-135050722D02*
G01*
X112584264Y-135052882D01*
X112598543Y-135056459D01*
X112612403Y-135061418D01*
X112625710Y-135067712D01*
X112638336Y-135075280D01*
X112650159Y-135084048D01*
X112661066Y-135093934D01*
X112670952Y-135104841D01*
X112679720Y-135116664D01*
X112687288Y-135129290D01*
X112693582Y-135142597D01*
X112698541Y-135156457D01*
X112702118Y-135170736D01*
X112704278Y-135185297D01*
X112705000Y-135200000D01*
X112705000Y-136850000D01*
X112704278Y-136864703D01*
X112702118Y-136879264D01*
X112698541Y-136893543D01*
X112693582Y-136907403D01*
X112687288Y-136920710D01*
X112679720Y-136933336D01*
X112670952Y-136945159D01*
X112661066Y-136956066D01*
X112650159Y-136965952D01*
X112638336Y-136974720D01*
X112625710Y-136982288D01*
X112612403Y-136988582D01*
X112598543Y-136993541D01*
X112584264Y-136997118D01*
X112569703Y-136999278D01*
X112555000Y-137000000D01*
X112255000Y-137000000D01*
X112240297Y-136999278D01*
X112225736Y-136997118D01*
X112211457Y-136993541D01*
X112197597Y-136988582D01*
X112184290Y-136982288D01*
X112171664Y-136974720D01*
X112159841Y-136965952D01*
X112148934Y-136956066D01*
X112139048Y-136945159D01*
X112130280Y-136933336D01*
X112122712Y-136920710D01*
X112116418Y-136907403D01*
X112111459Y-136893543D01*
X112107882Y-136879264D01*
X112105722Y-136864703D01*
X112105000Y-136850000D01*
X112105000Y-135200000D01*
X112105722Y-135185297D01*
X112107882Y-135170736D01*
X112111459Y-135156457D01*
X112116418Y-135142597D01*
X112122712Y-135129290D01*
X112130280Y-135116664D01*
X112139048Y-135104841D01*
X112148934Y-135093934D01*
X112159841Y-135084048D01*
X112171664Y-135075280D01*
X112184290Y-135067712D01*
X112197597Y-135061418D01*
X112211457Y-135056459D01*
X112225736Y-135052882D01*
X112240297Y-135050722D01*
X112255000Y-135050000D01*
X112555000Y-135050000D01*
X112569703Y-135050722D01*
G37*
G04 #@! TD.AperFunction*
G04 #@! TA.AperFunction,SMDPad,CuDef*
G36*
X112569703Y-140000722D02*
G01*
X112584264Y-140002882D01*
X112598543Y-140006459D01*
X112612403Y-140011418D01*
X112625710Y-140017712D01*
X112638336Y-140025280D01*
X112650159Y-140034048D01*
X112661066Y-140043934D01*
X112670952Y-140054841D01*
X112679720Y-140066664D01*
X112687288Y-140079290D01*
X112693582Y-140092597D01*
X112698541Y-140106457D01*
X112702118Y-140120736D01*
X112704278Y-140135297D01*
X112705000Y-140150000D01*
X112705000Y-141800000D01*
X112704278Y-141814703D01*
X112702118Y-141829264D01*
X112698541Y-141843543D01*
X112693582Y-141857403D01*
X112687288Y-141870710D01*
X112679720Y-141883336D01*
X112670952Y-141895159D01*
X112661066Y-141906066D01*
X112650159Y-141915952D01*
X112638336Y-141924720D01*
X112625710Y-141932288D01*
X112612403Y-141938582D01*
X112598543Y-141943541D01*
X112584264Y-141947118D01*
X112569703Y-141949278D01*
X112555000Y-141950000D01*
X112255000Y-141950000D01*
X112240297Y-141949278D01*
X112225736Y-141947118D01*
X112211457Y-141943541D01*
X112197597Y-141938582D01*
X112184290Y-141932288D01*
X112171664Y-141924720D01*
X112159841Y-141915952D01*
X112148934Y-141906066D01*
X112139048Y-141895159D01*
X112130280Y-141883336D01*
X112122712Y-141870710D01*
X112116418Y-141857403D01*
X112111459Y-141843543D01*
X112107882Y-141829264D01*
X112105722Y-141814703D01*
X112105000Y-141800000D01*
X112105000Y-140150000D01*
X112105722Y-140135297D01*
X112107882Y-140120736D01*
X112111459Y-140106457D01*
X112116418Y-140092597D01*
X112122712Y-140079290D01*
X112130280Y-140066664D01*
X112139048Y-140054841D01*
X112148934Y-140043934D01*
X112159841Y-140034048D01*
X112171664Y-140025280D01*
X112184290Y-140017712D01*
X112197597Y-140011418D01*
X112211457Y-140006459D01*
X112225736Y-140002882D01*
X112240297Y-140000722D01*
X112255000Y-140000000D01*
X112555000Y-140000000D01*
X112569703Y-140000722D01*
G37*
G04 #@! TD.AperFunction*
G04 #@! TA.AperFunction,SMDPad,CuDef*
G36*
X111299703Y-140000722D02*
G01*
X111314264Y-140002882D01*
X111328543Y-140006459D01*
X111342403Y-140011418D01*
X111355710Y-140017712D01*
X111368336Y-140025280D01*
X111380159Y-140034048D01*
X111391066Y-140043934D01*
X111400952Y-140054841D01*
X111409720Y-140066664D01*
X111417288Y-140079290D01*
X111423582Y-140092597D01*
X111428541Y-140106457D01*
X111432118Y-140120736D01*
X111434278Y-140135297D01*
X111435000Y-140150000D01*
X111435000Y-141800000D01*
X111434278Y-141814703D01*
X111432118Y-141829264D01*
X111428541Y-141843543D01*
X111423582Y-141857403D01*
X111417288Y-141870710D01*
X111409720Y-141883336D01*
X111400952Y-141895159D01*
X111391066Y-141906066D01*
X111380159Y-141915952D01*
X111368336Y-141924720D01*
X111355710Y-141932288D01*
X111342403Y-141938582D01*
X111328543Y-141943541D01*
X111314264Y-141947118D01*
X111299703Y-141949278D01*
X111285000Y-141950000D01*
X110985000Y-141950000D01*
X110970297Y-141949278D01*
X110955736Y-141947118D01*
X110941457Y-141943541D01*
X110927597Y-141938582D01*
X110914290Y-141932288D01*
X110901664Y-141924720D01*
X110889841Y-141915952D01*
X110878934Y-141906066D01*
X110869048Y-141895159D01*
X110860280Y-141883336D01*
X110852712Y-141870710D01*
X110846418Y-141857403D01*
X110841459Y-141843543D01*
X110837882Y-141829264D01*
X110835722Y-141814703D01*
X110835000Y-141800000D01*
X110835000Y-140150000D01*
X110835722Y-140135297D01*
X110837882Y-140120736D01*
X110841459Y-140106457D01*
X110846418Y-140092597D01*
X110852712Y-140079290D01*
X110860280Y-140066664D01*
X110869048Y-140054841D01*
X110878934Y-140043934D01*
X110889841Y-140034048D01*
X110901664Y-140025280D01*
X110914290Y-140017712D01*
X110927597Y-140011418D01*
X110941457Y-140006459D01*
X110955736Y-140002882D01*
X110970297Y-140000722D01*
X110985000Y-140000000D01*
X111285000Y-140000000D01*
X111299703Y-140000722D01*
G37*
G04 #@! TD.AperFunction*
G04 #@! TA.AperFunction,SMDPad,CuDef*
G36*
X110029703Y-140000722D02*
G01*
X110044264Y-140002882D01*
X110058543Y-140006459D01*
X110072403Y-140011418D01*
X110085710Y-140017712D01*
X110098336Y-140025280D01*
X110110159Y-140034048D01*
X110121066Y-140043934D01*
X110130952Y-140054841D01*
X110139720Y-140066664D01*
X110147288Y-140079290D01*
X110153582Y-140092597D01*
X110158541Y-140106457D01*
X110162118Y-140120736D01*
X110164278Y-140135297D01*
X110165000Y-140150000D01*
X110165000Y-141800000D01*
X110164278Y-141814703D01*
X110162118Y-141829264D01*
X110158541Y-141843543D01*
X110153582Y-141857403D01*
X110147288Y-141870710D01*
X110139720Y-141883336D01*
X110130952Y-141895159D01*
X110121066Y-141906066D01*
X110110159Y-141915952D01*
X110098336Y-141924720D01*
X110085710Y-141932288D01*
X110072403Y-141938582D01*
X110058543Y-141943541D01*
X110044264Y-141947118D01*
X110029703Y-141949278D01*
X110015000Y-141950000D01*
X109715000Y-141950000D01*
X109700297Y-141949278D01*
X109685736Y-141947118D01*
X109671457Y-141943541D01*
X109657597Y-141938582D01*
X109644290Y-141932288D01*
X109631664Y-141924720D01*
X109619841Y-141915952D01*
X109608934Y-141906066D01*
X109599048Y-141895159D01*
X109590280Y-141883336D01*
X109582712Y-141870710D01*
X109576418Y-141857403D01*
X109571459Y-141843543D01*
X109567882Y-141829264D01*
X109565722Y-141814703D01*
X109565000Y-141800000D01*
X109565000Y-140150000D01*
X109565722Y-140135297D01*
X109567882Y-140120736D01*
X109571459Y-140106457D01*
X109576418Y-140092597D01*
X109582712Y-140079290D01*
X109590280Y-140066664D01*
X109599048Y-140054841D01*
X109608934Y-140043934D01*
X109619841Y-140034048D01*
X109631664Y-140025280D01*
X109644290Y-140017712D01*
X109657597Y-140011418D01*
X109671457Y-140006459D01*
X109685736Y-140002882D01*
X109700297Y-140000722D01*
X109715000Y-140000000D01*
X110015000Y-140000000D01*
X110029703Y-140000722D01*
G37*
G04 #@! TD.AperFunction*
G04 #@! TA.AperFunction,SMDPad,CuDef*
G36*
X108759703Y-140000722D02*
G01*
X108774264Y-140002882D01*
X108788543Y-140006459D01*
X108802403Y-140011418D01*
X108815710Y-140017712D01*
X108828336Y-140025280D01*
X108840159Y-140034048D01*
X108851066Y-140043934D01*
X108860952Y-140054841D01*
X108869720Y-140066664D01*
X108877288Y-140079290D01*
X108883582Y-140092597D01*
X108888541Y-140106457D01*
X108892118Y-140120736D01*
X108894278Y-140135297D01*
X108895000Y-140150000D01*
X108895000Y-141800000D01*
X108894278Y-141814703D01*
X108892118Y-141829264D01*
X108888541Y-141843543D01*
X108883582Y-141857403D01*
X108877288Y-141870710D01*
X108869720Y-141883336D01*
X108860952Y-141895159D01*
X108851066Y-141906066D01*
X108840159Y-141915952D01*
X108828336Y-141924720D01*
X108815710Y-141932288D01*
X108802403Y-141938582D01*
X108788543Y-141943541D01*
X108774264Y-141947118D01*
X108759703Y-141949278D01*
X108745000Y-141950000D01*
X108445000Y-141950000D01*
X108430297Y-141949278D01*
X108415736Y-141947118D01*
X108401457Y-141943541D01*
X108387597Y-141938582D01*
X108374290Y-141932288D01*
X108361664Y-141924720D01*
X108349841Y-141915952D01*
X108338934Y-141906066D01*
X108329048Y-141895159D01*
X108320280Y-141883336D01*
X108312712Y-141870710D01*
X108306418Y-141857403D01*
X108301459Y-141843543D01*
X108297882Y-141829264D01*
X108295722Y-141814703D01*
X108295000Y-141800000D01*
X108295000Y-140150000D01*
X108295722Y-140135297D01*
X108297882Y-140120736D01*
X108301459Y-140106457D01*
X108306418Y-140092597D01*
X108312712Y-140079290D01*
X108320280Y-140066664D01*
X108329048Y-140054841D01*
X108338934Y-140043934D01*
X108349841Y-140034048D01*
X108361664Y-140025280D01*
X108374290Y-140017712D01*
X108387597Y-140011418D01*
X108401457Y-140006459D01*
X108415736Y-140002882D01*
X108430297Y-140000722D01*
X108445000Y-140000000D01*
X108745000Y-140000000D01*
X108759703Y-140000722D01*
G37*
G04 #@! TD.AperFunction*
G04 #@! TA.AperFunction,SMDPad,CuDef*
G36*
X109205142Y-68301174D02*
G01*
X109228803Y-68304684D01*
X109252007Y-68310496D01*
X109274529Y-68318554D01*
X109296153Y-68328782D01*
X109316670Y-68341079D01*
X109335883Y-68355329D01*
X109353607Y-68371393D01*
X109369671Y-68389117D01*
X109383921Y-68408330D01*
X109396218Y-68428847D01*
X109406446Y-68450471D01*
X109414504Y-68472993D01*
X109420316Y-68496197D01*
X109423826Y-68519858D01*
X109425000Y-68543750D01*
X109425000Y-69456250D01*
X109423826Y-69480142D01*
X109420316Y-69503803D01*
X109414504Y-69527007D01*
X109406446Y-69549529D01*
X109396218Y-69571153D01*
X109383921Y-69591670D01*
X109369671Y-69610883D01*
X109353607Y-69628607D01*
X109335883Y-69644671D01*
X109316670Y-69658921D01*
X109296153Y-69671218D01*
X109274529Y-69681446D01*
X109252007Y-69689504D01*
X109228803Y-69695316D01*
X109205142Y-69698826D01*
X109181250Y-69700000D01*
X108693750Y-69700000D01*
X108669858Y-69698826D01*
X108646197Y-69695316D01*
X108622993Y-69689504D01*
X108600471Y-69681446D01*
X108578847Y-69671218D01*
X108558330Y-69658921D01*
X108539117Y-69644671D01*
X108521393Y-69628607D01*
X108505329Y-69610883D01*
X108491079Y-69591670D01*
X108478782Y-69571153D01*
X108468554Y-69549529D01*
X108460496Y-69527007D01*
X108454684Y-69503803D01*
X108451174Y-69480142D01*
X108450000Y-69456250D01*
X108450000Y-68543750D01*
X108451174Y-68519858D01*
X108454684Y-68496197D01*
X108460496Y-68472993D01*
X108468554Y-68450471D01*
X108478782Y-68428847D01*
X108491079Y-68408330D01*
X108505329Y-68389117D01*
X108521393Y-68371393D01*
X108539117Y-68355329D01*
X108558330Y-68341079D01*
X108578847Y-68328782D01*
X108600471Y-68318554D01*
X108622993Y-68310496D01*
X108646197Y-68304684D01*
X108669858Y-68301174D01*
X108693750Y-68300000D01*
X109181250Y-68300000D01*
X109205142Y-68301174D01*
G37*
G04 #@! TD.AperFunction*
G04 #@! TA.AperFunction,SMDPad,CuDef*
G36*
X107330142Y-68301174D02*
G01*
X107353803Y-68304684D01*
X107377007Y-68310496D01*
X107399529Y-68318554D01*
X107421153Y-68328782D01*
X107441670Y-68341079D01*
X107460883Y-68355329D01*
X107478607Y-68371393D01*
X107494671Y-68389117D01*
X107508921Y-68408330D01*
X107521218Y-68428847D01*
X107531446Y-68450471D01*
X107539504Y-68472993D01*
X107545316Y-68496197D01*
X107548826Y-68519858D01*
X107550000Y-68543750D01*
X107550000Y-69456250D01*
X107548826Y-69480142D01*
X107545316Y-69503803D01*
X107539504Y-69527007D01*
X107531446Y-69549529D01*
X107521218Y-69571153D01*
X107508921Y-69591670D01*
X107494671Y-69610883D01*
X107478607Y-69628607D01*
X107460883Y-69644671D01*
X107441670Y-69658921D01*
X107421153Y-69671218D01*
X107399529Y-69681446D01*
X107377007Y-69689504D01*
X107353803Y-69695316D01*
X107330142Y-69698826D01*
X107306250Y-69700000D01*
X106818750Y-69700000D01*
X106794858Y-69698826D01*
X106771197Y-69695316D01*
X106747993Y-69689504D01*
X106725471Y-69681446D01*
X106703847Y-69671218D01*
X106683330Y-69658921D01*
X106664117Y-69644671D01*
X106646393Y-69628607D01*
X106630329Y-69610883D01*
X106616079Y-69591670D01*
X106603782Y-69571153D01*
X106593554Y-69549529D01*
X106585496Y-69527007D01*
X106579684Y-69503803D01*
X106576174Y-69480142D01*
X106575000Y-69456250D01*
X106575000Y-68543750D01*
X106576174Y-68519858D01*
X106579684Y-68496197D01*
X106585496Y-68472993D01*
X106593554Y-68450471D01*
X106603782Y-68428847D01*
X106616079Y-68408330D01*
X106630329Y-68389117D01*
X106646393Y-68371393D01*
X106664117Y-68355329D01*
X106683330Y-68341079D01*
X106703847Y-68328782D01*
X106725471Y-68318554D01*
X106747993Y-68310496D01*
X106771197Y-68304684D01*
X106794858Y-68301174D01*
X106818750Y-68300000D01*
X107306250Y-68300000D01*
X107330142Y-68301174D01*
G37*
G04 #@! TD.AperFunction*
G04 #@! TA.AperFunction,SMDPad,CuDef*
G36*
X111205142Y-61801174D02*
G01*
X111228803Y-61804684D01*
X111252007Y-61810496D01*
X111274529Y-61818554D01*
X111296153Y-61828782D01*
X111316670Y-61841079D01*
X111335883Y-61855329D01*
X111353607Y-61871393D01*
X111369671Y-61889117D01*
X111383921Y-61908330D01*
X111396218Y-61928847D01*
X111406446Y-61950471D01*
X111414504Y-61972993D01*
X111420316Y-61996197D01*
X111423826Y-62019858D01*
X111425000Y-62043750D01*
X111425000Y-62956250D01*
X111423826Y-62980142D01*
X111420316Y-63003803D01*
X111414504Y-63027007D01*
X111406446Y-63049529D01*
X111396218Y-63071153D01*
X111383921Y-63091670D01*
X111369671Y-63110883D01*
X111353607Y-63128607D01*
X111335883Y-63144671D01*
X111316670Y-63158921D01*
X111296153Y-63171218D01*
X111274529Y-63181446D01*
X111252007Y-63189504D01*
X111228803Y-63195316D01*
X111205142Y-63198826D01*
X111181250Y-63200000D01*
X110693750Y-63200000D01*
X110669858Y-63198826D01*
X110646197Y-63195316D01*
X110622993Y-63189504D01*
X110600471Y-63181446D01*
X110578847Y-63171218D01*
X110558330Y-63158921D01*
X110539117Y-63144671D01*
X110521393Y-63128607D01*
X110505329Y-63110883D01*
X110491079Y-63091670D01*
X110478782Y-63071153D01*
X110468554Y-63049529D01*
X110460496Y-63027007D01*
X110454684Y-63003803D01*
X110451174Y-62980142D01*
X110450000Y-62956250D01*
X110450000Y-62043750D01*
X110451174Y-62019858D01*
X110454684Y-61996197D01*
X110460496Y-61972993D01*
X110468554Y-61950471D01*
X110478782Y-61928847D01*
X110491079Y-61908330D01*
X110505329Y-61889117D01*
X110521393Y-61871393D01*
X110539117Y-61855329D01*
X110558330Y-61841079D01*
X110578847Y-61828782D01*
X110600471Y-61818554D01*
X110622993Y-61810496D01*
X110646197Y-61804684D01*
X110669858Y-61801174D01*
X110693750Y-61800000D01*
X111181250Y-61800000D01*
X111205142Y-61801174D01*
G37*
G04 #@! TD.AperFunction*
G04 #@! TA.AperFunction,SMDPad,CuDef*
G36*
X109330142Y-61801174D02*
G01*
X109353803Y-61804684D01*
X109377007Y-61810496D01*
X109399529Y-61818554D01*
X109421153Y-61828782D01*
X109441670Y-61841079D01*
X109460883Y-61855329D01*
X109478607Y-61871393D01*
X109494671Y-61889117D01*
X109508921Y-61908330D01*
X109521218Y-61928847D01*
X109531446Y-61950471D01*
X109539504Y-61972993D01*
X109545316Y-61996197D01*
X109548826Y-62019858D01*
X109550000Y-62043750D01*
X109550000Y-62956250D01*
X109548826Y-62980142D01*
X109545316Y-63003803D01*
X109539504Y-63027007D01*
X109531446Y-63049529D01*
X109521218Y-63071153D01*
X109508921Y-63091670D01*
X109494671Y-63110883D01*
X109478607Y-63128607D01*
X109460883Y-63144671D01*
X109441670Y-63158921D01*
X109421153Y-63171218D01*
X109399529Y-63181446D01*
X109377007Y-63189504D01*
X109353803Y-63195316D01*
X109330142Y-63198826D01*
X109306250Y-63200000D01*
X108818750Y-63200000D01*
X108794858Y-63198826D01*
X108771197Y-63195316D01*
X108747993Y-63189504D01*
X108725471Y-63181446D01*
X108703847Y-63171218D01*
X108683330Y-63158921D01*
X108664117Y-63144671D01*
X108646393Y-63128607D01*
X108630329Y-63110883D01*
X108616079Y-63091670D01*
X108603782Y-63071153D01*
X108593554Y-63049529D01*
X108585496Y-63027007D01*
X108579684Y-63003803D01*
X108576174Y-62980142D01*
X108575000Y-62956250D01*
X108575000Y-62043750D01*
X108576174Y-62019858D01*
X108579684Y-61996197D01*
X108585496Y-61972993D01*
X108593554Y-61950471D01*
X108603782Y-61928847D01*
X108616079Y-61908330D01*
X108630329Y-61889117D01*
X108646393Y-61871393D01*
X108664117Y-61855329D01*
X108683330Y-61841079D01*
X108703847Y-61828782D01*
X108725471Y-61818554D01*
X108747993Y-61810496D01*
X108771197Y-61804684D01*
X108794858Y-61801174D01*
X108818750Y-61800000D01*
X109306250Y-61800000D01*
X109330142Y-61801174D01*
G37*
G04 #@! TD.AperFunction*
G04 #@! TA.AperFunction,SMDPad,CuDef*
G36*
X119480142Y-104451174D02*
G01*
X119503803Y-104454684D01*
X119527007Y-104460496D01*
X119549529Y-104468554D01*
X119571153Y-104478782D01*
X119591670Y-104491079D01*
X119610883Y-104505329D01*
X119628607Y-104521393D01*
X119644671Y-104539117D01*
X119658921Y-104558330D01*
X119671218Y-104578847D01*
X119681446Y-104600471D01*
X119689504Y-104622993D01*
X119695316Y-104646197D01*
X119698826Y-104669858D01*
X119700000Y-104693750D01*
X119700000Y-105181250D01*
X119698826Y-105205142D01*
X119695316Y-105228803D01*
X119689504Y-105252007D01*
X119681446Y-105274529D01*
X119671218Y-105296153D01*
X119658921Y-105316670D01*
X119644671Y-105335883D01*
X119628607Y-105353607D01*
X119610883Y-105369671D01*
X119591670Y-105383921D01*
X119571153Y-105396218D01*
X119549529Y-105406446D01*
X119527007Y-105414504D01*
X119503803Y-105420316D01*
X119480142Y-105423826D01*
X119456250Y-105425000D01*
X118543750Y-105425000D01*
X118519858Y-105423826D01*
X118496197Y-105420316D01*
X118472993Y-105414504D01*
X118450471Y-105406446D01*
X118428847Y-105396218D01*
X118408330Y-105383921D01*
X118389117Y-105369671D01*
X118371393Y-105353607D01*
X118355329Y-105335883D01*
X118341079Y-105316670D01*
X118328782Y-105296153D01*
X118318554Y-105274529D01*
X118310496Y-105252007D01*
X118304684Y-105228803D01*
X118301174Y-105205142D01*
X118300000Y-105181250D01*
X118300000Y-104693750D01*
X118301174Y-104669858D01*
X118304684Y-104646197D01*
X118310496Y-104622993D01*
X118318554Y-104600471D01*
X118328782Y-104578847D01*
X118341079Y-104558330D01*
X118355329Y-104539117D01*
X118371393Y-104521393D01*
X118389117Y-104505329D01*
X118408330Y-104491079D01*
X118428847Y-104478782D01*
X118450471Y-104468554D01*
X118472993Y-104460496D01*
X118496197Y-104454684D01*
X118519858Y-104451174D01*
X118543750Y-104450000D01*
X119456250Y-104450000D01*
X119480142Y-104451174D01*
G37*
G04 #@! TD.AperFunction*
G04 #@! TA.AperFunction,SMDPad,CuDef*
G36*
X119480142Y-102576174D02*
G01*
X119503803Y-102579684D01*
X119527007Y-102585496D01*
X119549529Y-102593554D01*
X119571153Y-102603782D01*
X119591670Y-102616079D01*
X119610883Y-102630329D01*
X119628607Y-102646393D01*
X119644671Y-102664117D01*
X119658921Y-102683330D01*
X119671218Y-102703847D01*
X119681446Y-102725471D01*
X119689504Y-102747993D01*
X119695316Y-102771197D01*
X119698826Y-102794858D01*
X119700000Y-102818750D01*
X119700000Y-103306250D01*
X119698826Y-103330142D01*
X119695316Y-103353803D01*
X119689504Y-103377007D01*
X119681446Y-103399529D01*
X119671218Y-103421153D01*
X119658921Y-103441670D01*
X119644671Y-103460883D01*
X119628607Y-103478607D01*
X119610883Y-103494671D01*
X119591670Y-103508921D01*
X119571153Y-103521218D01*
X119549529Y-103531446D01*
X119527007Y-103539504D01*
X119503803Y-103545316D01*
X119480142Y-103548826D01*
X119456250Y-103550000D01*
X118543750Y-103550000D01*
X118519858Y-103548826D01*
X118496197Y-103545316D01*
X118472993Y-103539504D01*
X118450471Y-103531446D01*
X118428847Y-103521218D01*
X118408330Y-103508921D01*
X118389117Y-103494671D01*
X118371393Y-103478607D01*
X118355329Y-103460883D01*
X118341079Y-103441670D01*
X118328782Y-103421153D01*
X118318554Y-103399529D01*
X118310496Y-103377007D01*
X118304684Y-103353803D01*
X118301174Y-103330142D01*
X118300000Y-103306250D01*
X118300000Y-102818750D01*
X118301174Y-102794858D01*
X118304684Y-102771197D01*
X118310496Y-102747993D01*
X118318554Y-102725471D01*
X118328782Y-102703847D01*
X118341079Y-102683330D01*
X118355329Y-102664117D01*
X118371393Y-102646393D01*
X118389117Y-102630329D01*
X118408330Y-102616079D01*
X118428847Y-102603782D01*
X118450471Y-102593554D01*
X118472993Y-102585496D01*
X118496197Y-102579684D01*
X118519858Y-102576174D01*
X118543750Y-102575000D01*
X119456250Y-102575000D01*
X119480142Y-102576174D01*
G37*
G04 #@! TD.AperFunction*
G04 #@! TA.AperFunction,SMDPad,CuDef*
G36*
X119480142Y-108451174D02*
G01*
X119503803Y-108454684D01*
X119527007Y-108460496D01*
X119549529Y-108468554D01*
X119571153Y-108478782D01*
X119591670Y-108491079D01*
X119610883Y-108505329D01*
X119628607Y-108521393D01*
X119644671Y-108539117D01*
X119658921Y-108558330D01*
X119671218Y-108578847D01*
X119681446Y-108600471D01*
X119689504Y-108622993D01*
X119695316Y-108646197D01*
X119698826Y-108669858D01*
X119700000Y-108693750D01*
X119700000Y-109181250D01*
X119698826Y-109205142D01*
X119695316Y-109228803D01*
X119689504Y-109252007D01*
X119681446Y-109274529D01*
X119671218Y-109296153D01*
X119658921Y-109316670D01*
X119644671Y-109335883D01*
X119628607Y-109353607D01*
X119610883Y-109369671D01*
X119591670Y-109383921D01*
X119571153Y-109396218D01*
X119549529Y-109406446D01*
X119527007Y-109414504D01*
X119503803Y-109420316D01*
X119480142Y-109423826D01*
X119456250Y-109425000D01*
X118543750Y-109425000D01*
X118519858Y-109423826D01*
X118496197Y-109420316D01*
X118472993Y-109414504D01*
X118450471Y-109406446D01*
X118428847Y-109396218D01*
X118408330Y-109383921D01*
X118389117Y-109369671D01*
X118371393Y-109353607D01*
X118355329Y-109335883D01*
X118341079Y-109316670D01*
X118328782Y-109296153D01*
X118318554Y-109274529D01*
X118310496Y-109252007D01*
X118304684Y-109228803D01*
X118301174Y-109205142D01*
X118300000Y-109181250D01*
X118300000Y-108693750D01*
X118301174Y-108669858D01*
X118304684Y-108646197D01*
X118310496Y-108622993D01*
X118318554Y-108600471D01*
X118328782Y-108578847D01*
X118341079Y-108558330D01*
X118355329Y-108539117D01*
X118371393Y-108521393D01*
X118389117Y-108505329D01*
X118408330Y-108491079D01*
X118428847Y-108478782D01*
X118450471Y-108468554D01*
X118472993Y-108460496D01*
X118496197Y-108454684D01*
X118519858Y-108451174D01*
X118543750Y-108450000D01*
X119456250Y-108450000D01*
X119480142Y-108451174D01*
G37*
G04 #@! TD.AperFunction*
G04 #@! TA.AperFunction,SMDPad,CuDef*
G36*
X119480142Y-106576174D02*
G01*
X119503803Y-106579684D01*
X119527007Y-106585496D01*
X119549529Y-106593554D01*
X119571153Y-106603782D01*
X119591670Y-106616079D01*
X119610883Y-106630329D01*
X119628607Y-106646393D01*
X119644671Y-106664117D01*
X119658921Y-106683330D01*
X119671218Y-106703847D01*
X119681446Y-106725471D01*
X119689504Y-106747993D01*
X119695316Y-106771197D01*
X119698826Y-106794858D01*
X119700000Y-106818750D01*
X119700000Y-107306250D01*
X119698826Y-107330142D01*
X119695316Y-107353803D01*
X119689504Y-107377007D01*
X119681446Y-107399529D01*
X119671218Y-107421153D01*
X119658921Y-107441670D01*
X119644671Y-107460883D01*
X119628607Y-107478607D01*
X119610883Y-107494671D01*
X119591670Y-107508921D01*
X119571153Y-107521218D01*
X119549529Y-107531446D01*
X119527007Y-107539504D01*
X119503803Y-107545316D01*
X119480142Y-107548826D01*
X119456250Y-107550000D01*
X118543750Y-107550000D01*
X118519858Y-107548826D01*
X118496197Y-107545316D01*
X118472993Y-107539504D01*
X118450471Y-107531446D01*
X118428847Y-107521218D01*
X118408330Y-107508921D01*
X118389117Y-107494671D01*
X118371393Y-107478607D01*
X118355329Y-107460883D01*
X118341079Y-107441670D01*
X118328782Y-107421153D01*
X118318554Y-107399529D01*
X118310496Y-107377007D01*
X118304684Y-107353803D01*
X118301174Y-107330142D01*
X118300000Y-107306250D01*
X118300000Y-106818750D01*
X118301174Y-106794858D01*
X118304684Y-106771197D01*
X118310496Y-106747993D01*
X118318554Y-106725471D01*
X118328782Y-106703847D01*
X118341079Y-106683330D01*
X118355329Y-106664117D01*
X118371393Y-106646393D01*
X118389117Y-106630329D01*
X118408330Y-106616079D01*
X118428847Y-106603782D01*
X118450471Y-106593554D01*
X118472993Y-106585496D01*
X118496197Y-106579684D01*
X118519858Y-106576174D01*
X118543750Y-106575000D01*
X119456250Y-106575000D01*
X119480142Y-106576174D01*
G37*
G04 #@! TD.AperFunction*
G04 #@! TA.AperFunction,SMDPad,CuDef*
G36*
X111980142Y-79513674D02*
G01*
X112003803Y-79517184D01*
X112027007Y-79522996D01*
X112049529Y-79531054D01*
X112071153Y-79541282D01*
X112091670Y-79553579D01*
X112110883Y-79567829D01*
X112128607Y-79583893D01*
X112144671Y-79601617D01*
X112158921Y-79620830D01*
X112171218Y-79641347D01*
X112181446Y-79662971D01*
X112189504Y-79685493D01*
X112195316Y-79708697D01*
X112198826Y-79732358D01*
X112200000Y-79756250D01*
X112200000Y-80243750D01*
X112198826Y-80267642D01*
X112195316Y-80291303D01*
X112189504Y-80314507D01*
X112181446Y-80337029D01*
X112171218Y-80358653D01*
X112158921Y-80379170D01*
X112144671Y-80398383D01*
X112128607Y-80416107D01*
X112110883Y-80432171D01*
X112091670Y-80446421D01*
X112071153Y-80458718D01*
X112049529Y-80468946D01*
X112027007Y-80477004D01*
X112003803Y-80482816D01*
X111980142Y-80486326D01*
X111956250Y-80487500D01*
X111043750Y-80487500D01*
X111019858Y-80486326D01*
X110996197Y-80482816D01*
X110972993Y-80477004D01*
X110950471Y-80468946D01*
X110928847Y-80458718D01*
X110908330Y-80446421D01*
X110889117Y-80432171D01*
X110871393Y-80416107D01*
X110855329Y-80398383D01*
X110841079Y-80379170D01*
X110828782Y-80358653D01*
X110818554Y-80337029D01*
X110810496Y-80314507D01*
X110804684Y-80291303D01*
X110801174Y-80267642D01*
X110800000Y-80243750D01*
X110800000Y-79756250D01*
X110801174Y-79732358D01*
X110804684Y-79708697D01*
X110810496Y-79685493D01*
X110818554Y-79662971D01*
X110828782Y-79641347D01*
X110841079Y-79620830D01*
X110855329Y-79601617D01*
X110871393Y-79583893D01*
X110889117Y-79567829D01*
X110908330Y-79553579D01*
X110928847Y-79541282D01*
X110950471Y-79531054D01*
X110972993Y-79522996D01*
X110996197Y-79517184D01*
X111019858Y-79513674D01*
X111043750Y-79512500D01*
X111956250Y-79512500D01*
X111980142Y-79513674D01*
G37*
G04 #@! TD.AperFunction*
G04 #@! TA.AperFunction,SMDPad,CuDef*
G36*
X111980142Y-81388674D02*
G01*
X112003803Y-81392184D01*
X112027007Y-81397996D01*
X112049529Y-81406054D01*
X112071153Y-81416282D01*
X112091670Y-81428579D01*
X112110883Y-81442829D01*
X112128607Y-81458893D01*
X112144671Y-81476617D01*
X112158921Y-81495830D01*
X112171218Y-81516347D01*
X112181446Y-81537971D01*
X112189504Y-81560493D01*
X112195316Y-81583697D01*
X112198826Y-81607358D01*
X112200000Y-81631250D01*
X112200000Y-82118750D01*
X112198826Y-82142642D01*
X112195316Y-82166303D01*
X112189504Y-82189507D01*
X112181446Y-82212029D01*
X112171218Y-82233653D01*
X112158921Y-82254170D01*
X112144671Y-82273383D01*
X112128607Y-82291107D01*
X112110883Y-82307171D01*
X112091670Y-82321421D01*
X112071153Y-82333718D01*
X112049529Y-82343946D01*
X112027007Y-82352004D01*
X112003803Y-82357816D01*
X111980142Y-82361326D01*
X111956250Y-82362500D01*
X111043750Y-82362500D01*
X111019858Y-82361326D01*
X110996197Y-82357816D01*
X110972993Y-82352004D01*
X110950471Y-82343946D01*
X110928847Y-82333718D01*
X110908330Y-82321421D01*
X110889117Y-82307171D01*
X110871393Y-82291107D01*
X110855329Y-82273383D01*
X110841079Y-82254170D01*
X110828782Y-82233653D01*
X110818554Y-82212029D01*
X110810496Y-82189507D01*
X110804684Y-82166303D01*
X110801174Y-82142642D01*
X110800000Y-82118750D01*
X110800000Y-81631250D01*
X110801174Y-81607358D01*
X110804684Y-81583697D01*
X110810496Y-81560493D01*
X110818554Y-81537971D01*
X110828782Y-81516347D01*
X110841079Y-81495830D01*
X110855329Y-81476617D01*
X110871393Y-81458893D01*
X110889117Y-81442829D01*
X110908330Y-81428579D01*
X110928847Y-81416282D01*
X110950471Y-81406054D01*
X110972993Y-81397996D01*
X110996197Y-81392184D01*
X111019858Y-81388674D01*
X111043750Y-81387500D01*
X111956250Y-81387500D01*
X111980142Y-81388674D01*
G37*
G04 #@! TD.AperFunction*
G04 #@! TA.AperFunction,SMDPad,CuDef*
G36*
X110980142Y-91701174D02*
G01*
X111003803Y-91704684D01*
X111027007Y-91710496D01*
X111049529Y-91718554D01*
X111071153Y-91728782D01*
X111091670Y-91741079D01*
X111110883Y-91755329D01*
X111128607Y-91771393D01*
X111144671Y-91789117D01*
X111158921Y-91808330D01*
X111171218Y-91828847D01*
X111181446Y-91850471D01*
X111189504Y-91872993D01*
X111195316Y-91896197D01*
X111198826Y-91919858D01*
X111200000Y-91943750D01*
X111200000Y-92431250D01*
X111198826Y-92455142D01*
X111195316Y-92478803D01*
X111189504Y-92502007D01*
X111181446Y-92524529D01*
X111171218Y-92546153D01*
X111158921Y-92566670D01*
X111144671Y-92585883D01*
X111128607Y-92603607D01*
X111110883Y-92619671D01*
X111091670Y-92633921D01*
X111071153Y-92646218D01*
X111049529Y-92656446D01*
X111027007Y-92664504D01*
X111003803Y-92670316D01*
X110980142Y-92673826D01*
X110956250Y-92675000D01*
X110043750Y-92675000D01*
X110019858Y-92673826D01*
X109996197Y-92670316D01*
X109972993Y-92664504D01*
X109950471Y-92656446D01*
X109928847Y-92646218D01*
X109908330Y-92633921D01*
X109889117Y-92619671D01*
X109871393Y-92603607D01*
X109855329Y-92585883D01*
X109841079Y-92566670D01*
X109828782Y-92546153D01*
X109818554Y-92524529D01*
X109810496Y-92502007D01*
X109804684Y-92478803D01*
X109801174Y-92455142D01*
X109800000Y-92431250D01*
X109800000Y-91943750D01*
X109801174Y-91919858D01*
X109804684Y-91896197D01*
X109810496Y-91872993D01*
X109818554Y-91850471D01*
X109828782Y-91828847D01*
X109841079Y-91808330D01*
X109855329Y-91789117D01*
X109871393Y-91771393D01*
X109889117Y-91755329D01*
X109908330Y-91741079D01*
X109928847Y-91728782D01*
X109950471Y-91718554D01*
X109972993Y-91710496D01*
X109996197Y-91704684D01*
X110019858Y-91701174D01*
X110043750Y-91700000D01*
X110956250Y-91700000D01*
X110980142Y-91701174D01*
G37*
G04 #@! TD.AperFunction*
G04 #@! TA.AperFunction,SMDPad,CuDef*
G36*
X110980142Y-89826174D02*
G01*
X111003803Y-89829684D01*
X111027007Y-89835496D01*
X111049529Y-89843554D01*
X111071153Y-89853782D01*
X111091670Y-89866079D01*
X111110883Y-89880329D01*
X111128607Y-89896393D01*
X111144671Y-89914117D01*
X111158921Y-89933330D01*
X111171218Y-89953847D01*
X111181446Y-89975471D01*
X111189504Y-89997993D01*
X111195316Y-90021197D01*
X111198826Y-90044858D01*
X111200000Y-90068750D01*
X111200000Y-90556250D01*
X111198826Y-90580142D01*
X111195316Y-90603803D01*
X111189504Y-90627007D01*
X111181446Y-90649529D01*
X111171218Y-90671153D01*
X111158921Y-90691670D01*
X111144671Y-90710883D01*
X111128607Y-90728607D01*
X111110883Y-90744671D01*
X111091670Y-90758921D01*
X111071153Y-90771218D01*
X111049529Y-90781446D01*
X111027007Y-90789504D01*
X111003803Y-90795316D01*
X110980142Y-90798826D01*
X110956250Y-90800000D01*
X110043750Y-90800000D01*
X110019858Y-90798826D01*
X109996197Y-90795316D01*
X109972993Y-90789504D01*
X109950471Y-90781446D01*
X109928847Y-90771218D01*
X109908330Y-90758921D01*
X109889117Y-90744671D01*
X109871393Y-90728607D01*
X109855329Y-90710883D01*
X109841079Y-90691670D01*
X109828782Y-90671153D01*
X109818554Y-90649529D01*
X109810496Y-90627007D01*
X109804684Y-90603803D01*
X109801174Y-90580142D01*
X109800000Y-90556250D01*
X109800000Y-90068750D01*
X109801174Y-90044858D01*
X109804684Y-90021197D01*
X109810496Y-89997993D01*
X109818554Y-89975471D01*
X109828782Y-89953847D01*
X109841079Y-89933330D01*
X109855329Y-89914117D01*
X109871393Y-89896393D01*
X109889117Y-89880329D01*
X109908330Y-89866079D01*
X109928847Y-89853782D01*
X109950471Y-89843554D01*
X109972993Y-89835496D01*
X109996197Y-89829684D01*
X110019858Y-89826174D01*
X110043750Y-89825000D01*
X110956250Y-89825000D01*
X110980142Y-89826174D01*
G37*
G04 #@! TD.AperFunction*
G04 #@! TA.AperFunction,SMDPad,CuDef*
G36*
X111980142Y-74451174D02*
G01*
X112003803Y-74454684D01*
X112027007Y-74460496D01*
X112049529Y-74468554D01*
X112071153Y-74478782D01*
X112091670Y-74491079D01*
X112110883Y-74505329D01*
X112128607Y-74521393D01*
X112144671Y-74539117D01*
X112158921Y-74558330D01*
X112171218Y-74578847D01*
X112181446Y-74600471D01*
X112189504Y-74622993D01*
X112195316Y-74646197D01*
X112198826Y-74669858D01*
X112200000Y-74693750D01*
X112200000Y-75181250D01*
X112198826Y-75205142D01*
X112195316Y-75228803D01*
X112189504Y-75252007D01*
X112181446Y-75274529D01*
X112171218Y-75296153D01*
X112158921Y-75316670D01*
X112144671Y-75335883D01*
X112128607Y-75353607D01*
X112110883Y-75369671D01*
X112091670Y-75383921D01*
X112071153Y-75396218D01*
X112049529Y-75406446D01*
X112027007Y-75414504D01*
X112003803Y-75420316D01*
X111980142Y-75423826D01*
X111956250Y-75425000D01*
X111043750Y-75425000D01*
X111019858Y-75423826D01*
X110996197Y-75420316D01*
X110972993Y-75414504D01*
X110950471Y-75406446D01*
X110928847Y-75396218D01*
X110908330Y-75383921D01*
X110889117Y-75369671D01*
X110871393Y-75353607D01*
X110855329Y-75335883D01*
X110841079Y-75316670D01*
X110828782Y-75296153D01*
X110818554Y-75274529D01*
X110810496Y-75252007D01*
X110804684Y-75228803D01*
X110801174Y-75205142D01*
X110800000Y-75181250D01*
X110800000Y-74693750D01*
X110801174Y-74669858D01*
X110804684Y-74646197D01*
X110810496Y-74622993D01*
X110818554Y-74600471D01*
X110828782Y-74578847D01*
X110841079Y-74558330D01*
X110855329Y-74539117D01*
X110871393Y-74521393D01*
X110889117Y-74505329D01*
X110908330Y-74491079D01*
X110928847Y-74478782D01*
X110950471Y-74468554D01*
X110972993Y-74460496D01*
X110996197Y-74454684D01*
X111019858Y-74451174D01*
X111043750Y-74450000D01*
X111956250Y-74450000D01*
X111980142Y-74451174D01*
G37*
G04 #@! TD.AperFunction*
G04 #@! TA.AperFunction,SMDPad,CuDef*
G36*
X111980142Y-72576174D02*
G01*
X112003803Y-72579684D01*
X112027007Y-72585496D01*
X112049529Y-72593554D01*
X112071153Y-72603782D01*
X112091670Y-72616079D01*
X112110883Y-72630329D01*
X112128607Y-72646393D01*
X112144671Y-72664117D01*
X112158921Y-72683330D01*
X112171218Y-72703847D01*
X112181446Y-72725471D01*
X112189504Y-72747993D01*
X112195316Y-72771197D01*
X112198826Y-72794858D01*
X112200000Y-72818750D01*
X112200000Y-73306250D01*
X112198826Y-73330142D01*
X112195316Y-73353803D01*
X112189504Y-73377007D01*
X112181446Y-73399529D01*
X112171218Y-73421153D01*
X112158921Y-73441670D01*
X112144671Y-73460883D01*
X112128607Y-73478607D01*
X112110883Y-73494671D01*
X112091670Y-73508921D01*
X112071153Y-73521218D01*
X112049529Y-73531446D01*
X112027007Y-73539504D01*
X112003803Y-73545316D01*
X111980142Y-73548826D01*
X111956250Y-73550000D01*
X111043750Y-73550000D01*
X111019858Y-73548826D01*
X110996197Y-73545316D01*
X110972993Y-73539504D01*
X110950471Y-73531446D01*
X110928847Y-73521218D01*
X110908330Y-73508921D01*
X110889117Y-73494671D01*
X110871393Y-73478607D01*
X110855329Y-73460883D01*
X110841079Y-73441670D01*
X110828782Y-73421153D01*
X110818554Y-73399529D01*
X110810496Y-73377007D01*
X110804684Y-73353803D01*
X110801174Y-73330142D01*
X110800000Y-73306250D01*
X110800000Y-72818750D01*
X110801174Y-72794858D01*
X110804684Y-72771197D01*
X110810496Y-72747993D01*
X110818554Y-72725471D01*
X110828782Y-72703847D01*
X110841079Y-72683330D01*
X110855329Y-72664117D01*
X110871393Y-72646393D01*
X110889117Y-72630329D01*
X110908330Y-72616079D01*
X110928847Y-72603782D01*
X110950471Y-72593554D01*
X110972993Y-72585496D01*
X110996197Y-72579684D01*
X111019858Y-72576174D01*
X111043750Y-72575000D01*
X111956250Y-72575000D01*
X111980142Y-72576174D01*
G37*
G04 #@! TD.AperFunction*
G04 #@! TA.AperFunction,SMDPad,CuDef*
G36*
X110642642Y-76801174D02*
G01*
X110666303Y-76804684D01*
X110689507Y-76810496D01*
X110712029Y-76818554D01*
X110733653Y-76828782D01*
X110754170Y-76841079D01*
X110773383Y-76855329D01*
X110791107Y-76871393D01*
X110807171Y-76889117D01*
X110821421Y-76908330D01*
X110833718Y-76928847D01*
X110843946Y-76950471D01*
X110852004Y-76972993D01*
X110857816Y-76996197D01*
X110861326Y-77019858D01*
X110862500Y-77043750D01*
X110862500Y-77956250D01*
X110861326Y-77980142D01*
X110857816Y-78003803D01*
X110852004Y-78027007D01*
X110843946Y-78049529D01*
X110833718Y-78071153D01*
X110821421Y-78091670D01*
X110807171Y-78110883D01*
X110791107Y-78128607D01*
X110773383Y-78144671D01*
X110754170Y-78158921D01*
X110733653Y-78171218D01*
X110712029Y-78181446D01*
X110689507Y-78189504D01*
X110666303Y-78195316D01*
X110642642Y-78198826D01*
X110618750Y-78200000D01*
X110131250Y-78200000D01*
X110107358Y-78198826D01*
X110083697Y-78195316D01*
X110060493Y-78189504D01*
X110037971Y-78181446D01*
X110016347Y-78171218D01*
X109995830Y-78158921D01*
X109976617Y-78144671D01*
X109958893Y-78128607D01*
X109942829Y-78110883D01*
X109928579Y-78091670D01*
X109916282Y-78071153D01*
X109906054Y-78049529D01*
X109897996Y-78027007D01*
X109892184Y-78003803D01*
X109888674Y-77980142D01*
X109887500Y-77956250D01*
X109887500Y-77043750D01*
X109888674Y-77019858D01*
X109892184Y-76996197D01*
X109897996Y-76972993D01*
X109906054Y-76950471D01*
X109916282Y-76928847D01*
X109928579Y-76908330D01*
X109942829Y-76889117D01*
X109958893Y-76871393D01*
X109976617Y-76855329D01*
X109995830Y-76841079D01*
X110016347Y-76828782D01*
X110037971Y-76818554D01*
X110060493Y-76810496D01*
X110083697Y-76804684D01*
X110107358Y-76801174D01*
X110131250Y-76800000D01*
X110618750Y-76800000D01*
X110642642Y-76801174D01*
G37*
G04 #@! TD.AperFunction*
G04 #@! TA.AperFunction,SMDPad,CuDef*
G36*
X108767642Y-76801174D02*
G01*
X108791303Y-76804684D01*
X108814507Y-76810496D01*
X108837029Y-76818554D01*
X108858653Y-76828782D01*
X108879170Y-76841079D01*
X108898383Y-76855329D01*
X108916107Y-76871393D01*
X108932171Y-76889117D01*
X108946421Y-76908330D01*
X108958718Y-76928847D01*
X108968946Y-76950471D01*
X108977004Y-76972993D01*
X108982816Y-76996197D01*
X108986326Y-77019858D01*
X108987500Y-77043750D01*
X108987500Y-77956250D01*
X108986326Y-77980142D01*
X108982816Y-78003803D01*
X108977004Y-78027007D01*
X108968946Y-78049529D01*
X108958718Y-78071153D01*
X108946421Y-78091670D01*
X108932171Y-78110883D01*
X108916107Y-78128607D01*
X108898383Y-78144671D01*
X108879170Y-78158921D01*
X108858653Y-78171218D01*
X108837029Y-78181446D01*
X108814507Y-78189504D01*
X108791303Y-78195316D01*
X108767642Y-78198826D01*
X108743750Y-78200000D01*
X108256250Y-78200000D01*
X108232358Y-78198826D01*
X108208697Y-78195316D01*
X108185493Y-78189504D01*
X108162971Y-78181446D01*
X108141347Y-78171218D01*
X108120830Y-78158921D01*
X108101617Y-78144671D01*
X108083893Y-78128607D01*
X108067829Y-78110883D01*
X108053579Y-78091670D01*
X108041282Y-78071153D01*
X108031054Y-78049529D01*
X108022996Y-78027007D01*
X108017184Y-78003803D01*
X108013674Y-77980142D01*
X108012500Y-77956250D01*
X108012500Y-77043750D01*
X108013674Y-77019858D01*
X108017184Y-76996197D01*
X108022996Y-76972993D01*
X108031054Y-76950471D01*
X108041282Y-76928847D01*
X108053579Y-76908330D01*
X108067829Y-76889117D01*
X108083893Y-76871393D01*
X108101617Y-76855329D01*
X108120830Y-76841079D01*
X108141347Y-76828782D01*
X108162971Y-76818554D01*
X108185493Y-76810496D01*
X108208697Y-76804684D01*
X108232358Y-76801174D01*
X108256250Y-76800000D01*
X108743750Y-76800000D01*
X108767642Y-76801174D01*
G37*
G04 #@! TD.AperFunction*
G04 #@! TA.AperFunction,SMDPad,CuDef*
G36*
X106705142Y-61801174D02*
G01*
X106728803Y-61804684D01*
X106752007Y-61810496D01*
X106774529Y-61818554D01*
X106796153Y-61828782D01*
X106816670Y-61841079D01*
X106835883Y-61855329D01*
X106853607Y-61871393D01*
X106869671Y-61889117D01*
X106883921Y-61908330D01*
X106896218Y-61928847D01*
X106906446Y-61950471D01*
X106914504Y-61972993D01*
X106920316Y-61996197D01*
X106923826Y-62019858D01*
X106925000Y-62043750D01*
X106925000Y-62956250D01*
X106923826Y-62980142D01*
X106920316Y-63003803D01*
X106914504Y-63027007D01*
X106906446Y-63049529D01*
X106896218Y-63071153D01*
X106883921Y-63091670D01*
X106869671Y-63110883D01*
X106853607Y-63128607D01*
X106835883Y-63144671D01*
X106816670Y-63158921D01*
X106796153Y-63171218D01*
X106774529Y-63181446D01*
X106752007Y-63189504D01*
X106728803Y-63195316D01*
X106705142Y-63198826D01*
X106681250Y-63200000D01*
X106193750Y-63200000D01*
X106169858Y-63198826D01*
X106146197Y-63195316D01*
X106122993Y-63189504D01*
X106100471Y-63181446D01*
X106078847Y-63171218D01*
X106058330Y-63158921D01*
X106039117Y-63144671D01*
X106021393Y-63128607D01*
X106005329Y-63110883D01*
X105991079Y-63091670D01*
X105978782Y-63071153D01*
X105968554Y-63049529D01*
X105960496Y-63027007D01*
X105954684Y-63003803D01*
X105951174Y-62980142D01*
X105950000Y-62956250D01*
X105950000Y-62043750D01*
X105951174Y-62019858D01*
X105954684Y-61996197D01*
X105960496Y-61972993D01*
X105968554Y-61950471D01*
X105978782Y-61928847D01*
X105991079Y-61908330D01*
X106005329Y-61889117D01*
X106021393Y-61871393D01*
X106039117Y-61855329D01*
X106058330Y-61841079D01*
X106078847Y-61828782D01*
X106100471Y-61818554D01*
X106122993Y-61810496D01*
X106146197Y-61804684D01*
X106169858Y-61801174D01*
X106193750Y-61800000D01*
X106681250Y-61800000D01*
X106705142Y-61801174D01*
G37*
G04 #@! TD.AperFunction*
G04 #@! TA.AperFunction,SMDPad,CuDef*
G36*
X104830142Y-61801174D02*
G01*
X104853803Y-61804684D01*
X104877007Y-61810496D01*
X104899529Y-61818554D01*
X104921153Y-61828782D01*
X104941670Y-61841079D01*
X104960883Y-61855329D01*
X104978607Y-61871393D01*
X104994671Y-61889117D01*
X105008921Y-61908330D01*
X105021218Y-61928847D01*
X105031446Y-61950471D01*
X105039504Y-61972993D01*
X105045316Y-61996197D01*
X105048826Y-62019858D01*
X105050000Y-62043750D01*
X105050000Y-62956250D01*
X105048826Y-62980142D01*
X105045316Y-63003803D01*
X105039504Y-63027007D01*
X105031446Y-63049529D01*
X105021218Y-63071153D01*
X105008921Y-63091670D01*
X104994671Y-63110883D01*
X104978607Y-63128607D01*
X104960883Y-63144671D01*
X104941670Y-63158921D01*
X104921153Y-63171218D01*
X104899529Y-63181446D01*
X104877007Y-63189504D01*
X104853803Y-63195316D01*
X104830142Y-63198826D01*
X104806250Y-63200000D01*
X104318750Y-63200000D01*
X104294858Y-63198826D01*
X104271197Y-63195316D01*
X104247993Y-63189504D01*
X104225471Y-63181446D01*
X104203847Y-63171218D01*
X104183330Y-63158921D01*
X104164117Y-63144671D01*
X104146393Y-63128607D01*
X104130329Y-63110883D01*
X104116079Y-63091670D01*
X104103782Y-63071153D01*
X104093554Y-63049529D01*
X104085496Y-63027007D01*
X104079684Y-63003803D01*
X104076174Y-62980142D01*
X104075000Y-62956250D01*
X104075000Y-62043750D01*
X104076174Y-62019858D01*
X104079684Y-61996197D01*
X104085496Y-61972993D01*
X104093554Y-61950471D01*
X104103782Y-61928847D01*
X104116079Y-61908330D01*
X104130329Y-61889117D01*
X104146393Y-61871393D01*
X104164117Y-61855329D01*
X104183330Y-61841079D01*
X104203847Y-61828782D01*
X104225471Y-61818554D01*
X104247993Y-61810496D01*
X104271197Y-61804684D01*
X104294858Y-61801174D01*
X104318750Y-61800000D01*
X104806250Y-61800000D01*
X104830142Y-61801174D01*
G37*
G04 #@! TD.AperFunction*
G04 #@! TA.AperFunction,SMDPad,CuDef*
G36*
X111480142Y-106451174D02*
G01*
X111503803Y-106454684D01*
X111527007Y-106460496D01*
X111549529Y-106468554D01*
X111571153Y-106478782D01*
X111591670Y-106491079D01*
X111610883Y-106505329D01*
X111628607Y-106521393D01*
X111644671Y-106539117D01*
X111658921Y-106558330D01*
X111671218Y-106578847D01*
X111681446Y-106600471D01*
X111689504Y-106622993D01*
X111695316Y-106646197D01*
X111698826Y-106669858D01*
X111700000Y-106693750D01*
X111700000Y-107181250D01*
X111698826Y-107205142D01*
X111695316Y-107228803D01*
X111689504Y-107252007D01*
X111681446Y-107274529D01*
X111671218Y-107296153D01*
X111658921Y-107316670D01*
X111644671Y-107335883D01*
X111628607Y-107353607D01*
X111610883Y-107369671D01*
X111591670Y-107383921D01*
X111571153Y-107396218D01*
X111549529Y-107406446D01*
X111527007Y-107414504D01*
X111503803Y-107420316D01*
X111480142Y-107423826D01*
X111456250Y-107425000D01*
X110543750Y-107425000D01*
X110519858Y-107423826D01*
X110496197Y-107420316D01*
X110472993Y-107414504D01*
X110450471Y-107406446D01*
X110428847Y-107396218D01*
X110408330Y-107383921D01*
X110389117Y-107369671D01*
X110371393Y-107353607D01*
X110355329Y-107335883D01*
X110341079Y-107316670D01*
X110328782Y-107296153D01*
X110318554Y-107274529D01*
X110310496Y-107252007D01*
X110304684Y-107228803D01*
X110301174Y-107205142D01*
X110300000Y-107181250D01*
X110300000Y-106693750D01*
X110301174Y-106669858D01*
X110304684Y-106646197D01*
X110310496Y-106622993D01*
X110318554Y-106600471D01*
X110328782Y-106578847D01*
X110341079Y-106558330D01*
X110355329Y-106539117D01*
X110371393Y-106521393D01*
X110389117Y-106505329D01*
X110408330Y-106491079D01*
X110428847Y-106478782D01*
X110450471Y-106468554D01*
X110472993Y-106460496D01*
X110496197Y-106454684D01*
X110519858Y-106451174D01*
X110543750Y-106450000D01*
X111456250Y-106450000D01*
X111480142Y-106451174D01*
G37*
G04 #@! TD.AperFunction*
G04 #@! TA.AperFunction,SMDPad,CuDef*
G36*
X111480142Y-104576174D02*
G01*
X111503803Y-104579684D01*
X111527007Y-104585496D01*
X111549529Y-104593554D01*
X111571153Y-104603782D01*
X111591670Y-104616079D01*
X111610883Y-104630329D01*
X111628607Y-104646393D01*
X111644671Y-104664117D01*
X111658921Y-104683330D01*
X111671218Y-104703847D01*
X111681446Y-104725471D01*
X111689504Y-104747993D01*
X111695316Y-104771197D01*
X111698826Y-104794858D01*
X111700000Y-104818750D01*
X111700000Y-105306250D01*
X111698826Y-105330142D01*
X111695316Y-105353803D01*
X111689504Y-105377007D01*
X111681446Y-105399529D01*
X111671218Y-105421153D01*
X111658921Y-105441670D01*
X111644671Y-105460883D01*
X111628607Y-105478607D01*
X111610883Y-105494671D01*
X111591670Y-105508921D01*
X111571153Y-105521218D01*
X111549529Y-105531446D01*
X111527007Y-105539504D01*
X111503803Y-105545316D01*
X111480142Y-105548826D01*
X111456250Y-105550000D01*
X110543750Y-105550000D01*
X110519858Y-105548826D01*
X110496197Y-105545316D01*
X110472993Y-105539504D01*
X110450471Y-105531446D01*
X110428847Y-105521218D01*
X110408330Y-105508921D01*
X110389117Y-105494671D01*
X110371393Y-105478607D01*
X110355329Y-105460883D01*
X110341079Y-105441670D01*
X110328782Y-105421153D01*
X110318554Y-105399529D01*
X110310496Y-105377007D01*
X110304684Y-105353803D01*
X110301174Y-105330142D01*
X110300000Y-105306250D01*
X110300000Y-104818750D01*
X110301174Y-104794858D01*
X110304684Y-104771197D01*
X110310496Y-104747993D01*
X110318554Y-104725471D01*
X110328782Y-104703847D01*
X110341079Y-104683330D01*
X110355329Y-104664117D01*
X110371393Y-104646393D01*
X110389117Y-104630329D01*
X110408330Y-104616079D01*
X110428847Y-104603782D01*
X110450471Y-104593554D01*
X110472993Y-104585496D01*
X110496197Y-104579684D01*
X110519858Y-104576174D01*
X110543750Y-104575000D01*
X111456250Y-104575000D01*
X111480142Y-104576174D01*
G37*
G04 #@! TD.AperFunction*
D12*
X104000000Y-58775000D03*
X104000000Y-53225000D03*
D13*
X117775000Y-115000000D03*
X112225000Y-115000000D03*
D14*
X114750000Y-62250000D03*
X114750000Y-64790000D03*
X114750000Y-67330000D03*
X114750000Y-69870000D03*
X114750000Y-72410000D03*
X114750000Y-74950000D03*
X114750000Y-77490000D03*
X114750000Y-80030000D03*
X114750000Y-82570000D03*
X114750000Y-85110000D03*
X114750000Y-87650000D03*
D15*
X114750000Y-90190000D03*
D16*
X87500000Y-53500000D03*
X92500000Y-53500000D03*
D14*
X122000000Y-131420000D03*
X122000000Y-133960000D03*
D15*
X122000000Y-136500000D03*
D17*
X108100080Y-145851160D03*
X111897380Y-145853700D03*
D18*
X111300480Y-145000000D03*
X110647700Y-145000000D03*
X110000000Y-145000000D03*
X109352300Y-145000000D03*
X108699520Y-145000000D03*
D19*
X106050300Y-148000000D03*
X113949700Y-148000000D03*
X111198880Y-148000000D03*
X108801120Y-148000000D03*
G04 #@! TA.AperFunction,SMDPad,CuDef*
D10*
G36*
X112074504Y-50951204D02*
G01*
X112098773Y-50954804D01*
X112122571Y-50960765D01*
X112145671Y-50969030D01*
X112167849Y-50979520D01*
X112188893Y-50992133D01*
X112208598Y-51006747D01*
X112226777Y-51023223D01*
X112243253Y-51041402D01*
X112257867Y-51061107D01*
X112270480Y-51082151D01*
X112280970Y-51104329D01*
X112289235Y-51127429D01*
X112295196Y-51151227D01*
X112298796Y-51175496D01*
X112300000Y-51200000D01*
X112300000Y-54200000D01*
X112298796Y-54224504D01*
X112295196Y-54248773D01*
X112289235Y-54272571D01*
X112280970Y-54295671D01*
X112270480Y-54317849D01*
X112257867Y-54338893D01*
X112243253Y-54358598D01*
X112226777Y-54376777D01*
X112208598Y-54393253D01*
X112188893Y-54407867D01*
X112167849Y-54420480D01*
X112145671Y-54430970D01*
X112122571Y-54439235D01*
X112098773Y-54445196D01*
X112074504Y-54448796D01*
X112050000Y-54450000D01*
X110950000Y-54450000D01*
X110925496Y-54448796D01*
X110901227Y-54445196D01*
X110877429Y-54439235D01*
X110854329Y-54430970D01*
X110832151Y-54420480D01*
X110811107Y-54407867D01*
X110791402Y-54393253D01*
X110773223Y-54376777D01*
X110756747Y-54358598D01*
X110742133Y-54338893D01*
X110729520Y-54317849D01*
X110719030Y-54295671D01*
X110710765Y-54272571D01*
X110704804Y-54248773D01*
X110701204Y-54224504D01*
X110700000Y-54200000D01*
X110700000Y-51200000D01*
X110701204Y-51175496D01*
X110704804Y-51151227D01*
X110710765Y-51127429D01*
X110719030Y-51104329D01*
X110729520Y-51082151D01*
X110742133Y-51061107D01*
X110756747Y-51041402D01*
X110773223Y-51023223D01*
X110791402Y-51006747D01*
X110811107Y-50992133D01*
X110832151Y-50979520D01*
X110854329Y-50969030D01*
X110877429Y-50960765D01*
X110901227Y-50954804D01*
X110925496Y-50951204D01*
X110950000Y-50950000D01*
X112050000Y-50950000D01*
X112074504Y-50951204D01*
G37*
G04 #@! TD.AperFunction*
G04 #@! TA.AperFunction,SMDPad,CuDef*
G36*
X112074504Y-56551204D02*
G01*
X112098773Y-56554804D01*
X112122571Y-56560765D01*
X112145671Y-56569030D01*
X112167849Y-56579520D01*
X112188893Y-56592133D01*
X112208598Y-56606747D01*
X112226777Y-56623223D01*
X112243253Y-56641402D01*
X112257867Y-56661107D01*
X112270480Y-56682151D01*
X112280970Y-56704329D01*
X112289235Y-56727429D01*
X112295196Y-56751227D01*
X112298796Y-56775496D01*
X112300000Y-56800000D01*
X112300000Y-59800000D01*
X112298796Y-59824504D01*
X112295196Y-59848773D01*
X112289235Y-59872571D01*
X112280970Y-59895671D01*
X112270480Y-59917849D01*
X112257867Y-59938893D01*
X112243253Y-59958598D01*
X112226777Y-59976777D01*
X112208598Y-59993253D01*
X112188893Y-60007867D01*
X112167849Y-60020480D01*
X112145671Y-60030970D01*
X112122571Y-60039235D01*
X112098773Y-60045196D01*
X112074504Y-60048796D01*
X112050000Y-60050000D01*
X110950000Y-60050000D01*
X110925496Y-60048796D01*
X110901227Y-60045196D01*
X110877429Y-60039235D01*
X110854329Y-60030970D01*
X110832151Y-60020480D01*
X110811107Y-60007867D01*
X110791402Y-59993253D01*
X110773223Y-59976777D01*
X110756747Y-59958598D01*
X110742133Y-59938893D01*
X110729520Y-59917849D01*
X110719030Y-59895671D01*
X110710765Y-59872571D01*
X110704804Y-59848773D01*
X110701204Y-59824504D01*
X110700000Y-59800000D01*
X110700000Y-56800000D01*
X110701204Y-56775496D01*
X110704804Y-56751227D01*
X110710765Y-56727429D01*
X110719030Y-56704329D01*
X110729520Y-56682151D01*
X110742133Y-56661107D01*
X110756747Y-56641402D01*
X110773223Y-56623223D01*
X110791402Y-56606747D01*
X110811107Y-56592133D01*
X110832151Y-56579520D01*
X110854329Y-56569030D01*
X110877429Y-56560765D01*
X110901227Y-56554804D01*
X110925496Y-56551204D01*
X110950000Y-56550000D01*
X112050000Y-56550000D01*
X112074504Y-56551204D01*
G37*
G04 #@! TD.AperFunction*
G04 #@! TA.AperFunction,SMDPad,CuDef*
G36*
X113724504Y-122201204D02*
G01*
X113748773Y-122204804D01*
X113772571Y-122210765D01*
X113795671Y-122219030D01*
X113817849Y-122229520D01*
X113838893Y-122242133D01*
X113858598Y-122256747D01*
X113876777Y-122273223D01*
X113893253Y-122291402D01*
X113907867Y-122311107D01*
X113920480Y-122332151D01*
X113930970Y-122354329D01*
X113939235Y-122377429D01*
X113945196Y-122401227D01*
X113948796Y-122425496D01*
X113950000Y-122450000D01*
X113950000Y-123550000D01*
X113948796Y-123574504D01*
X113945196Y-123598773D01*
X113939235Y-123622571D01*
X113930970Y-123645671D01*
X113920480Y-123667849D01*
X113907867Y-123688893D01*
X113893253Y-123708598D01*
X113876777Y-123726777D01*
X113858598Y-123743253D01*
X113838893Y-123757867D01*
X113817849Y-123770480D01*
X113795671Y-123780970D01*
X113772571Y-123789235D01*
X113748773Y-123795196D01*
X113724504Y-123798796D01*
X113700000Y-123800000D01*
X110700000Y-123800000D01*
X110675496Y-123798796D01*
X110651227Y-123795196D01*
X110627429Y-123789235D01*
X110604329Y-123780970D01*
X110582151Y-123770480D01*
X110561107Y-123757867D01*
X110541402Y-123743253D01*
X110523223Y-123726777D01*
X110506747Y-123708598D01*
X110492133Y-123688893D01*
X110479520Y-123667849D01*
X110469030Y-123645671D01*
X110460765Y-123622571D01*
X110454804Y-123598773D01*
X110451204Y-123574504D01*
X110450000Y-123550000D01*
X110450000Y-122450000D01*
X110451204Y-122425496D01*
X110454804Y-122401227D01*
X110460765Y-122377429D01*
X110469030Y-122354329D01*
X110479520Y-122332151D01*
X110492133Y-122311107D01*
X110506747Y-122291402D01*
X110523223Y-122273223D01*
X110541402Y-122256747D01*
X110561107Y-122242133D01*
X110582151Y-122229520D01*
X110604329Y-122219030D01*
X110627429Y-122210765D01*
X110651227Y-122204804D01*
X110675496Y-122201204D01*
X110700000Y-122200000D01*
X113700000Y-122200000D01*
X113724504Y-122201204D01*
G37*
G04 #@! TD.AperFunction*
G04 #@! TA.AperFunction,SMDPad,CuDef*
G36*
X119324504Y-122201204D02*
G01*
X119348773Y-122204804D01*
X119372571Y-122210765D01*
X119395671Y-122219030D01*
X119417849Y-122229520D01*
X119438893Y-122242133D01*
X119458598Y-122256747D01*
X119476777Y-122273223D01*
X119493253Y-122291402D01*
X119507867Y-122311107D01*
X119520480Y-122332151D01*
X119530970Y-122354329D01*
X119539235Y-122377429D01*
X119545196Y-122401227D01*
X119548796Y-122425496D01*
X119550000Y-122450000D01*
X119550000Y-123550000D01*
X119548796Y-123574504D01*
X119545196Y-123598773D01*
X119539235Y-123622571D01*
X119530970Y-123645671D01*
X119520480Y-123667849D01*
X119507867Y-123688893D01*
X119493253Y-123708598D01*
X119476777Y-123726777D01*
X119458598Y-123743253D01*
X119438893Y-123757867D01*
X119417849Y-123770480D01*
X119395671Y-123780970D01*
X119372571Y-123789235D01*
X119348773Y-123795196D01*
X119324504Y-123798796D01*
X119300000Y-123800000D01*
X116300000Y-123800000D01*
X116275496Y-123798796D01*
X116251227Y-123795196D01*
X116227429Y-123789235D01*
X116204329Y-123780970D01*
X116182151Y-123770480D01*
X116161107Y-123757867D01*
X116141402Y-123743253D01*
X116123223Y-123726777D01*
X116106747Y-123708598D01*
X116092133Y-123688893D01*
X116079520Y-123667849D01*
X116069030Y-123645671D01*
X116060765Y-123622571D01*
X116054804Y-123598773D01*
X116051204Y-123574504D01*
X116050000Y-123550000D01*
X116050000Y-122450000D01*
X116051204Y-122425496D01*
X116054804Y-122401227D01*
X116060765Y-122377429D01*
X116069030Y-122354329D01*
X116079520Y-122332151D01*
X116092133Y-122311107D01*
X116106747Y-122291402D01*
X116123223Y-122273223D01*
X116141402Y-122256747D01*
X116161107Y-122242133D01*
X116182151Y-122229520D01*
X116204329Y-122219030D01*
X116227429Y-122210765D01*
X116251227Y-122204804D01*
X116275496Y-122201204D01*
X116300000Y-122200000D01*
X119300000Y-122200000D01*
X119324504Y-122201204D01*
G37*
G04 #@! TD.AperFunction*
G04 #@! TA.AperFunction,SMDPad,CuDef*
G36*
X99205142Y-51801174D02*
G01*
X99228803Y-51804684D01*
X99252007Y-51810496D01*
X99274529Y-51818554D01*
X99296153Y-51828782D01*
X99316670Y-51841079D01*
X99335883Y-51855329D01*
X99353607Y-51871393D01*
X99369671Y-51889117D01*
X99383921Y-51908330D01*
X99396218Y-51928847D01*
X99406446Y-51950471D01*
X99414504Y-51972993D01*
X99420316Y-51996197D01*
X99423826Y-52019858D01*
X99425000Y-52043750D01*
X99425000Y-52956250D01*
X99423826Y-52980142D01*
X99420316Y-53003803D01*
X99414504Y-53027007D01*
X99406446Y-53049529D01*
X99396218Y-53071153D01*
X99383921Y-53091670D01*
X99369671Y-53110883D01*
X99353607Y-53128607D01*
X99335883Y-53144671D01*
X99316670Y-53158921D01*
X99296153Y-53171218D01*
X99274529Y-53181446D01*
X99252007Y-53189504D01*
X99228803Y-53195316D01*
X99205142Y-53198826D01*
X99181250Y-53200000D01*
X98693750Y-53200000D01*
X98669858Y-53198826D01*
X98646197Y-53195316D01*
X98622993Y-53189504D01*
X98600471Y-53181446D01*
X98578847Y-53171218D01*
X98558330Y-53158921D01*
X98539117Y-53144671D01*
X98521393Y-53128607D01*
X98505329Y-53110883D01*
X98491079Y-53091670D01*
X98478782Y-53071153D01*
X98468554Y-53049529D01*
X98460496Y-53027007D01*
X98454684Y-53003803D01*
X98451174Y-52980142D01*
X98450000Y-52956250D01*
X98450000Y-52043750D01*
X98451174Y-52019858D01*
X98454684Y-51996197D01*
X98460496Y-51972993D01*
X98468554Y-51950471D01*
X98478782Y-51928847D01*
X98491079Y-51908330D01*
X98505329Y-51889117D01*
X98521393Y-51871393D01*
X98539117Y-51855329D01*
X98558330Y-51841079D01*
X98578847Y-51828782D01*
X98600471Y-51818554D01*
X98622993Y-51810496D01*
X98646197Y-51804684D01*
X98669858Y-51801174D01*
X98693750Y-51800000D01*
X99181250Y-51800000D01*
X99205142Y-51801174D01*
G37*
G04 #@! TD.AperFunction*
G04 #@! TA.AperFunction,SMDPad,CuDef*
G36*
X97330142Y-51801174D02*
G01*
X97353803Y-51804684D01*
X97377007Y-51810496D01*
X97399529Y-51818554D01*
X97421153Y-51828782D01*
X97441670Y-51841079D01*
X97460883Y-51855329D01*
X97478607Y-51871393D01*
X97494671Y-51889117D01*
X97508921Y-51908330D01*
X97521218Y-51928847D01*
X97531446Y-51950471D01*
X97539504Y-51972993D01*
X97545316Y-51996197D01*
X97548826Y-52019858D01*
X97550000Y-52043750D01*
X97550000Y-52956250D01*
X97548826Y-52980142D01*
X97545316Y-53003803D01*
X97539504Y-53027007D01*
X97531446Y-53049529D01*
X97521218Y-53071153D01*
X97508921Y-53091670D01*
X97494671Y-53110883D01*
X97478607Y-53128607D01*
X97460883Y-53144671D01*
X97441670Y-53158921D01*
X97421153Y-53171218D01*
X97399529Y-53181446D01*
X97377007Y-53189504D01*
X97353803Y-53195316D01*
X97330142Y-53198826D01*
X97306250Y-53200000D01*
X96818750Y-53200000D01*
X96794858Y-53198826D01*
X96771197Y-53195316D01*
X96747993Y-53189504D01*
X96725471Y-53181446D01*
X96703847Y-53171218D01*
X96683330Y-53158921D01*
X96664117Y-53144671D01*
X96646393Y-53128607D01*
X96630329Y-53110883D01*
X96616079Y-53091670D01*
X96603782Y-53071153D01*
X96593554Y-53049529D01*
X96585496Y-53027007D01*
X96579684Y-53003803D01*
X96576174Y-52980142D01*
X96575000Y-52956250D01*
X96575000Y-52043750D01*
X96576174Y-52019858D01*
X96579684Y-51996197D01*
X96585496Y-51972993D01*
X96593554Y-51950471D01*
X96603782Y-51928847D01*
X96616079Y-51908330D01*
X96630329Y-51889117D01*
X96646393Y-51871393D01*
X96664117Y-51855329D01*
X96683330Y-51841079D01*
X96703847Y-51828782D01*
X96725471Y-51818554D01*
X96747993Y-51810496D01*
X96771197Y-51804684D01*
X96794858Y-51801174D01*
X96818750Y-51800000D01*
X97306250Y-51800000D01*
X97330142Y-51801174D01*
G37*
G04 #@! TD.AperFunction*
G04 #@! TA.AperFunction,SMDPad,CuDef*
G36*
X114330142Y-109301174D02*
G01*
X114353803Y-109304684D01*
X114377007Y-109310496D01*
X114399529Y-109318554D01*
X114421153Y-109328782D01*
X114441670Y-109341079D01*
X114460883Y-109355329D01*
X114478607Y-109371393D01*
X114494671Y-109389117D01*
X114508921Y-109408330D01*
X114521218Y-109428847D01*
X114531446Y-109450471D01*
X114539504Y-109472993D01*
X114545316Y-109496197D01*
X114548826Y-109519858D01*
X114550000Y-109543750D01*
X114550000Y-110456250D01*
X114548826Y-110480142D01*
X114545316Y-110503803D01*
X114539504Y-110527007D01*
X114531446Y-110549529D01*
X114521218Y-110571153D01*
X114508921Y-110591670D01*
X114494671Y-110610883D01*
X114478607Y-110628607D01*
X114460883Y-110644671D01*
X114441670Y-110658921D01*
X114421153Y-110671218D01*
X114399529Y-110681446D01*
X114377007Y-110689504D01*
X114353803Y-110695316D01*
X114330142Y-110698826D01*
X114306250Y-110700000D01*
X113818750Y-110700000D01*
X113794858Y-110698826D01*
X113771197Y-110695316D01*
X113747993Y-110689504D01*
X113725471Y-110681446D01*
X113703847Y-110671218D01*
X113683330Y-110658921D01*
X113664117Y-110644671D01*
X113646393Y-110628607D01*
X113630329Y-110610883D01*
X113616079Y-110591670D01*
X113603782Y-110571153D01*
X113593554Y-110549529D01*
X113585496Y-110527007D01*
X113579684Y-110503803D01*
X113576174Y-110480142D01*
X113575000Y-110456250D01*
X113575000Y-109543750D01*
X113576174Y-109519858D01*
X113579684Y-109496197D01*
X113585496Y-109472993D01*
X113593554Y-109450471D01*
X113603782Y-109428847D01*
X113616079Y-109408330D01*
X113630329Y-109389117D01*
X113646393Y-109371393D01*
X113664117Y-109355329D01*
X113683330Y-109341079D01*
X113703847Y-109328782D01*
X113725471Y-109318554D01*
X113747993Y-109310496D01*
X113771197Y-109304684D01*
X113794858Y-109301174D01*
X113818750Y-109300000D01*
X114306250Y-109300000D01*
X114330142Y-109301174D01*
G37*
G04 #@! TD.AperFunction*
G04 #@! TA.AperFunction,SMDPad,CuDef*
G36*
X116205142Y-109301174D02*
G01*
X116228803Y-109304684D01*
X116252007Y-109310496D01*
X116274529Y-109318554D01*
X116296153Y-109328782D01*
X116316670Y-109341079D01*
X116335883Y-109355329D01*
X116353607Y-109371393D01*
X116369671Y-109389117D01*
X116383921Y-109408330D01*
X116396218Y-109428847D01*
X116406446Y-109450471D01*
X116414504Y-109472993D01*
X116420316Y-109496197D01*
X116423826Y-109519858D01*
X116425000Y-109543750D01*
X116425000Y-110456250D01*
X116423826Y-110480142D01*
X116420316Y-110503803D01*
X116414504Y-110527007D01*
X116406446Y-110549529D01*
X116396218Y-110571153D01*
X116383921Y-110591670D01*
X116369671Y-110610883D01*
X116353607Y-110628607D01*
X116335883Y-110644671D01*
X116316670Y-110658921D01*
X116296153Y-110671218D01*
X116274529Y-110681446D01*
X116252007Y-110689504D01*
X116228803Y-110695316D01*
X116205142Y-110698826D01*
X116181250Y-110700000D01*
X115693750Y-110700000D01*
X115669858Y-110698826D01*
X115646197Y-110695316D01*
X115622993Y-110689504D01*
X115600471Y-110681446D01*
X115578847Y-110671218D01*
X115558330Y-110658921D01*
X115539117Y-110644671D01*
X115521393Y-110628607D01*
X115505329Y-110610883D01*
X115491079Y-110591670D01*
X115478782Y-110571153D01*
X115468554Y-110549529D01*
X115460496Y-110527007D01*
X115454684Y-110503803D01*
X115451174Y-110480142D01*
X115450000Y-110456250D01*
X115450000Y-109543750D01*
X115451174Y-109519858D01*
X115454684Y-109496197D01*
X115460496Y-109472993D01*
X115468554Y-109450471D01*
X115478782Y-109428847D01*
X115491079Y-109408330D01*
X115505329Y-109389117D01*
X115521393Y-109371393D01*
X115539117Y-109355329D01*
X115558330Y-109341079D01*
X115578847Y-109328782D01*
X115600471Y-109318554D01*
X115622993Y-109310496D01*
X115646197Y-109304684D01*
X115669858Y-109301174D01*
X115693750Y-109300000D01*
X116181250Y-109300000D01*
X116205142Y-109301174D01*
G37*
G04 #@! TD.AperFunction*
G04 #@! TA.AperFunction,SMDPad,CuDef*
G36*
X88330142Y-58301174D02*
G01*
X88353803Y-58304684D01*
X88377007Y-58310496D01*
X88399529Y-58318554D01*
X88421153Y-58328782D01*
X88441670Y-58341079D01*
X88460883Y-58355329D01*
X88478607Y-58371393D01*
X88494671Y-58389117D01*
X88508921Y-58408330D01*
X88521218Y-58428847D01*
X88531446Y-58450471D01*
X88539504Y-58472993D01*
X88545316Y-58496197D01*
X88548826Y-58519858D01*
X88550000Y-58543750D01*
X88550000Y-59456250D01*
X88548826Y-59480142D01*
X88545316Y-59503803D01*
X88539504Y-59527007D01*
X88531446Y-59549529D01*
X88521218Y-59571153D01*
X88508921Y-59591670D01*
X88494671Y-59610883D01*
X88478607Y-59628607D01*
X88460883Y-59644671D01*
X88441670Y-59658921D01*
X88421153Y-59671218D01*
X88399529Y-59681446D01*
X88377007Y-59689504D01*
X88353803Y-59695316D01*
X88330142Y-59698826D01*
X88306250Y-59700000D01*
X87818750Y-59700000D01*
X87794858Y-59698826D01*
X87771197Y-59695316D01*
X87747993Y-59689504D01*
X87725471Y-59681446D01*
X87703847Y-59671218D01*
X87683330Y-59658921D01*
X87664117Y-59644671D01*
X87646393Y-59628607D01*
X87630329Y-59610883D01*
X87616079Y-59591670D01*
X87603782Y-59571153D01*
X87593554Y-59549529D01*
X87585496Y-59527007D01*
X87579684Y-59503803D01*
X87576174Y-59480142D01*
X87575000Y-59456250D01*
X87575000Y-58543750D01*
X87576174Y-58519858D01*
X87579684Y-58496197D01*
X87585496Y-58472993D01*
X87593554Y-58450471D01*
X87603782Y-58428847D01*
X87616079Y-58408330D01*
X87630329Y-58389117D01*
X87646393Y-58371393D01*
X87664117Y-58355329D01*
X87683330Y-58341079D01*
X87703847Y-58328782D01*
X87725471Y-58318554D01*
X87747993Y-58310496D01*
X87771197Y-58304684D01*
X87794858Y-58301174D01*
X87818750Y-58300000D01*
X88306250Y-58300000D01*
X88330142Y-58301174D01*
G37*
G04 #@! TD.AperFunction*
G04 #@! TA.AperFunction,SMDPad,CuDef*
G36*
X90205142Y-58301174D02*
G01*
X90228803Y-58304684D01*
X90252007Y-58310496D01*
X90274529Y-58318554D01*
X90296153Y-58328782D01*
X90316670Y-58341079D01*
X90335883Y-58355329D01*
X90353607Y-58371393D01*
X90369671Y-58389117D01*
X90383921Y-58408330D01*
X90396218Y-58428847D01*
X90406446Y-58450471D01*
X90414504Y-58472993D01*
X90420316Y-58496197D01*
X90423826Y-58519858D01*
X90425000Y-58543750D01*
X90425000Y-59456250D01*
X90423826Y-59480142D01*
X90420316Y-59503803D01*
X90414504Y-59527007D01*
X90406446Y-59549529D01*
X90396218Y-59571153D01*
X90383921Y-59591670D01*
X90369671Y-59610883D01*
X90353607Y-59628607D01*
X90335883Y-59644671D01*
X90316670Y-59658921D01*
X90296153Y-59671218D01*
X90274529Y-59681446D01*
X90252007Y-59689504D01*
X90228803Y-59695316D01*
X90205142Y-59698826D01*
X90181250Y-59700000D01*
X89693750Y-59700000D01*
X89669858Y-59698826D01*
X89646197Y-59695316D01*
X89622993Y-59689504D01*
X89600471Y-59681446D01*
X89578847Y-59671218D01*
X89558330Y-59658921D01*
X89539117Y-59644671D01*
X89521393Y-59628607D01*
X89505329Y-59610883D01*
X89491079Y-59591670D01*
X89478782Y-59571153D01*
X89468554Y-59549529D01*
X89460496Y-59527007D01*
X89454684Y-59503803D01*
X89451174Y-59480142D01*
X89450000Y-59456250D01*
X89450000Y-58543750D01*
X89451174Y-58519858D01*
X89454684Y-58496197D01*
X89460496Y-58472993D01*
X89468554Y-58450471D01*
X89478782Y-58428847D01*
X89491079Y-58408330D01*
X89505329Y-58389117D01*
X89521393Y-58371393D01*
X89539117Y-58355329D01*
X89558330Y-58341079D01*
X89578847Y-58328782D01*
X89600471Y-58318554D01*
X89622993Y-58310496D01*
X89646197Y-58304684D01*
X89669858Y-58301174D01*
X89693750Y-58300000D01*
X90181250Y-58300000D01*
X90205142Y-58301174D01*
G37*
G04 #@! TD.AperFunction*
G04 #@! TA.AperFunction,SMDPad,CuDef*
G36*
X114330142Y-101301174D02*
G01*
X114353803Y-101304684D01*
X114377007Y-101310496D01*
X114399529Y-101318554D01*
X114421153Y-101328782D01*
X114441670Y-101341079D01*
X114460883Y-101355329D01*
X114478607Y-101371393D01*
X114494671Y-101389117D01*
X114508921Y-101408330D01*
X114521218Y-101428847D01*
X114531446Y-101450471D01*
X114539504Y-101472993D01*
X114545316Y-101496197D01*
X114548826Y-101519858D01*
X114550000Y-101543750D01*
X114550000Y-102456250D01*
X114548826Y-102480142D01*
X114545316Y-102503803D01*
X114539504Y-102527007D01*
X114531446Y-102549529D01*
X114521218Y-102571153D01*
X114508921Y-102591670D01*
X114494671Y-102610883D01*
X114478607Y-102628607D01*
X114460883Y-102644671D01*
X114441670Y-102658921D01*
X114421153Y-102671218D01*
X114399529Y-102681446D01*
X114377007Y-102689504D01*
X114353803Y-102695316D01*
X114330142Y-102698826D01*
X114306250Y-102700000D01*
X113818750Y-102700000D01*
X113794858Y-102698826D01*
X113771197Y-102695316D01*
X113747993Y-102689504D01*
X113725471Y-102681446D01*
X113703847Y-102671218D01*
X113683330Y-102658921D01*
X113664117Y-102644671D01*
X113646393Y-102628607D01*
X113630329Y-102610883D01*
X113616079Y-102591670D01*
X113603782Y-102571153D01*
X113593554Y-102549529D01*
X113585496Y-102527007D01*
X113579684Y-102503803D01*
X113576174Y-102480142D01*
X113575000Y-102456250D01*
X113575000Y-101543750D01*
X113576174Y-101519858D01*
X113579684Y-101496197D01*
X113585496Y-101472993D01*
X113593554Y-101450471D01*
X113603782Y-101428847D01*
X113616079Y-101408330D01*
X113630329Y-101389117D01*
X113646393Y-101371393D01*
X113664117Y-101355329D01*
X113683330Y-101341079D01*
X113703847Y-101328782D01*
X113725471Y-101318554D01*
X113747993Y-101310496D01*
X113771197Y-101304684D01*
X113794858Y-101301174D01*
X113818750Y-101300000D01*
X114306250Y-101300000D01*
X114330142Y-101301174D01*
G37*
G04 #@! TD.AperFunction*
G04 #@! TA.AperFunction,SMDPad,CuDef*
G36*
X116205142Y-101301174D02*
G01*
X116228803Y-101304684D01*
X116252007Y-101310496D01*
X116274529Y-101318554D01*
X116296153Y-101328782D01*
X116316670Y-101341079D01*
X116335883Y-101355329D01*
X116353607Y-101371393D01*
X116369671Y-101389117D01*
X116383921Y-101408330D01*
X116396218Y-101428847D01*
X116406446Y-101450471D01*
X116414504Y-101472993D01*
X116420316Y-101496197D01*
X116423826Y-101519858D01*
X116425000Y-101543750D01*
X116425000Y-102456250D01*
X116423826Y-102480142D01*
X116420316Y-102503803D01*
X116414504Y-102527007D01*
X116406446Y-102549529D01*
X116396218Y-102571153D01*
X116383921Y-102591670D01*
X116369671Y-102610883D01*
X116353607Y-102628607D01*
X116335883Y-102644671D01*
X116316670Y-102658921D01*
X116296153Y-102671218D01*
X116274529Y-102681446D01*
X116252007Y-102689504D01*
X116228803Y-102695316D01*
X116205142Y-102698826D01*
X116181250Y-102700000D01*
X115693750Y-102700000D01*
X115669858Y-102698826D01*
X115646197Y-102695316D01*
X115622993Y-102689504D01*
X115600471Y-102681446D01*
X115578847Y-102671218D01*
X115558330Y-102658921D01*
X115539117Y-102644671D01*
X115521393Y-102628607D01*
X115505329Y-102610883D01*
X115491079Y-102591670D01*
X115478782Y-102571153D01*
X115468554Y-102549529D01*
X115460496Y-102527007D01*
X115454684Y-102503803D01*
X115451174Y-102480142D01*
X115450000Y-102456250D01*
X115450000Y-101543750D01*
X115451174Y-101519858D01*
X115454684Y-101496197D01*
X115460496Y-101472993D01*
X115468554Y-101450471D01*
X115478782Y-101428847D01*
X115491079Y-101408330D01*
X115505329Y-101389117D01*
X115521393Y-101371393D01*
X115539117Y-101355329D01*
X115558330Y-101341079D01*
X115578847Y-101328782D01*
X115600471Y-101318554D01*
X115622993Y-101310496D01*
X115646197Y-101304684D01*
X115669858Y-101301174D01*
X115693750Y-101300000D01*
X116181250Y-101300000D01*
X116205142Y-101301174D01*
G37*
G04 #@! TD.AperFunction*
G04 #@! TA.AperFunction,SMDPad,CuDef*
G36*
X99324504Y-61701204D02*
G01*
X99348773Y-61704804D01*
X99372571Y-61710765D01*
X99395671Y-61719030D01*
X99417849Y-61729520D01*
X99438893Y-61742133D01*
X99458598Y-61756747D01*
X99476777Y-61773223D01*
X99493253Y-61791402D01*
X99507867Y-61811107D01*
X99520480Y-61832151D01*
X99530970Y-61854329D01*
X99539235Y-61877429D01*
X99545196Y-61901227D01*
X99548796Y-61925496D01*
X99550000Y-61950000D01*
X99550000Y-63050000D01*
X99548796Y-63074504D01*
X99545196Y-63098773D01*
X99539235Y-63122571D01*
X99530970Y-63145671D01*
X99520480Y-63167849D01*
X99507867Y-63188893D01*
X99493253Y-63208598D01*
X99476777Y-63226777D01*
X99458598Y-63243253D01*
X99438893Y-63257867D01*
X99417849Y-63270480D01*
X99395671Y-63280970D01*
X99372571Y-63289235D01*
X99348773Y-63295196D01*
X99324504Y-63298796D01*
X99300000Y-63300000D01*
X96300000Y-63300000D01*
X96275496Y-63298796D01*
X96251227Y-63295196D01*
X96227429Y-63289235D01*
X96204329Y-63280970D01*
X96182151Y-63270480D01*
X96161107Y-63257867D01*
X96141402Y-63243253D01*
X96123223Y-63226777D01*
X96106747Y-63208598D01*
X96092133Y-63188893D01*
X96079520Y-63167849D01*
X96069030Y-63145671D01*
X96060765Y-63122571D01*
X96054804Y-63098773D01*
X96051204Y-63074504D01*
X96050000Y-63050000D01*
X96050000Y-61950000D01*
X96051204Y-61925496D01*
X96054804Y-61901227D01*
X96060765Y-61877429D01*
X96069030Y-61854329D01*
X96079520Y-61832151D01*
X96092133Y-61811107D01*
X96106747Y-61791402D01*
X96123223Y-61773223D01*
X96141402Y-61756747D01*
X96161107Y-61742133D01*
X96182151Y-61729520D01*
X96204329Y-61719030D01*
X96227429Y-61710765D01*
X96251227Y-61704804D01*
X96275496Y-61701204D01*
X96300000Y-61700000D01*
X99300000Y-61700000D01*
X99324504Y-61701204D01*
G37*
G04 #@! TD.AperFunction*
G04 #@! TA.AperFunction,SMDPad,CuDef*
G36*
X93724504Y-61701204D02*
G01*
X93748773Y-61704804D01*
X93772571Y-61710765D01*
X93795671Y-61719030D01*
X93817849Y-61729520D01*
X93838893Y-61742133D01*
X93858598Y-61756747D01*
X93876777Y-61773223D01*
X93893253Y-61791402D01*
X93907867Y-61811107D01*
X93920480Y-61832151D01*
X93930970Y-61854329D01*
X93939235Y-61877429D01*
X93945196Y-61901227D01*
X93948796Y-61925496D01*
X93950000Y-61950000D01*
X93950000Y-63050000D01*
X93948796Y-63074504D01*
X93945196Y-63098773D01*
X93939235Y-63122571D01*
X93930970Y-63145671D01*
X93920480Y-63167849D01*
X93907867Y-63188893D01*
X93893253Y-63208598D01*
X93876777Y-63226777D01*
X93858598Y-63243253D01*
X93838893Y-63257867D01*
X93817849Y-63270480D01*
X93795671Y-63280970D01*
X93772571Y-63289235D01*
X93748773Y-63295196D01*
X93724504Y-63298796D01*
X93700000Y-63300000D01*
X90700000Y-63300000D01*
X90675496Y-63298796D01*
X90651227Y-63295196D01*
X90627429Y-63289235D01*
X90604329Y-63280970D01*
X90582151Y-63270480D01*
X90561107Y-63257867D01*
X90541402Y-63243253D01*
X90523223Y-63226777D01*
X90506747Y-63208598D01*
X90492133Y-63188893D01*
X90479520Y-63167849D01*
X90469030Y-63145671D01*
X90460765Y-63122571D01*
X90454804Y-63098773D01*
X90451204Y-63074504D01*
X90450000Y-63050000D01*
X90450000Y-61950000D01*
X90451204Y-61925496D01*
X90454804Y-61901227D01*
X90460765Y-61877429D01*
X90469030Y-61854329D01*
X90479520Y-61832151D01*
X90492133Y-61811107D01*
X90506747Y-61791402D01*
X90523223Y-61773223D01*
X90541402Y-61756747D01*
X90561107Y-61742133D01*
X90582151Y-61729520D01*
X90604329Y-61719030D01*
X90627429Y-61710765D01*
X90651227Y-61704804D01*
X90675496Y-61701204D01*
X90700000Y-61700000D01*
X93700000Y-61700000D01*
X93724504Y-61701204D01*
G37*
G04 #@! TD.AperFunction*
G04 #@! TA.AperFunction,SMDPad,CuDef*
G36*
X119324504Y-96201204D02*
G01*
X119348773Y-96204804D01*
X119372571Y-96210765D01*
X119395671Y-96219030D01*
X119417849Y-96229520D01*
X119438893Y-96242133D01*
X119458598Y-96256747D01*
X119476777Y-96273223D01*
X119493253Y-96291402D01*
X119507867Y-96311107D01*
X119520480Y-96332151D01*
X119530970Y-96354329D01*
X119539235Y-96377429D01*
X119545196Y-96401227D01*
X119548796Y-96425496D01*
X119550000Y-96450000D01*
X119550000Y-97550000D01*
X119548796Y-97574504D01*
X119545196Y-97598773D01*
X119539235Y-97622571D01*
X119530970Y-97645671D01*
X119520480Y-97667849D01*
X119507867Y-97688893D01*
X119493253Y-97708598D01*
X119476777Y-97726777D01*
X119458598Y-97743253D01*
X119438893Y-97757867D01*
X119417849Y-97770480D01*
X119395671Y-97780970D01*
X119372571Y-97789235D01*
X119348773Y-97795196D01*
X119324504Y-97798796D01*
X119300000Y-97800000D01*
X116300000Y-97800000D01*
X116275496Y-97798796D01*
X116251227Y-97795196D01*
X116227429Y-97789235D01*
X116204329Y-97780970D01*
X116182151Y-97770480D01*
X116161107Y-97757867D01*
X116141402Y-97743253D01*
X116123223Y-97726777D01*
X116106747Y-97708598D01*
X116092133Y-97688893D01*
X116079520Y-97667849D01*
X116069030Y-97645671D01*
X116060765Y-97622571D01*
X116054804Y-97598773D01*
X116051204Y-97574504D01*
X116050000Y-97550000D01*
X116050000Y-96450000D01*
X116051204Y-96425496D01*
X116054804Y-96401227D01*
X116060765Y-96377429D01*
X116069030Y-96354329D01*
X116079520Y-96332151D01*
X116092133Y-96311107D01*
X116106747Y-96291402D01*
X116123223Y-96273223D01*
X116141402Y-96256747D01*
X116161107Y-96242133D01*
X116182151Y-96229520D01*
X116204329Y-96219030D01*
X116227429Y-96210765D01*
X116251227Y-96204804D01*
X116275496Y-96201204D01*
X116300000Y-96200000D01*
X119300000Y-96200000D01*
X119324504Y-96201204D01*
G37*
G04 #@! TD.AperFunction*
G04 #@! TA.AperFunction,SMDPad,CuDef*
G36*
X113724504Y-96201204D02*
G01*
X113748773Y-96204804D01*
X113772571Y-96210765D01*
X113795671Y-96219030D01*
X113817849Y-96229520D01*
X113838893Y-96242133D01*
X113858598Y-96256747D01*
X113876777Y-96273223D01*
X113893253Y-96291402D01*
X113907867Y-96311107D01*
X113920480Y-96332151D01*
X113930970Y-96354329D01*
X113939235Y-96377429D01*
X113945196Y-96401227D01*
X113948796Y-96425496D01*
X113950000Y-96450000D01*
X113950000Y-97550000D01*
X113948796Y-97574504D01*
X113945196Y-97598773D01*
X113939235Y-97622571D01*
X113930970Y-97645671D01*
X113920480Y-97667849D01*
X113907867Y-97688893D01*
X113893253Y-97708598D01*
X113876777Y-97726777D01*
X113858598Y-97743253D01*
X113838893Y-97757867D01*
X113817849Y-97770480D01*
X113795671Y-97780970D01*
X113772571Y-97789235D01*
X113748773Y-97795196D01*
X113724504Y-97798796D01*
X113700000Y-97800000D01*
X110700000Y-97800000D01*
X110675496Y-97798796D01*
X110651227Y-97795196D01*
X110627429Y-97789235D01*
X110604329Y-97780970D01*
X110582151Y-97770480D01*
X110561107Y-97757867D01*
X110541402Y-97743253D01*
X110523223Y-97726777D01*
X110506747Y-97708598D01*
X110492133Y-97688893D01*
X110479520Y-97667849D01*
X110469030Y-97645671D01*
X110460765Y-97622571D01*
X110454804Y-97598773D01*
X110451204Y-97574504D01*
X110450000Y-97550000D01*
X110450000Y-96450000D01*
X110451204Y-96425496D01*
X110454804Y-96401227D01*
X110460765Y-96377429D01*
X110469030Y-96354329D01*
X110479520Y-96332151D01*
X110492133Y-96311107D01*
X110506747Y-96291402D01*
X110523223Y-96273223D01*
X110541402Y-96256747D01*
X110561107Y-96242133D01*
X110582151Y-96229520D01*
X110604329Y-96219030D01*
X110627429Y-96210765D01*
X110651227Y-96204804D01*
X110675496Y-96201204D01*
X110700000Y-96200000D01*
X113700000Y-96200000D01*
X113724504Y-96201204D01*
G37*
G04 #@! TD.AperFunction*
G04 #@! TA.AperFunction,SMDPad,CuDef*
G36*
X115474505Y-138451204D02*
G01*
X115498773Y-138454804D01*
X115522572Y-138460765D01*
X115545671Y-138469030D01*
X115567850Y-138479520D01*
X115588893Y-138492132D01*
X115608599Y-138506747D01*
X115626777Y-138523223D01*
X115643253Y-138541401D01*
X115657868Y-138561107D01*
X115670480Y-138582150D01*
X115680970Y-138604329D01*
X115689235Y-138627428D01*
X115695196Y-138651227D01*
X115698796Y-138675495D01*
X115700000Y-138699999D01*
X115700000Y-139350001D01*
X115698796Y-139374505D01*
X115695196Y-139398773D01*
X115689235Y-139422572D01*
X115680970Y-139445671D01*
X115670480Y-139467850D01*
X115657868Y-139488893D01*
X115643253Y-139508599D01*
X115626777Y-139526777D01*
X115608599Y-139543253D01*
X115588893Y-139557868D01*
X115567850Y-139570480D01*
X115545671Y-139580970D01*
X115522572Y-139589235D01*
X115498773Y-139595196D01*
X115474505Y-139598796D01*
X115450001Y-139600000D01*
X114549999Y-139600000D01*
X114525495Y-139598796D01*
X114501227Y-139595196D01*
X114477428Y-139589235D01*
X114454329Y-139580970D01*
X114432150Y-139570480D01*
X114411107Y-139557868D01*
X114391401Y-139543253D01*
X114373223Y-139526777D01*
X114356747Y-139508599D01*
X114342132Y-139488893D01*
X114329520Y-139467850D01*
X114319030Y-139445671D01*
X114310765Y-139422572D01*
X114304804Y-139398773D01*
X114301204Y-139374505D01*
X114300000Y-139350001D01*
X114300000Y-138699999D01*
X114301204Y-138675495D01*
X114304804Y-138651227D01*
X114310765Y-138627428D01*
X114319030Y-138604329D01*
X114329520Y-138582150D01*
X114342132Y-138561107D01*
X114356747Y-138541401D01*
X114373223Y-138523223D01*
X114391401Y-138506747D01*
X114411107Y-138492132D01*
X114432150Y-138479520D01*
X114454329Y-138469030D01*
X114477428Y-138460765D01*
X114501227Y-138454804D01*
X114525495Y-138451204D01*
X114549999Y-138450000D01*
X115450001Y-138450000D01*
X115474505Y-138451204D01*
G37*
G04 #@! TD.AperFunction*
G04 #@! TA.AperFunction,SMDPad,CuDef*
G36*
X115474505Y-136401204D02*
G01*
X115498773Y-136404804D01*
X115522572Y-136410765D01*
X115545671Y-136419030D01*
X115567850Y-136429520D01*
X115588893Y-136442132D01*
X115608599Y-136456747D01*
X115626777Y-136473223D01*
X115643253Y-136491401D01*
X115657868Y-136511107D01*
X115670480Y-136532150D01*
X115680970Y-136554329D01*
X115689235Y-136577428D01*
X115695196Y-136601227D01*
X115698796Y-136625495D01*
X115700000Y-136649999D01*
X115700000Y-137300001D01*
X115698796Y-137324505D01*
X115695196Y-137348773D01*
X115689235Y-137372572D01*
X115680970Y-137395671D01*
X115670480Y-137417850D01*
X115657868Y-137438893D01*
X115643253Y-137458599D01*
X115626777Y-137476777D01*
X115608599Y-137493253D01*
X115588893Y-137507868D01*
X115567850Y-137520480D01*
X115545671Y-137530970D01*
X115522572Y-137539235D01*
X115498773Y-137545196D01*
X115474505Y-137548796D01*
X115450001Y-137550000D01*
X114549999Y-137550000D01*
X114525495Y-137548796D01*
X114501227Y-137545196D01*
X114477428Y-137539235D01*
X114454329Y-137530970D01*
X114432150Y-137520480D01*
X114411107Y-137507868D01*
X114391401Y-137493253D01*
X114373223Y-137476777D01*
X114356747Y-137458599D01*
X114342132Y-137438893D01*
X114329520Y-137417850D01*
X114319030Y-137395671D01*
X114310765Y-137372572D01*
X114304804Y-137348773D01*
X114301204Y-137324505D01*
X114300000Y-137300001D01*
X114300000Y-136649999D01*
X114301204Y-136625495D01*
X114304804Y-136601227D01*
X114310765Y-136577428D01*
X114319030Y-136554329D01*
X114329520Y-136532150D01*
X114342132Y-136511107D01*
X114356747Y-136491401D01*
X114373223Y-136473223D01*
X114391401Y-136456747D01*
X114411107Y-136442132D01*
X114432150Y-136429520D01*
X114454329Y-136419030D01*
X114477428Y-136410765D01*
X114501227Y-136404804D01*
X114525495Y-136401204D01*
X114549999Y-136400000D01*
X115450001Y-136400000D01*
X115474505Y-136401204D01*
G37*
G04 #@! TD.AperFunction*
G04 #@! TA.AperFunction,SMDPad,CuDef*
G36*
X117974505Y-138451204D02*
G01*
X117998773Y-138454804D01*
X118022572Y-138460765D01*
X118045671Y-138469030D01*
X118067850Y-138479520D01*
X118088893Y-138492132D01*
X118108599Y-138506747D01*
X118126777Y-138523223D01*
X118143253Y-138541401D01*
X118157868Y-138561107D01*
X118170480Y-138582150D01*
X118180970Y-138604329D01*
X118189235Y-138627428D01*
X118195196Y-138651227D01*
X118198796Y-138675495D01*
X118200000Y-138699999D01*
X118200000Y-139350001D01*
X118198796Y-139374505D01*
X118195196Y-139398773D01*
X118189235Y-139422572D01*
X118180970Y-139445671D01*
X118170480Y-139467850D01*
X118157868Y-139488893D01*
X118143253Y-139508599D01*
X118126777Y-139526777D01*
X118108599Y-139543253D01*
X118088893Y-139557868D01*
X118067850Y-139570480D01*
X118045671Y-139580970D01*
X118022572Y-139589235D01*
X117998773Y-139595196D01*
X117974505Y-139598796D01*
X117950001Y-139600000D01*
X117049999Y-139600000D01*
X117025495Y-139598796D01*
X117001227Y-139595196D01*
X116977428Y-139589235D01*
X116954329Y-139580970D01*
X116932150Y-139570480D01*
X116911107Y-139557868D01*
X116891401Y-139543253D01*
X116873223Y-139526777D01*
X116856747Y-139508599D01*
X116842132Y-139488893D01*
X116829520Y-139467850D01*
X116819030Y-139445671D01*
X116810765Y-139422572D01*
X116804804Y-139398773D01*
X116801204Y-139374505D01*
X116800000Y-139350001D01*
X116800000Y-138699999D01*
X116801204Y-138675495D01*
X116804804Y-138651227D01*
X116810765Y-138627428D01*
X116819030Y-138604329D01*
X116829520Y-138582150D01*
X116842132Y-138561107D01*
X116856747Y-138541401D01*
X116873223Y-138523223D01*
X116891401Y-138506747D01*
X116911107Y-138492132D01*
X116932150Y-138479520D01*
X116954329Y-138469030D01*
X116977428Y-138460765D01*
X117001227Y-138454804D01*
X117025495Y-138451204D01*
X117049999Y-138450000D01*
X117950001Y-138450000D01*
X117974505Y-138451204D01*
G37*
G04 #@! TD.AperFunction*
G04 #@! TA.AperFunction,SMDPad,CuDef*
G36*
X117974505Y-136401204D02*
G01*
X117998773Y-136404804D01*
X118022572Y-136410765D01*
X118045671Y-136419030D01*
X118067850Y-136429520D01*
X118088893Y-136442132D01*
X118108599Y-136456747D01*
X118126777Y-136473223D01*
X118143253Y-136491401D01*
X118157868Y-136511107D01*
X118170480Y-136532150D01*
X118180970Y-136554329D01*
X118189235Y-136577428D01*
X118195196Y-136601227D01*
X118198796Y-136625495D01*
X118200000Y-136649999D01*
X118200000Y-137300001D01*
X118198796Y-137324505D01*
X118195196Y-137348773D01*
X118189235Y-137372572D01*
X118180970Y-137395671D01*
X118170480Y-137417850D01*
X118157868Y-137438893D01*
X118143253Y-137458599D01*
X118126777Y-137476777D01*
X118108599Y-137493253D01*
X118088893Y-137507868D01*
X118067850Y-137520480D01*
X118045671Y-137530970D01*
X118022572Y-137539235D01*
X117998773Y-137545196D01*
X117974505Y-137548796D01*
X117950001Y-137550000D01*
X117049999Y-137550000D01*
X117025495Y-137548796D01*
X117001227Y-137545196D01*
X116977428Y-137539235D01*
X116954329Y-137530970D01*
X116932150Y-137520480D01*
X116911107Y-137507868D01*
X116891401Y-137493253D01*
X116873223Y-137476777D01*
X116856747Y-137458599D01*
X116842132Y-137438893D01*
X116829520Y-137417850D01*
X116819030Y-137395671D01*
X116810765Y-137372572D01*
X116804804Y-137348773D01*
X116801204Y-137324505D01*
X116800000Y-137300001D01*
X116800000Y-136649999D01*
X116801204Y-136625495D01*
X116804804Y-136601227D01*
X116810765Y-136577428D01*
X116819030Y-136554329D01*
X116829520Y-136532150D01*
X116842132Y-136511107D01*
X116856747Y-136491401D01*
X116873223Y-136473223D01*
X116891401Y-136456747D01*
X116911107Y-136442132D01*
X116932150Y-136429520D01*
X116954329Y-136419030D01*
X116977428Y-136410765D01*
X117001227Y-136404804D01*
X117025495Y-136401204D01*
X117049999Y-136400000D01*
X117950001Y-136400000D01*
X117974505Y-136401204D01*
G37*
G04 #@! TD.AperFunction*
D20*
X96500000Y-62500000D03*
X110000000Y-99500000D03*
X110000000Y-100500000D03*
X110000000Y-101500000D03*
X109000000Y-101500000D03*
X109000000Y-100500000D03*
X109000000Y-99500000D03*
X113500000Y-139025000D03*
X116225000Y-139025000D03*
X102500000Y-62500000D03*
X101500000Y-62500000D03*
X100500000Y-62500000D03*
X108000000Y-70500000D03*
X121500000Y-97000000D03*
X120500000Y-97000000D03*
X120500000Y-96000000D03*
X121500000Y-96000000D03*
X121500000Y-98000000D03*
X120500000Y-98000000D03*
X109500000Y-123000000D03*
X108500000Y-123000000D03*
X108500000Y-122000000D03*
X109500000Y-122000000D03*
X109500000Y-124000000D03*
X108500000Y-124000000D03*
X113500000Y-51500000D03*
X113500000Y-52500000D03*
X114500000Y-52500000D03*
X114500000Y-51500000D03*
X115500000Y-51500000D03*
X115500000Y-52500000D03*
X99500000Y-62500000D03*
X98500000Y-62500000D03*
X108500000Y-133500000D03*
X112500000Y-133500000D03*
X109865000Y-131865000D03*
X114250000Y-132500000D03*
X107000000Y-80500000D03*
X107250000Y-90250000D03*
X111750000Y-89250000D03*
X109062500Y-60562500D03*
X93500000Y-58500000D03*
X110250000Y-70500000D03*
D21*
X115937500Y-98862500D02*
X117800000Y-97000000D01*
X115937500Y-102000000D02*
X115937500Y-100562500D01*
X117937500Y-102000000D02*
X117968750Y-102031250D01*
X115937500Y-102000000D02*
X117937500Y-102000000D01*
X117968750Y-102031250D02*
X119000000Y-103062500D01*
D22*
X116100000Y-106000000D02*
X115000000Y-106000000D01*
X115000000Y-106000000D02*
X115000000Y-104000000D01*
D21*
X111500000Y-52700000D02*
X111500000Y-52700000D01*
X115937500Y-100562500D02*
X115937500Y-98862500D01*
D23*
X115000000Y-139025000D02*
X113475000Y-139025000D01*
X111135000Y-139915000D02*
X111135000Y-140975000D01*
X112025000Y-139025000D02*
X111135000Y-139915000D01*
X115000000Y-139025000D02*
X116225000Y-139025000D01*
X113475000Y-139025000D02*
X112025000Y-139025000D01*
X116225000Y-139025000D02*
X117500000Y-139025000D01*
D24*
X106050300Y-148000000D02*
X108801120Y-148000000D01*
X108801120Y-148000000D02*
X111198880Y-148000000D01*
X113949700Y-148000000D02*
X111198880Y-148000000D01*
D23*
X111300480Y-145256800D02*
X111897380Y-145853700D01*
X111300480Y-145000000D02*
X111300480Y-145256800D01*
X111897380Y-147301500D02*
X111198880Y-148000000D01*
X111897380Y-145853700D02*
X111897380Y-147301500D01*
D22*
X96900000Y-56000000D02*
X95000000Y-56000000D01*
D21*
X97800000Y-62500000D02*
X98500000Y-62500000D01*
X102500000Y-62500000D02*
X102500000Y-62500000D01*
X101500000Y-62500000D02*
X102500000Y-62500000D01*
X100500000Y-62500000D02*
X101500000Y-62500000D01*
D22*
X107062500Y-69000000D02*
X107062500Y-69562500D01*
X107062500Y-69562500D02*
X108000000Y-70500000D01*
D21*
X117800000Y-97000000D02*
X121500000Y-97000000D01*
X120500000Y-96000000D02*
X120500000Y-98000000D01*
X121500000Y-96000000D02*
X121500000Y-98000000D01*
X120500000Y-96000000D02*
X121500000Y-96000000D01*
X120500000Y-98000000D02*
X121500000Y-98000000D01*
X112200000Y-123000000D02*
X108500000Y-123000000D01*
X109500000Y-122000000D02*
X108500000Y-122000000D01*
X109500000Y-124000000D02*
X108500000Y-124000000D01*
X108500000Y-124000000D02*
X108500000Y-122000000D01*
X109500000Y-124000000D02*
X109500000Y-122000000D01*
X113300000Y-52700000D02*
X113500000Y-52500000D01*
X111500000Y-52700000D02*
X113300000Y-52700000D01*
X113500000Y-52500000D02*
X115500000Y-52500000D01*
X113500000Y-51500000D02*
X115500000Y-51500000D01*
X115500000Y-51500000D02*
X115500000Y-52500000D01*
X113500000Y-51500000D02*
X113500000Y-52500000D01*
X99500000Y-62500000D02*
X100500000Y-62500000D01*
X98500000Y-62500000D02*
X99500000Y-62500000D01*
X115937500Y-102000000D02*
X115937500Y-103062500D01*
X115937500Y-103062500D02*
X115500000Y-103500000D01*
D22*
X115000000Y-104000000D02*
X115500000Y-103500000D01*
D21*
X92500000Y-53500000D02*
X92500000Y-53750000D01*
X89937500Y-56312500D02*
X89937500Y-59000000D01*
X92500000Y-53750000D02*
X89937500Y-56312500D01*
X93750000Y-55750000D02*
X95250000Y-55750000D01*
X90500000Y-59000000D02*
X93750000Y-55750000D01*
X89937500Y-59000000D02*
X90500000Y-59000000D01*
D23*
X117500000Y-136975000D02*
X117500000Y-136000000D01*
X117500000Y-136000000D02*
X117000000Y-135500000D01*
X112930000Y-135500000D02*
X112405000Y-136025000D01*
X117000000Y-135500000D02*
X112930000Y-135500000D01*
X108699520Y-145251720D02*
X108100080Y-145851160D01*
X108699520Y-145000000D02*
X108699520Y-145251720D01*
X108100080Y-145851160D02*
X108100080Y-145600080D01*
X108100080Y-145600080D02*
X105500000Y-143000000D01*
X105500000Y-143000000D02*
X105500000Y-135000000D01*
X105500000Y-135000000D02*
X107000000Y-133500000D01*
X107000000Y-133500000D02*
X107500000Y-133500000D01*
X107500000Y-133500000D02*
X108500000Y-133500000D01*
X112405000Y-133595000D02*
X112500000Y-133500000D01*
X112405000Y-136025000D02*
X112405000Y-133595000D01*
X108595000Y-137095000D02*
X108595000Y-136025000D01*
X113000000Y-138000000D02*
X109500000Y-138000000D01*
X114025000Y-136975000D02*
X113000000Y-138000000D01*
X109500000Y-138000000D02*
X108595000Y-137095000D01*
X115000000Y-136975000D02*
X114025000Y-136975000D01*
D21*
X114750000Y-67330000D02*
X114750000Y-64790000D01*
X114062500Y-98862500D02*
X112200000Y-97000000D01*
X114062500Y-102000000D02*
X114062500Y-98862500D01*
D22*
X111937500Y-106000000D02*
X111000000Y-106937500D01*
X113900000Y-106000000D02*
X111937500Y-106000000D01*
X99100000Y-56000000D02*
X98000000Y-56000000D01*
D21*
X95700000Y-59000000D02*
X92200000Y-62500000D01*
X97500000Y-59000000D02*
X95700000Y-59000000D01*
D22*
X98000000Y-58500000D02*
X97500000Y-59000000D01*
X98000000Y-56000000D02*
X98000000Y-58500000D01*
D21*
X92200000Y-62500000D02*
X92200000Y-62700000D01*
X92200000Y-62700000D02*
X94290000Y-64790000D01*
D22*
X106290000Y-62647500D02*
X106437500Y-62500000D01*
X106290000Y-64790000D02*
X106290000Y-62647500D01*
D21*
X94290000Y-64790000D02*
X106290000Y-64790000D01*
X106290000Y-64790000D02*
X114750000Y-64790000D01*
X87500000Y-58437500D02*
X88062500Y-59000000D01*
X87500000Y-53500000D02*
X87500000Y-58437500D01*
X88062500Y-59000000D02*
X88062500Y-61062500D01*
X89500000Y-62500000D02*
X92200000Y-62500000D01*
X88062500Y-61062500D02*
X89500000Y-62500000D01*
X109437500Y-106937500D02*
X111000000Y-106937500D01*
X109000000Y-106500000D02*
X109437500Y-106937500D01*
X109000000Y-103750000D02*
X109000000Y-106500000D01*
X110000000Y-101500000D02*
X110000000Y-99500000D01*
X109000000Y-99500000D02*
X110000000Y-99500000D01*
X109000000Y-100500000D02*
X110000000Y-100500000D01*
X109000000Y-101500000D02*
X110000000Y-101500000D01*
X109500000Y-102000000D02*
X109000000Y-102500000D01*
X114062500Y-102000000D02*
X109500000Y-102000000D01*
X109000000Y-102500000D02*
X109000000Y-99500000D01*
X109000000Y-103750000D02*
X109000000Y-102500000D01*
D22*
X114062500Y-107112500D02*
X113900000Y-106950000D01*
X114062500Y-110000000D02*
X114062500Y-107112500D01*
D21*
X114062500Y-113162500D02*
X112225000Y-115000000D01*
X114062500Y-110000000D02*
X114062500Y-113162500D01*
D22*
X115937500Y-107112500D02*
X116100000Y-106950000D01*
X115937500Y-110000000D02*
X115937500Y-107112500D01*
X99100000Y-55050000D02*
X99100000Y-52162500D01*
D21*
X103275000Y-52500000D02*
X104000000Y-53225000D01*
X98937500Y-52500000D02*
X103275000Y-52500000D01*
D22*
X96900000Y-55050000D02*
X96900000Y-52162500D01*
D21*
X115775000Y-58775000D02*
X118000000Y-61000000D01*
X118000000Y-61000000D02*
X118000000Y-71000000D01*
X116590000Y-72410000D02*
X114750000Y-72410000D01*
X118000000Y-71000000D02*
X116590000Y-72410000D01*
X112000000Y-71000000D02*
X113410000Y-72410000D01*
X110500000Y-66500000D02*
X112000000Y-68000000D01*
X112000000Y-68000000D02*
X112000000Y-71000000D01*
X102500000Y-66500000D02*
X110500000Y-66500000D01*
X101460000Y-67540000D02*
X102500000Y-66500000D01*
X113410000Y-72410000D02*
X114750000Y-72410000D01*
X101460000Y-69000000D02*
X101460000Y-67540000D01*
X101460000Y-69000000D02*
X101460000Y-71540000D01*
X111975000Y-58775000D02*
X111500000Y-58300000D01*
X115775000Y-58775000D02*
X111975000Y-58775000D01*
X104475000Y-58300000D02*
X104000000Y-58775000D01*
X111500000Y-58300000D02*
X104475000Y-58300000D01*
D22*
X110937500Y-62500000D02*
X111000000Y-62500000D01*
X111500000Y-62000000D02*
X111500000Y-58300000D01*
X111000000Y-62500000D02*
X111500000Y-62000000D01*
D21*
X117775000Y-122975000D02*
X117800000Y-123000000D01*
X117775000Y-115000000D02*
X117775000Y-122975000D01*
X119000000Y-113775000D02*
X119000000Y-108937500D01*
X117775000Y-115000000D02*
X119000000Y-113775000D01*
X123000000Y-79000000D02*
X121490000Y-77490000D01*
X121490000Y-77490000D02*
X114750000Y-77490000D01*
X122062500Y-108937500D02*
X123000000Y-108000000D01*
X119000000Y-108937500D02*
X122062500Y-108937500D01*
D23*
X111500000Y-74937500D02*
X111500000Y-77500000D01*
X111500000Y-80000000D02*
X111500000Y-77500000D01*
D21*
X123000000Y-93500000D02*
X123000000Y-79000000D01*
X123000000Y-108000000D02*
X123000000Y-93500000D01*
D23*
X110500000Y-92187500D02*
X110687500Y-92187500D01*
X112000000Y-93500000D02*
X123000000Y-93500000D01*
X110687500Y-92187500D02*
X112000000Y-93500000D01*
D21*
X114740000Y-77500000D02*
X114750000Y-77490000D01*
X111000000Y-77500000D02*
X114740000Y-77500000D01*
D22*
X110375000Y-77500000D02*
X111000000Y-77500000D01*
D23*
X110000000Y-145000000D02*
X110000000Y-143500000D01*
X110000000Y-143500000D02*
X109500000Y-143000000D01*
X108595000Y-140975000D02*
X108595000Y-142095000D01*
X108595000Y-142095000D02*
X109500000Y-143000000D01*
X109865000Y-139365000D02*
X109865000Y-140975000D01*
X109500000Y-139000000D02*
X109865000Y-139365000D01*
X107750000Y-139000000D02*
X109500000Y-139000000D01*
X107250000Y-139500000D02*
X107750000Y-139000000D01*
X107250000Y-141750000D02*
X107250000Y-139500000D01*
X109352300Y-143852300D02*
X107250000Y-141750000D01*
X109352300Y-145000000D02*
X109352300Y-143852300D01*
X111135000Y-136025000D02*
X111135000Y-130635000D01*
X111135000Y-131365000D02*
X111135000Y-130635000D01*
X111190000Y-131420000D02*
X111135000Y-131365000D01*
X122000000Y-131420000D02*
X111190000Y-131420000D01*
X99840000Y-79160000D02*
X101460000Y-79160000D01*
X98000000Y-81000000D02*
X99840000Y-79160000D01*
X98000000Y-117500000D02*
X98000000Y-81000000D01*
X111135000Y-130635000D02*
X98000000Y-117500000D01*
X109865000Y-136025000D02*
X109865000Y-131865000D01*
X97000000Y-79500000D02*
X99880000Y-76620000D01*
X97000000Y-117500000D02*
X97000000Y-79500000D01*
X109865000Y-130365000D02*
X97000000Y-117500000D01*
X99880000Y-76620000D02*
X101460000Y-76620000D01*
X109865000Y-131865000D02*
X109865000Y-130365000D01*
X120500000Y-132500000D02*
X121960000Y-133960000D01*
X121960000Y-133960000D02*
X122000000Y-133960000D01*
X114250000Y-132500000D02*
X120500000Y-132500000D01*
X114750000Y-80030000D02*
X114470000Y-80030000D01*
X112625000Y-81875000D02*
X111500000Y-81875000D01*
X114470000Y-80030000D02*
X112625000Y-81875000D01*
X104900000Y-107100000D02*
X104000000Y-107100000D01*
X107500000Y-97000000D02*
X107500000Y-104500000D01*
X108500000Y-96000000D02*
X107500000Y-97000000D01*
X108500000Y-89500000D02*
X108500000Y-96000000D01*
X107500000Y-104500000D02*
X104900000Y-107100000D01*
X107500000Y-88500000D02*
X108500000Y-89500000D01*
X107500000Y-81000000D02*
X107500000Y-88500000D01*
X107000000Y-80500000D02*
X107500000Y-81000000D01*
X114750000Y-82570000D02*
X115820000Y-82570000D01*
X115820000Y-82570000D02*
X117250000Y-84000000D01*
X117250000Y-84000000D02*
X117250000Y-91000000D01*
X117250000Y-91000000D02*
X115750000Y-92500000D01*
X104000000Y-104560000D02*
X105440000Y-104560000D01*
X105440000Y-104560000D02*
X106500000Y-103500000D01*
X106500000Y-103500000D02*
X106500000Y-92000000D01*
X106500000Y-92000000D02*
X106500000Y-91000000D01*
X106500000Y-91000000D02*
X107250000Y-90250000D01*
X111562500Y-89250000D02*
X110500000Y-90312500D01*
X111750000Y-89250000D02*
X111562500Y-89250000D01*
X115750000Y-92500000D02*
X113500000Y-92500000D01*
X111312500Y-90312500D02*
X110500000Y-90312500D01*
X113500000Y-92500000D02*
X111312500Y-90312500D01*
X106580000Y-74080000D02*
X108500000Y-76000000D01*
X104000000Y-74080000D02*
X106580000Y-74080000D01*
X108500000Y-76000000D02*
X108500000Y-77500000D01*
X110650000Y-87650000D02*
X114750000Y-87650000D01*
X108500000Y-85500000D02*
X110650000Y-87650000D01*
X108500000Y-77500000D02*
X108500000Y-85500000D01*
X104000000Y-71540000D02*
X106540000Y-71540000D01*
X111500000Y-73062500D02*
X109937500Y-73062500D01*
X109937500Y-73062500D02*
X109000000Y-74000000D01*
X106540000Y-71540000D02*
X109000000Y-74000000D01*
X110610000Y-85110000D02*
X113610000Y-85110000D01*
X109500000Y-84000000D02*
X110610000Y-85110000D01*
X109500000Y-79500000D02*
X109500000Y-84000000D01*
X109487490Y-79487490D02*
X109500000Y-79500000D01*
X109487490Y-76012510D02*
X109487490Y-79487490D01*
X109500000Y-76000000D02*
X109487490Y-76012510D01*
X109500000Y-74500000D02*
X109500000Y-76000000D01*
X113610000Y-85110000D02*
X114750000Y-85110000D01*
X109000000Y-74000000D02*
X109500000Y-74500000D01*
D22*
X111012500Y-105050000D02*
X111000000Y-105062500D01*
X113900000Y-105050000D02*
X111012500Y-105050000D01*
X104562500Y-61562500D02*
X104562500Y-62500000D01*
X104000000Y-61000000D02*
X104562500Y-61562500D01*
X100500000Y-61000000D02*
X104000000Y-61000000D01*
X99100000Y-59600000D02*
X100500000Y-61000000D01*
X99100000Y-56950000D02*
X99100000Y-59600000D01*
X118887500Y-105050000D02*
X119000000Y-104937500D01*
X116100000Y-105050000D02*
X118887500Y-105050000D01*
X119000000Y-104937500D02*
X119000000Y-107062500D01*
X109062500Y-62500000D02*
X109062500Y-60562500D01*
X95050000Y-56950000D02*
X96900000Y-56950000D01*
X93500000Y-58500000D02*
X95050000Y-56950000D01*
X108937500Y-69187500D02*
X108937500Y-69000000D01*
X110250000Y-70500000D02*
X108937500Y-69187500D01*
M02*
