M48
; DRILL file {KiCad 5.1.5+dfsg1-2build2} date Út 19. ledna 2021, 23:15:58
; FORMAT={-:-/ absolute / inch / decimal}
; #@! TF.CreationDate,2021-01-19T23:15:58+01:00
; #@! TF.GenerationSoftware,Kicad,Pcbnew,5.1.5+dfsg1-2build2
; #@! TF.FileFunction,Plated,1,2,PTH
FMAT,2
INCH
T1C0.0157
T2C0.0314
T3C0.0394
T4C0.0512
%
G90
G05
T1
X3.4843Y-2.874
X3.4941Y-3.1299
X3.5039Y-2.7264
X3.5236Y-2.9232
X3.5728Y-2.9843
X3.5851Y-4.2101
X3.5851Y-4.2495
X3.5851Y-5.0763
X3.5851Y-5.1156
X3.6319Y-2.9862
X3.6417Y-3.0512
X3.6503Y-4.1425
X3.6503Y-5.0086
X3.6516Y-2.8839
X3.6811Y-4.1339
X3.6811Y-5.0
X3.6909Y-2.8445
X3.7805Y-3.06
X3.7999Y-3.1588
X3.878Y-3.622
X3.878Y-4.311
X3.878Y-5.1772
X3.9173Y-4.5276
X3.9173Y-5.3937
X3.9567Y-4.5276
X3.9567Y-5.3937
X3.9961Y-4.5276
X3.9961Y-5.3937
X4.0551Y-4.3504
X4.0551Y-5.2165
T2
X3.4095Y-3.1062
X3.4096Y-2.9567
T3
X4.225Y-2.45
X4.225Y-2.55
X4.225Y-2.65
X4.225Y-2.75
X4.225Y-2.85
X4.225Y-2.95
X4.225Y-3.05
X4.225Y-3.15
X4.225Y-3.25
X4.225Y-3.35
X4.225Y-3.45
X4.225Y-3.55
T4
X3.3858Y-3.6614
X3.3858Y-3.8583
T0
M30
