G04 #@! TF.GenerationSoftware,KiCad,Pcbnew,5.1.5+dfsg1-2build2*
G04 #@! TF.CreationDate,2021-03-04T23:41:53+01:00*
G04 #@! TF.ProjectId,t100-usb,74313030-2d75-4736-922e-6b696361645f,rev?*
G04 #@! TF.SameCoordinates,Original*
G04 #@! TF.FileFunction,Soldermask,Top*
G04 #@! TF.FilePolarity,Negative*
%FSLAX46Y46*%
G04 Gerber Fmt 4.6, Leading zero omitted, Abs format (unit mm)*
G04 Created by KiCad (PCBNEW 5.1.5+dfsg1-2build2) date 2021-03-04 23:41:53*
%MOMM*%
%LPD*%
G04 APERTURE LIST*
%ADD10C,0.100000*%
G04 APERTURE END LIST*
D10*
G36*
X110455997Y-136153051D02*
G01*
X110489652Y-136163261D01*
X110520665Y-136179838D01*
X110547851Y-136202149D01*
X110570162Y-136229335D01*
X110586739Y-136260348D01*
X110596949Y-136294003D01*
X110601000Y-136335138D01*
X110601000Y-137664862D01*
X110596949Y-137705997D01*
X110586739Y-137739652D01*
X110570162Y-137770665D01*
X110547851Y-137797851D01*
X110520665Y-137820162D01*
X110489652Y-137836739D01*
X110455997Y-137846949D01*
X110414862Y-137851000D01*
X107185138Y-137851000D01*
X107144003Y-137846949D01*
X107110348Y-137836739D01*
X107079335Y-137820162D01*
X107052149Y-137797851D01*
X107029838Y-137770665D01*
X107013261Y-137739652D01*
X107003051Y-137705997D01*
X106999000Y-137664862D01*
X106999000Y-136335138D01*
X107003051Y-136294003D01*
X107013261Y-136260348D01*
X107029838Y-136229335D01*
X107052149Y-136202149D01*
X107079335Y-136179838D01*
X107110348Y-136163261D01*
X107144003Y-136153051D01*
X107185138Y-136149000D01*
X110414862Y-136149000D01*
X110455997Y-136153051D01*
G37*
G36*
X104855997Y-136153051D02*
G01*
X104889652Y-136163261D01*
X104920665Y-136179838D01*
X104947851Y-136202149D01*
X104970162Y-136229335D01*
X104986739Y-136260348D01*
X104996949Y-136294003D01*
X105001000Y-136335138D01*
X105001000Y-137664862D01*
X104996949Y-137705997D01*
X104986739Y-137739652D01*
X104970162Y-137770665D01*
X104947851Y-137797851D01*
X104920665Y-137820162D01*
X104889652Y-137836739D01*
X104855997Y-137846949D01*
X104814862Y-137851000D01*
X101585138Y-137851000D01*
X101544003Y-137846949D01*
X101510348Y-137836739D01*
X101479335Y-137820162D01*
X101452149Y-137797851D01*
X101429838Y-137770665D01*
X101413261Y-137739652D01*
X101403051Y-137705997D01*
X101399000Y-137664862D01*
X101399000Y-136335138D01*
X101403051Y-136294003D01*
X101413261Y-136260348D01*
X101429838Y-136229335D01*
X101452149Y-136202149D01*
X101479335Y-136179838D01*
X101510348Y-136163261D01*
X101544003Y-136153051D01*
X101585138Y-136149000D01*
X104814862Y-136149000D01*
X104855997Y-136153051D01*
G37*
G36*
X99455997Y-136153051D02*
G01*
X99489652Y-136163261D01*
X99520665Y-136179838D01*
X99547851Y-136202149D01*
X99570162Y-136229335D01*
X99586739Y-136260348D01*
X99596949Y-136294003D01*
X99601000Y-136335138D01*
X99601000Y-137664862D01*
X99596949Y-137705997D01*
X99586739Y-137739652D01*
X99570162Y-137770665D01*
X99547851Y-137797851D01*
X99520665Y-137820162D01*
X99489652Y-137836739D01*
X99455997Y-137846949D01*
X99414862Y-137851000D01*
X96185138Y-137851000D01*
X96144003Y-137846949D01*
X96110348Y-137836739D01*
X96079335Y-137820162D01*
X96052149Y-137797851D01*
X96029838Y-137770665D01*
X96013261Y-137739652D01*
X96003051Y-137705997D01*
X95999000Y-137664862D01*
X95999000Y-136335138D01*
X96003051Y-136294003D01*
X96013261Y-136260348D01*
X96029838Y-136229335D01*
X96052149Y-136202149D01*
X96079335Y-136179838D01*
X96110348Y-136163261D01*
X96144003Y-136153051D01*
X96185138Y-136149000D01*
X99414862Y-136149000D01*
X99455997Y-136153051D01*
G37*
G36*
X93855997Y-136153051D02*
G01*
X93889652Y-136163261D01*
X93920665Y-136179838D01*
X93947851Y-136202149D01*
X93970162Y-136229335D01*
X93986739Y-136260348D01*
X93996949Y-136294003D01*
X94001000Y-136335138D01*
X94001000Y-137664862D01*
X93996949Y-137705997D01*
X93986739Y-137739652D01*
X93970162Y-137770665D01*
X93947851Y-137797851D01*
X93920665Y-137820162D01*
X93889652Y-137836739D01*
X93855997Y-137846949D01*
X93814862Y-137851000D01*
X90585138Y-137851000D01*
X90544003Y-137846949D01*
X90510348Y-137836739D01*
X90479335Y-137820162D01*
X90452149Y-137797851D01*
X90429838Y-137770665D01*
X90413261Y-137739652D01*
X90403051Y-137705997D01*
X90399000Y-137664862D01*
X90399000Y-136335138D01*
X90403051Y-136294003D01*
X90413261Y-136260348D01*
X90429838Y-136229335D01*
X90452149Y-136202149D01*
X90479335Y-136179838D01*
X90510348Y-136163261D01*
X90544003Y-136153051D01*
X90585138Y-136149000D01*
X93814862Y-136149000D01*
X93855997Y-136153051D01*
G37*
G36*
X93309468Y-130253565D02*
G01*
X93348138Y-130265296D01*
X93383777Y-130284346D01*
X93415017Y-130309983D01*
X93440654Y-130341223D01*
X93459704Y-130376862D01*
X93471435Y-130415532D01*
X93476000Y-130461888D01*
X93476000Y-131538112D01*
X93471435Y-131584468D01*
X93459704Y-131623138D01*
X93440654Y-131658777D01*
X93415017Y-131690017D01*
X93383777Y-131715654D01*
X93348138Y-131734704D01*
X93309468Y-131746435D01*
X93263112Y-131751000D01*
X92611888Y-131751000D01*
X92565532Y-131746435D01*
X92526862Y-131734704D01*
X92491223Y-131715654D01*
X92459983Y-131690017D01*
X92434346Y-131658777D01*
X92415296Y-131623138D01*
X92403565Y-131584468D01*
X92399000Y-131538112D01*
X92399000Y-130461888D01*
X92403565Y-130415532D01*
X92415296Y-130376862D01*
X92434346Y-130341223D01*
X92459983Y-130309983D01*
X92491223Y-130284346D01*
X92526862Y-130265296D01*
X92565532Y-130253565D01*
X92611888Y-130249000D01*
X93263112Y-130249000D01*
X93309468Y-130253565D01*
G37*
G36*
X95434468Y-130253565D02*
G01*
X95473138Y-130265296D01*
X95508777Y-130284346D01*
X95540017Y-130309983D01*
X95565654Y-130341223D01*
X95584704Y-130376862D01*
X95596435Y-130415532D01*
X95601000Y-130461888D01*
X95601000Y-131538112D01*
X95596435Y-131584468D01*
X95584704Y-131623138D01*
X95565654Y-131658777D01*
X95540017Y-131690017D01*
X95508777Y-131715654D01*
X95473138Y-131734704D01*
X95434468Y-131746435D01*
X95388112Y-131751000D01*
X94736888Y-131751000D01*
X94690532Y-131746435D01*
X94651862Y-131734704D01*
X94616223Y-131715654D01*
X94584983Y-131690017D01*
X94559346Y-131658777D01*
X94540296Y-131623138D01*
X94528565Y-131584468D01*
X94524000Y-131538112D01*
X94524000Y-130461888D01*
X94528565Y-130415532D01*
X94540296Y-130376862D01*
X94559346Y-130341223D01*
X94584983Y-130309983D01*
X94616223Y-130284346D01*
X94651862Y-130265296D01*
X94690532Y-130253565D01*
X94736888Y-130249000D01*
X95388112Y-130249000D01*
X95434468Y-130253565D01*
G37*
G36*
X91434468Y-130253565D02*
G01*
X91473138Y-130265296D01*
X91508777Y-130284346D01*
X91540017Y-130309983D01*
X91565654Y-130341223D01*
X91584704Y-130376862D01*
X91596435Y-130415532D01*
X91601000Y-130461888D01*
X91601000Y-131538112D01*
X91596435Y-131584468D01*
X91584704Y-131623138D01*
X91565654Y-131658777D01*
X91540017Y-131690017D01*
X91508777Y-131715654D01*
X91473138Y-131734704D01*
X91434468Y-131746435D01*
X91388112Y-131751000D01*
X90736888Y-131751000D01*
X90690532Y-131746435D01*
X90651862Y-131734704D01*
X90616223Y-131715654D01*
X90584983Y-131690017D01*
X90559346Y-131658777D01*
X90540296Y-131623138D01*
X90528565Y-131584468D01*
X90524000Y-131538112D01*
X90524000Y-130461888D01*
X90528565Y-130415532D01*
X90540296Y-130376862D01*
X90559346Y-130341223D01*
X90584983Y-130309983D01*
X90616223Y-130284346D01*
X90651862Y-130265296D01*
X90690532Y-130253565D01*
X90736888Y-130249000D01*
X91388112Y-130249000D01*
X91434468Y-130253565D01*
G37*
G36*
X97309468Y-130253565D02*
G01*
X97348138Y-130265296D01*
X97383777Y-130284346D01*
X97415017Y-130309983D01*
X97440654Y-130341223D01*
X97459704Y-130376862D01*
X97471435Y-130415532D01*
X97476000Y-130461888D01*
X97476000Y-131538112D01*
X97471435Y-131584468D01*
X97459704Y-131623138D01*
X97440654Y-131658777D01*
X97415017Y-131690017D01*
X97383777Y-131715654D01*
X97348138Y-131734704D01*
X97309468Y-131746435D01*
X97263112Y-131751000D01*
X96611888Y-131751000D01*
X96565532Y-131746435D01*
X96526862Y-131734704D01*
X96491223Y-131715654D01*
X96459983Y-131690017D01*
X96434346Y-131658777D01*
X96415296Y-131623138D01*
X96403565Y-131584468D01*
X96399000Y-131538112D01*
X96399000Y-130461888D01*
X96403565Y-130415532D01*
X96415296Y-130376862D01*
X96434346Y-130341223D01*
X96459983Y-130309983D01*
X96491223Y-130284346D01*
X96526862Y-130265296D01*
X96565532Y-130253565D01*
X96611888Y-130249000D01*
X97263112Y-130249000D01*
X97309468Y-130253565D01*
G37*
G36*
X105501000Y-131001000D02*
G01*
X102949000Y-131001000D01*
X102949000Y-124999000D01*
X105501000Y-124999000D01*
X105501000Y-131001000D01*
G37*
G36*
X111051000Y-131001000D02*
G01*
X108499000Y-131001000D01*
X108499000Y-124999000D01*
X111051000Y-124999000D01*
X111051000Y-131001000D01*
G37*
G36*
X100584468Y-129403565D02*
G01*
X100623138Y-129415296D01*
X100658777Y-129434346D01*
X100690017Y-129459983D01*
X100715654Y-129491223D01*
X100734704Y-129526862D01*
X100746435Y-129565532D01*
X100751000Y-129611888D01*
X100751000Y-130263112D01*
X100746435Y-130309468D01*
X100734704Y-130348138D01*
X100715654Y-130383777D01*
X100690017Y-130415017D01*
X100658777Y-130440654D01*
X100623138Y-130459704D01*
X100584468Y-130471435D01*
X100538112Y-130476000D01*
X99461888Y-130476000D01*
X99415532Y-130471435D01*
X99376862Y-130459704D01*
X99341223Y-130440654D01*
X99309983Y-130415017D01*
X99284346Y-130383777D01*
X99265296Y-130348138D01*
X99253565Y-130309468D01*
X99249000Y-130263112D01*
X99249000Y-129611888D01*
X99253565Y-129565532D01*
X99265296Y-129526862D01*
X99284346Y-129491223D01*
X99309983Y-129459983D01*
X99341223Y-129434346D01*
X99376862Y-129415296D01*
X99415532Y-129403565D01*
X99461888Y-129399000D01*
X100538112Y-129399000D01*
X100584468Y-129403565D01*
G37*
G36*
X100584468Y-127528565D02*
G01*
X100623138Y-127540296D01*
X100658777Y-127559346D01*
X100690017Y-127584983D01*
X100715654Y-127616223D01*
X100734704Y-127651862D01*
X100746435Y-127690532D01*
X100751000Y-127736888D01*
X100751000Y-128388112D01*
X100746435Y-128434468D01*
X100734704Y-128473138D01*
X100715654Y-128508777D01*
X100690017Y-128540017D01*
X100658777Y-128565654D01*
X100623138Y-128584704D01*
X100584468Y-128596435D01*
X100538112Y-128601000D01*
X99461888Y-128601000D01*
X99415532Y-128596435D01*
X99376862Y-128584704D01*
X99341223Y-128565654D01*
X99309983Y-128540017D01*
X99284346Y-128508777D01*
X99265296Y-128473138D01*
X99253565Y-128434468D01*
X99249000Y-128388112D01*
X99249000Y-127736888D01*
X99253565Y-127690532D01*
X99265296Y-127651862D01*
X99284346Y-127616223D01*
X99309983Y-127584983D01*
X99341223Y-127559346D01*
X99376862Y-127540296D01*
X99415532Y-127528565D01*
X99461888Y-127524000D01*
X100538112Y-127524000D01*
X100584468Y-127528565D01*
G37*
G36*
X92584468Y-127403565D02*
G01*
X92623138Y-127415296D01*
X92658777Y-127434346D01*
X92690017Y-127459983D01*
X92715654Y-127491223D01*
X92734704Y-127526862D01*
X92746435Y-127565532D01*
X92751000Y-127611888D01*
X92751000Y-128263112D01*
X92746435Y-128309468D01*
X92734704Y-128348138D01*
X92715654Y-128383777D01*
X92690017Y-128415017D01*
X92658777Y-128440654D01*
X92623138Y-128459704D01*
X92584468Y-128471435D01*
X92538112Y-128476000D01*
X91461888Y-128476000D01*
X91415532Y-128471435D01*
X91376862Y-128459704D01*
X91341223Y-128440654D01*
X91309983Y-128415017D01*
X91284346Y-128383777D01*
X91265296Y-128348138D01*
X91253565Y-128309468D01*
X91249000Y-128263112D01*
X91249000Y-127611888D01*
X91253565Y-127565532D01*
X91265296Y-127526862D01*
X91284346Y-127491223D01*
X91309983Y-127459983D01*
X91341223Y-127434346D01*
X91376862Y-127415296D01*
X91415532Y-127403565D01*
X91461888Y-127399000D01*
X92538112Y-127399000D01*
X92584468Y-127403565D01*
G37*
G36*
X97681000Y-128326000D02*
G01*
X96519000Y-128326000D01*
X96519000Y-125674000D01*
X97681000Y-125674000D01*
X97681000Y-128326000D01*
G37*
G36*
X95481000Y-128326000D02*
G01*
X94319000Y-128326000D01*
X94319000Y-125674000D01*
X95481000Y-125674000D01*
X95481000Y-128326000D01*
G37*
G36*
X92584468Y-125528565D02*
G01*
X92623138Y-125540296D01*
X92658777Y-125559346D01*
X92690017Y-125584983D01*
X92715654Y-125616223D01*
X92734704Y-125651862D01*
X92746435Y-125690532D01*
X92751000Y-125736888D01*
X92751000Y-126388112D01*
X92746435Y-126434468D01*
X92734704Y-126473138D01*
X92715654Y-126508777D01*
X92690017Y-126540017D01*
X92658777Y-126565654D01*
X92623138Y-126584704D01*
X92584468Y-126596435D01*
X92538112Y-126601000D01*
X91461888Y-126601000D01*
X91415532Y-126596435D01*
X91376862Y-126584704D01*
X91341223Y-126565654D01*
X91309983Y-126540017D01*
X91284346Y-126508777D01*
X91265296Y-126473138D01*
X91253565Y-126434468D01*
X91249000Y-126388112D01*
X91249000Y-125736888D01*
X91253565Y-125690532D01*
X91265296Y-125651862D01*
X91284346Y-125616223D01*
X91309983Y-125584983D01*
X91341223Y-125559346D01*
X91376862Y-125540296D01*
X91415532Y-125528565D01*
X91461888Y-125524000D01*
X92538112Y-125524000D01*
X92584468Y-125528565D01*
G37*
G36*
X97309468Y-122253565D02*
G01*
X97348138Y-122265296D01*
X97383777Y-122284346D01*
X97415017Y-122309983D01*
X97440654Y-122341223D01*
X97459704Y-122376862D01*
X97471435Y-122415532D01*
X97476000Y-122461888D01*
X97476000Y-123538112D01*
X97471435Y-123584468D01*
X97459704Y-123623138D01*
X97440654Y-123658777D01*
X97415017Y-123690017D01*
X97383777Y-123715654D01*
X97348138Y-123734704D01*
X97309468Y-123746435D01*
X97263112Y-123751000D01*
X96611888Y-123751000D01*
X96565532Y-123746435D01*
X96526862Y-123734704D01*
X96491223Y-123715654D01*
X96459983Y-123690017D01*
X96434346Y-123658777D01*
X96415296Y-123623138D01*
X96403565Y-123584468D01*
X96399000Y-123538112D01*
X96399000Y-122461888D01*
X96403565Y-122415532D01*
X96415296Y-122376862D01*
X96434346Y-122341223D01*
X96459983Y-122309983D01*
X96491223Y-122284346D01*
X96526862Y-122265296D01*
X96565532Y-122253565D01*
X96611888Y-122249000D01*
X97263112Y-122249000D01*
X97309468Y-122253565D01*
G37*
G36*
X95434468Y-122253565D02*
G01*
X95473138Y-122265296D01*
X95508777Y-122284346D01*
X95540017Y-122309983D01*
X95565654Y-122341223D01*
X95584704Y-122376862D01*
X95596435Y-122415532D01*
X95601000Y-122461888D01*
X95601000Y-123538112D01*
X95596435Y-123584468D01*
X95584704Y-123623138D01*
X95565654Y-123658777D01*
X95540017Y-123690017D01*
X95508777Y-123715654D01*
X95473138Y-123734704D01*
X95434468Y-123746435D01*
X95388112Y-123751000D01*
X94736888Y-123751000D01*
X94690532Y-123746435D01*
X94651862Y-123734704D01*
X94616223Y-123715654D01*
X94584983Y-123690017D01*
X94559346Y-123658777D01*
X94540296Y-123623138D01*
X94528565Y-123584468D01*
X94524000Y-123538112D01*
X94524000Y-122461888D01*
X94528565Y-122415532D01*
X94540296Y-122376862D01*
X94559346Y-122341223D01*
X94584983Y-122309983D01*
X94616223Y-122284346D01*
X94651862Y-122265296D01*
X94690532Y-122253565D01*
X94736888Y-122249000D01*
X95388112Y-122249000D01*
X95434468Y-122253565D01*
G37*
G36*
X93855997Y-114153051D02*
G01*
X93889652Y-114163261D01*
X93920665Y-114179838D01*
X93947851Y-114202149D01*
X93970162Y-114229335D01*
X93986739Y-114260348D01*
X93996949Y-114294003D01*
X94001000Y-114335138D01*
X94001000Y-115664862D01*
X93996949Y-115705997D01*
X93986739Y-115739652D01*
X93970162Y-115770665D01*
X93947851Y-115797851D01*
X93920665Y-115820162D01*
X93889652Y-115836739D01*
X93855997Y-115846949D01*
X93814862Y-115851000D01*
X90585138Y-115851000D01*
X90544003Y-115846949D01*
X90510348Y-115836739D01*
X90479335Y-115820162D01*
X90452149Y-115797851D01*
X90429838Y-115770665D01*
X90413261Y-115739652D01*
X90403051Y-115705997D01*
X90399000Y-115664862D01*
X90399000Y-114335138D01*
X90403051Y-114294003D01*
X90413261Y-114260348D01*
X90429838Y-114229335D01*
X90452149Y-114202149D01*
X90479335Y-114179838D01*
X90510348Y-114163261D01*
X90544003Y-114153051D01*
X90585138Y-114149000D01*
X93814862Y-114149000D01*
X93855997Y-114153051D01*
G37*
G36*
X104855997Y-114153051D02*
G01*
X104889652Y-114163261D01*
X104920665Y-114179838D01*
X104947851Y-114202149D01*
X104970162Y-114229335D01*
X104986739Y-114260348D01*
X104996949Y-114294003D01*
X105001000Y-114335138D01*
X105001000Y-115664862D01*
X104996949Y-115705997D01*
X104986739Y-115739652D01*
X104970162Y-115770665D01*
X104947851Y-115797851D01*
X104920665Y-115820162D01*
X104889652Y-115836739D01*
X104855997Y-115846949D01*
X104814862Y-115851000D01*
X101585138Y-115851000D01*
X101544003Y-115846949D01*
X101510348Y-115836739D01*
X101479335Y-115820162D01*
X101452149Y-115797851D01*
X101429838Y-115770665D01*
X101413261Y-115739652D01*
X101403051Y-115705997D01*
X101399000Y-115664862D01*
X101399000Y-114335138D01*
X101403051Y-114294003D01*
X101413261Y-114260348D01*
X101429838Y-114229335D01*
X101452149Y-114202149D01*
X101479335Y-114179838D01*
X101510348Y-114163261D01*
X101544003Y-114153051D01*
X101585138Y-114149000D01*
X104814862Y-114149000D01*
X104855997Y-114153051D01*
G37*
G36*
X110455997Y-114153051D02*
G01*
X110489652Y-114163261D01*
X110520665Y-114179838D01*
X110547851Y-114202149D01*
X110570162Y-114229335D01*
X110586739Y-114260348D01*
X110596949Y-114294003D01*
X110601000Y-114335138D01*
X110601000Y-115664862D01*
X110596949Y-115705997D01*
X110586739Y-115739652D01*
X110570162Y-115770665D01*
X110547851Y-115797851D01*
X110520665Y-115820162D01*
X110489652Y-115836739D01*
X110455997Y-115846949D01*
X110414862Y-115851000D01*
X107185138Y-115851000D01*
X107144003Y-115846949D01*
X107110348Y-115836739D01*
X107079335Y-115820162D01*
X107052149Y-115797851D01*
X107029838Y-115770665D01*
X107013261Y-115739652D01*
X107003051Y-115705997D01*
X106999000Y-115664862D01*
X106999000Y-114335138D01*
X107003051Y-114294003D01*
X107013261Y-114260348D01*
X107029838Y-114229335D01*
X107052149Y-114202149D01*
X107079335Y-114179838D01*
X107110348Y-114163261D01*
X107144003Y-114153051D01*
X107185138Y-114149000D01*
X110414862Y-114149000D01*
X110455997Y-114153051D01*
G37*
G36*
X99455997Y-114153051D02*
G01*
X99489652Y-114163261D01*
X99520665Y-114179838D01*
X99547851Y-114202149D01*
X99570162Y-114229335D01*
X99586739Y-114260348D01*
X99596949Y-114294003D01*
X99601000Y-114335138D01*
X99601000Y-115664862D01*
X99596949Y-115705997D01*
X99586739Y-115739652D01*
X99570162Y-115770665D01*
X99547851Y-115797851D01*
X99520665Y-115820162D01*
X99489652Y-115836739D01*
X99455997Y-115846949D01*
X99414862Y-115851000D01*
X96185138Y-115851000D01*
X96144003Y-115846949D01*
X96110348Y-115836739D01*
X96079335Y-115820162D01*
X96052149Y-115797851D01*
X96029838Y-115770665D01*
X96013261Y-115739652D01*
X96003051Y-115705997D01*
X95999000Y-115664862D01*
X95999000Y-114335138D01*
X96003051Y-114294003D01*
X96013261Y-114260348D01*
X96029838Y-114229335D01*
X96052149Y-114202149D01*
X96079335Y-114179838D01*
X96110348Y-114163261D01*
X96144003Y-114153051D01*
X96185138Y-114149000D01*
X99414862Y-114149000D01*
X99455997Y-114153051D01*
G37*
G36*
X97309468Y-108253565D02*
G01*
X97348138Y-108265296D01*
X97383777Y-108284346D01*
X97415017Y-108309983D01*
X97440654Y-108341223D01*
X97459704Y-108376862D01*
X97471435Y-108415532D01*
X97476000Y-108461888D01*
X97476000Y-109538112D01*
X97471435Y-109584468D01*
X97459704Y-109623138D01*
X97440654Y-109658777D01*
X97415017Y-109690017D01*
X97383777Y-109715654D01*
X97348138Y-109734704D01*
X97309468Y-109746435D01*
X97263112Y-109751000D01*
X96611888Y-109751000D01*
X96565532Y-109746435D01*
X96526862Y-109734704D01*
X96491223Y-109715654D01*
X96459983Y-109690017D01*
X96434346Y-109658777D01*
X96415296Y-109623138D01*
X96403565Y-109584468D01*
X96399000Y-109538112D01*
X96399000Y-108461888D01*
X96403565Y-108415532D01*
X96415296Y-108376862D01*
X96434346Y-108341223D01*
X96459983Y-108309983D01*
X96491223Y-108284346D01*
X96526862Y-108265296D01*
X96565532Y-108253565D01*
X96611888Y-108249000D01*
X97263112Y-108249000D01*
X97309468Y-108253565D01*
G37*
G36*
X95434468Y-108253565D02*
G01*
X95473138Y-108265296D01*
X95508777Y-108284346D01*
X95540017Y-108309983D01*
X95565654Y-108341223D01*
X95584704Y-108376862D01*
X95596435Y-108415532D01*
X95601000Y-108461888D01*
X95601000Y-109538112D01*
X95596435Y-109584468D01*
X95584704Y-109623138D01*
X95565654Y-109658777D01*
X95540017Y-109690017D01*
X95508777Y-109715654D01*
X95473138Y-109734704D01*
X95434468Y-109746435D01*
X95388112Y-109751000D01*
X94736888Y-109751000D01*
X94690532Y-109746435D01*
X94651862Y-109734704D01*
X94616223Y-109715654D01*
X94584983Y-109690017D01*
X94559346Y-109658777D01*
X94540296Y-109623138D01*
X94528565Y-109584468D01*
X94524000Y-109538112D01*
X94524000Y-108461888D01*
X94528565Y-108415532D01*
X94540296Y-108376862D01*
X94559346Y-108341223D01*
X94584983Y-108309983D01*
X94616223Y-108284346D01*
X94651862Y-108265296D01*
X94690532Y-108253565D01*
X94736888Y-108249000D01*
X95388112Y-108249000D01*
X95434468Y-108253565D01*
G37*
G36*
X93309468Y-108253565D02*
G01*
X93348138Y-108265296D01*
X93383777Y-108284346D01*
X93415017Y-108309983D01*
X93440654Y-108341223D01*
X93459704Y-108376862D01*
X93471435Y-108415532D01*
X93476000Y-108461888D01*
X93476000Y-109538112D01*
X93471435Y-109584468D01*
X93459704Y-109623138D01*
X93440654Y-109658777D01*
X93415017Y-109690017D01*
X93383777Y-109715654D01*
X93348138Y-109734704D01*
X93309468Y-109746435D01*
X93263112Y-109751000D01*
X92611888Y-109751000D01*
X92565532Y-109746435D01*
X92526862Y-109734704D01*
X92491223Y-109715654D01*
X92459983Y-109690017D01*
X92434346Y-109658777D01*
X92415296Y-109623138D01*
X92403565Y-109584468D01*
X92399000Y-109538112D01*
X92399000Y-108461888D01*
X92403565Y-108415532D01*
X92415296Y-108376862D01*
X92434346Y-108341223D01*
X92459983Y-108309983D01*
X92491223Y-108284346D01*
X92526862Y-108265296D01*
X92565532Y-108253565D01*
X92611888Y-108249000D01*
X93263112Y-108249000D01*
X93309468Y-108253565D01*
G37*
G36*
X91434468Y-108253565D02*
G01*
X91473138Y-108265296D01*
X91508777Y-108284346D01*
X91540017Y-108309983D01*
X91565654Y-108341223D01*
X91584704Y-108376862D01*
X91596435Y-108415532D01*
X91601000Y-108461888D01*
X91601000Y-109538112D01*
X91596435Y-109584468D01*
X91584704Y-109623138D01*
X91565654Y-109658777D01*
X91540017Y-109690017D01*
X91508777Y-109715654D01*
X91473138Y-109734704D01*
X91434468Y-109746435D01*
X91388112Y-109751000D01*
X90736888Y-109751000D01*
X90690532Y-109746435D01*
X90651862Y-109734704D01*
X90616223Y-109715654D01*
X90584983Y-109690017D01*
X90559346Y-109658777D01*
X90540296Y-109623138D01*
X90528565Y-109584468D01*
X90524000Y-109538112D01*
X90524000Y-108461888D01*
X90528565Y-108415532D01*
X90540296Y-108376862D01*
X90559346Y-108341223D01*
X90584983Y-108309983D01*
X90616223Y-108284346D01*
X90651862Y-108265296D01*
X90690532Y-108253565D01*
X90736888Y-108249000D01*
X91388112Y-108249000D01*
X91434468Y-108253565D01*
G37*
G36*
X111051000Y-109001000D02*
G01*
X108499000Y-109001000D01*
X108499000Y-102999000D01*
X111051000Y-102999000D01*
X111051000Y-109001000D01*
G37*
G36*
X105501000Y-109001000D02*
G01*
X102949000Y-109001000D01*
X102949000Y-102999000D01*
X105501000Y-102999000D01*
X105501000Y-109001000D01*
G37*
G36*
X100584468Y-107403565D02*
G01*
X100623138Y-107415296D01*
X100658777Y-107434346D01*
X100690017Y-107459983D01*
X100715654Y-107491223D01*
X100734704Y-107526862D01*
X100746435Y-107565532D01*
X100751000Y-107611888D01*
X100751000Y-108263112D01*
X100746435Y-108309468D01*
X100734704Y-108348138D01*
X100715654Y-108383777D01*
X100690017Y-108415017D01*
X100658777Y-108440654D01*
X100623138Y-108459704D01*
X100584468Y-108471435D01*
X100538112Y-108476000D01*
X99461888Y-108476000D01*
X99415532Y-108471435D01*
X99376862Y-108459704D01*
X99341223Y-108440654D01*
X99309983Y-108415017D01*
X99284346Y-108383777D01*
X99265296Y-108348138D01*
X99253565Y-108309468D01*
X99249000Y-108263112D01*
X99249000Y-107611888D01*
X99253565Y-107565532D01*
X99265296Y-107526862D01*
X99284346Y-107491223D01*
X99309983Y-107459983D01*
X99341223Y-107434346D01*
X99376862Y-107415296D01*
X99415532Y-107403565D01*
X99461888Y-107399000D01*
X100538112Y-107399000D01*
X100584468Y-107403565D01*
G37*
G36*
X100584468Y-105528565D02*
G01*
X100623138Y-105540296D01*
X100658777Y-105559346D01*
X100690017Y-105584983D01*
X100715654Y-105616223D01*
X100734704Y-105651862D01*
X100746435Y-105690532D01*
X100751000Y-105736888D01*
X100751000Y-106388112D01*
X100746435Y-106434468D01*
X100734704Y-106473138D01*
X100715654Y-106508777D01*
X100690017Y-106540017D01*
X100658777Y-106565654D01*
X100623138Y-106584704D01*
X100584468Y-106596435D01*
X100538112Y-106601000D01*
X99461888Y-106601000D01*
X99415532Y-106596435D01*
X99376862Y-106584704D01*
X99341223Y-106565654D01*
X99309983Y-106540017D01*
X99284346Y-106508777D01*
X99265296Y-106473138D01*
X99253565Y-106434468D01*
X99249000Y-106388112D01*
X99249000Y-105736888D01*
X99253565Y-105690532D01*
X99265296Y-105651862D01*
X99284346Y-105616223D01*
X99309983Y-105584983D01*
X99341223Y-105559346D01*
X99376862Y-105540296D01*
X99415532Y-105528565D01*
X99461888Y-105524000D01*
X100538112Y-105524000D01*
X100584468Y-105528565D01*
G37*
G36*
X92584468Y-105403565D02*
G01*
X92623138Y-105415296D01*
X92658777Y-105434346D01*
X92690017Y-105459983D01*
X92715654Y-105491223D01*
X92734704Y-105526862D01*
X92746435Y-105565532D01*
X92751000Y-105611888D01*
X92751000Y-106263112D01*
X92746435Y-106309468D01*
X92734704Y-106348138D01*
X92715654Y-106383777D01*
X92690017Y-106415017D01*
X92658777Y-106440654D01*
X92623138Y-106459704D01*
X92584468Y-106471435D01*
X92538112Y-106476000D01*
X91461888Y-106476000D01*
X91415532Y-106471435D01*
X91376862Y-106459704D01*
X91341223Y-106440654D01*
X91309983Y-106415017D01*
X91284346Y-106383777D01*
X91265296Y-106348138D01*
X91253565Y-106309468D01*
X91249000Y-106263112D01*
X91249000Y-105611888D01*
X91253565Y-105565532D01*
X91265296Y-105526862D01*
X91284346Y-105491223D01*
X91309983Y-105459983D01*
X91341223Y-105434346D01*
X91376862Y-105415296D01*
X91415532Y-105403565D01*
X91461888Y-105399000D01*
X92538112Y-105399000D01*
X92584468Y-105403565D01*
G37*
G36*
X97681000Y-106326000D02*
G01*
X96519000Y-106326000D01*
X96519000Y-103674000D01*
X97681000Y-103674000D01*
X97681000Y-106326000D01*
G37*
G36*
X95481000Y-106326000D02*
G01*
X94319000Y-106326000D01*
X94319000Y-103674000D01*
X95481000Y-103674000D01*
X95481000Y-106326000D01*
G37*
G36*
X92584468Y-103528565D02*
G01*
X92623138Y-103540296D01*
X92658777Y-103559346D01*
X92690017Y-103584983D01*
X92715654Y-103616223D01*
X92734704Y-103651862D01*
X92746435Y-103690532D01*
X92751000Y-103736888D01*
X92751000Y-104388112D01*
X92746435Y-104434468D01*
X92734704Y-104473138D01*
X92715654Y-104508777D01*
X92690017Y-104540017D01*
X92658777Y-104565654D01*
X92623138Y-104584704D01*
X92584468Y-104596435D01*
X92538112Y-104601000D01*
X91461888Y-104601000D01*
X91415532Y-104596435D01*
X91376862Y-104584704D01*
X91341223Y-104565654D01*
X91309983Y-104540017D01*
X91284346Y-104508777D01*
X91265296Y-104473138D01*
X91253565Y-104434468D01*
X91249000Y-104388112D01*
X91249000Y-103736888D01*
X91253565Y-103690532D01*
X91265296Y-103651862D01*
X91284346Y-103616223D01*
X91309983Y-103584983D01*
X91341223Y-103559346D01*
X91376862Y-103540296D01*
X91415532Y-103528565D01*
X91461888Y-103524000D01*
X92538112Y-103524000D01*
X92584468Y-103528565D01*
G37*
G36*
X95434468Y-100253565D02*
G01*
X95473138Y-100265296D01*
X95508777Y-100284346D01*
X95540017Y-100309983D01*
X95565654Y-100341223D01*
X95584704Y-100376862D01*
X95596435Y-100415532D01*
X95601000Y-100461888D01*
X95601000Y-101538112D01*
X95596435Y-101584468D01*
X95584704Y-101623138D01*
X95565654Y-101658777D01*
X95540017Y-101690017D01*
X95508777Y-101715654D01*
X95473138Y-101734704D01*
X95434468Y-101746435D01*
X95388112Y-101751000D01*
X94736888Y-101751000D01*
X94690532Y-101746435D01*
X94651862Y-101734704D01*
X94616223Y-101715654D01*
X94584983Y-101690017D01*
X94559346Y-101658777D01*
X94540296Y-101623138D01*
X94528565Y-101584468D01*
X94524000Y-101538112D01*
X94524000Y-100461888D01*
X94528565Y-100415532D01*
X94540296Y-100376862D01*
X94559346Y-100341223D01*
X94584983Y-100309983D01*
X94616223Y-100284346D01*
X94651862Y-100265296D01*
X94690532Y-100253565D01*
X94736888Y-100249000D01*
X95388112Y-100249000D01*
X95434468Y-100253565D01*
G37*
G36*
X97309468Y-100253565D02*
G01*
X97348138Y-100265296D01*
X97383777Y-100284346D01*
X97415017Y-100309983D01*
X97440654Y-100341223D01*
X97459704Y-100376862D01*
X97471435Y-100415532D01*
X97476000Y-100461888D01*
X97476000Y-101538112D01*
X97471435Y-101584468D01*
X97459704Y-101623138D01*
X97440654Y-101658777D01*
X97415017Y-101690017D01*
X97383777Y-101715654D01*
X97348138Y-101734704D01*
X97309468Y-101746435D01*
X97263112Y-101751000D01*
X96611888Y-101751000D01*
X96565532Y-101746435D01*
X96526862Y-101734704D01*
X96491223Y-101715654D01*
X96459983Y-101690017D01*
X96434346Y-101658777D01*
X96415296Y-101623138D01*
X96403565Y-101584468D01*
X96399000Y-101538112D01*
X96399000Y-100461888D01*
X96403565Y-100415532D01*
X96415296Y-100376862D01*
X96434346Y-100341223D01*
X96459983Y-100309983D01*
X96491223Y-100284346D01*
X96526862Y-100265296D01*
X96565532Y-100253565D01*
X96611888Y-100249000D01*
X97263112Y-100249000D01*
X97309468Y-100253565D01*
G37*
G36*
X86409473Y-96708413D02*
G01*
X86505040Y-96717825D01*
X86750280Y-96792218D01*
X86976294Y-96913025D01*
X87027899Y-96955376D01*
X87174397Y-97075603D01*
X87294624Y-97222101D01*
X87336975Y-97273706D01*
X87457782Y-97499720D01*
X87532175Y-97744960D01*
X87557294Y-98000000D01*
X87532175Y-98255040D01*
X87457782Y-98500280D01*
X87336975Y-98726294D01*
X87294624Y-98777899D01*
X87174397Y-98924397D01*
X87027899Y-99044624D01*
X86976294Y-99086975D01*
X86750280Y-99207782D01*
X86505040Y-99282175D01*
X86409473Y-99291587D01*
X86313906Y-99301000D01*
X85686094Y-99301000D01*
X85590527Y-99291587D01*
X85494960Y-99282175D01*
X85249720Y-99207782D01*
X85023706Y-99086975D01*
X84972101Y-99044624D01*
X84825603Y-98924397D01*
X84705376Y-98777899D01*
X84663025Y-98726294D01*
X84542218Y-98500280D01*
X84467825Y-98255040D01*
X84442706Y-98000000D01*
X84467825Y-97744960D01*
X84542218Y-97499720D01*
X84663025Y-97273706D01*
X84705376Y-97222101D01*
X84825603Y-97075603D01*
X84972101Y-96955376D01*
X85023706Y-96913025D01*
X85249720Y-96792218D01*
X85494960Y-96717825D01*
X85590527Y-96708413D01*
X85686094Y-96699000D01*
X86313906Y-96699000D01*
X86409473Y-96708413D01*
G37*
G36*
X86409473Y-91708413D02*
G01*
X86505040Y-91717825D01*
X86750280Y-91792218D01*
X86976294Y-91913025D01*
X87027899Y-91955376D01*
X87174397Y-92075603D01*
X87294624Y-92222101D01*
X87336975Y-92273706D01*
X87457782Y-92499720D01*
X87532175Y-92744960D01*
X87557294Y-93000000D01*
X87532175Y-93255040D01*
X87457782Y-93500280D01*
X87336975Y-93726294D01*
X87294624Y-93777899D01*
X87174397Y-93924397D01*
X87027899Y-94044624D01*
X86976294Y-94086975D01*
X86750280Y-94207782D01*
X86505040Y-94282175D01*
X86409472Y-94291588D01*
X86313906Y-94301000D01*
X85686094Y-94301000D01*
X85590528Y-94291588D01*
X85494960Y-94282175D01*
X85249720Y-94207782D01*
X85023706Y-94086975D01*
X84972101Y-94044624D01*
X84825603Y-93924397D01*
X84705376Y-93777899D01*
X84663025Y-93726294D01*
X84542218Y-93500280D01*
X84467825Y-93255040D01*
X84442706Y-93000000D01*
X84467825Y-92744960D01*
X84542218Y-92499720D01*
X84663025Y-92273706D01*
X84705376Y-92222101D01*
X84825603Y-92075603D01*
X84972101Y-91955376D01*
X85023706Y-91913025D01*
X85249720Y-91792218D01*
X85494960Y-91717825D01*
X85590527Y-91708413D01*
X85686094Y-91699000D01*
X86313906Y-91699000D01*
X86409473Y-91708413D01*
G37*
G36*
X108216000Y-91071000D02*
G01*
X106414000Y-91071000D01*
X106414000Y-89269000D01*
X108216000Y-89269000D01*
X108216000Y-91071000D01*
G37*
G36*
X101584468Y-87903565D02*
G01*
X101623138Y-87915296D01*
X101658777Y-87934346D01*
X101690017Y-87959983D01*
X101715654Y-87991223D01*
X101734704Y-88026862D01*
X101746435Y-88065532D01*
X101751000Y-88111888D01*
X101751000Y-88763112D01*
X101746435Y-88809468D01*
X101734704Y-88848138D01*
X101715654Y-88883777D01*
X101690017Y-88915017D01*
X101658777Y-88940654D01*
X101623138Y-88959704D01*
X101584468Y-88971435D01*
X101538112Y-88976000D01*
X100461888Y-88976000D01*
X100415532Y-88971435D01*
X100376862Y-88959704D01*
X100341223Y-88940654D01*
X100309983Y-88915017D01*
X100284346Y-88883777D01*
X100265296Y-88848138D01*
X100253565Y-88809468D01*
X100249000Y-88763112D01*
X100249000Y-88111888D01*
X100253565Y-88065532D01*
X100265296Y-88026862D01*
X100284346Y-87991223D01*
X100309983Y-87959983D01*
X100341223Y-87934346D01*
X100376862Y-87915296D01*
X100415532Y-87903565D01*
X100461888Y-87899000D01*
X101538112Y-87899000D01*
X101584468Y-87903565D01*
G37*
G36*
X107428512Y-86733927D02*
G01*
X107577812Y-86763624D01*
X107741784Y-86831544D01*
X107889354Y-86930147D01*
X108014853Y-87055646D01*
X108113456Y-87203216D01*
X108181376Y-87367188D01*
X108216000Y-87541259D01*
X108216000Y-87718741D01*
X108181376Y-87892812D01*
X108113456Y-88056784D01*
X108014853Y-88204354D01*
X107889354Y-88329853D01*
X107741784Y-88428456D01*
X107577812Y-88496376D01*
X107428512Y-88526073D01*
X107403742Y-88531000D01*
X107226258Y-88531000D01*
X107201488Y-88526073D01*
X107052188Y-88496376D01*
X106888216Y-88428456D01*
X106740646Y-88329853D01*
X106615147Y-88204354D01*
X106516544Y-88056784D01*
X106448624Y-87892812D01*
X106414000Y-87718741D01*
X106414000Y-87541259D01*
X106448624Y-87367188D01*
X106516544Y-87203216D01*
X106615147Y-87055646D01*
X106740646Y-86930147D01*
X106888216Y-86831544D01*
X107052188Y-86763624D01*
X107201488Y-86733927D01*
X107226258Y-86729000D01*
X107403742Y-86729000D01*
X107428512Y-86733927D01*
G37*
G36*
X101584468Y-86028565D02*
G01*
X101623138Y-86040296D01*
X101658777Y-86059346D01*
X101690017Y-86084983D01*
X101715654Y-86116223D01*
X101734704Y-86151862D01*
X101746435Y-86190532D01*
X101751000Y-86236888D01*
X101751000Y-86888112D01*
X101746435Y-86934468D01*
X101734704Y-86973138D01*
X101715654Y-87008777D01*
X101690017Y-87040017D01*
X101658777Y-87065654D01*
X101623138Y-87084704D01*
X101584468Y-87096435D01*
X101538112Y-87101000D01*
X100461888Y-87101000D01*
X100415532Y-87096435D01*
X100376862Y-87084704D01*
X100341223Y-87065654D01*
X100309983Y-87040017D01*
X100284346Y-87008777D01*
X100265296Y-86973138D01*
X100253565Y-86934468D01*
X100249000Y-86888112D01*
X100249000Y-86236888D01*
X100253565Y-86190532D01*
X100265296Y-86151862D01*
X100284346Y-86116223D01*
X100309983Y-86084983D01*
X100341223Y-86059346D01*
X100376862Y-86040296D01*
X100415532Y-86028565D01*
X100461888Y-86024000D01*
X101538112Y-86024000D01*
X101584468Y-86028565D01*
G37*
G36*
X107428512Y-84193927D02*
G01*
X107577812Y-84223624D01*
X107741784Y-84291544D01*
X107889354Y-84390147D01*
X108014853Y-84515646D01*
X108113456Y-84663216D01*
X108181376Y-84827188D01*
X108201950Y-84930623D01*
X108213478Y-84988577D01*
X108216000Y-85001259D01*
X108216000Y-85178741D01*
X108181376Y-85352812D01*
X108113456Y-85516784D01*
X108014853Y-85664354D01*
X107889354Y-85789853D01*
X107741784Y-85888456D01*
X107577812Y-85956376D01*
X107428512Y-85986073D01*
X107403742Y-85991000D01*
X107226258Y-85991000D01*
X107201488Y-85986073D01*
X107052188Y-85956376D01*
X106888216Y-85888456D01*
X106740646Y-85789853D01*
X106615147Y-85664354D01*
X106516544Y-85516784D01*
X106448624Y-85352812D01*
X106414000Y-85178741D01*
X106414000Y-85001259D01*
X106416523Y-84988577D01*
X106428050Y-84930623D01*
X106448624Y-84827188D01*
X106516544Y-84663216D01*
X106615147Y-84515646D01*
X106740646Y-84390147D01*
X106888216Y-84291544D01*
X107052188Y-84223624D01*
X107201488Y-84193927D01*
X107226258Y-84189000D01*
X107403742Y-84189000D01*
X107428512Y-84193927D01*
G37*
G36*
X97909928Y-84961764D02*
G01*
X97931009Y-84968160D01*
X97950445Y-84978548D01*
X97967476Y-84992524D01*
X97981452Y-85009555D01*
X97991840Y-85028991D01*
X97998236Y-85050072D01*
X98001000Y-85078140D01*
X98001000Y-85541860D01*
X97998236Y-85569928D01*
X97991840Y-85591009D01*
X97981452Y-85610445D01*
X97967476Y-85627476D01*
X97950445Y-85641452D01*
X97931009Y-85651840D01*
X97909928Y-85658236D01*
X97881860Y-85661000D01*
X96068140Y-85661000D01*
X96040072Y-85658236D01*
X96018991Y-85651840D01*
X95999555Y-85641452D01*
X95982524Y-85627476D01*
X95968548Y-85610445D01*
X95958160Y-85591009D01*
X95951764Y-85569928D01*
X95949000Y-85541860D01*
X95949000Y-85078140D01*
X95951764Y-85050072D01*
X95958160Y-85028991D01*
X95968548Y-85009555D01*
X95982524Y-84992524D01*
X95999555Y-84978548D01*
X96018991Y-84968160D01*
X96040072Y-84961764D01*
X96068140Y-84959000D01*
X97881860Y-84959000D01*
X97909928Y-84961764D01*
G37*
G36*
X92959928Y-84961764D02*
G01*
X92981009Y-84968160D01*
X93000445Y-84978548D01*
X93017476Y-84992524D01*
X93031452Y-85009555D01*
X93041840Y-85028991D01*
X93048236Y-85050072D01*
X93051000Y-85078140D01*
X93051000Y-85541860D01*
X93048236Y-85569928D01*
X93041840Y-85591009D01*
X93031452Y-85610445D01*
X93017476Y-85627476D01*
X93000445Y-85641452D01*
X92981009Y-85651840D01*
X92959928Y-85658236D01*
X92931860Y-85661000D01*
X91118140Y-85661000D01*
X91090072Y-85658236D01*
X91068991Y-85651840D01*
X91049555Y-85641452D01*
X91032524Y-85627476D01*
X91018548Y-85610445D01*
X91008160Y-85591009D01*
X91001764Y-85569928D01*
X90999000Y-85541860D01*
X90999000Y-85078140D01*
X91001764Y-85050072D01*
X91008160Y-85028991D01*
X91018548Y-85009555D01*
X91032524Y-84992524D01*
X91049555Y-84978548D01*
X91068991Y-84968160D01*
X91090072Y-84961764D01*
X91118140Y-84959000D01*
X92931860Y-84959000D01*
X92959928Y-84961764D01*
G37*
G36*
X101584468Y-83903565D02*
G01*
X101623138Y-83915296D01*
X101658777Y-83934346D01*
X101690017Y-83959983D01*
X101715654Y-83991223D01*
X101734704Y-84026862D01*
X101746435Y-84065532D01*
X101751000Y-84111888D01*
X101751000Y-84763112D01*
X101746435Y-84809468D01*
X101734704Y-84848138D01*
X101715654Y-84883777D01*
X101690017Y-84915017D01*
X101658777Y-84940654D01*
X101623138Y-84959704D01*
X101584468Y-84971435D01*
X101538112Y-84976000D01*
X100461888Y-84976000D01*
X100415532Y-84971435D01*
X100376862Y-84959704D01*
X100341223Y-84940654D01*
X100309983Y-84915017D01*
X100284346Y-84883777D01*
X100265296Y-84848138D01*
X100253565Y-84809468D01*
X100249000Y-84763112D01*
X100249000Y-84111888D01*
X100253565Y-84065532D01*
X100265296Y-84026862D01*
X100284346Y-83991223D01*
X100309983Y-83959983D01*
X100341223Y-83934346D01*
X100376862Y-83915296D01*
X100415532Y-83903565D01*
X100461888Y-83899000D01*
X101538112Y-83899000D01*
X101584468Y-83903565D01*
G37*
G36*
X92959928Y-83691764D02*
G01*
X92981009Y-83698160D01*
X93000445Y-83708548D01*
X93017476Y-83722524D01*
X93031452Y-83739555D01*
X93041840Y-83758991D01*
X93048236Y-83780072D01*
X93051000Y-83808140D01*
X93051000Y-84271860D01*
X93048236Y-84299928D01*
X93041840Y-84321009D01*
X93031452Y-84340445D01*
X93017476Y-84357476D01*
X93000445Y-84371452D01*
X92981009Y-84381840D01*
X92959928Y-84388236D01*
X92931860Y-84391000D01*
X91118140Y-84391000D01*
X91090072Y-84388236D01*
X91068991Y-84381840D01*
X91049555Y-84371452D01*
X91032524Y-84357476D01*
X91018548Y-84340445D01*
X91008160Y-84321009D01*
X91001764Y-84299928D01*
X90999000Y-84271860D01*
X90999000Y-83808140D01*
X91001764Y-83780072D01*
X91008160Y-83758991D01*
X91018548Y-83739555D01*
X91032524Y-83722524D01*
X91049555Y-83708548D01*
X91068991Y-83698160D01*
X91090072Y-83691764D01*
X91118140Y-83689000D01*
X92931860Y-83689000D01*
X92959928Y-83691764D01*
G37*
G36*
X97909928Y-83691764D02*
G01*
X97931009Y-83698160D01*
X97950445Y-83708548D01*
X97967476Y-83722524D01*
X97981452Y-83739555D01*
X97991840Y-83758991D01*
X97998236Y-83780072D01*
X98001000Y-83808140D01*
X98001000Y-84271860D01*
X97998236Y-84299928D01*
X97991840Y-84321009D01*
X97981452Y-84340445D01*
X97967476Y-84357476D01*
X97950445Y-84371452D01*
X97931009Y-84381840D01*
X97909928Y-84388236D01*
X97881860Y-84391000D01*
X96068140Y-84391000D01*
X96040072Y-84388236D01*
X96018991Y-84381840D01*
X95999555Y-84371452D01*
X95982524Y-84357476D01*
X95968548Y-84340445D01*
X95958160Y-84321009D01*
X95951764Y-84299928D01*
X95949000Y-84271860D01*
X95949000Y-83808140D01*
X95951764Y-83780072D01*
X95958160Y-83758991D01*
X95968548Y-83739555D01*
X95982524Y-83722524D01*
X95999555Y-83708548D01*
X96018991Y-83698160D01*
X96040072Y-83691764D01*
X96068140Y-83689000D01*
X97881860Y-83689000D01*
X97909928Y-83691764D01*
G37*
G36*
X107428512Y-81653927D02*
G01*
X107577812Y-81683624D01*
X107741784Y-81751544D01*
X107889354Y-81850147D01*
X108014853Y-81975646D01*
X108113456Y-82123216D01*
X108181376Y-82287188D01*
X108207594Y-82419000D01*
X108213478Y-82448577D01*
X108216000Y-82461259D01*
X108216000Y-82638741D01*
X108181376Y-82812812D01*
X108113456Y-82976784D01*
X108014853Y-83124354D01*
X107889354Y-83249853D01*
X107741784Y-83348456D01*
X107577812Y-83416376D01*
X107428512Y-83446073D01*
X107403742Y-83451000D01*
X107226258Y-83451000D01*
X107201488Y-83446073D01*
X107052188Y-83416376D01*
X106888216Y-83348456D01*
X106740646Y-83249853D01*
X106615147Y-83124354D01*
X106516544Y-82976784D01*
X106448624Y-82812812D01*
X106414000Y-82638741D01*
X106414000Y-82461259D01*
X106416523Y-82448577D01*
X106422406Y-82419000D01*
X106448624Y-82287188D01*
X106516544Y-82123216D01*
X106615147Y-81975646D01*
X106740646Y-81850147D01*
X106888216Y-81751544D01*
X107052188Y-81683624D01*
X107201488Y-81653927D01*
X107226258Y-81649000D01*
X107403742Y-81649000D01*
X107428512Y-81653927D01*
G37*
G36*
X89309468Y-81753565D02*
G01*
X89348138Y-81765296D01*
X89383777Y-81784346D01*
X89415017Y-81809983D01*
X89440654Y-81841223D01*
X89459704Y-81876862D01*
X89471435Y-81915532D01*
X89476000Y-81961888D01*
X89476000Y-83038112D01*
X89471435Y-83084468D01*
X89459704Y-83123138D01*
X89440654Y-83158777D01*
X89415017Y-83190017D01*
X89383777Y-83215654D01*
X89348138Y-83234704D01*
X89309468Y-83246435D01*
X89263112Y-83251000D01*
X88611888Y-83251000D01*
X88565532Y-83246435D01*
X88526862Y-83234704D01*
X88491223Y-83215654D01*
X88459983Y-83190017D01*
X88434346Y-83158777D01*
X88415296Y-83123138D01*
X88403565Y-83084468D01*
X88399000Y-83038112D01*
X88399000Y-81961888D01*
X88403565Y-81915532D01*
X88415296Y-81876862D01*
X88434346Y-81841223D01*
X88459983Y-81809983D01*
X88491223Y-81784346D01*
X88526862Y-81765296D01*
X88565532Y-81753565D01*
X88611888Y-81749000D01*
X89263112Y-81749000D01*
X89309468Y-81753565D01*
G37*
G36*
X87434468Y-81753565D02*
G01*
X87473138Y-81765296D01*
X87508777Y-81784346D01*
X87540017Y-81809983D01*
X87565654Y-81841223D01*
X87584704Y-81876862D01*
X87596435Y-81915532D01*
X87601000Y-81961888D01*
X87601000Y-83038112D01*
X87596435Y-83084468D01*
X87584704Y-83123138D01*
X87565654Y-83158777D01*
X87540017Y-83190017D01*
X87508777Y-83215654D01*
X87473138Y-83234704D01*
X87434468Y-83246435D01*
X87388112Y-83251000D01*
X86736888Y-83251000D01*
X86690532Y-83246435D01*
X86651862Y-83234704D01*
X86616223Y-83215654D01*
X86584983Y-83190017D01*
X86559346Y-83158777D01*
X86540296Y-83123138D01*
X86528565Y-83084468D01*
X86524000Y-83038112D01*
X86524000Y-81961888D01*
X86528565Y-81915532D01*
X86540296Y-81876862D01*
X86559346Y-81841223D01*
X86584983Y-81809983D01*
X86616223Y-81784346D01*
X86651862Y-81765296D01*
X86690532Y-81753565D01*
X86736888Y-81749000D01*
X87388112Y-81749000D01*
X87434468Y-81753565D01*
G37*
G36*
X92959928Y-82421764D02*
G01*
X92981009Y-82428160D01*
X93000445Y-82438548D01*
X93017476Y-82452524D01*
X93031452Y-82469555D01*
X93041840Y-82488991D01*
X93048236Y-82510072D01*
X93051000Y-82538140D01*
X93051000Y-83001860D01*
X93048236Y-83029928D01*
X93041840Y-83051009D01*
X93031452Y-83070445D01*
X93017476Y-83087476D01*
X93000445Y-83101452D01*
X92981009Y-83111840D01*
X92959928Y-83118236D01*
X92931860Y-83121000D01*
X91118140Y-83121000D01*
X91090072Y-83118236D01*
X91068991Y-83111840D01*
X91049555Y-83101452D01*
X91032524Y-83087476D01*
X91018548Y-83070445D01*
X91008160Y-83051009D01*
X91001764Y-83029928D01*
X90999000Y-83001860D01*
X90999000Y-82538140D01*
X91001764Y-82510072D01*
X91008160Y-82488991D01*
X91018548Y-82469555D01*
X91032524Y-82452524D01*
X91049555Y-82438548D01*
X91068991Y-82428160D01*
X91090072Y-82421764D01*
X91118140Y-82419000D01*
X92931860Y-82419000D01*
X92959928Y-82421764D01*
G37*
G36*
X97909928Y-82421764D02*
G01*
X97931009Y-82428160D01*
X97950445Y-82438548D01*
X97967476Y-82452524D01*
X97981452Y-82469555D01*
X97991840Y-82488991D01*
X97998236Y-82510072D01*
X98001000Y-82538140D01*
X98001000Y-83001860D01*
X97998236Y-83029928D01*
X97991840Y-83051009D01*
X97981452Y-83070445D01*
X97967476Y-83087476D01*
X97950445Y-83101452D01*
X97931009Y-83111840D01*
X97909928Y-83118236D01*
X97881860Y-83121000D01*
X96068140Y-83121000D01*
X96040072Y-83118236D01*
X96018991Y-83111840D01*
X95999555Y-83101452D01*
X95982524Y-83087476D01*
X95968548Y-83070445D01*
X95958160Y-83051009D01*
X95951764Y-83029928D01*
X95949000Y-83001860D01*
X95949000Y-82538140D01*
X95951764Y-82510072D01*
X95958160Y-82488991D01*
X95968548Y-82469555D01*
X95982524Y-82452524D01*
X95999555Y-82438548D01*
X96018991Y-82428160D01*
X96040072Y-82421764D01*
X96068140Y-82419000D01*
X97881860Y-82419000D01*
X97909928Y-82421764D01*
G37*
G36*
X101584468Y-82028565D02*
G01*
X101623138Y-82040296D01*
X101658777Y-82059346D01*
X101690017Y-82084983D01*
X101715654Y-82116223D01*
X101734704Y-82151862D01*
X101746435Y-82190532D01*
X101751000Y-82236888D01*
X101751000Y-82888112D01*
X101746435Y-82934468D01*
X101734704Y-82973138D01*
X101715654Y-83008777D01*
X101690017Y-83040017D01*
X101658777Y-83065654D01*
X101623138Y-83084704D01*
X101584468Y-83096435D01*
X101538112Y-83101000D01*
X100461888Y-83101000D01*
X100415532Y-83096435D01*
X100376862Y-83084704D01*
X100341223Y-83065654D01*
X100309983Y-83040017D01*
X100284346Y-83008777D01*
X100265296Y-82973138D01*
X100253565Y-82934468D01*
X100249000Y-82888112D01*
X100249000Y-82236888D01*
X100253565Y-82190532D01*
X100265296Y-82151862D01*
X100284346Y-82116223D01*
X100309983Y-82084983D01*
X100341223Y-82059346D01*
X100376862Y-82040296D01*
X100415532Y-82028565D01*
X100461888Y-82024000D01*
X101538112Y-82024000D01*
X101584468Y-82028565D01*
G37*
G36*
X85454690Y-81949390D02*
G01*
X83455310Y-81949390D01*
X83455310Y-79950010D01*
X85454690Y-79950010D01*
X85454690Y-81949390D01*
G37*
G36*
X92959928Y-81151764D02*
G01*
X92981009Y-81158160D01*
X93000445Y-81168548D01*
X93017476Y-81182524D01*
X93031452Y-81199555D01*
X93041840Y-81218991D01*
X93048236Y-81240072D01*
X93051000Y-81268140D01*
X93051000Y-81731860D01*
X93048236Y-81759928D01*
X93041840Y-81781009D01*
X93031452Y-81800445D01*
X93017476Y-81817476D01*
X93000445Y-81831452D01*
X92981009Y-81841840D01*
X92959928Y-81848236D01*
X92931860Y-81851000D01*
X91118140Y-81851000D01*
X91090072Y-81848236D01*
X91068991Y-81841840D01*
X91049555Y-81831452D01*
X91032524Y-81817476D01*
X91018548Y-81800445D01*
X91008160Y-81781009D01*
X91001764Y-81759928D01*
X90999000Y-81731860D01*
X90999000Y-81268140D01*
X91001764Y-81240072D01*
X91008160Y-81218991D01*
X91018548Y-81199555D01*
X91032524Y-81182524D01*
X91049555Y-81168548D01*
X91068991Y-81158160D01*
X91090072Y-81151764D01*
X91118140Y-81149000D01*
X92931860Y-81149000D01*
X92959928Y-81151764D01*
G37*
G36*
X97909928Y-81151764D02*
G01*
X97931009Y-81158160D01*
X97950445Y-81168548D01*
X97967476Y-81182524D01*
X97981452Y-81199555D01*
X97991840Y-81218991D01*
X97998236Y-81240072D01*
X98001000Y-81268140D01*
X98001000Y-81731860D01*
X97998236Y-81759928D01*
X97991840Y-81781009D01*
X97981452Y-81800445D01*
X97967476Y-81817476D01*
X97950445Y-81831452D01*
X97931009Y-81841840D01*
X97909928Y-81848236D01*
X97881860Y-81851000D01*
X96068140Y-81851000D01*
X96040072Y-81848236D01*
X96018991Y-81841840D01*
X95999555Y-81831452D01*
X95982524Y-81817476D01*
X95968548Y-81800445D01*
X95958160Y-81781009D01*
X95951764Y-81759928D01*
X95949000Y-81731860D01*
X95949000Y-81268140D01*
X95951764Y-81240072D01*
X95958160Y-81218991D01*
X95968548Y-81199555D01*
X95982524Y-81182524D01*
X95999555Y-81168548D01*
X96018991Y-81158160D01*
X96040072Y-81151764D01*
X96068140Y-81149000D01*
X97881860Y-81149000D01*
X97909928Y-81151764D01*
G37*
G36*
X101584468Y-79903565D02*
G01*
X101623138Y-79915296D01*
X101658777Y-79934346D01*
X101690017Y-79959983D01*
X101715654Y-79991223D01*
X101734704Y-80026862D01*
X101746435Y-80065532D01*
X101751000Y-80111888D01*
X101751000Y-80763112D01*
X101746435Y-80809468D01*
X101734704Y-80848138D01*
X101715654Y-80883777D01*
X101690017Y-80915017D01*
X101658777Y-80940654D01*
X101623138Y-80959704D01*
X101584468Y-80971435D01*
X101538112Y-80976000D01*
X100461888Y-80976000D01*
X100415532Y-80971435D01*
X100376862Y-80959704D01*
X100341223Y-80940654D01*
X100309983Y-80915017D01*
X100284346Y-80883777D01*
X100265296Y-80848138D01*
X100253565Y-80809468D01*
X100249000Y-80763112D01*
X100249000Y-80111888D01*
X100253565Y-80065532D01*
X100265296Y-80026862D01*
X100284346Y-79991223D01*
X100309983Y-79959983D01*
X100341223Y-79934346D01*
X100376862Y-79915296D01*
X100415532Y-79903565D01*
X100461888Y-79899000D01*
X101538112Y-79899000D01*
X101584468Y-79903565D01*
G37*
G36*
X107428512Y-79113927D02*
G01*
X107577812Y-79143624D01*
X107741784Y-79211544D01*
X107889354Y-79310147D01*
X108014853Y-79435646D01*
X108113456Y-79583216D01*
X108181376Y-79747188D01*
X108207594Y-79879000D01*
X108213478Y-79908577D01*
X108216000Y-79921259D01*
X108216000Y-80098741D01*
X108181376Y-80272812D01*
X108113456Y-80436784D01*
X108014853Y-80584354D01*
X107889354Y-80709853D01*
X107741784Y-80808456D01*
X107577812Y-80876376D01*
X107428512Y-80906073D01*
X107403742Y-80911000D01*
X107226258Y-80911000D01*
X107201488Y-80906073D01*
X107052188Y-80876376D01*
X106888216Y-80808456D01*
X106740646Y-80709853D01*
X106615147Y-80584354D01*
X106516544Y-80436784D01*
X106448624Y-80272812D01*
X106414000Y-80098741D01*
X106414000Y-79921259D01*
X106416523Y-79908577D01*
X106422406Y-79879000D01*
X106448624Y-79747188D01*
X106516544Y-79583216D01*
X106615147Y-79435646D01*
X106740646Y-79310147D01*
X106888216Y-79211544D01*
X107052188Y-79143624D01*
X107201488Y-79113927D01*
X107226258Y-79109000D01*
X107403742Y-79109000D01*
X107428512Y-79113927D01*
G37*
G36*
X97909928Y-79881764D02*
G01*
X97931009Y-79888160D01*
X97950445Y-79898548D01*
X97967476Y-79912524D01*
X97981452Y-79929555D01*
X97991840Y-79948991D01*
X97998236Y-79970072D01*
X98001000Y-79998140D01*
X98001000Y-80461860D01*
X97998236Y-80489928D01*
X97991840Y-80511009D01*
X97981452Y-80530445D01*
X97967476Y-80547476D01*
X97950445Y-80561452D01*
X97931009Y-80571840D01*
X97909928Y-80578236D01*
X97881860Y-80581000D01*
X96068140Y-80581000D01*
X96040072Y-80578236D01*
X96018991Y-80571840D01*
X95999555Y-80561452D01*
X95982524Y-80547476D01*
X95968548Y-80530445D01*
X95958160Y-80511009D01*
X95951764Y-80489928D01*
X95949000Y-80461860D01*
X95949000Y-79998140D01*
X95951764Y-79970072D01*
X95958160Y-79948991D01*
X95968548Y-79929555D01*
X95982524Y-79912524D01*
X95999555Y-79898548D01*
X96018991Y-79888160D01*
X96040072Y-79881764D01*
X96068140Y-79879000D01*
X97881860Y-79879000D01*
X97909928Y-79881764D01*
G37*
G36*
X92959928Y-79881764D02*
G01*
X92981009Y-79888160D01*
X93000445Y-79898548D01*
X93017476Y-79912524D01*
X93031452Y-79929555D01*
X93041840Y-79948991D01*
X93048236Y-79970072D01*
X93051000Y-79998140D01*
X93051000Y-80461860D01*
X93048236Y-80489928D01*
X93041840Y-80511009D01*
X93031452Y-80530445D01*
X93017476Y-80547476D01*
X93000445Y-80561452D01*
X92981009Y-80571840D01*
X92959928Y-80578236D01*
X92931860Y-80581000D01*
X91118140Y-80581000D01*
X91090072Y-80578236D01*
X91068991Y-80571840D01*
X91049555Y-80561452D01*
X91032524Y-80547476D01*
X91018548Y-80530445D01*
X91008160Y-80511009D01*
X91001764Y-80489928D01*
X90999000Y-80461860D01*
X90999000Y-79998140D01*
X91001764Y-79970072D01*
X91008160Y-79948991D01*
X91018548Y-79929555D01*
X91032524Y-79912524D01*
X91049555Y-79898548D01*
X91068991Y-79888160D01*
X91090072Y-79881764D01*
X91118140Y-79879000D01*
X92931860Y-79879000D01*
X92959928Y-79881764D01*
G37*
G36*
X86735036Y-74667585D02*
G01*
X86816891Y-74701490D01*
X86890558Y-74750713D01*
X86953207Y-74813362D01*
X87002430Y-74887029D01*
X87036335Y-74968884D01*
X87053620Y-75055781D01*
X87053620Y-75144379D01*
X87036335Y-75231276D01*
X87017687Y-75276296D01*
X87010574Y-75299745D01*
X87008172Y-75324131D01*
X87010574Y-75348517D01*
X87017687Y-75371966D01*
X87029238Y-75393577D01*
X87044784Y-75412519D01*
X87063726Y-75428064D01*
X87085336Y-75439615D01*
X87108785Y-75446728D01*
X87133171Y-75449130D01*
X88506000Y-75449130D01*
X88506000Y-78550870D01*
X87131683Y-78550870D01*
X87107297Y-78553272D01*
X87083848Y-78560385D01*
X87062237Y-78571936D01*
X87043295Y-78587481D01*
X87027750Y-78606423D01*
X87016199Y-78628034D01*
X87009086Y-78651483D01*
X87006684Y-78675869D01*
X87009086Y-78700255D01*
X87016198Y-78723700D01*
X87033795Y-78766184D01*
X87051080Y-78853081D01*
X87051080Y-78941679D01*
X87033795Y-79028576D01*
X86999890Y-79110431D01*
X86950667Y-79184098D01*
X86888018Y-79246747D01*
X86814351Y-79295970D01*
X86732496Y-79329875D01*
X86645599Y-79347160D01*
X86557001Y-79347160D01*
X86470104Y-79329875D01*
X86388249Y-79295970D01*
X86314582Y-79246747D01*
X86251933Y-79184098D01*
X86202710Y-79110431D01*
X86168805Y-79028576D01*
X86151520Y-78941679D01*
X86151520Y-78853081D01*
X86168805Y-78766184D01*
X86202710Y-78684329D01*
X86251933Y-78610662D01*
X86314582Y-78548013D01*
X86348448Y-78525384D01*
X86367388Y-78509841D01*
X86382933Y-78490899D01*
X86394485Y-78469289D01*
X86401598Y-78445840D01*
X86404000Y-78421453D01*
X86404000Y-75574310D01*
X86401598Y-75549924D01*
X86394485Y-75526475D01*
X86382934Y-75504864D01*
X86367389Y-75485922D01*
X86348446Y-75470377D01*
X86317125Y-75449449D01*
X86317122Y-75449447D01*
X86254473Y-75386798D01*
X86205250Y-75313131D01*
X86171345Y-75231276D01*
X86154060Y-75144379D01*
X86154060Y-75055781D01*
X86171345Y-74968884D01*
X86205250Y-74887029D01*
X86254473Y-74813362D01*
X86317122Y-74750713D01*
X86390789Y-74701490D01*
X86472644Y-74667585D01*
X86559541Y-74650300D01*
X86648139Y-74650300D01*
X86735036Y-74667585D01*
G37*
G36*
X92959928Y-78611764D02*
G01*
X92981009Y-78618160D01*
X93000445Y-78628548D01*
X93017476Y-78642524D01*
X93031452Y-78659555D01*
X93041840Y-78678991D01*
X93048236Y-78700072D01*
X93051000Y-78728140D01*
X93051000Y-79191860D01*
X93048236Y-79219928D01*
X93041840Y-79241009D01*
X93031452Y-79260445D01*
X93017476Y-79277476D01*
X93000445Y-79291452D01*
X92981009Y-79301840D01*
X92959928Y-79308236D01*
X92931860Y-79311000D01*
X91118140Y-79311000D01*
X91090072Y-79308236D01*
X91068991Y-79301840D01*
X91049555Y-79291452D01*
X91032524Y-79277476D01*
X91018548Y-79260445D01*
X91008160Y-79241009D01*
X91001764Y-79219928D01*
X90999000Y-79191860D01*
X90999000Y-78728140D01*
X91001764Y-78700072D01*
X91008160Y-78678991D01*
X91018548Y-78659555D01*
X91032524Y-78642524D01*
X91049555Y-78628548D01*
X91068991Y-78618160D01*
X91090072Y-78611764D01*
X91118140Y-78609000D01*
X92931860Y-78609000D01*
X92959928Y-78611764D01*
G37*
G36*
X97909928Y-78611764D02*
G01*
X97931009Y-78618160D01*
X97950445Y-78628548D01*
X97967476Y-78642524D01*
X97981452Y-78659555D01*
X97991840Y-78678991D01*
X97998236Y-78700072D01*
X98001000Y-78728140D01*
X98001000Y-79191860D01*
X97998236Y-79219928D01*
X97991840Y-79241009D01*
X97981452Y-79260445D01*
X97967476Y-79277476D01*
X97950445Y-79291452D01*
X97931009Y-79301840D01*
X97909928Y-79308236D01*
X97881860Y-79311000D01*
X96068140Y-79311000D01*
X96040072Y-79308236D01*
X96018991Y-79301840D01*
X95999555Y-79291452D01*
X95982524Y-79277476D01*
X95968548Y-79260445D01*
X95958160Y-79241009D01*
X95951764Y-79219928D01*
X95949000Y-79191860D01*
X95949000Y-78728140D01*
X95951764Y-78700072D01*
X95958160Y-78678991D01*
X95968548Y-78659555D01*
X95982524Y-78642524D01*
X95999555Y-78628548D01*
X96018991Y-78618160D01*
X96040072Y-78611764D01*
X96068140Y-78609000D01*
X97881860Y-78609000D01*
X97909928Y-78611764D01*
G37*
G36*
X85454690Y-79198570D02*
G01*
X83455310Y-79198570D01*
X83455310Y-77199190D01*
X85454690Y-77199190D01*
X85454690Y-79198570D01*
G37*
G36*
X101584468Y-78028565D02*
G01*
X101623138Y-78040296D01*
X101658777Y-78059346D01*
X101690017Y-78084983D01*
X101715654Y-78116223D01*
X101734704Y-78151862D01*
X101746435Y-78190532D01*
X101751000Y-78236888D01*
X101751000Y-78888112D01*
X101746435Y-78934468D01*
X101734704Y-78973138D01*
X101715654Y-79008777D01*
X101690017Y-79040017D01*
X101658777Y-79065654D01*
X101623138Y-79084704D01*
X101584468Y-79096435D01*
X101538112Y-79101000D01*
X100461888Y-79101000D01*
X100415532Y-79096435D01*
X100376862Y-79084704D01*
X100341223Y-79065654D01*
X100309983Y-79040017D01*
X100284346Y-79008777D01*
X100265296Y-78973138D01*
X100253565Y-78934468D01*
X100249000Y-78888112D01*
X100249000Y-78236888D01*
X100253565Y-78190532D01*
X100265296Y-78151862D01*
X100284346Y-78116223D01*
X100309983Y-78084983D01*
X100341223Y-78059346D01*
X100376862Y-78040296D01*
X100415532Y-78028565D01*
X100461888Y-78024000D01*
X101538112Y-78024000D01*
X101584468Y-78028565D01*
G37*
G36*
X107428512Y-76573927D02*
G01*
X107577812Y-76603624D01*
X107741784Y-76671544D01*
X107889354Y-76770147D01*
X108014853Y-76895646D01*
X108113456Y-77043216D01*
X108181376Y-77207188D01*
X108207594Y-77339000D01*
X108213478Y-77368577D01*
X108216000Y-77381259D01*
X108216000Y-77558741D01*
X108181376Y-77732812D01*
X108113456Y-77896784D01*
X108014853Y-78044354D01*
X107889354Y-78169853D01*
X107741784Y-78268456D01*
X107577812Y-78336376D01*
X107428512Y-78366073D01*
X107403742Y-78371000D01*
X107226258Y-78371000D01*
X107201488Y-78366073D01*
X107052188Y-78336376D01*
X106888216Y-78268456D01*
X106740646Y-78169853D01*
X106615147Y-78044354D01*
X106516544Y-77896784D01*
X106448624Y-77732812D01*
X106414000Y-77558741D01*
X106414000Y-77381259D01*
X106416523Y-77368577D01*
X106422406Y-77339000D01*
X106448624Y-77207188D01*
X106516544Y-77043216D01*
X106615147Y-76895646D01*
X106740646Y-76770147D01*
X106888216Y-76671544D01*
X107052188Y-76603624D01*
X107201488Y-76573927D01*
X107226258Y-76569000D01*
X107403742Y-76569000D01*
X107428512Y-76573927D01*
G37*
G36*
X92959928Y-77341764D02*
G01*
X92981009Y-77348160D01*
X93000445Y-77358548D01*
X93017476Y-77372524D01*
X93031452Y-77389555D01*
X93041840Y-77408991D01*
X93048236Y-77430072D01*
X93051000Y-77458140D01*
X93051000Y-77921860D01*
X93048236Y-77949928D01*
X93041840Y-77971009D01*
X93031452Y-77990445D01*
X93017476Y-78007476D01*
X93000445Y-78021452D01*
X92981009Y-78031840D01*
X92959928Y-78038236D01*
X92931860Y-78041000D01*
X91118140Y-78041000D01*
X91090072Y-78038236D01*
X91068991Y-78031840D01*
X91049555Y-78021452D01*
X91032524Y-78007476D01*
X91018548Y-77990445D01*
X91008160Y-77971009D01*
X91001764Y-77949928D01*
X90999000Y-77921860D01*
X90999000Y-77458140D01*
X91001764Y-77430072D01*
X91008160Y-77408991D01*
X91018548Y-77389555D01*
X91032524Y-77372524D01*
X91049555Y-77358548D01*
X91068991Y-77348160D01*
X91090072Y-77341764D01*
X91118140Y-77339000D01*
X92931860Y-77339000D01*
X92959928Y-77341764D01*
G37*
G36*
X97909928Y-77341764D02*
G01*
X97931009Y-77348160D01*
X97950445Y-77358548D01*
X97967476Y-77372524D01*
X97981452Y-77389555D01*
X97991840Y-77408991D01*
X97998236Y-77430072D01*
X98001000Y-77458140D01*
X98001000Y-77921860D01*
X97998236Y-77949928D01*
X97991840Y-77971009D01*
X97981452Y-77990445D01*
X97967476Y-78007476D01*
X97950445Y-78021452D01*
X97931009Y-78031840D01*
X97909928Y-78038236D01*
X97881860Y-78041000D01*
X96068140Y-78041000D01*
X96040072Y-78038236D01*
X96018991Y-78031840D01*
X95999555Y-78021452D01*
X95982524Y-78007476D01*
X95968548Y-77990445D01*
X95958160Y-77971009D01*
X95951764Y-77949928D01*
X95949000Y-77921860D01*
X95949000Y-77458140D01*
X95951764Y-77430072D01*
X95958160Y-77408991D01*
X95968548Y-77389555D01*
X95982524Y-77372524D01*
X95999555Y-77358548D01*
X96018991Y-77348160D01*
X96040072Y-77341764D01*
X96068140Y-77339000D01*
X97881860Y-77339000D01*
X97909928Y-77341764D01*
G37*
G36*
X85454690Y-76800810D02*
G01*
X83455310Y-76800810D01*
X83455310Y-74801430D01*
X85454690Y-74801430D01*
X85454690Y-76800810D01*
G37*
G36*
X107428512Y-74033927D02*
G01*
X107577812Y-74063624D01*
X107741784Y-74131544D01*
X107889354Y-74230147D01*
X108014853Y-74355646D01*
X108113456Y-74503216D01*
X108181376Y-74667188D01*
X108216000Y-74841259D01*
X108216000Y-75018741D01*
X108181376Y-75192812D01*
X108113456Y-75356784D01*
X108014853Y-75504354D01*
X107889354Y-75629853D01*
X107741784Y-75728456D01*
X107577812Y-75796376D01*
X107428512Y-75826073D01*
X107403742Y-75831000D01*
X107226258Y-75831000D01*
X107201488Y-75826073D01*
X107052188Y-75796376D01*
X106888216Y-75728456D01*
X106740646Y-75629853D01*
X106615147Y-75504354D01*
X106516544Y-75356784D01*
X106448624Y-75192812D01*
X106414000Y-75018741D01*
X106414000Y-74841259D01*
X106448624Y-74667188D01*
X106516544Y-74503216D01*
X106615147Y-74355646D01*
X106740646Y-74230147D01*
X106888216Y-74131544D01*
X107052188Y-74063624D01*
X107201488Y-74033927D01*
X107226258Y-74029000D01*
X107403742Y-74029000D01*
X107428512Y-74033927D01*
G37*
G36*
X85454690Y-74049990D02*
G01*
X83455310Y-74049990D01*
X83455310Y-72050610D01*
X85454690Y-72050610D01*
X85454690Y-74049990D01*
G37*
G36*
X107428512Y-71493927D02*
G01*
X107577812Y-71523624D01*
X107741784Y-71591544D01*
X107889354Y-71690147D01*
X108014853Y-71815646D01*
X108113456Y-71963216D01*
X108181376Y-72127188D01*
X108216000Y-72301259D01*
X108216000Y-72478741D01*
X108181376Y-72652812D01*
X108113456Y-72816784D01*
X108014853Y-72964354D01*
X107889354Y-73089853D01*
X107741784Y-73188456D01*
X107577812Y-73256376D01*
X107428512Y-73286073D01*
X107403742Y-73291000D01*
X107226258Y-73291000D01*
X107201488Y-73286073D01*
X107052188Y-73256376D01*
X106888216Y-73188456D01*
X106740646Y-73089853D01*
X106615147Y-72964354D01*
X106516544Y-72816784D01*
X106448624Y-72652812D01*
X106414000Y-72478741D01*
X106414000Y-72301259D01*
X106448624Y-72127188D01*
X106516544Y-71963216D01*
X106615147Y-71815646D01*
X106740646Y-71690147D01*
X106888216Y-71591544D01*
X107052188Y-71523624D01*
X107201488Y-71493927D01*
X107226258Y-71489000D01*
X107403742Y-71489000D01*
X107428512Y-71493927D01*
G37*
G36*
X96584468Y-71403565D02*
G01*
X96623138Y-71415296D01*
X96658777Y-71434346D01*
X96690017Y-71459983D01*
X96715654Y-71491223D01*
X96734704Y-71526862D01*
X96746435Y-71565532D01*
X96751000Y-71611888D01*
X96751000Y-72263112D01*
X96746435Y-72309468D01*
X96734704Y-72348138D01*
X96715654Y-72383777D01*
X96690017Y-72415017D01*
X96658777Y-72440654D01*
X96623138Y-72459704D01*
X96584468Y-72471435D01*
X96538112Y-72476000D01*
X95461888Y-72476000D01*
X95415532Y-72471435D01*
X95376862Y-72459704D01*
X95341223Y-72440654D01*
X95309983Y-72415017D01*
X95284346Y-72383777D01*
X95265296Y-72348138D01*
X95253565Y-72309468D01*
X95249000Y-72263112D01*
X95249000Y-71611888D01*
X95253565Y-71565532D01*
X95265296Y-71526862D01*
X95284346Y-71491223D01*
X95309983Y-71459983D01*
X95341223Y-71434346D01*
X95376862Y-71415296D01*
X95415532Y-71403565D01*
X95461888Y-71399000D01*
X96538112Y-71399000D01*
X96584468Y-71403565D01*
G37*
G36*
X100084468Y-71403565D02*
G01*
X100123138Y-71415296D01*
X100158777Y-71434346D01*
X100190017Y-71459983D01*
X100215654Y-71491223D01*
X100234704Y-71526862D01*
X100246435Y-71565532D01*
X100251000Y-71611888D01*
X100251000Y-72263112D01*
X100246435Y-72309468D01*
X100234704Y-72348138D01*
X100215654Y-72383777D01*
X100190017Y-72415017D01*
X100158777Y-72440654D01*
X100123138Y-72459704D01*
X100084468Y-72471435D01*
X100038112Y-72476000D01*
X98961888Y-72476000D01*
X98915532Y-72471435D01*
X98876862Y-72459704D01*
X98841223Y-72440654D01*
X98809983Y-72415017D01*
X98784346Y-72383777D01*
X98765296Y-72348138D01*
X98753565Y-72309468D01*
X98749000Y-72263112D01*
X98749000Y-71611888D01*
X98753565Y-71565532D01*
X98765296Y-71526862D01*
X98784346Y-71491223D01*
X98809983Y-71459983D01*
X98841223Y-71434346D01*
X98876862Y-71415296D01*
X98915532Y-71403565D01*
X98961888Y-71399000D01*
X100038112Y-71399000D01*
X100084468Y-71403565D01*
G37*
G36*
X107428512Y-68953927D02*
G01*
X107577812Y-68983624D01*
X107741784Y-69051544D01*
X107889354Y-69150147D01*
X108014853Y-69275646D01*
X108113456Y-69423216D01*
X108181376Y-69587188D01*
X108216000Y-69761259D01*
X108216000Y-69938741D01*
X108181376Y-70112812D01*
X108113456Y-70276784D01*
X108014853Y-70424354D01*
X107889354Y-70549853D01*
X107741784Y-70648456D01*
X107577812Y-70716376D01*
X107428512Y-70746073D01*
X107403742Y-70751000D01*
X107226258Y-70751000D01*
X107201488Y-70746073D01*
X107052188Y-70716376D01*
X106888216Y-70648456D01*
X106740646Y-70549853D01*
X106615147Y-70424354D01*
X106516544Y-70276784D01*
X106448624Y-70112812D01*
X106414000Y-69938741D01*
X106414000Y-69761259D01*
X106448624Y-69587188D01*
X106516544Y-69423216D01*
X106615147Y-69275646D01*
X106740646Y-69150147D01*
X106888216Y-69051544D01*
X107052188Y-68983624D01*
X107201488Y-68953927D01*
X107226258Y-68949000D01*
X107403742Y-68949000D01*
X107428512Y-68953927D01*
G37*
G36*
X100084468Y-69528565D02*
G01*
X100123138Y-69540296D01*
X100158777Y-69559346D01*
X100190017Y-69584983D01*
X100215654Y-69616223D01*
X100234704Y-69651862D01*
X100246435Y-69690532D01*
X100251000Y-69736888D01*
X100251000Y-70388112D01*
X100246435Y-70434468D01*
X100234704Y-70473138D01*
X100215654Y-70508777D01*
X100190017Y-70540017D01*
X100158777Y-70565654D01*
X100123138Y-70584704D01*
X100084468Y-70596435D01*
X100038112Y-70601000D01*
X98961888Y-70601000D01*
X98915532Y-70596435D01*
X98876862Y-70584704D01*
X98841223Y-70565654D01*
X98809983Y-70540017D01*
X98784346Y-70508777D01*
X98765296Y-70473138D01*
X98753565Y-70434468D01*
X98749000Y-70388112D01*
X98749000Y-69736888D01*
X98753565Y-69690532D01*
X98765296Y-69651862D01*
X98784346Y-69616223D01*
X98809983Y-69584983D01*
X98841223Y-69559346D01*
X98876862Y-69540296D01*
X98915532Y-69528565D01*
X98961888Y-69524000D01*
X100038112Y-69524000D01*
X100084468Y-69528565D01*
G37*
G36*
X96584468Y-69528565D02*
G01*
X96623138Y-69540296D01*
X96658777Y-69559346D01*
X96690017Y-69584983D01*
X96715654Y-69616223D01*
X96734704Y-69651862D01*
X96746435Y-69690532D01*
X96751000Y-69736888D01*
X96751000Y-70388112D01*
X96746435Y-70434468D01*
X96734704Y-70473138D01*
X96715654Y-70508777D01*
X96690017Y-70540017D01*
X96658777Y-70565654D01*
X96623138Y-70584704D01*
X96584468Y-70596435D01*
X96538112Y-70601000D01*
X95461888Y-70601000D01*
X95415532Y-70596435D01*
X95376862Y-70584704D01*
X95341223Y-70565654D01*
X95309983Y-70540017D01*
X95284346Y-70508777D01*
X95265296Y-70473138D01*
X95253565Y-70434468D01*
X95249000Y-70388112D01*
X95249000Y-69736888D01*
X95253565Y-69690532D01*
X95265296Y-69651862D01*
X95284346Y-69616223D01*
X95309983Y-69584983D01*
X95341223Y-69559346D01*
X95376862Y-69540296D01*
X95415532Y-69528565D01*
X95461888Y-69524000D01*
X96538112Y-69524000D01*
X96584468Y-69528565D01*
G37*
G36*
X96584468Y-67403565D02*
G01*
X96623138Y-67415296D01*
X96658777Y-67434346D01*
X96690017Y-67459983D01*
X96715654Y-67491223D01*
X96734704Y-67526862D01*
X96746435Y-67565532D01*
X96751000Y-67611888D01*
X96751000Y-68263112D01*
X96746435Y-68309468D01*
X96734704Y-68348138D01*
X96715654Y-68383777D01*
X96690017Y-68415017D01*
X96658777Y-68440654D01*
X96623138Y-68459704D01*
X96584468Y-68471435D01*
X96538112Y-68476000D01*
X95461888Y-68476000D01*
X95415532Y-68471435D01*
X95376862Y-68459704D01*
X95341223Y-68440654D01*
X95309983Y-68415017D01*
X95284346Y-68383777D01*
X95265296Y-68348138D01*
X95253565Y-68309468D01*
X95249000Y-68263112D01*
X95249000Y-67611888D01*
X95253565Y-67565532D01*
X95265296Y-67526862D01*
X95284346Y-67491223D01*
X95309983Y-67459983D01*
X95341223Y-67434346D01*
X95376862Y-67415296D01*
X95415532Y-67403565D01*
X95461888Y-67399000D01*
X96538112Y-67399000D01*
X96584468Y-67403565D01*
G37*
G36*
X89584468Y-67403565D02*
G01*
X89623138Y-67415296D01*
X89658777Y-67434346D01*
X89690017Y-67459983D01*
X89715654Y-67491223D01*
X89734704Y-67526862D01*
X89746435Y-67565532D01*
X89751000Y-67611888D01*
X89751000Y-68263112D01*
X89746435Y-68309468D01*
X89734704Y-68348138D01*
X89715654Y-68383777D01*
X89690017Y-68415017D01*
X89658777Y-68440654D01*
X89623138Y-68459704D01*
X89584468Y-68471435D01*
X89538112Y-68476000D01*
X88461888Y-68476000D01*
X88415532Y-68471435D01*
X88376862Y-68459704D01*
X88341223Y-68440654D01*
X88309983Y-68415017D01*
X88284346Y-68383777D01*
X88265296Y-68348138D01*
X88253565Y-68309468D01*
X88249000Y-68263112D01*
X88249000Y-67611888D01*
X88253565Y-67565532D01*
X88265296Y-67526862D01*
X88284346Y-67491223D01*
X88309983Y-67459983D01*
X88341223Y-67434346D01*
X88376862Y-67415296D01*
X88415532Y-67403565D01*
X88461888Y-67399000D01*
X89538112Y-67399000D01*
X89584468Y-67403565D01*
G37*
G36*
X93084468Y-67403565D02*
G01*
X93123138Y-67415296D01*
X93158777Y-67434346D01*
X93190017Y-67459983D01*
X93215654Y-67491223D01*
X93234704Y-67526862D01*
X93246435Y-67565532D01*
X93251000Y-67611888D01*
X93251000Y-68263112D01*
X93246435Y-68309468D01*
X93234704Y-68348138D01*
X93215654Y-68383777D01*
X93190017Y-68415017D01*
X93158777Y-68440654D01*
X93123138Y-68459704D01*
X93084468Y-68471435D01*
X93038112Y-68476000D01*
X91961888Y-68476000D01*
X91915532Y-68471435D01*
X91876862Y-68459704D01*
X91841223Y-68440654D01*
X91809983Y-68415017D01*
X91784346Y-68383777D01*
X91765296Y-68348138D01*
X91753565Y-68309468D01*
X91749000Y-68263112D01*
X91749000Y-67611888D01*
X91753565Y-67565532D01*
X91765296Y-67526862D01*
X91784346Y-67491223D01*
X91809983Y-67459983D01*
X91841223Y-67434346D01*
X91876862Y-67415296D01*
X91915532Y-67403565D01*
X91961888Y-67399000D01*
X93038112Y-67399000D01*
X93084468Y-67403565D01*
G37*
G36*
X100084468Y-67403565D02*
G01*
X100123138Y-67415296D01*
X100158777Y-67434346D01*
X100190017Y-67459983D01*
X100215654Y-67491223D01*
X100234704Y-67526862D01*
X100246435Y-67565532D01*
X100251000Y-67611888D01*
X100251000Y-68263112D01*
X100246435Y-68309468D01*
X100234704Y-68348138D01*
X100215654Y-68383777D01*
X100190017Y-68415017D01*
X100158777Y-68440654D01*
X100123138Y-68459704D01*
X100084468Y-68471435D01*
X100038112Y-68476000D01*
X98961888Y-68476000D01*
X98915532Y-68471435D01*
X98876862Y-68459704D01*
X98841223Y-68440654D01*
X98809983Y-68415017D01*
X98784346Y-68383777D01*
X98765296Y-68348138D01*
X98753565Y-68309468D01*
X98749000Y-68263112D01*
X98749000Y-67611888D01*
X98753565Y-67565532D01*
X98765296Y-67526862D01*
X98784346Y-67491223D01*
X98809983Y-67459983D01*
X98841223Y-67434346D01*
X98876862Y-67415296D01*
X98915532Y-67403565D01*
X98961888Y-67399000D01*
X100038112Y-67399000D01*
X100084468Y-67403565D01*
G37*
G36*
X84737142Y-66758242D02*
G01*
X84885101Y-66819529D01*
X85018255Y-66908499D01*
X85131501Y-67021745D01*
X85220471Y-67154899D01*
X85281758Y-67302858D01*
X85313000Y-67459925D01*
X85313000Y-67620075D01*
X85281758Y-67777142D01*
X85220471Y-67925101D01*
X85131501Y-68058255D01*
X85018255Y-68171501D01*
X84885101Y-68260471D01*
X84737142Y-68321758D01*
X84580075Y-68353000D01*
X84419925Y-68353000D01*
X84262858Y-68321758D01*
X84114899Y-68260471D01*
X83981745Y-68171501D01*
X83868499Y-68058255D01*
X83779529Y-67925101D01*
X83718242Y-67777142D01*
X83687000Y-67620075D01*
X83687000Y-67459925D01*
X83718242Y-67302858D01*
X83779529Y-67154899D01*
X83868499Y-67021745D01*
X83981745Y-66908499D01*
X84114899Y-66819529D01*
X84262858Y-66758242D01*
X84419925Y-66727000D01*
X84580075Y-66727000D01*
X84737142Y-66758242D01*
G37*
G36*
X107428512Y-66413927D02*
G01*
X107577812Y-66443624D01*
X107741784Y-66511544D01*
X107889354Y-66610147D01*
X108014853Y-66735646D01*
X108113456Y-66883216D01*
X108181376Y-67047188D01*
X108211073Y-67196488D01*
X108216000Y-67221258D01*
X108216000Y-67398742D01*
X108214919Y-67404174D01*
X108181376Y-67572812D01*
X108113456Y-67736784D01*
X108014853Y-67884354D01*
X107889354Y-68009853D01*
X107741784Y-68108456D01*
X107577812Y-68176376D01*
X107428512Y-68206073D01*
X107403742Y-68211000D01*
X107226258Y-68211000D01*
X107201488Y-68206073D01*
X107052188Y-68176376D01*
X106888216Y-68108456D01*
X106740646Y-68009853D01*
X106615147Y-67884354D01*
X106516544Y-67736784D01*
X106448624Y-67572812D01*
X106415081Y-67404174D01*
X106414000Y-67398742D01*
X106414000Y-67221258D01*
X106418927Y-67196488D01*
X106448624Y-67047188D01*
X106516544Y-66883216D01*
X106615147Y-66735646D01*
X106740646Y-66610147D01*
X106888216Y-66511544D01*
X107052188Y-66443624D01*
X107201488Y-66413927D01*
X107226258Y-66409000D01*
X107403742Y-66409000D01*
X107428512Y-66413927D01*
G37*
G36*
X93084468Y-65528565D02*
G01*
X93123138Y-65540296D01*
X93158777Y-65559346D01*
X93190017Y-65584983D01*
X93215654Y-65616223D01*
X93234704Y-65651862D01*
X93246435Y-65690532D01*
X93251000Y-65736888D01*
X93251000Y-66388112D01*
X93246435Y-66434468D01*
X93234704Y-66473138D01*
X93215654Y-66508777D01*
X93190017Y-66540017D01*
X93158777Y-66565654D01*
X93123138Y-66584704D01*
X93084468Y-66596435D01*
X93038112Y-66601000D01*
X91961888Y-66601000D01*
X91915532Y-66596435D01*
X91876862Y-66584704D01*
X91841223Y-66565654D01*
X91809983Y-66540017D01*
X91784346Y-66508777D01*
X91765296Y-66473138D01*
X91753565Y-66434468D01*
X91749000Y-66388112D01*
X91749000Y-65736888D01*
X91753565Y-65690532D01*
X91765296Y-65651862D01*
X91784346Y-65616223D01*
X91809983Y-65584983D01*
X91841223Y-65559346D01*
X91876862Y-65540296D01*
X91915532Y-65528565D01*
X91961888Y-65524000D01*
X93038112Y-65524000D01*
X93084468Y-65528565D01*
G37*
G36*
X100084468Y-65528565D02*
G01*
X100123138Y-65540296D01*
X100158777Y-65559346D01*
X100190017Y-65584983D01*
X100215654Y-65616223D01*
X100234704Y-65651862D01*
X100246435Y-65690532D01*
X100251000Y-65736888D01*
X100251000Y-66388112D01*
X100246435Y-66434468D01*
X100234704Y-66473138D01*
X100215654Y-66508777D01*
X100190017Y-66540017D01*
X100158777Y-66565654D01*
X100123138Y-66584704D01*
X100084468Y-66596435D01*
X100038112Y-66601000D01*
X98961888Y-66601000D01*
X98915532Y-66596435D01*
X98876862Y-66584704D01*
X98841223Y-66565654D01*
X98809983Y-66540017D01*
X98784346Y-66508777D01*
X98765296Y-66473138D01*
X98753565Y-66434468D01*
X98749000Y-66388112D01*
X98749000Y-65736888D01*
X98753565Y-65690532D01*
X98765296Y-65651862D01*
X98784346Y-65616223D01*
X98809983Y-65584983D01*
X98841223Y-65559346D01*
X98876862Y-65540296D01*
X98915532Y-65528565D01*
X98961888Y-65524000D01*
X100038112Y-65524000D01*
X100084468Y-65528565D01*
G37*
G36*
X96584468Y-65528565D02*
G01*
X96623138Y-65540296D01*
X96658777Y-65559346D01*
X96690017Y-65584983D01*
X96715654Y-65616223D01*
X96734704Y-65651862D01*
X96746435Y-65690532D01*
X96751000Y-65736888D01*
X96751000Y-66388112D01*
X96746435Y-66434468D01*
X96734704Y-66473138D01*
X96715654Y-66508777D01*
X96690017Y-66540017D01*
X96658777Y-66565654D01*
X96623138Y-66584704D01*
X96584468Y-66596435D01*
X96538112Y-66601000D01*
X95461888Y-66601000D01*
X95415532Y-66596435D01*
X95376862Y-66584704D01*
X95341223Y-66565654D01*
X95309983Y-66540017D01*
X95284346Y-66508777D01*
X95265296Y-66473138D01*
X95253565Y-66434468D01*
X95249000Y-66388112D01*
X95249000Y-65736888D01*
X95253565Y-65690532D01*
X95265296Y-65651862D01*
X95284346Y-65616223D01*
X95309983Y-65584983D01*
X95341223Y-65559346D01*
X95376862Y-65540296D01*
X95415532Y-65528565D01*
X95461888Y-65524000D01*
X96538112Y-65524000D01*
X96584468Y-65528565D01*
G37*
G36*
X89584468Y-65528565D02*
G01*
X89623138Y-65540296D01*
X89658777Y-65559346D01*
X89690017Y-65584983D01*
X89715654Y-65616223D01*
X89734704Y-65651862D01*
X89746435Y-65690532D01*
X89751000Y-65736888D01*
X89751000Y-66388112D01*
X89746435Y-66434468D01*
X89734704Y-66473138D01*
X89715654Y-66508777D01*
X89690017Y-66540017D01*
X89658777Y-66565654D01*
X89623138Y-66584704D01*
X89584468Y-66596435D01*
X89538112Y-66601000D01*
X88461888Y-66601000D01*
X88415532Y-66596435D01*
X88376862Y-66584704D01*
X88341223Y-66565654D01*
X88309983Y-66540017D01*
X88284346Y-66508777D01*
X88265296Y-66473138D01*
X88253565Y-66434468D01*
X88249000Y-66388112D01*
X88249000Y-65736888D01*
X88253565Y-65690532D01*
X88265296Y-65651862D01*
X88284346Y-65616223D01*
X88309983Y-65584983D01*
X88341223Y-65559346D01*
X88376862Y-65540296D01*
X88415532Y-65528565D01*
X88461888Y-65524000D01*
X89538112Y-65524000D01*
X89584468Y-65528565D01*
G37*
G36*
X84737142Y-64218242D02*
G01*
X84885101Y-64279529D01*
X85018255Y-64368499D01*
X85131501Y-64481745D01*
X85220471Y-64614899D01*
X85281758Y-64762858D01*
X85313000Y-64919925D01*
X85313000Y-65080075D01*
X85281758Y-65237142D01*
X85220471Y-65385101D01*
X85131501Y-65518255D01*
X85018255Y-65631501D01*
X84885101Y-65720471D01*
X84737142Y-65781758D01*
X84580075Y-65813000D01*
X84419925Y-65813000D01*
X84262858Y-65781758D01*
X84114899Y-65720471D01*
X83981745Y-65631501D01*
X83868499Y-65518255D01*
X83779529Y-65385101D01*
X83718242Y-65237142D01*
X83687000Y-65080075D01*
X83687000Y-64919925D01*
X83718242Y-64762858D01*
X83779529Y-64614899D01*
X83868499Y-64481745D01*
X83981745Y-64368499D01*
X84114899Y-64279529D01*
X84262858Y-64218242D01*
X84419925Y-64187000D01*
X84580075Y-64187000D01*
X84737142Y-64218242D01*
G37*
G36*
X107428512Y-63873927D02*
G01*
X107577812Y-63903624D01*
X107741784Y-63971544D01*
X107889354Y-64070147D01*
X108014853Y-64195646D01*
X108113456Y-64343216D01*
X108181376Y-64507188D01*
X108216000Y-64681259D01*
X108216000Y-64858741D01*
X108181376Y-65032812D01*
X108113456Y-65196784D01*
X108014853Y-65344354D01*
X107889354Y-65469853D01*
X107741784Y-65568456D01*
X107577812Y-65636376D01*
X107428512Y-65666073D01*
X107403742Y-65671000D01*
X107226258Y-65671000D01*
X107201488Y-65666073D01*
X107052188Y-65636376D01*
X106888216Y-65568456D01*
X106740646Y-65469853D01*
X106615147Y-65344354D01*
X106516544Y-65196784D01*
X106448624Y-65032812D01*
X106414000Y-64858741D01*
X106414000Y-64681259D01*
X106448624Y-64507188D01*
X106516544Y-64343216D01*
X106615147Y-64195646D01*
X106740646Y-64070147D01*
X106888216Y-63971544D01*
X107052188Y-63903624D01*
X107201488Y-63873927D01*
X107226258Y-63869000D01*
X107403742Y-63869000D01*
X107428512Y-63873927D01*
G37*
G36*
X96588674Y-63403465D02*
G01*
X96626367Y-63414899D01*
X96661103Y-63433466D01*
X96691548Y-63458452D01*
X96716534Y-63488897D01*
X96735101Y-63523633D01*
X96746535Y-63561326D01*
X96751000Y-63606661D01*
X96751000Y-64443339D01*
X96746535Y-64488674D01*
X96735101Y-64526367D01*
X96716534Y-64561103D01*
X96691548Y-64591548D01*
X96661103Y-64616534D01*
X96626367Y-64635101D01*
X96588674Y-64646535D01*
X96543339Y-64651000D01*
X95456661Y-64651000D01*
X95411326Y-64646535D01*
X95373633Y-64635101D01*
X95338897Y-64616534D01*
X95308452Y-64591548D01*
X95283466Y-64561103D01*
X95264899Y-64526367D01*
X95253465Y-64488674D01*
X95249000Y-64443339D01*
X95249000Y-63606661D01*
X95253465Y-63561326D01*
X95264899Y-63523633D01*
X95283466Y-63488897D01*
X95308452Y-63458452D01*
X95338897Y-63433466D01*
X95373633Y-63414899D01*
X95411326Y-63403465D01*
X95456661Y-63399000D01*
X96543339Y-63399000D01*
X96588674Y-63403465D01*
G37*
G36*
X100088674Y-63403465D02*
G01*
X100126367Y-63414899D01*
X100161103Y-63433466D01*
X100191548Y-63458452D01*
X100216534Y-63488897D01*
X100235101Y-63523633D01*
X100246535Y-63561326D01*
X100251000Y-63606661D01*
X100251000Y-64443339D01*
X100246535Y-64488674D01*
X100235101Y-64526367D01*
X100216534Y-64561103D01*
X100191548Y-64591548D01*
X100161103Y-64616534D01*
X100126367Y-64635101D01*
X100088674Y-64646535D01*
X100043339Y-64651000D01*
X98956661Y-64651000D01*
X98911326Y-64646535D01*
X98873633Y-64635101D01*
X98838897Y-64616534D01*
X98808452Y-64591548D01*
X98783466Y-64561103D01*
X98764899Y-64526367D01*
X98753465Y-64488674D01*
X98749000Y-64443339D01*
X98749000Y-63606661D01*
X98753465Y-63561326D01*
X98764899Y-63523633D01*
X98783466Y-63488897D01*
X98808452Y-63458452D01*
X98838897Y-63433466D01*
X98873633Y-63414899D01*
X98911326Y-63403465D01*
X98956661Y-63399000D01*
X100043339Y-63399000D01*
X100088674Y-63403465D01*
G37*
G36*
X93088674Y-63403465D02*
G01*
X93126367Y-63414899D01*
X93161103Y-63433466D01*
X93191548Y-63458452D01*
X93216534Y-63488897D01*
X93235101Y-63523633D01*
X93246535Y-63561326D01*
X93251000Y-63606661D01*
X93251000Y-64443339D01*
X93246535Y-64488674D01*
X93235101Y-64526367D01*
X93216534Y-64561103D01*
X93191548Y-64591548D01*
X93161103Y-64616534D01*
X93126367Y-64635101D01*
X93088674Y-64646535D01*
X93043339Y-64651000D01*
X91956661Y-64651000D01*
X91911326Y-64646535D01*
X91873633Y-64635101D01*
X91838897Y-64616534D01*
X91808452Y-64591548D01*
X91783466Y-64561103D01*
X91764899Y-64526367D01*
X91753465Y-64488674D01*
X91749000Y-64443339D01*
X91749000Y-63606661D01*
X91753465Y-63561326D01*
X91764899Y-63523633D01*
X91783466Y-63488897D01*
X91808452Y-63458452D01*
X91838897Y-63433466D01*
X91873633Y-63414899D01*
X91911326Y-63403465D01*
X91956661Y-63399000D01*
X93043339Y-63399000D01*
X93088674Y-63403465D01*
G37*
G36*
X89588674Y-63403465D02*
G01*
X89626367Y-63414899D01*
X89661103Y-63433466D01*
X89691548Y-63458452D01*
X89716534Y-63488897D01*
X89735101Y-63523633D01*
X89746535Y-63561326D01*
X89751000Y-63606661D01*
X89751000Y-64443339D01*
X89746535Y-64488674D01*
X89735101Y-64526367D01*
X89716534Y-64561103D01*
X89691548Y-64591548D01*
X89661103Y-64616534D01*
X89626367Y-64635101D01*
X89588674Y-64646535D01*
X89543339Y-64651000D01*
X88456661Y-64651000D01*
X88411326Y-64646535D01*
X88373633Y-64635101D01*
X88338897Y-64616534D01*
X88308452Y-64591548D01*
X88283466Y-64561103D01*
X88264899Y-64526367D01*
X88253465Y-64488674D01*
X88249000Y-64443339D01*
X88249000Y-63606661D01*
X88253465Y-63561326D01*
X88264899Y-63523633D01*
X88283466Y-63488897D01*
X88308452Y-63458452D01*
X88338897Y-63433466D01*
X88373633Y-63414899D01*
X88411326Y-63403465D01*
X88456661Y-63399000D01*
X89543339Y-63399000D01*
X89588674Y-63403465D01*
G37*
G36*
X84737142Y-61678242D02*
G01*
X84885101Y-61739529D01*
X85018255Y-61828499D01*
X85131501Y-61941745D01*
X85220471Y-62074899D01*
X85281758Y-62222858D01*
X85313000Y-62379925D01*
X85313000Y-62540075D01*
X85281758Y-62697142D01*
X85220471Y-62845101D01*
X85131501Y-62978255D01*
X85018255Y-63091501D01*
X84885101Y-63180471D01*
X84737142Y-63241758D01*
X84580075Y-63273000D01*
X84419925Y-63273000D01*
X84262858Y-63241758D01*
X84114899Y-63180471D01*
X83981745Y-63091501D01*
X83868499Y-62978255D01*
X83779529Y-62845101D01*
X83718242Y-62697142D01*
X83687000Y-62540075D01*
X83687000Y-62379925D01*
X83718242Y-62222858D01*
X83779529Y-62074899D01*
X83868499Y-61941745D01*
X83981745Y-61828499D01*
X84114899Y-61739529D01*
X84262858Y-61678242D01*
X84419925Y-61647000D01*
X84580075Y-61647000D01*
X84737142Y-61678242D01*
G37*
G36*
X107428512Y-61333927D02*
G01*
X107577812Y-61363624D01*
X107741784Y-61431544D01*
X107889354Y-61530147D01*
X108014853Y-61655646D01*
X108113456Y-61803216D01*
X108181376Y-61967188D01*
X108216000Y-62141259D01*
X108216000Y-62318741D01*
X108181376Y-62492812D01*
X108113456Y-62656784D01*
X108014853Y-62804354D01*
X107889354Y-62929853D01*
X107741784Y-63028456D01*
X107577812Y-63096376D01*
X107428512Y-63126073D01*
X107403742Y-63131000D01*
X107226258Y-63131000D01*
X107201488Y-63126073D01*
X107052188Y-63096376D01*
X106888216Y-63028456D01*
X106740646Y-62929853D01*
X106615147Y-62804354D01*
X106516544Y-62656784D01*
X106448624Y-62492812D01*
X106414000Y-62318741D01*
X106414000Y-62141259D01*
X106448624Y-61967188D01*
X106516544Y-61803216D01*
X106615147Y-61655646D01*
X106740646Y-61530147D01*
X106888216Y-61431544D01*
X107052188Y-61363624D01*
X107201488Y-61333927D01*
X107226258Y-61329000D01*
X107403742Y-61329000D01*
X107428512Y-61333927D01*
G37*
G36*
X100088674Y-61353465D02*
G01*
X100126367Y-61364899D01*
X100161103Y-61383466D01*
X100191548Y-61408452D01*
X100216534Y-61438897D01*
X100235101Y-61473633D01*
X100246535Y-61511326D01*
X100251000Y-61556661D01*
X100251000Y-62393339D01*
X100246535Y-62438674D01*
X100235101Y-62476367D01*
X100216534Y-62511103D01*
X100191548Y-62541548D01*
X100161103Y-62566534D01*
X100126367Y-62585101D01*
X100088674Y-62596535D01*
X100043339Y-62601000D01*
X98956661Y-62601000D01*
X98911326Y-62596535D01*
X98873633Y-62585101D01*
X98838897Y-62566534D01*
X98808452Y-62541548D01*
X98783466Y-62511103D01*
X98764899Y-62476367D01*
X98753465Y-62438674D01*
X98749000Y-62393339D01*
X98749000Y-61556661D01*
X98753465Y-61511326D01*
X98764899Y-61473633D01*
X98783466Y-61438897D01*
X98808452Y-61408452D01*
X98838897Y-61383466D01*
X98873633Y-61364899D01*
X98911326Y-61353465D01*
X98956661Y-61349000D01*
X100043339Y-61349000D01*
X100088674Y-61353465D01*
G37*
G36*
X96588674Y-61353465D02*
G01*
X96626367Y-61364899D01*
X96661103Y-61383466D01*
X96691548Y-61408452D01*
X96716534Y-61438897D01*
X96735101Y-61473633D01*
X96746535Y-61511326D01*
X96751000Y-61556661D01*
X96751000Y-62393339D01*
X96746535Y-62438674D01*
X96735101Y-62476367D01*
X96716534Y-62511103D01*
X96691548Y-62541548D01*
X96661103Y-62566534D01*
X96626367Y-62585101D01*
X96588674Y-62596535D01*
X96543339Y-62601000D01*
X95456661Y-62601000D01*
X95411326Y-62596535D01*
X95373633Y-62585101D01*
X95338897Y-62566534D01*
X95308452Y-62541548D01*
X95283466Y-62511103D01*
X95264899Y-62476367D01*
X95253465Y-62438674D01*
X95249000Y-62393339D01*
X95249000Y-61556661D01*
X95253465Y-61511326D01*
X95264899Y-61473633D01*
X95283466Y-61438897D01*
X95308452Y-61408452D01*
X95338897Y-61383466D01*
X95373633Y-61364899D01*
X95411326Y-61353465D01*
X95456661Y-61349000D01*
X96543339Y-61349000D01*
X96588674Y-61353465D01*
G37*
G36*
X93088674Y-61353465D02*
G01*
X93126367Y-61364899D01*
X93161103Y-61383466D01*
X93191548Y-61408452D01*
X93216534Y-61438897D01*
X93235101Y-61473633D01*
X93246535Y-61511326D01*
X93251000Y-61556661D01*
X93251000Y-62393339D01*
X93246535Y-62438674D01*
X93235101Y-62476367D01*
X93216534Y-62511103D01*
X93191548Y-62541548D01*
X93161103Y-62566534D01*
X93126367Y-62585101D01*
X93088674Y-62596535D01*
X93043339Y-62601000D01*
X91956661Y-62601000D01*
X91911326Y-62596535D01*
X91873633Y-62585101D01*
X91838897Y-62566534D01*
X91808452Y-62541548D01*
X91783466Y-62511103D01*
X91764899Y-62476367D01*
X91753465Y-62438674D01*
X91749000Y-62393339D01*
X91749000Y-61556661D01*
X91753465Y-61511326D01*
X91764899Y-61473633D01*
X91783466Y-61438897D01*
X91808452Y-61408452D01*
X91838897Y-61383466D01*
X91873633Y-61364899D01*
X91911326Y-61353465D01*
X91956661Y-61349000D01*
X93043339Y-61349000D01*
X93088674Y-61353465D01*
G37*
G36*
X89588674Y-61353465D02*
G01*
X89626367Y-61364899D01*
X89661103Y-61383466D01*
X89691548Y-61408452D01*
X89716534Y-61438897D01*
X89735101Y-61473633D01*
X89746535Y-61511326D01*
X89751000Y-61556661D01*
X89751000Y-62393339D01*
X89746535Y-62438674D01*
X89735101Y-62476367D01*
X89716534Y-62511103D01*
X89691548Y-62541548D01*
X89661103Y-62566534D01*
X89626367Y-62585101D01*
X89588674Y-62596535D01*
X89543339Y-62601000D01*
X88456661Y-62601000D01*
X88411326Y-62596535D01*
X88373633Y-62585101D01*
X88338897Y-62566534D01*
X88308452Y-62541548D01*
X88283466Y-62511103D01*
X88264899Y-62476367D01*
X88253465Y-62438674D01*
X88249000Y-62393339D01*
X88249000Y-61556661D01*
X88253465Y-61511326D01*
X88264899Y-61473633D01*
X88283466Y-61438897D01*
X88308452Y-61408452D01*
X88338897Y-61383466D01*
X88373633Y-61364899D01*
X88411326Y-61353465D01*
X88456661Y-61349000D01*
X89543339Y-61349000D01*
X89588674Y-61353465D01*
G37*
M02*
