G04 #@! TF.GenerationSoftware,KiCad,Pcbnew,5.1.5+dfsg1-2build2*
G04 #@! TF.CreationDate,2021-01-19T23:15:54+01:00*
G04 #@! TF.ProjectId,t100-usb,74313030-2d75-4736-922e-6b696361645f,rev?*
G04 #@! TF.SameCoordinates,Original*
G04 #@! TF.FileFunction,Soldermask,Bot*
G04 #@! TF.FilePolarity,Negative*
%FSLAX46Y46*%
G04 Gerber Fmt 4.6, Leading zero omitted, Abs format (unit mm)*
G04 Created by KiCad (PCBNEW 5.1.5+dfsg1-2build2) date 2021-01-19 23:15:54*
%MOMM*%
%LPD*%
G04 APERTURE LIST*
%ADD10C,0.100000*%
G04 APERTURE END LIST*
D10*
G36*
X86409473Y-96708413D02*
G01*
X86505040Y-96717825D01*
X86750280Y-96792218D01*
X86976294Y-96913025D01*
X87027899Y-96955376D01*
X87174397Y-97075603D01*
X87294624Y-97222101D01*
X87336975Y-97273706D01*
X87457782Y-97499720D01*
X87532175Y-97744960D01*
X87557294Y-98000000D01*
X87532175Y-98255040D01*
X87457782Y-98500280D01*
X87336975Y-98726294D01*
X87294624Y-98777899D01*
X87174397Y-98924397D01*
X87027899Y-99044624D01*
X86976294Y-99086975D01*
X86750280Y-99207782D01*
X86505040Y-99282175D01*
X86409473Y-99291587D01*
X86313906Y-99301000D01*
X85686094Y-99301000D01*
X85590527Y-99291587D01*
X85494960Y-99282175D01*
X85249720Y-99207782D01*
X85023706Y-99086975D01*
X84972101Y-99044624D01*
X84825603Y-98924397D01*
X84705376Y-98777899D01*
X84663025Y-98726294D01*
X84542218Y-98500280D01*
X84467825Y-98255040D01*
X84442706Y-98000000D01*
X84467825Y-97744960D01*
X84542218Y-97499720D01*
X84663025Y-97273706D01*
X84705376Y-97222101D01*
X84825603Y-97075603D01*
X84972101Y-96955376D01*
X85023706Y-96913025D01*
X85249720Y-96792218D01*
X85494960Y-96717825D01*
X85590527Y-96708413D01*
X85686094Y-96699000D01*
X86313906Y-96699000D01*
X86409473Y-96708413D01*
G37*
G36*
X86409473Y-91708413D02*
G01*
X86505040Y-91717825D01*
X86750280Y-91792218D01*
X86976294Y-91913025D01*
X87027899Y-91955376D01*
X87174397Y-92075603D01*
X87294624Y-92222101D01*
X87336975Y-92273706D01*
X87457782Y-92499720D01*
X87532175Y-92744960D01*
X87557294Y-93000000D01*
X87532175Y-93255040D01*
X87457782Y-93500280D01*
X87336975Y-93726294D01*
X87294624Y-93777899D01*
X87174397Y-93924397D01*
X87027899Y-94044624D01*
X86976294Y-94086975D01*
X86750280Y-94207782D01*
X86505040Y-94282175D01*
X86409472Y-94291588D01*
X86313906Y-94301000D01*
X85686094Y-94301000D01*
X85590528Y-94291588D01*
X85494960Y-94282175D01*
X85249720Y-94207782D01*
X85023706Y-94086975D01*
X84972101Y-94044624D01*
X84825603Y-93924397D01*
X84705376Y-93777899D01*
X84663025Y-93726294D01*
X84542218Y-93500280D01*
X84467825Y-93255040D01*
X84442706Y-93000000D01*
X84467825Y-92744960D01*
X84542218Y-92499720D01*
X84663025Y-92273706D01*
X84705376Y-92222101D01*
X84825603Y-92075603D01*
X84972101Y-91955376D01*
X85023706Y-91913025D01*
X85249720Y-91792218D01*
X85494960Y-91717825D01*
X85590527Y-91708413D01*
X85686094Y-91699000D01*
X86313906Y-91699000D01*
X86409473Y-91708413D01*
G37*
G36*
X108216000Y-91071000D02*
G01*
X106414000Y-91071000D01*
X106414000Y-89269000D01*
X108216000Y-89269000D01*
X108216000Y-91071000D01*
G37*
G36*
X107428512Y-86733927D02*
G01*
X107577812Y-86763624D01*
X107741784Y-86831544D01*
X107889354Y-86930147D01*
X108014853Y-87055646D01*
X108113456Y-87203216D01*
X108181376Y-87367188D01*
X108216000Y-87541259D01*
X108216000Y-87718741D01*
X108181376Y-87892812D01*
X108113456Y-88056784D01*
X108014853Y-88204354D01*
X107889354Y-88329853D01*
X107741784Y-88428456D01*
X107577812Y-88496376D01*
X107428512Y-88526073D01*
X107403742Y-88531000D01*
X107226258Y-88531000D01*
X107201488Y-88526073D01*
X107052188Y-88496376D01*
X106888216Y-88428456D01*
X106740646Y-88329853D01*
X106615147Y-88204354D01*
X106516544Y-88056784D01*
X106448624Y-87892812D01*
X106414000Y-87718741D01*
X106414000Y-87541259D01*
X106448624Y-87367188D01*
X106516544Y-87203216D01*
X106615147Y-87055646D01*
X106740646Y-86930147D01*
X106888216Y-86831544D01*
X107052188Y-86763624D01*
X107201488Y-86733927D01*
X107226258Y-86729000D01*
X107403742Y-86729000D01*
X107428512Y-86733927D01*
G37*
G36*
X107428512Y-84193927D02*
G01*
X107577812Y-84223624D01*
X107741784Y-84291544D01*
X107889354Y-84390147D01*
X108014853Y-84515646D01*
X108113456Y-84663216D01*
X108181376Y-84827188D01*
X108216000Y-85001259D01*
X108216000Y-85178741D01*
X108181376Y-85352812D01*
X108113456Y-85516784D01*
X108014853Y-85664354D01*
X107889354Y-85789853D01*
X107741784Y-85888456D01*
X107577812Y-85956376D01*
X107428512Y-85986073D01*
X107403742Y-85991000D01*
X107226258Y-85991000D01*
X107201488Y-85986073D01*
X107052188Y-85956376D01*
X106888216Y-85888456D01*
X106740646Y-85789853D01*
X106615147Y-85664354D01*
X106516544Y-85516784D01*
X106448624Y-85352812D01*
X106414000Y-85178741D01*
X106414000Y-85001259D01*
X106448624Y-84827188D01*
X106516544Y-84663216D01*
X106615147Y-84515646D01*
X106740646Y-84390147D01*
X106888216Y-84291544D01*
X107052188Y-84223624D01*
X107201488Y-84193927D01*
X107226258Y-84189000D01*
X107403742Y-84189000D01*
X107428512Y-84193927D01*
G37*
G36*
X107428512Y-81653927D02*
G01*
X107577812Y-81683624D01*
X107741784Y-81751544D01*
X107889354Y-81850147D01*
X108014853Y-81975646D01*
X108113456Y-82123216D01*
X108181376Y-82287188D01*
X108216000Y-82461259D01*
X108216000Y-82638741D01*
X108181376Y-82812812D01*
X108113456Y-82976784D01*
X108014853Y-83124354D01*
X107889354Y-83249853D01*
X107741784Y-83348456D01*
X107577812Y-83416376D01*
X107428512Y-83446073D01*
X107403742Y-83451000D01*
X107226258Y-83451000D01*
X107201488Y-83446073D01*
X107052188Y-83416376D01*
X106888216Y-83348456D01*
X106740646Y-83249853D01*
X106615147Y-83124354D01*
X106516544Y-82976784D01*
X106448624Y-82812812D01*
X106414000Y-82638741D01*
X106414000Y-82461259D01*
X106448624Y-82287188D01*
X106516544Y-82123216D01*
X106615147Y-81975646D01*
X106740646Y-81850147D01*
X106888216Y-81751544D01*
X107052188Y-81683624D01*
X107201488Y-81653927D01*
X107226258Y-81649000D01*
X107403742Y-81649000D01*
X107428512Y-81653927D01*
G37*
G36*
X107428512Y-79113927D02*
G01*
X107577812Y-79143624D01*
X107741784Y-79211544D01*
X107889354Y-79310147D01*
X108014853Y-79435646D01*
X108113456Y-79583216D01*
X108181376Y-79747188D01*
X108216000Y-79921259D01*
X108216000Y-80098741D01*
X108181376Y-80272812D01*
X108113456Y-80436784D01*
X108014853Y-80584354D01*
X107889354Y-80709853D01*
X107741784Y-80808456D01*
X107577812Y-80876376D01*
X107428512Y-80906073D01*
X107403742Y-80911000D01*
X107226258Y-80911000D01*
X107201488Y-80906073D01*
X107052188Y-80876376D01*
X106888216Y-80808456D01*
X106740646Y-80709853D01*
X106615147Y-80584354D01*
X106516544Y-80436784D01*
X106448624Y-80272812D01*
X106414000Y-80098741D01*
X106414000Y-79921259D01*
X106448624Y-79747188D01*
X106516544Y-79583216D01*
X106615147Y-79435646D01*
X106740646Y-79310147D01*
X106888216Y-79211544D01*
X107052188Y-79143624D01*
X107201488Y-79113927D01*
X107226258Y-79109000D01*
X107403742Y-79109000D01*
X107428512Y-79113927D01*
G37*
G36*
X86732496Y-78464885D02*
G01*
X86814351Y-78498790D01*
X86888018Y-78548013D01*
X86950667Y-78610662D01*
X86999890Y-78684329D01*
X87033795Y-78766184D01*
X87051080Y-78853081D01*
X87051080Y-78941679D01*
X87033795Y-79028576D01*
X86999890Y-79110431D01*
X86950667Y-79184098D01*
X86888018Y-79246747D01*
X86814351Y-79295970D01*
X86732496Y-79329875D01*
X86645599Y-79347160D01*
X86557001Y-79347160D01*
X86470104Y-79329875D01*
X86388249Y-79295970D01*
X86314582Y-79246747D01*
X86251933Y-79184098D01*
X86202710Y-79110431D01*
X86168805Y-79028576D01*
X86151520Y-78941679D01*
X86151520Y-78853081D01*
X86168805Y-78766184D01*
X86202710Y-78684329D01*
X86251933Y-78610662D01*
X86314582Y-78548013D01*
X86388249Y-78498790D01*
X86470104Y-78464885D01*
X86557001Y-78447600D01*
X86645599Y-78447600D01*
X86732496Y-78464885D01*
G37*
G36*
X107428512Y-76573927D02*
G01*
X107577812Y-76603624D01*
X107741784Y-76671544D01*
X107889354Y-76770147D01*
X108014853Y-76895646D01*
X108113456Y-77043216D01*
X108181376Y-77207188D01*
X108216000Y-77381259D01*
X108216000Y-77558741D01*
X108181376Y-77732812D01*
X108113456Y-77896784D01*
X108014853Y-78044354D01*
X107889354Y-78169853D01*
X107741784Y-78268456D01*
X107577812Y-78336376D01*
X107428512Y-78366073D01*
X107403742Y-78371000D01*
X107226258Y-78371000D01*
X107201488Y-78366073D01*
X107052188Y-78336376D01*
X106888216Y-78268456D01*
X106740646Y-78169853D01*
X106615147Y-78044354D01*
X106516544Y-77896784D01*
X106448624Y-77732812D01*
X106414000Y-77558741D01*
X106414000Y-77381259D01*
X106448624Y-77207188D01*
X106516544Y-77043216D01*
X106615147Y-76895646D01*
X106740646Y-76770147D01*
X106888216Y-76671544D01*
X107052188Y-76603624D01*
X107201488Y-76573927D01*
X107226258Y-76569000D01*
X107403742Y-76569000D01*
X107428512Y-76573927D01*
G37*
G36*
X107428512Y-74033927D02*
G01*
X107577812Y-74063624D01*
X107741784Y-74131544D01*
X107889354Y-74230147D01*
X108014853Y-74355646D01*
X108113456Y-74503216D01*
X108181376Y-74667188D01*
X108216000Y-74841259D01*
X108216000Y-75018741D01*
X108181376Y-75192812D01*
X108113456Y-75356784D01*
X108014853Y-75504354D01*
X107889354Y-75629853D01*
X107741784Y-75728456D01*
X107577812Y-75796376D01*
X107428512Y-75826073D01*
X107403742Y-75831000D01*
X107226258Y-75831000D01*
X107201488Y-75826073D01*
X107052188Y-75796376D01*
X106888216Y-75728456D01*
X106740646Y-75629853D01*
X106615147Y-75504354D01*
X106516544Y-75356784D01*
X106448624Y-75192812D01*
X106414000Y-75018741D01*
X106414000Y-74841259D01*
X106448624Y-74667188D01*
X106516544Y-74503216D01*
X106615147Y-74355646D01*
X106740646Y-74230147D01*
X106888216Y-74131544D01*
X107052188Y-74063624D01*
X107201488Y-74033927D01*
X107226258Y-74029000D01*
X107403742Y-74029000D01*
X107428512Y-74033927D01*
G37*
G36*
X86735036Y-74667585D02*
G01*
X86816891Y-74701490D01*
X86890558Y-74750713D01*
X86953207Y-74813362D01*
X87002430Y-74887029D01*
X87036335Y-74968884D01*
X87053620Y-75055781D01*
X87053620Y-75144379D01*
X87036335Y-75231276D01*
X87002430Y-75313131D01*
X86953207Y-75386798D01*
X86890558Y-75449447D01*
X86816891Y-75498670D01*
X86735036Y-75532575D01*
X86648139Y-75549860D01*
X86559541Y-75549860D01*
X86472644Y-75532575D01*
X86390789Y-75498670D01*
X86317122Y-75449447D01*
X86254473Y-75386798D01*
X86205250Y-75313131D01*
X86171345Y-75231276D01*
X86154060Y-75144379D01*
X86154060Y-75055781D01*
X86171345Y-74968884D01*
X86205250Y-74887029D01*
X86254473Y-74813362D01*
X86317122Y-74750713D01*
X86390789Y-74701490D01*
X86472644Y-74667585D01*
X86559541Y-74650300D01*
X86648139Y-74650300D01*
X86735036Y-74667585D01*
G37*
G36*
X107428512Y-71493927D02*
G01*
X107577812Y-71523624D01*
X107741784Y-71591544D01*
X107889354Y-71690147D01*
X108014853Y-71815646D01*
X108113456Y-71963216D01*
X108181376Y-72127188D01*
X108216000Y-72301259D01*
X108216000Y-72478741D01*
X108181376Y-72652812D01*
X108113456Y-72816784D01*
X108014853Y-72964354D01*
X107889354Y-73089853D01*
X107741784Y-73188456D01*
X107577812Y-73256376D01*
X107428512Y-73286073D01*
X107403742Y-73291000D01*
X107226258Y-73291000D01*
X107201488Y-73286073D01*
X107052188Y-73256376D01*
X106888216Y-73188456D01*
X106740646Y-73089853D01*
X106615147Y-72964354D01*
X106516544Y-72816784D01*
X106448624Y-72652812D01*
X106414000Y-72478741D01*
X106414000Y-72301259D01*
X106448624Y-72127188D01*
X106516544Y-71963216D01*
X106615147Y-71815646D01*
X106740646Y-71690147D01*
X106888216Y-71591544D01*
X107052188Y-71523624D01*
X107201488Y-71493927D01*
X107226258Y-71489000D01*
X107403742Y-71489000D01*
X107428512Y-71493927D01*
G37*
G36*
X107428512Y-68953927D02*
G01*
X107577812Y-68983624D01*
X107741784Y-69051544D01*
X107889354Y-69150147D01*
X108014853Y-69275646D01*
X108113456Y-69423216D01*
X108181376Y-69587188D01*
X108216000Y-69761259D01*
X108216000Y-69938741D01*
X108181376Y-70112812D01*
X108113456Y-70276784D01*
X108014853Y-70424354D01*
X107889354Y-70549853D01*
X107741784Y-70648456D01*
X107577812Y-70716376D01*
X107428512Y-70746073D01*
X107403742Y-70751000D01*
X107226258Y-70751000D01*
X107201488Y-70746073D01*
X107052188Y-70716376D01*
X106888216Y-70648456D01*
X106740646Y-70549853D01*
X106615147Y-70424354D01*
X106516544Y-70276784D01*
X106448624Y-70112812D01*
X106414000Y-69938741D01*
X106414000Y-69761259D01*
X106448624Y-69587188D01*
X106516544Y-69423216D01*
X106615147Y-69275646D01*
X106740646Y-69150147D01*
X106888216Y-69051544D01*
X107052188Y-68983624D01*
X107201488Y-68953927D01*
X107226258Y-68949000D01*
X107403742Y-68949000D01*
X107428512Y-68953927D01*
G37*
G36*
X107428512Y-66413927D02*
G01*
X107577812Y-66443624D01*
X107741784Y-66511544D01*
X107889354Y-66610147D01*
X108014853Y-66735646D01*
X108113456Y-66883216D01*
X108181376Y-67047188D01*
X108216000Y-67221259D01*
X108216000Y-67398741D01*
X108181376Y-67572812D01*
X108113456Y-67736784D01*
X108014853Y-67884354D01*
X107889354Y-68009853D01*
X107741784Y-68108456D01*
X107577812Y-68176376D01*
X107428512Y-68206073D01*
X107403742Y-68211000D01*
X107226258Y-68211000D01*
X107201488Y-68206073D01*
X107052188Y-68176376D01*
X106888216Y-68108456D01*
X106740646Y-68009853D01*
X106615147Y-67884354D01*
X106516544Y-67736784D01*
X106448624Y-67572812D01*
X106414000Y-67398741D01*
X106414000Y-67221259D01*
X106448624Y-67047188D01*
X106516544Y-66883216D01*
X106615147Y-66735646D01*
X106740646Y-66610147D01*
X106888216Y-66511544D01*
X107052188Y-66443624D01*
X107201488Y-66413927D01*
X107226258Y-66409000D01*
X107403742Y-66409000D01*
X107428512Y-66413927D01*
G37*
G36*
X107428512Y-63873927D02*
G01*
X107577812Y-63903624D01*
X107741784Y-63971544D01*
X107889354Y-64070147D01*
X108014853Y-64195646D01*
X108113456Y-64343216D01*
X108181376Y-64507188D01*
X108216000Y-64681259D01*
X108216000Y-64858741D01*
X108181376Y-65032812D01*
X108113456Y-65196784D01*
X108014853Y-65344354D01*
X107889354Y-65469853D01*
X107741784Y-65568456D01*
X107577812Y-65636376D01*
X107428512Y-65666073D01*
X107403742Y-65671000D01*
X107226258Y-65671000D01*
X107201488Y-65666073D01*
X107052188Y-65636376D01*
X106888216Y-65568456D01*
X106740646Y-65469853D01*
X106615147Y-65344354D01*
X106516544Y-65196784D01*
X106448624Y-65032812D01*
X106414000Y-64858741D01*
X106414000Y-64681259D01*
X106448624Y-64507188D01*
X106516544Y-64343216D01*
X106615147Y-64195646D01*
X106740646Y-64070147D01*
X106888216Y-63971544D01*
X107052188Y-63903624D01*
X107201488Y-63873927D01*
X107226258Y-63869000D01*
X107403742Y-63869000D01*
X107428512Y-63873927D01*
G37*
G36*
X107428512Y-61333927D02*
G01*
X107577812Y-61363624D01*
X107741784Y-61431544D01*
X107889354Y-61530147D01*
X108014853Y-61655646D01*
X108113456Y-61803216D01*
X108181376Y-61967188D01*
X108216000Y-62141259D01*
X108216000Y-62318741D01*
X108181376Y-62492812D01*
X108113456Y-62656784D01*
X108014853Y-62804354D01*
X107889354Y-62929853D01*
X107741784Y-63028456D01*
X107577812Y-63096376D01*
X107428512Y-63126073D01*
X107403742Y-63131000D01*
X107226258Y-63131000D01*
X107201488Y-63126073D01*
X107052188Y-63096376D01*
X106888216Y-63028456D01*
X106740646Y-62929853D01*
X106615147Y-62804354D01*
X106516544Y-62656784D01*
X106448624Y-62492812D01*
X106414000Y-62318741D01*
X106414000Y-62141259D01*
X106448624Y-61967188D01*
X106516544Y-61803216D01*
X106615147Y-61655646D01*
X106740646Y-61530147D01*
X106888216Y-61431544D01*
X107052188Y-61363624D01*
X107201488Y-61333927D01*
X107226258Y-61329000D01*
X107403742Y-61329000D01*
X107428512Y-61333927D01*
G37*
M02*
