G04 #@! TF.GenerationSoftware,KiCad,Pcbnew,5.1.5+dfsg1-2build2*
G04 #@! TF.CreationDate,2021-07-26T20:03:16+02:00*
G04 #@! TF.ProjectId,t100-dcmotor,74313030-2d64-4636-9d6f-746f722e6b69,rev?*
G04 #@! TF.SameCoordinates,Original*
G04 #@! TF.FileFunction,Soldermask,Bot*
G04 #@! TF.FilePolarity,Negative*
%FSLAX46Y46*%
G04 Gerber Fmt 4.6, Leading zero omitted, Abs format (unit mm)*
G04 Created by KiCad (PCBNEW 5.1.5+dfsg1-2build2) date 2021-07-26 20:03:16*
%MOMM*%
%LPD*%
G04 APERTURE LIST*
%ADD10C,0.100000*%
G04 APERTURE END LIST*
D10*
G36*
X111097961Y-128359450D02*
G01*
X111194088Y-128388610D01*
X111282670Y-128435958D01*
X111360318Y-128499682D01*
X111424042Y-128577330D01*
X111471390Y-128665912D01*
X111500550Y-128762039D01*
X111511000Y-128868140D01*
X111511000Y-130131860D01*
X111500550Y-130237961D01*
X111471390Y-130334088D01*
X111424042Y-130422670D01*
X111360318Y-130500318D01*
X111282670Y-130564042D01*
X111194088Y-130611390D01*
X111097961Y-130640550D01*
X110991860Y-130651000D01*
X109728140Y-130651000D01*
X109622039Y-130640550D01*
X109525912Y-130611390D01*
X109437330Y-130564042D01*
X109359682Y-130500318D01*
X109295958Y-130422670D01*
X109248610Y-130334088D01*
X109219450Y-130237961D01*
X109209000Y-130131860D01*
X109209000Y-128868140D01*
X109219450Y-128762039D01*
X109248610Y-128665912D01*
X109295958Y-128577330D01*
X109359682Y-128499682D01*
X109437330Y-128435958D01*
X109525912Y-128388610D01*
X109622039Y-128359450D01*
X109728140Y-128349000D01*
X110991860Y-128349000D01*
X111097961Y-128359450D01*
G37*
G36*
X114907961Y-128359450D02*
G01*
X115004088Y-128388610D01*
X115092670Y-128435958D01*
X115170318Y-128499682D01*
X115234042Y-128577330D01*
X115281390Y-128665912D01*
X115310550Y-128762039D01*
X115321000Y-128868140D01*
X115321000Y-130131860D01*
X115310550Y-130237961D01*
X115281390Y-130334088D01*
X115234042Y-130422670D01*
X115170318Y-130500318D01*
X115092670Y-130564042D01*
X115004088Y-130611390D01*
X114907961Y-130640550D01*
X114801860Y-130651000D01*
X113538140Y-130651000D01*
X113432039Y-130640550D01*
X113335912Y-130611390D01*
X113247330Y-130564042D01*
X113169682Y-130500318D01*
X113105958Y-130422670D01*
X113058610Y-130334088D01*
X113029450Y-130237961D01*
X113019000Y-130131860D01*
X113019000Y-128868140D01*
X113029450Y-128762039D01*
X113058610Y-128665912D01*
X113105958Y-128577330D01*
X113169682Y-128499682D01*
X113247330Y-128435958D01*
X113335912Y-128388610D01*
X113432039Y-128359450D01*
X113538140Y-128349000D01*
X114801860Y-128349000D01*
X114907961Y-128359450D01*
G37*
G36*
X88237961Y-128359450D02*
G01*
X88334088Y-128388610D01*
X88422670Y-128435958D01*
X88500318Y-128499682D01*
X88564042Y-128577330D01*
X88611390Y-128665912D01*
X88640550Y-128762039D01*
X88651000Y-128868140D01*
X88651000Y-130131860D01*
X88640550Y-130237961D01*
X88611390Y-130334088D01*
X88564042Y-130422670D01*
X88500318Y-130500318D01*
X88422670Y-130564042D01*
X88334088Y-130611390D01*
X88237961Y-130640550D01*
X88131860Y-130651000D01*
X86868140Y-130651000D01*
X86762039Y-130640550D01*
X86665912Y-130611390D01*
X86577330Y-130564042D01*
X86499682Y-130500318D01*
X86435958Y-130422670D01*
X86388610Y-130334088D01*
X86359450Y-130237961D01*
X86349000Y-130131860D01*
X86349000Y-128868140D01*
X86359450Y-128762039D01*
X86388610Y-128665912D01*
X86435958Y-128577330D01*
X86499682Y-128499682D01*
X86577330Y-128435958D01*
X86665912Y-128388610D01*
X86762039Y-128359450D01*
X86868140Y-128349000D01*
X88131860Y-128349000D01*
X88237961Y-128359450D01*
G37*
G36*
X92047961Y-128359450D02*
G01*
X92144088Y-128388610D01*
X92232670Y-128435958D01*
X92310318Y-128499682D01*
X92374042Y-128577330D01*
X92421390Y-128665912D01*
X92450550Y-128762039D01*
X92461000Y-128868140D01*
X92461000Y-130131860D01*
X92450550Y-130237961D01*
X92421390Y-130334088D01*
X92374042Y-130422670D01*
X92310318Y-130500318D01*
X92232670Y-130564042D01*
X92144088Y-130611390D01*
X92047961Y-130640550D01*
X91941860Y-130651000D01*
X90678140Y-130651000D01*
X90572039Y-130640550D01*
X90475912Y-130611390D01*
X90387330Y-130564042D01*
X90309682Y-130500318D01*
X90245958Y-130422670D01*
X90198610Y-130334088D01*
X90169450Y-130237961D01*
X90159000Y-130131860D01*
X90159000Y-128868140D01*
X90169450Y-128762039D01*
X90198610Y-128665912D01*
X90245958Y-128577330D01*
X90309682Y-128499682D01*
X90387330Y-128435958D01*
X90475912Y-128388610D01*
X90572039Y-128359450D01*
X90678140Y-128349000D01*
X91941860Y-128349000D01*
X92047961Y-128359450D01*
G37*
G36*
X95857961Y-128359450D02*
G01*
X95954088Y-128388610D01*
X96042670Y-128435958D01*
X96120318Y-128499682D01*
X96184042Y-128577330D01*
X96231390Y-128665912D01*
X96260550Y-128762039D01*
X96271000Y-128868140D01*
X96271000Y-130131860D01*
X96260550Y-130237961D01*
X96231390Y-130334088D01*
X96184042Y-130422670D01*
X96120318Y-130500318D01*
X96042670Y-130564042D01*
X95954088Y-130611390D01*
X95857961Y-130640550D01*
X95751860Y-130651000D01*
X94488140Y-130651000D01*
X94382039Y-130640550D01*
X94285912Y-130611390D01*
X94197330Y-130564042D01*
X94119682Y-130500318D01*
X94055958Y-130422670D01*
X94008610Y-130334088D01*
X93979450Y-130237961D01*
X93969000Y-130131860D01*
X93969000Y-128868140D01*
X93979450Y-128762039D01*
X94008610Y-128665912D01*
X94055958Y-128577330D01*
X94119682Y-128499682D01*
X94197330Y-128435958D01*
X94285912Y-128388610D01*
X94382039Y-128359450D01*
X94488140Y-128349000D01*
X95751860Y-128349000D01*
X95857961Y-128359450D01*
G37*
G36*
X99667961Y-128359450D02*
G01*
X99764088Y-128388610D01*
X99852670Y-128435958D01*
X99930318Y-128499682D01*
X99994042Y-128577330D01*
X100041390Y-128665912D01*
X100070550Y-128762039D01*
X100081000Y-128868140D01*
X100081000Y-130131860D01*
X100070550Y-130237961D01*
X100041390Y-130334088D01*
X99994042Y-130422670D01*
X99930318Y-130500318D01*
X99852670Y-130564042D01*
X99764088Y-130611390D01*
X99667961Y-130640550D01*
X99561860Y-130651000D01*
X98298140Y-130651000D01*
X98192039Y-130640550D01*
X98095912Y-130611390D01*
X98007330Y-130564042D01*
X97929682Y-130500318D01*
X97865958Y-130422670D01*
X97818610Y-130334088D01*
X97789450Y-130237961D01*
X97779000Y-130131860D01*
X97779000Y-128868140D01*
X97789450Y-128762039D01*
X97818610Y-128665912D01*
X97865958Y-128577330D01*
X97929682Y-128499682D01*
X98007330Y-128435958D01*
X98095912Y-128388610D01*
X98192039Y-128359450D01*
X98298140Y-128349000D01*
X99561860Y-128349000D01*
X99667961Y-128359450D01*
G37*
G36*
X103477961Y-128359450D02*
G01*
X103574088Y-128388610D01*
X103662670Y-128435958D01*
X103740318Y-128499682D01*
X103804042Y-128577330D01*
X103851390Y-128665912D01*
X103880550Y-128762039D01*
X103891000Y-128868140D01*
X103891000Y-130131860D01*
X103880550Y-130237961D01*
X103851390Y-130334088D01*
X103804042Y-130422670D01*
X103740318Y-130500318D01*
X103662670Y-130564042D01*
X103574088Y-130611390D01*
X103477961Y-130640550D01*
X103371860Y-130651000D01*
X102108140Y-130651000D01*
X102002039Y-130640550D01*
X101905912Y-130611390D01*
X101817330Y-130564042D01*
X101739682Y-130500318D01*
X101675958Y-130422670D01*
X101628610Y-130334088D01*
X101599450Y-130237961D01*
X101589000Y-130131860D01*
X101589000Y-128868140D01*
X101599450Y-128762039D01*
X101628610Y-128665912D01*
X101675958Y-128577330D01*
X101739682Y-128499682D01*
X101817330Y-128435958D01*
X101905912Y-128388610D01*
X102002039Y-128359450D01*
X102108140Y-128349000D01*
X103371860Y-128349000D01*
X103477961Y-128359450D01*
G37*
G36*
X107287961Y-128359450D02*
G01*
X107384088Y-128388610D01*
X107472670Y-128435958D01*
X107550318Y-128499682D01*
X107614042Y-128577330D01*
X107661390Y-128665912D01*
X107690550Y-128762039D01*
X107701000Y-128868140D01*
X107701000Y-130131860D01*
X107690550Y-130237961D01*
X107661390Y-130334088D01*
X107614042Y-130422670D01*
X107550318Y-130500318D01*
X107472670Y-130564042D01*
X107384088Y-130611390D01*
X107287961Y-130640550D01*
X107181860Y-130651000D01*
X105918140Y-130651000D01*
X105812039Y-130640550D01*
X105715912Y-130611390D01*
X105627330Y-130564042D01*
X105549682Y-130500318D01*
X105485958Y-130422670D01*
X105438610Y-130334088D01*
X105409450Y-130237961D01*
X105399000Y-130131860D01*
X105399000Y-128868140D01*
X105409450Y-128762039D01*
X105438610Y-128665912D01*
X105485958Y-128577330D01*
X105549682Y-128499682D01*
X105627330Y-128435958D01*
X105715912Y-128388610D01*
X105812039Y-128359450D01*
X105918140Y-128349000D01*
X107181860Y-128349000D01*
X107287961Y-128359450D01*
G37*
G36*
X107287961Y-123359450D02*
G01*
X107384088Y-123388610D01*
X107472670Y-123435958D01*
X107550318Y-123499682D01*
X107614042Y-123577330D01*
X107661390Y-123665912D01*
X107690550Y-123762039D01*
X107701000Y-123868140D01*
X107701000Y-125131860D01*
X107690550Y-125237961D01*
X107661390Y-125334088D01*
X107614042Y-125422670D01*
X107550318Y-125500318D01*
X107472670Y-125564042D01*
X107384088Y-125611390D01*
X107287961Y-125640550D01*
X107181860Y-125651000D01*
X105918140Y-125651000D01*
X105812039Y-125640550D01*
X105715912Y-125611390D01*
X105627330Y-125564042D01*
X105549682Y-125500318D01*
X105485958Y-125422670D01*
X105438610Y-125334088D01*
X105409450Y-125237961D01*
X105399000Y-125131860D01*
X105399000Y-123868140D01*
X105409450Y-123762039D01*
X105438610Y-123665912D01*
X105485958Y-123577330D01*
X105549682Y-123499682D01*
X105627330Y-123435958D01*
X105715912Y-123388610D01*
X105812039Y-123359450D01*
X105918140Y-123349000D01*
X107181860Y-123349000D01*
X107287961Y-123359450D01*
G37*
G36*
X88237961Y-123359450D02*
G01*
X88334088Y-123388610D01*
X88422670Y-123435958D01*
X88500318Y-123499682D01*
X88564042Y-123577330D01*
X88611390Y-123665912D01*
X88640550Y-123762039D01*
X88651000Y-123868140D01*
X88651000Y-125131860D01*
X88640550Y-125237961D01*
X88611390Y-125334088D01*
X88564042Y-125422670D01*
X88500318Y-125500318D01*
X88422670Y-125564042D01*
X88334088Y-125611390D01*
X88237961Y-125640550D01*
X88131860Y-125651000D01*
X86868140Y-125651000D01*
X86762039Y-125640550D01*
X86665912Y-125611390D01*
X86577330Y-125564042D01*
X86499682Y-125500318D01*
X86435958Y-125422670D01*
X86388610Y-125334088D01*
X86359450Y-125237961D01*
X86349000Y-125131860D01*
X86349000Y-123868140D01*
X86359450Y-123762039D01*
X86388610Y-123665912D01*
X86435958Y-123577330D01*
X86499682Y-123499682D01*
X86577330Y-123435958D01*
X86665912Y-123388610D01*
X86762039Y-123359450D01*
X86868140Y-123349000D01*
X88131860Y-123349000D01*
X88237961Y-123359450D01*
G37*
G36*
X114907961Y-123359450D02*
G01*
X115004088Y-123388610D01*
X115092670Y-123435958D01*
X115170318Y-123499682D01*
X115234042Y-123577330D01*
X115281390Y-123665912D01*
X115310550Y-123762039D01*
X115321000Y-123868140D01*
X115321000Y-125131860D01*
X115310550Y-125237961D01*
X115281390Y-125334088D01*
X115234042Y-125422670D01*
X115170318Y-125500318D01*
X115092670Y-125564042D01*
X115004088Y-125611390D01*
X114907961Y-125640550D01*
X114801860Y-125651000D01*
X113538140Y-125651000D01*
X113432039Y-125640550D01*
X113335912Y-125611390D01*
X113247330Y-125564042D01*
X113169682Y-125500318D01*
X113105958Y-125422670D01*
X113058610Y-125334088D01*
X113029450Y-125237961D01*
X113019000Y-125131860D01*
X113019000Y-123868140D01*
X113029450Y-123762039D01*
X113058610Y-123665912D01*
X113105958Y-123577330D01*
X113169682Y-123499682D01*
X113247330Y-123435958D01*
X113335912Y-123388610D01*
X113432039Y-123359450D01*
X113538140Y-123349000D01*
X114801860Y-123349000D01*
X114907961Y-123359450D01*
G37*
G36*
X92047961Y-123359450D02*
G01*
X92144088Y-123388610D01*
X92232670Y-123435958D01*
X92310318Y-123499682D01*
X92374042Y-123577330D01*
X92421390Y-123665912D01*
X92450550Y-123762039D01*
X92461000Y-123868140D01*
X92461000Y-125131860D01*
X92450550Y-125237961D01*
X92421390Y-125334088D01*
X92374042Y-125422670D01*
X92310318Y-125500318D01*
X92232670Y-125564042D01*
X92144088Y-125611390D01*
X92047961Y-125640550D01*
X91941860Y-125651000D01*
X90678140Y-125651000D01*
X90572039Y-125640550D01*
X90475912Y-125611390D01*
X90387330Y-125564042D01*
X90309682Y-125500318D01*
X90245958Y-125422670D01*
X90198610Y-125334088D01*
X90169450Y-125237961D01*
X90159000Y-125131860D01*
X90159000Y-123868140D01*
X90169450Y-123762039D01*
X90198610Y-123665912D01*
X90245958Y-123577330D01*
X90309682Y-123499682D01*
X90387330Y-123435958D01*
X90475912Y-123388610D01*
X90572039Y-123359450D01*
X90678140Y-123349000D01*
X91941860Y-123349000D01*
X92047961Y-123359450D01*
G37*
G36*
X95857961Y-123359450D02*
G01*
X95954088Y-123388610D01*
X96042670Y-123435958D01*
X96120318Y-123499682D01*
X96184042Y-123577330D01*
X96231390Y-123665912D01*
X96260550Y-123762039D01*
X96271000Y-123868140D01*
X96271000Y-125131860D01*
X96260550Y-125237961D01*
X96231390Y-125334088D01*
X96184042Y-125422670D01*
X96120318Y-125500318D01*
X96042670Y-125564042D01*
X95954088Y-125611390D01*
X95857961Y-125640550D01*
X95751860Y-125651000D01*
X94488140Y-125651000D01*
X94382039Y-125640550D01*
X94285912Y-125611390D01*
X94197330Y-125564042D01*
X94119682Y-125500318D01*
X94055958Y-125422670D01*
X94008610Y-125334088D01*
X93979450Y-125237961D01*
X93969000Y-125131860D01*
X93969000Y-123868140D01*
X93979450Y-123762039D01*
X94008610Y-123665912D01*
X94055958Y-123577330D01*
X94119682Y-123499682D01*
X94197330Y-123435958D01*
X94285912Y-123388610D01*
X94382039Y-123359450D01*
X94488140Y-123349000D01*
X95751860Y-123349000D01*
X95857961Y-123359450D01*
G37*
G36*
X99667961Y-123359450D02*
G01*
X99764088Y-123388610D01*
X99852670Y-123435958D01*
X99930318Y-123499682D01*
X99994042Y-123577330D01*
X100041390Y-123665912D01*
X100070550Y-123762039D01*
X100081000Y-123868140D01*
X100081000Y-125131860D01*
X100070550Y-125237961D01*
X100041390Y-125334088D01*
X99994042Y-125422670D01*
X99930318Y-125500318D01*
X99852670Y-125564042D01*
X99764088Y-125611390D01*
X99667961Y-125640550D01*
X99561860Y-125651000D01*
X98298140Y-125651000D01*
X98192039Y-125640550D01*
X98095912Y-125611390D01*
X98007330Y-125564042D01*
X97929682Y-125500318D01*
X97865958Y-125422670D01*
X97818610Y-125334088D01*
X97789450Y-125237961D01*
X97779000Y-125131860D01*
X97779000Y-123868140D01*
X97789450Y-123762039D01*
X97818610Y-123665912D01*
X97865958Y-123577330D01*
X97929682Y-123499682D01*
X98007330Y-123435958D01*
X98095912Y-123388610D01*
X98192039Y-123359450D01*
X98298140Y-123349000D01*
X99561860Y-123349000D01*
X99667961Y-123359450D01*
G37*
G36*
X103477961Y-123359450D02*
G01*
X103574088Y-123388610D01*
X103662670Y-123435958D01*
X103740318Y-123499682D01*
X103804042Y-123577330D01*
X103851390Y-123665912D01*
X103880550Y-123762039D01*
X103891000Y-123868140D01*
X103891000Y-125131860D01*
X103880550Y-125237961D01*
X103851390Y-125334088D01*
X103804042Y-125422670D01*
X103740318Y-125500318D01*
X103662670Y-125564042D01*
X103574088Y-125611390D01*
X103477961Y-125640550D01*
X103371860Y-125651000D01*
X102108140Y-125651000D01*
X102002039Y-125640550D01*
X101905912Y-125611390D01*
X101817330Y-125564042D01*
X101739682Y-125500318D01*
X101675958Y-125422670D01*
X101628610Y-125334088D01*
X101599450Y-125237961D01*
X101589000Y-125131860D01*
X101589000Y-123868140D01*
X101599450Y-123762039D01*
X101628610Y-123665912D01*
X101675958Y-123577330D01*
X101739682Y-123499682D01*
X101817330Y-123435958D01*
X101905912Y-123388610D01*
X102002039Y-123359450D01*
X102108140Y-123349000D01*
X103371860Y-123349000D01*
X103477961Y-123359450D01*
G37*
G36*
X111097961Y-123359450D02*
G01*
X111194088Y-123388610D01*
X111282670Y-123435958D01*
X111360318Y-123499682D01*
X111424042Y-123577330D01*
X111471390Y-123665912D01*
X111500550Y-123762039D01*
X111511000Y-123868140D01*
X111511000Y-125131860D01*
X111500550Y-125237961D01*
X111471390Y-125334088D01*
X111424042Y-125422670D01*
X111360318Y-125500318D01*
X111282670Y-125564042D01*
X111194088Y-125611390D01*
X111097961Y-125640550D01*
X110991860Y-125651000D01*
X109728140Y-125651000D01*
X109622039Y-125640550D01*
X109525912Y-125611390D01*
X109437330Y-125564042D01*
X109359682Y-125500318D01*
X109295958Y-125422670D01*
X109248610Y-125334088D01*
X109219450Y-125237961D01*
X109209000Y-125131860D01*
X109209000Y-123868140D01*
X109219450Y-123762039D01*
X109248610Y-123665912D01*
X109295958Y-123577330D01*
X109359682Y-123499682D01*
X109437330Y-123435958D01*
X109525912Y-123388610D01*
X109622039Y-123359450D01*
X109728140Y-123349000D01*
X110991860Y-123349000D01*
X111097961Y-123359450D01*
G37*
G36*
X101737142Y-99758242D02*
G01*
X101885101Y-99819529D01*
X102018255Y-99908499D01*
X102131501Y-100021745D01*
X102220471Y-100154899D01*
X102281758Y-100302858D01*
X102313000Y-100459925D01*
X102313000Y-100620075D01*
X102281758Y-100777142D01*
X102220471Y-100925101D01*
X102131501Y-101058255D01*
X102018255Y-101171501D01*
X101885101Y-101260471D01*
X101737142Y-101321758D01*
X101580075Y-101353000D01*
X101419925Y-101353000D01*
X101262858Y-101321758D01*
X101114899Y-101260471D01*
X100981745Y-101171501D01*
X100868499Y-101058255D01*
X100779529Y-100925101D01*
X100718242Y-100777142D01*
X100687000Y-100620075D01*
X100687000Y-100459925D01*
X100718242Y-100302858D01*
X100779529Y-100154899D01*
X100868499Y-100021745D01*
X100981745Y-99908499D01*
X101114899Y-99819529D01*
X101262858Y-99758242D01*
X101419925Y-99727000D01*
X101580075Y-99727000D01*
X101737142Y-99758242D01*
G37*
G36*
X101737142Y-97218242D02*
G01*
X101885101Y-97279529D01*
X102018255Y-97368499D01*
X102131501Y-97481745D01*
X102220471Y-97614899D01*
X102281758Y-97762858D01*
X102313000Y-97919925D01*
X102313000Y-98080075D01*
X102281758Y-98237142D01*
X102220471Y-98385101D01*
X102131501Y-98518255D01*
X102018255Y-98631501D01*
X101885101Y-98720471D01*
X101737142Y-98781758D01*
X101580075Y-98813000D01*
X101419925Y-98813000D01*
X101262858Y-98781758D01*
X101114899Y-98720471D01*
X100981745Y-98631501D01*
X100868499Y-98518255D01*
X100779529Y-98385101D01*
X100718242Y-98237142D01*
X100687000Y-98080075D01*
X100687000Y-97919925D01*
X100718242Y-97762858D01*
X100779529Y-97614899D01*
X100868499Y-97481745D01*
X100981745Y-97368499D01*
X101114899Y-97279529D01*
X101262858Y-97218242D01*
X101419925Y-97187000D01*
X101580075Y-97187000D01*
X101737142Y-97218242D01*
G37*
G36*
X101737142Y-94678242D02*
G01*
X101885101Y-94739529D01*
X102018255Y-94828499D01*
X102131501Y-94941745D01*
X102220471Y-95074899D01*
X102281758Y-95222858D01*
X102313000Y-95379925D01*
X102313000Y-95540075D01*
X102281758Y-95697142D01*
X102220471Y-95845101D01*
X102131501Y-95978255D01*
X102018255Y-96091501D01*
X101885101Y-96180471D01*
X101737142Y-96241758D01*
X101580075Y-96273000D01*
X101419925Y-96273000D01*
X101262858Y-96241758D01*
X101114899Y-96180471D01*
X100981745Y-96091501D01*
X100868499Y-95978255D01*
X100779529Y-95845101D01*
X100718242Y-95697142D01*
X100687000Y-95540075D01*
X100687000Y-95379925D01*
X100718242Y-95222858D01*
X100779529Y-95074899D01*
X100868499Y-94941745D01*
X100981745Y-94828499D01*
X101114899Y-94739529D01*
X101262858Y-94678242D01*
X101419925Y-94647000D01*
X101580075Y-94647000D01*
X101737142Y-94678242D01*
G37*
G36*
X108151000Y-86011000D02*
G01*
X106349000Y-86011000D01*
X106349000Y-84209000D01*
X108151000Y-84209000D01*
X108151000Y-86011000D01*
G37*
G36*
X88651000Y-86011000D02*
G01*
X86849000Y-86011000D01*
X86849000Y-84209000D01*
X88651000Y-84209000D01*
X88651000Y-86011000D01*
G37*
G36*
X87863512Y-81673927D02*
G01*
X88012812Y-81703624D01*
X88176784Y-81771544D01*
X88324354Y-81870147D01*
X88449853Y-81995646D01*
X88548456Y-82143216D01*
X88616376Y-82307188D01*
X88651000Y-82481259D01*
X88651000Y-82658741D01*
X88616376Y-82832812D01*
X88548456Y-82996784D01*
X88449853Y-83144354D01*
X88324354Y-83269853D01*
X88176784Y-83368456D01*
X88012812Y-83436376D01*
X87863512Y-83466073D01*
X87838742Y-83471000D01*
X87661258Y-83471000D01*
X87636488Y-83466073D01*
X87487188Y-83436376D01*
X87323216Y-83368456D01*
X87175646Y-83269853D01*
X87050147Y-83144354D01*
X86951544Y-82996784D01*
X86883624Y-82832812D01*
X86849000Y-82658741D01*
X86849000Y-82481259D01*
X86883624Y-82307188D01*
X86951544Y-82143216D01*
X87050147Y-81995646D01*
X87175646Y-81870147D01*
X87323216Y-81771544D01*
X87487188Y-81703624D01*
X87636488Y-81673927D01*
X87661258Y-81669000D01*
X87838742Y-81669000D01*
X87863512Y-81673927D01*
G37*
G36*
X107363512Y-81673927D02*
G01*
X107512812Y-81703624D01*
X107676784Y-81771544D01*
X107824354Y-81870147D01*
X107949853Y-81995646D01*
X108048456Y-82143216D01*
X108116376Y-82307188D01*
X108151000Y-82481259D01*
X108151000Y-82658741D01*
X108116376Y-82832812D01*
X108048456Y-82996784D01*
X107949853Y-83144354D01*
X107824354Y-83269853D01*
X107676784Y-83368456D01*
X107512812Y-83436376D01*
X107363512Y-83466073D01*
X107338742Y-83471000D01*
X107161258Y-83471000D01*
X107136488Y-83466073D01*
X106987188Y-83436376D01*
X106823216Y-83368456D01*
X106675646Y-83269853D01*
X106550147Y-83144354D01*
X106451544Y-82996784D01*
X106383624Y-82832812D01*
X106349000Y-82658741D01*
X106349000Y-82481259D01*
X106383624Y-82307188D01*
X106451544Y-82143216D01*
X106550147Y-81995646D01*
X106675646Y-81870147D01*
X106823216Y-81771544D01*
X106987188Y-81703624D01*
X107136488Y-81673927D01*
X107161258Y-81669000D01*
X107338742Y-81669000D01*
X107363512Y-81673927D01*
G37*
G36*
X107363512Y-79133927D02*
G01*
X107512812Y-79163624D01*
X107676784Y-79231544D01*
X107824354Y-79330147D01*
X107949853Y-79455646D01*
X108048456Y-79603216D01*
X108116376Y-79767188D01*
X108151000Y-79941259D01*
X108151000Y-80118741D01*
X108116376Y-80292812D01*
X108048456Y-80456784D01*
X107949853Y-80604354D01*
X107824354Y-80729853D01*
X107676784Y-80828456D01*
X107512812Y-80896376D01*
X107363512Y-80926073D01*
X107338742Y-80931000D01*
X107161258Y-80931000D01*
X107136488Y-80926073D01*
X106987188Y-80896376D01*
X106823216Y-80828456D01*
X106675646Y-80729853D01*
X106550147Y-80604354D01*
X106451544Y-80456784D01*
X106383624Y-80292812D01*
X106349000Y-80118741D01*
X106349000Y-79941259D01*
X106383624Y-79767188D01*
X106451544Y-79603216D01*
X106550147Y-79455646D01*
X106675646Y-79330147D01*
X106823216Y-79231544D01*
X106987188Y-79163624D01*
X107136488Y-79133927D01*
X107161258Y-79129000D01*
X107338742Y-79129000D01*
X107363512Y-79133927D01*
G37*
G36*
X87863512Y-79133927D02*
G01*
X88012812Y-79163624D01*
X88176784Y-79231544D01*
X88324354Y-79330147D01*
X88449853Y-79455646D01*
X88548456Y-79603216D01*
X88616376Y-79767188D01*
X88651000Y-79941259D01*
X88651000Y-80118741D01*
X88616376Y-80292812D01*
X88548456Y-80456784D01*
X88449853Y-80604354D01*
X88324354Y-80729853D01*
X88176784Y-80828456D01*
X88012812Y-80896376D01*
X87863512Y-80926073D01*
X87838742Y-80931000D01*
X87661258Y-80931000D01*
X87636488Y-80926073D01*
X87487188Y-80896376D01*
X87323216Y-80828456D01*
X87175646Y-80729853D01*
X87050147Y-80604354D01*
X86951544Y-80456784D01*
X86883624Y-80292812D01*
X86849000Y-80118741D01*
X86849000Y-79941259D01*
X86883624Y-79767188D01*
X86951544Y-79603216D01*
X87050147Y-79455646D01*
X87175646Y-79330147D01*
X87323216Y-79231544D01*
X87487188Y-79163624D01*
X87636488Y-79133927D01*
X87661258Y-79129000D01*
X87838742Y-79129000D01*
X87863512Y-79133927D01*
G37*
G36*
X107363512Y-76593927D02*
G01*
X107512812Y-76623624D01*
X107676784Y-76691544D01*
X107824354Y-76790147D01*
X107949853Y-76915646D01*
X108048456Y-77063216D01*
X108116376Y-77227188D01*
X108151000Y-77401259D01*
X108151000Y-77578741D01*
X108116376Y-77752812D01*
X108048456Y-77916784D01*
X107949853Y-78064354D01*
X107824354Y-78189853D01*
X107676784Y-78288456D01*
X107512812Y-78356376D01*
X107363512Y-78386073D01*
X107338742Y-78391000D01*
X107161258Y-78391000D01*
X107136488Y-78386073D01*
X106987188Y-78356376D01*
X106823216Y-78288456D01*
X106675646Y-78189853D01*
X106550147Y-78064354D01*
X106451544Y-77916784D01*
X106383624Y-77752812D01*
X106349000Y-77578741D01*
X106349000Y-77401259D01*
X106383624Y-77227188D01*
X106451544Y-77063216D01*
X106550147Y-76915646D01*
X106675646Y-76790147D01*
X106823216Y-76691544D01*
X106987188Y-76623624D01*
X107136488Y-76593927D01*
X107161258Y-76589000D01*
X107338742Y-76589000D01*
X107363512Y-76593927D01*
G37*
G36*
X87863512Y-76593927D02*
G01*
X88012812Y-76623624D01*
X88176784Y-76691544D01*
X88324354Y-76790147D01*
X88449853Y-76915646D01*
X88548456Y-77063216D01*
X88616376Y-77227188D01*
X88651000Y-77401259D01*
X88651000Y-77578741D01*
X88616376Y-77752812D01*
X88548456Y-77916784D01*
X88449853Y-78064354D01*
X88324354Y-78189853D01*
X88176784Y-78288456D01*
X88012812Y-78356376D01*
X87863512Y-78386073D01*
X87838742Y-78391000D01*
X87661258Y-78391000D01*
X87636488Y-78386073D01*
X87487188Y-78356376D01*
X87323216Y-78288456D01*
X87175646Y-78189853D01*
X87050147Y-78064354D01*
X86951544Y-77916784D01*
X86883624Y-77752812D01*
X86849000Y-77578741D01*
X86849000Y-77401259D01*
X86883624Y-77227188D01*
X86951544Y-77063216D01*
X87050147Y-76915646D01*
X87175646Y-76790147D01*
X87323216Y-76691544D01*
X87487188Y-76623624D01*
X87636488Y-76593927D01*
X87661258Y-76589000D01*
X87838742Y-76589000D01*
X87863512Y-76593927D01*
G37*
G36*
X87863512Y-74053927D02*
G01*
X88012812Y-74083624D01*
X88176784Y-74151544D01*
X88324354Y-74250147D01*
X88449853Y-74375646D01*
X88548456Y-74523216D01*
X88616376Y-74687188D01*
X88651000Y-74861259D01*
X88651000Y-75038741D01*
X88616376Y-75212812D01*
X88548456Y-75376784D01*
X88449853Y-75524354D01*
X88324354Y-75649853D01*
X88176784Y-75748456D01*
X88012812Y-75816376D01*
X87863512Y-75846073D01*
X87838742Y-75851000D01*
X87661258Y-75851000D01*
X87636488Y-75846073D01*
X87487188Y-75816376D01*
X87323216Y-75748456D01*
X87175646Y-75649853D01*
X87050147Y-75524354D01*
X86951544Y-75376784D01*
X86883624Y-75212812D01*
X86849000Y-75038741D01*
X86849000Y-74861259D01*
X86883624Y-74687188D01*
X86951544Y-74523216D01*
X87050147Y-74375646D01*
X87175646Y-74250147D01*
X87323216Y-74151544D01*
X87487188Y-74083624D01*
X87636488Y-74053927D01*
X87661258Y-74049000D01*
X87838742Y-74049000D01*
X87863512Y-74053927D01*
G37*
G36*
X107363512Y-74053927D02*
G01*
X107512812Y-74083624D01*
X107676784Y-74151544D01*
X107824354Y-74250147D01*
X107949853Y-74375646D01*
X108048456Y-74523216D01*
X108116376Y-74687188D01*
X108151000Y-74861259D01*
X108151000Y-75038741D01*
X108116376Y-75212812D01*
X108048456Y-75376784D01*
X107949853Y-75524354D01*
X107824354Y-75649853D01*
X107676784Y-75748456D01*
X107512812Y-75816376D01*
X107363512Y-75846073D01*
X107338742Y-75851000D01*
X107161258Y-75851000D01*
X107136488Y-75846073D01*
X106987188Y-75816376D01*
X106823216Y-75748456D01*
X106675646Y-75649853D01*
X106550147Y-75524354D01*
X106451544Y-75376784D01*
X106383624Y-75212812D01*
X106349000Y-75038741D01*
X106349000Y-74861259D01*
X106383624Y-74687188D01*
X106451544Y-74523216D01*
X106550147Y-74375646D01*
X106675646Y-74250147D01*
X106823216Y-74151544D01*
X106987188Y-74083624D01*
X107136488Y-74053927D01*
X107161258Y-74049000D01*
X107338742Y-74049000D01*
X107363512Y-74053927D01*
G37*
G36*
X87863512Y-71513927D02*
G01*
X88012812Y-71543624D01*
X88176784Y-71611544D01*
X88324354Y-71710147D01*
X88449853Y-71835646D01*
X88548456Y-71983216D01*
X88616376Y-72147188D01*
X88651000Y-72321259D01*
X88651000Y-72498741D01*
X88616376Y-72672812D01*
X88548456Y-72836784D01*
X88449853Y-72984354D01*
X88324354Y-73109853D01*
X88176784Y-73208456D01*
X88012812Y-73276376D01*
X87863512Y-73306073D01*
X87838742Y-73311000D01*
X87661258Y-73311000D01*
X87636488Y-73306073D01*
X87487188Y-73276376D01*
X87323216Y-73208456D01*
X87175646Y-73109853D01*
X87050147Y-72984354D01*
X86951544Y-72836784D01*
X86883624Y-72672812D01*
X86849000Y-72498741D01*
X86849000Y-72321259D01*
X86883624Y-72147188D01*
X86951544Y-71983216D01*
X87050147Y-71835646D01*
X87175646Y-71710147D01*
X87323216Y-71611544D01*
X87487188Y-71543624D01*
X87636488Y-71513927D01*
X87661258Y-71509000D01*
X87838742Y-71509000D01*
X87863512Y-71513927D01*
G37*
G36*
X107363512Y-71513927D02*
G01*
X107512812Y-71543624D01*
X107676784Y-71611544D01*
X107824354Y-71710147D01*
X107949853Y-71835646D01*
X108048456Y-71983216D01*
X108116376Y-72147188D01*
X108151000Y-72321259D01*
X108151000Y-72498741D01*
X108116376Y-72672812D01*
X108048456Y-72836784D01*
X107949853Y-72984354D01*
X107824354Y-73109853D01*
X107676784Y-73208456D01*
X107512812Y-73276376D01*
X107363512Y-73306073D01*
X107338742Y-73311000D01*
X107161258Y-73311000D01*
X107136488Y-73306073D01*
X106987188Y-73276376D01*
X106823216Y-73208456D01*
X106675646Y-73109853D01*
X106550147Y-72984354D01*
X106451544Y-72836784D01*
X106383624Y-72672812D01*
X106349000Y-72498741D01*
X106349000Y-72321259D01*
X106383624Y-72147188D01*
X106451544Y-71983216D01*
X106550147Y-71835646D01*
X106675646Y-71710147D01*
X106823216Y-71611544D01*
X106987188Y-71543624D01*
X107136488Y-71513927D01*
X107161258Y-71509000D01*
X107338742Y-71509000D01*
X107363512Y-71513927D01*
G37*
G36*
X87863512Y-68973927D02*
G01*
X88012812Y-69003624D01*
X88176784Y-69071544D01*
X88324354Y-69170147D01*
X88449853Y-69295646D01*
X88548456Y-69443216D01*
X88616376Y-69607188D01*
X88651000Y-69781259D01*
X88651000Y-69958741D01*
X88616376Y-70132812D01*
X88548456Y-70296784D01*
X88449853Y-70444354D01*
X88324354Y-70569853D01*
X88176784Y-70668456D01*
X88012812Y-70736376D01*
X87863512Y-70766073D01*
X87838742Y-70771000D01*
X87661258Y-70771000D01*
X87636488Y-70766073D01*
X87487188Y-70736376D01*
X87323216Y-70668456D01*
X87175646Y-70569853D01*
X87050147Y-70444354D01*
X86951544Y-70296784D01*
X86883624Y-70132812D01*
X86849000Y-69958741D01*
X86849000Y-69781259D01*
X86883624Y-69607188D01*
X86951544Y-69443216D01*
X87050147Y-69295646D01*
X87175646Y-69170147D01*
X87323216Y-69071544D01*
X87487188Y-69003624D01*
X87636488Y-68973927D01*
X87661258Y-68969000D01*
X87838742Y-68969000D01*
X87863512Y-68973927D01*
G37*
G36*
X107363512Y-68973927D02*
G01*
X107512812Y-69003624D01*
X107676784Y-69071544D01*
X107824354Y-69170147D01*
X107949853Y-69295646D01*
X108048456Y-69443216D01*
X108116376Y-69607188D01*
X108151000Y-69781259D01*
X108151000Y-69958741D01*
X108116376Y-70132812D01*
X108048456Y-70296784D01*
X107949853Y-70444354D01*
X107824354Y-70569853D01*
X107676784Y-70668456D01*
X107512812Y-70736376D01*
X107363512Y-70766073D01*
X107338742Y-70771000D01*
X107161258Y-70771000D01*
X107136488Y-70766073D01*
X106987188Y-70736376D01*
X106823216Y-70668456D01*
X106675646Y-70569853D01*
X106550147Y-70444354D01*
X106451544Y-70296784D01*
X106383624Y-70132812D01*
X106349000Y-69958741D01*
X106349000Y-69781259D01*
X106383624Y-69607188D01*
X106451544Y-69443216D01*
X106550147Y-69295646D01*
X106675646Y-69170147D01*
X106823216Y-69071544D01*
X106987188Y-69003624D01*
X107136488Y-68973927D01*
X107161258Y-68969000D01*
X107338742Y-68969000D01*
X107363512Y-68973927D01*
G37*
G36*
X107363512Y-66433927D02*
G01*
X107512812Y-66463624D01*
X107676784Y-66531544D01*
X107824354Y-66630147D01*
X107949853Y-66755646D01*
X108048456Y-66903216D01*
X108116376Y-67067188D01*
X108151000Y-67241259D01*
X108151000Y-67418741D01*
X108116376Y-67592812D01*
X108048456Y-67756784D01*
X107949853Y-67904354D01*
X107824354Y-68029853D01*
X107676784Y-68128456D01*
X107512812Y-68196376D01*
X107363512Y-68226073D01*
X107338742Y-68231000D01*
X107161258Y-68231000D01*
X107136488Y-68226073D01*
X106987188Y-68196376D01*
X106823216Y-68128456D01*
X106675646Y-68029853D01*
X106550147Y-67904354D01*
X106451544Y-67756784D01*
X106383624Y-67592812D01*
X106349000Y-67418741D01*
X106349000Y-67241259D01*
X106383624Y-67067188D01*
X106451544Y-66903216D01*
X106550147Y-66755646D01*
X106675646Y-66630147D01*
X106823216Y-66531544D01*
X106987188Y-66463624D01*
X107136488Y-66433927D01*
X107161258Y-66429000D01*
X107338742Y-66429000D01*
X107363512Y-66433927D01*
G37*
G36*
X87863512Y-66433927D02*
G01*
X88012812Y-66463624D01*
X88176784Y-66531544D01*
X88324354Y-66630147D01*
X88449853Y-66755646D01*
X88548456Y-66903216D01*
X88616376Y-67067188D01*
X88651000Y-67241259D01*
X88651000Y-67418741D01*
X88616376Y-67592812D01*
X88548456Y-67756784D01*
X88449853Y-67904354D01*
X88324354Y-68029853D01*
X88176784Y-68128456D01*
X88012812Y-68196376D01*
X87863512Y-68226073D01*
X87838742Y-68231000D01*
X87661258Y-68231000D01*
X87636488Y-68226073D01*
X87487188Y-68196376D01*
X87323216Y-68128456D01*
X87175646Y-68029853D01*
X87050147Y-67904354D01*
X86951544Y-67756784D01*
X86883624Y-67592812D01*
X86849000Y-67418741D01*
X86849000Y-67241259D01*
X86883624Y-67067188D01*
X86951544Y-66903216D01*
X87050147Y-66755646D01*
X87175646Y-66630147D01*
X87323216Y-66531544D01*
X87487188Y-66463624D01*
X87636488Y-66433927D01*
X87661258Y-66429000D01*
X87838742Y-66429000D01*
X87863512Y-66433927D01*
G37*
G36*
X107363512Y-63893927D02*
G01*
X107512812Y-63923624D01*
X107676784Y-63991544D01*
X107824354Y-64090147D01*
X107949853Y-64215646D01*
X108048456Y-64363216D01*
X108116376Y-64527188D01*
X108151000Y-64701259D01*
X108151000Y-64878741D01*
X108116376Y-65052812D01*
X108048456Y-65216784D01*
X107949853Y-65364354D01*
X107824354Y-65489853D01*
X107676784Y-65588456D01*
X107512812Y-65656376D01*
X107363512Y-65686073D01*
X107338742Y-65691000D01*
X107161258Y-65691000D01*
X107136488Y-65686073D01*
X106987188Y-65656376D01*
X106823216Y-65588456D01*
X106675646Y-65489853D01*
X106550147Y-65364354D01*
X106451544Y-65216784D01*
X106383624Y-65052812D01*
X106349000Y-64878741D01*
X106349000Y-64701259D01*
X106383624Y-64527188D01*
X106451544Y-64363216D01*
X106550147Y-64215646D01*
X106675646Y-64090147D01*
X106823216Y-63991544D01*
X106987188Y-63923624D01*
X107136488Y-63893927D01*
X107161258Y-63889000D01*
X107338742Y-63889000D01*
X107363512Y-63893927D01*
G37*
G36*
X87863512Y-63893927D02*
G01*
X88012812Y-63923624D01*
X88176784Y-63991544D01*
X88324354Y-64090147D01*
X88449853Y-64215646D01*
X88548456Y-64363216D01*
X88616376Y-64527188D01*
X88651000Y-64701259D01*
X88651000Y-64878741D01*
X88616376Y-65052812D01*
X88548456Y-65216784D01*
X88449853Y-65364354D01*
X88324354Y-65489853D01*
X88176784Y-65588456D01*
X88012812Y-65656376D01*
X87863512Y-65686073D01*
X87838742Y-65691000D01*
X87661258Y-65691000D01*
X87636488Y-65686073D01*
X87487188Y-65656376D01*
X87323216Y-65588456D01*
X87175646Y-65489853D01*
X87050147Y-65364354D01*
X86951544Y-65216784D01*
X86883624Y-65052812D01*
X86849000Y-64878741D01*
X86849000Y-64701259D01*
X86883624Y-64527188D01*
X86951544Y-64363216D01*
X87050147Y-64215646D01*
X87175646Y-64090147D01*
X87323216Y-63991544D01*
X87487188Y-63923624D01*
X87636488Y-63893927D01*
X87661258Y-63889000D01*
X87838742Y-63889000D01*
X87863512Y-63893927D01*
G37*
G36*
X107363512Y-61353927D02*
G01*
X107512812Y-61383624D01*
X107676784Y-61451544D01*
X107824354Y-61550147D01*
X107949853Y-61675646D01*
X108048456Y-61823216D01*
X108116376Y-61987188D01*
X108151000Y-62161259D01*
X108151000Y-62338741D01*
X108116376Y-62512812D01*
X108048456Y-62676784D01*
X107949853Y-62824354D01*
X107824354Y-62949853D01*
X107676784Y-63048456D01*
X107512812Y-63116376D01*
X107363512Y-63146073D01*
X107338742Y-63151000D01*
X107161258Y-63151000D01*
X107136488Y-63146073D01*
X106987188Y-63116376D01*
X106823216Y-63048456D01*
X106675646Y-62949853D01*
X106550147Y-62824354D01*
X106451544Y-62676784D01*
X106383624Y-62512812D01*
X106349000Y-62338741D01*
X106349000Y-62161259D01*
X106383624Y-61987188D01*
X106451544Y-61823216D01*
X106550147Y-61675646D01*
X106675646Y-61550147D01*
X106823216Y-61451544D01*
X106987188Y-61383624D01*
X107136488Y-61353927D01*
X107161258Y-61349000D01*
X107338742Y-61349000D01*
X107363512Y-61353927D01*
G37*
G36*
X87863512Y-61353927D02*
G01*
X88012812Y-61383624D01*
X88176784Y-61451544D01*
X88324354Y-61550147D01*
X88449853Y-61675646D01*
X88548456Y-61823216D01*
X88616376Y-61987188D01*
X88651000Y-62161259D01*
X88651000Y-62338741D01*
X88616376Y-62512812D01*
X88548456Y-62676784D01*
X88449853Y-62824354D01*
X88324354Y-62949853D01*
X88176784Y-63048456D01*
X88012812Y-63116376D01*
X87863512Y-63146073D01*
X87838742Y-63151000D01*
X87661258Y-63151000D01*
X87636488Y-63146073D01*
X87487188Y-63116376D01*
X87323216Y-63048456D01*
X87175646Y-62949853D01*
X87050147Y-62824354D01*
X86951544Y-62676784D01*
X86883624Y-62512812D01*
X86849000Y-62338741D01*
X86849000Y-62161259D01*
X86883624Y-61987188D01*
X86951544Y-61823216D01*
X87050147Y-61675646D01*
X87175646Y-61550147D01*
X87323216Y-61451544D01*
X87487188Y-61383624D01*
X87636488Y-61353927D01*
X87661258Y-61349000D01*
X87838742Y-61349000D01*
X87863512Y-61353927D01*
G37*
M02*
