M48
; DRILL file {KiCad 5.1.5+dfsg1-2build2} date Út 19. ledna 2021, 23:11:20
; FORMAT={-:-/ absolute / inch / decimal}
; #@! TF.CreationDate,2021-01-19T23:11:20+01:00
; #@! TF.GenerationSoftware,Kicad,Pcbnew,5.1.5+dfsg1-2build2
; #@! TF.FileFunction,Plated,1,2,PTH
FMAT,2
INCH
T1C0.0157
T2C0.0394
T3C0.0400
T4C0.0472
%
G90
G05
T1
X3.4232Y-3.6634
X3.4843Y-4.4488
X3.5039Y-4.5079
X3.5433Y-4.6654
X3.5433Y-4.7244
X3.5827Y-4.4291
X3.5885Y-4.7066
X3.6614Y-3.7205
X3.6614Y-4.311
X3.6614Y-4.3504
X3.6614Y-4.3898
X3.6614Y-4.5669
X3.6614Y-4.6063
X3.7008Y-4.311
X3.7008Y-4.3504
X3.7008Y-4.3898
X3.7008Y-4.5669
X3.7008Y-4.6063
X3.7205Y-3.2087
X3.7402Y-4.2717
X3.7402Y-4.311
X3.7795Y-4.2717
X3.7795Y-4.311
X3.8386Y-2.7878
X3.878Y-3.2087
X3.9961Y-4.0157
X4.012Y-4.2913
X4.0945Y-3.189
X4.1732Y-4.3307
X4.1732Y-4.3701
X4.1732Y-4.4094
X4.1732Y-4.5866
X4.1732Y-4.626
X4.2126Y-4.3307
X4.2126Y-4.3701
X4.2126Y-4.4094
X4.2126Y-4.5866
X4.2126Y-4.626
X4.252Y-4.3307
X4.252Y-4.3701
X4.252Y-4.4094
X4.2913Y-3.8583
X4.2913Y-3.6417
X4.3898Y-4.1535
X4.4882Y-3.937
X4.5079Y-3.8386
T2
X4.2224Y-2.4508
X4.2224Y-2.5508
X4.2224Y-2.6508
X4.2224Y-2.7508
X4.2224Y-2.8508
X4.2224Y-2.9508
X4.2224Y-3.0508
X4.2224Y-3.1508
X4.2224Y-3.2508
X4.2224Y-3.3508
X4.2224Y-3.4508
X4.2224Y-3.5508
X3.4547Y-2.4508
X3.4547Y-2.5508
X3.4547Y-2.6508
X3.4547Y-2.7508
X3.4547Y-2.8508
X3.4547Y-2.9508
X3.4547Y-3.0508
X3.4547Y-3.1508
X3.4547Y-3.2508
X3.4547Y-3.3508
X3.4547Y-3.4508
X3.4547Y-3.5508
T3
X3.9961Y-3.6992
X3.9961Y-3.7992
X3.9961Y-3.8992
T4
X3.4449Y-4.9016
X3.4449Y-5.0984
X3.5949Y-4.9016
X3.5949Y-5.0984
X3.7449Y-4.9016
X3.7449Y-5.0984
X3.8949Y-4.9016
X3.8949Y-5.0984
X4.0449Y-4.9016
X4.0449Y-5.0984
X4.1949Y-4.9016
X4.1949Y-5.0984
X4.3449Y-4.9016
X4.3449Y-5.0984
X4.4949Y-4.9016
X4.4949Y-5.0984
T0
M30
