M48
; DRILL file {KiCad 5.1.5+dfsg1-2build2} date Po 26. července 2021, 20:03:21
; FORMAT={-:-/ absolute / inch / decimal}
; #@! TF.CreationDate,2021-07-26T20:03:21+02:00
; #@! TF.GenerationSoftware,Kicad,Pcbnew,5.1.5+dfsg1-2build2
; #@! TF.FileFunction,Plated,1,2,PTH
FMAT,2
INCH
T1C0.0157
T2C0.0236
T3C0.0394
T4C0.0400
T5C0.0472
%
G90
G05
T1
X3.3858Y-4.252
X3.409Y-4.0615
X3.4232Y-3.6634
X3.4646Y-4.0059
X3.6417Y-4.0354
X3.6417Y-4.1732
X3.6614Y-3.0512
X3.7106Y-4.2815
X3.7106Y-4.3307
X3.7106Y-4.3799
X3.7697Y-4.2815
X3.7697Y-4.3307
X3.7697Y-4.3799
X3.8189Y-4.1929
X3.839Y-3.0508
X3.8878Y-4.124
X3.9173Y-3.1102
X3.9862Y-2.4508
X4.0551Y-3.622
X4.1181Y-3.622
X4.2913Y-3.8583
X4.2913Y-3.6417
X4.3898Y-4.1535
X4.4488Y-4.8031
X4.4882Y-3.937
X4.5079Y-3.8386
X4.5374Y-4.6457
T2
X3.6417Y-4.4685
X3.6417Y-4.5276
X3.6417Y-4.5866
X3.6417Y-4.6457
X3.9567Y-4.1142
X3.9567Y-4.1535
T3
X3.4547Y-2.4508
X3.4547Y-2.5508
X3.4547Y-2.6508
X3.4547Y-2.7508
X3.4547Y-2.8508
X3.4547Y-2.9508
X3.4547Y-3.0508
X3.4547Y-3.1508
X3.4547Y-3.2508
X3.4547Y-3.3508
X4.2224Y-2.4508
X4.2224Y-2.5508
X4.2224Y-2.6508
X4.2224Y-2.7508
X4.2224Y-2.8508
X4.2224Y-2.9508
X4.2224Y-3.0508
X4.2224Y-3.1508
X4.2224Y-3.2508
X4.2224Y-3.3508
T4
X3.9961Y-3.7583
X3.9961Y-3.8583
X3.9961Y-3.9583
T5
X3.4449Y-4.9016
X3.4449Y-5.0984
X3.5949Y-4.9016
X3.5949Y-5.0984
X3.7449Y-4.9016
X3.7449Y-5.0984
X3.8949Y-4.9016
X3.8949Y-5.0984
X4.0449Y-4.9016
X4.0449Y-5.0984
X4.1949Y-4.9016
X4.1949Y-5.0984
X4.3449Y-4.9016
X4.3449Y-5.0984
X4.4949Y-4.9016
X4.4949Y-5.0984
T0
M30
