G04 #@! TF.GenerationSoftware,KiCad,Pcbnew,5.1.5+dfsg1-2build2*
G04 #@! TF.CreationDate,2021-01-19T23:11:10+01:00*
G04 #@! TF.ProjectId,t100-dcmotor,74313030-2d64-4636-9d6f-746f722e6b69,rev?*
G04 #@! TF.SameCoordinates,Original*
G04 #@! TF.FileFunction,Legend,Top*
G04 #@! TF.FilePolarity,Positive*
%FSLAX46Y46*%
G04 Gerber Fmt 4.6, Leading zero omitted, Abs format (unit mm)*
G04 Created by KiCad (PCBNEW 5.1.5+dfsg1-2build2) date 2021-01-19 23:11:10*
%MOMM*%
%LPD*%
G04 APERTURE LIST*
%ADD10C,0.150000*%
%ADD11C,0.120000*%
%ADD12C,0.100000*%
%ADD13C,0.200000*%
%ADD14C,0.254000*%
G04 APERTURE END LIST*
D10*
X113027142Y-136334761D02*
X113170000Y-136382380D01*
X113408095Y-136382380D01*
X113503333Y-136334761D01*
X113550952Y-136287142D01*
X113598571Y-136191904D01*
X113598571Y-136096666D01*
X113550952Y-136001428D01*
X113503333Y-135953809D01*
X113408095Y-135906190D01*
X113217619Y-135858571D01*
X113122380Y-135810952D01*
X113074761Y-135763333D01*
X113027142Y-135668095D01*
X113027142Y-135572857D01*
X113074761Y-135477619D01*
X113122380Y-135430000D01*
X113217619Y-135382380D01*
X113455714Y-135382380D01*
X113598571Y-135430000D01*
X113884285Y-135382380D02*
X114455714Y-135382380D01*
X114170000Y-136382380D02*
X114170000Y-135382380D01*
X114741428Y-135477619D02*
X114789047Y-135430000D01*
X114884285Y-135382380D01*
X115122380Y-135382380D01*
X115217619Y-135430000D01*
X115265238Y-135477619D01*
X115312857Y-135572857D01*
X115312857Y-135668095D01*
X115265238Y-135810952D01*
X114693809Y-136382380D01*
X115312857Y-136382380D01*
X109217142Y-136334761D02*
X109360000Y-136382380D01*
X109598095Y-136382380D01*
X109693333Y-136334761D01*
X109740952Y-136287142D01*
X109788571Y-136191904D01*
X109788571Y-136096666D01*
X109740952Y-136001428D01*
X109693333Y-135953809D01*
X109598095Y-135906190D01*
X109407619Y-135858571D01*
X109312380Y-135810952D01*
X109264761Y-135763333D01*
X109217142Y-135668095D01*
X109217142Y-135572857D01*
X109264761Y-135477619D01*
X109312380Y-135430000D01*
X109407619Y-135382380D01*
X109645714Y-135382380D01*
X109788571Y-135430000D01*
X110074285Y-135382380D02*
X110645714Y-135382380D01*
X110360000Y-136382380D02*
X110360000Y-135382380D01*
X111502857Y-136382380D02*
X110931428Y-136382380D01*
X111217142Y-136382380D02*
X111217142Y-135382380D01*
X111121904Y-135525238D01*
X111026666Y-135620476D01*
X110931428Y-135668095D01*
D11*
X115880000Y-137199999D02*
X115880000Y-133999999D01*
D10*
X100287976Y-59166666D02*
X100764166Y-59166666D01*
X100192738Y-59452380D02*
X100526071Y-58452380D01*
X100859404Y-59452380D01*
X101097500Y-58452380D02*
X101764166Y-59452380D01*
X101764166Y-58452380D02*
X101097500Y-59452380D01*
X102145119Y-59452380D02*
X102145119Y-58452380D01*
X102573690Y-59404761D02*
X102716547Y-59452380D01*
X102954642Y-59452380D01*
X103049880Y-59404761D01*
X103097500Y-59357142D01*
X103145119Y-59261904D01*
X103145119Y-59166666D01*
X103097500Y-59071428D01*
X103049880Y-59023809D01*
X102954642Y-58976190D01*
X102764166Y-58928571D01*
X102668928Y-58880952D01*
X102621309Y-58833333D01*
X102573690Y-58738095D01*
X102573690Y-58642857D01*
X102621309Y-58547619D01*
X102668928Y-58500000D01*
X102764166Y-58452380D01*
X103002261Y-58452380D01*
X103145119Y-58500000D01*
D12*
G36*
X99500000Y-67000000D02*
G01*
X91000000Y-67000000D01*
X91000000Y-58500000D01*
X99500000Y-58500000D01*
X99500000Y-67000000D01*
G37*
X99500000Y-67000000D02*
X91000000Y-67000000D01*
X91000000Y-58500000D01*
X99500000Y-58500000D01*
X99500000Y-67000000D01*
D11*
X85400000Y-137200000D02*
X85400000Y-134000000D01*
X115880000Y-137199999D02*
X85400000Y-137200000D01*
D10*
X102549523Y-135382380D02*
X102073333Y-135382380D01*
X102025714Y-135858571D01*
X102073333Y-135810952D01*
X102168571Y-135763333D01*
X102406666Y-135763333D01*
X102501904Y-135810952D01*
X102549523Y-135858571D01*
X102597142Y-135953809D01*
X102597142Y-136191904D01*
X102549523Y-136287142D01*
X102501904Y-136334761D01*
X102406666Y-136382380D01*
X102168571Y-136382380D01*
X102073333Y-136334761D01*
X102025714Y-136287142D01*
X102882857Y-135382380D02*
X103216190Y-136382380D01*
X103549523Y-135382380D01*
X93858095Y-136382380D02*
X93858095Y-135382380D01*
X93858095Y-135858571D02*
X94429523Y-135858571D01*
X94429523Y-136382380D02*
X94429523Y-135382380D01*
X94858095Y-136334761D02*
X95000952Y-136382380D01*
X95239047Y-136382380D01*
X95334285Y-136334761D01*
X95381904Y-136287142D01*
X95429523Y-136191904D01*
X95429523Y-136096666D01*
X95381904Y-136001428D01*
X95334285Y-135953809D01*
X95239047Y-135906190D01*
X95048571Y-135858571D01*
X94953333Y-135810952D01*
X94905714Y-135763333D01*
X94858095Y-135668095D01*
X94858095Y-135572857D01*
X94905714Y-135477619D01*
X94953333Y-135430000D01*
X95048571Y-135382380D01*
X95286666Y-135382380D01*
X95429523Y-135430000D01*
X96191428Y-135858571D02*
X96334285Y-135906190D01*
X96381904Y-135953809D01*
X96429523Y-136049047D01*
X96429523Y-136191904D01*
X96381904Y-136287142D01*
X96334285Y-136334761D01*
X96239047Y-136382380D01*
X95858095Y-136382380D01*
X95858095Y-135382380D01*
X96191428Y-135382380D01*
X96286666Y-135430000D01*
X96334285Y-135477619D01*
X96381904Y-135572857D01*
X96381904Y-135668095D01*
X96334285Y-135763333D01*
X96286666Y-135810952D01*
X96191428Y-135858571D01*
X95858095Y-135858571D01*
X97739523Y-136382380D02*
X97739523Y-135382380D01*
X97739523Y-135858571D02*
X98310952Y-135858571D01*
X98310952Y-136382380D02*
X98310952Y-135382380D01*
X98739523Y-136334761D02*
X98882380Y-136382380D01*
X99120476Y-136382380D01*
X99215714Y-136334761D01*
X99263333Y-136287142D01*
X99310952Y-136191904D01*
X99310952Y-136096666D01*
X99263333Y-136001428D01*
X99215714Y-135953809D01*
X99120476Y-135906190D01*
X98930000Y-135858571D01*
X98834761Y-135810952D01*
X98787142Y-135763333D01*
X98739523Y-135668095D01*
X98739523Y-135572857D01*
X98787142Y-135477619D01*
X98834761Y-135430000D01*
X98930000Y-135382380D01*
X99168095Y-135382380D01*
X99310952Y-135430000D01*
X99691904Y-136096666D02*
X100168095Y-136096666D01*
X99596666Y-136382380D02*
X99930000Y-135382380D01*
X100263333Y-136382380D01*
X90548095Y-135430000D02*
X90452857Y-135382380D01*
X90310000Y-135382380D01*
X90167142Y-135430000D01*
X90071904Y-135525238D01*
X90024285Y-135620476D01*
X89976666Y-135810952D01*
X89976666Y-135953809D01*
X90024285Y-136144285D01*
X90071904Y-136239523D01*
X90167142Y-136334761D01*
X90310000Y-136382380D01*
X90405238Y-136382380D01*
X90548095Y-136334761D01*
X90595714Y-136287142D01*
X90595714Y-135953809D01*
X90405238Y-135953809D01*
X91024285Y-136382380D02*
X91024285Y-135382380D01*
X91595714Y-136382380D01*
X91595714Y-135382380D01*
X92071904Y-136382380D02*
X92071904Y-135382380D01*
X92310000Y-135382380D01*
X92452857Y-135430000D01*
X92548095Y-135525238D01*
X92595714Y-135620476D01*
X92643333Y-135810952D01*
X92643333Y-135953809D01*
X92595714Y-136144285D01*
X92548095Y-136239523D01*
X92452857Y-136334761D01*
X92310000Y-136382380D01*
X92071904Y-136382380D01*
X86547619Y-136382380D02*
X86547619Y-135382380D01*
X86880952Y-136096666D01*
X87214285Y-135382380D01*
X87214285Y-136382380D01*
X87690476Y-136001428D02*
X88452380Y-136001428D01*
X105597619Y-136382380D02*
X105597619Y-135382380D01*
X105930952Y-136096666D01*
X106264285Y-135382380D01*
X106264285Y-136382380D01*
X106740476Y-136001428D02*
X107502380Y-136001428D01*
X107121428Y-136382380D02*
X107121428Y-135620476D01*
X104404761Y-95357142D02*
X104452380Y-95214285D01*
X104452380Y-94976190D01*
X104404761Y-94880952D01*
X104357142Y-94833333D01*
X104261904Y-94785714D01*
X104166666Y-94785714D01*
X104071428Y-94833333D01*
X104023809Y-94880952D01*
X103976190Y-94976190D01*
X103928571Y-95166666D01*
X103880952Y-95261904D01*
X103833333Y-95309523D01*
X103738095Y-95357142D01*
X103642857Y-95357142D01*
X103547619Y-95309523D01*
X103500000Y-95261904D01*
X103452380Y-95166666D01*
X103452380Y-94928571D01*
X103500000Y-94785714D01*
X103452380Y-94452380D02*
X104452380Y-94214285D01*
X103738095Y-94023809D01*
X104452380Y-93833333D01*
X103452380Y-93595238D01*
X104452380Y-93214285D02*
X103452380Y-93214285D01*
X103452380Y-92976190D01*
X103500000Y-92833333D01*
X103595238Y-92738095D01*
X103690476Y-92690476D01*
X103880952Y-92642857D01*
X104023809Y-92642857D01*
X104214285Y-92690476D01*
X104309523Y-92738095D01*
X104404761Y-92833333D01*
X104452380Y-92976190D01*
X104452380Y-93214285D01*
D13*
X92119047Y-54602380D02*
X91547619Y-54602380D01*
X91833333Y-54602380D02*
X91833333Y-53602380D01*
X91738095Y-53745238D01*
X91642857Y-53840476D01*
X91547619Y-53888095D01*
X92500000Y-53697619D02*
X92547619Y-53650000D01*
X92642857Y-53602380D01*
X92880952Y-53602380D01*
X92976190Y-53650000D01*
X93023809Y-53697619D01*
X93071428Y-53792857D01*
X93071428Y-53888095D01*
X93023809Y-54030952D01*
X92452380Y-54602380D01*
X93071428Y-54602380D01*
X93357142Y-53602380D02*
X93690476Y-54602380D01*
X94023809Y-53602380D01*
X95119047Y-54602380D02*
X95119047Y-53602380D01*
X95357142Y-53602380D01*
X95500000Y-53650000D01*
X95595238Y-53745238D01*
X95642857Y-53840476D01*
X95690476Y-54030952D01*
X95690476Y-54173809D01*
X95642857Y-54364285D01*
X95595238Y-54459523D01*
X95500000Y-54554761D01*
X95357142Y-54602380D01*
X95119047Y-54602380D01*
X96690476Y-54507142D02*
X96642857Y-54554761D01*
X96500000Y-54602380D01*
X96404761Y-54602380D01*
X96261904Y-54554761D01*
X96166666Y-54459523D01*
X96119047Y-54364285D01*
X96071428Y-54173809D01*
X96071428Y-54030952D01*
X96119047Y-53840476D01*
X96166666Y-53745238D01*
X96261904Y-53650000D01*
X96404761Y-53602380D01*
X96500000Y-53602380D01*
X96642857Y-53650000D01*
X96690476Y-53697619D01*
X97880952Y-54602380D02*
X97880952Y-53602380D01*
X98214285Y-54316666D01*
X98547619Y-53602380D01*
X98547619Y-54602380D01*
X99214285Y-53602380D02*
X99404761Y-53602380D01*
X99500000Y-53650000D01*
X99595238Y-53745238D01*
X99642857Y-53935714D01*
X99642857Y-54269047D01*
X99595238Y-54459523D01*
X99500000Y-54554761D01*
X99404761Y-54602380D01*
X99214285Y-54602380D01*
X99119047Y-54554761D01*
X99023809Y-54459523D01*
X98976190Y-54269047D01*
X98976190Y-53935714D01*
X99023809Y-53745238D01*
X99119047Y-53650000D01*
X99214285Y-53602380D01*
X99928571Y-53602380D02*
X100500000Y-53602380D01*
X100214285Y-54602380D02*
X100214285Y-53602380D01*
X101023809Y-53602380D02*
X101214285Y-53602380D01*
X101309523Y-53650000D01*
X101404761Y-53745238D01*
X101452380Y-53935714D01*
X101452380Y-54269047D01*
X101404761Y-54459523D01*
X101309523Y-54554761D01*
X101214285Y-54602380D01*
X101023809Y-54602380D01*
X100928571Y-54554761D01*
X100833333Y-54459523D01*
X100785714Y-54269047D01*
X100785714Y-53935714D01*
X100833333Y-53745238D01*
X100928571Y-53650000D01*
X101023809Y-53602380D01*
X102452380Y-54602380D02*
X102119047Y-54126190D01*
X101880952Y-54602380D02*
X101880952Y-53602380D01*
X102261904Y-53602380D01*
X102357142Y-53650000D01*
X102404761Y-53697619D01*
X102452380Y-53792857D01*
X102452380Y-53935714D01*
X102404761Y-54030952D01*
X102357142Y-54078571D01*
X102261904Y-54126190D01*
X101880952Y-54126190D01*
X103642857Y-54602380D02*
X103642857Y-53602380D01*
X103880952Y-53602380D01*
X104023809Y-53650000D01*
X104119047Y-53745238D01*
X104166666Y-53840476D01*
X104214285Y-54030952D01*
X104214285Y-54173809D01*
X104166666Y-54364285D01*
X104119047Y-54459523D01*
X104023809Y-54554761D01*
X103880952Y-54602380D01*
X103642857Y-54602380D01*
X105214285Y-54602380D02*
X104880952Y-54126190D01*
X104642857Y-54602380D02*
X104642857Y-53602380D01*
X105023809Y-53602380D01*
X105119047Y-53650000D01*
X105166666Y-53697619D01*
X105214285Y-53792857D01*
X105214285Y-53935714D01*
X105166666Y-54030952D01*
X105119047Y-54078571D01*
X105023809Y-54126190D01*
X104642857Y-54126190D01*
X105642857Y-54602380D02*
X105642857Y-53602380D01*
X105976190Y-53602380D02*
X106309523Y-54602380D01*
X106642857Y-53602380D01*
X106976190Y-54078571D02*
X107309523Y-54078571D01*
X107452380Y-54602380D02*
X106976190Y-54602380D01*
X106976190Y-53602380D01*
X107452380Y-53602380D01*
X108452380Y-54602380D02*
X108119047Y-54126190D01*
X107880952Y-54602380D02*
X107880952Y-53602380D01*
X108261904Y-53602380D01*
X108357142Y-53650000D01*
X108404761Y-53697619D01*
X108452380Y-53792857D01*
X108452380Y-53935714D01*
X108404761Y-54030952D01*
X108357142Y-54078571D01*
X108261904Y-54126190D01*
X107880952Y-54126190D01*
X91833333Y-55302380D02*
X92071428Y-56302380D01*
X92261904Y-55588095D01*
X92452380Y-56302380D01*
X92690476Y-55302380D01*
X93785714Y-55254761D02*
X92928571Y-56540476D01*
X94880952Y-56302380D02*
X94880952Y-55302380D01*
X94880952Y-55778571D02*
X95452380Y-55778571D01*
X95452380Y-56302380D02*
X95452380Y-55302380D01*
X95880952Y-56016666D02*
X96357142Y-56016666D01*
X95785714Y-56302380D02*
X96119047Y-55302380D01*
X96452380Y-56302380D01*
X97261904Y-56302380D02*
X96785714Y-56302380D01*
X96785714Y-55302380D01*
X98071428Y-56302380D02*
X97595238Y-56302380D01*
X97595238Y-55302380D01*
X99166666Y-55778571D02*
X99500000Y-55778571D01*
X99642857Y-56302380D02*
X99166666Y-56302380D01*
X99166666Y-55302380D01*
X99642857Y-55302380D01*
X100071428Y-56302380D02*
X100071428Y-55302380D01*
X100642857Y-56302380D01*
X100642857Y-55302380D01*
X101690476Y-56207142D02*
X101642857Y-56254761D01*
X101500000Y-56302380D01*
X101404761Y-56302380D01*
X101261904Y-56254761D01*
X101166666Y-56159523D01*
X101119047Y-56064285D01*
X101071428Y-55873809D01*
X101071428Y-55730952D01*
X101119047Y-55540476D01*
X101166666Y-55445238D01*
X101261904Y-55350000D01*
X101404761Y-55302380D01*
X101500000Y-55302380D01*
X101642857Y-55350000D01*
X101690476Y-55397619D01*
X102309523Y-55302380D02*
X102500000Y-55302380D01*
X102595238Y-55350000D01*
X102690476Y-55445238D01*
X102738095Y-55635714D01*
X102738095Y-55969047D01*
X102690476Y-56159523D01*
X102595238Y-56254761D01*
X102500000Y-56302380D01*
X102309523Y-56302380D01*
X102214285Y-56254761D01*
X102119047Y-56159523D01*
X102071428Y-55969047D01*
X102071428Y-55635714D01*
X102119047Y-55445238D01*
X102214285Y-55350000D01*
X102309523Y-55302380D01*
X103166666Y-56302380D02*
X103166666Y-55302380D01*
X103404761Y-55302380D01*
X103547619Y-55350000D01*
X103642857Y-55445238D01*
X103690476Y-55540476D01*
X103738095Y-55730952D01*
X103738095Y-55873809D01*
X103690476Y-56064285D01*
X103642857Y-56159523D01*
X103547619Y-56254761D01*
X103404761Y-56302380D01*
X103166666Y-56302380D01*
X104166666Y-55778571D02*
X104500000Y-55778571D01*
X104642857Y-56302380D02*
X104166666Y-56302380D01*
X104166666Y-55302380D01*
X104642857Y-55302380D01*
X105642857Y-56302380D02*
X105309523Y-55826190D01*
X105071428Y-56302380D02*
X105071428Y-55302380D01*
X105452380Y-55302380D01*
X105547619Y-55350000D01*
X105595238Y-55397619D01*
X105642857Y-55492857D01*
X105642857Y-55635714D01*
X105595238Y-55730952D01*
X105547619Y-55778571D01*
X105452380Y-55826190D01*
X105071428Y-55826190D01*
X106738095Y-55635714D02*
X106976190Y-56302380D01*
X107214285Y-55635714D01*
X108119047Y-56302380D02*
X107547619Y-56302380D01*
X107833333Y-56302380D02*
X107833333Y-55302380D01*
X107738095Y-55445238D01*
X107642857Y-55540476D01*
X107547619Y-55588095D01*
D11*
X93738748Y-71710000D02*
X94261252Y-71710000D01*
X93738748Y-70290000D02*
X94261252Y-70290000D01*
X93738748Y-75210000D02*
X94261252Y-75210000D01*
X93738748Y-73790000D02*
X94261252Y-73790000D01*
X104710000Y-63236252D02*
X104710000Y-62713748D01*
X103290000Y-63236252D02*
X103290000Y-62713748D01*
X104710000Y-67261252D02*
X104710000Y-66738748D01*
X103290000Y-67261252D02*
X103290000Y-66738748D01*
D14*
X85400000Y-134000000D02*
X115880000Y-133999999D01*
X85400000Y-121500000D02*
X115880000Y-121500000D01*
X115880000Y-121500000D02*
X115880000Y-133999999D01*
X85400000Y-121500000D02*
X85400000Y-134000000D01*
X84400001Y-132801751D02*
X85400000Y-132801751D01*
X104068999Y-134000000D02*
X104068999Y-131000000D01*
X85400000Y-121500000D02*
X85400000Y-132801751D01*
X105117000Y-134000000D02*
X105117000Y-131000000D01*
X84400000Y-121500000D02*
X85400000Y-121500000D01*
X107879000Y-131000000D02*
X105117000Y-131000000D01*
X107879000Y-134000000D02*
X107879000Y-131000000D01*
X108927000Y-134000000D02*
X108927000Y-131000000D01*
X111689000Y-131000000D02*
X108927000Y-131000000D01*
X111689000Y-134000000D02*
X111689000Y-131000000D01*
X112737000Y-134000000D02*
X112737000Y-131000000D01*
X115499000Y-131000000D02*
X112737000Y-131000000D01*
X115499000Y-134000000D02*
X115499000Y-131000000D01*
X104068999Y-131000000D02*
X101307000Y-131000000D01*
X84400000Y-121500000D02*
X84400001Y-132801751D01*
X101307000Y-134000000D02*
X101307000Y-131000000D01*
X100259000Y-134000000D02*
X100259000Y-131000000D01*
X100259000Y-131000000D02*
X97497000Y-131000000D01*
X97497000Y-134000000D02*
X97497000Y-131000000D01*
X96449000Y-134000000D02*
X96449000Y-131000000D01*
X96449000Y-131000000D02*
X93687000Y-131000000D01*
X93687000Y-134000000D02*
X93687000Y-131000000D01*
X92639000Y-134000000D02*
X92639000Y-131000000D01*
X92639000Y-131000000D02*
X89877000Y-131000000D01*
X89877000Y-134000000D02*
X89877000Y-131000000D01*
X88829000Y-131000000D02*
X86067001Y-131000000D01*
X86067001Y-134000000D02*
X86067001Y-131000000D01*
X88829000Y-134000000D02*
X88829000Y-131000000D01*
D11*
X98710000Y-94761252D02*
X98710000Y-94238748D01*
X97290000Y-94761252D02*
X97290000Y-94238748D01*
D10*
X100230000Y-92690000D02*
X102770000Y-92690000D01*
X100230000Y-100310000D02*
X100230000Y-92690000D01*
X102770000Y-100310000D02*
X100230000Y-100310000D01*
X102770000Y-92690000D02*
X102770000Y-100310000D01*
X102770000Y-95230000D02*
X100230000Y-95230000D01*
D11*
X105060000Y-114000000D02*
X105060000Y-110550000D01*
X105060000Y-114000000D02*
X105060000Y-115950000D01*
X94940000Y-114000000D02*
X94940000Y-112050000D01*
X94940000Y-114000000D02*
X94940000Y-115950000D01*
X93140000Y-78725000D02*
X91325000Y-78725000D01*
X93140000Y-78490000D02*
X93140000Y-78725000D01*
X97000000Y-78490000D02*
X93140000Y-78490000D01*
X100860000Y-78490000D02*
X100860000Y-78725000D01*
X97000000Y-78490000D02*
X100860000Y-78490000D01*
X93140000Y-91510000D02*
X93140000Y-91275000D01*
X97000000Y-91510000D02*
X93140000Y-91510000D01*
X100860000Y-91510000D02*
X100860000Y-91275000D01*
X97000000Y-91510000D02*
X100860000Y-91510000D01*
X115710000Y-113261252D02*
X115710000Y-112738748D01*
X114290000Y-113261252D02*
X114290000Y-112738748D01*
X85710000Y-114261252D02*
X85710000Y-113738748D01*
X84290000Y-114261252D02*
X84290000Y-113738748D01*
X93710000Y-107286252D02*
X93710000Y-106763748D01*
X92290000Y-107286252D02*
X92290000Y-106763748D01*
X114261252Y-102790000D02*
X113738748Y-102790000D01*
X114261252Y-104210000D02*
X113738748Y-104210000D01*
X85710000Y-102261252D02*
X85710000Y-101738748D01*
X84290000Y-102261252D02*
X84290000Y-101738748D01*
X93710000Y-102261252D02*
X93710000Y-101738748D01*
X92290000Y-102261252D02*
X92290000Y-101738748D01*
X90710000Y-102261252D02*
X90710000Y-101738748D01*
X89290000Y-102261252D02*
X89290000Y-101738748D01*
X88710000Y-108761252D02*
X88710000Y-108238748D01*
X87290000Y-108761252D02*
X87290000Y-108238748D01*
X96710000Y-102261252D02*
X96710000Y-101738748D01*
X95290000Y-102261252D02*
X95290000Y-101738748D01*
X100261252Y-73790000D02*
X99738748Y-73790000D01*
X100261252Y-75210000D02*
X99738748Y-75210000D01*
X107250000Y-91520000D02*
X106140000Y-91520000D01*
X106140000Y-91520000D02*
X106140000Y-90190000D01*
X117340000Y-91520000D02*
X117340000Y-60920000D01*
X117340000Y-60920000D02*
X108710000Y-60920000D01*
X108710000Y-91520000D02*
X108710000Y-60920000D01*
X117340000Y-91520000D02*
X108710000Y-91520000D01*
X117340000Y-63520000D02*
X108710000Y-63520000D01*
X117340000Y-66060000D02*
X108710000Y-66060000D01*
X117340000Y-68600000D02*
X108710000Y-68600000D01*
X117340000Y-71140000D02*
X108710000Y-71140000D01*
X117340000Y-73680000D02*
X108710000Y-73680000D01*
X117340000Y-76220000D02*
X108710000Y-76220000D01*
X117340000Y-78760000D02*
X108710000Y-78760000D01*
X117340000Y-81300000D02*
X108710000Y-81300000D01*
X117340000Y-83840000D02*
X108710000Y-83840000D01*
X117340000Y-86380000D02*
X108710000Y-86380000D01*
X117340000Y-88920000D02*
X108710000Y-88920000D01*
X108710000Y-61890000D02*
X108300000Y-61890000D01*
X108710000Y-62610000D02*
X108300000Y-62610000D01*
X108710000Y-64430000D02*
X108300000Y-64430000D01*
X108710000Y-65150000D02*
X108300000Y-65150000D01*
X108710000Y-66970000D02*
X108300000Y-66970000D01*
X108710000Y-67690000D02*
X108300000Y-67690000D01*
X108710000Y-69510000D02*
X108300000Y-69510000D01*
X108710000Y-70230000D02*
X108300000Y-70230000D01*
X108710000Y-72050000D02*
X108300000Y-72050000D01*
X108710000Y-72770000D02*
X108300000Y-72770000D01*
X108710000Y-74590000D02*
X108300000Y-74590000D01*
X108710000Y-75310000D02*
X108300000Y-75310000D01*
X108710000Y-77130000D02*
X108300000Y-77130000D01*
X108710000Y-77850000D02*
X108300000Y-77850000D01*
X108710000Y-79670000D02*
X108300000Y-79670000D01*
X108710000Y-80390000D02*
X108300000Y-80390000D01*
X108710000Y-82210000D02*
X108300000Y-82210000D01*
X108710000Y-82930000D02*
X108300000Y-82930000D01*
X108710000Y-84750000D02*
X108300000Y-84750000D01*
X108710000Y-85470000D02*
X108300000Y-85470000D01*
X108710000Y-87290000D02*
X108300000Y-87290000D01*
X108710000Y-88010000D02*
X108300000Y-88010000D01*
X108710000Y-89830000D02*
X108360000Y-89830000D01*
X108710000Y-90550000D02*
X108360000Y-90550000D01*
X117340000Y-89038100D02*
X108710000Y-89038100D01*
X117340000Y-89156195D02*
X108710000Y-89156195D01*
X117340000Y-89274290D02*
X108710000Y-89274290D01*
X117340000Y-89392385D02*
X108710000Y-89392385D01*
X117340000Y-89510480D02*
X108710000Y-89510480D01*
X117340000Y-89628575D02*
X108710000Y-89628575D01*
X117340000Y-89746670D02*
X108710000Y-89746670D01*
X117340000Y-89864765D02*
X108710000Y-89864765D01*
X117340000Y-89982860D02*
X108710000Y-89982860D01*
X117340000Y-90100955D02*
X108710000Y-90100955D01*
X117340000Y-90219050D02*
X108710000Y-90219050D01*
X117340000Y-90337145D02*
X108710000Y-90337145D01*
X117340000Y-90455240D02*
X108710000Y-90455240D01*
X117340000Y-90573335D02*
X108710000Y-90573335D01*
X117340000Y-90691430D02*
X108710000Y-90691430D01*
X117340000Y-90809525D02*
X108710000Y-90809525D01*
X117340000Y-90927620D02*
X108710000Y-90927620D01*
X117340000Y-91045715D02*
X108710000Y-91045715D01*
X117340000Y-91163810D02*
X108710000Y-91163810D01*
X117340000Y-91281905D02*
X108710000Y-91281905D01*
X117340000Y-91400000D02*
X108710000Y-91400000D01*
X89020000Y-91460000D02*
X87750000Y-91460000D01*
X89020000Y-90190000D02*
X89020000Y-91460000D01*
X86707071Y-61870000D02*
X86310000Y-61870000D01*
X86707071Y-62630000D02*
X86310000Y-62630000D01*
X77650000Y-61870000D02*
X83650000Y-61870000D01*
X77650000Y-62630000D02*
X77650000Y-61870000D01*
X83650000Y-62630000D02*
X77650000Y-62630000D01*
X86310000Y-63520000D02*
X83650000Y-63520000D01*
X86707071Y-64410000D02*
X86310000Y-64410000D01*
X86707071Y-65170000D02*
X86310000Y-65170000D01*
X77650000Y-64410000D02*
X83650000Y-64410000D01*
X77650000Y-65170000D02*
X77650000Y-64410000D01*
X83650000Y-65170000D02*
X77650000Y-65170000D01*
X86310000Y-66060000D02*
X83650000Y-66060000D01*
X86707071Y-66950000D02*
X86310000Y-66950000D01*
X86707071Y-67710000D02*
X86310000Y-67710000D01*
X77650000Y-66950000D02*
X83650000Y-66950000D01*
X77650000Y-67710000D02*
X77650000Y-66950000D01*
X83650000Y-67710000D02*
X77650000Y-67710000D01*
X86310000Y-68600000D02*
X83650000Y-68600000D01*
X86707071Y-69490000D02*
X86310000Y-69490000D01*
X86707071Y-70250000D02*
X86310000Y-70250000D01*
X77650000Y-69490000D02*
X83650000Y-69490000D01*
X77650000Y-70250000D02*
X77650000Y-69490000D01*
X83650000Y-70250000D02*
X77650000Y-70250000D01*
X86310000Y-71140000D02*
X83650000Y-71140000D01*
X86707071Y-72030000D02*
X86310000Y-72030000D01*
X86707071Y-72790000D02*
X86310000Y-72790000D01*
X77650000Y-72030000D02*
X83650000Y-72030000D01*
X77650000Y-72790000D02*
X77650000Y-72030000D01*
X83650000Y-72790000D02*
X77650000Y-72790000D01*
X86310000Y-73680000D02*
X83650000Y-73680000D01*
X86707071Y-74570000D02*
X86310000Y-74570000D01*
X86707071Y-75330000D02*
X86310000Y-75330000D01*
X77650000Y-74570000D02*
X83650000Y-74570000D01*
X77650000Y-75330000D02*
X77650000Y-74570000D01*
X83650000Y-75330000D02*
X77650000Y-75330000D01*
X86310000Y-76220000D02*
X83650000Y-76220000D01*
X86707071Y-77110000D02*
X86310000Y-77110000D01*
X86707071Y-77870000D02*
X86310000Y-77870000D01*
X77650000Y-77110000D02*
X83650000Y-77110000D01*
X77650000Y-77870000D02*
X77650000Y-77110000D01*
X83650000Y-77870000D02*
X77650000Y-77870000D01*
X86310000Y-78760000D02*
X83650000Y-78760000D01*
X86707071Y-79650000D02*
X86310000Y-79650000D01*
X86707071Y-80410000D02*
X86310000Y-80410000D01*
X77650000Y-79650000D02*
X83650000Y-79650000D01*
X77650000Y-80410000D02*
X77650000Y-79650000D01*
X83650000Y-80410000D02*
X77650000Y-80410000D01*
X86310000Y-81300000D02*
X83650000Y-81300000D01*
X86707071Y-82190000D02*
X86310000Y-82190000D01*
X86707071Y-82950000D02*
X86310000Y-82950000D01*
X77650000Y-82190000D02*
X83650000Y-82190000D01*
X77650000Y-82950000D02*
X77650000Y-82190000D01*
X83650000Y-82950000D02*
X77650000Y-82950000D01*
X86310000Y-83840000D02*
X83650000Y-83840000D01*
X86707071Y-84730000D02*
X86310000Y-84730000D01*
X86707071Y-85490000D02*
X86310000Y-85490000D01*
X77650000Y-84730000D02*
X83650000Y-84730000D01*
X77650000Y-85490000D02*
X77650000Y-84730000D01*
X83650000Y-85490000D02*
X77650000Y-85490000D01*
X86310000Y-86380000D02*
X83650000Y-86380000D01*
X86707071Y-87270000D02*
X86310000Y-87270000D01*
X86707071Y-88030000D02*
X86310000Y-88030000D01*
X77650000Y-87270000D02*
X83650000Y-87270000D01*
X77650000Y-88030000D02*
X77650000Y-87270000D01*
X83650000Y-88030000D02*
X77650000Y-88030000D01*
X86310000Y-88920000D02*
X83650000Y-88920000D01*
X86640000Y-89810000D02*
X86310000Y-89810000D01*
X86640000Y-90570000D02*
X86310000Y-90570000D01*
X83650000Y-89910000D02*
X77650000Y-89910000D01*
X83650000Y-90030000D02*
X77650000Y-90030000D01*
X83650000Y-90150000D02*
X77650000Y-90150000D01*
X83650000Y-90270000D02*
X77650000Y-90270000D01*
X83650000Y-90390000D02*
X77650000Y-90390000D01*
X83650000Y-90510000D02*
X77650000Y-90510000D01*
X77650000Y-89810000D02*
X83650000Y-89810000D01*
X77650000Y-90570000D02*
X77650000Y-89810000D01*
X83650000Y-90570000D02*
X77650000Y-90570000D01*
X83650000Y-91520000D02*
X86310000Y-91520000D01*
X83650000Y-60920000D02*
X83650000Y-91520000D01*
X86310000Y-60920000D02*
X83650000Y-60920000D01*
X86310000Y-91520000D02*
X86310000Y-60920000D01*
X110210000Y-101261252D02*
X110210000Y-100738748D01*
X108790000Y-101261252D02*
X108790000Y-100738748D01*
X114760000Y-109080000D02*
X113300000Y-109080000D01*
X114760000Y-105920000D02*
X112600000Y-105920000D01*
X114760000Y-105920000D02*
X114760000Y-106850000D01*
X114760000Y-109080000D02*
X114760000Y-108150000D01*
X84420000Y-96260000D02*
X84420000Y-94800000D01*
X87580000Y-96260000D02*
X87580000Y-94100000D01*
X87580000Y-96260000D02*
X86650000Y-96260000D01*
X84420000Y-96260000D02*
X85350000Y-96260000D01*
X98140000Y-71960000D02*
X101000000Y-71960000D01*
X98140000Y-70040000D02*
X98140000Y-71960000D01*
X101000000Y-70040000D02*
X98140000Y-70040000D01*
X103790000Y-107238748D02*
X103790000Y-107761252D01*
X105210000Y-107238748D02*
X105210000Y-107761252D01*
X106290000Y-107238748D02*
X106290000Y-107761252D01*
X107710000Y-107238748D02*
X107710000Y-107761252D01*
X93710000Y-97261252D02*
X93710000Y-96738748D01*
X92290000Y-97261252D02*
X92290000Y-96738748D01*
X103540000Y-83488748D02*
X103540000Y-84011252D01*
X104960000Y-83488748D02*
X104960000Y-84011252D01*
D10*
X93357142Y-69702380D02*
X93023809Y-69226190D01*
X92785714Y-69702380D02*
X92785714Y-68702380D01*
X93166666Y-68702380D01*
X93261904Y-68750000D01*
X93309523Y-68797619D01*
X93357142Y-68892857D01*
X93357142Y-69035714D01*
X93309523Y-69130952D01*
X93261904Y-69178571D01*
X93166666Y-69226190D01*
X92785714Y-69226190D01*
X94309523Y-69702380D02*
X93738095Y-69702380D01*
X94023809Y-69702380D02*
X94023809Y-68702380D01*
X93928571Y-68845238D01*
X93833333Y-68940476D01*
X93738095Y-68988095D01*
X95214285Y-68702380D02*
X94738095Y-68702380D01*
X94690476Y-69178571D01*
X94738095Y-69130952D01*
X94833333Y-69083333D01*
X95071428Y-69083333D01*
X95166666Y-69130952D01*
X95214285Y-69178571D01*
X95261904Y-69273809D01*
X95261904Y-69511904D01*
X95214285Y-69607142D01*
X95166666Y-69654761D01*
X95071428Y-69702380D01*
X94833333Y-69702380D01*
X94738095Y-69654761D01*
X94690476Y-69607142D01*
X93357142Y-73302380D02*
X93023809Y-72826190D01*
X92785714Y-73302380D02*
X92785714Y-72302380D01*
X93166666Y-72302380D01*
X93261904Y-72350000D01*
X93309523Y-72397619D01*
X93357142Y-72492857D01*
X93357142Y-72635714D01*
X93309523Y-72730952D01*
X93261904Y-72778571D01*
X93166666Y-72826190D01*
X92785714Y-72826190D01*
X94309523Y-73302380D02*
X93738095Y-73302380D01*
X94023809Y-73302380D02*
X94023809Y-72302380D01*
X93928571Y-72445238D01*
X93833333Y-72540476D01*
X93738095Y-72588095D01*
X95166666Y-72635714D02*
X95166666Y-73302380D01*
X94928571Y-72254761D02*
X94690476Y-72969047D01*
X95309523Y-72969047D01*
X102802380Y-63617857D02*
X102326190Y-63951190D01*
X102802380Y-64189285D02*
X101802380Y-64189285D01*
X101802380Y-63808333D01*
X101850000Y-63713095D01*
X101897619Y-63665476D01*
X101992857Y-63617857D01*
X102135714Y-63617857D01*
X102230952Y-63665476D01*
X102278571Y-63713095D01*
X102326190Y-63808333D01*
X102326190Y-64189285D01*
X102802380Y-62665476D02*
X102802380Y-63236904D01*
X102802380Y-62951190D02*
X101802380Y-62951190D01*
X101945238Y-63046428D01*
X102040476Y-63141666D01*
X102088095Y-63236904D01*
X101802380Y-62332142D02*
X101802380Y-61713095D01*
X102183333Y-62046428D01*
X102183333Y-61903571D01*
X102230952Y-61808333D01*
X102278571Y-61760714D01*
X102373809Y-61713095D01*
X102611904Y-61713095D01*
X102707142Y-61760714D01*
X102754761Y-61808333D01*
X102802380Y-61903571D01*
X102802380Y-62189285D01*
X102754761Y-62284523D01*
X102707142Y-62332142D01*
X102802380Y-67642857D02*
X102326190Y-67976190D01*
X102802380Y-68214285D02*
X101802380Y-68214285D01*
X101802380Y-67833333D01*
X101850000Y-67738095D01*
X101897619Y-67690476D01*
X101992857Y-67642857D01*
X102135714Y-67642857D01*
X102230952Y-67690476D01*
X102278571Y-67738095D01*
X102326190Y-67833333D01*
X102326190Y-68214285D01*
X102802380Y-66690476D02*
X102802380Y-67261904D01*
X102802380Y-66976190D02*
X101802380Y-66976190D01*
X101945238Y-67071428D01*
X102040476Y-67166666D01*
X102088095Y-67261904D01*
X101897619Y-66309523D02*
X101850000Y-66261904D01*
X101802380Y-66166666D01*
X101802380Y-65928571D01*
X101850000Y-65833333D01*
X101897619Y-65785714D01*
X101992857Y-65738095D01*
X102088095Y-65738095D01*
X102230952Y-65785714D01*
X102802380Y-66357142D01*
X102802380Y-65738095D01*
X87166666Y-119952380D02*
X87166666Y-120666666D01*
X87119047Y-120809523D01*
X87023809Y-120904761D01*
X86880952Y-120952380D01*
X86785714Y-120952380D01*
X87547619Y-119952380D02*
X88166666Y-119952380D01*
X87833333Y-120333333D01*
X87976190Y-120333333D01*
X88071428Y-120380952D01*
X88119047Y-120428571D01*
X88166666Y-120523809D01*
X88166666Y-120761904D01*
X88119047Y-120857142D01*
X88071428Y-120904761D01*
X87976190Y-120952380D01*
X87690476Y-120952380D01*
X87595238Y-120904761D01*
X87547619Y-120857142D01*
X96802380Y-94666666D02*
X96326190Y-95000000D01*
X96802380Y-95238095D02*
X95802380Y-95238095D01*
X95802380Y-94857142D01*
X95850000Y-94761904D01*
X95897619Y-94714285D01*
X95992857Y-94666666D01*
X96135714Y-94666666D01*
X96230952Y-94714285D01*
X96278571Y-94761904D01*
X96326190Y-94857142D01*
X96326190Y-95238095D01*
X95897619Y-94285714D02*
X95850000Y-94238095D01*
X95802380Y-94142857D01*
X95802380Y-93904761D01*
X95850000Y-93809523D01*
X95897619Y-93761904D01*
X95992857Y-93714285D01*
X96088095Y-93714285D01*
X96230952Y-93761904D01*
X96802380Y-94333333D01*
X96802380Y-93714285D01*
X105352380Y-114761904D02*
X106161904Y-114761904D01*
X106257142Y-114714285D01*
X106304761Y-114666666D01*
X106352380Y-114571428D01*
X106352380Y-114380952D01*
X106304761Y-114285714D01*
X106257142Y-114238095D01*
X106161904Y-114190476D01*
X105352380Y-114190476D01*
X105447619Y-113761904D02*
X105400000Y-113714285D01*
X105352380Y-113619047D01*
X105352380Y-113380952D01*
X105400000Y-113285714D01*
X105447619Y-113238095D01*
X105542857Y-113190476D01*
X105638095Y-113190476D01*
X105780952Y-113238095D01*
X106352380Y-113809523D01*
X106352380Y-113190476D01*
X96238095Y-77102380D02*
X96238095Y-77911904D01*
X96285714Y-78007142D01*
X96333333Y-78054761D01*
X96428571Y-78102380D01*
X96619047Y-78102380D01*
X96714285Y-78054761D01*
X96761904Y-78007142D01*
X96809523Y-77911904D01*
X96809523Y-77102380D01*
X97809523Y-78102380D02*
X97238095Y-78102380D01*
X97523809Y-78102380D02*
X97523809Y-77102380D01*
X97428571Y-77245238D01*
X97333333Y-77340476D01*
X97238095Y-77388095D01*
X113802380Y-113642857D02*
X113326190Y-113976190D01*
X113802380Y-114214285D02*
X112802380Y-114214285D01*
X112802380Y-113833333D01*
X112850000Y-113738095D01*
X112897619Y-113690476D01*
X112992857Y-113642857D01*
X113135714Y-113642857D01*
X113230952Y-113690476D01*
X113278571Y-113738095D01*
X113326190Y-113833333D01*
X113326190Y-114214285D01*
X113802380Y-112690476D02*
X113802380Y-113261904D01*
X113802380Y-112976190D02*
X112802380Y-112976190D01*
X112945238Y-113071428D01*
X113040476Y-113166666D01*
X113088095Y-113261904D01*
X113802380Y-111738095D02*
X113802380Y-112309523D01*
X113802380Y-112023809D02*
X112802380Y-112023809D01*
X112945238Y-112119047D01*
X113040476Y-112214285D01*
X113088095Y-112309523D01*
X87452380Y-114642857D02*
X86976190Y-114976190D01*
X87452380Y-115214285D02*
X86452380Y-115214285D01*
X86452380Y-114833333D01*
X86500000Y-114738095D01*
X86547619Y-114690476D01*
X86642857Y-114642857D01*
X86785714Y-114642857D01*
X86880952Y-114690476D01*
X86928571Y-114738095D01*
X86976190Y-114833333D01*
X86976190Y-115214285D01*
X87452380Y-113690476D02*
X87452380Y-114261904D01*
X87452380Y-113976190D02*
X86452380Y-113976190D01*
X86595238Y-114071428D01*
X86690476Y-114166666D01*
X86738095Y-114261904D01*
X86452380Y-113071428D02*
X86452380Y-112976190D01*
X86500000Y-112880952D01*
X86547619Y-112833333D01*
X86642857Y-112785714D01*
X86833333Y-112738095D01*
X87071428Y-112738095D01*
X87261904Y-112785714D01*
X87357142Y-112833333D01*
X87404761Y-112880952D01*
X87452380Y-112976190D01*
X87452380Y-113071428D01*
X87404761Y-113166666D01*
X87357142Y-113214285D01*
X87261904Y-113261904D01*
X87071428Y-113309523D01*
X86833333Y-113309523D01*
X86642857Y-113261904D01*
X86547619Y-113214285D01*
X86500000Y-113166666D01*
X86452380Y-113071428D01*
X91802380Y-107191666D02*
X91326190Y-107525000D01*
X91802380Y-107763095D02*
X90802380Y-107763095D01*
X90802380Y-107382142D01*
X90850000Y-107286904D01*
X90897619Y-107239285D01*
X90992857Y-107191666D01*
X91135714Y-107191666D01*
X91230952Y-107239285D01*
X91278571Y-107286904D01*
X91326190Y-107382142D01*
X91326190Y-107763095D01*
X91802380Y-106715476D02*
X91802380Y-106525000D01*
X91754761Y-106429761D01*
X91707142Y-106382142D01*
X91564285Y-106286904D01*
X91373809Y-106239285D01*
X90992857Y-106239285D01*
X90897619Y-106286904D01*
X90850000Y-106334523D01*
X90802380Y-106429761D01*
X90802380Y-106620238D01*
X90850000Y-106715476D01*
X90897619Y-106763095D01*
X90992857Y-106810714D01*
X91230952Y-106810714D01*
X91326190Y-106763095D01*
X91373809Y-106715476D01*
X91421428Y-106620238D01*
X91421428Y-106429761D01*
X91373809Y-106334523D01*
X91326190Y-106286904D01*
X91230952Y-106239285D01*
X113833333Y-101952380D02*
X113500000Y-101476190D01*
X113261904Y-101952380D02*
X113261904Y-100952380D01*
X113642857Y-100952380D01*
X113738095Y-101000000D01*
X113785714Y-101047619D01*
X113833333Y-101142857D01*
X113833333Y-101285714D01*
X113785714Y-101380952D01*
X113738095Y-101428571D01*
X113642857Y-101476190D01*
X113261904Y-101476190D01*
X114404761Y-101380952D02*
X114309523Y-101333333D01*
X114261904Y-101285714D01*
X114214285Y-101190476D01*
X114214285Y-101142857D01*
X114261904Y-101047619D01*
X114309523Y-101000000D01*
X114404761Y-100952380D01*
X114595238Y-100952380D01*
X114690476Y-101000000D01*
X114738095Y-101047619D01*
X114785714Y-101142857D01*
X114785714Y-101190476D01*
X114738095Y-101285714D01*
X114690476Y-101333333D01*
X114595238Y-101380952D01*
X114404761Y-101380952D01*
X114309523Y-101428571D01*
X114261904Y-101476190D01*
X114214285Y-101571428D01*
X114214285Y-101761904D01*
X114261904Y-101857142D01*
X114309523Y-101904761D01*
X114404761Y-101952380D01*
X114595238Y-101952380D01*
X114690476Y-101904761D01*
X114738095Y-101857142D01*
X114785714Y-101761904D01*
X114785714Y-101571428D01*
X114738095Y-101476190D01*
X114690476Y-101428571D01*
X114595238Y-101380952D01*
X87452380Y-102166666D02*
X86976190Y-102500000D01*
X87452380Y-102738095D02*
X86452380Y-102738095D01*
X86452380Y-102357142D01*
X86500000Y-102261904D01*
X86547619Y-102214285D01*
X86642857Y-102166666D01*
X86785714Y-102166666D01*
X86880952Y-102214285D01*
X86928571Y-102261904D01*
X86976190Y-102357142D01*
X86976190Y-102738095D01*
X86452380Y-101833333D02*
X86452380Y-101166666D01*
X87452380Y-101595238D01*
X94952380Y-102166666D02*
X94476190Y-102500000D01*
X94952380Y-102738095D02*
X93952380Y-102738095D01*
X93952380Y-102357142D01*
X94000000Y-102261904D01*
X94047619Y-102214285D01*
X94142857Y-102166666D01*
X94285714Y-102166666D01*
X94380952Y-102214285D01*
X94428571Y-102261904D01*
X94476190Y-102357142D01*
X94476190Y-102738095D01*
X93952380Y-101309523D02*
X93952380Y-101500000D01*
X94000000Y-101595238D01*
X94047619Y-101642857D01*
X94190476Y-101738095D01*
X94380952Y-101785714D01*
X94761904Y-101785714D01*
X94857142Y-101738095D01*
X94904761Y-101690476D01*
X94952380Y-101595238D01*
X94952380Y-101404761D01*
X94904761Y-101309523D01*
X94857142Y-101261904D01*
X94761904Y-101214285D01*
X94523809Y-101214285D01*
X94428571Y-101261904D01*
X94380952Y-101309523D01*
X94333333Y-101404761D01*
X94333333Y-101595238D01*
X94380952Y-101690476D01*
X94428571Y-101738095D01*
X94523809Y-101785714D01*
X88802380Y-102166666D02*
X88326190Y-102500000D01*
X88802380Y-102738095D02*
X87802380Y-102738095D01*
X87802380Y-102357142D01*
X87850000Y-102261904D01*
X87897619Y-102214285D01*
X87992857Y-102166666D01*
X88135714Y-102166666D01*
X88230952Y-102214285D01*
X88278571Y-102261904D01*
X88326190Y-102357142D01*
X88326190Y-102738095D01*
X87802380Y-101261904D02*
X87802380Y-101738095D01*
X88278571Y-101785714D01*
X88230952Y-101738095D01*
X88183333Y-101642857D01*
X88183333Y-101404761D01*
X88230952Y-101309523D01*
X88278571Y-101261904D01*
X88373809Y-101214285D01*
X88611904Y-101214285D01*
X88707142Y-101261904D01*
X88754761Y-101309523D01*
X88802380Y-101404761D01*
X88802380Y-101642857D01*
X88754761Y-101738095D01*
X88707142Y-101785714D01*
X86802380Y-108666666D02*
X86326190Y-109000000D01*
X86802380Y-109238095D02*
X85802380Y-109238095D01*
X85802380Y-108857142D01*
X85850000Y-108761904D01*
X85897619Y-108714285D01*
X85992857Y-108666666D01*
X86135714Y-108666666D01*
X86230952Y-108714285D01*
X86278571Y-108761904D01*
X86326190Y-108857142D01*
X86326190Y-109238095D01*
X86135714Y-107809523D02*
X86802380Y-107809523D01*
X85754761Y-108047619D02*
X86469047Y-108285714D01*
X86469047Y-107666666D01*
X98452380Y-102166666D02*
X97976190Y-102500000D01*
X98452380Y-102738095D02*
X97452380Y-102738095D01*
X97452380Y-102357142D01*
X97500000Y-102261904D01*
X97547619Y-102214285D01*
X97642857Y-102166666D01*
X97785714Y-102166666D01*
X97880952Y-102214285D01*
X97928571Y-102261904D01*
X97976190Y-102357142D01*
X97976190Y-102738095D01*
X97452380Y-101833333D02*
X97452380Y-101214285D01*
X97833333Y-101547619D01*
X97833333Y-101404761D01*
X97880952Y-101309523D01*
X97928571Y-101261904D01*
X98023809Y-101214285D01*
X98261904Y-101214285D01*
X98357142Y-101261904D01*
X98404761Y-101309523D01*
X98452380Y-101404761D01*
X98452380Y-101690476D01*
X98404761Y-101785714D01*
X98357142Y-101833333D01*
X99833333Y-73452380D02*
X99500000Y-72976190D01*
X99261904Y-73452380D02*
X99261904Y-72452380D01*
X99642857Y-72452380D01*
X99738095Y-72500000D01*
X99785714Y-72547619D01*
X99833333Y-72642857D01*
X99833333Y-72785714D01*
X99785714Y-72880952D01*
X99738095Y-72928571D01*
X99642857Y-72976190D01*
X99261904Y-72976190D01*
X100785714Y-73452380D02*
X100214285Y-73452380D01*
X100500000Y-73452380D02*
X100500000Y-72452380D01*
X100404761Y-72595238D01*
X100309523Y-72690476D01*
X100214285Y-72738095D01*
X110666666Y-91952380D02*
X110666666Y-92666666D01*
X110619047Y-92809523D01*
X110523809Y-92904761D01*
X110380952Y-92952380D01*
X110285714Y-92952380D01*
X111095238Y-92047619D02*
X111142857Y-92000000D01*
X111238095Y-91952380D01*
X111476190Y-91952380D01*
X111571428Y-92000000D01*
X111619047Y-92047619D01*
X111666666Y-92142857D01*
X111666666Y-92238095D01*
X111619047Y-92380952D01*
X111047619Y-92952380D01*
X111666666Y-92952380D01*
X89666666Y-91952380D02*
X89666666Y-92666666D01*
X89619047Y-92809523D01*
X89523809Y-92904761D01*
X89380952Y-92952380D01*
X89285714Y-92952380D01*
X90666666Y-92952380D02*
X90095238Y-92952380D01*
X90380952Y-92952380D02*
X90380952Y-91952380D01*
X90285714Y-92095238D01*
X90190476Y-92190476D01*
X90095238Y-92238095D01*
X107778571Y-101833333D02*
X107778571Y-102166666D01*
X108302380Y-102166666D02*
X107302380Y-102166666D01*
X107302380Y-101690476D01*
X107778571Y-100976190D02*
X107826190Y-100833333D01*
X107873809Y-100785714D01*
X107969047Y-100738095D01*
X108111904Y-100738095D01*
X108207142Y-100785714D01*
X108254761Y-100833333D01*
X108302380Y-100928571D01*
X108302380Y-101309523D01*
X107302380Y-101309523D01*
X107302380Y-100976190D01*
X107350000Y-100880952D01*
X107397619Y-100833333D01*
X107492857Y-100785714D01*
X107588095Y-100785714D01*
X107683333Y-100833333D01*
X107730952Y-100880952D01*
X107778571Y-100976190D01*
X107778571Y-101309523D01*
X108302380Y-99785714D02*
X108302380Y-100357142D01*
X108302380Y-100071428D02*
X107302380Y-100071428D01*
X107445238Y-100166666D01*
X107540476Y-100261904D01*
X107588095Y-100357142D01*
X113261904Y-110452380D02*
X113261904Y-109452380D01*
X113500000Y-109452380D01*
X113642857Y-109500000D01*
X113738095Y-109595238D01*
X113785714Y-109690476D01*
X113833333Y-109880952D01*
X113833333Y-110023809D01*
X113785714Y-110214285D01*
X113738095Y-110309523D01*
X113642857Y-110404761D01*
X113500000Y-110452380D01*
X113261904Y-110452380D01*
X114166666Y-109452380D02*
X114785714Y-109452380D01*
X114452380Y-109833333D01*
X114595238Y-109833333D01*
X114690476Y-109880952D01*
X114738095Y-109928571D01*
X114785714Y-110023809D01*
X114785714Y-110261904D01*
X114738095Y-110357142D01*
X114690476Y-110404761D01*
X114595238Y-110452380D01*
X114309523Y-110452380D01*
X114214285Y-110404761D01*
X114166666Y-110357142D01*
X88952380Y-96238095D02*
X87952380Y-96238095D01*
X87952380Y-96000000D01*
X88000000Y-95857142D01*
X88095238Y-95761904D01*
X88190476Y-95714285D01*
X88380952Y-95666666D01*
X88523809Y-95666666D01*
X88714285Y-95714285D01*
X88809523Y-95761904D01*
X88904761Y-95857142D01*
X88952380Y-96000000D01*
X88952380Y-96238095D01*
X88047619Y-95285714D02*
X88000000Y-95238095D01*
X87952380Y-95142857D01*
X87952380Y-94904761D01*
X88000000Y-94809523D01*
X88047619Y-94761904D01*
X88142857Y-94714285D01*
X88238095Y-94714285D01*
X88380952Y-94761904D01*
X88952380Y-95333333D01*
X88952380Y-94714285D01*
X99261904Y-69702380D02*
X99261904Y-68702380D01*
X99500000Y-68702380D01*
X99642857Y-68750000D01*
X99738095Y-68845238D01*
X99785714Y-68940476D01*
X99833333Y-69130952D01*
X99833333Y-69273809D01*
X99785714Y-69464285D01*
X99738095Y-69559523D01*
X99642857Y-69654761D01*
X99500000Y-69702380D01*
X99261904Y-69702380D01*
X100785714Y-69702380D02*
X100214285Y-69702380D01*
X100500000Y-69702380D02*
X100500000Y-68702380D01*
X100404761Y-68845238D01*
X100309523Y-68940476D01*
X100214285Y-68988095D01*
X103357142Y-107666666D02*
X103404761Y-107714285D01*
X103452380Y-107857142D01*
X103452380Y-107952380D01*
X103404761Y-108095238D01*
X103309523Y-108190476D01*
X103214285Y-108238095D01*
X103023809Y-108285714D01*
X102880952Y-108285714D01*
X102690476Y-108238095D01*
X102595238Y-108190476D01*
X102500000Y-108095238D01*
X102452380Y-107952380D01*
X102452380Y-107857142D01*
X102500000Y-107714285D01*
X102547619Y-107666666D01*
X102785714Y-106809523D02*
X103452380Y-106809523D01*
X102404761Y-107047619D02*
X103119047Y-107285714D01*
X103119047Y-106666666D01*
X109007142Y-107666666D02*
X109054761Y-107714285D01*
X109102380Y-107857142D01*
X109102380Y-107952380D01*
X109054761Y-108095238D01*
X108959523Y-108190476D01*
X108864285Y-108238095D01*
X108673809Y-108285714D01*
X108530952Y-108285714D01*
X108340476Y-108238095D01*
X108245238Y-108190476D01*
X108150000Y-108095238D01*
X108102380Y-107952380D01*
X108102380Y-107857142D01*
X108150000Y-107714285D01*
X108197619Y-107666666D01*
X108102380Y-107333333D02*
X108102380Y-106714285D01*
X108483333Y-107047619D01*
X108483333Y-106904761D01*
X108530952Y-106809523D01*
X108578571Y-106761904D01*
X108673809Y-106714285D01*
X108911904Y-106714285D01*
X109007142Y-106761904D01*
X109054761Y-106809523D01*
X109102380Y-106904761D01*
X109102380Y-107190476D01*
X109054761Y-107285714D01*
X109007142Y-107333333D01*
X91707142Y-97166666D02*
X91754761Y-97214285D01*
X91802380Y-97357142D01*
X91802380Y-97452380D01*
X91754761Y-97595238D01*
X91659523Y-97690476D01*
X91564285Y-97738095D01*
X91373809Y-97785714D01*
X91230952Y-97785714D01*
X91040476Y-97738095D01*
X90945238Y-97690476D01*
X90850000Y-97595238D01*
X90802380Y-97452380D01*
X90802380Y-97357142D01*
X90850000Y-97214285D01*
X90897619Y-97166666D01*
X90897619Y-96785714D02*
X90850000Y-96738095D01*
X90802380Y-96642857D01*
X90802380Y-96404761D01*
X90850000Y-96309523D01*
X90897619Y-96261904D01*
X90992857Y-96214285D01*
X91088095Y-96214285D01*
X91230952Y-96261904D01*
X91802380Y-96833333D01*
X91802380Y-96214285D01*
X104857142Y-87166666D02*
X104904761Y-87214285D01*
X104952380Y-87357142D01*
X104952380Y-87452380D01*
X104904761Y-87595238D01*
X104809523Y-87690476D01*
X104714285Y-87738095D01*
X104523809Y-87785714D01*
X104380952Y-87785714D01*
X104190476Y-87738095D01*
X104095238Y-87690476D01*
X104000000Y-87595238D01*
X103952380Y-87452380D01*
X103952380Y-87357142D01*
X104000000Y-87214285D01*
X104047619Y-87166666D01*
X104952380Y-86214285D02*
X104952380Y-86785714D01*
X104952380Y-86500000D02*
X103952380Y-86500000D01*
X104095238Y-86595238D01*
X104190476Y-86690476D01*
X104238095Y-86785714D01*
M02*
