G04 #@! TF.GenerationSoftware,KiCad,Pcbnew,5.1.5+dfsg1-2build2*
G04 #@! TF.CreationDate,2021-04-04T02:10:43+02:00*
G04 #@! TF.ProjectId,t100-dcmotor,74313030-2d64-4636-9d6f-746f722e6b69,rev?*
G04 #@! TF.SameCoordinates,Original*
G04 #@! TF.FileFunction,Paste,Top*
G04 #@! TF.FilePolarity,Positive*
%FSLAX46Y46*%
G04 Gerber Fmt 4.6, Leading zero omitted, Abs format (unit mm)*
G04 Created by KiCad (PCBNEW 5.1.5+dfsg1-2build2) date 2021-04-04 02:10:43*
%MOMM*%
%LPD*%
G04 APERTURE LIST*
%ADD10R,0.900000X0.800000*%
%ADD11C,0.100000*%
%ADD12R,0.800000X0.900000*%
G04 APERTURE END LIST*
D10*
X91000000Y-95500000D03*
X89000000Y-96450000D03*
X89000000Y-94550000D03*
D11*
G36*
X95374505Y-70301204D02*
G01*
X95398773Y-70304804D01*
X95422572Y-70310765D01*
X95445671Y-70319030D01*
X95467850Y-70329520D01*
X95488893Y-70342132D01*
X95508599Y-70356747D01*
X95526777Y-70373223D01*
X95543253Y-70391401D01*
X95557868Y-70411107D01*
X95570480Y-70432150D01*
X95580970Y-70454329D01*
X95589235Y-70477428D01*
X95595196Y-70501227D01*
X95598796Y-70525495D01*
X95600000Y-70549999D01*
X95600000Y-71450001D01*
X95598796Y-71474505D01*
X95595196Y-71498773D01*
X95589235Y-71522572D01*
X95580970Y-71545671D01*
X95570480Y-71567850D01*
X95557868Y-71588893D01*
X95543253Y-71608599D01*
X95526777Y-71626777D01*
X95508599Y-71643253D01*
X95488893Y-71657868D01*
X95467850Y-71670480D01*
X95445671Y-71680970D01*
X95422572Y-71689235D01*
X95398773Y-71695196D01*
X95374505Y-71698796D01*
X95350001Y-71700000D01*
X94699999Y-71700000D01*
X94675495Y-71698796D01*
X94651227Y-71695196D01*
X94627428Y-71689235D01*
X94604329Y-71680970D01*
X94582150Y-71670480D01*
X94561107Y-71657868D01*
X94541401Y-71643253D01*
X94523223Y-71626777D01*
X94506747Y-71608599D01*
X94492132Y-71588893D01*
X94479520Y-71567850D01*
X94469030Y-71545671D01*
X94460765Y-71522572D01*
X94454804Y-71498773D01*
X94451204Y-71474505D01*
X94450000Y-71450001D01*
X94450000Y-70549999D01*
X94451204Y-70525495D01*
X94454804Y-70501227D01*
X94460765Y-70477428D01*
X94469030Y-70454329D01*
X94479520Y-70432150D01*
X94492132Y-70411107D01*
X94506747Y-70391401D01*
X94523223Y-70373223D01*
X94541401Y-70356747D01*
X94561107Y-70342132D01*
X94582150Y-70329520D01*
X94604329Y-70319030D01*
X94627428Y-70310765D01*
X94651227Y-70304804D01*
X94675495Y-70301204D01*
X94699999Y-70300000D01*
X95350001Y-70300000D01*
X95374505Y-70301204D01*
G37*
G36*
X93324505Y-70301204D02*
G01*
X93348773Y-70304804D01*
X93372572Y-70310765D01*
X93395671Y-70319030D01*
X93417850Y-70329520D01*
X93438893Y-70342132D01*
X93458599Y-70356747D01*
X93476777Y-70373223D01*
X93493253Y-70391401D01*
X93507868Y-70411107D01*
X93520480Y-70432150D01*
X93530970Y-70454329D01*
X93539235Y-70477428D01*
X93545196Y-70501227D01*
X93548796Y-70525495D01*
X93550000Y-70549999D01*
X93550000Y-71450001D01*
X93548796Y-71474505D01*
X93545196Y-71498773D01*
X93539235Y-71522572D01*
X93530970Y-71545671D01*
X93520480Y-71567850D01*
X93507868Y-71588893D01*
X93493253Y-71608599D01*
X93476777Y-71626777D01*
X93458599Y-71643253D01*
X93438893Y-71657868D01*
X93417850Y-71670480D01*
X93395671Y-71680970D01*
X93372572Y-71689235D01*
X93348773Y-71695196D01*
X93324505Y-71698796D01*
X93300001Y-71700000D01*
X92649999Y-71700000D01*
X92625495Y-71698796D01*
X92601227Y-71695196D01*
X92577428Y-71689235D01*
X92554329Y-71680970D01*
X92532150Y-71670480D01*
X92511107Y-71657868D01*
X92491401Y-71643253D01*
X92473223Y-71626777D01*
X92456747Y-71608599D01*
X92442132Y-71588893D01*
X92429520Y-71567850D01*
X92419030Y-71545671D01*
X92410765Y-71522572D01*
X92404804Y-71498773D01*
X92401204Y-71474505D01*
X92400000Y-71450001D01*
X92400000Y-70549999D01*
X92401204Y-70525495D01*
X92404804Y-70501227D01*
X92410765Y-70477428D01*
X92419030Y-70454329D01*
X92429520Y-70432150D01*
X92442132Y-70411107D01*
X92456747Y-70391401D01*
X92473223Y-70373223D01*
X92491401Y-70356747D01*
X92511107Y-70342132D01*
X92532150Y-70329520D01*
X92554329Y-70319030D01*
X92577428Y-70310765D01*
X92601227Y-70304804D01*
X92625495Y-70301204D01*
X92649999Y-70300000D01*
X93300001Y-70300000D01*
X93324505Y-70301204D01*
G37*
G36*
X95374505Y-73801204D02*
G01*
X95398773Y-73804804D01*
X95422572Y-73810765D01*
X95445671Y-73819030D01*
X95467850Y-73829520D01*
X95488893Y-73842132D01*
X95508599Y-73856747D01*
X95526777Y-73873223D01*
X95543253Y-73891401D01*
X95557868Y-73911107D01*
X95570480Y-73932150D01*
X95580970Y-73954329D01*
X95589235Y-73977428D01*
X95595196Y-74001227D01*
X95598796Y-74025495D01*
X95600000Y-74049999D01*
X95600000Y-74950001D01*
X95598796Y-74974505D01*
X95595196Y-74998773D01*
X95589235Y-75022572D01*
X95580970Y-75045671D01*
X95570480Y-75067850D01*
X95557868Y-75088893D01*
X95543253Y-75108599D01*
X95526777Y-75126777D01*
X95508599Y-75143253D01*
X95488893Y-75157868D01*
X95467850Y-75170480D01*
X95445671Y-75180970D01*
X95422572Y-75189235D01*
X95398773Y-75195196D01*
X95374505Y-75198796D01*
X95350001Y-75200000D01*
X94699999Y-75200000D01*
X94675495Y-75198796D01*
X94651227Y-75195196D01*
X94627428Y-75189235D01*
X94604329Y-75180970D01*
X94582150Y-75170480D01*
X94561107Y-75157868D01*
X94541401Y-75143253D01*
X94523223Y-75126777D01*
X94506747Y-75108599D01*
X94492132Y-75088893D01*
X94479520Y-75067850D01*
X94469030Y-75045671D01*
X94460765Y-75022572D01*
X94454804Y-74998773D01*
X94451204Y-74974505D01*
X94450000Y-74950001D01*
X94450000Y-74049999D01*
X94451204Y-74025495D01*
X94454804Y-74001227D01*
X94460765Y-73977428D01*
X94469030Y-73954329D01*
X94479520Y-73932150D01*
X94492132Y-73911107D01*
X94506747Y-73891401D01*
X94523223Y-73873223D01*
X94541401Y-73856747D01*
X94561107Y-73842132D01*
X94582150Y-73829520D01*
X94604329Y-73819030D01*
X94627428Y-73810765D01*
X94651227Y-73804804D01*
X94675495Y-73801204D01*
X94699999Y-73800000D01*
X95350001Y-73800000D01*
X95374505Y-73801204D01*
G37*
G36*
X93324505Y-73801204D02*
G01*
X93348773Y-73804804D01*
X93372572Y-73810765D01*
X93395671Y-73819030D01*
X93417850Y-73829520D01*
X93438893Y-73842132D01*
X93458599Y-73856747D01*
X93476777Y-73873223D01*
X93493253Y-73891401D01*
X93507868Y-73911107D01*
X93520480Y-73932150D01*
X93530970Y-73954329D01*
X93539235Y-73977428D01*
X93545196Y-74001227D01*
X93548796Y-74025495D01*
X93550000Y-74049999D01*
X93550000Y-74950001D01*
X93548796Y-74974505D01*
X93545196Y-74998773D01*
X93539235Y-75022572D01*
X93530970Y-75045671D01*
X93520480Y-75067850D01*
X93507868Y-75088893D01*
X93493253Y-75108599D01*
X93476777Y-75126777D01*
X93458599Y-75143253D01*
X93438893Y-75157868D01*
X93417850Y-75170480D01*
X93395671Y-75180970D01*
X93372572Y-75189235D01*
X93348773Y-75195196D01*
X93324505Y-75198796D01*
X93300001Y-75200000D01*
X92649999Y-75200000D01*
X92625495Y-75198796D01*
X92601227Y-75195196D01*
X92577428Y-75189235D01*
X92554329Y-75180970D01*
X92532150Y-75170480D01*
X92511107Y-75157868D01*
X92491401Y-75143253D01*
X92473223Y-75126777D01*
X92456747Y-75108599D01*
X92442132Y-75088893D01*
X92429520Y-75067850D01*
X92419030Y-75045671D01*
X92410765Y-75022572D01*
X92404804Y-74998773D01*
X92401204Y-74974505D01*
X92400000Y-74950001D01*
X92400000Y-74049999D01*
X92401204Y-74025495D01*
X92404804Y-74001227D01*
X92410765Y-73977428D01*
X92419030Y-73954329D01*
X92429520Y-73932150D01*
X92442132Y-73911107D01*
X92456747Y-73891401D01*
X92473223Y-73873223D01*
X92491401Y-73856747D01*
X92511107Y-73842132D01*
X92532150Y-73829520D01*
X92554329Y-73819030D01*
X92577428Y-73810765D01*
X92601227Y-73804804D01*
X92625495Y-73801204D01*
X92649999Y-73800000D01*
X93300001Y-73800000D01*
X93324505Y-73801204D01*
G37*
G36*
X98474505Y-92901204D02*
G01*
X98498773Y-92904804D01*
X98522572Y-92910765D01*
X98545671Y-92919030D01*
X98567850Y-92929520D01*
X98588893Y-92942132D01*
X98608599Y-92956747D01*
X98626777Y-92973223D01*
X98643253Y-92991401D01*
X98657868Y-93011107D01*
X98670480Y-93032150D01*
X98680970Y-93054329D01*
X98689235Y-93077428D01*
X98695196Y-93101227D01*
X98698796Y-93125495D01*
X98700000Y-93149999D01*
X98700000Y-93800001D01*
X98698796Y-93824505D01*
X98695196Y-93848773D01*
X98689235Y-93872572D01*
X98680970Y-93895671D01*
X98670480Y-93917850D01*
X98657868Y-93938893D01*
X98643253Y-93958599D01*
X98626777Y-93976777D01*
X98608599Y-93993253D01*
X98588893Y-94007868D01*
X98567850Y-94020480D01*
X98545671Y-94030970D01*
X98522572Y-94039235D01*
X98498773Y-94045196D01*
X98474505Y-94048796D01*
X98450001Y-94050000D01*
X97549999Y-94050000D01*
X97525495Y-94048796D01*
X97501227Y-94045196D01*
X97477428Y-94039235D01*
X97454329Y-94030970D01*
X97432150Y-94020480D01*
X97411107Y-94007868D01*
X97391401Y-93993253D01*
X97373223Y-93976777D01*
X97356747Y-93958599D01*
X97342132Y-93938893D01*
X97329520Y-93917850D01*
X97319030Y-93895671D01*
X97310765Y-93872572D01*
X97304804Y-93848773D01*
X97301204Y-93824505D01*
X97300000Y-93800001D01*
X97300000Y-93149999D01*
X97301204Y-93125495D01*
X97304804Y-93101227D01*
X97310765Y-93077428D01*
X97319030Y-93054329D01*
X97329520Y-93032150D01*
X97342132Y-93011107D01*
X97356747Y-92991401D01*
X97373223Y-92973223D01*
X97391401Y-92956747D01*
X97411107Y-92942132D01*
X97432150Y-92929520D01*
X97454329Y-92919030D01*
X97477428Y-92910765D01*
X97501227Y-92904804D01*
X97525495Y-92901204D01*
X97549999Y-92900000D01*
X98450001Y-92900000D01*
X98474505Y-92901204D01*
G37*
G36*
X98474505Y-94951204D02*
G01*
X98498773Y-94954804D01*
X98522572Y-94960765D01*
X98545671Y-94969030D01*
X98567850Y-94979520D01*
X98588893Y-94992132D01*
X98608599Y-95006747D01*
X98626777Y-95023223D01*
X98643253Y-95041401D01*
X98657868Y-95061107D01*
X98670480Y-95082150D01*
X98680970Y-95104329D01*
X98689235Y-95127428D01*
X98695196Y-95151227D01*
X98698796Y-95175495D01*
X98700000Y-95199999D01*
X98700000Y-95850001D01*
X98698796Y-95874505D01*
X98695196Y-95898773D01*
X98689235Y-95922572D01*
X98680970Y-95945671D01*
X98670480Y-95967850D01*
X98657868Y-95988893D01*
X98643253Y-96008599D01*
X98626777Y-96026777D01*
X98608599Y-96043253D01*
X98588893Y-96057868D01*
X98567850Y-96070480D01*
X98545671Y-96080970D01*
X98522572Y-96089235D01*
X98498773Y-96095196D01*
X98474505Y-96098796D01*
X98450001Y-96100000D01*
X97549999Y-96100000D01*
X97525495Y-96098796D01*
X97501227Y-96095196D01*
X97477428Y-96089235D01*
X97454329Y-96080970D01*
X97432150Y-96070480D01*
X97411107Y-96057868D01*
X97391401Y-96043253D01*
X97373223Y-96026777D01*
X97356747Y-96008599D01*
X97342132Y-95988893D01*
X97329520Y-95967850D01*
X97319030Y-95945671D01*
X97310765Y-95922572D01*
X97304804Y-95898773D01*
X97301204Y-95874505D01*
X97300000Y-95850001D01*
X97300000Y-95199999D01*
X97301204Y-95175495D01*
X97304804Y-95151227D01*
X97310765Y-95127428D01*
X97319030Y-95104329D01*
X97329520Y-95082150D01*
X97342132Y-95061107D01*
X97356747Y-95041401D01*
X97373223Y-95023223D01*
X97391401Y-95006747D01*
X97411107Y-94992132D01*
X97432150Y-94979520D01*
X97454329Y-94969030D01*
X97477428Y-94960765D01*
X97501227Y-94954804D01*
X97525495Y-94951204D01*
X97549999Y-94950000D01*
X98450001Y-94950000D01*
X98474505Y-94951204D01*
G37*
G36*
X104609703Y-115500722D02*
G01*
X104624264Y-115502882D01*
X104638543Y-115506459D01*
X104652403Y-115511418D01*
X104665710Y-115517712D01*
X104678336Y-115525280D01*
X104690159Y-115534048D01*
X104701066Y-115543934D01*
X104710952Y-115554841D01*
X104719720Y-115566664D01*
X104727288Y-115579290D01*
X104733582Y-115592597D01*
X104738541Y-115606457D01*
X104742118Y-115620736D01*
X104744278Y-115635297D01*
X104745000Y-115650000D01*
X104745000Y-117300000D01*
X104744278Y-117314703D01*
X104742118Y-117329264D01*
X104738541Y-117343543D01*
X104733582Y-117357403D01*
X104727288Y-117370710D01*
X104719720Y-117383336D01*
X104710952Y-117395159D01*
X104701066Y-117406066D01*
X104690159Y-117415952D01*
X104678336Y-117424720D01*
X104665710Y-117432288D01*
X104652403Y-117438582D01*
X104638543Y-117443541D01*
X104624264Y-117447118D01*
X104609703Y-117449278D01*
X104595000Y-117450000D01*
X104295000Y-117450000D01*
X104280297Y-117449278D01*
X104265736Y-117447118D01*
X104251457Y-117443541D01*
X104237597Y-117438582D01*
X104224290Y-117432288D01*
X104211664Y-117424720D01*
X104199841Y-117415952D01*
X104188934Y-117406066D01*
X104179048Y-117395159D01*
X104170280Y-117383336D01*
X104162712Y-117370710D01*
X104156418Y-117357403D01*
X104151459Y-117343543D01*
X104147882Y-117329264D01*
X104145722Y-117314703D01*
X104145000Y-117300000D01*
X104145000Y-115650000D01*
X104145722Y-115635297D01*
X104147882Y-115620736D01*
X104151459Y-115606457D01*
X104156418Y-115592597D01*
X104162712Y-115579290D01*
X104170280Y-115566664D01*
X104179048Y-115554841D01*
X104188934Y-115543934D01*
X104199841Y-115534048D01*
X104211664Y-115525280D01*
X104224290Y-115517712D01*
X104237597Y-115511418D01*
X104251457Y-115506459D01*
X104265736Y-115502882D01*
X104280297Y-115500722D01*
X104295000Y-115500000D01*
X104595000Y-115500000D01*
X104609703Y-115500722D01*
G37*
G36*
X103339703Y-115500722D02*
G01*
X103354264Y-115502882D01*
X103368543Y-115506459D01*
X103382403Y-115511418D01*
X103395710Y-115517712D01*
X103408336Y-115525280D01*
X103420159Y-115534048D01*
X103431066Y-115543934D01*
X103440952Y-115554841D01*
X103449720Y-115566664D01*
X103457288Y-115579290D01*
X103463582Y-115592597D01*
X103468541Y-115606457D01*
X103472118Y-115620736D01*
X103474278Y-115635297D01*
X103475000Y-115650000D01*
X103475000Y-117300000D01*
X103474278Y-117314703D01*
X103472118Y-117329264D01*
X103468541Y-117343543D01*
X103463582Y-117357403D01*
X103457288Y-117370710D01*
X103449720Y-117383336D01*
X103440952Y-117395159D01*
X103431066Y-117406066D01*
X103420159Y-117415952D01*
X103408336Y-117424720D01*
X103395710Y-117432288D01*
X103382403Y-117438582D01*
X103368543Y-117443541D01*
X103354264Y-117447118D01*
X103339703Y-117449278D01*
X103325000Y-117450000D01*
X103025000Y-117450000D01*
X103010297Y-117449278D01*
X102995736Y-117447118D01*
X102981457Y-117443541D01*
X102967597Y-117438582D01*
X102954290Y-117432288D01*
X102941664Y-117424720D01*
X102929841Y-117415952D01*
X102918934Y-117406066D01*
X102909048Y-117395159D01*
X102900280Y-117383336D01*
X102892712Y-117370710D01*
X102886418Y-117357403D01*
X102881459Y-117343543D01*
X102877882Y-117329264D01*
X102875722Y-117314703D01*
X102875000Y-117300000D01*
X102875000Y-115650000D01*
X102875722Y-115635297D01*
X102877882Y-115620736D01*
X102881459Y-115606457D01*
X102886418Y-115592597D01*
X102892712Y-115579290D01*
X102900280Y-115566664D01*
X102909048Y-115554841D01*
X102918934Y-115543934D01*
X102929841Y-115534048D01*
X102941664Y-115525280D01*
X102954290Y-115517712D01*
X102967597Y-115511418D01*
X102981457Y-115506459D01*
X102995736Y-115502882D01*
X103010297Y-115500722D01*
X103025000Y-115500000D01*
X103325000Y-115500000D01*
X103339703Y-115500722D01*
G37*
G36*
X102069703Y-115500722D02*
G01*
X102084264Y-115502882D01*
X102098543Y-115506459D01*
X102112403Y-115511418D01*
X102125710Y-115517712D01*
X102138336Y-115525280D01*
X102150159Y-115534048D01*
X102161066Y-115543934D01*
X102170952Y-115554841D01*
X102179720Y-115566664D01*
X102187288Y-115579290D01*
X102193582Y-115592597D01*
X102198541Y-115606457D01*
X102202118Y-115620736D01*
X102204278Y-115635297D01*
X102205000Y-115650000D01*
X102205000Y-117300000D01*
X102204278Y-117314703D01*
X102202118Y-117329264D01*
X102198541Y-117343543D01*
X102193582Y-117357403D01*
X102187288Y-117370710D01*
X102179720Y-117383336D01*
X102170952Y-117395159D01*
X102161066Y-117406066D01*
X102150159Y-117415952D01*
X102138336Y-117424720D01*
X102125710Y-117432288D01*
X102112403Y-117438582D01*
X102098543Y-117443541D01*
X102084264Y-117447118D01*
X102069703Y-117449278D01*
X102055000Y-117450000D01*
X101755000Y-117450000D01*
X101740297Y-117449278D01*
X101725736Y-117447118D01*
X101711457Y-117443541D01*
X101697597Y-117438582D01*
X101684290Y-117432288D01*
X101671664Y-117424720D01*
X101659841Y-117415952D01*
X101648934Y-117406066D01*
X101639048Y-117395159D01*
X101630280Y-117383336D01*
X101622712Y-117370710D01*
X101616418Y-117357403D01*
X101611459Y-117343543D01*
X101607882Y-117329264D01*
X101605722Y-117314703D01*
X101605000Y-117300000D01*
X101605000Y-115650000D01*
X101605722Y-115635297D01*
X101607882Y-115620736D01*
X101611459Y-115606457D01*
X101616418Y-115592597D01*
X101622712Y-115579290D01*
X101630280Y-115566664D01*
X101639048Y-115554841D01*
X101648934Y-115543934D01*
X101659841Y-115534048D01*
X101671664Y-115525280D01*
X101684290Y-115517712D01*
X101697597Y-115511418D01*
X101711457Y-115506459D01*
X101725736Y-115502882D01*
X101740297Y-115500722D01*
X101755000Y-115500000D01*
X102055000Y-115500000D01*
X102069703Y-115500722D01*
G37*
G36*
X100799703Y-115500722D02*
G01*
X100814264Y-115502882D01*
X100828543Y-115506459D01*
X100842403Y-115511418D01*
X100855710Y-115517712D01*
X100868336Y-115525280D01*
X100880159Y-115534048D01*
X100891066Y-115543934D01*
X100900952Y-115554841D01*
X100909720Y-115566664D01*
X100917288Y-115579290D01*
X100923582Y-115592597D01*
X100928541Y-115606457D01*
X100932118Y-115620736D01*
X100934278Y-115635297D01*
X100935000Y-115650000D01*
X100935000Y-117300000D01*
X100934278Y-117314703D01*
X100932118Y-117329264D01*
X100928541Y-117343543D01*
X100923582Y-117357403D01*
X100917288Y-117370710D01*
X100909720Y-117383336D01*
X100900952Y-117395159D01*
X100891066Y-117406066D01*
X100880159Y-117415952D01*
X100868336Y-117424720D01*
X100855710Y-117432288D01*
X100842403Y-117438582D01*
X100828543Y-117443541D01*
X100814264Y-117447118D01*
X100799703Y-117449278D01*
X100785000Y-117450000D01*
X100485000Y-117450000D01*
X100470297Y-117449278D01*
X100455736Y-117447118D01*
X100441457Y-117443541D01*
X100427597Y-117438582D01*
X100414290Y-117432288D01*
X100401664Y-117424720D01*
X100389841Y-117415952D01*
X100378934Y-117406066D01*
X100369048Y-117395159D01*
X100360280Y-117383336D01*
X100352712Y-117370710D01*
X100346418Y-117357403D01*
X100341459Y-117343543D01*
X100337882Y-117329264D01*
X100335722Y-117314703D01*
X100335000Y-117300000D01*
X100335000Y-115650000D01*
X100335722Y-115635297D01*
X100337882Y-115620736D01*
X100341459Y-115606457D01*
X100346418Y-115592597D01*
X100352712Y-115579290D01*
X100360280Y-115566664D01*
X100369048Y-115554841D01*
X100378934Y-115543934D01*
X100389841Y-115534048D01*
X100401664Y-115525280D01*
X100414290Y-115517712D01*
X100427597Y-115511418D01*
X100441457Y-115506459D01*
X100455736Y-115502882D01*
X100470297Y-115500722D01*
X100485000Y-115500000D01*
X100785000Y-115500000D01*
X100799703Y-115500722D01*
G37*
G36*
X99529703Y-115500722D02*
G01*
X99544264Y-115502882D01*
X99558543Y-115506459D01*
X99572403Y-115511418D01*
X99585710Y-115517712D01*
X99598336Y-115525280D01*
X99610159Y-115534048D01*
X99621066Y-115543934D01*
X99630952Y-115554841D01*
X99639720Y-115566664D01*
X99647288Y-115579290D01*
X99653582Y-115592597D01*
X99658541Y-115606457D01*
X99662118Y-115620736D01*
X99664278Y-115635297D01*
X99665000Y-115650000D01*
X99665000Y-117300000D01*
X99664278Y-117314703D01*
X99662118Y-117329264D01*
X99658541Y-117343543D01*
X99653582Y-117357403D01*
X99647288Y-117370710D01*
X99639720Y-117383336D01*
X99630952Y-117395159D01*
X99621066Y-117406066D01*
X99610159Y-117415952D01*
X99598336Y-117424720D01*
X99585710Y-117432288D01*
X99572403Y-117438582D01*
X99558543Y-117443541D01*
X99544264Y-117447118D01*
X99529703Y-117449278D01*
X99515000Y-117450000D01*
X99215000Y-117450000D01*
X99200297Y-117449278D01*
X99185736Y-117447118D01*
X99171457Y-117443541D01*
X99157597Y-117438582D01*
X99144290Y-117432288D01*
X99131664Y-117424720D01*
X99119841Y-117415952D01*
X99108934Y-117406066D01*
X99099048Y-117395159D01*
X99090280Y-117383336D01*
X99082712Y-117370710D01*
X99076418Y-117357403D01*
X99071459Y-117343543D01*
X99067882Y-117329264D01*
X99065722Y-117314703D01*
X99065000Y-117300000D01*
X99065000Y-115650000D01*
X99065722Y-115635297D01*
X99067882Y-115620736D01*
X99071459Y-115606457D01*
X99076418Y-115592597D01*
X99082712Y-115579290D01*
X99090280Y-115566664D01*
X99099048Y-115554841D01*
X99108934Y-115543934D01*
X99119841Y-115534048D01*
X99131664Y-115525280D01*
X99144290Y-115517712D01*
X99157597Y-115511418D01*
X99171457Y-115506459D01*
X99185736Y-115502882D01*
X99200297Y-115500722D01*
X99215000Y-115500000D01*
X99515000Y-115500000D01*
X99529703Y-115500722D01*
G37*
G36*
X98259703Y-115500722D02*
G01*
X98274264Y-115502882D01*
X98288543Y-115506459D01*
X98302403Y-115511418D01*
X98315710Y-115517712D01*
X98328336Y-115525280D01*
X98340159Y-115534048D01*
X98351066Y-115543934D01*
X98360952Y-115554841D01*
X98369720Y-115566664D01*
X98377288Y-115579290D01*
X98383582Y-115592597D01*
X98388541Y-115606457D01*
X98392118Y-115620736D01*
X98394278Y-115635297D01*
X98395000Y-115650000D01*
X98395000Y-117300000D01*
X98394278Y-117314703D01*
X98392118Y-117329264D01*
X98388541Y-117343543D01*
X98383582Y-117357403D01*
X98377288Y-117370710D01*
X98369720Y-117383336D01*
X98360952Y-117395159D01*
X98351066Y-117406066D01*
X98340159Y-117415952D01*
X98328336Y-117424720D01*
X98315710Y-117432288D01*
X98302403Y-117438582D01*
X98288543Y-117443541D01*
X98274264Y-117447118D01*
X98259703Y-117449278D01*
X98245000Y-117450000D01*
X97945000Y-117450000D01*
X97930297Y-117449278D01*
X97915736Y-117447118D01*
X97901457Y-117443541D01*
X97887597Y-117438582D01*
X97874290Y-117432288D01*
X97861664Y-117424720D01*
X97849841Y-117415952D01*
X97838934Y-117406066D01*
X97829048Y-117395159D01*
X97820280Y-117383336D01*
X97812712Y-117370710D01*
X97806418Y-117357403D01*
X97801459Y-117343543D01*
X97797882Y-117329264D01*
X97795722Y-117314703D01*
X97795000Y-117300000D01*
X97795000Y-115650000D01*
X97795722Y-115635297D01*
X97797882Y-115620736D01*
X97801459Y-115606457D01*
X97806418Y-115592597D01*
X97812712Y-115579290D01*
X97820280Y-115566664D01*
X97829048Y-115554841D01*
X97838934Y-115543934D01*
X97849841Y-115534048D01*
X97861664Y-115525280D01*
X97874290Y-115517712D01*
X97887597Y-115511418D01*
X97901457Y-115506459D01*
X97915736Y-115502882D01*
X97930297Y-115500722D01*
X97945000Y-115500000D01*
X98245000Y-115500000D01*
X98259703Y-115500722D01*
G37*
G36*
X96989703Y-115500722D02*
G01*
X97004264Y-115502882D01*
X97018543Y-115506459D01*
X97032403Y-115511418D01*
X97045710Y-115517712D01*
X97058336Y-115525280D01*
X97070159Y-115534048D01*
X97081066Y-115543934D01*
X97090952Y-115554841D01*
X97099720Y-115566664D01*
X97107288Y-115579290D01*
X97113582Y-115592597D01*
X97118541Y-115606457D01*
X97122118Y-115620736D01*
X97124278Y-115635297D01*
X97125000Y-115650000D01*
X97125000Y-117300000D01*
X97124278Y-117314703D01*
X97122118Y-117329264D01*
X97118541Y-117343543D01*
X97113582Y-117357403D01*
X97107288Y-117370710D01*
X97099720Y-117383336D01*
X97090952Y-117395159D01*
X97081066Y-117406066D01*
X97070159Y-117415952D01*
X97058336Y-117424720D01*
X97045710Y-117432288D01*
X97032403Y-117438582D01*
X97018543Y-117443541D01*
X97004264Y-117447118D01*
X96989703Y-117449278D01*
X96975000Y-117450000D01*
X96675000Y-117450000D01*
X96660297Y-117449278D01*
X96645736Y-117447118D01*
X96631457Y-117443541D01*
X96617597Y-117438582D01*
X96604290Y-117432288D01*
X96591664Y-117424720D01*
X96579841Y-117415952D01*
X96568934Y-117406066D01*
X96559048Y-117395159D01*
X96550280Y-117383336D01*
X96542712Y-117370710D01*
X96536418Y-117357403D01*
X96531459Y-117343543D01*
X96527882Y-117329264D01*
X96525722Y-117314703D01*
X96525000Y-117300000D01*
X96525000Y-115650000D01*
X96525722Y-115635297D01*
X96527882Y-115620736D01*
X96531459Y-115606457D01*
X96536418Y-115592597D01*
X96542712Y-115579290D01*
X96550280Y-115566664D01*
X96559048Y-115554841D01*
X96568934Y-115543934D01*
X96579841Y-115534048D01*
X96591664Y-115525280D01*
X96604290Y-115517712D01*
X96617597Y-115511418D01*
X96631457Y-115506459D01*
X96645736Y-115502882D01*
X96660297Y-115500722D01*
X96675000Y-115500000D01*
X96975000Y-115500000D01*
X96989703Y-115500722D01*
G37*
G36*
X95719703Y-115500722D02*
G01*
X95734264Y-115502882D01*
X95748543Y-115506459D01*
X95762403Y-115511418D01*
X95775710Y-115517712D01*
X95788336Y-115525280D01*
X95800159Y-115534048D01*
X95811066Y-115543934D01*
X95820952Y-115554841D01*
X95829720Y-115566664D01*
X95837288Y-115579290D01*
X95843582Y-115592597D01*
X95848541Y-115606457D01*
X95852118Y-115620736D01*
X95854278Y-115635297D01*
X95855000Y-115650000D01*
X95855000Y-117300000D01*
X95854278Y-117314703D01*
X95852118Y-117329264D01*
X95848541Y-117343543D01*
X95843582Y-117357403D01*
X95837288Y-117370710D01*
X95829720Y-117383336D01*
X95820952Y-117395159D01*
X95811066Y-117406066D01*
X95800159Y-117415952D01*
X95788336Y-117424720D01*
X95775710Y-117432288D01*
X95762403Y-117438582D01*
X95748543Y-117443541D01*
X95734264Y-117447118D01*
X95719703Y-117449278D01*
X95705000Y-117450000D01*
X95405000Y-117450000D01*
X95390297Y-117449278D01*
X95375736Y-117447118D01*
X95361457Y-117443541D01*
X95347597Y-117438582D01*
X95334290Y-117432288D01*
X95321664Y-117424720D01*
X95309841Y-117415952D01*
X95298934Y-117406066D01*
X95289048Y-117395159D01*
X95280280Y-117383336D01*
X95272712Y-117370710D01*
X95266418Y-117357403D01*
X95261459Y-117343543D01*
X95257882Y-117329264D01*
X95255722Y-117314703D01*
X95255000Y-117300000D01*
X95255000Y-115650000D01*
X95255722Y-115635297D01*
X95257882Y-115620736D01*
X95261459Y-115606457D01*
X95266418Y-115592597D01*
X95272712Y-115579290D01*
X95280280Y-115566664D01*
X95289048Y-115554841D01*
X95298934Y-115543934D01*
X95309841Y-115534048D01*
X95321664Y-115525280D01*
X95334290Y-115517712D01*
X95347597Y-115511418D01*
X95361457Y-115506459D01*
X95375736Y-115502882D01*
X95390297Y-115500722D01*
X95405000Y-115500000D01*
X95705000Y-115500000D01*
X95719703Y-115500722D01*
G37*
G36*
X95719703Y-110550722D02*
G01*
X95734264Y-110552882D01*
X95748543Y-110556459D01*
X95762403Y-110561418D01*
X95775710Y-110567712D01*
X95788336Y-110575280D01*
X95800159Y-110584048D01*
X95811066Y-110593934D01*
X95820952Y-110604841D01*
X95829720Y-110616664D01*
X95837288Y-110629290D01*
X95843582Y-110642597D01*
X95848541Y-110656457D01*
X95852118Y-110670736D01*
X95854278Y-110685297D01*
X95855000Y-110700000D01*
X95855000Y-112350000D01*
X95854278Y-112364703D01*
X95852118Y-112379264D01*
X95848541Y-112393543D01*
X95843582Y-112407403D01*
X95837288Y-112420710D01*
X95829720Y-112433336D01*
X95820952Y-112445159D01*
X95811066Y-112456066D01*
X95800159Y-112465952D01*
X95788336Y-112474720D01*
X95775710Y-112482288D01*
X95762403Y-112488582D01*
X95748543Y-112493541D01*
X95734264Y-112497118D01*
X95719703Y-112499278D01*
X95705000Y-112500000D01*
X95405000Y-112500000D01*
X95390297Y-112499278D01*
X95375736Y-112497118D01*
X95361457Y-112493541D01*
X95347597Y-112488582D01*
X95334290Y-112482288D01*
X95321664Y-112474720D01*
X95309841Y-112465952D01*
X95298934Y-112456066D01*
X95289048Y-112445159D01*
X95280280Y-112433336D01*
X95272712Y-112420710D01*
X95266418Y-112407403D01*
X95261459Y-112393543D01*
X95257882Y-112379264D01*
X95255722Y-112364703D01*
X95255000Y-112350000D01*
X95255000Y-110700000D01*
X95255722Y-110685297D01*
X95257882Y-110670736D01*
X95261459Y-110656457D01*
X95266418Y-110642597D01*
X95272712Y-110629290D01*
X95280280Y-110616664D01*
X95289048Y-110604841D01*
X95298934Y-110593934D01*
X95309841Y-110584048D01*
X95321664Y-110575280D01*
X95334290Y-110567712D01*
X95347597Y-110561418D01*
X95361457Y-110556459D01*
X95375736Y-110552882D01*
X95390297Y-110550722D01*
X95405000Y-110550000D01*
X95705000Y-110550000D01*
X95719703Y-110550722D01*
G37*
G36*
X96989703Y-110550722D02*
G01*
X97004264Y-110552882D01*
X97018543Y-110556459D01*
X97032403Y-110561418D01*
X97045710Y-110567712D01*
X97058336Y-110575280D01*
X97070159Y-110584048D01*
X97081066Y-110593934D01*
X97090952Y-110604841D01*
X97099720Y-110616664D01*
X97107288Y-110629290D01*
X97113582Y-110642597D01*
X97118541Y-110656457D01*
X97122118Y-110670736D01*
X97124278Y-110685297D01*
X97125000Y-110700000D01*
X97125000Y-112350000D01*
X97124278Y-112364703D01*
X97122118Y-112379264D01*
X97118541Y-112393543D01*
X97113582Y-112407403D01*
X97107288Y-112420710D01*
X97099720Y-112433336D01*
X97090952Y-112445159D01*
X97081066Y-112456066D01*
X97070159Y-112465952D01*
X97058336Y-112474720D01*
X97045710Y-112482288D01*
X97032403Y-112488582D01*
X97018543Y-112493541D01*
X97004264Y-112497118D01*
X96989703Y-112499278D01*
X96975000Y-112500000D01*
X96675000Y-112500000D01*
X96660297Y-112499278D01*
X96645736Y-112497118D01*
X96631457Y-112493541D01*
X96617597Y-112488582D01*
X96604290Y-112482288D01*
X96591664Y-112474720D01*
X96579841Y-112465952D01*
X96568934Y-112456066D01*
X96559048Y-112445159D01*
X96550280Y-112433336D01*
X96542712Y-112420710D01*
X96536418Y-112407403D01*
X96531459Y-112393543D01*
X96527882Y-112379264D01*
X96525722Y-112364703D01*
X96525000Y-112350000D01*
X96525000Y-110700000D01*
X96525722Y-110685297D01*
X96527882Y-110670736D01*
X96531459Y-110656457D01*
X96536418Y-110642597D01*
X96542712Y-110629290D01*
X96550280Y-110616664D01*
X96559048Y-110604841D01*
X96568934Y-110593934D01*
X96579841Y-110584048D01*
X96591664Y-110575280D01*
X96604290Y-110567712D01*
X96617597Y-110561418D01*
X96631457Y-110556459D01*
X96645736Y-110552882D01*
X96660297Y-110550722D01*
X96675000Y-110550000D01*
X96975000Y-110550000D01*
X96989703Y-110550722D01*
G37*
G36*
X98259703Y-110550722D02*
G01*
X98274264Y-110552882D01*
X98288543Y-110556459D01*
X98302403Y-110561418D01*
X98315710Y-110567712D01*
X98328336Y-110575280D01*
X98340159Y-110584048D01*
X98351066Y-110593934D01*
X98360952Y-110604841D01*
X98369720Y-110616664D01*
X98377288Y-110629290D01*
X98383582Y-110642597D01*
X98388541Y-110656457D01*
X98392118Y-110670736D01*
X98394278Y-110685297D01*
X98395000Y-110700000D01*
X98395000Y-112350000D01*
X98394278Y-112364703D01*
X98392118Y-112379264D01*
X98388541Y-112393543D01*
X98383582Y-112407403D01*
X98377288Y-112420710D01*
X98369720Y-112433336D01*
X98360952Y-112445159D01*
X98351066Y-112456066D01*
X98340159Y-112465952D01*
X98328336Y-112474720D01*
X98315710Y-112482288D01*
X98302403Y-112488582D01*
X98288543Y-112493541D01*
X98274264Y-112497118D01*
X98259703Y-112499278D01*
X98245000Y-112500000D01*
X97945000Y-112500000D01*
X97930297Y-112499278D01*
X97915736Y-112497118D01*
X97901457Y-112493541D01*
X97887597Y-112488582D01*
X97874290Y-112482288D01*
X97861664Y-112474720D01*
X97849841Y-112465952D01*
X97838934Y-112456066D01*
X97829048Y-112445159D01*
X97820280Y-112433336D01*
X97812712Y-112420710D01*
X97806418Y-112407403D01*
X97801459Y-112393543D01*
X97797882Y-112379264D01*
X97795722Y-112364703D01*
X97795000Y-112350000D01*
X97795000Y-110700000D01*
X97795722Y-110685297D01*
X97797882Y-110670736D01*
X97801459Y-110656457D01*
X97806418Y-110642597D01*
X97812712Y-110629290D01*
X97820280Y-110616664D01*
X97829048Y-110604841D01*
X97838934Y-110593934D01*
X97849841Y-110584048D01*
X97861664Y-110575280D01*
X97874290Y-110567712D01*
X97887597Y-110561418D01*
X97901457Y-110556459D01*
X97915736Y-110552882D01*
X97930297Y-110550722D01*
X97945000Y-110550000D01*
X98245000Y-110550000D01*
X98259703Y-110550722D01*
G37*
G36*
X99529703Y-110550722D02*
G01*
X99544264Y-110552882D01*
X99558543Y-110556459D01*
X99572403Y-110561418D01*
X99585710Y-110567712D01*
X99598336Y-110575280D01*
X99610159Y-110584048D01*
X99621066Y-110593934D01*
X99630952Y-110604841D01*
X99639720Y-110616664D01*
X99647288Y-110629290D01*
X99653582Y-110642597D01*
X99658541Y-110656457D01*
X99662118Y-110670736D01*
X99664278Y-110685297D01*
X99665000Y-110700000D01*
X99665000Y-112350000D01*
X99664278Y-112364703D01*
X99662118Y-112379264D01*
X99658541Y-112393543D01*
X99653582Y-112407403D01*
X99647288Y-112420710D01*
X99639720Y-112433336D01*
X99630952Y-112445159D01*
X99621066Y-112456066D01*
X99610159Y-112465952D01*
X99598336Y-112474720D01*
X99585710Y-112482288D01*
X99572403Y-112488582D01*
X99558543Y-112493541D01*
X99544264Y-112497118D01*
X99529703Y-112499278D01*
X99515000Y-112500000D01*
X99215000Y-112500000D01*
X99200297Y-112499278D01*
X99185736Y-112497118D01*
X99171457Y-112493541D01*
X99157597Y-112488582D01*
X99144290Y-112482288D01*
X99131664Y-112474720D01*
X99119841Y-112465952D01*
X99108934Y-112456066D01*
X99099048Y-112445159D01*
X99090280Y-112433336D01*
X99082712Y-112420710D01*
X99076418Y-112407403D01*
X99071459Y-112393543D01*
X99067882Y-112379264D01*
X99065722Y-112364703D01*
X99065000Y-112350000D01*
X99065000Y-110700000D01*
X99065722Y-110685297D01*
X99067882Y-110670736D01*
X99071459Y-110656457D01*
X99076418Y-110642597D01*
X99082712Y-110629290D01*
X99090280Y-110616664D01*
X99099048Y-110604841D01*
X99108934Y-110593934D01*
X99119841Y-110584048D01*
X99131664Y-110575280D01*
X99144290Y-110567712D01*
X99157597Y-110561418D01*
X99171457Y-110556459D01*
X99185736Y-110552882D01*
X99200297Y-110550722D01*
X99215000Y-110550000D01*
X99515000Y-110550000D01*
X99529703Y-110550722D01*
G37*
G36*
X100799703Y-110550722D02*
G01*
X100814264Y-110552882D01*
X100828543Y-110556459D01*
X100842403Y-110561418D01*
X100855710Y-110567712D01*
X100868336Y-110575280D01*
X100880159Y-110584048D01*
X100891066Y-110593934D01*
X100900952Y-110604841D01*
X100909720Y-110616664D01*
X100917288Y-110629290D01*
X100923582Y-110642597D01*
X100928541Y-110656457D01*
X100932118Y-110670736D01*
X100934278Y-110685297D01*
X100935000Y-110700000D01*
X100935000Y-112350000D01*
X100934278Y-112364703D01*
X100932118Y-112379264D01*
X100928541Y-112393543D01*
X100923582Y-112407403D01*
X100917288Y-112420710D01*
X100909720Y-112433336D01*
X100900952Y-112445159D01*
X100891066Y-112456066D01*
X100880159Y-112465952D01*
X100868336Y-112474720D01*
X100855710Y-112482288D01*
X100842403Y-112488582D01*
X100828543Y-112493541D01*
X100814264Y-112497118D01*
X100799703Y-112499278D01*
X100785000Y-112500000D01*
X100485000Y-112500000D01*
X100470297Y-112499278D01*
X100455736Y-112497118D01*
X100441457Y-112493541D01*
X100427597Y-112488582D01*
X100414290Y-112482288D01*
X100401664Y-112474720D01*
X100389841Y-112465952D01*
X100378934Y-112456066D01*
X100369048Y-112445159D01*
X100360280Y-112433336D01*
X100352712Y-112420710D01*
X100346418Y-112407403D01*
X100341459Y-112393543D01*
X100337882Y-112379264D01*
X100335722Y-112364703D01*
X100335000Y-112350000D01*
X100335000Y-110700000D01*
X100335722Y-110685297D01*
X100337882Y-110670736D01*
X100341459Y-110656457D01*
X100346418Y-110642597D01*
X100352712Y-110629290D01*
X100360280Y-110616664D01*
X100369048Y-110604841D01*
X100378934Y-110593934D01*
X100389841Y-110584048D01*
X100401664Y-110575280D01*
X100414290Y-110567712D01*
X100427597Y-110561418D01*
X100441457Y-110556459D01*
X100455736Y-110552882D01*
X100470297Y-110550722D01*
X100485000Y-110550000D01*
X100785000Y-110550000D01*
X100799703Y-110550722D01*
G37*
G36*
X102069703Y-110550722D02*
G01*
X102084264Y-110552882D01*
X102098543Y-110556459D01*
X102112403Y-110561418D01*
X102125710Y-110567712D01*
X102138336Y-110575280D01*
X102150159Y-110584048D01*
X102161066Y-110593934D01*
X102170952Y-110604841D01*
X102179720Y-110616664D01*
X102187288Y-110629290D01*
X102193582Y-110642597D01*
X102198541Y-110656457D01*
X102202118Y-110670736D01*
X102204278Y-110685297D01*
X102205000Y-110700000D01*
X102205000Y-112350000D01*
X102204278Y-112364703D01*
X102202118Y-112379264D01*
X102198541Y-112393543D01*
X102193582Y-112407403D01*
X102187288Y-112420710D01*
X102179720Y-112433336D01*
X102170952Y-112445159D01*
X102161066Y-112456066D01*
X102150159Y-112465952D01*
X102138336Y-112474720D01*
X102125710Y-112482288D01*
X102112403Y-112488582D01*
X102098543Y-112493541D01*
X102084264Y-112497118D01*
X102069703Y-112499278D01*
X102055000Y-112500000D01*
X101755000Y-112500000D01*
X101740297Y-112499278D01*
X101725736Y-112497118D01*
X101711457Y-112493541D01*
X101697597Y-112488582D01*
X101684290Y-112482288D01*
X101671664Y-112474720D01*
X101659841Y-112465952D01*
X101648934Y-112456066D01*
X101639048Y-112445159D01*
X101630280Y-112433336D01*
X101622712Y-112420710D01*
X101616418Y-112407403D01*
X101611459Y-112393543D01*
X101607882Y-112379264D01*
X101605722Y-112364703D01*
X101605000Y-112350000D01*
X101605000Y-110700000D01*
X101605722Y-110685297D01*
X101607882Y-110670736D01*
X101611459Y-110656457D01*
X101616418Y-110642597D01*
X101622712Y-110629290D01*
X101630280Y-110616664D01*
X101639048Y-110604841D01*
X101648934Y-110593934D01*
X101659841Y-110584048D01*
X101671664Y-110575280D01*
X101684290Y-110567712D01*
X101697597Y-110561418D01*
X101711457Y-110556459D01*
X101725736Y-110552882D01*
X101740297Y-110550722D01*
X101755000Y-110550000D01*
X102055000Y-110550000D01*
X102069703Y-110550722D01*
G37*
G36*
X103339703Y-110550722D02*
G01*
X103354264Y-110552882D01*
X103368543Y-110556459D01*
X103382403Y-110561418D01*
X103395710Y-110567712D01*
X103408336Y-110575280D01*
X103420159Y-110584048D01*
X103431066Y-110593934D01*
X103440952Y-110604841D01*
X103449720Y-110616664D01*
X103457288Y-110629290D01*
X103463582Y-110642597D01*
X103468541Y-110656457D01*
X103472118Y-110670736D01*
X103474278Y-110685297D01*
X103475000Y-110700000D01*
X103475000Y-112350000D01*
X103474278Y-112364703D01*
X103472118Y-112379264D01*
X103468541Y-112393543D01*
X103463582Y-112407403D01*
X103457288Y-112420710D01*
X103449720Y-112433336D01*
X103440952Y-112445159D01*
X103431066Y-112456066D01*
X103420159Y-112465952D01*
X103408336Y-112474720D01*
X103395710Y-112482288D01*
X103382403Y-112488582D01*
X103368543Y-112493541D01*
X103354264Y-112497118D01*
X103339703Y-112499278D01*
X103325000Y-112500000D01*
X103025000Y-112500000D01*
X103010297Y-112499278D01*
X102995736Y-112497118D01*
X102981457Y-112493541D01*
X102967597Y-112488582D01*
X102954290Y-112482288D01*
X102941664Y-112474720D01*
X102929841Y-112465952D01*
X102918934Y-112456066D01*
X102909048Y-112445159D01*
X102900280Y-112433336D01*
X102892712Y-112420710D01*
X102886418Y-112407403D01*
X102881459Y-112393543D01*
X102877882Y-112379264D01*
X102875722Y-112364703D01*
X102875000Y-112350000D01*
X102875000Y-110700000D01*
X102875722Y-110685297D01*
X102877882Y-110670736D01*
X102881459Y-110656457D01*
X102886418Y-110642597D01*
X102892712Y-110629290D01*
X102900280Y-110616664D01*
X102909048Y-110604841D01*
X102918934Y-110593934D01*
X102929841Y-110584048D01*
X102941664Y-110575280D01*
X102954290Y-110567712D01*
X102967597Y-110561418D01*
X102981457Y-110556459D01*
X102995736Y-110552882D01*
X103010297Y-110550722D01*
X103025000Y-110550000D01*
X103325000Y-110550000D01*
X103339703Y-110550722D01*
G37*
G36*
X104609703Y-110550722D02*
G01*
X104624264Y-110552882D01*
X104638543Y-110556459D01*
X104652403Y-110561418D01*
X104665710Y-110567712D01*
X104678336Y-110575280D01*
X104690159Y-110584048D01*
X104701066Y-110593934D01*
X104710952Y-110604841D01*
X104719720Y-110616664D01*
X104727288Y-110629290D01*
X104733582Y-110642597D01*
X104738541Y-110656457D01*
X104742118Y-110670736D01*
X104744278Y-110685297D01*
X104745000Y-110700000D01*
X104745000Y-112350000D01*
X104744278Y-112364703D01*
X104742118Y-112379264D01*
X104738541Y-112393543D01*
X104733582Y-112407403D01*
X104727288Y-112420710D01*
X104719720Y-112433336D01*
X104710952Y-112445159D01*
X104701066Y-112456066D01*
X104690159Y-112465952D01*
X104678336Y-112474720D01*
X104665710Y-112482288D01*
X104652403Y-112488582D01*
X104638543Y-112493541D01*
X104624264Y-112497118D01*
X104609703Y-112499278D01*
X104595000Y-112500000D01*
X104295000Y-112500000D01*
X104280297Y-112499278D01*
X104265736Y-112497118D01*
X104251457Y-112493541D01*
X104237597Y-112488582D01*
X104224290Y-112482288D01*
X104211664Y-112474720D01*
X104199841Y-112465952D01*
X104188934Y-112456066D01*
X104179048Y-112445159D01*
X104170280Y-112433336D01*
X104162712Y-112420710D01*
X104156418Y-112407403D01*
X104151459Y-112393543D01*
X104147882Y-112379264D01*
X104145722Y-112364703D01*
X104145000Y-112350000D01*
X104145000Y-110700000D01*
X104145722Y-110685297D01*
X104147882Y-110670736D01*
X104151459Y-110656457D01*
X104156418Y-110642597D01*
X104162712Y-110629290D01*
X104170280Y-110616664D01*
X104179048Y-110604841D01*
X104188934Y-110593934D01*
X104199841Y-110584048D01*
X104211664Y-110575280D01*
X104224290Y-110567712D01*
X104237597Y-110561418D01*
X104251457Y-110556459D01*
X104265736Y-110552882D01*
X104280297Y-110550722D01*
X104295000Y-110550000D01*
X104595000Y-110550000D01*
X104609703Y-110550722D01*
G37*
G36*
X102539703Y-78985722D02*
G01*
X102554264Y-78987882D01*
X102568543Y-78991459D01*
X102582403Y-78996418D01*
X102595710Y-79002712D01*
X102608336Y-79010280D01*
X102620159Y-79019048D01*
X102631066Y-79028934D01*
X102640952Y-79039841D01*
X102649720Y-79051664D01*
X102657288Y-79064290D01*
X102663582Y-79077597D01*
X102668541Y-79091457D01*
X102672118Y-79105736D01*
X102674278Y-79120297D01*
X102675000Y-79135000D01*
X102675000Y-79435000D01*
X102674278Y-79449703D01*
X102672118Y-79464264D01*
X102668541Y-79478543D01*
X102663582Y-79492403D01*
X102657288Y-79505710D01*
X102649720Y-79518336D01*
X102640952Y-79530159D01*
X102631066Y-79541066D01*
X102620159Y-79550952D01*
X102608336Y-79559720D01*
X102595710Y-79567288D01*
X102582403Y-79573582D01*
X102568543Y-79578541D01*
X102554264Y-79582118D01*
X102539703Y-79584278D01*
X102525000Y-79585000D01*
X100775000Y-79585000D01*
X100760297Y-79584278D01*
X100745736Y-79582118D01*
X100731457Y-79578541D01*
X100717597Y-79573582D01*
X100704290Y-79567288D01*
X100691664Y-79559720D01*
X100679841Y-79550952D01*
X100668934Y-79541066D01*
X100659048Y-79530159D01*
X100650280Y-79518336D01*
X100642712Y-79505710D01*
X100636418Y-79492403D01*
X100631459Y-79478543D01*
X100627882Y-79464264D01*
X100625722Y-79449703D01*
X100625000Y-79435000D01*
X100625000Y-79135000D01*
X100625722Y-79120297D01*
X100627882Y-79105736D01*
X100631459Y-79091457D01*
X100636418Y-79077597D01*
X100642712Y-79064290D01*
X100650280Y-79051664D01*
X100659048Y-79039841D01*
X100668934Y-79028934D01*
X100679841Y-79019048D01*
X100691664Y-79010280D01*
X100704290Y-79002712D01*
X100717597Y-78996418D01*
X100731457Y-78991459D01*
X100745736Y-78987882D01*
X100760297Y-78985722D01*
X100775000Y-78985000D01*
X102525000Y-78985000D01*
X102539703Y-78985722D01*
G37*
G36*
X102539703Y-80255722D02*
G01*
X102554264Y-80257882D01*
X102568543Y-80261459D01*
X102582403Y-80266418D01*
X102595710Y-80272712D01*
X102608336Y-80280280D01*
X102620159Y-80289048D01*
X102631066Y-80298934D01*
X102640952Y-80309841D01*
X102649720Y-80321664D01*
X102657288Y-80334290D01*
X102663582Y-80347597D01*
X102668541Y-80361457D01*
X102672118Y-80375736D01*
X102674278Y-80390297D01*
X102675000Y-80405000D01*
X102675000Y-80705000D01*
X102674278Y-80719703D01*
X102672118Y-80734264D01*
X102668541Y-80748543D01*
X102663582Y-80762403D01*
X102657288Y-80775710D01*
X102649720Y-80788336D01*
X102640952Y-80800159D01*
X102631066Y-80811066D01*
X102620159Y-80820952D01*
X102608336Y-80829720D01*
X102595710Y-80837288D01*
X102582403Y-80843582D01*
X102568543Y-80848541D01*
X102554264Y-80852118D01*
X102539703Y-80854278D01*
X102525000Y-80855000D01*
X100775000Y-80855000D01*
X100760297Y-80854278D01*
X100745736Y-80852118D01*
X100731457Y-80848541D01*
X100717597Y-80843582D01*
X100704290Y-80837288D01*
X100691664Y-80829720D01*
X100679841Y-80820952D01*
X100668934Y-80811066D01*
X100659048Y-80800159D01*
X100650280Y-80788336D01*
X100642712Y-80775710D01*
X100636418Y-80762403D01*
X100631459Y-80748543D01*
X100627882Y-80734264D01*
X100625722Y-80719703D01*
X100625000Y-80705000D01*
X100625000Y-80405000D01*
X100625722Y-80390297D01*
X100627882Y-80375736D01*
X100631459Y-80361457D01*
X100636418Y-80347597D01*
X100642712Y-80334290D01*
X100650280Y-80321664D01*
X100659048Y-80309841D01*
X100668934Y-80298934D01*
X100679841Y-80289048D01*
X100691664Y-80280280D01*
X100704290Y-80272712D01*
X100717597Y-80266418D01*
X100731457Y-80261459D01*
X100745736Y-80257882D01*
X100760297Y-80255722D01*
X100775000Y-80255000D01*
X102525000Y-80255000D01*
X102539703Y-80255722D01*
G37*
G36*
X102539703Y-81525722D02*
G01*
X102554264Y-81527882D01*
X102568543Y-81531459D01*
X102582403Y-81536418D01*
X102595710Y-81542712D01*
X102608336Y-81550280D01*
X102620159Y-81559048D01*
X102631066Y-81568934D01*
X102640952Y-81579841D01*
X102649720Y-81591664D01*
X102657288Y-81604290D01*
X102663582Y-81617597D01*
X102668541Y-81631457D01*
X102672118Y-81645736D01*
X102674278Y-81660297D01*
X102675000Y-81675000D01*
X102675000Y-81975000D01*
X102674278Y-81989703D01*
X102672118Y-82004264D01*
X102668541Y-82018543D01*
X102663582Y-82032403D01*
X102657288Y-82045710D01*
X102649720Y-82058336D01*
X102640952Y-82070159D01*
X102631066Y-82081066D01*
X102620159Y-82090952D01*
X102608336Y-82099720D01*
X102595710Y-82107288D01*
X102582403Y-82113582D01*
X102568543Y-82118541D01*
X102554264Y-82122118D01*
X102539703Y-82124278D01*
X102525000Y-82125000D01*
X100775000Y-82125000D01*
X100760297Y-82124278D01*
X100745736Y-82122118D01*
X100731457Y-82118541D01*
X100717597Y-82113582D01*
X100704290Y-82107288D01*
X100691664Y-82099720D01*
X100679841Y-82090952D01*
X100668934Y-82081066D01*
X100659048Y-82070159D01*
X100650280Y-82058336D01*
X100642712Y-82045710D01*
X100636418Y-82032403D01*
X100631459Y-82018543D01*
X100627882Y-82004264D01*
X100625722Y-81989703D01*
X100625000Y-81975000D01*
X100625000Y-81675000D01*
X100625722Y-81660297D01*
X100627882Y-81645736D01*
X100631459Y-81631457D01*
X100636418Y-81617597D01*
X100642712Y-81604290D01*
X100650280Y-81591664D01*
X100659048Y-81579841D01*
X100668934Y-81568934D01*
X100679841Y-81559048D01*
X100691664Y-81550280D01*
X100704290Y-81542712D01*
X100717597Y-81536418D01*
X100731457Y-81531459D01*
X100745736Y-81527882D01*
X100760297Y-81525722D01*
X100775000Y-81525000D01*
X102525000Y-81525000D01*
X102539703Y-81525722D01*
G37*
G36*
X102539703Y-82795722D02*
G01*
X102554264Y-82797882D01*
X102568543Y-82801459D01*
X102582403Y-82806418D01*
X102595710Y-82812712D01*
X102608336Y-82820280D01*
X102620159Y-82829048D01*
X102631066Y-82838934D01*
X102640952Y-82849841D01*
X102649720Y-82861664D01*
X102657288Y-82874290D01*
X102663582Y-82887597D01*
X102668541Y-82901457D01*
X102672118Y-82915736D01*
X102674278Y-82930297D01*
X102675000Y-82945000D01*
X102675000Y-83245000D01*
X102674278Y-83259703D01*
X102672118Y-83274264D01*
X102668541Y-83288543D01*
X102663582Y-83302403D01*
X102657288Y-83315710D01*
X102649720Y-83328336D01*
X102640952Y-83340159D01*
X102631066Y-83351066D01*
X102620159Y-83360952D01*
X102608336Y-83369720D01*
X102595710Y-83377288D01*
X102582403Y-83383582D01*
X102568543Y-83388541D01*
X102554264Y-83392118D01*
X102539703Y-83394278D01*
X102525000Y-83395000D01*
X100775000Y-83395000D01*
X100760297Y-83394278D01*
X100745736Y-83392118D01*
X100731457Y-83388541D01*
X100717597Y-83383582D01*
X100704290Y-83377288D01*
X100691664Y-83369720D01*
X100679841Y-83360952D01*
X100668934Y-83351066D01*
X100659048Y-83340159D01*
X100650280Y-83328336D01*
X100642712Y-83315710D01*
X100636418Y-83302403D01*
X100631459Y-83288543D01*
X100627882Y-83274264D01*
X100625722Y-83259703D01*
X100625000Y-83245000D01*
X100625000Y-82945000D01*
X100625722Y-82930297D01*
X100627882Y-82915736D01*
X100631459Y-82901457D01*
X100636418Y-82887597D01*
X100642712Y-82874290D01*
X100650280Y-82861664D01*
X100659048Y-82849841D01*
X100668934Y-82838934D01*
X100679841Y-82829048D01*
X100691664Y-82820280D01*
X100704290Y-82812712D01*
X100717597Y-82806418D01*
X100731457Y-82801459D01*
X100745736Y-82797882D01*
X100760297Y-82795722D01*
X100775000Y-82795000D01*
X102525000Y-82795000D01*
X102539703Y-82795722D01*
G37*
G36*
X102539703Y-84065722D02*
G01*
X102554264Y-84067882D01*
X102568543Y-84071459D01*
X102582403Y-84076418D01*
X102595710Y-84082712D01*
X102608336Y-84090280D01*
X102620159Y-84099048D01*
X102631066Y-84108934D01*
X102640952Y-84119841D01*
X102649720Y-84131664D01*
X102657288Y-84144290D01*
X102663582Y-84157597D01*
X102668541Y-84171457D01*
X102672118Y-84185736D01*
X102674278Y-84200297D01*
X102675000Y-84215000D01*
X102675000Y-84515000D01*
X102674278Y-84529703D01*
X102672118Y-84544264D01*
X102668541Y-84558543D01*
X102663582Y-84572403D01*
X102657288Y-84585710D01*
X102649720Y-84598336D01*
X102640952Y-84610159D01*
X102631066Y-84621066D01*
X102620159Y-84630952D01*
X102608336Y-84639720D01*
X102595710Y-84647288D01*
X102582403Y-84653582D01*
X102568543Y-84658541D01*
X102554264Y-84662118D01*
X102539703Y-84664278D01*
X102525000Y-84665000D01*
X100775000Y-84665000D01*
X100760297Y-84664278D01*
X100745736Y-84662118D01*
X100731457Y-84658541D01*
X100717597Y-84653582D01*
X100704290Y-84647288D01*
X100691664Y-84639720D01*
X100679841Y-84630952D01*
X100668934Y-84621066D01*
X100659048Y-84610159D01*
X100650280Y-84598336D01*
X100642712Y-84585710D01*
X100636418Y-84572403D01*
X100631459Y-84558543D01*
X100627882Y-84544264D01*
X100625722Y-84529703D01*
X100625000Y-84515000D01*
X100625000Y-84215000D01*
X100625722Y-84200297D01*
X100627882Y-84185736D01*
X100631459Y-84171457D01*
X100636418Y-84157597D01*
X100642712Y-84144290D01*
X100650280Y-84131664D01*
X100659048Y-84119841D01*
X100668934Y-84108934D01*
X100679841Y-84099048D01*
X100691664Y-84090280D01*
X100704290Y-84082712D01*
X100717597Y-84076418D01*
X100731457Y-84071459D01*
X100745736Y-84067882D01*
X100760297Y-84065722D01*
X100775000Y-84065000D01*
X102525000Y-84065000D01*
X102539703Y-84065722D01*
G37*
G36*
X102539703Y-85335722D02*
G01*
X102554264Y-85337882D01*
X102568543Y-85341459D01*
X102582403Y-85346418D01*
X102595710Y-85352712D01*
X102608336Y-85360280D01*
X102620159Y-85369048D01*
X102631066Y-85378934D01*
X102640952Y-85389841D01*
X102649720Y-85401664D01*
X102657288Y-85414290D01*
X102663582Y-85427597D01*
X102668541Y-85441457D01*
X102672118Y-85455736D01*
X102674278Y-85470297D01*
X102675000Y-85485000D01*
X102675000Y-85785000D01*
X102674278Y-85799703D01*
X102672118Y-85814264D01*
X102668541Y-85828543D01*
X102663582Y-85842403D01*
X102657288Y-85855710D01*
X102649720Y-85868336D01*
X102640952Y-85880159D01*
X102631066Y-85891066D01*
X102620159Y-85900952D01*
X102608336Y-85909720D01*
X102595710Y-85917288D01*
X102582403Y-85923582D01*
X102568543Y-85928541D01*
X102554264Y-85932118D01*
X102539703Y-85934278D01*
X102525000Y-85935000D01*
X100775000Y-85935000D01*
X100760297Y-85934278D01*
X100745736Y-85932118D01*
X100731457Y-85928541D01*
X100717597Y-85923582D01*
X100704290Y-85917288D01*
X100691664Y-85909720D01*
X100679841Y-85900952D01*
X100668934Y-85891066D01*
X100659048Y-85880159D01*
X100650280Y-85868336D01*
X100642712Y-85855710D01*
X100636418Y-85842403D01*
X100631459Y-85828543D01*
X100627882Y-85814264D01*
X100625722Y-85799703D01*
X100625000Y-85785000D01*
X100625000Y-85485000D01*
X100625722Y-85470297D01*
X100627882Y-85455736D01*
X100631459Y-85441457D01*
X100636418Y-85427597D01*
X100642712Y-85414290D01*
X100650280Y-85401664D01*
X100659048Y-85389841D01*
X100668934Y-85378934D01*
X100679841Y-85369048D01*
X100691664Y-85360280D01*
X100704290Y-85352712D01*
X100717597Y-85346418D01*
X100731457Y-85341459D01*
X100745736Y-85337882D01*
X100760297Y-85335722D01*
X100775000Y-85335000D01*
X102525000Y-85335000D01*
X102539703Y-85335722D01*
G37*
G36*
X102539703Y-86605722D02*
G01*
X102554264Y-86607882D01*
X102568543Y-86611459D01*
X102582403Y-86616418D01*
X102595710Y-86622712D01*
X102608336Y-86630280D01*
X102620159Y-86639048D01*
X102631066Y-86648934D01*
X102640952Y-86659841D01*
X102649720Y-86671664D01*
X102657288Y-86684290D01*
X102663582Y-86697597D01*
X102668541Y-86711457D01*
X102672118Y-86725736D01*
X102674278Y-86740297D01*
X102675000Y-86755000D01*
X102675000Y-87055000D01*
X102674278Y-87069703D01*
X102672118Y-87084264D01*
X102668541Y-87098543D01*
X102663582Y-87112403D01*
X102657288Y-87125710D01*
X102649720Y-87138336D01*
X102640952Y-87150159D01*
X102631066Y-87161066D01*
X102620159Y-87170952D01*
X102608336Y-87179720D01*
X102595710Y-87187288D01*
X102582403Y-87193582D01*
X102568543Y-87198541D01*
X102554264Y-87202118D01*
X102539703Y-87204278D01*
X102525000Y-87205000D01*
X100775000Y-87205000D01*
X100760297Y-87204278D01*
X100745736Y-87202118D01*
X100731457Y-87198541D01*
X100717597Y-87193582D01*
X100704290Y-87187288D01*
X100691664Y-87179720D01*
X100679841Y-87170952D01*
X100668934Y-87161066D01*
X100659048Y-87150159D01*
X100650280Y-87138336D01*
X100642712Y-87125710D01*
X100636418Y-87112403D01*
X100631459Y-87098543D01*
X100627882Y-87084264D01*
X100625722Y-87069703D01*
X100625000Y-87055000D01*
X100625000Y-86755000D01*
X100625722Y-86740297D01*
X100627882Y-86725736D01*
X100631459Y-86711457D01*
X100636418Y-86697597D01*
X100642712Y-86684290D01*
X100650280Y-86671664D01*
X100659048Y-86659841D01*
X100668934Y-86648934D01*
X100679841Y-86639048D01*
X100691664Y-86630280D01*
X100704290Y-86622712D01*
X100717597Y-86616418D01*
X100731457Y-86611459D01*
X100745736Y-86607882D01*
X100760297Y-86605722D01*
X100775000Y-86605000D01*
X102525000Y-86605000D01*
X102539703Y-86605722D01*
G37*
G36*
X102539703Y-87875722D02*
G01*
X102554264Y-87877882D01*
X102568543Y-87881459D01*
X102582403Y-87886418D01*
X102595710Y-87892712D01*
X102608336Y-87900280D01*
X102620159Y-87909048D01*
X102631066Y-87918934D01*
X102640952Y-87929841D01*
X102649720Y-87941664D01*
X102657288Y-87954290D01*
X102663582Y-87967597D01*
X102668541Y-87981457D01*
X102672118Y-87995736D01*
X102674278Y-88010297D01*
X102675000Y-88025000D01*
X102675000Y-88325000D01*
X102674278Y-88339703D01*
X102672118Y-88354264D01*
X102668541Y-88368543D01*
X102663582Y-88382403D01*
X102657288Y-88395710D01*
X102649720Y-88408336D01*
X102640952Y-88420159D01*
X102631066Y-88431066D01*
X102620159Y-88440952D01*
X102608336Y-88449720D01*
X102595710Y-88457288D01*
X102582403Y-88463582D01*
X102568543Y-88468541D01*
X102554264Y-88472118D01*
X102539703Y-88474278D01*
X102525000Y-88475000D01*
X100775000Y-88475000D01*
X100760297Y-88474278D01*
X100745736Y-88472118D01*
X100731457Y-88468541D01*
X100717597Y-88463582D01*
X100704290Y-88457288D01*
X100691664Y-88449720D01*
X100679841Y-88440952D01*
X100668934Y-88431066D01*
X100659048Y-88420159D01*
X100650280Y-88408336D01*
X100642712Y-88395710D01*
X100636418Y-88382403D01*
X100631459Y-88368543D01*
X100627882Y-88354264D01*
X100625722Y-88339703D01*
X100625000Y-88325000D01*
X100625000Y-88025000D01*
X100625722Y-88010297D01*
X100627882Y-87995736D01*
X100631459Y-87981457D01*
X100636418Y-87967597D01*
X100642712Y-87954290D01*
X100650280Y-87941664D01*
X100659048Y-87929841D01*
X100668934Y-87918934D01*
X100679841Y-87909048D01*
X100691664Y-87900280D01*
X100704290Y-87892712D01*
X100717597Y-87886418D01*
X100731457Y-87881459D01*
X100745736Y-87877882D01*
X100760297Y-87875722D01*
X100775000Y-87875000D01*
X102525000Y-87875000D01*
X102539703Y-87875722D01*
G37*
G36*
X102539703Y-89145722D02*
G01*
X102554264Y-89147882D01*
X102568543Y-89151459D01*
X102582403Y-89156418D01*
X102595710Y-89162712D01*
X102608336Y-89170280D01*
X102620159Y-89179048D01*
X102631066Y-89188934D01*
X102640952Y-89199841D01*
X102649720Y-89211664D01*
X102657288Y-89224290D01*
X102663582Y-89237597D01*
X102668541Y-89251457D01*
X102672118Y-89265736D01*
X102674278Y-89280297D01*
X102675000Y-89295000D01*
X102675000Y-89595000D01*
X102674278Y-89609703D01*
X102672118Y-89624264D01*
X102668541Y-89638543D01*
X102663582Y-89652403D01*
X102657288Y-89665710D01*
X102649720Y-89678336D01*
X102640952Y-89690159D01*
X102631066Y-89701066D01*
X102620159Y-89710952D01*
X102608336Y-89719720D01*
X102595710Y-89727288D01*
X102582403Y-89733582D01*
X102568543Y-89738541D01*
X102554264Y-89742118D01*
X102539703Y-89744278D01*
X102525000Y-89745000D01*
X100775000Y-89745000D01*
X100760297Y-89744278D01*
X100745736Y-89742118D01*
X100731457Y-89738541D01*
X100717597Y-89733582D01*
X100704290Y-89727288D01*
X100691664Y-89719720D01*
X100679841Y-89710952D01*
X100668934Y-89701066D01*
X100659048Y-89690159D01*
X100650280Y-89678336D01*
X100642712Y-89665710D01*
X100636418Y-89652403D01*
X100631459Y-89638543D01*
X100627882Y-89624264D01*
X100625722Y-89609703D01*
X100625000Y-89595000D01*
X100625000Y-89295000D01*
X100625722Y-89280297D01*
X100627882Y-89265736D01*
X100631459Y-89251457D01*
X100636418Y-89237597D01*
X100642712Y-89224290D01*
X100650280Y-89211664D01*
X100659048Y-89199841D01*
X100668934Y-89188934D01*
X100679841Y-89179048D01*
X100691664Y-89170280D01*
X100704290Y-89162712D01*
X100717597Y-89156418D01*
X100731457Y-89151459D01*
X100745736Y-89147882D01*
X100760297Y-89145722D01*
X100775000Y-89145000D01*
X102525000Y-89145000D01*
X102539703Y-89145722D01*
G37*
G36*
X102539703Y-90415722D02*
G01*
X102554264Y-90417882D01*
X102568543Y-90421459D01*
X102582403Y-90426418D01*
X102595710Y-90432712D01*
X102608336Y-90440280D01*
X102620159Y-90449048D01*
X102631066Y-90458934D01*
X102640952Y-90469841D01*
X102649720Y-90481664D01*
X102657288Y-90494290D01*
X102663582Y-90507597D01*
X102668541Y-90521457D01*
X102672118Y-90535736D01*
X102674278Y-90550297D01*
X102675000Y-90565000D01*
X102675000Y-90865000D01*
X102674278Y-90879703D01*
X102672118Y-90894264D01*
X102668541Y-90908543D01*
X102663582Y-90922403D01*
X102657288Y-90935710D01*
X102649720Y-90948336D01*
X102640952Y-90960159D01*
X102631066Y-90971066D01*
X102620159Y-90980952D01*
X102608336Y-90989720D01*
X102595710Y-90997288D01*
X102582403Y-91003582D01*
X102568543Y-91008541D01*
X102554264Y-91012118D01*
X102539703Y-91014278D01*
X102525000Y-91015000D01*
X100775000Y-91015000D01*
X100760297Y-91014278D01*
X100745736Y-91012118D01*
X100731457Y-91008541D01*
X100717597Y-91003582D01*
X100704290Y-90997288D01*
X100691664Y-90989720D01*
X100679841Y-90980952D01*
X100668934Y-90971066D01*
X100659048Y-90960159D01*
X100650280Y-90948336D01*
X100642712Y-90935710D01*
X100636418Y-90922403D01*
X100631459Y-90908543D01*
X100627882Y-90894264D01*
X100625722Y-90879703D01*
X100625000Y-90865000D01*
X100625000Y-90565000D01*
X100625722Y-90550297D01*
X100627882Y-90535736D01*
X100631459Y-90521457D01*
X100636418Y-90507597D01*
X100642712Y-90494290D01*
X100650280Y-90481664D01*
X100659048Y-90469841D01*
X100668934Y-90458934D01*
X100679841Y-90449048D01*
X100691664Y-90440280D01*
X100704290Y-90432712D01*
X100717597Y-90426418D01*
X100731457Y-90421459D01*
X100745736Y-90417882D01*
X100760297Y-90415722D01*
X100775000Y-90415000D01*
X102525000Y-90415000D01*
X102539703Y-90415722D01*
G37*
G36*
X93239703Y-90415722D02*
G01*
X93254264Y-90417882D01*
X93268543Y-90421459D01*
X93282403Y-90426418D01*
X93295710Y-90432712D01*
X93308336Y-90440280D01*
X93320159Y-90449048D01*
X93331066Y-90458934D01*
X93340952Y-90469841D01*
X93349720Y-90481664D01*
X93357288Y-90494290D01*
X93363582Y-90507597D01*
X93368541Y-90521457D01*
X93372118Y-90535736D01*
X93374278Y-90550297D01*
X93375000Y-90565000D01*
X93375000Y-90865000D01*
X93374278Y-90879703D01*
X93372118Y-90894264D01*
X93368541Y-90908543D01*
X93363582Y-90922403D01*
X93357288Y-90935710D01*
X93349720Y-90948336D01*
X93340952Y-90960159D01*
X93331066Y-90971066D01*
X93320159Y-90980952D01*
X93308336Y-90989720D01*
X93295710Y-90997288D01*
X93282403Y-91003582D01*
X93268543Y-91008541D01*
X93254264Y-91012118D01*
X93239703Y-91014278D01*
X93225000Y-91015000D01*
X91475000Y-91015000D01*
X91460297Y-91014278D01*
X91445736Y-91012118D01*
X91431457Y-91008541D01*
X91417597Y-91003582D01*
X91404290Y-90997288D01*
X91391664Y-90989720D01*
X91379841Y-90980952D01*
X91368934Y-90971066D01*
X91359048Y-90960159D01*
X91350280Y-90948336D01*
X91342712Y-90935710D01*
X91336418Y-90922403D01*
X91331459Y-90908543D01*
X91327882Y-90894264D01*
X91325722Y-90879703D01*
X91325000Y-90865000D01*
X91325000Y-90565000D01*
X91325722Y-90550297D01*
X91327882Y-90535736D01*
X91331459Y-90521457D01*
X91336418Y-90507597D01*
X91342712Y-90494290D01*
X91350280Y-90481664D01*
X91359048Y-90469841D01*
X91368934Y-90458934D01*
X91379841Y-90449048D01*
X91391664Y-90440280D01*
X91404290Y-90432712D01*
X91417597Y-90426418D01*
X91431457Y-90421459D01*
X91445736Y-90417882D01*
X91460297Y-90415722D01*
X91475000Y-90415000D01*
X93225000Y-90415000D01*
X93239703Y-90415722D01*
G37*
G36*
X93239703Y-89145722D02*
G01*
X93254264Y-89147882D01*
X93268543Y-89151459D01*
X93282403Y-89156418D01*
X93295710Y-89162712D01*
X93308336Y-89170280D01*
X93320159Y-89179048D01*
X93331066Y-89188934D01*
X93340952Y-89199841D01*
X93349720Y-89211664D01*
X93357288Y-89224290D01*
X93363582Y-89237597D01*
X93368541Y-89251457D01*
X93372118Y-89265736D01*
X93374278Y-89280297D01*
X93375000Y-89295000D01*
X93375000Y-89595000D01*
X93374278Y-89609703D01*
X93372118Y-89624264D01*
X93368541Y-89638543D01*
X93363582Y-89652403D01*
X93357288Y-89665710D01*
X93349720Y-89678336D01*
X93340952Y-89690159D01*
X93331066Y-89701066D01*
X93320159Y-89710952D01*
X93308336Y-89719720D01*
X93295710Y-89727288D01*
X93282403Y-89733582D01*
X93268543Y-89738541D01*
X93254264Y-89742118D01*
X93239703Y-89744278D01*
X93225000Y-89745000D01*
X91475000Y-89745000D01*
X91460297Y-89744278D01*
X91445736Y-89742118D01*
X91431457Y-89738541D01*
X91417597Y-89733582D01*
X91404290Y-89727288D01*
X91391664Y-89719720D01*
X91379841Y-89710952D01*
X91368934Y-89701066D01*
X91359048Y-89690159D01*
X91350280Y-89678336D01*
X91342712Y-89665710D01*
X91336418Y-89652403D01*
X91331459Y-89638543D01*
X91327882Y-89624264D01*
X91325722Y-89609703D01*
X91325000Y-89595000D01*
X91325000Y-89295000D01*
X91325722Y-89280297D01*
X91327882Y-89265736D01*
X91331459Y-89251457D01*
X91336418Y-89237597D01*
X91342712Y-89224290D01*
X91350280Y-89211664D01*
X91359048Y-89199841D01*
X91368934Y-89188934D01*
X91379841Y-89179048D01*
X91391664Y-89170280D01*
X91404290Y-89162712D01*
X91417597Y-89156418D01*
X91431457Y-89151459D01*
X91445736Y-89147882D01*
X91460297Y-89145722D01*
X91475000Y-89145000D01*
X93225000Y-89145000D01*
X93239703Y-89145722D01*
G37*
G36*
X93239703Y-87875722D02*
G01*
X93254264Y-87877882D01*
X93268543Y-87881459D01*
X93282403Y-87886418D01*
X93295710Y-87892712D01*
X93308336Y-87900280D01*
X93320159Y-87909048D01*
X93331066Y-87918934D01*
X93340952Y-87929841D01*
X93349720Y-87941664D01*
X93357288Y-87954290D01*
X93363582Y-87967597D01*
X93368541Y-87981457D01*
X93372118Y-87995736D01*
X93374278Y-88010297D01*
X93375000Y-88025000D01*
X93375000Y-88325000D01*
X93374278Y-88339703D01*
X93372118Y-88354264D01*
X93368541Y-88368543D01*
X93363582Y-88382403D01*
X93357288Y-88395710D01*
X93349720Y-88408336D01*
X93340952Y-88420159D01*
X93331066Y-88431066D01*
X93320159Y-88440952D01*
X93308336Y-88449720D01*
X93295710Y-88457288D01*
X93282403Y-88463582D01*
X93268543Y-88468541D01*
X93254264Y-88472118D01*
X93239703Y-88474278D01*
X93225000Y-88475000D01*
X91475000Y-88475000D01*
X91460297Y-88474278D01*
X91445736Y-88472118D01*
X91431457Y-88468541D01*
X91417597Y-88463582D01*
X91404290Y-88457288D01*
X91391664Y-88449720D01*
X91379841Y-88440952D01*
X91368934Y-88431066D01*
X91359048Y-88420159D01*
X91350280Y-88408336D01*
X91342712Y-88395710D01*
X91336418Y-88382403D01*
X91331459Y-88368543D01*
X91327882Y-88354264D01*
X91325722Y-88339703D01*
X91325000Y-88325000D01*
X91325000Y-88025000D01*
X91325722Y-88010297D01*
X91327882Y-87995736D01*
X91331459Y-87981457D01*
X91336418Y-87967597D01*
X91342712Y-87954290D01*
X91350280Y-87941664D01*
X91359048Y-87929841D01*
X91368934Y-87918934D01*
X91379841Y-87909048D01*
X91391664Y-87900280D01*
X91404290Y-87892712D01*
X91417597Y-87886418D01*
X91431457Y-87881459D01*
X91445736Y-87877882D01*
X91460297Y-87875722D01*
X91475000Y-87875000D01*
X93225000Y-87875000D01*
X93239703Y-87875722D01*
G37*
G36*
X93239703Y-86605722D02*
G01*
X93254264Y-86607882D01*
X93268543Y-86611459D01*
X93282403Y-86616418D01*
X93295710Y-86622712D01*
X93308336Y-86630280D01*
X93320159Y-86639048D01*
X93331066Y-86648934D01*
X93340952Y-86659841D01*
X93349720Y-86671664D01*
X93357288Y-86684290D01*
X93363582Y-86697597D01*
X93368541Y-86711457D01*
X93372118Y-86725736D01*
X93374278Y-86740297D01*
X93375000Y-86755000D01*
X93375000Y-87055000D01*
X93374278Y-87069703D01*
X93372118Y-87084264D01*
X93368541Y-87098543D01*
X93363582Y-87112403D01*
X93357288Y-87125710D01*
X93349720Y-87138336D01*
X93340952Y-87150159D01*
X93331066Y-87161066D01*
X93320159Y-87170952D01*
X93308336Y-87179720D01*
X93295710Y-87187288D01*
X93282403Y-87193582D01*
X93268543Y-87198541D01*
X93254264Y-87202118D01*
X93239703Y-87204278D01*
X93225000Y-87205000D01*
X91475000Y-87205000D01*
X91460297Y-87204278D01*
X91445736Y-87202118D01*
X91431457Y-87198541D01*
X91417597Y-87193582D01*
X91404290Y-87187288D01*
X91391664Y-87179720D01*
X91379841Y-87170952D01*
X91368934Y-87161066D01*
X91359048Y-87150159D01*
X91350280Y-87138336D01*
X91342712Y-87125710D01*
X91336418Y-87112403D01*
X91331459Y-87098543D01*
X91327882Y-87084264D01*
X91325722Y-87069703D01*
X91325000Y-87055000D01*
X91325000Y-86755000D01*
X91325722Y-86740297D01*
X91327882Y-86725736D01*
X91331459Y-86711457D01*
X91336418Y-86697597D01*
X91342712Y-86684290D01*
X91350280Y-86671664D01*
X91359048Y-86659841D01*
X91368934Y-86648934D01*
X91379841Y-86639048D01*
X91391664Y-86630280D01*
X91404290Y-86622712D01*
X91417597Y-86616418D01*
X91431457Y-86611459D01*
X91445736Y-86607882D01*
X91460297Y-86605722D01*
X91475000Y-86605000D01*
X93225000Y-86605000D01*
X93239703Y-86605722D01*
G37*
G36*
X93239703Y-85335722D02*
G01*
X93254264Y-85337882D01*
X93268543Y-85341459D01*
X93282403Y-85346418D01*
X93295710Y-85352712D01*
X93308336Y-85360280D01*
X93320159Y-85369048D01*
X93331066Y-85378934D01*
X93340952Y-85389841D01*
X93349720Y-85401664D01*
X93357288Y-85414290D01*
X93363582Y-85427597D01*
X93368541Y-85441457D01*
X93372118Y-85455736D01*
X93374278Y-85470297D01*
X93375000Y-85485000D01*
X93375000Y-85785000D01*
X93374278Y-85799703D01*
X93372118Y-85814264D01*
X93368541Y-85828543D01*
X93363582Y-85842403D01*
X93357288Y-85855710D01*
X93349720Y-85868336D01*
X93340952Y-85880159D01*
X93331066Y-85891066D01*
X93320159Y-85900952D01*
X93308336Y-85909720D01*
X93295710Y-85917288D01*
X93282403Y-85923582D01*
X93268543Y-85928541D01*
X93254264Y-85932118D01*
X93239703Y-85934278D01*
X93225000Y-85935000D01*
X91475000Y-85935000D01*
X91460297Y-85934278D01*
X91445736Y-85932118D01*
X91431457Y-85928541D01*
X91417597Y-85923582D01*
X91404290Y-85917288D01*
X91391664Y-85909720D01*
X91379841Y-85900952D01*
X91368934Y-85891066D01*
X91359048Y-85880159D01*
X91350280Y-85868336D01*
X91342712Y-85855710D01*
X91336418Y-85842403D01*
X91331459Y-85828543D01*
X91327882Y-85814264D01*
X91325722Y-85799703D01*
X91325000Y-85785000D01*
X91325000Y-85485000D01*
X91325722Y-85470297D01*
X91327882Y-85455736D01*
X91331459Y-85441457D01*
X91336418Y-85427597D01*
X91342712Y-85414290D01*
X91350280Y-85401664D01*
X91359048Y-85389841D01*
X91368934Y-85378934D01*
X91379841Y-85369048D01*
X91391664Y-85360280D01*
X91404290Y-85352712D01*
X91417597Y-85346418D01*
X91431457Y-85341459D01*
X91445736Y-85337882D01*
X91460297Y-85335722D01*
X91475000Y-85335000D01*
X93225000Y-85335000D01*
X93239703Y-85335722D01*
G37*
G36*
X93239703Y-84065722D02*
G01*
X93254264Y-84067882D01*
X93268543Y-84071459D01*
X93282403Y-84076418D01*
X93295710Y-84082712D01*
X93308336Y-84090280D01*
X93320159Y-84099048D01*
X93331066Y-84108934D01*
X93340952Y-84119841D01*
X93349720Y-84131664D01*
X93357288Y-84144290D01*
X93363582Y-84157597D01*
X93368541Y-84171457D01*
X93372118Y-84185736D01*
X93374278Y-84200297D01*
X93375000Y-84215000D01*
X93375000Y-84515000D01*
X93374278Y-84529703D01*
X93372118Y-84544264D01*
X93368541Y-84558543D01*
X93363582Y-84572403D01*
X93357288Y-84585710D01*
X93349720Y-84598336D01*
X93340952Y-84610159D01*
X93331066Y-84621066D01*
X93320159Y-84630952D01*
X93308336Y-84639720D01*
X93295710Y-84647288D01*
X93282403Y-84653582D01*
X93268543Y-84658541D01*
X93254264Y-84662118D01*
X93239703Y-84664278D01*
X93225000Y-84665000D01*
X91475000Y-84665000D01*
X91460297Y-84664278D01*
X91445736Y-84662118D01*
X91431457Y-84658541D01*
X91417597Y-84653582D01*
X91404290Y-84647288D01*
X91391664Y-84639720D01*
X91379841Y-84630952D01*
X91368934Y-84621066D01*
X91359048Y-84610159D01*
X91350280Y-84598336D01*
X91342712Y-84585710D01*
X91336418Y-84572403D01*
X91331459Y-84558543D01*
X91327882Y-84544264D01*
X91325722Y-84529703D01*
X91325000Y-84515000D01*
X91325000Y-84215000D01*
X91325722Y-84200297D01*
X91327882Y-84185736D01*
X91331459Y-84171457D01*
X91336418Y-84157597D01*
X91342712Y-84144290D01*
X91350280Y-84131664D01*
X91359048Y-84119841D01*
X91368934Y-84108934D01*
X91379841Y-84099048D01*
X91391664Y-84090280D01*
X91404290Y-84082712D01*
X91417597Y-84076418D01*
X91431457Y-84071459D01*
X91445736Y-84067882D01*
X91460297Y-84065722D01*
X91475000Y-84065000D01*
X93225000Y-84065000D01*
X93239703Y-84065722D01*
G37*
G36*
X93239703Y-82795722D02*
G01*
X93254264Y-82797882D01*
X93268543Y-82801459D01*
X93282403Y-82806418D01*
X93295710Y-82812712D01*
X93308336Y-82820280D01*
X93320159Y-82829048D01*
X93331066Y-82838934D01*
X93340952Y-82849841D01*
X93349720Y-82861664D01*
X93357288Y-82874290D01*
X93363582Y-82887597D01*
X93368541Y-82901457D01*
X93372118Y-82915736D01*
X93374278Y-82930297D01*
X93375000Y-82945000D01*
X93375000Y-83245000D01*
X93374278Y-83259703D01*
X93372118Y-83274264D01*
X93368541Y-83288543D01*
X93363582Y-83302403D01*
X93357288Y-83315710D01*
X93349720Y-83328336D01*
X93340952Y-83340159D01*
X93331066Y-83351066D01*
X93320159Y-83360952D01*
X93308336Y-83369720D01*
X93295710Y-83377288D01*
X93282403Y-83383582D01*
X93268543Y-83388541D01*
X93254264Y-83392118D01*
X93239703Y-83394278D01*
X93225000Y-83395000D01*
X91475000Y-83395000D01*
X91460297Y-83394278D01*
X91445736Y-83392118D01*
X91431457Y-83388541D01*
X91417597Y-83383582D01*
X91404290Y-83377288D01*
X91391664Y-83369720D01*
X91379841Y-83360952D01*
X91368934Y-83351066D01*
X91359048Y-83340159D01*
X91350280Y-83328336D01*
X91342712Y-83315710D01*
X91336418Y-83302403D01*
X91331459Y-83288543D01*
X91327882Y-83274264D01*
X91325722Y-83259703D01*
X91325000Y-83245000D01*
X91325000Y-82945000D01*
X91325722Y-82930297D01*
X91327882Y-82915736D01*
X91331459Y-82901457D01*
X91336418Y-82887597D01*
X91342712Y-82874290D01*
X91350280Y-82861664D01*
X91359048Y-82849841D01*
X91368934Y-82838934D01*
X91379841Y-82829048D01*
X91391664Y-82820280D01*
X91404290Y-82812712D01*
X91417597Y-82806418D01*
X91431457Y-82801459D01*
X91445736Y-82797882D01*
X91460297Y-82795722D01*
X91475000Y-82795000D01*
X93225000Y-82795000D01*
X93239703Y-82795722D01*
G37*
G36*
X93239703Y-81525722D02*
G01*
X93254264Y-81527882D01*
X93268543Y-81531459D01*
X93282403Y-81536418D01*
X93295710Y-81542712D01*
X93308336Y-81550280D01*
X93320159Y-81559048D01*
X93331066Y-81568934D01*
X93340952Y-81579841D01*
X93349720Y-81591664D01*
X93357288Y-81604290D01*
X93363582Y-81617597D01*
X93368541Y-81631457D01*
X93372118Y-81645736D01*
X93374278Y-81660297D01*
X93375000Y-81675000D01*
X93375000Y-81975000D01*
X93374278Y-81989703D01*
X93372118Y-82004264D01*
X93368541Y-82018543D01*
X93363582Y-82032403D01*
X93357288Y-82045710D01*
X93349720Y-82058336D01*
X93340952Y-82070159D01*
X93331066Y-82081066D01*
X93320159Y-82090952D01*
X93308336Y-82099720D01*
X93295710Y-82107288D01*
X93282403Y-82113582D01*
X93268543Y-82118541D01*
X93254264Y-82122118D01*
X93239703Y-82124278D01*
X93225000Y-82125000D01*
X91475000Y-82125000D01*
X91460297Y-82124278D01*
X91445736Y-82122118D01*
X91431457Y-82118541D01*
X91417597Y-82113582D01*
X91404290Y-82107288D01*
X91391664Y-82099720D01*
X91379841Y-82090952D01*
X91368934Y-82081066D01*
X91359048Y-82070159D01*
X91350280Y-82058336D01*
X91342712Y-82045710D01*
X91336418Y-82032403D01*
X91331459Y-82018543D01*
X91327882Y-82004264D01*
X91325722Y-81989703D01*
X91325000Y-81975000D01*
X91325000Y-81675000D01*
X91325722Y-81660297D01*
X91327882Y-81645736D01*
X91331459Y-81631457D01*
X91336418Y-81617597D01*
X91342712Y-81604290D01*
X91350280Y-81591664D01*
X91359048Y-81579841D01*
X91368934Y-81568934D01*
X91379841Y-81559048D01*
X91391664Y-81550280D01*
X91404290Y-81542712D01*
X91417597Y-81536418D01*
X91431457Y-81531459D01*
X91445736Y-81527882D01*
X91460297Y-81525722D01*
X91475000Y-81525000D01*
X93225000Y-81525000D01*
X93239703Y-81525722D01*
G37*
G36*
X93239703Y-80255722D02*
G01*
X93254264Y-80257882D01*
X93268543Y-80261459D01*
X93282403Y-80266418D01*
X93295710Y-80272712D01*
X93308336Y-80280280D01*
X93320159Y-80289048D01*
X93331066Y-80298934D01*
X93340952Y-80309841D01*
X93349720Y-80321664D01*
X93357288Y-80334290D01*
X93363582Y-80347597D01*
X93368541Y-80361457D01*
X93372118Y-80375736D01*
X93374278Y-80390297D01*
X93375000Y-80405000D01*
X93375000Y-80705000D01*
X93374278Y-80719703D01*
X93372118Y-80734264D01*
X93368541Y-80748543D01*
X93363582Y-80762403D01*
X93357288Y-80775710D01*
X93349720Y-80788336D01*
X93340952Y-80800159D01*
X93331066Y-80811066D01*
X93320159Y-80820952D01*
X93308336Y-80829720D01*
X93295710Y-80837288D01*
X93282403Y-80843582D01*
X93268543Y-80848541D01*
X93254264Y-80852118D01*
X93239703Y-80854278D01*
X93225000Y-80855000D01*
X91475000Y-80855000D01*
X91460297Y-80854278D01*
X91445736Y-80852118D01*
X91431457Y-80848541D01*
X91417597Y-80843582D01*
X91404290Y-80837288D01*
X91391664Y-80829720D01*
X91379841Y-80820952D01*
X91368934Y-80811066D01*
X91359048Y-80800159D01*
X91350280Y-80788336D01*
X91342712Y-80775710D01*
X91336418Y-80762403D01*
X91331459Y-80748543D01*
X91327882Y-80734264D01*
X91325722Y-80719703D01*
X91325000Y-80705000D01*
X91325000Y-80405000D01*
X91325722Y-80390297D01*
X91327882Y-80375736D01*
X91331459Y-80361457D01*
X91336418Y-80347597D01*
X91342712Y-80334290D01*
X91350280Y-80321664D01*
X91359048Y-80309841D01*
X91368934Y-80298934D01*
X91379841Y-80289048D01*
X91391664Y-80280280D01*
X91404290Y-80272712D01*
X91417597Y-80266418D01*
X91431457Y-80261459D01*
X91445736Y-80257882D01*
X91460297Y-80255722D01*
X91475000Y-80255000D01*
X93225000Y-80255000D01*
X93239703Y-80255722D01*
G37*
G36*
X93239703Y-78985722D02*
G01*
X93254264Y-78987882D01*
X93268543Y-78991459D01*
X93282403Y-78996418D01*
X93295710Y-79002712D01*
X93308336Y-79010280D01*
X93320159Y-79019048D01*
X93331066Y-79028934D01*
X93340952Y-79039841D01*
X93349720Y-79051664D01*
X93357288Y-79064290D01*
X93363582Y-79077597D01*
X93368541Y-79091457D01*
X93372118Y-79105736D01*
X93374278Y-79120297D01*
X93375000Y-79135000D01*
X93375000Y-79435000D01*
X93374278Y-79449703D01*
X93372118Y-79464264D01*
X93368541Y-79478543D01*
X93363582Y-79492403D01*
X93357288Y-79505710D01*
X93349720Y-79518336D01*
X93340952Y-79530159D01*
X93331066Y-79541066D01*
X93320159Y-79550952D01*
X93308336Y-79559720D01*
X93295710Y-79567288D01*
X93282403Y-79573582D01*
X93268543Y-79578541D01*
X93254264Y-79582118D01*
X93239703Y-79584278D01*
X93225000Y-79585000D01*
X91475000Y-79585000D01*
X91460297Y-79584278D01*
X91445736Y-79582118D01*
X91431457Y-79578541D01*
X91417597Y-79573582D01*
X91404290Y-79567288D01*
X91391664Y-79559720D01*
X91379841Y-79550952D01*
X91368934Y-79541066D01*
X91359048Y-79530159D01*
X91350280Y-79518336D01*
X91342712Y-79505710D01*
X91336418Y-79492403D01*
X91331459Y-79478543D01*
X91327882Y-79464264D01*
X91325722Y-79449703D01*
X91325000Y-79435000D01*
X91325000Y-79135000D01*
X91325722Y-79120297D01*
X91327882Y-79105736D01*
X91331459Y-79091457D01*
X91336418Y-79077597D01*
X91342712Y-79064290D01*
X91350280Y-79051664D01*
X91359048Y-79039841D01*
X91368934Y-79028934D01*
X91379841Y-79019048D01*
X91391664Y-79010280D01*
X91404290Y-79002712D01*
X91417597Y-78996418D01*
X91431457Y-78991459D01*
X91445736Y-78987882D01*
X91460297Y-78985722D01*
X91475000Y-78985000D01*
X93225000Y-78985000D01*
X93239703Y-78985722D01*
G37*
G36*
X115474505Y-111401204D02*
G01*
X115498773Y-111404804D01*
X115522572Y-111410765D01*
X115545671Y-111419030D01*
X115567850Y-111429520D01*
X115588893Y-111442132D01*
X115608599Y-111456747D01*
X115626777Y-111473223D01*
X115643253Y-111491401D01*
X115657868Y-111511107D01*
X115670480Y-111532150D01*
X115680970Y-111554329D01*
X115689235Y-111577428D01*
X115695196Y-111601227D01*
X115698796Y-111625495D01*
X115700000Y-111649999D01*
X115700000Y-112300001D01*
X115698796Y-112324505D01*
X115695196Y-112348773D01*
X115689235Y-112372572D01*
X115680970Y-112395671D01*
X115670480Y-112417850D01*
X115657868Y-112438893D01*
X115643253Y-112458599D01*
X115626777Y-112476777D01*
X115608599Y-112493253D01*
X115588893Y-112507868D01*
X115567850Y-112520480D01*
X115545671Y-112530970D01*
X115522572Y-112539235D01*
X115498773Y-112545196D01*
X115474505Y-112548796D01*
X115450001Y-112550000D01*
X114549999Y-112550000D01*
X114525495Y-112548796D01*
X114501227Y-112545196D01*
X114477428Y-112539235D01*
X114454329Y-112530970D01*
X114432150Y-112520480D01*
X114411107Y-112507868D01*
X114391401Y-112493253D01*
X114373223Y-112476777D01*
X114356747Y-112458599D01*
X114342132Y-112438893D01*
X114329520Y-112417850D01*
X114319030Y-112395671D01*
X114310765Y-112372572D01*
X114304804Y-112348773D01*
X114301204Y-112324505D01*
X114300000Y-112300001D01*
X114300000Y-111649999D01*
X114301204Y-111625495D01*
X114304804Y-111601227D01*
X114310765Y-111577428D01*
X114319030Y-111554329D01*
X114329520Y-111532150D01*
X114342132Y-111511107D01*
X114356747Y-111491401D01*
X114373223Y-111473223D01*
X114391401Y-111456747D01*
X114411107Y-111442132D01*
X114432150Y-111429520D01*
X114454329Y-111419030D01*
X114477428Y-111410765D01*
X114501227Y-111404804D01*
X114525495Y-111401204D01*
X114549999Y-111400000D01*
X115450001Y-111400000D01*
X115474505Y-111401204D01*
G37*
G36*
X115474505Y-113451204D02*
G01*
X115498773Y-113454804D01*
X115522572Y-113460765D01*
X115545671Y-113469030D01*
X115567850Y-113479520D01*
X115588893Y-113492132D01*
X115608599Y-113506747D01*
X115626777Y-113523223D01*
X115643253Y-113541401D01*
X115657868Y-113561107D01*
X115670480Y-113582150D01*
X115680970Y-113604329D01*
X115689235Y-113627428D01*
X115695196Y-113651227D01*
X115698796Y-113675495D01*
X115700000Y-113699999D01*
X115700000Y-114350001D01*
X115698796Y-114374505D01*
X115695196Y-114398773D01*
X115689235Y-114422572D01*
X115680970Y-114445671D01*
X115670480Y-114467850D01*
X115657868Y-114488893D01*
X115643253Y-114508599D01*
X115626777Y-114526777D01*
X115608599Y-114543253D01*
X115588893Y-114557868D01*
X115567850Y-114570480D01*
X115545671Y-114580970D01*
X115522572Y-114589235D01*
X115498773Y-114595196D01*
X115474505Y-114598796D01*
X115450001Y-114600000D01*
X114549999Y-114600000D01*
X114525495Y-114598796D01*
X114501227Y-114595196D01*
X114477428Y-114589235D01*
X114454329Y-114580970D01*
X114432150Y-114570480D01*
X114411107Y-114557868D01*
X114391401Y-114543253D01*
X114373223Y-114526777D01*
X114356747Y-114508599D01*
X114342132Y-114488893D01*
X114329520Y-114467850D01*
X114319030Y-114445671D01*
X114310765Y-114422572D01*
X114304804Y-114398773D01*
X114301204Y-114374505D01*
X114300000Y-114350001D01*
X114300000Y-113699999D01*
X114301204Y-113675495D01*
X114304804Y-113651227D01*
X114310765Y-113627428D01*
X114319030Y-113604329D01*
X114329520Y-113582150D01*
X114342132Y-113561107D01*
X114356747Y-113541401D01*
X114373223Y-113523223D01*
X114391401Y-113506747D01*
X114411107Y-113492132D01*
X114432150Y-113479520D01*
X114454329Y-113469030D01*
X114477428Y-113460765D01*
X114501227Y-113454804D01*
X114525495Y-113451204D01*
X114549999Y-113450000D01*
X115450001Y-113450000D01*
X115474505Y-113451204D01*
G37*
G36*
X85474505Y-112401204D02*
G01*
X85498773Y-112404804D01*
X85522572Y-112410765D01*
X85545671Y-112419030D01*
X85567850Y-112429520D01*
X85588893Y-112442132D01*
X85608599Y-112456747D01*
X85626777Y-112473223D01*
X85643253Y-112491401D01*
X85657868Y-112511107D01*
X85670480Y-112532150D01*
X85680970Y-112554329D01*
X85689235Y-112577428D01*
X85695196Y-112601227D01*
X85698796Y-112625495D01*
X85700000Y-112649999D01*
X85700000Y-113300001D01*
X85698796Y-113324505D01*
X85695196Y-113348773D01*
X85689235Y-113372572D01*
X85680970Y-113395671D01*
X85670480Y-113417850D01*
X85657868Y-113438893D01*
X85643253Y-113458599D01*
X85626777Y-113476777D01*
X85608599Y-113493253D01*
X85588893Y-113507868D01*
X85567850Y-113520480D01*
X85545671Y-113530970D01*
X85522572Y-113539235D01*
X85498773Y-113545196D01*
X85474505Y-113548796D01*
X85450001Y-113550000D01*
X84549999Y-113550000D01*
X84525495Y-113548796D01*
X84501227Y-113545196D01*
X84477428Y-113539235D01*
X84454329Y-113530970D01*
X84432150Y-113520480D01*
X84411107Y-113507868D01*
X84391401Y-113493253D01*
X84373223Y-113476777D01*
X84356747Y-113458599D01*
X84342132Y-113438893D01*
X84329520Y-113417850D01*
X84319030Y-113395671D01*
X84310765Y-113372572D01*
X84304804Y-113348773D01*
X84301204Y-113324505D01*
X84300000Y-113300001D01*
X84300000Y-112649999D01*
X84301204Y-112625495D01*
X84304804Y-112601227D01*
X84310765Y-112577428D01*
X84319030Y-112554329D01*
X84329520Y-112532150D01*
X84342132Y-112511107D01*
X84356747Y-112491401D01*
X84373223Y-112473223D01*
X84391401Y-112456747D01*
X84411107Y-112442132D01*
X84432150Y-112429520D01*
X84454329Y-112419030D01*
X84477428Y-112410765D01*
X84501227Y-112404804D01*
X84525495Y-112401204D01*
X84549999Y-112400000D01*
X85450001Y-112400000D01*
X85474505Y-112401204D01*
G37*
G36*
X85474505Y-114451204D02*
G01*
X85498773Y-114454804D01*
X85522572Y-114460765D01*
X85545671Y-114469030D01*
X85567850Y-114479520D01*
X85588893Y-114492132D01*
X85608599Y-114506747D01*
X85626777Y-114523223D01*
X85643253Y-114541401D01*
X85657868Y-114561107D01*
X85670480Y-114582150D01*
X85680970Y-114604329D01*
X85689235Y-114627428D01*
X85695196Y-114651227D01*
X85698796Y-114675495D01*
X85700000Y-114699999D01*
X85700000Y-115350001D01*
X85698796Y-115374505D01*
X85695196Y-115398773D01*
X85689235Y-115422572D01*
X85680970Y-115445671D01*
X85670480Y-115467850D01*
X85657868Y-115488893D01*
X85643253Y-115508599D01*
X85626777Y-115526777D01*
X85608599Y-115543253D01*
X85588893Y-115557868D01*
X85567850Y-115570480D01*
X85545671Y-115580970D01*
X85522572Y-115589235D01*
X85498773Y-115595196D01*
X85474505Y-115598796D01*
X85450001Y-115600000D01*
X84549999Y-115600000D01*
X84525495Y-115598796D01*
X84501227Y-115595196D01*
X84477428Y-115589235D01*
X84454329Y-115580970D01*
X84432150Y-115570480D01*
X84411107Y-115557868D01*
X84391401Y-115543253D01*
X84373223Y-115526777D01*
X84356747Y-115508599D01*
X84342132Y-115488893D01*
X84329520Y-115467850D01*
X84319030Y-115445671D01*
X84310765Y-115422572D01*
X84304804Y-115398773D01*
X84301204Y-115374505D01*
X84300000Y-115350001D01*
X84300000Y-114699999D01*
X84301204Y-114675495D01*
X84304804Y-114651227D01*
X84310765Y-114627428D01*
X84319030Y-114604329D01*
X84329520Y-114582150D01*
X84342132Y-114561107D01*
X84356747Y-114541401D01*
X84373223Y-114523223D01*
X84391401Y-114506747D01*
X84411107Y-114492132D01*
X84432150Y-114479520D01*
X84454329Y-114469030D01*
X84477428Y-114460765D01*
X84501227Y-114454804D01*
X84525495Y-114451204D01*
X84549999Y-114450000D01*
X85450001Y-114450000D01*
X85474505Y-114451204D01*
G37*
G36*
X93474505Y-105426204D02*
G01*
X93498773Y-105429804D01*
X93522572Y-105435765D01*
X93545671Y-105444030D01*
X93567850Y-105454520D01*
X93588893Y-105467132D01*
X93608599Y-105481747D01*
X93626777Y-105498223D01*
X93643253Y-105516401D01*
X93657868Y-105536107D01*
X93670480Y-105557150D01*
X93680970Y-105579329D01*
X93689235Y-105602428D01*
X93695196Y-105626227D01*
X93698796Y-105650495D01*
X93700000Y-105674999D01*
X93700000Y-106325001D01*
X93698796Y-106349505D01*
X93695196Y-106373773D01*
X93689235Y-106397572D01*
X93680970Y-106420671D01*
X93670480Y-106442850D01*
X93657868Y-106463893D01*
X93643253Y-106483599D01*
X93626777Y-106501777D01*
X93608599Y-106518253D01*
X93588893Y-106532868D01*
X93567850Y-106545480D01*
X93545671Y-106555970D01*
X93522572Y-106564235D01*
X93498773Y-106570196D01*
X93474505Y-106573796D01*
X93450001Y-106575000D01*
X92549999Y-106575000D01*
X92525495Y-106573796D01*
X92501227Y-106570196D01*
X92477428Y-106564235D01*
X92454329Y-106555970D01*
X92432150Y-106545480D01*
X92411107Y-106532868D01*
X92391401Y-106518253D01*
X92373223Y-106501777D01*
X92356747Y-106483599D01*
X92342132Y-106463893D01*
X92329520Y-106442850D01*
X92319030Y-106420671D01*
X92310765Y-106397572D01*
X92304804Y-106373773D01*
X92301204Y-106349505D01*
X92300000Y-106325001D01*
X92300000Y-105674999D01*
X92301204Y-105650495D01*
X92304804Y-105626227D01*
X92310765Y-105602428D01*
X92319030Y-105579329D01*
X92329520Y-105557150D01*
X92342132Y-105536107D01*
X92356747Y-105516401D01*
X92373223Y-105498223D01*
X92391401Y-105481747D01*
X92411107Y-105467132D01*
X92432150Y-105454520D01*
X92454329Y-105444030D01*
X92477428Y-105435765D01*
X92501227Y-105429804D01*
X92525495Y-105426204D01*
X92549999Y-105425000D01*
X93450001Y-105425000D01*
X93474505Y-105426204D01*
G37*
G36*
X93474505Y-107476204D02*
G01*
X93498773Y-107479804D01*
X93522572Y-107485765D01*
X93545671Y-107494030D01*
X93567850Y-107504520D01*
X93588893Y-107517132D01*
X93608599Y-107531747D01*
X93626777Y-107548223D01*
X93643253Y-107566401D01*
X93657868Y-107586107D01*
X93670480Y-107607150D01*
X93680970Y-107629329D01*
X93689235Y-107652428D01*
X93695196Y-107676227D01*
X93698796Y-107700495D01*
X93700000Y-107724999D01*
X93700000Y-108375001D01*
X93698796Y-108399505D01*
X93695196Y-108423773D01*
X93689235Y-108447572D01*
X93680970Y-108470671D01*
X93670480Y-108492850D01*
X93657868Y-108513893D01*
X93643253Y-108533599D01*
X93626777Y-108551777D01*
X93608599Y-108568253D01*
X93588893Y-108582868D01*
X93567850Y-108595480D01*
X93545671Y-108605970D01*
X93522572Y-108614235D01*
X93498773Y-108620196D01*
X93474505Y-108623796D01*
X93450001Y-108625000D01*
X92549999Y-108625000D01*
X92525495Y-108623796D01*
X92501227Y-108620196D01*
X92477428Y-108614235D01*
X92454329Y-108605970D01*
X92432150Y-108595480D01*
X92411107Y-108582868D01*
X92391401Y-108568253D01*
X92373223Y-108551777D01*
X92356747Y-108533599D01*
X92342132Y-108513893D01*
X92329520Y-108492850D01*
X92319030Y-108470671D01*
X92310765Y-108447572D01*
X92304804Y-108423773D01*
X92301204Y-108399505D01*
X92300000Y-108375001D01*
X92300000Y-107724999D01*
X92301204Y-107700495D01*
X92304804Y-107676227D01*
X92310765Y-107652428D01*
X92319030Y-107629329D01*
X92329520Y-107607150D01*
X92342132Y-107586107D01*
X92356747Y-107566401D01*
X92373223Y-107548223D01*
X92391401Y-107531747D01*
X92411107Y-107517132D01*
X92432150Y-107504520D01*
X92454329Y-107494030D01*
X92477428Y-107485765D01*
X92501227Y-107479804D01*
X92525495Y-107476204D01*
X92549999Y-107475000D01*
X93450001Y-107475000D01*
X93474505Y-107476204D01*
G37*
G36*
X113324505Y-102801204D02*
G01*
X113348773Y-102804804D01*
X113372572Y-102810765D01*
X113395671Y-102819030D01*
X113417850Y-102829520D01*
X113438893Y-102842132D01*
X113458599Y-102856747D01*
X113476777Y-102873223D01*
X113493253Y-102891401D01*
X113507868Y-102911107D01*
X113520480Y-102932150D01*
X113530970Y-102954329D01*
X113539235Y-102977428D01*
X113545196Y-103001227D01*
X113548796Y-103025495D01*
X113550000Y-103049999D01*
X113550000Y-103950001D01*
X113548796Y-103974505D01*
X113545196Y-103998773D01*
X113539235Y-104022572D01*
X113530970Y-104045671D01*
X113520480Y-104067850D01*
X113507868Y-104088893D01*
X113493253Y-104108599D01*
X113476777Y-104126777D01*
X113458599Y-104143253D01*
X113438893Y-104157868D01*
X113417850Y-104170480D01*
X113395671Y-104180970D01*
X113372572Y-104189235D01*
X113348773Y-104195196D01*
X113324505Y-104198796D01*
X113300001Y-104200000D01*
X112649999Y-104200000D01*
X112625495Y-104198796D01*
X112601227Y-104195196D01*
X112577428Y-104189235D01*
X112554329Y-104180970D01*
X112532150Y-104170480D01*
X112511107Y-104157868D01*
X112491401Y-104143253D01*
X112473223Y-104126777D01*
X112456747Y-104108599D01*
X112442132Y-104088893D01*
X112429520Y-104067850D01*
X112419030Y-104045671D01*
X112410765Y-104022572D01*
X112404804Y-103998773D01*
X112401204Y-103974505D01*
X112400000Y-103950001D01*
X112400000Y-103049999D01*
X112401204Y-103025495D01*
X112404804Y-103001227D01*
X112410765Y-102977428D01*
X112419030Y-102954329D01*
X112429520Y-102932150D01*
X112442132Y-102911107D01*
X112456747Y-102891401D01*
X112473223Y-102873223D01*
X112491401Y-102856747D01*
X112511107Y-102842132D01*
X112532150Y-102829520D01*
X112554329Y-102819030D01*
X112577428Y-102810765D01*
X112601227Y-102804804D01*
X112625495Y-102801204D01*
X112649999Y-102800000D01*
X113300001Y-102800000D01*
X113324505Y-102801204D01*
G37*
G36*
X115374505Y-102801204D02*
G01*
X115398773Y-102804804D01*
X115422572Y-102810765D01*
X115445671Y-102819030D01*
X115467850Y-102829520D01*
X115488893Y-102842132D01*
X115508599Y-102856747D01*
X115526777Y-102873223D01*
X115543253Y-102891401D01*
X115557868Y-102911107D01*
X115570480Y-102932150D01*
X115580970Y-102954329D01*
X115589235Y-102977428D01*
X115595196Y-103001227D01*
X115598796Y-103025495D01*
X115600000Y-103049999D01*
X115600000Y-103950001D01*
X115598796Y-103974505D01*
X115595196Y-103998773D01*
X115589235Y-104022572D01*
X115580970Y-104045671D01*
X115570480Y-104067850D01*
X115557868Y-104088893D01*
X115543253Y-104108599D01*
X115526777Y-104126777D01*
X115508599Y-104143253D01*
X115488893Y-104157868D01*
X115467850Y-104170480D01*
X115445671Y-104180970D01*
X115422572Y-104189235D01*
X115398773Y-104195196D01*
X115374505Y-104198796D01*
X115350001Y-104200000D01*
X114699999Y-104200000D01*
X114675495Y-104198796D01*
X114651227Y-104195196D01*
X114627428Y-104189235D01*
X114604329Y-104180970D01*
X114582150Y-104170480D01*
X114561107Y-104157868D01*
X114541401Y-104143253D01*
X114523223Y-104126777D01*
X114506747Y-104108599D01*
X114492132Y-104088893D01*
X114479520Y-104067850D01*
X114469030Y-104045671D01*
X114460765Y-104022572D01*
X114454804Y-103998773D01*
X114451204Y-103974505D01*
X114450000Y-103950001D01*
X114450000Y-103049999D01*
X114451204Y-103025495D01*
X114454804Y-103001227D01*
X114460765Y-102977428D01*
X114469030Y-102954329D01*
X114479520Y-102932150D01*
X114492132Y-102911107D01*
X114506747Y-102891401D01*
X114523223Y-102873223D01*
X114541401Y-102856747D01*
X114561107Y-102842132D01*
X114582150Y-102829520D01*
X114604329Y-102819030D01*
X114627428Y-102810765D01*
X114651227Y-102804804D01*
X114675495Y-102801204D01*
X114699999Y-102800000D01*
X115350001Y-102800000D01*
X115374505Y-102801204D01*
G37*
G36*
X85474505Y-100401204D02*
G01*
X85498773Y-100404804D01*
X85522572Y-100410765D01*
X85545671Y-100419030D01*
X85567850Y-100429520D01*
X85588893Y-100442132D01*
X85608599Y-100456747D01*
X85626777Y-100473223D01*
X85643253Y-100491401D01*
X85657868Y-100511107D01*
X85670480Y-100532150D01*
X85680970Y-100554329D01*
X85689235Y-100577428D01*
X85695196Y-100601227D01*
X85698796Y-100625495D01*
X85700000Y-100649999D01*
X85700000Y-101300001D01*
X85698796Y-101324505D01*
X85695196Y-101348773D01*
X85689235Y-101372572D01*
X85680970Y-101395671D01*
X85670480Y-101417850D01*
X85657868Y-101438893D01*
X85643253Y-101458599D01*
X85626777Y-101476777D01*
X85608599Y-101493253D01*
X85588893Y-101507868D01*
X85567850Y-101520480D01*
X85545671Y-101530970D01*
X85522572Y-101539235D01*
X85498773Y-101545196D01*
X85474505Y-101548796D01*
X85450001Y-101550000D01*
X84549999Y-101550000D01*
X84525495Y-101548796D01*
X84501227Y-101545196D01*
X84477428Y-101539235D01*
X84454329Y-101530970D01*
X84432150Y-101520480D01*
X84411107Y-101507868D01*
X84391401Y-101493253D01*
X84373223Y-101476777D01*
X84356747Y-101458599D01*
X84342132Y-101438893D01*
X84329520Y-101417850D01*
X84319030Y-101395671D01*
X84310765Y-101372572D01*
X84304804Y-101348773D01*
X84301204Y-101324505D01*
X84300000Y-101300001D01*
X84300000Y-100649999D01*
X84301204Y-100625495D01*
X84304804Y-100601227D01*
X84310765Y-100577428D01*
X84319030Y-100554329D01*
X84329520Y-100532150D01*
X84342132Y-100511107D01*
X84356747Y-100491401D01*
X84373223Y-100473223D01*
X84391401Y-100456747D01*
X84411107Y-100442132D01*
X84432150Y-100429520D01*
X84454329Y-100419030D01*
X84477428Y-100410765D01*
X84501227Y-100404804D01*
X84525495Y-100401204D01*
X84549999Y-100400000D01*
X85450001Y-100400000D01*
X85474505Y-100401204D01*
G37*
G36*
X85474505Y-102451204D02*
G01*
X85498773Y-102454804D01*
X85522572Y-102460765D01*
X85545671Y-102469030D01*
X85567850Y-102479520D01*
X85588893Y-102492132D01*
X85608599Y-102506747D01*
X85626777Y-102523223D01*
X85643253Y-102541401D01*
X85657868Y-102561107D01*
X85670480Y-102582150D01*
X85680970Y-102604329D01*
X85689235Y-102627428D01*
X85695196Y-102651227D01*
X85698796Y-102675495D01*
X85700000Y-102699999D01*
X85700000Y-103350001D01*
X85698796Y-103374505D01*
X85695196Y-103398773D01*
X85689235Y-103422572D01*
X85680970Y-103445671D01*
X85670480Y-103467850D01*
X85657868Y-103488893D01*
X85643253Y-103508599D01*
X85626777Y-103526777D01*
X85608599Y-103543253D01*
X85588893Y-103557868D01*
X85567850Y-103570480D01*
X85545671Y-103580970D01*
X85522572Y-103589235D01*
X85498773Y-103595196D01*
X85474505Y-103598796D01*
X85450001Y-103600000D01*
X84549999Y-103600000D01*
X84525495Y-103598796D01*
X84501227Y-103595196D01*
X84477428Y-103589235D01*
X84454329Y-103580970D01*
X84432150Y-103570480D01*
X84411107Y-103557868D01*
X84391401Y-103543253D01*
X84373223Y-103526777D01*
X84356747Y-103508599D01*
X84342132Y-103488893D01*
X84329520Y-103467850D01*
X84319030Y-103445671D01*
X84310765Y-103422572D01*
X84304804Y-103398773D01*
X84301204Y-103374505D01*
X84300000Y-103350001D01*
X84300000Y-102699999D01*
X84301204Y-102675495D01*
X84304804Y-102651227D01*
X84310765Y-102627428D01*
X84319030Y-102604329D01*
X84329520Y-102582150D01*
X84342132Y-102561107D01*
X84356747Y-102541401D01*
X84373223Y-102523223D01*
X84391401Y-102506747D01*
X84411107Y-102492132D01*
X84432150Y-102479520D01*
X84454329Y-102469030D01*
X84477428Y-102460765D01*
X84501227Y-102454804D01*
X84525495Y-102451204D01*
X84549999Y-102450000D01*
X85450001Y-102450000D01*
X85474505Y-102451204D01*
G37*
G36*
X93474505Y-100401204D02*
G01*
X93498773Y-100404804D01*
X93522572Y-100410765D01*
X93545671Y-100419030D01*
X93567850Y-100429520D01*
X93588893Y-100442132D01*
X93608599Y-100456747D01*
X93626777Y-100473223D01*
X93643253Y-100491401D01*
X93657868Y-100511107D01*
X93670480Y-100532150D01*
X93680970Y-100554329D01*
X93689235Y-100577428D01*
X93695196Y-100601227D01*
X93698796Y-100625495D01*
X93700000Y-100649999D01*
X93700000Y-101300001D01*
X93698796Y-101324505D01*
X93695196Y-101348773D01*
X93689235Y-101372572D01*
X93680970Y-101395671D01*
X93670480Y-101417850D01*
X93657868Y-101438893D01*
X93643253Y-101458599D01*
X93626777Y-101476777D01*
X93608599Y-101493253D01*
X93588893Y-101507868D01*
X93567850Y-101520480D01*
X93545671Y-101530970D01*
X93522572Y-101539235D01*
X93498773Y-101545196D01*
X93474505Y-101548796D01*
X93450001Y-101550000D01*
X92549999Y-101550000D01*
X92525495Y-101548796D01*
X92501227Y-101545196D01*
X92477428Y-101539235D01*
X92454329Y-101530970D01*
X92432150Y-101520480D01*
X92411107Y-101507868D01*
X92391401Y-101493253D01*
X92373223Y-101476777D01*
X92356747Y-101458599D01*
X92342132Y-101438893D01*
X92329520Y-101417850D01*
X92319030Y-101395671D01*
X92310765Y-101372572D01*
X92304804Y-101348773D01*
X92301204Y-101324505D01*
X92300000Y-101300001D01*
X92300000Y-100649999D01*
X92301204Y-100625495D01*
X92304804Y-100601227D01*
X92310765Y-100577428D01*
X92319030Y-100554329D01*
X92329520Y-100532150D01*
X92342132Y-100511107D01*
X92356747Y-100491401D01*
X92373223Y-100473223D01*
X92391401Y-100456747D01*
X92411107Y-100442132D01*
X92432150Y-100429520D01*
X92454329Y-100419030D01*
X92477428Y-100410765D01*
X92501227Y-100404804D01*
X92525495Y-100401204D01*
X92549999Y-100400000D01*
X93450001Y-100400000D01*
X93474505Y-100401204D01*
G37*
G36*
X93474505Y-102451204D02*
G01*
X93498773Y-102454804D01*
X93522572Y-102460765D01*
X93545671Y-102469030D01*
X93567850Y-102479520D01*
X93588893Y-102492132D01*
X93608599Y-102506747D01*
X93626777Y-102523223D01*
X93643253Y-102541401D01*
X93657868Y-102561107D01*
X93670480Y-102582150D01*
X93680970Y-102604329D01*
X93689235Y-102627428D01*
X93695196Y-102651227D01*
X93698796Y-102675495D01*
X93700000Y-102699999D01*
X93700000Y-103350001D01*
X93698796Y-103374505D01*
X93695196Y-103398773D01*
X93689235Y-103422572D01*
X93680970Y-103445671D01*
X93670480Y-103467850D01*
X93657868Y-103488893D01*
X93643253Y-103508599D01*
X93626777Y-103526777D01*
X93608599Y-103543253D01*
X93588893Y-103557868D01*
X93567850Y-103570480D01*
X93545671Y-103580970D01*
X93522572Y-103589235D01*
X93498773Y-103595196D01*
X93474505Y-103598796D01*
X93450001Y-103600000D01*
X92549999Y-103600000D01*
X92525495Y-103598796D01*
X92501227Y-103595196D01*
X92477428Y-103589235D01*
X92454329Y-103580970D01*
X92432150Y-103570480D01*
X92411107Y-103557868D01*
X92391401Y-103543253D01*
X92373223Y-103526777D01*
X92356747Y-103508599D01*
X92342132Y-103488893D01*
X92329520Y-103467850D01*
X92319030Y-103445671D01*
X92310765Y-103422572D01*
X92304804Y-103398773D01*
X92301204Y-103374505D01*
X92300000Y-103350001D01*
X92300000Y-102699999D01*
X92301204Y-102675495D01*
X92304804Y-102651227D01*
X92310765Y-102627428D01*
X92319030Y-102604329D01*
X92329520Y-102582150D01*
X92342132Y-102561107D01*
X92356747Y-102541401D01*
X92373223Y-102523223D01*
X92391401Y-102506747D01*
X92411107Y-102492132D01*
X92432150Y-102479520D01*
X92454329Y-102469030D01*
X92477428Y-102460765D01*
X92501227Y-102454804D01*
X92525495Y-102451204D01*
X92549999Y-102450000D01*
X93450001Y-102450000D01*
X93474505Y-102451204D01*
G37*
G36*
X88474505Y-106901204D02*
G01*
X88498773Y-106904804D01*
X88522572Y-106910765D01*
X88545671Y-106919030D01*
X88567850Y-106929520D01*
X88588893Y-106942132D01*
X88608599Y-106956747D01*
X88626777Y-106973223D01*
X88643253Y-106991401D01*
X88657868Y-107011107D01*
X88670480Y-107032150D01*
X88680970Y-107054329D01*
X88689235Y-107077428D01*
X88695196Y-107101227D01*
X88698796Y-107125495D01*
X88700000Y-107149999D01*
X88700000Y-107800001D01*
X88698796Y-107824505D01*
X88695196Y-107848773D01*
X88689235Y-107872572D01*
X88680970Y-107895671D01*
X88670480Y-107917850D01*
X88657868Y-107938893D01*
X88643253Y-107958599D01*
X88626777Y-107976777D01*
X88608599Y-107993253D01*
X88588893Y-108007868D01*
X88567850Y-108020480D01*
X88545671Y-108030970D01*
X88522572Y-108039235D01*
X88498773Y-108045196D01*
X88474505Y-108048796D01*
X88450001Y-108050000D01*
X87549999Y-108050000D01*
X87525495Y-108048796D01*
X87501227Y-108045196D01*
X87477428Y-108039235D01*
X87454329Y-108030970D01*
X87432150Y-108020480D01*
X87411107Y-108007868D01*
X87391401Y-107993253D01*
X87373223Y-107976777D01*
X87356747Y-107958599D01*
X87342132Y-107938893D01*
X87329520Y-107917850D01*
X87319030Y-107895671D01*
X87310765Y-107872572D01*
X87304804Y-107848773D01*
X87301204Y-107824505D01*
X87300000Y-107800001D01*
X87300000Y-107149999D01*
X87301204Y-107125495D01*
X87304804Y-107101227D01*
X87310765Y-107077428D01*
X87319030Y-107054329D01*
X87329520Y-107032150D01*
X87342132Y-107011107D01*
X87356747Y-106991401D01*
X87373223Y-106973223D01*
X87391401Y-106956747D01*
X87411107Y-106942132D01*
X87432150Y-106929520D01*
X87454329Y-106919030D01*
X87477428Y-106910765D01*
X87501227Y-106904804D01*
X87525495Y-106901204D01*
X87549999Y-106900000D01*
X88450001Y-106900000D01*
X88474505Y-106901204D01*
G37*
G36*
X88474505Y-108951204D02*
G01*
X88498773Y-108954804D01*
X88522572Y-108960765D01*
X88545671Y-108969030D01*
X88567850Y-108979520D01*
X88588893Y-108992132D01*
X88608599Y-109006747D01*
X88626777Y-109023223D01*
X88643253Y-109041401D01*
X88657868Y-109061107D01*
X88670480Y-109082150D01*
X88680970Y-109104329D01*
X88689235Y-109127428D01*
X88695196Y-109151227D01*
X88698796Y-109175495D01*
X88700000Y-109199999D01*
X88700000Y-109850001D01*
X88698796Y-109874505D01*
X88695196Y-109898773D01*
X88689235Y-109922572D01*
X88680970Y-109945671D01*
X88670480Y-109967850D01*
X88657868Y-109988893D01*
X88643253Y-110008599D01*
X88626777Y-110026777D01*
X88608599Y-110043253D01*
X88588893Y-110057868D01*
X88567850Y-110070480D01*
X88545671Y-110080970D01*
X88522572Y-110089235D01*
X88498773Y-110095196D01*
X88474505Y-110098796D01*
X88450001Y-110100000D01*
X87549999Y-110100000D01*
X87525495Y-110098796D01*
X87501227Y-110095196D01*
X87477428Y-110089235D01*
X87454329Y-110080970D01*
X87432150Y-110070480D01*
X87411107Y-110057868D01*
X87391401Y-110043253D01*
X87373223Y-110026777D01*
X87356747Y-110008599D01*
X87342132Y-109988893D01*
X87329520Y-109967850D01*
X87319030Y-109945671D01*
X87310765Y-109922572D01*
X87304804Y-109898773D01*
X87301204Y-109874505D01*
X87300000Y-109850001D01*
X87300000Y-109199999D01*
X87301204Y-109175495D01*
X87304804Y-109151227D01*
X87310765Y-109127428D01*
X87319030Y-109104329D01*
X87329520Y-109082150D01*
X87342132Y-109061107D01*
X87356747Y-109041401D01*
X87373223Y-109023223D01*
X87391401Y-109006747D01*
X87411107Y-108992132D01*
X87432150Y-108979520D01*
X87454329Y-108969030D01*
X87477428Y-108960765D01*
X87501227Y-108954804D01*
X87525495Y-108951204D01*
X87549999Y-108950000D01*
X88450001Y-108950000D01*
X88474505Y-108951204D01*
G37*
G36*
X96474505Y-100401204D02*
G01*
X96498773Y-100404804D01*
X96522572Y-100410765D01*
X96545671Y-100419030D01*
X96567850Y-100429520D01*
X96588893Y-100442132D01*
X96608599Y-100456747D01*
X96626777Y-100473223D01*
X96643253Y-100491401D01*
X96657868Y-100511107D01*
X96670480Y-100532150D01*
X96680970Y-100554329D01*
X96689235Y-100577428D01*
X96695196Y-100601227D01*
X96698796Y-100625495D01*
X96700000Y-100649999D01*
X96700000Y-101300001D01*
X96698796Y-101324505D01*
X96695196Y-101348773D01*
X96689235Y-101372572D01*
X96680970Y-101395671D01*
X96670480Y-101417850D01*
X96657868Y-101438893D01*
X96643253Y-101458599D01*
X96626777Y-101476777D01*
X96608599Y-101493253D01*
X96588893Y-101507868D01*
X96567850Y-101520480D01*
X96545671Y-101530970D01*
X96522572Y-101539235D01*
X96498773Y-101545196D01*
X96474505Y-101548796D01*
X96450001Y-101550000D01*
X95549999Y-101550000D01*
X95525495Y-101548796D01*
X95501227Y-101545196D01*
X95477428Y-101539235D01*
X95454329Y-101530970D01*
X95432150Y-101520480D01*
X95411107Y-101507868D01*
X95391401Y-101493253D01*
X95373223Y-101476777D01*
X95356747Y-101458599D01*
X95342132Y-101438893D01*
X95329520Y-101417850D01*
X95319030Y-101395671D01*
X95310765Y-101372572D01*
X95304804Y-101348773D01*
X95301204Y-101324505D01*
X95300000Y-101300001D01*
X95300000Y-100649999D01*
X95301204Y-100625495D01*
X95304804Y-100601227D01*
X95310765Y-100577428D01*
X95319030Y-100554329D01*
X95329520Y-100532150D01*
X95342132Y-100511107D01*
X95356747Y-100491401D01*
X95373223Y-100473223D01*
X95391401Y-100456747D01*
X95411107Y-100442132D01*
X95432150Y-100429520D01*
X95454329Y-100419030D01*
X95477428Y-100410765D01*
X95501227Y-100404804D01*
X95525495Y-100401204D01*
X95549999Y-100400000D01*
X96450001Y-100400000D01*
X96474505Y-100401204D01*
G37*
G36*
X96474505Y-102451204D02*
G01*
X96498773Y-102454804D01*
X96522572Y-102460765D01*
X96545671Y-102469030D01*
X96567850Y-102479520D01*
X96588893Y-102492132D01*
X96608599Y-102506747D01*
X96626777Y-102523223D01*
X96643253Y-102541401D01*
X96657868Y-102561107D01*
X96670480Y-102582150D01*
X96680970Y-102604329D01*
X96689235Y-102627428D01*
X96695196Y-102651227D01*
X96698796Y-102675495D01*
X96700000Y-102699999D01*
X96700000Y-103350001D01*
X96698796Y-103374505D01*
X96695196Y-103398773D01*
X96689235Y-103422572D01*
X96680970Y-103445671D01*
X96670480Y-103467850D01*
X96657868Y-103488893D01*
X96643253Y-103508599D01*
X96626777Y-103526777D01*
X96608599Y-103543253D01*
X96588893Y-103557868D01*
X96567850Y-103570480D01*
X96545671Y-103580970D01*
X96522572Y-103589235D01*
X96498773Y-103595196D01*
X96474505Y-103598796D01*
X96450001Y-103600000D01*
X95549999Y-103600000D01*
X95525495Y-103598796D01*
X95501227Y-103595196D01*
X95477428Y-103589235D01*
X95454329Y-103580970D01*
X95432150Y-103570480D01*
X95411107Y-103557868D01*
X95391401Y-103543253D01*
X95373223Y-103526777D01*
X95356747Y-103508599D01*
X95342132Y-103488893D01*
X95329520Y-103467850D01*
X95319030Y-103445671D01*
X95310765Y-103422572D01*
X95304804Y-103398773D01*
X95301204Y-103374505D01*
X95300000Y-103350001D01*
X95300000Y-102699999D01*
X95301204Y-102675495D01*
X95304804Y-102651227D01*
X95310765Y-102627428D01*
X95319030Y-102604329D01*
X95329520Y-102582150D01*
X95342132Y-102561107D01*
X95356747Y-102541401D01*
X95373223Y-102523223D01*
X95391401Y-102506747D01*
X95411107Y-102492132D01*
X95432150Y-102479520D01*
X95454329Y-102469030D01*
X95477428Y-102460765D01*
X95501227Y-102454804D01*
X95525495Y-102451204D01*
X95549999Y-102450000D01*
X96450001Y-102450000D01*
X96474505Y-102451204D01*
G37*
G36*
X99324505Y-73801204D02*
G01*
X99348773Y-73804804D01*
X99372572Y-73810765D01*
X99395671Y-73819030D01*
X99417850Y-73829520D01*
X99438893Y-73842132D01*
X99458599Y-73856747D01*
X99476777Y-73873223D01*
X99493253Y-73891401D01*
X99507868Y-73911107D01*
X99520480Y-73932150D01*
X99530970Y-73954329D01*
X99539235Y-73977428D01*
X99545196Y-74001227D01*
X99548796Y-74025495D01*
X99550000Y-74049999D01*
X99550000Y-74950001D01*
X99548796Y-74974505D01*
X99545196Y-74998773D01*
X99539235Y-75022572D01*
X99530970Y-75045671D01*
X99520480Y-75067850D01*
X99507868Y-75088893D01*
X99493253Y-75108599D01*
X99476777Y-75126777D01*
X99458599Y-75143253D01*
X99438893Y-75157868D01*
X99417850Y-75170480D01*
X99395671Y-75180970D01*
X99372572Y-75189235D01*
X99348773Y-75195196D01*
X99324505Y-75198796D01*
X99300001Y-75200000D01*
X98649999Y-75200000D01*
X98625495Y-75198796D01*
X98601227Y-75195196D01*
X98577428Y-75189235D01*
X98554329Y-75180970D01*
X98532150Y-75170480D01*
X98511107Y-75157868D01*
X98491401Y-75143253D01*
X98473223Y-75126777D01*
X98456747Y-75108599D01*
X98442132Y-75088893D01*
X98429520Y-75067850D01*
X98419030Y-75045671D01*
X98410765Y-75022572D01*
X98404804Y-74998773D01*
X98401204Y-74974505D01*
X98400000Y-74950001D01*
X98400000Y-74049999D01*
X98401204Y-74025495D01*
X98404804Y-74001227D01*
X98410765Y-73977428D01*
X98419030Y-73954329D01*
X98429520Y-73932150D01*
X98442132Y-73911107D01*
X98456747Y-73891401D01*
X98473223Y-73873223D01*
X98491401Y-73856747D01*
X98511107Y-73842132D01*
X98532150Y-73829520D01*
X98554329Y-73819030D01*
X98577428Y-73810765D01*
X98601227Y-73804804D01*
X98625495Y-73801204D01*
X98649999Y-73800000D01*
X99300001Y-73800000D01*
X99324505Y-73801204D01*
G37*
G36*
X101374505Y-73801204D02*
G01*
X101398773Y-73804804D01*
X101422572Y-73810765D01*
X101445671Y-73819030D01*
X101467850Y-73829520D01*
X101488893Y-73842132D01*
X101508599Y-73856747D01*
X101526777Y-73873223D01*
X101543253Y-73891401D01*
X101557868Y-73911107D01*
X101570480Y-73932150D01*
X101580970Y-73954329D01*
X101589235Y-73977428D01*
X101595196Y-74001227D01*
X101598796Y-74025495D01*
X101600000Y-74049999D01*
X101600000Y-74950001D01*
X101598796Y-74974505D01*
X101595196Y-74998773D01*
X101589235Y-75022572D01*
X101580970Y-75045671D01*
X101570480Y-75067850D01*
X101557868Y-75088893D01*
X101543253Y-75108599D01*
X101526777Y-75126777D01*
X101508599Y-75143253D01*
X101488893Y-75157868D01*
X101467850Y-75170480D01*
X101445671Y-75180970D01*
X101422572Y-75189235D01*
X101398773Y-75195196D01*
X101374505Y-75198796D01*
X101350001Y-75200000D01*
X100699999Y-75200000D01*
X100675495Y-75198796D01*
X100651227Y-75195196D01*
X100627428Y-75189235D01*
X100604329Y-75180970D01*
X100582150Y-75170480D01*
X100561107Y-75157868D01*
X100541401Y-75143253D01*
X100523223Y-75126777D01*
X100506747Y-75108599D01*
X100492132Y-75088893D01*
X100479520Y-75067850D01*
X100469030Y-75045671D01*
X100460765Y-75022572D01*
X100454804Y-74998773D01*
X100451204Y-74974505D01*
X100450000Y-74950001D01*
X100450000Y-74049999D01*
X100451204Y-74025495D01*
X100454804Y-74001227D01*
X100460765Y-73977428D01*
X100469030Y-73954329D01*
X100479520Y-73932150D01*
X100492132Y-73911107D01*
X100506747Y-73891401D01*
X100523223Y-73873223D01*
X100541401Y-73856747D01*
X100561107Y-73842132D01*
X100582150Y-73829520D01*
X100604329Y-73819030D01*
X100627428Y-73810765D01*
X100651227Y-73804804D01*
X100675495Y-73801204D01*
X100699999Y-73800000D01*
X101350001Y-73800000D01*
X101374505Y-73801204D01*
G37*
G36*
X109974505Y-99401204D02*
G01*
X109998773Y-99404804D01*
X110022572Y-99410765D01*
X110045671Y-99419030D01*
X110067850Y-99429520D01*
X110088893Y-99442132D01*
X110108599Y-99456747D01*
X110126777Y-99473223D01*
X110143253Y-99491401D01*
X110157868Y-99511107D01*
X110170480Y-99532150D01*
X110180970Y-99554329D01*
X110189235Y-99577428D01*
X110195196Y-99601227D01*
X110198796Y-99625495D01*
X110200000Y-99649999D01*
X110200000Y-100300001D01*
X110198796Y-100324505D01*
X110195196Y-100348773D01*
X110189235Y-100372572D01*
X110180970Y-100395671D01*
X110170480Y-100417850D01*
X110157868Y-100438893D01*
X110143253Y-100458599D01*
X110126777Y-100476777D01*
X110108599Y-100493253D01*
X110088893Y-100507868D01*
X110067850Y-100520480D01*
X110045671Y-100530970D01*
X110022572Y-100539235D01*
X109998773Y-100545196D01*
X109974505Y-100548796D01*
X109950001Y-100550000D01*
X109049999Y-100550000D01*
X109025495Y-100548796D01*
X109001227Y-100545196D01*
X108977428Y-100539235D01*
X108954329Y-100530970D01*
X108932150Y-100520480D01*
X108911107Y-100507868D01*
X108891401Y-100493253D01*
X108873223Y-100476777D01*
X108856747Y-100458599D01*
X108842132Y-100438893D01*
X108829520Y-100417850D01*
X108819030Y-100395671D01*
X108810765Y-100372572D01*
X108804804Y-100348773D01*
X108801204Y-100324505D01*
X108800000Y-100300001D01*
X108800000Y-99649999D01*
X108801204Y-99625495D01*
X108804804Y-99601227D01*
X108810765Y-99577428D01*
X108819030Y-99554329D01*
X108829520Y-99532150D01*
X108842132Y-99511107D01*
X108856747Y-99491401D01*
X108873223Y-99473223D01*
X108891401Y-99456747D01*
X108911107Y-99442132D01*
X108932150Y-99429520D01*
X108954329Y-99419030D01*
X108977428Y-99410765D01*
X109001227Y-99404804D01*
X109025495Y-99401204D01*
X109049999Y-99400000D01*
X109950001Y-99400000D01*
X109974505Y-99401204D01*
G37*
G36*
X109974505Y-101451204D02*
G01*
X109998773Y-101454804D01*
X110022572Y-101460765D01*
X110045671Y-101469030D01*
X110067850Y-101479520D01*
X110088893Y-101492132D01*
X110108599Y-101506747D01*
X110126777Y-101523223D01*
X110143253Y-101541401D01*
X110157868Y-101561107D01*
X110170480Y-101582150D01*
X110180970Y-101604329D01*
X110189235Y-101627428D01*
X110195196Y-101651227D01*
X110198796Y-101675495D01*
X110200000Y-101699999D01*
X110200000Y-102350001D01*
X110198796Y-102374505D01*
X110195196Y-102398773D01*
X110189235Y-102422572D01*
X110180970Y-102445671D01*
X110170480Y-102467850D01*
X110157868Y-102488893D01*
X110143253Y-102508599D01*
X110126777Y-102526777D01*
X110108599Y-102543253D01*
X110088893Y-102557868D01*
X110067850Y-102570480D01*
X110045671Y-102580970D01*
X110022572Y-102589235D01*
X109998773Y-102595196D01*
X109974505Y-102598796D01*
X109950001Y-102600000D01*
X109049999Y-102600000D01*
X109025495Y-102598796D01*
X109001227Y-102595196D01*
X108977428Y-102589235D01*
X108954329Y-102580970D01*
X108932150Y-102570480D01*
X108911107Y-102557868D01*
X108891401Y-102543253D01*
X108873223Y-102526777D01*
X108856747Y-102508599D01*
X108842132Y-102488893D01*
X108829520Y-102467850D01*
X108819030Y-102445671D01*
X108810765Y-102422572D01*
X108804804Y-102398773D01*
X108801204Y-102374505D01*
X108800000Y-102350001D01*
X108800000Y-101699999D01*
X108801204Y-101675495D01*
X108804804Y-101651227D01*
X108810765Y-101627428D01*
X108819030Y-101604329D01*
X108829520Y-101582150D01*
X108842132Y-101561107D01*
X108856747Y-101541401D01*
X108873223Y-101523223D01*
X108891401Y-101506747D01*
X108911107Y-101492132D01*
X108932150Y-101479520D01*
X108954329Y-101469030D01*
X108977428Y-101460765D01*
X109001227Y-101454804D01*
X109025495Y-101451204D01*
X109049999Y-101450000D01*
X109950001Y-101450000D01*
X109974505Y-101451204D01*
G37*
D10*
X115000000Y-107500000D03*
X113000000Y-108450000D03*
X113000000Y-106550000D03*
D12*
X86000000Y-96500000D03*
X85050000Y-94500000D03*
X86950000Y-94500000D03*
D11*
G36*
X101374505Y-70301204D02*
G01*
X101398773Y-70304804D01*
X101422572Y-70310765D01*
X101445671Y-70319030D01*
X101467850Y-70329520D01*
X101488893Y-70342132D01*
X101508599Y-70356747D01*
X101526777Y-70373223D01*
X101543253Y-70391401D01*
X101557868Y-70411107D01*
X101570480Y-70432150D01*
X101580970Y-70454329D01*
X101589235Y-70477428D01*
X101595196Y-70501227D01*
X101598796Y-70525495D01*
X101600000Y-70549999D01*
X101600000Y-71450001D01*
X101598796Y-71474505D01*
X101595196Y-71498773D01*
X101589235Y-71522572D01*
X101580970Y-71545671D01*
X101570480Y-71567850D01*
X101557868Y-71588893D01*
X101543253Y-71608599D01*
X101526777Y-71626777D01*
X101508599Y-71643253D01*
X101488893Y-71657868D01*
X101467850Y-71670480D01*
X101445671Y-71680970D01*
X101422572Y-71689235D01*
X101398773Y-71695196D01*
X101374505Y-71698796D01*
X101350001Y-71700000D01*
X100699999Y-71700000D01*
X100675495Y-71698796D01*
X100651227Y-71695196D01*
X100627428Y-71689235D01*
X100604329Y-71680970D01*
X100582150Y-71670480D01*
X100561107Y-71657868D01*
X100541401Y-71643253D01*
X100523223Y-71626777D01*
X100506747Y-71608599D01*
X100492132Y-71588893D01*
X100479520Y-71567850D01*
X100469030Y-71545671D01*
X100460765Y-71522572D01*
X100454804Y-71498773D01*
X100451204Y-71474505D01*
X100450000Y-71450001D01*
X100450000Y-70549999D01*
X100451204Y-70525495D01*
X100454804Y-70501227D01*
X100460765Y-70477428D01*
X100469030Y-70454329D01*
X100479520Y-70432150D01*
X100492132Y-70411107D01*
X100506747Y-70391401D01*
X100523223Y-70373223D01*
X100541401Y-70356747D01*
X100561107Y-70342132D01*
X100582150Y-70329520D01*
X100604329Y-70319030D01*
X100627428Y-70310765D01*
X100651227Y-70304804D01*
X100675495Y-70301204D01*
X100699999Y-70300000D01*
X101350001Y-70300000D01*
X101374505Y-70301204D01*
G37*
G36*
X99324505Y-70301204D02*
G01*
X99348773Y-70304804D01*
X99372572Y-70310765D01*
X99395671Y-70319030D01*
X99417850Y-70329520D01*
X99438893Y-70342132D01*
X99458599Y-70356747D01*
X99476777Y-70373223D01*
X99493253Y-70391401D01*
X99507868Y-70411107D01*
X99520480Y-70432150D01*
X99530970Y-70454329D01*
X99539235Y-70477428D01*
X99545196Y-70501227D01*
X99548796Y-70525495D01*
X99550000Y-70549999D01*
X99550000Y-71450001D01*
X99548796Y-71474505D01*
X99545196Y-71498773D01*
X99539235Y-71522572D01*
X99530970Y-71545671D01*
X99520480Y-71567850D01*
X99507868Y-71588893D01*
X99493253Y-71608599D01*
X99476777Y-71626777D01*
X99458599Y-71643253D01*
X99438893Y-71657868D01*
X99417850Y-71670480D01*
X99395671Y-71680970D01*
X99372572Y-71689235D01*
X99348773Y-71695196D01*
X99324505Y-71698796D01*
X99300001Y-71700000D01*
X98649999Y-71700000D01*
X98625495Y-71698796D01*
X98601227Y-71695196D01*
X98577428Y-71689235D01*
X98554329Y-71680970D01*
X98532150Y-71670480D01*
X98511107Y-71657868D01*
X98491401Y-71643253D01*
X98473223Y-71626777D01*
X98456747Y-71608599D01*
X98442132Y-71588893D01*
X98429520Y-71567850D01*
X98419030Y-71545671D01*
X98410765Y-71522572D01*
X98404804Y-71498773D01*
X98401204Y-71474505D01*
X98400000Y-71450001D01*
X98400000Y-70549999D01*
X98401204Y-70525495D01*
X98404804Y-70501227D01*
X98410765Y-70477428D01*
X98419030Y-70454329D01*
X98429520Y-70432150D01*
X98442132Y-70411107D01*
X98456747Y-70391401D01*
X98473223Y-70373223D01*
X98491401Y-70356747D01*
X98511107Y-70342132D01*
X98532150Y-70329520D01*
X98554329Y-70319030D01*
X98577428Y-70310765D01*
X98601227Y-70304804D01*
X98625495Y-70301204D01*
X98649999Y-70300000D01*
X99300001Y-70300000D01*
X99324505Y-70301204D01*
G37*
G36*
X104974505Y-107951204D02*
G01*
X104998773Y-107954804D01*
X105022572Y-107960765D01*
X105045671Y-107969030D01*
X105067850Y-107979520D01*
X105088893Y-107992132D01*
X105108599Y-108006747D01*
X105126777Y-108023223D01*
X105143253Y-108041401D01*
X105157868Y-108061107D01*
X105170480Y-108082150D01*
X105180970Y-108104329D01*
X105189235Y-108127428D01*
X105195196Y-108151227D01*
X105198796Y-108175495D01*
X105200000Y-108199999D01*
X105200000Y-108850001D01*
X105198796Y-108874505D01*
X105195196Y-108898773D01*
X105189235Y-108922572D01*
X105180970Y-108945671D01*
X105170480Y-108967850D01*
X105157868Y-108988893D01*
X105143253Y-109008599D01*
X105126777Y-109026777D01*
X105108599Y-109043253D01*
X105088893Y-109057868D01*
X105067850Y-109070480D01*
X105045671Y-109080970D01*
X105022572Y-109089235D01*
X104998773Y-109095196D01*
X104974505Y-109098796D01*
X104950001Y-109100000D01*
X104049999Y-109100000D01*
X104025495Y-109098796D01*
X104001227Y-109095196D01*
X103977428Y-109089235D01*
X103954329Y-109080970D01*
X103932150Y-109070480D01*
X103911107Y-109057868D01*
X103891401Y-109043253D01*
X103873223Y-109026777D01*
X103856747Y-109008599D01*
X103842132Y-108988893D01*
X103829520Y-108967850D01*
X103819030Y-108945671D01*
X103810765Y-108922572D01*
X103804804Y-108898773D01*
X103801204Y-108874505D01*
X103800000Y-108850001D01*
X103800000Y-108199999D01*
X103801204Y-108175495D01*
X103804804Y-108151227D01*
X103810765Y-108127428D01*
X103819030Y-108104329D01*
X103829520Y-108082150D01*
X103842132Y-108061107D01*
X103856747Y-108041401D01*
X103873223Y-108023223D01*
X103891401Y-108006747D01*
X103911107Y-107992132D01*
X103932150Y-107979520D01*
X103954329Y-107969030D01*
X103977428Y-107960765D01*
X104001227Y-107954804D01*
X104025495Y-107951204D01*
X104049999Y-107950000D01*
X104950001Y-107950000D01*
X104974505Y-107951204D01*
G37*
G36*
X104974505Y-105901204D02*
G01*
X104998773Y-105904804D01*
X105022572Y-105910765D01*
X105045671Y-105919030D01*
X105067850Y-105929520D01*
X105088893Y-105942132D01*
X105108599Y-105956747D01*
X105126777Y-105973223D01*
X105143253Y-105991401D01*
X105157868Y-106011107D01*
X105170480Y-106032150D01*
X105180970Y-106054329D01*
X105189235Y-106077428D01*
X105195196Y-106101227D01*
X105198796Y-106125495D01*
X105200000Y-106149999D01*
X105200000Y-106800001D01*
X105198796Y-106824505D01*
X105195196Y-106848773D01*
X105189235Y-106872572D01*
X105180970Y-106895671D01*
X105170480Y-106917850D01*
X105157868Y-106938893D01*
X105143253Y-106958599D01*
X105126777Y-106976777D01*
X105108599Y-106993253D01*
X105088893Y-107007868D01*
X105067850Y-107020480D01*
X105045671Y-107030970D01*
X105022572Y-107039235D01*
X104998773Y-107045196D01*
X104974505Y-107048796D01*
X104950001Y-107050000D01*
X104049999Y-107050000D01*
X104025495Y-107048796D01*
X104001227Y-107045196D01*
X103977428Y-107039235D01*
X103954329Y-107030970D01*
X103932150Y-107020480D01*
X103911107Y-107007868D01*
X103891401Y-106993253D01*
X103873223Y-106976777D01*
X103856747Y-106958599D01*
X103842132Y-106938893D01*
X103829520Y-106917850D01*
X103819030Y-106895671D01*
X103810765Y-106872572D01*
X103804804Y-106848773D01*
X103801204Y-106824505D01*
X103800000Y-106800001D01*
X103800000Y-106149999D01*
X103801204Y-106125495D01*
X103804804Y-106101227D01*
X103810765Y-106077428D01*
X103819030Y-106054329D01*
X103829520Y-106032150D01*
X103842132Y-106011107D01*
X103856747Y-105991401D01*
X103873223Y-105973223D01*
X103891401Y-105956747D01*
X103911107Y-105942132D01*
X103932150Y-105929520D01*
X103954329Y-105919030D01*
X103977428Y-105910765D01*
X104001227Y-105904804D01*
X104025495Y-105901204D01*
X104049999Y-105900000D01*
X104950001Y-105900000D01*
X104974505Y-105901204D01*
G37*
G36*
X107474505Y-107951204D02*
G01*
X107498773Y-107954804D01*
X107522572Y-107960765D01*
X107545671Y-107969030D01*
X107567850Y-107979520D01*
X107588893Y-107992132D01*
X107608599Y-108006747D01*
X107626777Y-108023223D01*
X107643253Y-108041401D01*
X107657868Y-108061107D01*
X107670480Y-108082150D01*
X107680970Y-108104329D01*
X107689235Y-108127428D01*
X107695196Y-108151227D01*
X107698796Y-108175495D01*
X107700000Y-108199999D01*
X107700000Y-108850001D01*
X107698796Y-108874505D01*
X107695196Y-108898773D01*
X107689235Y-108922572D01*
X107680970Y-108945671D01*
X107670480Y-108967850D01*
X107657868Y-108988893D01*
X107643253Y-109008599D01*
X107626777Y-109026777D01*
X107608599Y-109043253D01*
X107588893Y-109057868D01*
X107567850Y-109070480D01*
X107545671Y-109080970D01*
X107522572Y-109089235D01*
X107498773Y-109095196D01*
X107474505Y-109098796D01*
X107450001Y-109100000D01*
X106549999Y-109100000D01*
X106525495Y-109098796D01*
X106501227Y-109095196D01*
X106477428Y-109089235D01*
X106454329Y-109080970D01*
X106432150Y-109070480D01*
X106411107Y-109057868D01*
X106391401Y-109043253D01*
X106373223Y-109026777D01*
X106356747Y-109008599D01*
X106342132Y-108988893D01*
X106329520Y-108967850D01*
X106319030Y-108945671D01*
X106310765Y-108922572D01*
X106304804Y-108898773D01*
X106301204Y-108874505D01*
X106300000Y-108850001D01*
X106300000Y-108199999D01*
X106301204Y-108175495D01*
X106304804Y-108151227D01*
X106310765Y-108127428D01*
X106319030Y-108104329D01*
X106329520Y-108082150D01*
X106342132Y-108061107D01*
X106356747Y-108041401D01*
X106373223Y-108023223D01*
X106391401Y-108006747D01*
X106411107Y-107992132D01*
X106432150Y-107979520D01*
X106454329Y-107969030D01*
X106477428Y-107960765D01*
X106501227Y-107954804D01*
X106525495Y-107951204D01*
X106549999Y-107950000D01*
X107450001Y-107950000D01*
X107474505Y-107951204D01*
G37*
G36*
X107474505Y-105901204D02*
G01*
X107498773Y-105904804D01*
X107522572Y-105910765D01*
X107545671Y-105919030D01*
X107567850Y-105929520D01*
X107588893Y-105942132D01*
X107608599Y-105956747D01*
X107626777Y-105973223D01*
X107643253Y-105991401D01*
X107657868Y-106011107D01*
X107670480Y-106032150D01*
X107680970Y-106054329D01*
X107689235Y-106077428D01*
X107695196Y-106101227D01*
X107698796Y-106125495D01*
X107700000Y-106149999D01*
X107700000Y-106800001D01*
X107698796Y-106824505D01*
X107695196Y-106848773D01*
X107689235Y-106872572D01*
X107680970Y-106895671D01*
X107670480Y-106917850D01*
X107657868Y-106938893D01*
X107643253Y-106958599D01*
X107626777Y-106976777D01*
X107608599Y-106993253D01*
X107588893Y-107007868D01*
X107567850Y-107020480D01*
X107545671Y-107030970D01*
X107522572Y-107039235D01*
X107498773Y-107045196D01*
X107474505Y-107048796D01*
X107450001Y-107050000D01*
X106549999Y-107050000D01*
X106525495Y-107048796D01*
X106501227Y-107045196D01*
X106477428Y-107039235D01*
X106454329Y-107030970D01*
X106432150Y-107020480D01*
X106411107Y-107007868D01*
X106391401Y-106993253D01*
X106373223Y-106976777D01*
X106356747Y-106958599D01*
X106342132Y-106938893D01*
X106329520Y-106917850D01*
X106319030Y-106895671D01*
X106310765Y-106872572D01*
X106304804Y-106848773D01*
X106301204Y-106824505D01*
X106300000Y-106800001D01*
X106300000Y-106149999D01*
X106301204Y-106125495D01*
X106304804Y-106101227D01*
X106310765Y-106077428D01*
X106319030Y-106054329D01*
X106329520Y-106032150D01*
X106342132Y-106011107D01*
X106356747Y-105991401D01*
X106373223Y-105973223D01*
X106391401Y-105956747D01*
X106411107Y-105942132D01*
X106432150Y-105929520D01*
X106454329Y-105919030D01*
X106477428Y-105910765D01*
X106501227Y-105904804D01*
X106525495Y-105901204D01*
X106549999Y-105900000D01*
X107450001Y-105900000D01*
X107474505Y-105901204D01*
G37*
G36*
X93474505Y-95401204D02*
G01*
X93498773Y-95404804D01*
X93522572Y-95410765D01*
X93545671Y-95419030D01*
X93567850Y-95429520D01*
X93588893Y-95442132D01*
X93608599Y-95456747D01*
X93626777Y-95473223D01*
X93643253Y-95491401D01*
X93657868Y-95511107D01*
X93670480Y-95532150D01*
X93680970Y-95554329D01*
X93689235Y-95577428D01*
X93695196Y-95601227D01*
X93698796Y-95625495D01*
X93700000Y-95649999D01*
X93700000Y-96300001D01*
X93698796Y-96324505D01*
X93695196Y-96348773D01*
X93689235Y-96372572D01*
X93680970Y-96395671D01*
X93670480Y-96417850D01*
X93657868Y-96438893D01*
X93643253Y-96458599D01*
X93626777Y-96476777D01*
X93608599Y-96493253D01*
X93588893Y-96507868D01*
X93567850Y-96520480D01*
X93545671Y-96530970D01*
X93522572Y-96539235D01*
X93498773Y-96545196D01*
X93474505Y-96548796D01*
X93450001Y-96550000D01*
X92549999Y-96550000D01*
X92525495Y-96548796D01*
X92501227Y-96545196D01*
X92477428Y-96539235D01*
X92454329Y-96530970D01*
X92432150Y-96520480D01*
X92411107Y-96507868D01*
X92391401Y-96493253D01*
X92373223Y-96476777D01*
X92356747Y-96458599D01*
X92342132Y-96438893D01*
X92329520Y-96417850D01*
X92319030Y-96395671D01*
X92310765Y-96372572D01*
X92304804Y-96348773D01*
X92301204Y-96324505D01*
X92300000Y-96300001D01*
X92300000Y-95649999D01*
X92301204Y-95625495D01*
X92304804Y-95601227D01*
X92310765Y-95577428D01*
X92319030Y-95554329D01*
X92329520Y-95532150D01*
X92342132Y-95511107D01*
X92356747Y-95491401D01*
X92373223Y-95473223D01*
X92391401Y-95456747D01*
X92411107Y-95442132D01*
X92432150Y-95429520D01*
X92454329Y-95419030D01*
X92477428Y-95410765D01*
X92501227Y-95404804D01*
X92525495Y-95401204D01*
X92549999Y-95400000D01*
X93450001Y-95400000D01*
X93474505Y-95401204D01*
G37*
G36*
X93474505Y-97451204D02*
G01*
X93498773Y-97454804D01*
X93522572Y-97460765D01*
X93545671Y-97469030D01*
X93567850Y-97479520D01*
X93588893Y-97492132D01*
X93608599Y-97506747D01*
X93626777Y-97523223D01*
X93643253Y-97541401D01*
X93657868Y-97561107D01*
X93670480Y-97582150D01*
X93680970Y-97604329D01*
X93689235Y-97627428D01*
X93695196Y-97651227D01*
X93698796Y-97675495D01*
X93700000Y-97699999D01*
X93700000Y-98350001D01*
X93698796Y-98374505D01*
X93695196Y-98398773D01*
X93689235Y-98422572D01*
X93680970Y-98445671D01*
X93670480Y-98467850D01*
X93657868Y-98488893D01*
X93643253Y-98508599D01*
X93626777Y-98526777D01*
X93608599Y-98543253D01*
X93588893Y-98557868D01*
X93567850Y-98570480D01*
X93545671Y-98580970D01*
X93522572Y-98589235D01*
X93498773Y-98595196D01*
X93474505Y-98598796D01*
X93450001Y-98600000D01*
X92549999Y-98600000D01*
X92525495Y-98598796D01*
X92501227Y-98595196D01*
X92477428Y-98589235D01*
X92454329Y-98580970D01*
X92432150Y-98570480D01*
X92411107Y-98557868D01*
X92391401Y-98543253D01*
X92373223Y-98526777D01*
X92356747Y-98508599D01*
X92342132Y-98488893D01*
X92329520Y-98467850D01*
X92319030Y-98445671D01*
X92310765Y-98422572D01*
X92304804Y-98398773D01*
X92301204Y-98374505D01*
X92300000Y-98350001D01*
X92300000Y-97699999D01*
X92301204Y-97675495D01*
X92304804Y-97651227D01*
X92310765Y-97627428D01*
X92319030Y-97604329D01*
X92329520Y-97582150D01*
X92342132Y-97561107D01*
X92356747Y-97541401D01*
X92373223Y-97523223D01*
X92391401Y-97506747D01*
X92411107Y-97492132D01*
X92432150Y-97479520D01*
X92454329Y-97469030D01*
X92477428Y-97460765D01*
X92501227Y-97454804D01*
X92525495Y-97451204D01*
X92549999Y-97450000D01*
X93450001Y-97450000D01*
X93474505Y-97451204D01*
G37*
G36*
X104724505Y-84201204D02*
G01*
X104748773Y-84204804D01*
X104772572Y-84210765D01*
X104795671Y-84219030D01*
X104817850Y-84229520D01*
X104838893Y-84242132D01*
X104858599Y-84256747D01*
X104876777Y-84273223D01*
X104893253Y-84291401D01*
X104907868Y-84311107D01*
X104920480Y-84332150D01*
X104930970Y-84354329D01*
X104939235Y-84377428D01*
X104945196Y-84401227D01*
X104948796Y-84425495D01*
X104950000Y-84449999D01*
X104950000Y-85100001D01*
X104948796Y-85124505D01*
X104945196Y-85148773D01*
X104939235Y-85172572D01*
X104930970Y-85195671D01*
X104920480Y-85217850D01*
X104907868Y-85238893D01*
X104893253Y-85258599D01*
X104876777Y-85276777D01*
X104858599Y-85293253D01*
X104838893Y-85307868D01*
X104817850Y-85320480D01*
X104795671Y-85330970D01*
X104772572Y-85339235D01*
X104748773Y-85345196D01*
X104724505Y-85348796D01*
X104700001Y-85350000D01*
X103799999Y-85350000D01*
X103775495Y-85348796D01*
X103751227Y-85345196D01*
X103727428Y-85339235D01*
X103704329Y-85330970D01*
X103682150Y-85320480D01*
X103661107Y-85307868D01*
X103641401Y-85293253D01*
X103623223Y-85276777D01*
X103606747Y-85258599D01*
X103592132Y-85238893D01*
X103579520Y-85217850D01*
X103569030Y-85195671D01*
X103560765Y-85172572D01*
X103554804Y-85148773D01*
X103551204Y-85124505D01*
X103550000Y-85100001D01*
X103550000Y-84449999D01*
X103551204Y-84425495D01*
X103554804Y-84401227D01*
X103560765Y-84377428D01*
X103569030Y-84354329D01*
X103579520Y-84332150D01*
X103592132Y-84311107D01*
X103606747Y-84291401D01*
X103623223Y-84273223D01*
X103641401Y-84256747D01*
X103661107Y-84242132D01*
X103682150Y-84229520D01*
X103704329Y-84219030D01*
X103727428Y-84210765D01*
X103751227Y-84204804D01*
X103775495Y-84201204D01*
X103799999Y-84200000D01*
X104700001Y-84200000D01*
X104724505Y-84201204D01*
G37*
G36*
X104724505Y-82151204D02*
G01*
X104748773Y-82154804D01*
X104772572Y-82160765D01*
X104795671Y-82169030D01*
X104817850Y-82179520D01*
X104838893Y-82192132D01*
X104858599Y-82206747D01*
X104876777Y-82223223D01*
X104893253Y-82241401D01*
X104907868Y-82261107D01*
X104920480Y-82282150D01*
X104930970Y-82304329D01*
X104939235Y-82327428D01*
X104945196Y-82351227D01*
X104948796Y-82375495D01*
X104950000Y-82399999D01*
X104950000Y-83050001D01*
X104948796Y-83074505D01*
X104945196Y-83098773D01*
X104939235Y-83122572D01*
X104930970Y-83145671D01*
X104920480Y-83167850D01*
X104907868Y-83188893D01*
X104893253Y-83208599D01*
X104876777Y-83226777D01*
X104858599Y-83243253D01*
X104838893Y-83257868D01*
X104817850Y-83270480D01*
X104795671Y-83280970D01*
X104772572Y-83289235D01*
X104748773Y-83295196D01*
X104724505Y-83298796D01*
X104700001Y-83300000D01*
X103799999Y-83300000D01*
X103775495Y-83298796D01*
X103751227Y-83295196D01*
X103727428Y-83289235D01*
X103704329Y-83280970D01*
X103682150Y-83270480D01*
X103661107Y-83257868D01*
X103641401Y-83243253D01*
X103623223Y-83226777D01*
X103606747Y-83208599D01*
X103592132Y-83188893D01*
X103579520Y-83167850D01*
X103569030Y-83145671D01*
X103560765Y-83122572D01*
X103554804Y-83098773D01*
X103551204Y-83074505D01*
X103550000Y-83050001D01*
X103550000Y-82399999D01*
X103551204Y-82375495D01*
X103554804Y-82351227D01*
X103560765Y-82327428D01*
X103569030Y-82304329D01*
X103579520Y-82282150D01*
X103592132Y-82261107D01*
X103606747Y-82241401D01*
X103623223Y-82223223D01*
X103641401Y-82206747D01*
X103661107Y-82192132D01*
X103682150Y-82179520D01*
X103704329Y-82169030D01*
X103727428Y-82160765D01*
X103751227Y-82154804D01*
X103775495Y-82151204D01*
X103799999Y-82150000D01*
X104700001Y-82150000D01*
X104724505Y-82151204D01*
G37*
M02*
