G04 #@! TF.GenerationSoftware,KiCad,Pcbnew,5.1.5+dfsg1-2build2*
G04 #@! TF.CreationDate,2021-01-19T23:11:10+01:00*
G04 #@! TF.ProjectId,t100-dcmotor,74313030-2d64-4636-9d6f-746f722e6b69,rev?*
G04 #@! TF.SameCoordinates,Original*
G04 #@! TF.FileFunction,Copper,L2,Bot*
G04 #@! TF.FilePolarity,Positive*
%FSLAX46Y46*%
G04 Gerber Fmt 4.6, Leading zero omitted, Abs format (unit mm)*
G04 Created by KiCad (PCBNEW 5.1.5+dfsg1-2build2) date 2021-01-19 23:11:10*
%MOMM*%
%LPD*%
G04 APERTURE LIST*
%ADD10C,0.100000*%
%ADD11C,1.524000*%
%ADD12O,1.700000X1.700000*%
%ADD13R,1.700000X1.700000*%
%ADD14C,0.800000*%
%ADD15C,2.000000*%
%ADD16C,0.400000*%
%ADD17C,0.600000*%
%ADD18C,0.254000*%
G04 APERTURE END LIST*
G04 #@! TA.AperFunction,ComponentPad*
D10*
G36*
X114773909Y-128402648D02*
G01*
X114827300Y-128410568D01*
X114879657Y-128423683D01*
X114930476Y-128441866D01*
X114979268Y-128464943D01*
X115025564Y-128492692D01*
X115068916Y-128524844D01*
X115108909Y-128561091D01*
X115145156Y-128601084D01*
X115177308Y-128644436D01*
X115205057Y-128690732D01*
X115228134Y-128739524D01*
X115246317Y-128790343D01*
X115259432Y-128842700D01*
X115267352Y-128896091D01*
X115270000Y-128950000D01*
X115270000Y-130050000D01*
X115267352Y-130103909D01*
X115259432Y-130157300D01*
X115246317Y-130209657D01*
X115228134Y-130260476D01*
X115205057Y-130309268D01*
X115177308Y-130355564D01*
X115145156Y-130398916D01*
X115108909Y-130438909D01*
X115068916Y-130475156D01*
X115025564Y-130507308D01*
X114979268Y-130535057D01*
X114930476Y-130558134D01*
X114879657Y-130576317D01*
X114827300Y-130589432D01*
X114773909Y-130597352D01*
X114720000Y-130600000D01*
X113620000Y-130600000D01*
X113566091Y-130597352D01*
X113512700Y-130589432D01*
X113460343Y-130576317D01*
X113409524Y-130558134D01*
X113360732Y-130535057D01*
X113314436Y-130507308D01*
X113271084Y-130475156D01*
X113231091Y-130438909D01*
X113194844Y-130398916D01*
X113162692Y-130355564D01*
X113134943Y-130309268D01*
X113111866Y-130260476D01*
X113093683Y-130209657D01*
X113080568Y-130157300D01*
X113072648Y-130103909D01*
X113070000Y-130050000D01*
X113070000Y-128950000D01*
X113072648Y-128896091D01*
X113080568Y-128842700D01*
X113093683Y-128790343D01*
X113111866Y-128739524D01*
X113134943Y-128690732D01*
X113162692Y-128644436D01*
X113194844Y-128601084D01*
X113231091Y-128561091D01*
X113271084Y-128524844D01*
X113314436Y-128492692D01*
X113360732Y-128464943D01*
X113409524Y-128441866D01*
X113460343Y-128423683D01*
X113512700Y-128410568D01*
X113566091Y-128402648D01*
X113620000Y-128400000D01*
X114720000Y-128400000D01*
X114773909Y-128402648D01*
G37*
G04 #@! TD.AperFunction*
G04 #@! TA.AperFunction,ComponentPad*
G36*
X110963909Y-128402648D02*
G01*
X111017300Y-128410568D01*
X111069657Y-128423683D01*
X111120476Y-128441866D01*
X111169268Y-128464943D01*
X111215564Y-128492692D01*
X111258916Y-128524844D01*
X111298909Y-128561091D01*
X111335156Y-128601084D01*
X111367308Y-128644436D01*
X111395057Y-128690732D01*
X111418134Y-128739524D01*
X111436317Y-128790343D01*
X111449432Y-128842700D01*
X111457352Y-128896091D01*
X111460000Y-128950000D01*
X111460000Y-130050000D01*
X111457352Y-130103909D01*
X111449432Y-130157300D01*
X111436317Y-130209657D01*
X111418134Y-130260476D01*
X111395057Y-130309268D01*
X111367308Y-130355564D01*
X111335156Y-130398916D01*
X111298909Y-130438909D01*
X111258916Y-130475156D01*
X111215564Y-130507308D01*
X111169268Y-130535057D01*
X111120476Y-130558134D01*
X111069657Y-130576317D01*
X111017300Y-130589432D01*
X110963909Y-130597352D01*
X110910000Y-130600000D01*
X109810000Y-130600000D01*
X109756091Y-130597352D01*
X109702700Y-130589432D01*
X109650343Y-130576317D01*
X109599524Y-130558134D01*
X109550732Y-130535057D01*
X109504436Y-130507308D01*
X109461084Y-130475156D01*
X109421091Y-130438909D01*
X109384844Y-130398916D01*
X109352692Y-130355564D01*
X109324943Y-130309268D01*
X109301866Y-130260476D01*
X109283683Y-130209657D01*
X109270568Y-130157300D01*
X109262648Y-130103909D01*
X109260000Y-130050000D01*
X109260000Y-128950000D01*
X109262648Y-128896091D01*
X109270568Y-128842700D01*
X109283683Y-128790343D01*
X109301866Y-128739524D01*
X109324943Y-128690732D01*
X109352692Y-128644436D01*
X109384844Y-128601084D01*
X109421091Y-128561091D01*
X109461084Y-128524844D01*
X109504436Y-128492692D01*
X109550732Y-128464943D01*
X109599524Y-128441866D01*
X109650343Y-128423683D01*
X109702700Y-128410568D01*
X109756091Y-128402648D01*
X109810000Y-128400000D01*
X110910000Y-128400000D01*
X110963909Y-128402648D01*
G37*
G04 #@! TD.AperFunction*
G04 #@! TA.AperFunction,ComponentPad*
G36*
X107153909Y-128402648D02*
G01*
X107207300Y-128410568D01*
X107259657Y-128423683D01*
X107310476Y-128441866D01*
X107359268Y-128464943D01*
X107405564Y-128492692D01*
X107448916Y-128524844D01*
X107488909Y-128561091D01*
X107525156Y-128601084D01*
X107557308Y-128644436D01*
X107585057Y-128690732D01*
X107608134Y-128739524D01*
X107626317Y-128790343D01*
X107639432Y-128842700D01*
X107647352Y-128896091D01*
X107650000Y-128950000D01*
X107650000Y-130050000D01*
X107647352Y-130103909D01*
X107639432Y-130157300D01*
X107626317Y-130209657D01*
X107608134Y-130260476D01*
X107585057Y-130309268D01*
X107557308Y-130355564D01*
X107525156Y-130398916D01*
X107488909Y-130438909D01*
X107448916Y-130475156D01*
X107405564Y-130507308D01*
X107359268Y-130535057D01*
X107310476Y-130558134D01*
X107259657Y-130576317D01*
X107207300Y-130589432D01*
X107153909Y-130597352D01*
X107100000Y-130600000D01*
X106000000Y-130600000D01*
X105946091Y-130597352D01*
X105892700Y-130589432D01*
X105840343Y-130576317D01*
X105789524Y-130558134D01*
X105740732Y-130535057D01*
X105694436Y-130507308D01*
X105651084Y-130475156D01*
X105611091Y-130438909D01*
X105574844Y-130398916D01*
X105542692Y-130355564D01*
X105514943Y-130309268D01*
X105491866Y-130260476D01*
X105473683Y-130209657D01*
X105460568Y-130157300D01*
X105452648Y-130103909D01*
X105450000Y-130050000D01*
X105450000Y-128950000D01*
X105452648Y-128896091D01*
X105460568Y-128842700D01*
X105473683Y-128790343D01*
X105491866Y-128739524D01*
X105514943Y-128690732D01*
X105542692Y-128644436D01*
X105574844Y-128601084D01*
X105611091Y-128561091D01*
X105651084Y-128524844D01*
X105694436Y-128492692D01*
X105740732Y-128464943D01*
X105789524Y-128441866D01*
X105840343Y-128423683D01*
X105892700Y-128410568D01*
X105946091Y-128402648D01*
X106000000Y-128400000D01*
X107100000Y-128400000D01*
X107153909Y-128402648D01*
G37*
G04 #@! TD.AperFunction*
G04 #@! TA.AperFunction,ComponentPad*
G36*
X103343909Y-128402648D02*
G01*
X103397300Y-128410568D01*
X103449657Y-128423683D01*
X103500476Y-128441866D01*
X103549268Y-128464943D01*
X103595564Y-128492692D01*
X103638916Y-128524844D01*
X103678909Y-128561091D01*
X103715156Y-128601084D01*
X103747308Y-128644436D01*
X103775057Y-128690732D01*
X103798134Y-128739524D01*
X103816317Y-128790343D01*
X103829432Y-128842700D01*
X103837352Y-128896091D01*
X103840000Y-128950000D01*
X103840000Y-130050000D01*
X103837352Y-130103909D01*
X103829432Y-130157300D01*
X103816317Y-130209657D01*
X103798134Y-130260476D01*
X103775057Y-130309268D01*
X103747308Y-130355564D01*
X103715156Y-130398916D01*
X103678909Y-130438909D01*
X103638916Y-130475156D01*
X103595564Y-130507308D01*
X103549268Y-130535057D01*
X103500476Y-130558134D01*
X103449657Y-130576317D01*
X103397300Y-130589432D01*
X103343909Y-130597352D01*
X103290000Y-130600000D01*
X102190000Y-130600000D01*
X102136091Y-130597352D01*
X102082700Y-130589432D01*
X102030343Y-130576317D01*
X101979524Y-130558134D01*
X101930732Y-130535057D01*
X101884436Y-130507308D01*
X101841084Y-130475156D01*
X101801091Y-130438909D01*
X101764844Y-130398916D01*
X101732692Y-130355564D01*
X101704943Y-130309268D01*
X101681866Y-130260476D01*
X101663683Y-130209657D01*
X101650568Y-130157300D01*
X101642648Y-130103909D01*
X101640000Y-130050000D01*
X101640000Y-128950000D01*
X101642648Y-128896091D01*
X101650568Y-128842700D01*
X101663683Y-128790343D01*
X101681866Y-128739524D01*
X101704943Y-128690732D01*
X101732692Y-128644436D01*
X101764844Y-128601084D01*
X101801091Y-128561091D01*
X101841084Y-128524844D01*
X101884436Y-128492692D01*
X101930732Y-128464943D01*
X101979524Y-128441866D01*
X102030343Y-128423683D01*
X102082700Y-128410568D01*
X102136091Y-128402648D01*
X102190000Y-128400000D01*
X103290000Y-128400000D01*
X103343909Y-128402648D01*
G37*
G04 #@! TD.AperFunction*
G04 #@! TA.AperFunction,ComponentPad*
G36*
X99533909Y-128402648D02*
G01*
X99587300Y-128410568D01*
X99639657Y-128423683D01*
X99690476Y-128441866D01*
X99739268Y-128464943D01*
X99785564Y-128492692D01*
X99828916Y-128524844D01*
X99868909Y-128561091D01*
X99905156Y-128601084D01*
X99937308Y-128644436D01*
X99965057Y-128690732D01*
X99988134Y-128739524D01*
X100006317Y-128790343D01*
X100019432Y-128842700D01*
X100027352Y-128896091D01*
X100030000Y-128950000D01*
X100030000Y-130050000D01*
X100027352Y-130103909D01*
X100019432Y-130157300D01*
X100006317Y-130209657D01*
X99988134Y-130260476D01*
X99965057Y-130309268D01*
X99937308Y-130355564D01*
X99905156Y-130398916D01*
X99868909Y-130438909D01*
X99828916Y-130475156D01*
X99785564Y-130507308D01*
X99739268Y-130535057D01*
X99690476Y-130558134D01*
X99639657Y-130576317D01*
X99587300Y-130589432D01*
X99533909Y-130597352D01*
X99480000Y-130600000D01*
X98380000Y-130600000D01*
X98326091Y-130597352D01*
X98272700Y-130589432D01*
X98220343Y-130576317D01*
X98169524Y-130558134D01*
X98120732Y-130535057D01*
X98074436Y-130507308D01*
X98031084Y-130475156D01*
X97991091Y-130438909D01*
X97954844Y-130398916D01*
X97922692Y-130355564D01*
X97894943Y-130309268D01*
X97871866Y-130260476D01*
X97853683Y-130209657D01*
X97840568Y-130157300D01*
X97832648Y-130103909D01*
X97830000Y-130050000D01*
X97830000Y-128950000D01*
X97832648Y-128896091D01*
X97840568Y-128842700D01*
X97853683Y-128790343D01*
X97871866Y-128739524D01*
X97894943Y-128690732D01*
X97922692Y-128644436D01*
X97954844Y-128601084D01*
X97991091Y-128561091D01*
X98031084Y-128524844D01*
X98074436Y-128492692D01*
X98120732Y-128464943D01*
X98169524Y-128441866D01*
X98220343Y-128423683D01*
X98272700Y-128410568D01*
X98326091Y-128402648D01*
X98380000Y-128400000D01*
X99480000Y-128400000D01*
X99533909Y-128402648D01*
G37*
G04 #@! TD.AperFunction*
G04 #@! TA.AperFunction,ComponentPad*
G36*
X95723909Y-128402648D02*
G01*
X95777300Y-128410568D01*
X95829657Y-128423683D01*
X95880476Y-128441866D01*
X95929268Y-128464943D01*
X95975564Y-128492692D01*
X96018916Y-128524844D01*
X96058909Y-128561091D01*
X96095156Y-128601084D01*
X96127308Y-128644436D01*
X96155057Y-128690732D01*
X96178134Y-128739524D01*
X96196317Y-128790343D01*
X96209432Y-128842700D01*
X96217352Y-128896091D01*
X96220000Y-128950000D01*
X96220000Y-130050000D01*
X96217352Y-130103909D01*
X96209432Y-130157300D01*
X96196317Y-130209657D01*
X96178134Y-130260476D01*
X96155057Y-130309268D01*
X96127308Y-130355564D01*
X96095156Y-130398916D01*
X96058909Y-130438909D01*
X96018916Y-130475156D01*
X95975564Y-130507308D01*
X95929268Y-130535057D01*
X95880476Y-130558134D01*
X95829657Y-130576317D01*
X95777300Y-130589432D01*
X95723909Y-130597352D01*
X95670000Y-130600000D01*
X94570000Y-130600000D01*
X94516091Y-130597352D01*
X94462700Y-130589432D01*
X94410343Y-130576317D01*
X94359524Y-130558134D01*
X94310732Y-130535057D01*
X94264436Y-130507308D01*
X94221084Y-130475156D01*
X94181091Y-130438909D01*
X94144844Y-130398916D01*
X94112692Y-130355564D01*
X94084943Y-130309268D01*
X94061866Y-130260476D01*
X94043683Y-130209657D01*
X94030568Y-130157300D01*
X94022648Y-130103909D01*
X94020000Y-130050000D01*
X94020000Y-128950000D01*
X94022648Y-128896091D01*
X94030568Y-128842700D01*
X94043683Y-128790343D01*
X94061866Y-128739524D01*
X94084943Y-128690732D01*
X94112692Y-128644436D01*
X94144844Y-128601084D01*
X94181091Y-128561091D01*
X94221084Y-128524844D01*
X94264436Y-128492692D01*
X94310732Y-128464943D01*
X94359524Y-128441866D01*
X94410343Y-128423683D01*
X94462700Y-128410568D01*
X94516091Y-128402648D01*
X94570000Y-128400000D01*
X95670000Y-128400000D01*
X95723909Y-128402648D01*
G37*
G04 #@! TD.AperFunction*
G04 #@! TA.AperFunction,ComponentPad*
G36*
X91913909Y-128402648D02*
G01*
X91967300Y-128410568D01*
X92019657Y-128423683D01*
X92070476Y-128441866D01*
X92119268Y-128464943D01*
X92165564Y-128492692D01*
X92208916Y-128524844D01*
X92248909Y-128561091D01*
X92285156Y-128601084D01*
X92317308Y-128644436D01*
X92345057Y-128690732D01*
X92368134Y-128739524D01*
X92386317Y-128790343D01*
X92399432Y-128842700D01*
X92407352Y-128896091D01*
X92410000Y-128950000D01*
X92410000Y-130050000D01*
X92407352Y-130103909D01*
X92399432Y-130157300D01*
X92386317Y-130209657D01*
X92368134Y-130260476D01*
X92345057Y-130309268D01*
X92317308Y-130355564D01*
X92285156Y-130398916D01*
X92248909Y-130438909D01*
X92208916Y-130475156D01*
X92165564Y-130507308D01*
X92119268Y-130535057D01*
X92070476Y-130558134D01*
X92019657Y-130576317D01*
X91967300Y-130589432D01*
X91913909Y-130597352D01*
X91860000Y-130600000D01*
X90760000Y-130600000D01*
X90706091Y-130597352D01*
X90652700Y-130589432D01*
X90600343Y-130576317D01*
X90549524Y-130558134D01*
X90500732Y-130535057D01*
X90454436Y-130507308D01*
X90411084Y-130475156D01*
X90371091Y-130438909D01*
X90334844Y-130398916D01*
X90302692Y-130355564D01*
X90274943Y-130309268D01*
X90251866Y-130260476D01*
X90233683Y-130209657D01*
X90220568Y-130157300D01*
X90212648Y-130103909D01*
X90210000Y-130050000D01*
X90210000Y-128950000D01*
X90212648Y-128896091D01*
X90220568Y-128842700D01*
X90233683Y-128790343D01*
X90251866Y-128739524D01*
X90274943Y-128690732D01*
X90302692Y-128644436D01*
X90334844Y-128601084D01*
X90371091Y-128561091D01*
X90411084Y-128524844D01*
X90454436Y-128492692D01*
X90500732Y-128464943D01*
X90549524Y-128441866D01*
X90600343Y-128423683D01*
X90652700Y-128410568D01*
X90706091Y-128402648D01*
X90760000Y-128400000D01*
X91860000Y-128400000D01*
X91913909Y-128402648D01*
G37*
G04 #@! TD.AperFunction*
G04 #@! TA.AperFunction,ComponentPad*
G36*
X88103909Y-123402648D02*
G01*
X88157300Y-123410568D01*
X88209657Y-123423683D01*
X88260476Y-123441866D01*
X88309268Y-123464943D01*
X88355564Y-123492692D01*
X88398916Y-123524844D01*
X88438909Y-123561091D01*
X88475156Y-123601084D01*
X88507308Y-123644436D01*
X88535057Y-123690732D01*
X88558134Y-123739524D01*
X88576317Y-123790343D01*
X88589432Y-123842700D01*
X88597352Y-123896091D01*
X88600000Y-123950000D01*
X88600000Y-125050000D01*
X88597352Y-125103909D01*
X88589432Y-125157300D01*
X88576317Y-125209657D01*
X88558134Y-125260476D01*
X88535057Y-125309268D01*
X88507308Y-125355564D01*
X88475156Y-125398916D01*
X88438909Y-125438909D01*
X88398916Y-125475156D01*
X88355564Y-125507308D01*
X88309268Y-125535057D01*
X88260476Y-125558134D01*
X88209657Y-125576317D01*
X88157300Y-125589432D01*
X88103909Y-125597352D01*
X88050000Y-125600000D01*
X86950000Y-125600000D01*
X86896091Y-125597352D01*
X86842700Y-125589432D01*
X86790343Y-125576317D01*
X86739524Y-125558134D01*
X86690732Y-125535057D01*
X86644436Y-125507308D01*
X86601084Y-125475156D01*
X86561091Y-125438909D01*
X86524844Y-125398916D01*
X86492692Y-125355564D01*
X86464943Y-125309268D01*
X86441866Y-125260476D01*
X86423683Y-125209657D01*
X86410568Y-125157300D01*
X86402648Y-125103909D01*
X86400000Y-125050000D01*
X86400000Y-123950000D01*
X86402648Y-123896091D01*
X86410568Y-123842700D01*
X86423683Y-123790343D01*
X86441866Y-123739524D01*
X86464943Y-123690732D01*
X86492692Y-123644436D01*
X86524844Y-123601084D01*
X86561091Y-123561091D01*
X86601084Y-123524844D01*
X86644436Y-123492692D01*
X86690732Y-123464943D01*
X86739524Y-123441866D01*
X86790343Y-123423683D01*
X86842700Y-123410568D01*
X86896091Y-123402648D01*
X86950000Y-123400000D01*
X88050000Y-123400000D01*
X88103909Y-123402648D01*
G37*
G04 #@! TD.AperFunction*
G04 #@! TA.AperFunction,ComponentPad*
G36*
X88103909Y-128402648D02*
G01*
X88157300Y-128410568D01*
X88209657Y-128423683D01*
X88260476Y-128441866D01*
X88309268Y-128464943D01*
X88355564Y-128492692D01*
X88398916Y-128524844D01*
X88438909Y-128561091D01*
X88475156Y-128601084D01*
X88507308Y-128644436D01*
X88535057Y-128690732D01*
X88558134Y-128739524D01*
X88576317Y-128790343D01*
X88589432Y-128842700D01*
X88597352Y-128896091D01*
X88600000Y-128950000D01*
X88600000Y-130050000D01*
X88597352Y-130103909D01*
X88589432Y-130157300D01*
X88576317Y-130209657D01*
X88558134Y-130260476D01*
X88535057Y-130309268D01*
X88507308Y-130355564D01*
X88475156Y-130398916D01*
X88438909Y-130438909D01*
X88398916Y-130475156D01*
X88355564Y-130507308D01*
X88309268Y-130535057D01*
X88260476Y-130558134D01*
X88209657Y-130576317D01*
X88157300Y-130589432D01*
X88103909Y-130597352D01*
X88050000Y-130600000D01*
X86950000Y-130600000D01*
X86896091Y-130597352D01*
X86842700Y-130589432D01*
X86790343Y-130576317D01*
X86739524Y-130558134D01*
X86690732Y-130535057D01*
X86644436Y-130507308D01*
X86601084Y-130475156D01*
X86561091Y-130438909D01*
X86524844Y-130398916D01*
X86492692Y-130355564D01*
X86464943Y-130309268D01*
X86441866Y-130260476D01*
X86423683Y-130209657D01*
X86410568Y-130157300D01*
X86402648Y-130103909D01*
X86400000Y-130050000D01*
X86400000Y-128950000D01*
X86402648Y-128896091D01*
X86410568Y-128842700D01*
X86423683Y-128790343D01*
X86441866Y-128739524D01*
X86464943Y-128690732D01*
X86492692Y-128644436D01*
X86524844Y-128601084D01*
X86561091Y-128561091D01*
X86601084Y-128524844D01*
X86644436Y-128492692D01*
X86690732Y-128464943D01*
X86739524Y-128441866D01*
X86790343Y-128423683D01*
X86842700Y-128410568D01*
X86896091Y-128402648D01*
X86950000Y-128400000D01*
X88050000Y-128400000D01*
X88103909Y-128402648D01*
G37*
G04 #@! TD.AperFunction*
G04 #@! TA.AperFunction,ComponentPad*
G36*
X91913909Y-123402648D02*
G01*
X91967300Y-123410568D01*
X92019657Y-123423683D01*
X92070476Y-123441866D01*
X92119268Y-123464943D01*
X92165564Y-123492692D01*
X92208916Y-123524844D01*
X92248909Y-123561091D01*
X92285156Y-123601084D01*
X92317308Y-123644436D01*
X92345057Y-123690732D01*
X92368134Y-123739524D01*
X92386317Y-123790343D01*
X92399432Y-123842700D01*
X92407352Y-123896091D01*
X92410000Y-123950000D01*
X92410000Y-125050000D01*
X92407352Y-125103909D01*
X92399432Y-125157300D01*
X92386317Y-125209657D01*
X92368134Y-125260476D01*
X92345057Y-125309268D01*
X92317308Y-125355564D01*
X92285156Y-125398916D01*
X92248909Y-125438909D01*
X92208916Y-125475156D01*
X92165564Y-125507308D01*
X92119268Y-125535057D01*
X92070476Y-125558134D01*
X92019657Y-125576317D01*
X91967300Y-125589432D01*
X91913909Y-125597352D01*
X91860000Y-125600000D01*
X90760000Y-125600000D01*
X90706091Y-125597352D01*
X90652700Y-125589432D01*
X90600343Y-125576317D01*
X90549524Y-125558134D01*
X90500732Y-125535057D01*
X90454436Y-125507308D01*
X90411084Y-125475156D01*
X90371091Y-125438909D01*
X90334844Y-125398916D01*
X90302692Y-125355564D01*
X90274943Y-125309268D01*
X90251866Y-125260476D01*
X90233683Y-125209657D01*
X90220568Y-125157300D01*
X90212648Y-125103909D01*
X90210000Y-125050000D01*
X90210000Y-123950000D01*
X90212648Y-123896091D01*
X90220568Y-123842700D01*
X90233683Y-123790343D01*
X90251866Y-123739524D01*
X90274943Y-123690732D01*
X90302692Y-123644436D01*
X90334844Y-123601084D01*
X90371091Y-123561091D01*
X90411084Y-123524844D01*
X90454436Y-123492692D01*
X90500732Y-123464943D01*
X90549524Y-123441866D01*
X90600343Y-123423683D01*
X90652700Y-123410568D01*
X90706091Y-123402648D01*
X90760000Y-123400000D01*
X91860000Y-123400000D01*
X91913909Y-123402648D01*
G37*
G04 #@! TD.AperFunction*
G04 #@! TA.AperFunction,ComponentPad*
G36*
X95723909Y-123402648D02*
G01*
X95777300Y-123410568D01*
X95829657Y-123423683D01*
X95880476Y-123441866D01*
X95929268Y-123464943D01*
X95975564Y-123492692D01*
X96018916Y-123524844D01*
X96058909Y-123561091D01*
X96095156Y-123601084D01*
X96127308Y-123644436D01*
X96155057Y-123690732D01*
X96178134Y-123739524D01*
X96196317Y-123790343D01*
X96209432Y-123842700D01*
X96217352Y-123896091D01*
X96220000Y-123950000D01*
X96220000Y-125050000D01*
X96217352Y-125103909D01*
X96209432Y-125157300D01*
X96196317Y-125209657D01*
X96178134Y-125260476D01*
X96155057Y-125309268D01*
X96127308Y-125355564D01*
X96095156Y-125398916D01*
X96058909Y-125438909D01*
X96018916Y-125475156D01*
X95975564Y-125507308D01*
X95929268Y-125535057D01*
X95880476Y-125558134D01*
X95829657Y-125576317D01*
X95777300Y-125589432D01*
X95723909Y-125597352D01*
X95670000Y-125600000D01*
X94570000Y-125600000D01*
X94516091Y-125597352D01*
X94462700Y-125589432D01*
X94410343Y-125576317D01*
X94359524Y-125558134D01*
X94310732Y-125535057D01*
X94264436Y-125507308D01*
X94221084Y-125475156D01*
X94181091Y-125438909D01*
X94144844Y-125398916D01*
X94112692Y-125355564D01*
X94084943Y-125309268D01*
X94061866Y-125260476D01*
X94043683Y-125209657D01*
X94030568Y-125157300D01*
X94022648Y-125103909D01*
X94020000Y-125050000D01*
X94020000Y-123950000D01*
X94022648Y-123896091D01*
X94030568Y-123842700D01*
X94043683Y-123790343D01*
X94061866Y-123739524D01*
X94084943Y-123690732D01*
X94112692Y-123644436D01*
X94144844Y-123601084D01*
X94181091Y-123561091D01*
X94221084Y-123524844D01*
X94264436Y-123492692D01*
X94310732Y-123464943D01*
X94359524Y-123441866D01*
X94410343Y-123423683D01*
X94462700Y-123410568D01*
X94516091Y-123402648D01*
X94570000Y-123400000D01*
X95670000Y-123400000D01*
X95723909Y-123402648D01*
G37*
G04 #@! TD.AperFunction*
G04 #@! TA.AperFunction,ComponentPad*
G36*
X99533909Y-123402648D02*
G01*
X99587300Y-123410568D01*
X99639657Y-123423683D01*
X99690476Y-123441866D01*
X99739268Y-123464943D01*
X99785564Y-123492692D01*
X99828916Y-123524844D01*
X99868909Y-123561091D01*
X99905156Y-123601084D01*
X99937308Y-123644436D01*
X99965057Y-123690732D01*
X99988134Y-123739524D01*
X100006317Y-123790343D01*
X100019432Y-123842700D01*
X100027352Y-123896091D01*
X100030000Y-123950000D01*
X100030000Y-125050000D01*
X100027352Y-125103909D01*
X100019432Y-125157300D01*
X100006317Y-125209657D01*
X99988134Y-125260476D01*
X99965057Y-125309268D01*
X99937308Y-125355564D01*
X99905156Y-125398916D01*
X99868909Y-125438909D01*
X99828916Y-125475156D01*
X99785564Y-125507308D01*
X99739268Y-125535057D01*
X99690476Y-125558134D01*
X99639657Y-125576317D01*
X99587300Y-125589432D01*
X99533909Y-125597352D01*
X99480000Y-125600000D01*
X98380000Y-125600000D01*
X98326091Y-125597352D01*
X98272700Y-125589432D01*
X98220343Y-125576317D01*
X98169524Y-125558134D01*
X98120732Y-125535057D01*
X98074436Y-125507308D01*
X98031084Y-125475156D01*
X97991091Y-125438909D01*
X97954844Y-125398916D01*
X97922692Y-125355564D01*
X97894943Y-125309268D01*
X97871866Y-125260476D01*
X97853683Y-125209657D01*
X97840568Y-125157300D01*
X97832648Y-125103909D01*
X97830000Y-125050000D01*
X97830000Y-123950000D01*
X97832648Y-123896091D01*
X97840568Y-123842700D01*
X97853683Y-123790343D01*
X97871866Y-123739524D01*
X97894943Y-123690732D01*
X97922692Y-123644436D01*
X97954844Y-123601084D01*
X97991091Y-123561091D01*
X98031084Y-123524844D01*
X98074436Y-123492692D01*
X98120732Y-123464943D01*
X98169524Y-123441866D01*
X98220343Y-123423683D01*
X98272700Y-123410568D01*
X98326091Y-123402648D01*
X98380000Y-123400000D01*
X99480000Y-123400000D01*
X99533909Y-123402648D01*
G37*
G04 #@! TD.AperFunction*
G04 #@! TA.AperFunction,ComponentPad*
G36*
X103343909Y-123402648D02*
G01*
X103397300Y-123410568D01*
X103449657Y-123423683D01*
X103500476Y-123441866D01*
X103549268Y-123464943D01*
X103595564Y-123492692D01*
X103638916Y-123524844D01*
X103678909Y-123561091D01*
X103715156Y-123601084D01*
X103747308Y-123644436D01*
X103775057Y-123690732D01*
X103798134Y-123739524D01*
X103816317Y-123790343D01*
X103829432Y-123842700D01*
X103837352Y-123896091D01*
X103840000Y-123950000D01*
X103840000Y-125050000D01*
X103837352Y-125103909D01*
X103829432Y-125157300D01*
X103816317Y-125209657D01*
X103798134Y-125260476D01*
X103775057Y-125309268D01*
X103747308Y-125355564D01*
X103715156Y-125398916D01*
X103678909Y-125438909D01*
X103638916Y-125475156D01*
X103595564Y-125507308D01*
X103549268Y-125535057D01*
X103500476Y-125558134D01*
X103449657Y-125576317D01*
X103397300Y-125589432D01*
X103343909Y-125597352D01*
X103290000Y-125600000D01*
X102190000Y-125600000D01*
X102136091Y-125597352D01*
X102082700Y-125589432D01*
X102030343Y-125576317D01*
X101979524Y-125558134D01*
X101930732Y-125535057D01*
X101884436Y-125507308D01*
X101841084Y-125475156D01*
X101801091Y-125438909D01*
X101764844Y-125398916D01*
X101732692Y-125355564D01*
X101704943Y-125309268D01*
X101681866Y-125260476D01*
X101663683Y-125209657D01*
X101650568Y-125157300D01*
X101642648Y-125103909D01*
X101640000Y-125050000D01*
X101640000Y-123950000D01*
X101642648Y-123896091D01*
X101650568Y-123842700D01*
X101663683Y-123790343D01*
X101681866Y-123739524D01*
X101704943Y-123690732D01*
X101732692Y-123644436D01*
X101764844Y-123601084D01*
X101801091Y-123561091D01*
X101841084Y-123524844D01*
X101884436Y-123492692D01*
X101930732Y-123464943D01*
X101979524Y-123441866D01*
X102030343Y-123423683D01*
X102082700Y-123410568D01*
X102136091Y-123402648D01*
X102190000Y-123400000D01*
X103290000Y-123400000D01*
X103343909Y-123402648D01*
G37*
G04 #@! TD.AperFunction*
G04 #@! TA.AperFunction,ComponentPad*
G36*
X107153909Y-123402648D02*
G01*
X107207300Y-123410568D01*
X107259657Y-123423683D01*
X107310476Y-123441866D01*
X107359268Y-123464943D01*
X107405564Y-123492692D01*
X107448916Y-123524844D01*
X107488909Y-123561091D01*
X107525156Y-123601084D01*
X107557308Y-123644436D01*
X107585057Y-123690732D01*
X107608134Y-123739524D01*
X107626317Y-123790343D01*
X107639432Y-123842700D01*
X107647352Y-123896091D01*
X107650000Y-123950000D01*
X107650000Y-125050000D01*
X107647352Y-125103909D01*
X107639432Y-125157300D01*
X107626317Y-125209657D01*
X107608134Y-125260476D01*
X107585057Y-125309268D01*
X107557308Y-125355564D01*
X107525156Y-125398916D01*
X107488909Y-125438909D01*
X107448916Y-125475156D01*
X107405564Y-125507308D01*
X107359268Y-125535057D01*
X107310476Y-125558134D01*
X107259657Y-125576317D01*
X107207300Y-125589432D01*
X107153909Y-125597352D01*
X107100000Y-125600000D01*
X106000000Y-125600000D01*
X105946091Y-125597352D01*
X105892700Y-125589432D01*
X105840343Y-125576317D01*
X105789524Y-125558134D01*
X105740732Y-125535057D01*
X105694436Y-125507308D01*
X105651084Y-125475156D01*
X105611091Y-125438909D01*
X105574844Y-125398916D01*
X105542692Y-125355564D01*
X105514943Y-125309268D01*
X105491866Y-125260476D01*
X105473683Y-125209657D01*
X105460568Y-125157300D01*
X105452648Y-125103909D01*
X105450000Y-125050000D01*
X105450000Y-123950000D01*
X105452648Y-123896091D01*
X105460568Y-123842700D01*
X105473683Y-123790343D01*
X105491866Y-123739524D01*
X105514943Y-123690732D01*
X105542692Y-123644436D01*
X105574844Y-123601084D01*
X105611091Y-123561091D01*
X105651084Y-123524844D01*
X105694436Y-123492692D01*
X105740732Y-123464943D01*
X105789524Y-123441866D01*
X105840343Y-123423683D01*
X105892700Y-123410568D01*
X105946091Y-123402648D01*
X106000000Y-123400000D01*
X107100000Y-123400000D01*
X107153909Y-123402648D01*
G37*
G04 #@! TD.AperFunction*
G04 #@! TA.AperFunction,ComponentPad*
G36*
X110963909Y-123402648D02*
G01*
X111017300Y-123410568D01*
X111069657Y-123423683D01*
X111120476Y-123441866D01*
X111169268Y-123464943D01*
X111215564Y-123492692D01*
X111258916Y-123524844D01*
X111298909Y-123561091D01*
X111335156Y-123601084D01*
X111367308Y-123644436D01*
X111395057Y-123690732D01*
X111418134Y-123739524D01*
X111436317Y-123790343D01*
X111449432Y-123842700D01*
X111457352Y-123896091D01*
X111460000Y-123950000D01*
X111460000Y-125050000D01*
X111457352Y-125103909D01*
X111449432Y-125157300D01*
X111436317Y-125209657D01*
X111418134Y-125260476D01*
X111395057Y-125309268D01*
X111367308Y-125355564D01*
X111335156Y-125398916D01*
X111298909Y-125438909D01*
X111258916Y-125475156D01*
X111215564Y-125507308D01*
X111169268Y-125535057D01*
X111120476Y-125558134D01*
X111069657Y-125576317D01*
X111017300Y-125589432D01*
X110963909Y-125597352D01*
X110910000Y-125600000D01*
X109810000Y-125600000D01*
X109756091Y-125597352D01*
X109702700Y-125589432D01*
X109650343Y-125576317D01*
X109599524Y-125558134D01*
X109550732Y-125535057D01*
X109504436Y-125507308D01*
X109461084Y-125475156D01*
X109421091Y-125438909D01*
X109384844Y-125398916D01*
X109352692Y-125355564D01*
X109324943Y-125309268D01*
X109301866Y-125260476D01*
X109283683Y-125209657D01*
X109270568Y-125157300D01*
X109262648Y-125103909D01*
X109260000Y-125050000D01*
X109260000Y-123950000D01*
X109262648Y-123896091D01*
X109270568Y-123842700D01*
X109283683Y-123790343D01*
X109301866Y-123739524D01*
X109324943Y-123690732D01*
X109352692Y-123644436D01*
X109384844Y-123601084D01*
X109421091Y-123561091D01*
X109461084Y-123524844D01*
X109504436Y-123492692D01*
X109550732Y-123464943D01*
X109599524Y-123441866D01*
X109650343Y-123423683D01*
X109702700Y-123410568D01*
X109756091Y-123402648D01*
X109810000Y-123400000D01*
X110910000Y-123400000D01*
X110963909Y-123402648D01*
G37*
G04 #@! TD.AperFunction*
G04 #@! TA.AperFunction,ComponentPad*
G36*
X114773909Y-123402648D02*
G01*
X114827300Y-123410568D01*
X114879657Y-123423683D01*
X114930476Y-123441866D01*
X114979268Y-123464943D01*
X115025564Y-123492692D01*
X115068916Y-123524844D01*
X115108909Y-123561091D01*
X115145156Y-123601084D01*
X115177308Y-123644436D01*
X115205057Y-123690732D01*
X115228134Y-123739524D01*
X115246317Y-123790343D01*
X115259432Y-123842700D01*
X115267352Y-123896091D01*
X115270000Y-123950000D01*
X115270000Y-125050000D01*
X115267352Y-125103909D01*
X115259432Y-125157300D01*
X115246317Y-125209657D01*
X115228134Y-125260476D01*
X115205057Y-125309268D01*
X115177308Y-125355564D01*
X115145156Y-125398916D01*
X115108909Y-125438909D01*
X115068916Y-125475156D01*
X115025564Y-125507308D01*
X114979268Y-125535057D01*
X114930476Y-125558134D01*
X114879657Y-125576317D01*
X114827300Y-125589432D01*
X114773909Y-125597352D01*
X114720000Y-125600000D01*
X113620000Y-125600000D01*
X113566091Y-125597352D01*
X113512700Y-125589432D01*
X113460343Y-125576317D01*
X113409524Y-125558134D01*
X113360732Y-125535057D01*
X113314436Y-125507308D01*
X113271084Y-125475156D01*
X113231091Y-125438909D01*
X113194844Y-125398916D01*
X113162692Y-125355564D01*
X113134943Y-125309268D01*
X113111866Y-125260476D01*
X113093683Y-125209657D01*
X113080568Y-125157300D01*
X113072648Y-125103909D01*
X113070000Y-125050000D01*
X113070000Y-123950000D01*
X113072648Y-123896091D01*
X113080568Y-123842700D01*
X113093683Y-123790343D01*
X113111866Y-123739524D01*
X113134943Y-123690732D01*
X113162692Y-123644436D01*
X113194844Y-123601084D01*
X113231091Y-123561091D01*
X113271084Y-123524844D01*
X113314436Y-123492692D01*
X113360732Y-123464943D01*
X113409524Y-123441866D01*
X113460343Y-123423683D01*
X113512700Y-123410568D01*
X113566091Y-123402648D01*
X113620000Y-123400000D01*
X114720000Y-123400000D01*
X114773909Y-123402648D01*
G37*
G04 #@! TD.AperFunction*
D11*
X101500000Y-99040000D03*
X101500000Y-96500000D03*
X101500000Y-93960000D03*
D12*
X107250000Y-62250000D03*
X107250000Y-64790000D03*
X107250000Y-67330000D03*
X107250000Y-69870000D03*
X107250000Y-72410000D03*
X107250000Y-74950000D03*
X107250000Y-77490000D03*
X107250000Y-80030000D03*
X107250000Y-82570000D03*
X107250000Y-85110000D03*
X107250000Y-87650000D03*
D13*
X107250000Y-90190000D03*
D12*
X87750000Y-62250000D03*
X87750000Y-64790000D03*
X87750000Y-67330000D03*
X87750000Y-69870000D03*
X87750000Y-72410000D03*
X87750000Y-74950000D03*
X87750000Y-77490000D03*
X87750000Y-80030000D03*
X87750000Y-82570000D03*
X87750000Y-85110000D03*
X87750000Y-87650000D03*
D13*
X87750000Y-90190000D03*
D14*
X93000000Y-94500000D03*
X86950000Y-93050000D03*
X97500000Y-70810000D03*
X111500000Y-105500000D03*
X106000000Y-110000000D03*
X106000000Y-111000000D03*
X106000000Y-112000000D03*
X107000000Y-112000000D03*
X107000000Y-111000000D03*
X107000000Y-110000000D03*
X108000000Y-110000000D03*
X108000000Y-111000000D03*
X108000000Y-112000000D03*
X94000000Y-111500000D03*
X94000000Y-110500000D03*
X94000000Y-109500000D03*
X93000000Y-109500000D03*
X93000000Y-110500000D03*
X93000000Y-111500000D03*
X96000000Y-108500000D03*
X95000000Y-108500000D03*
X95000000Y-109500000D03*
X96000000Y-109500000D03*
X94000000Y-116000000D03*
X93000000Y-116000000D03*
X93000000Y-117000000D03*
X94000000Y-117000000D03*
X106000000Y-116500000D03*
X106000000Y-117500000D03*
X107000000Y-117500000D03*
X107000000Y-116500000D03*
X104000000Y-81000000D03*
X98500000Y-81500000D03*
X109000008Y-92500000D03*
X109000000Y-98000000D03*
X94500000Y-81500000D03*
X101500000Y-102000000D03*
X101905000Y-108999988D03*
X88500000Y-113000000D03*
X90000000Y-118500000D03*
X88999992Y-114500000D03*
X90000000Y-120000000D03*
X91000000Y-112500000D03*
X91148533Y-119548523D03*
X114000000Y-100000000D03*
X114500000Y-97500000D03*
D15*
X87750000Y-90190000D02*
X107250000Y-90190000D01*
X87750000Y-62250000D02*
X107250000Y-62250000D01*
X87750000Y-69870000D02*
X107250000Y-69870000D01*
X87750000Y-74950000D02*
X107250000Y-74950000D01*
X87750000Y-90190000D02*
X86310000Y-90190000D01*
X107250000Y-90190000D02*
X108810000Y-90190000D01*
X107250000Y-74950000D02*
X108452081Y-74950000D01*
X108500000Y-74997919D02*
X108452081Y-74950000D01*
X107250000Y-62250000D02*
X109500000Y-62250000D01*
X107250000Y-69870000D02*
X109500000Y-69870000D01*
X87750000Y-62250000D02*
X85500000Y-62250000D01*
X87750000Y-69870000D02*
X85500000Y-69870000D01*
X86497919Y-75000000D02*
X86500000Y-74997919D01*
X85500000Y-75000000D02*
X86497919Y-75000000D01*
X85550000Y-74950000D02*
X85500000Y-75000000D01*
X87750000Y-74950000D02*
X85550000Y-74950000D01*
X87750000Y-77490000D02*
X107250000Y-77490000D01*
D16*
X104000000Y-81000000D02*
X103500000Y-81500000D01*
X103500000Y-81500000D02*
X98500000Y-81500000D01*
D15*
X87750000Y-64790000D02*
X107250000Y-64790000D01*
X87750000Y-67330000D02*
X107250000Y-67330000D01*
X87750000Y-64790000D02*
X87750000Y-67330000D01*
X107250000Y-64790000D02*
X107250000Y-67330000D01*
X87750000Y-72410000D02*
X107250000Y-72410000D01*
D17*
X109000000Y-92500008D02*
X109000008Y-92500000D01*
X109000000Y-98000000D02*
X109000000Y-92500008D01*
D16*
X87750000Y-80030000D02*
X107250000Y-80030000D01*
X87750000Y-82570000D02*
X88952081Y-82570000D01*
X94500000Y-82500000D02*
X107250000Y-82570000D01*
X88952081Y-82570000D02*
X94500000Y-82500000D01*
X94500000Y-82500000D02*
X94500000Y-81500000D01*
X88952081Y-85110000D02*
X107250000Y-85110000D01*
X87750000Y-85110000D02*
X88952081Y-85110000D01*
X87750000Y-87650000D02*
X107250000Y-87650000D01*
X101500000Y-102000000D02*
X101905000Y-102405000D01*
X101905000Y-102405000D02*
X101905000Y-108999988D01*
X88500000Y-113000000D02*
X89065685Y-113000000D01*
X89065685Y-113000000D02*
X90000000Y-113934315D01*
X90000000Y-113934315D02*
X90000000Y-117934315D01*
X90000000Y-117934315D02*
X90000000Y-118500000D01*
X88999992Y-118999992D02*
X90000000Y-120000000D01*
X88999992Y-114500000D02*
X88999992Y-118999992D01*
X91000000Y-112500000D02*
X91000000Y-119500000D01*
X91100010Y-119500000D02*
X91148533Y-119548523D01*
X91000000Y-119500000D02*
X91100010Y-119500000D01*
X114000000Y-124330000D02*
X114170000Y-124500000D01*
X114000000Y-100000000D02*
X114000000Y-124330000D01*
X110500000Y-124500000D02*
X110360000Y-124500000D01*
X113199999Y-121800001D02*
X110500000Y-124500000D01*
X113199999Y-98800001D02*
X113199999Y-121800001D01*
X114500000Y-97500000D02*
X114500000Y-97500000D01*
X114500000Y-97500000D02*
X113199999Y-98800001D01*
D18*
G36*
X115489750Y-51039162D02*
G01*
X115720370Y-51108789D01*
X115933076Y-51221887D01*
X116119763Y-51374145D01*
X116273318Y-51559761D01*
X116387898Y-51771671D01*
X116459134Y-52001797D01*
X116488001Y-52276451D01*
X116488000Y-147712734D01*
X116460838Y-147989751D01*
X116391209Y-148220373D01*
X116278112Y-148433077D01*
X116125854Y-148619763D01*
X115940240Y-148773317D01*
X115728326Y-148887898D01*
X115498203Y-148959133D01*
X115223558Y-148988000D01*
X84787265Y-148988000D01*
X84510248Y-148960838D01*
X84279626Y-148891209D01*
X84066922Y-148778112D01*
X83880236Y-148625854D01*
X83726682Y-148440240D01*
X83612101Y-148228326D01*
X83540866Y-147998203D01*
X83511999Y-147723558D01*
X83511999Y-147512000D01*
X87537426Y-147512000D01*
X87576082Y-147508193D01*
X87598792Y-147508193D01*
X87609373Y-147507080D01*
X87948784Y-147469009D01*
X88016328Y-147454652D01*
X88084086Y-147441236D01*
X88094250Y-147438090D01*
X88419803Y-147334819D01*
X88483333Y-147307590D01*
X88547135Y-147281293D01*
X88556494Y-147276233D01*
X88855788Y-147111695D01*
X88912764Y-147072683D01*
X88970299Y-147034457D01*
X88978496Y-147027675D01*
X89240131Y-146808137D01*
X89288443Y-146758803D01*
X89337458Y-146710129D01*
X89344182Y-146701884D01*
X89558192Y-146435710D01*
X89596014Y-146377913D01*
X89634631Y-146320661D01*
X89639619Y-146311278D01*
X89639625Y-146311269D01*
X89639629Y-146311260D01*
X89797859Y-146008593D01*
X89823731Y-145944559D01*
X89850495Y-145880891D01*
X89853566Y-145870716D01*
X89853570Y-145870706D01*
X89853572Y-145870696D01*
X89950000Y-145543061D01*
X89962941Y-145475220D01*
X89976829Y-145407566D01*
X89977867Y-145396978D01*
X90008821Y-145056843D01*
X90008339Y-144987749D01*
X90008821Y-144918722D01*
X90007783Y-144908134D01*
X89991355Y-144751821D01*
X109980192Y-144751821D01*
X109980192Y-145248179D01*
X110077027Y-145735001D01*
X110266975Y-146193577D01*
X110542738Y-146606284D01*
X110893716Y-146957262D01*
X111306423Y-147233025D01*
X111764999Y-147422973D01*
X112251821Y-147519808D01*
X112748179Y-147519808D01*
X113235001Y-147422973D01*
X113693577Y-147233025D01*
X114106284Y-146957262D01*
X114457262Y-146606284D01*
X114733025Y-146193577D01*
X114922973Y-145735001D01*
X115019808Y-145248179D01*
X115019808Y-144751821D01*
X114922973Y-144264999D01*
X114733025Y-143806423D01*
X114457262Y-143393716D01*
X114106284Y-143042738D01*
X113693577Y-142766975D01*
X113235001Y-142577027D01*
X112748179Y-142480192D01*
X112251821Y-142480192D01*
X111764999Y-142577027D01*
X111306423Y-142766975D01*
X110893716Y-143042738D01*
X110542738Y-143393716D01*
X110266975Y-143806423D01*
X110077027Y-144264999D01*
X109980192Y-144751821D01*
X89991355Y-144751821D01*
X89972083Y-144568465D01*
X89958196Y-144500809D01*
X89945255Y-144432970D01*
X89942182Y-144422795D01*
X89942180Y-144422785D01*
X89942176Y-144422776D01*
X89841183Y-144096519D01*
X89814417Y-144032845D01*
X89788548Y-143968816D01*
X89783553Y-143959423D01*
X89783553Y-143959422D01*
X89783550Y-143959418D01*
X89621108Y-143658987D01*
X89582505Y-143601756D01*
X89544671Y-143543939D01*
X89537947Y-143535694D01*
X89320241Y-143272534D01*
X89271244Y-143223878D01*
X89222913Y-143174524D01*
X89214715Y-143167742D01*
X88950040Y-142951880D01*
X88892545Y-142913680D01*
X88835532Y-142874642D01*
X88826173Y-142869582D01*
X88524611Y-142709239D01*
X88460789Y-142682933D01*
X88397279Y-142655712D01*
X88387119Y-142652568D01*
X88387113Y-142652566D01*
X88060152Y-142553851D01*
X87992406Y-142540436D01*
X87924848Y-142526076D01*
X87914280Y-142524966D01*
X87914268Y-142524964D01*
X87914257Y-142524964D01*
X87574357Y-142491637D01*
X87574354Y-142491637D01*
X87537426Y-142488000D01*
X83511998Y-142488000D01*
X83511998Y-128950000D01*
X85761928Y-128950000D01*
X85761928Y-130050000D01*
X85784756Y-130281781D01*
X85852365Y-130504655D01*
X85962154Y-130710057D01*
X86109906Y-130890094D01*
X86289943Y-131037846D01*
X86495345Y-131147635D01*
X86718219Y-131215244D01*
X86950000Y-131238072D01*
X88050000Y-131238072D01*
X88281781Y-131215244D01*
X88504655Y-131147635D01*
X88710057Y-131037846D01*
X88890094Y-130890094D01*
X89037846Y-130710057D01*
X89096672Y-130600000D01*
X89571928Y-130600000D01*
X89584188Y-130724482D01*
X89620498Y-130844180D01*
X89679463Y-130954494D01*
X89758815Y-131051185D01*
X89855506Y-131130537D01*
X89965820Y-131189502D01*
X90085518Y-131225812D01*
X90210000Y-131238072D01*
X91024250Y-131235000D01*
X91183000Y-131076250D01*
X91183000Y-129627000D01*
X91437000Y-129627000D01*
X91437000Y-131076250D01*
X91595750Y-131235000D01*
X92410000Y-131238072D01*
X92534482Y-131225812D01*
X92654180Y-131189502D01*
X92764494Y-131130537D01*
X92861185Y-131051185D01*
X92940537Y-130954494D01*
X92999502Y-130844180D01*
X93035812Y-130724482D01*
X93048072Y-130600000D01*
X93045000Y-129785750D01*
X92886250Y-129627000D01*
X91437000Y-129627000D01*
X91183000Y-129627000D01*
X89733750Y-129627000D01*
X89575000Y-129785750D01*
X89571928Y-130600000D01*
X89096672Y-130600000D01*
X89147635Y-130504655D01*
X89215244Y-130281781D01*
X89238072Y-130050000D01*
X89238072Y-128950000D01*
X89215244Y-128718219D01*
X89147635Y-128495345D01*
X89096673Y-128400000D01*
X89571928Y-128400000D01*
X89575000Y-129214250D01*
X89733750Y-129373000D01*
X91183000Y-129373000D01*
X91183000Y-127923750D01*
X91437000Y-127923750D01*
X91437000Y-129373000D01*
X92886250Y-129373000D01*
X93045000Y-129214250D01*
X93045996Y-128950000D01*
X93381928Y-128950000D01*
X93381928Y-130050000D01*
X93404756Y-130281781D01*
X93472365Y-130504655D01*
X93582154Y-130710057D01*
X93729906Y-130890094D01*
X93909943Y-131037846D01*
X94115345Y-131147635D01*
X94338219Y-131215244D01*
X94570000Y-131238072D01*
X95670000Y-131238072D01*
X95901781Y-131215244D01*
X96124655Y-131147635D01*
X96330057Y-131037846D01*
X96510094Y-130890094D01*
X96657846Y-130710057D01*
X96767635Y-130504655D01*
X96835244Y-130281781D01*
X96858072Y-130050000D01*
X96858072Y-128950000D01*
X97191928Y-128950000D01*
X97191928Y-130050000D01*
X97214756Y-130281781D01*
X97282365Y-130504655D01*
X97392154Y-130710057D01*
X97539906Y-130890094D01*
X97719943Y-131037846D01*
X97925345Y-131147635D01*
X98148219Y-131215244D01*
X98380000Y-131238072D01*
X99480000Y-131238072D01*
X99711781Y-131215244D01*
X99934655Y-131147635D01*
X100140057Y-131037846D01*
X100320094Y-130890094D01*
X100467846Y-130710057D01*
X100577635Y-130504655D01*
X100645244Y-130281781D01*
X100668072Y-130050000D01*
X100668072Y-128950000D01*
X101001928Y-128950000D01*
X101001928Y-130050000D01*
X101024756Y-130281781D01*
X101092365Y-130504655D01*
X101202154Y-130710057D01*
X101349906Y-130890094D01*
X101529943Y-131037846D01*
X101735345Y-131147635D01*
X101958219Y-131215244D01*
X102190000Y-131238072D01*
X103290000Y-131238072D01*
X103521781Y-131215244D01*
X103744655Y-131147635D01*
X103950057Y-131037846D01*
X104130094Y-130890094D01*
X104277846Y-130710057D01*
X104387635Y-130504655D01*
X104455244Y-130281781D01*
X104478072Y-130050000D01*
X104478072Y-128950000D01*
X104811928Y-128950000D01*
X104811928Y-130050000D01*
X104834756Y-130281781D01*
X104902365Y-130504655D01*
X105012154Y-130710057D01*
X105159906Y-130890094D01*
X105339943Y-131037846D01*
X105545345Y-131147635D01*
X105768219Y-131215244D01*
X106000000Y-131238072D01*
X107100000Y-131238072D01*
X107331781Y-131215244D01*
X107554655Y-131147635D01*
X107760057Y-131037846D01*
X107940094Y-130890094D01*
X108087846Y-130710057D01*
X108197635Y-130504655D01*
X108265244Y-130281781D01*
X108288072Y-130050000D01*
X108288072Y-128950000D01*
X108621928Y-128950000D01*
X108621928Y-130050000D01*
X108644756Y-130281781D01*
X108712365Y-130504655D01*
X108822154Y-130710057D01*
X108969906Y-130890094D01*
X109149943Y-131037846D01*
X109355345Y-131147635D01*
X109578219Y-131215244D01*
X109810000Y-131238072D01*
X110910000Y-131238072D01*
X111141781Y-131215244D01*
X111364655Y-131147635D01*
X111570057Y-131037846D01*
X111750094Y-130890094D01*
X111897846Y-130710057D01*
X112007635Y-130504655D01*
X112075244Y-130281781D01*
X112098072Y-130050000D01*
X112098072Y-128950000D01*
X112431928Y-128950000D01*
X112431928Y-130050000D01*
X112454756Y-130281781D01*
X112522365Y-130504655D01*
X112632154Y-130710057D01*
X112779906Y-130890094D01*
X112959943Y-131037846D01*
X113165345Y-131147635D01*
X113388219Y-131215244D01*
X113620000Y-131238072D01*
X114720000Y-131238072D01*
X114951781Y-131215244D01*
X115174655Y-131147635D01*
X115380057Y-131037846D01*
X115560094Y-130890094D01*
X115707846Y-130710057D01*
X115817635Y-130504655D01*
X115885244Y-130281781D01*
X115908072Y-130050000D01*
X115908072Y-128950000D01*
X115885244Y-128718219D01*
X115817635Y-128495345D01*
X115707846Y-128289943D01*
X115560094Y-128109906D01*
X115380057Y-127962154D01*
X115174655Y-127852365D01*
X114951781Y-127784756D01*
X114720000Y-127761928D01*
X113620000Y-127761928D01*
X113388219Y-127784756D01*
X113165345Y-127852365D01*
X112959943Y-127962154D01*
X112779906Y-128109906D01*
X112632154Y-128289943D01*
X112522365Y-128495345D01*
X112454756Y-128718219D01*
X112431928Y-128950000D01*
X112098072Y-128950000D01*
X112075244Y-128718219D01*
X112007635Y-128495345D01*
X111897846Y-128289943D01*
X111750094Y-128109906D01*
X111570057Y-127962154D01*
X111364655Y-127852365D01*
X111141781Y-127784756D01*
X110910000Y-127761928D01*
X109810000Y-127761928D01*
X109578219Y-127784756D01*
X109355345Y-127852365D01*
X109149943Y-127962154D01*
X108969906Y-128109906D01*
X108822154Y-128289943D01*
X108712365Y-128495345D01*
X108644756Y-128718219D01*
X108621928Y-128950000D01*
X108288072Y-128950000D01*
X108265244Y-128718219D01*
X108197635Y-128495345D01*
X108087846Y-128289943D01*
X107940094Y-128109906D01*
X107760057Y-127962154D01*
X107554655Y-127852365D01*
X107331781Y-127784756D01*
X107100000Y-127761928D01*
X106000000Y-127761928D01*
X105768219Y-127784756D01*
X105545345Y-127852365D01*
X105339943Y-127962154D01*
X105159906Y-128109906D01*
X105012154Y-128289943D01*
X104902365Y-128495345D01*
X104834756Y-128718219D01*
X104811928Y-128950000D01*
X104478072Y-128950000D01*
X104455244Y-128718219D01*
X104387635Y-128495345D01*
X104277846Y-128289943D01*
X104130094Y-128109906D01*
X103950057Y-127962154D01*
X103744655Y-127852365D01*
X103521781Y-127784756D01*
X103290000Y-127761928D01*
X102190000Y-127761928D01*
X101958219Y-127784756D01*
X101735345Y-127852365D01*
X101529943Y-127962154D01*
X101349906Y-128109906D01*
X101202154Y-128289943D01*
X101092365Y-128495345D01*
X101024756Y-128718219D01*
X101001928Y-128950000D01*
X100668072Y-128950000D01*
X100645244Y-128718219D01*
X100577635Y-128495345D01*
X100467846Y-128289943D01*
X100320094Y-128109906D01*
X100140057Y-127962154D01*
X99934655Y-127852365D01*
X99711781Y-127784756D01*
X99480000Y-127761928D01*
X98380000Y-127761928D01*
X98148219Y-127784756D01*
X97925345Y-127852365D01*
X97719943Y-127962154D01*
X97539906Y-128109906D01*
X97392154Y-128289943D01*
X97282365Y-128495345D01*
X97214756Y-128718219D01*
X97191928Y-128950000D01*
X96858072Y-128950000D01*
X96835244Y-128718219D01*
X96767635Y-128495345D01*
X96657846Y-128289943D01*
X96510094Y-128109906D01*
X96330057Y-127962154D01*
X96124655Y-127852365D01*
X95901781Y-127784756D01*
X95670000Y-127761928D01*
X94570000Y-127761928D01*
X94338219Y-127784756D01*
X94115345Y-127852365D01*
X93909943Y-127962154D01*
X93729906Y-128109906D01*
X93582154Y-128289943D01*
X93472365Y-128495345D01*
X93404756Y-128718219D01*
X93381928Y-128950000D01*
X93045996Y-128950000D01*
X93048072Y-128400000D01*
X93035812Y-128275518D01*
X92999502Y-128155820D01*
X92940537Y-128045506D01*
X92861185Y-127948815D01*
X92764494Y-127869463D01*
X92654180Y-127810498D01*
X92534482Y-127774188D01*
X92410000Y-127761928D01*
X91595750Y-127765000D01*
X91437000Y-127923750D01*
X91183000Y-127923750D01*
X91024250Y-127765000D01*
X90210000Y-127761928D01*
X90085518Y-127774188D01*
X89965820Y-127810498D01*
X89855506Y-127869463D01*
X89758815Y-127948815D01*
X89679463Y-128045506D01*
X89620498Y-128155820D01*
X89584188Y-128275518D01*
X89571928Y-128400000D01*
X89096673Y-128400000D01*
X89037846Y-128289943D01*
X88890094Y-128109906D01*
X88710057Y-127962154D01*
X88504655Y-127852365D01*
X88281781Y-127784756D01*
X88050000Y-127761928D01*
X86950000Y-127761928D01*
X86718219Y-127784756D01*
X86495345Y-127852365D01*
X86289943Y-127962154D01*
X86109906Y-128109906D01*
X85962154Y-128289943D01*
X85852365Y-128495345D01*
X85784756Y-128718219D01*
X85761928Y-128950000D01*
X83511998Y-128950000D01*
X83511998Y-123950000D01*
X85761928Y-123950000D01*
X85761928Y-125050000D01*
X85784756Y-125281781D01*
X85852365Y-125504655D01*
X85962154Y-125710057D01*
X86109906Y-125890094D01*
X86289943Y-126037846D01*
X86495345Y-126147635D01*
X86718219Y-126215244D01*
X86950000Y-126238072D01*
X88050000Y-126238072D01*
X88281781Y-126215244D01*
X88504655Y-126147635D01*
X88710057Y-126037846D01*
X88890094Y-125890094D01*
X89037846Y-125710057D01*
X89096672Y-125600000D01*
X89571928Y-125600000D01*
X89584188Y-125724482D01*
X89620498Y-125844180D01*
X89679463Y-125954494D01*
X89758815Y-126051185D01*
X89855506Y-126130537D01*
X89965820Y-126189502D01*
X90085518Y-126225812D01*
X90210000Y-126238072D01*
X91024250Y-126235000D01*
X91183000Y-126076250D01*
X91183000Y-124627000D01*
X91437000Y-124627000D01*
X91437000Y-126076250D01*
X91595750Y-126235000D01*
X92410000Y-126238072D01*
X92534482Y-126225812D01*
X92654180Y-126189502D01*
X92764494Y-126130537D01*
X92861185Y-126051185D01*
X92940537Y-125954494D01*
X92999502Y-125844180D01*
X93035812Y-125724482D01*
X93048072Y-125600000D01*
X93045000Y-124785750D01*
X92886250Y-124627000D01*
X91437000Y-124627000D01*
X91183000Y-124627000D01*
X89733750Y-124627000D01*
X89575000Y-124785750D01*
X89571928Y-125600000D01*
X89096672Y-125600000D01*
X89147635Y-125504655D01*
X89215244Y-125281781D01*
X89238072Y-125050000D01*
X89238072Y-123950000D01*
X89215244Y-123718219D01*
X89147635Y-123495345D01*
X89096673Y-123400000D01*
X89571928Y-123400000D01*
X89575000Y-124214250D01*
X89733750Y-124373000D01*
X91183000Y-124373000D01*
X91183000Y-122923750D01*
X91437000Y-122923750D01*
X91437000Y-124373000D01*
X92886250Y-124373000D01*
X93045000Y-124214250D01*
X93045996Y-123950000D01*
X93381928Y-123950000D01*
X93381928Y-125050000D01*
X93404756Y-125281781D01*
X93472365Y-125504655D01*
X93582154Y-125710057D01*
X93729906Y-125890094D01*
X93909943Y-126037846D01*
X94115345Y-126147635D01*
X94338219Y-126215244D01*
X94570000Y-126238072D01*
X95670000Y-126238072D01*
X95901781Y-126215244D01*
X96124655Y-126147635D01*
X96330057Y-126037846D01*
X96510094Y-125890094D01*
X96657846Y-125710057D01*
X96767635Y-125504655D01*
X96835244Y-125281781D01*
X96858072Y-125050000D01*
X96858072Y-123950000D01*
X97191928Y-123950000D01*
X97191928Y-125050000D01*
X97214756Y-125281781D01*
X97282365Y-125504655D01*
X97392154Y-125710057D01*
X97539906Y-125890094D01*
X97719943Y-126037846D01*
X97925345Y-126147635D01*
X98148219Y-126215244D01*
X98380000Y-126238072D01*
X99480000Y-126238072D01*
X99711781Y-126215244D01*
X99934655Y-126147635D01*
X100140057Y-126037846D01*
X100320094Y-125890094D01*
X100467846Y-125710057D01*
X100577635Y-125504655D01*
X100645244Y-125281781D01*
X100668072Y-125050000D01*
X100668072Y-123950000D01*
X101001928Y-123950000D01*
X101001928Y-125050000D01*
X101024756Y-125281781D01*
X101092365Y-125504655D01*
X101202154Y-125710057D01*
X101349906Y-125890094D01*
X101529943Y-126037846D01*
X101735345Y-126147635D01*
X101958219Y-126215244D01*
X102190000Y-126238072D01*
X103290000Y-126238072D01*
X103521781Y-126215244D01*
X103744655Y-126147635D01*
X103950057Y-126037846D01*
X104130094Y-125890094D01*
X104277846Y-125710057D01*
X104387635Y-125504655D01*
X104455244Y-125281781D01*
X104478072Y-125050000D01*
X104478072Y-123950000D01*
X104811928Y-123950000D01*
X104811928Y-125050000D01*
X104834756Y-125281781D01*
X104902365Y-125504655D01*
X105012154Y-125710057D01*
X105159906Y-125890094D01*
X105339943Y-126037846D01*
X105545345Y-126147635D01*
X105768219Y-126215244D01*
X106000000Y-126238072D01*
X107100000Y-126238072D01*
X107331781Y-126215244D01*
X107554655Y-126147635D01*
X107760057Y-126037846D01*
X107940094Y-125890094D01*
X108087846Y-125710057D01*
X108197635Y-125504655D01*
X108265244Y-125281781D01*
X108288072Y-125050000D01*
X108288072Y-123950000D01*
X108621928Y-123950000D01*
X108621928Y-125050000D01*
X108644756Y-125281781D01*
X108712365Y-125504655D01*
X108822154Y-125710057D01*
X108969906Y-125890094D01*
X109149943Y-126037846D01*
X109355345Y-126147635D01*
X109578219Y-126215244D01*
X109810000Y-126238072D01*
X110910000Y-126238072D01*
X111141781Y-126215244D01*
X111364655Y-126147635D01*
X111570057Y-126037846D01*
X111750094Y-125890094D01*
X111897846Y-125710057D01*
X112007635Y-125504655D01*
X112075244Y-125281781D01*
X112098072Y-125050000D01*
X112098072Y-124082795D01*
X112453894Y-123726974D01*
X112431928Y-123950000D01*
X112431928Y-125050000D01*
X112454756Y-125281781D01*
X112522365Y-125504655D01*
X112632154Y-125710057D01*
X112779906Y-125890094D01*
X112959943Y-126037846D01*
X113165345Y-126147635D01*
X113388219Y-126215244D01*
X113620000Y-126238072D01*
X114720000Y-126238072D01*
X114951781Y-126215244D01*
X115174655Y-126147635D01*
X115380057Y-126037846D01*
X115560094Y-125890094D01*
X115707846Y-125710057D01*
X115817635Y-125504655D01*
X115885244Y-125281781D01*
X115908072Y-125050000D01*
X115908072Y-123950000D01*
X115885244Y-123718219D01*
X115817635Y-123495345D01*
X115707846Y-123289943D01*
X115560094Y-123109906D01*
X115380057Y-122962154D01*
X115174655Y-122852365D01*
X114951781Y-122784756D01*
X114835000Y-122773254D01*
X114835000Y-100613285D01*
X114917205Y-100490256D01*
X114995226Y-100301898D01*
X115035000Y-100101939D01*
X115035000Y-99898061D01*
X114995226Y-99698102D01*
X114917205Y-99509744D01*
X114803937Y-99340226D01*
X114659774Y-99196063D01*
X114490256Y-99082795D01*
X114301898Y-99004774D01*
X114196966Y-98983902D01*
X114656775Y-98524092D01*
X114801898Y-98495226D01*
X114990256Y-98417205D01*
X115159774Y-98303937D01*
X115303937Y-98159774D01*
X115417205Y-97990256D01*
X115495226Y-97801898D01*
X115535000Y-97601939D01*
X115535000Y-97398061D01*
X115495226Y-97198102D01*
X115417205Y-97009744D01*
X115303937Y-96840226D01*
X115159774Y-96696063D01*
X114990256Y-96582795D01*
X114801898Y-96504774D01*
X114601939Y-96465000D01*
X114398061Y-96465000D01*
X114198102Y-96504774D01*
X114009744Y-96582795D01*
X113840226Y-96696063D01*
X113696063Y-96840226D01*
X113582795Y-97009744D01*
X113504774Y-97198102D01*
X113475908Y-97343225D01*
X112638578Y-98180555D01*
X112606708Y-98206710D01*
X112502364Y-98333855D01*
X112502363Y-98333856D01*
X112424827Y-98478915D01*
X112377081Y-98636313D01*
X112360959Y-98800001D01*
X112364999Y-98841019D01*
X112365000Y-121454132D01*
X111044006Y-122775126D01*
X110910000Y-122761928D01*
X109810000Y-122761928D01*
X109578219Y-122784756D01*
X109355345Y-122852365D01*
X109149943Y-122962154D01*
X108969906Y-123109906D01*
X108822154Y-123289943D01*
X108712365Y-123495345D01*
X108644756Y-123718219D01*
X108621928Y-123950000D01*
X108288072Y-123950000D01*
X108265244Y-123718219D01*
X108197635Y-123495345D01*
X108087846Y-123289943D01*
X107940094Y-123109906D01*
X107760057Y-122962154D01*
X107554655Y-122852365D01*
X107331781Y-122784756D01*
X107100000Y-122761928D01*
X106000000Y-122761928D01*
X105768219Y-122784756D01*
X105545345Y-122852365D01*
X105339943Y-122962154D01*
X105159906Y-123109906D01*
X105012154Y-123289943D01*
X104902365Y-123495345D01*
X104834756Y-123718219D01*
X104811928Y-123950000D01*
X104478072Y-123950000D01*
X104455244Y-123718219D01*
X104387635Y-123495345D01*
X104277846Y-123289943D01*
X104130094Y-123109906D01*
X103950057Y-122962154D01*
X103744655Y-122852365D01*
X103521781Y-122784756D01*
X103290000Y-122761928D01*
X102190000Y-122761928D01*
X101958219Y-122784756D01*
X101735345Y-122852365D01*
X101529943Y-122962154D01*
X101349906Y-123109906D01*
X101202154Y-123289943D01*
X101092365Y-123495345D01*
X101024756Y-123718219D01*
X101001928Y-123950000D01*
X100668072Y-123950000D01*
X100645244Y-123718219D01*
X100577635Y-123495345D01*
X100467846Y-123289943D01*
X100320094Y-123109906D01*
X100140057Y-122962154D01*
X99934655Y-122852365D01*
X99711781Y-122784756D01*
X99480000Y-122761928D01*
X98380000Y-122761928D01*
X98148219Y-122784756D01*
X97925345Y-122852365D01*
X97719943Y-122962154D01*
X97539906Y-123109906D01*
X97392154Y-123289943D01*
X97282365Y-123495345D01*
X97214756Y-123718219D01*
X97191928Y-123950000D01*
X96858072Y-123950000D01*
X96835244Y-123718219D01*
X96767635Y-123495345D01*
X96657846Y-123289943D01*
X96510094Y-123109906D01*
X96330057Y-122962154D01*
X96124655Y-122852365D01*
X95901781Y-122784756D01*
X95670000Y-122761928D01*
X94570000Y-122761928D01*
X94338219Y-122784756D01*
X94115345Y-122852365D01*
X93909943Y-122962154D01*
X93729906Y-123109906D01*
X93582154Y-123289943D01*
X93472365Y-123495345D01*
X93404756Y-123718219D01*
X93381928Y-123950000D01*
X93045996Y-123950000D01*
X93048072Y-123400000D01*
X93035812Y-123275518D01*
X92999502Y-123155820D01*
X92940537Y-123045506D01*
X92861185Y-122948815D01*
X92764494Y-122869463D01*
X92654180Y-122810498D01*
X92534482Y-122774188D01*
X92410000Y-122761928D01*
X91595750Y-122765000D01*
X91437000Y-122923750D01*
X91183000Y-122923750D01*
X91024250Y-122765000D01*
X90210000Y-122761928D01*
X90085518Y-122774188D01*
X89965820Y-122810498D01*
X89855506Y-122869463D01*
X89758815Y-122948815D01*
X89679463Y-123045506D01*
X89620498Y-123155820D01*
X89584188Y-123275518D01*
X89571928Y-123400000D01*
X89096673Y-123400000D01*
X89037846Y-123289943D01*
X88890094Y-123109906D01*
X88710057Y-122962154D01*
X88504655Y-122852365D01*
X88281781Y-122784756D01*
X88050000Y-122761928D01*
X86950000Y-122761928D01*
X86718219Y-122784756D01*
X86495345Y-122852365D01*
X86289943Y-122962154D01*
X86109906Y-123109906D01*
X85962154Y-123289943D01*
X85852365Y-123495345D01*
X85784756Y-123718219D01*
X85761928Y-123950000D01*
X83511998Y-123950000D01*
X83511998Y-112898061D01*
X87465000Y-112898061D01*
X87465000Y-113101939D01*
X87504774Y-113301898D01*
X87582795Y-113490256D01*
X87696063Y-113659774D01*
X87840226Y-113803937D01*
X88009744Y-113917205D01*
X88115382Y-113960962D01*
X88082787Y-114009744D01*
X88004766Y-114198102D01*
X87964992Y-114398061D01*
X87964992Y-114601939D01*
X88004766Y-114801898D01*
X88082787Y-114990256D01*
X88164992Y-115113285D01*
X88164993Y-118958964D01*
X88160952Y-118999992D01*
X88177074Y-119163680D01*
X88224820Y-119321078D01*
X88291905Y-119446584D01*
X88302357Y-119466138D01*
X88406702Y-119593283D01*
X88438566Y-119619433D01*
X88975908Y-120156776D01*
X89004774Y-120301898D01*
X89082795Y-120490256D01*
X89196063Y-120659774D01*
X89340226Y-120803937D01*
X89509744Y-120917205D01*
X89698102Y-120995226D01*
X89898061Y-121035000D01*
X90101939Y-121035000D01*
X90301898Y-120995226D01*
X90490256Y-120917205D01*
X90659774Y-120803937D01*
X90803937Y-120659774D01*
X90877376Y-120549864D01*
X91046594Y-120583523D01*
X91250472Y-120583523D01*
X91450431Y-120543749D01*
X91638789Y-120465728D01*
X91808307Y-120352460D01*
X91952470Y-120208297D01*
X92065738Y-120038779D01*
X92143759Y-119850421D01*
X92183533Y-119650462D01*
X92183533Y-119446584D01*
X92143759Y-119246625D01*
X92065738Y-119058267D01*
X91952470Y-118888749D01*
X91835000Y-118771279D01*
X91835000Y-113113285D01*
X91917205Y-112990256D01*
X91995226Y-112801898D01*
X92035000Y-112601939D01*
X92035000Y-112398061D01*
X91995226Y-112198102D01*
X91917205Y-112009744D01*
X91803937Y-111840226D01*
X91659774Y-111696063D01*
X91490256Y-111582795D01*
X91301898Y-111504774D01*
X91101939Y-111465000D01*
X90898061Y-111465000D01*
X90698102Y-111504774D01*
X90509744Y-111582795D01*
X90340226Y-111696063D01*
X90196063Y-111840226D01*
X90082795Y-112009744D01*
X90004774Y-112198102D01*
X89965000Y-112398061D01*
X89965000Y-112601939D01*
X89993929Y-112747376D01*
X89685130Y-112438578D01*
X89658976Y-112406709D01*
X89531831Y-112302364D01*
X89386772Y-112224828D01*
X89229374Y-112177082D01*
X89114423Y-112165760D01*
X88990256Y-112082795D01*
X88801898Y-112004774D01*
X88601939Y-111965000D01*
X88398061Y-111965000D01*
X88198102Y-112004774D01*
X88009744Y-112082795D01*
X87840226Y-112196063D01*
X87696063Y-112340226D01*
X87582795Y-112509744D01*
X87504774Y-112698102D01*
X87465000Y-112898061D01*
X83511998Y-112898061D01*
X83511998Y-101898061D01*
X100465000Y-101898061D01*
X100465000Y-102101939D01*
X100504774Y-102301898D01*
X100582795Y-102490256D01*
X100696063Y-102659774D01*
X100840226Y-102803937D01*
X101009744Y-102917205D01*
X101070000Y-102942164D01*
X101070001Y-108386702D01*
X100987795Y-108509732D01*
X100909774Y-108698090D01*
X100870000Y-108898049D01*
X100870000Y-109101927D01*
X100909774Y-109301886D01*
X100987795Y-109490244D01*
X101101063Y-109659762D01*
X101245226Y-109803925D01*
X101414744Y-109917193D01*
X101603102Y-109995214D01*
X101803061Y-110034988D01*
X102006939Y-110034988D01*
X102206898Y-109995214D01*
X102395256Y-109917193D01*
X102564774Y-109803925D01*
X102708937Y-109659762D01*
X102822205Y-109490244D01*
X102900226Y-109301886D01*
X102940000Y-109101927D01*
X102940000Y-108898049D01*
X102900226Y-108698090D01*
X102822205Y-108509732D01*
X102740000Y-108386703D01*
X102740000Y-102446007D01*
X102744039Y-102404999D01*
X102740000Y-102363991D01*
X102740000Y-102363981D01*
X102727918Y-102241311D01*
X102680172Y-102083913D01*
X102602636Y-101938854D01*
X102524072Y-101843124D01*
X102495226Y-101698102D01*
X102417205Y-101509744D01*
X102303937Y-101340226D01*
X102159774Y-101196063D01*
X101990256Y-101082795D01*
X101801898Y-101004774D01*
X101601939Y-100965000D01*
X101398061Y-100965000D01*
X101198102Y-101004774D01*
X101009744Y-101082795D01*
X100840226Y-101196063D01*
X100696063Y-101340226D01*
X100582795Y-101509744D01*
X100504774Y-101698102D01*
X100465000Y-101898061D01*
X83511998Y-101898061D01*
X83511998Y-98902408D01*
X100103000Y-98902408D01*
X100103000Y-99177592D01*
X100156686Y-99447490D01*
X100261995Y-99701727D01*
X100414880Y-99930535D01*
X100609465Y-100125120D01*
X100838273Y-100278005D01*
X101092510Y-100383314D01*
X101362408Y-100437000D01*
X101637592Y-100437000D01*
X101907490Y-100383314D01*
X102161727Y-100278005D01*
X102390535Y-100125120D01*
X102585120Y-99930535D01*
X102738005Y-99701727D01*
X102843314Y-99447490D01*
X102897000Y-99177592D01*
X102897000Y-98902408D01*
X102843314Y-98632510D01*
X102738005Y-98378273D01*
X102585120Y-98149465D01*
X102390535Y-97954880D01*
X102305500Y-97898061D01*
X107965000Y-97898061D01*
X107965000Y-98101939D01*
X108004774Y-98301898D01*
X108082795Y-98490256D01*
X108196063Y-98659774D01*
X108340226Y-98803937D01*
X108509744Y-98917205D01*
X108698102Y-98995226D01*
X108898061Y-99035000D01*
X109101939Y-99035000D01*
X109301898Y-98995226D01*
X109490256Y-98917205D01*
X109659774Y-98803937D01*
X109803937Y-98659774D01*
X109917205Y-98490256D01*
X109995226Y-98301898D01*
X110035000Y-98101939D01*
X110035000Y-97898061D01*
X109995226Y-97698102D01*
X109935000Y-97552705D01*
X109935000Y-92947315D01*
X109995234Y-92801898D01*
X110035008Y-92601939D01*
X110035008Y-92398061D01*
X109995234Y-92198102D01*
X109917213Y-92009744D01*
X109803945Y-91840226D01*
X109659782Y-91696063D01*
X109490264Y-91582795D01*
X109301906Y-91504774D01*
X109101947Y-91465000D01*
X108898069Y-91465000D01*
X108698110Y-91504774D01*
X108509752Y-91582795D01*
X108340234Y-91696063D01*
X108196071Y-91840226D01*
X108082803Y-92009744D01*
X108004782Y-92198102D01*
X107965008Y-92398061D01*
X107965008Y-92601939D01*
X108004782Y-92801898D01*
X108065001Y-92947278D01*
X108065000Y-97552704D01*
X108004774Y-97698102D01*
X107965000Y-97898061D01*
X102305500Y-97898061D01*
X102161727Y-97801995D01*
X102090057Y-97772308D01*
X102103023Y-97767636D01*
X102218980Y-97705656D01*
X102285960Y-97465565D01*
X101500000Y-96679605D01*
X100714040Y-97465565D01*
X100781020Y-97705656D01*
X100916760Y-97769485D01*
X100838273Y-97801995D01*
X100609465Y-97954880D01*
X100414880Y-98149465D01*
X100261995Y-98378273D01*
X100156686Y-98632510D01*
X100103000Y-98902408D01*
X83511998Y-98902408D01*
X83511998Y-96572017D01*
X100098090Y-96572017D01*
X100139078Y-96844133D01*
X100232364Y-97103023D01*
X100294344Y-97218980D01*
X100534435Y-97285960D01*
X101320395Y-96500000D01*
X101679605Y-96500000D01*
X102465565Y-97285960D01*
X102705656Y-97218980D01*
X102822756Y-96969952D01*
X102889023Y-96702865D01*
X102901910Y-96427983D01*
X102860922Y-96155867D01*
X102767636Y-95896977D01*
X102705656Y-95781020D01*
X102465565Y-95714040D01*
X101679605Y-96500000D01*
X101320395Y-96500000D01*
X100534435Y-95714040D01*
X100294344Y-95781020D01*
X100177244Y-96030048D01*
X100110977Y-96297135D01*
X100098090Y-96572017D01*
X83511998Y-96572017D01*
X83511998Y-93822408D01*
X100103000Y-93822408D01*
X100103000Y-94097592D01*
X100156686Y-94367490D01*
X100261995Y-94621727D01*
X100414880Y-94850535D01*
X100609465Y-95045120D01*
X100838273Y-95198005D01*
X100909943Y-95227692D01*
X100896977Y-95232364D01*
X100781020Y-95294344D01*
X100714040Y-95534435D01*
X101500000Y-96320395D01*
X102285960Y-95534435D01*
X102218980Y-95294344D01*
X102083240Y-95230515D01*
X102161727Y-95198005D01*
X102390535Y-95045120D01*
X102585120Y-94850535D01*
X102738005Y-94621727D01*
X102843314Y-94367490D01*
X102897000Y-94097592D01*
X102897000Y-93822408D01*
X102843314Y-93552510D01*
X102738005Y-93298273D01*
X102585120Y-93069465D01*
X102390535Y-92874880D01*
X102161727Y-92721995D01*
X101907490Y-92616686D01*
X101637592Y-92563000D01*
X101362408Y-92563000D01*
X101092510Y-92616686D01*
X100838273Y-92721995D01*
X100609465Y-92874880D01*
X100414880Y-93069465D01*
X100261995Y-93298273D01*
X100156686Y-93552510D01*
X100103000Y-93822408D01*
X83511998Y-93822408D01*
X83511999Y-64790000D01*
X86107089Y-64790000D01*
X86115000Y-64870323D01*
X86115001Y-67249669D01*
X86107089Y-67330000D01*
X86138657Y-67650516D01*
X86232148Y-67958715D01*
X86373000Y-68222230D01*
X86373000Y-69324279D01*
X86353175Y-69365901D01*
X86308524Y-69513110D01*
X86373000Y-69635285D01*
X86373000Y-70104715D01*
X86308524Y-70226890D01*
X86353175Y-70374099D01*
X86373000Y-70415721D01*
X86373000Y-71517770D01*
X86232148Y-71781285D01*
X86138657Y-72089484D01*
X86107089Y-72410000D01*
X86138657Y-72730516D01*
X86232148Y-73038715D01*
X86373000Y-73302230D01*
X86373000Y-74404279D01*
X86353175Y-74445901D01*
X86308524Y-74593110D01*
X86373000Y-74715285D01*
X86373000Y-75184715D01*
X86308524Y-75306890D01*
X86353175Y-75454099D01*
X86373000Y-75495721D01*
X86373000Y-76597770D01*
X86232148Y-76861285D01*
X86138657Y-77169484D01*
X86107089Y-77490000D01*
X86138657Y-77810516D01*
X86232148Y-78118715D01*
X86373000Y-78382230D01*
X86373000Y-79473881D01*
X86322068Y-79596842D01*
X86265000Y-79883740D01*
X86265000Y-80176260D01*
X86322068Y-80463158D01*
X86373000Y-80586119D01*
X86373000Y-82013881D01*
X86322068Y-82136842D01*
X86265000Y-82423740D01*
X86265000Y-82716260D01*
X86322068Y-83003158D01*
X86373000Y-83126119D01*
X86373000Y-84553881D01*
X86322068Y-84676842D01*
X86265000Y-84963740D01*
X86265000Y-85256260D01*
X86322068Y-85543158D01*
X86373000Y-85666119D01*
X86373000Y-87093881D01*
X86322068Y-87216842D01*
X86265000Y-87503740D01*
X86265000Y-87796260D01*
X86322068Y-88083158D01*
X86373000Y-88206119D01*
X86373000Y-88981196D01*
X86369463Y-88985506D01*
X86310498Y-89095820D01*
X86274188Y-89215518D01*
X86261928Y-89340000D01*
X86265000Y-89904250D01*
X86373000Y-90012250D01*
X86373000Y-90367750D01*
X86265000Y-90475750D01*
X86261928Y-91040000D01*
X86274188Y-91164482D01*
X86310498Y-91284180D01*
X86369463Y-91394494D01*
X86448815Y-91491185D01*
X86545506Y-91570537D01*
X86655820Y-91629502D01*
X86775518Y-91665812D01*
X86900000Y-91678072D01*
X87464250Y-91675000D01*
X87623000Y-91516250D01*
X87623000Y-91127000D01*
X87877000Y-91127000D01*
X87877000Y-91516250D01*
X88035750Y-91675000D01*
X88600000Y-91678072D01*
X88724482Y-91665812D01*
X88844180Y-91629502D01*
X88954494Y-91570537D01*
X89051185Y-91491185D01*
X89130537Y-91394494D01*
X89189502Y-91284180D01*
X89225812Y-91164482D01*
X89238072Y-91040000D01*
X89235000Y-90475750D01*
X89127000Y-90367750D01*
X89127000Y-90012250D01*
X89235000Y-89904250D01*
X89238072Y-89340000D01*
X89225812Y-89215518D01*
X89189502Y-89095820D01*
X89130537Y-88985506D01*
X89127000Y-88981196D01*
X89127000Y-88485000D01*
X105873000Y-88485000D01*
X105873000Y-88981196D01*
X105869463Y-88985506D01*
X105810498Y-89095820D01*
X105774188Y-89215518D01*
X105761928Y-89340000D01*
X105765000Y-89904250D01*
X105873000Y-90012250D01*
X105873000Y-90367750D01*
X105765000Y-90475750D01*
X105761928Y-91040000D01*
X105774188Y-91164482D01*
X105810498Y-91284180D01*
X105869463Y-91394494D01*
X105948815Y-91491185D01*
X106045506Y-91570537D01*
X106155820Y-91629502D01*
X106275518Y-91665812D01*
X106400000Y-91678072D01*
X106964250Y-91675000D01*
X107123000Y-91516250D01*
X107123000Y-91029186D01*
X107377000Y-91029186D01*
X107377000Y-91516250D01*
X107535750Y-91675000D01*
X108100000Y-91678072D01*
X108224482Y-91665812D01*
X108344180Y-91629502D01*
X108454494Y-91570537D01*
X108551185Y-91491185D01*
X108630537Y-91394494D01*
X108689502Y-91284180D01*
X108725812Y-91164482D01*
X108738072Y-91040000D01*
X108735000Y-90475750D01*
X108627000Y-90367750D01*
X108627000Y-90012250D01*
X108735000Y-89904250D01*
X108738072Y-89340000D01*
X108725812Y-89215518D01*
X108689502Y-89095820D01*
X108630537Y-88985506D01*
X108627000Y-88981196D01*
X108627000Y-88206119D01*
X108677932Y-88083158D01*
X108735000Y-87796260D01*
X108735000Y-87503740D01*
X108677932Y-87216842D01*
X108627000Y-87093881D01*
X108627000Y-85666119D01*
X108677932Y-85543158D01*
X108735000Y-85256260D01*
X108735000Y-84963740D01*
X108677932Y-84676842D01*
X108627000Y-84553881D01*
X108627000Y-83126119D01*
X108677932Y-83003158D01*
X108735000Y-82716260D01*
X108735000Y-82423740D01*
X108677932Y-82136842D01*
X108627000Y-82013881D01*
X108627000Y-80586119D01*
X108677932Y-80463158D01*
X108735000Y-80176260D01*
X108735000Y-79883740D01*
X108677932Y-79596842D01*
X108627000Y-79473881D01*
X108627000Y-78382230D01*
X108767852Y-78118715D01*
X108861343Y-77810516D01*
X108892911Y-77490000D01*
X108861343Y-77169484D01*
X108767852Y-76861285D01*
X108627000Y-76597770D01*
X108627000Y-75495721D01*
X108646825Y-75454099D01*
X108691476Y-75306890D01*
X108627000Y-75184715D01*
X108627000Y-74715285D01*
X108691476Y-74593110D01*
X108646825Y-74445901D01*
X108627000Y-74404279D01*
X108627000Y-73302230D01*
X108767852Y-73038715D01*
X108861343Y-72730516D01*
X108892911Y-72410000D01*
X108861343Y-72089484D01*
X108767852Y-71781285D01*
X108627000Y-71517770D01*
X108627000Y-70415721D01*
X108646825Y-70374099D01*
X108691476Y-70226890D01*
X108627000Y-70104715D01*
X108627000Y-69635285D01*
X108691476Y-69513110D01*
X108646825Y-69365901D01*
X108627000Y-69324279D01*
X108627000Y-68222230D01*
X108767852Y-67958715D01*
X108861343Y-67650516D01*
X108885000Y-67410322D01*
X108892911Y-67330000D01*
X108885000Y-67249678D01*
X108885000Y-64870322D01*
X108892911Y-64790000D01*
X108861343Y-64469484D01*
X108767852Y-64161285D01*
X108627000Y-63897770D01*
X108627000Y-62795721D01*
X108646825Y-62754099D01*
X108691476Y-62606890D01*
X108627000Y-62484715D01*
X108627000Y-62015285D01*
X108691476Y-61893110D01*
X108646825Y-61745901D01*
X108627000Y-61704279D01*
X108627000Y-60902186D01*
X108624560Y-60877410D01*
X108617333Y-60853585D01*
X108605597Y-60831629D01*
X108589803Y-60812383D01*
X108570557Y-60796589D01*
X108548601Y-60784853D01*
X108524776Y-60777626D01*
X108500000Y-60775186D01*
X106000000Y-60775186D01*
X105975224Y-60777626D01*
X105951399Y-60784853D01*
X105929443Y-60796589D01*
X105910197Y-60812383D01*
X105894403Y-60831629D01*
X105882667Y-60853585D01*
X105875440Y-60877410D01*
X105873000Y-60902186D01*
X105873000Y-61704279D01*
X105853175Y-61745901D01*
X105808524Y-61893110D01*
X105873000Y-62015285D01*
X105873000Y-62484715D01*
X105808524Y-62606890D01*
X105853175Y-62754099D01*
X105873000Y-62795721D01*
X105873000Y-63155000D01*
X89127000Y-63155000D01*
X89127000Y-62795721D01*
X89146825Y-62754099D01*
X89191476Y-62606890D01*
X89127000Y-62484715D01*
X89127000Y-62015285D01*
X89191476Y-61893110D01*
X89146825Y-61745901D01*
X89127000Y-61704279D01*
X89127000Y-61000000D01*
X89124560Y-60975224D01*
X89117333Y-60951399D01*
X89105597Y-60929443D01*
X89089803Y-60910197D01*
X89070557Y-60894403D01*
X89048601Y-60882667D01*
X89024776Y-60875440D01*
X89000000Y-60873000D01*
X88288666Y-60873000D01*
X88106891Y-60808519D01*
X87984044Y-60873000D01*
X87515956Y-60873000D01*
X87393109Y-60808519D01*
X87211334Y-60873000D01*
X86500000Y-60873000D01*
X86475224Y-60875440D01*
X86451399Y-60882667D01*
X86429443Y-60894403D01*
X86410197Y-60910197D01*
X86394403Y-60929443D01*
X86382667Y-60951399D01*
X86375440Y-60975224D01*
X86373000Y-61000000D01*
X86373000Y-61704279D01*
X86353175Y-61745901D01*
X86308524Y-61893110D01*
X86373000Y-62015285D01*
X86373000Y-62484715D01*
X86308524Y-62606890D01*
X86353175Y-62754099D01*
X86373000Y-62795721D01*
X86373000Y-63897770D01*
X86232148Y-64161285D01*
X86138657Y-64469484D01*
X86107089Y-64790000D01*
X83511999Y-64790000D01*
X83512000Y-57511999D01*
X87537426Y-57511999D01*
X87576082Y-57508192D01*
X87598792Y-57508192D01*
X87609373Y-57507079D01*
X87948784Y-57469008D01*
X88016328Y-57454651D01*
X88084086Y-57441235D01*
X88094250Y-57438089D01*
X88419803Y-57334818D01*
X88483333Y-57307589D01*
X88547135Y-57281292D01*
X88556494Y-57276232D01*
X88855788Y-57111694D01*
X88912764Y-57072682D01*
X88970299Y-57034456D01*
X88978496Y-57027674D01*
X89240131Y-56808136D01*
X89288443Y-56758802D01*
X89337458Y-56710128D01*
X89344182Y-56701883D01*
X89558192Y-56435709D01*
X89596014Y-56377912D01*
X89634631Y-56320660D01*
X89639619Y-56311277D01*
X89639625Y-56311268D01*
X89639629Y-56311259D01*
X89797859Y-56008592D01*
X89823731Y-55944558D01*
X89850495Y-55880890D01*
X89853566Y-55870715D01*
X89853570Y-55870705D01*
X89853572Y-55870695D01*
X89950000Y-55543060D01*
X89962941Y-55475219D01*
X89976829Y-55407565D01*
X89977867Y-55396977D01*
X90008821Y-55056842D01*
X90008339Y-54987748D01*
X90008821Y-54918721D01*
X90007783Y-54908133D01*
X89991355Y-54751821D01*
X109980192Y-54751821D01*
X109980192Y-55248179D01*
X110077027Y-55735001D01*
X110266975Y-56193577D01*
X110542738Y-56606284D01*
X110893716Y-56957262D01*
X111306423Y-57233025D01*
X111764999Y-57422973D01*
X112251821Y-57519808D01*
X112748179Y-57519808D01*
X113235001Y-57422973D01*
X113693577Y-57233025D01*
X114106284Y-56957262D01*
X114457262Y-56606284D01*
X114733025Y-56193577D01*
X114922973Y-55735001D01*
X115019808Y-55248179D01*
X115019808Y-54751821D01*
X114922973Y-54264999D01*
X114733025Y-53806423D01*
X114457262Y-53393716D01*
X114106284Y-53042738D01*
X113693577Y-52766975D01*
X113235001Y-52577027D01*
X112748179Y-52480192D01*
X112251821Y-52480192D01*
X111764999Y-52577027D01*
X111306423Y-52766975D01*
X110893716Y-53042738D01*
X110542738Y-53393716D01*
X110266975Y-53806423D01*
X110077027Y-54264999D01*
X109980192Y-54751821D01*
X89991355Y-54751821D01*
X89972083Y-54568464D01*
X89958196Y-54500808D01*
X89945255Y-54432969D01*
X89942182Y-54422794D01*
X89942180Y-54422784D01*
X89942176Y-54422775D01*
X89841183Y-54096518D01*
X89814417Y-54032844D01*
X89788548Y-53968815D01*
X89783553Y-53959422D01*
X89783553Y-53959421D01*
X89783550Y-53959417D01*
X89621108Y-53658986D01*
X89582505Y-53601755D01*
X89544671Y-53543938D01*
X89537947Y-53535693D01*
X89320241Y-53272533D01*
X89271244Y-53223877D01*
X89222913Y-53174523D01*
X89214715Y-53167741D01*
X88950040Y-52951879D01*
X88892545Y-52913679D01*
X88835532Y-52874641D01*
X88826173Y-52869581D01*
X88524611Y-52709238D01*
X88460789Y-52682932D01*
X88397279Y-52655711D01*
X88387119Y-52652567D01*
X88387113Y-52652565D01*
X88060152Y-52553850D01*
X87992406Y-52540435D01*
X87924848Y-52526075D01*
X87914280Y-52524965D01*
X87914268Y-52524963D01*
X87914257Y-52524963D01*
X87574357Y-52491636D01*
X87574354Y-52491636D01*
X87537426Y-52487999D01*
X83512000Y-52487999D01*
X83512000Y-52287266D01*
X83539162Y-52010250D01*
X83608789Y-51779630D01*
X83721887Y-51566924D01*
X83874145Y-51380237D01*
X84059761Y-51226682D01*
X84271671Y-51112102D01*
X84501797Y-51040866D01*
X84776442Y-51012000D01*
X115212734Y-51012000D01*
X115489750Y-51039162D01*
G37*
X115489750Y-51039162D02*
X115720370Y-51108789D01*
X115933076Y-51221887D01*
X116119763Y-51374145D01*
X116273318Y-51559761D01*
X116387898Y-51771671D01*
X116459134Y-52001797D01*
X116488001Y-52276451D01*
X116488000Y-147712734D01*
X116460838Y-147989751D01*
X116391209Y-148220373D01*
X116278112Y-148433077D01*
X116125854Y-148619763D01*
X115940240Y-148773317D01*
X115728326Y-148887898D01*
X115498203Y-148959133D01*
X115223558Y-148988000D01*
X84787265Y-148988000D01*
X84510248Y-148960838D01*
X84279626Y-148891209D01*
X84066922Y-148778112D01*
X83880236Y-148625854D01*
X83726682Y-148440240D01*
X83612101Y-148228326D01*
X83540866Y-147998203D01*
X83511999Y-147723558D01*
X83511999Y-147512000D01*
X87537426Y-147512000D01*
X87576082Y-147508193D01*
X87598792Y-147508193D01*
X87609373Y-147507080D01*
X87948784Y-147469009D01*
X88016328Y-147454652D01*
X88084086Y-147441236D01*
X88094250Y-147438090D01*
X88419803Y-147334819D01*
X88483333Y-147307590D01*
X88547135Y-147281293D01*
X88556494Y-147276233D01*
X88855788Y-147111695D01*
X88912764Y-147072683D01*
X88970299Y-147034457D01*
X88978496Y-147027675D01*
X89240131Y-146808137D01*
X89288443Y-146758803D01*
X89337458Y-146710129D01*
X89344182Y-146701884D01*
X89558192Y-146435710D01*
X89596014Y-146377913D01*
X89634631Y-146320661D01*
X89639619Y-146311278D01*
X89639625Y-146311269D01*
X89639629Y-146311260D01*
X89797859Y-146008593D01*
X89823731Y-145944559D01*
X89850495Y-145880891D01*
X89853566Y-145870716D01*
X89853570Y-145870706D01*
X89853572Y-145870696D01*
X89950000Y-145543061D01*
X89962941Y-145475220D01*
X89976829Y-145407566D01*
X89977867Y-145396978D01*
X90008821Y-145056843D01*
X90008339Y-144987749D01*
X90008821Y-144918722D01*
X90007783Y-144908134D01*
X89991355Y-144751821D01*
X109980192Y-144751821D01*
X109980192Y-145248179D01*
X110077027Y-145735001D01*
X110266975Y-146193577D01*
X110542738Y-146606284D01*
X110893716Y-146957262D01*
X111306423Y-147233025D01*
X111764999Y-147422973D01*
X112251821Y-147519808D01*
X112748179Y-147519808D01*
X113235001Y-147422973D01*
X113693577Y-147233025D01*
X114106284Y-146957262D01*
X114457262Y-146606284D01*
X114733025Y-146193577D01*
X114922973Y-145735001D01*
X115019808Y-145248179D01*
X115019808Y-144751821D01*
X114922973Y-144264999D01*
X114733025Y-143806423D01*
X114457262Y-143393716D01*
X114106284Y-143042738D01*
X113693577Y-142766975D01*
X113235001Y-142577027D01*
X112748179Y-142480192D01*
X112251821Y-142480192D01*
X111764999Y-142577027D01*
X111306423Y-142766975D01*
X110893716Y-143042738D01*
X110542738Y-143393716D01*
X110266975Y-143806423D01*
X110077027Y-144264999D01*
X109980192Y-144751821D01*
X89991355Y-144751821D01*
X89972083Y-144568465D01*
X89958196Y-144500809D01*
X89945255Y-144432970D01*
X89942182Y-144422795D01*
X89942180Y-144422785D01*
X89942176Y-144422776D01*
X89841183Y-144096519D01*
X89814417Y-144032845D01*
X89788548Y-143968816D01*
X89783553Y-143959423D01*
X89783553Y-143959422D01*
X89783550Y-143959418D01*
X89621108Y-143658987D01*
X89582505Y-143601756D01*
X89544671Y-143543939D01*
X89537947Y-143535694D01*
X89320241Y-143272534D01*
X89271244Y-143223878D01*
X89222913Y-143174524D01*
X89214715Y-143167742D01*
X88950040Y-142951880D01*
X88892545Y-142913680D01*
X88835532Y-142874642D01*
X88826173Y-142869582D01*
X88524611Y-142709239D01*
X88460789Y-142682933D01*
X88397279Y-142655712D01*
X88387119Y-142652568D01*
X88387113Y-142652566D01*
X88060152Y-142553851D01*
X87992406Y-142540436D01*
X87924848Y-142526076D01*
X87914280Y-142524966D01*
X87914268Y-142524964D01*
X87914257Y-142524964D01*
X87574357Y-142491637D01*
X87574354Y-142491637D01*
X87537426Y-142488000D01*
X83511998Y-142488000D01*
X83511998Y-128950000D01*
X85761928Y-128950000D01*
X85761928Y-130050000D01*
X85784756Y-130281781D01*
X85852365Y-130504655D01*
X85962154Y-130710057D01*
X86109906Y-130890094D01*
X86289943Y-131037846D01*
X86495345Y-131147635D01*
X86718219Y-131215244D01*
X86950000Y-131238072D01*
X88050000Y-131238072D01*
X88281781Y-131215244D01*
X88504655Y-131147635D01*
X88710057Y-131037846D01*
X88890094Y-130890094D01*
X89037846Y-130710057D01*
X89096672Y-130600000D01*
X89571928Y-130600000D01*
X89584188Y-130724482D01*
X89620498Y-130844180D01*
X89679463Y-130954494D01*
X89758815Y-131051185D01*
X89855506Y-131130537D01*
X89965820Y-131189502D01*
X90085518Y-131225812D01*
X90210000Y-131238072D01*
X91024250Y-131235000D01*
X91183000Y-131076250D01*
X91183000Y-129627000D01*
X91437000Y-129627000D01*
X91437000Y-131076250D01*
X91595750Y-131235000D01*
X92410000Y-131238072D01*
X92534482Y-131225812D01*
X92654180Y-131189502D01*
X92764494Y-131130537D01*
X92861185Y-131051185D01*
X92940537Y-130954494D01*
X92999502Y-130844180D01*
X93035812Y-130724482D01*
X93048072Y-130600000D01*
X93045000Y-129785750D01*
X92886250Y-129627000D01*
X91437000Y-129627000D01*
X91183000Y-129627000D01*
X89733750Y-129627000D01*
X89575000Y-129785750D01*
X89571928Y-130600000D01*
X89096672Y-130600000D01*
X89147635Y-130504655D01*
X89215244Y-130281781D01*
X89238072Y-130050000D01*
X89238072Y-128950000D01*
X89215244Y-128718219D01*
X89147635Y-128495345D01*
X89096673Y-128400000D01*
X89571928Y-128400000D01*
X89575000Y-129214250D01*
X89733750Y-129373000D01*
X91183000Y-129373000D01*
X91183000Y-127923750D01*
X91437000Y-127923750D01*
X91437000Y-129373000D01*
X92886250Y-129373000D01*
X93045000Y-129214250D01*
X93045996Y-128950000D01*
X93381928Y-128950000D01*
X93381928Y-130050000D01*
X93404756Y-130281781D01*
X93472365Y-130504655D01*
X93582154Y-130710057D01*
X93729906Y-130890094D01*
X93909943Y-131037846D01*
X94115345Y-131147635D01*
X94338219Y-131215244D01*
X94570000Y-131238072D01*
X95670000Y-131238072D01*
X95901781Y-131215244D01*
X96124655Y-131147635D01*
X96330057Y-131037846D01*
X96510094Y-130890094D01*
X96657846Y-130710057D01*
X96767635Y-130504655D01*
X96835244Y-130281781D01*
X96858072Y-130050000D01*
X96858072Y-128950000D01*
X97191928Y-128950000D01*
X97191928Y-130050000D01*
X97214756Y-130281781D01*
X97282365Y-130504655D01*
X97392154Y-130710057D01*
X97539906Y-130890094D01*
X97719943Y-131037846D01*
X97925345Y-131147635D01*
X98148219Y-131215244D01*
X98380000Y-131238072D01*
X99480000Y-131238072D01*
X99711781Y-131215244D01*
X99934655Y-131147635D01*
X100140057Y-131037846D01*
X100320094Y-130890094D01*
X100467846Y-130710057D01*
X100577635Y-130504655D01*
X100645244Y-130281781D01*
X100668072Y-130050000D01*
X100668072Y-128950000D01*
X101001928Y-128950000D01*
X101001928Y-130050000D01*
X101024756Y-130281781D01*
X101092365Y-130504655D01*
X101202154Y-130710057D01*
X101349906Y-130890094D01*
X101529943Y-131037846D01*
X101735345Y-131147635D01*
X101958219Y-131215244D01*
X102190000Y-131238072D01*
X103290000Y-131238072D01*
X103521781Y-131215244D01*
X103744655Y-131147635D01*
X103950057Y-131037846D01*
X104130094Y-130890094D01*
X104277846Y-130710057D01*
X104387635Y-130504655D01*
X104455244Y-130281781D01*
X104478072Y-130050000D01*
X104478072Y-128950000D01*
X104811928Y-128950000D01*
X104811928Y-130050000D01*
X104834756Y-130281781D01*
X104902365Y-130504655D01*
X105012154Y-130710057D01*
X105159906Y-130890094D01*
X105339943Y-131037846D01*
X105545345Y-131147635D01*
X105768219Y-131215244D01*
X106000000Y-131238072D01*
X107100000Y-131238072D01*
X107331781Y-131215244D01*
X107554655Y-131147635D01*
X107760057Y-131037846D01*
X107940094Y-130890094D01*
X108087846Y-130710057D01*
X108197635Y-130504655D01*
X108265244Y-130281781D01*
X108288072Y-130050000D01*
X108288072Y-128950000D01*
X108621928Y-128950000D01*
X108621928Y-130050000D01*
X108644756Y-130281781D01*
X108712365Y-130504655D01*
X108822154Y-130710057D01*
X108969906Y-130890094D01*
X109149943Y-131037846D01*
X109355345Y-131147635D01*
X109578219Y-131215244D01*
X109810000Y-131238072D01*
X110910000Y-131238072D01*
X111141781Y-131215244D01*
X111364655Y-131147635D01*
X111570057Y-131037846D01*
X111750094Y-130890094D01*
X111897846Y-130710057D01*
X112007635Y-130504655D01*
X112075244Y-130281781D01*
X112098072Y-130050000D01*
X112098072Y-128950000D01*
X112431928Y-128950000D01*
X112431928Y-130050000D01*
X112454756Y-130281781D01*
X112522365Y-130504655D01*
X112632154Y-130710057D01*
X112779906Y-130890094D01*
X112959943Y-131037846D01*
X113165345Y-131147635D01*
X113388219Y-131215244D01*
X113620000Y-131238072D01*
X114720000Y-131238072D01*
X114951781Y-131215244D01*
X115174655Y-131147635D01*
X115380057Y-131037846D01*
X115560094Y-130890094D01*
X115707846Y-130710057D01*
X115817635Y-130504655D01*
X115885244Y-130281781D01*
X115908072Y-130050000D01*
X115908072Y-128950000D01*
X115885244Y-128718219D01*
X115817635Y-128495345D01*
X115707846Y-128289943D01*
X115560094Y-128109906D01*
X115380057Y-127962154D01*
X115174655Y-127852365D01*
X114951781Y-127784756D01*
X114720000Y-127761928D01*
X113620000Y-127761928D01*
X113388219Y-127784756D01*
X113165345Y-127852365D01*
X112959943Y-127962154D01*
X112779906Y-128109906D01*
X112632154Y-128289943D01*
X112522365Y-128495345D01*
X112454756Y-128718219D01*
X112431928Y-128950000D01*
X112098072Y-128950000D01*
X112075244Y-128718219D01*
X112007635Y-128495345D01*
X111897846Y-128289943D01*
X111750094Y-128109906D01*
X111570057Y-127962154D01*
X111364655Y-127852365D01*
X111141781Y-127784756D01*
X110910000Y-127761928D01*
X109810000Y-127761928D01*
X109578219Y-127784756D01*
X109355345Y-127852365D01*
X109149943Y-127962154D01*
X108969906Y-128109906D01*
X108822154Y-128289943D01*
X108712365Y-128495345D01*
X108644756Y-128718219D01*
X108621928Y-128950000D01*
X108288072Y-128950000D01*
X108265244Y-128718219D01*
X108197635Y-128495345D01*
X108087846Y-128289943D01*
X107940094Y-128109906D01*
X107760057Y-127962154D01*
X107554655Y-127852365D01*
X107331781Y-127784756D01*
X107100000Y-127761928D01*
X106000000Y-127761928D01*
X105768219Y-127784756D01*
X105545345Y-127852365D01*
X105339943Y-127962154D01*
X105159906Y-128109906D01*
X105012154Y-128289943D01*
X104902365Y-128495345D01*
X104834756Y-128718219D01*
X104811928Y-128950000D01*
X104478072Y-128950000D01*
X104455244Y-128718219D01*
X104387635Y-128495345D01*
X104277846Y-128289943D01*
X104130094Y-128109906D01*
X103950057Y-127962154D01*
X103744655Y-127852365D01*
X103521781Y-127784756D01*
X103290000Y-127761928D01*
X102190000Y-127761928D01*
X101958219Y-127784756D01*
X101735345Y-127852365D01*
X101529943Y-127962154D01*
X101349906Y-128109906D01*
X101202154Y-128289943D01*
X101092365Y-128495345D01*
X101024756Y-128718219D01*
X101001928Y-128950000D01*
X100668072Y-128950000D01*
X100645244Y-128718219D01*
X100577635Y-128495345D01*
X100467846Y-128289943D01*
X100320094Y-128109906D01*
X100140057Y-127962154D01*
X99934655Y-127852365D01*
X99711781Y-127784756D01*
X99480000Y-127761928D01*
X98380000Y-127761928D01*
X98148219Y-127784756D01*
X97925345Y-127852365D01*
X97719943Y-127962154D01*
X97539906Y-128109906D01*
X97392154Y-128289943D01*
X97282365Y-128495345D01*
X97214756Y-128718219D01*
X97191928Y-128950000D01*
X96858072Y-128950000D01*
X96835244Y-128718219D01*
X96767635Y-128495345D01*
X96657846Y-128289943D01*
X96510094Y-128109906D01*
X96330057Y-127962154D01*
X96124655Y-127852365D01*
X95901781Y-127784756D01*
X95670000Y-127761928D01*
X94570000Y-127761928D01*
X94338219Y-127784756D01*
X94115345Y-127852365D01*
X93909943Y-127962154D01*
X93729906Y-128109906D01*
X93582154Y-128289943D01*
X93472365Y-128495345D01*
X93404756Y-128718219D01*
X93381928Y-128950000D01*
X93045996Y-128950000D01*
X93048072Y-128400000D01*
X93035812Y-128275518D01*
X92999502Y-128155820D01*
X92940537Y-128045506D01*
X92861185Y-127948815D01*
X92764494Y-127869463D01*
X92654180Y-127810498D01*
X92534482Y-127774188D01*
X92410000Y-127761928D01*
X91595750Y-127765000D01*
X91437000Y-127923750D01*
X91183000Y-127923750D01*
X91024250Y-127765000D01*
X90210000Y-127761928D01*
X90085518Y-127774188D01*
X89965820Y-127810498D01*
X89855506Y-127869463D01*
X89758815Y-127948815D01*
X89679463Y-128045506D01*
X89620498Y-128155820D01*
X89584188Y-128275518D01*
X89571928Y-128400000D01*
X89096673Y-128400000D01*
X89037846Y-128289943D01*
X88890094Y-128109906D01*
X88710057Y-127962154D01*
X88504655Y-127852365D01*
X88281781Y-127784756D01*
X88050000Y-127761928D01*
X86950000Y-127761928D01*
X86718219Y-127784756D01*
X86495345Y-127852365D01*
X86289943Y-127962154D01*
X86109906Y-128109906D01*
X85962154Y-128289943D01*
X85852365Y-128495345D01*
X85784756Y-128718219D01*
X85761928Y-128950000D01*
X83511998Y-128950000D01*
X83511998Y-123950000D01*
X85761928Y-123950000D01*
X85761928Y-125050000D01*
X85784756Y-125281781D01*
X85852365Y-125504655D01*
X85962154Y-125710057D01*
X86109906Y-125890094D01*
X86289943Y-126037846D01*
X86495345Y-126147635D01*
X86718219Y-126215244D01*
X86950000Y-126238072D01*
X88050000Y-126238072D01*
X88281781Y-126215244D01*
X88504655Y-126147635D01*
X88710057Y-126037846D01*
X88890094Y-125890094D01*
X89037846Y-125710057D01*
X89096672Y-125600000D01*
X89571928Y-125600000D01*
X89584188Y-125724482D01*
X89620498Y-125844180D01*
X89679463Y-125954494D01*
X89758815Y-126051185D01*
X89855506Y-126130537D01*
X89965820Y-126189502D01*
X90085518Y-126225812D01*
X90210000Y-126238072D01*
X91024250Y-126235000D01*
X91183000Y-126076250D01*
X91183000Y-124627000D01*
X91437000Y-124627000D01*
X91437000Y-126076250D01*
X91595750Y-126235000D01*
X92410000Y-126238072D01*
X92534482Y-126225812D01*
X92654180Y-126189502D01*
X92764494Y-126130537D01*
X92861185Y-126051185D01*
X92940537Y-125954494D01*
X92999502Y-125844180D01*
X93035812Y-125724482D01*
X93048072Y-125600000D01*
X93045000Y-124785750D01*
X92886250Y-124627000D01*
X91437000Y-124627000D01*
X91183000Y-124627000D01*
X89733750Y-124627000D01*
X89575000Y-124785750D01*
X89571928Y-125600000D01*
X89096672Y-125600000D01*
X89147635Y-125504655D01*
X89215244Y-125281781D01*
X89238072Y-125050000D01*
X89238072Y-123950000D01*
X89215244Y-123718219D01*
X89147635Y-123495345D01*
X89096673Y-123400000D01*
X89571928Y-123400000D01*
X89575000Y-124214250D01*
X89733750Y-124373000D01*
X91183000Y-124373000D01*
X91183000Y-122923750D01*
X91437000Y-122923750D01*
X91437000Y-124373000D01*
X92886250Y-124373000D01*
X93045000Y-124214250D01*
X93045996Y-123950000D01*
X93381928Y-123950000D01*
X93381928Y-125050000D01*
X93404756Y-125281781D01*
X93472365Y-125504655D01*
X93582154Y-125710057D01*
X93729906Y-125890094D01*
X93909943Y-126037846D01*
X94115345Y-126147635D01*
X94338219Y-126215244D01*
X94570000Y-126238072D01*
X95670000Y-126238072D01*
X95901781Y-126215244D01*
X96124655Y-126147635D01*
X96330057Y-126037846D01*
X96510094Y-125890094D01*
X96657846Y-125710057D01*
X96767635Y-125504655D01*
X96835244Y-125281781D01*
X96858072Y-125050000D01*
X96858072Y-123950000D01*
X97191928Y-123950000D01*
X97191928Y-125050000D01*
X97214756Y-125281781D01*
X97282365Y-125504655D01*
X97392154Y-125710057D01*
X97539906Y-125890094D01*
X97719943Y-126037846D01*
X97925345Y-126147635D01*
X98148219Y-126215244D01*
X98380000Y-126238072D01*
X99480000Y-126238072D01*
X99711781Y-126215244D01*
X99934655Y-126147635D01*
X100140057Y-126037846D01*
X100320094Y-125890094D01*
X100467846Y-125710057D01*
X100577635Y-125504655D01*
X100645244Y-125281781D01*
X100668072Y-125050000D01*
X100668072Y-123950000D01*
X101001928Y-123950000D01*
X101001928Y-125050000D01*
X101024756Y-125281781D01*
X101092365Y-125504655D01*
X101202154Y-125710057D01*
X101349906Y-125890094D01*
X101529943Y-126037846D01*
X101735345Y-126147635D01*
X101958219Y-126215244D01*
X102190000Y-126238072D01*
X103290000Y-126238072D01*
X103521781Y-126215244D01*
X103744655Y-126147635D01*
X103950057Y-126037846D01*
X104130094Y-125890094D01*
X104277846Y-125710057D01*
X104387635Y-125504655D01*
X104455244Y-125281781D01*
X104478072Y-125050000D01*
X104478072Y-123950000D01*
X104811928Y-123950000D01*
X104811928Y-125050000D01*
X104834756Y-125281781D01*
X104902365Y-125504655D01*
X105012154Y-125710057D01*
X105159906Y-125890094D01*
X105339943Y-126037846D01*
X105545345Y-126147635D01*
X105768219Y-126215244D01*
X106000000Y-126238072D01*
X107100000Y-126238072D01*
X107331781Y-126215244D01*
X107554655Y-126147635D01*
X107760057Y-126037846D01*
X107940094Y-125890094D01*
X108087846Y-125710057D01*
X108197635Y-125504655D01*
X108265244Y-125281781D01*
X108288072Y-125050000D01*
X108288072Y-123950000D01*
X108621928Y-123950000D01*
X108621928Y-125050000D01*
X108644756Y-125281781D01*
X108712365Y-125504655D01*
X108822154Y-125710057D01*
X108969906Y-125890094D01*
X109149943Y-126037846D01*
X109355345Y-126147635D01*
X109578219Y-126215244D01*
X109810000Y-126238072D01*
X110910000Y-126238072D01*
X111141781Y-126215244D01*
X111364655Y-126147635D01*
X111570057Y-126037846D01*
X111750094Y-125890094D01*
X111897846Y-125710057D01*
X112007635Y-125504655D01*
X112075244Y-125281781D01*
X112098072Y-125050000D01*
X112098072Y-124082795D01*
X112453894Y-123726974D01*
X112431928Y-123950000D01*
X112431928Y-125050000D01*
X112454756Y-125281781D01*
X112522365Y-125504655D01*
X112632154Y-125710057D01*
X112779906Y-125890094D01*
X112959943Y-126037846D01*
X113165345Y-126147635D01*
X113388219Y-126215244D01*
X113620000Y-126238072D01*
X114720000Y-126238072D01*
X114951781Y-126215244D01*
X115174655Y-126147635D01*
X115380057Y-126037846D01*
X115560094Y-125890094D01*
X115707846Y-125710057D01*
X115817635Y-125504655D01*
X115885244Y-125281781D01*
X115908072Y-125050000D01*
X115908072Y-123950000D01*
X115885244Y-123718219D01*
X115817635Y-123495345D01*
X115707846Y-123289943D01*
X115560094Y-123109906D01*
X115380057Y-122962154D01*
X115174655Y-122852365D01*
X114951781Y-122784756D01*
X114835000Y-122773254D01*
X114835000Y-100613285D01*
X114917205Y-100490256D01*
X114995226Y-100301898D01*
X115035000Y-100101939D01*
X115035000Y-99898061D01*
X114995226Y-99698102D01*
X114917205Y-99509744D01*
X114803937Y-99340226D01*
X114659774Y-99196063D01*
X114490256Y-99082795D01*
X114301898Y-99004774D01*
X114196966Y-98983902D01*
X114656775Y-98524092D01*
X114801898Y-98495226D01*
X114990256Y-98417205D01*
X115159774Y-98303937D01*
X115303937Y-98159774D01*
X115417205Y-97990256D01*
X115495226Y-97801898D01*
X115535000Y-97601939D01*
X115535000Y-97398061D01*
X115495226Y-97198102D01*
X115417205Y-97009744D01*
X115303937Y-96840226D01*
X115159774Y-96696063D01*
X114990256Y-96582795D01*
X114801898Y-96504774D01*
X114601939Y-96465000D01*
X114398061Y-96465000D01*
X114198102Y-96504774D01*
X114009744Y-96582795D01*
X113840226Y-96696063D01*
X113696063Y-96840226D01*
X113582795Y-97009744D01*
X113504774Y-97198102D01*
X113475908Y-97343225D01*
X112638578Y-98180555D01*
X112606708Y-98206710D01*
X112502364Y-98333855D01*
X112502363Y-98333856D01*
X112424827Y-98478915D01*
X112377081Y-98636313D01*
X112360959Y-98800001D01*
X112364999Y-98841019D01*
X112365000Y-121454132D01*
X111044006Y-122775126D01*
X110910000Y-122761928D01*
X109810000Y-122761928D01*
X109578219Y-122784756D01*
X109355345Y-122852365D01*
X109149943Y-122962154D01*
X108969906Y-123109906D01*
X108822154Y-123289943D01*
X108712365Y-123495345D01*
X108644756Y-123718219D01*
X108621928Y-123950000D01*
X108288072Y-123950000D01*
X108265244Y-123718219D01*
X108197635Y-123495345D01*
X108087846Y-123289943D01*
X107940094Y-123109906D01*
X107760057Y-122962154D01*
X107554655Y-122852365D01*
X107331781Y-122784756D01*
X107100000Y-122761928D01*
X106000000Y-122761928D01*
X105768219Y-122784756D01*
X105545345Y-122852365D01*
X105339943Y-122962154D01*
X105159906Y-123109906D01*
X105012154Y-123289943D01*
X104902365Y-123495345D01*
X104834756Y-123718219D01*
X104811928Y-123950000D01*
X104478072Y-123950000D01*
X104455244Y-123718219D01*
X104387635Y-123495345D01*
X104277846Y-123289943D01*
X104130094Y-123109906D01*
X103950057Y-122962154D01*
X103744655Y-122852365D01*
X103521781Y-122784756D01*
X103290000Y-122761928D01*
X102190000Y-122761928D01*
X101958219Y-122784756D01*
X101735345Y-122852365D01*
X101529943Y-122962154D01*
X101349906Y-123109906D01*
X101202154Y-123289943D01*
X101092365Y-123495345D01*
X101024756Y-123718219D01*
X101001928Y-123950000D01*
X100668072Y-123950000D01*
X100645244Y-123718219D01*
X100577635Y-123495345D01*
X100467846Y-123289943D01*
X100320094Y-123109906D01*
X100140057Y-122962154D01*
X99934655Y-122852365D01*
X99711781Y-122784756D01*
X99480000Y-122761928D01*
X98380000Y-122761928D01*
X98148219Y-122784756D01*
X97925345Y-122852365D01*
X97719943Y-122962154D01*
X97539906Y-123109906D01*
X97392154Y-123289943D01*
X97282365Y-123495345D01*
X97214756Y-123718219D01*
X97191928Y-123950000D01*
X96858072Y-123950000D01*
X96835244Y-123718219D01*
X96767635Y-123495345D01*
X96657846Y-123289943D01*
X96510094Y-123109906D01*
X96330057Y-122962154D01*
X96124655Y-122852365D01*
X95901781Y-122784756D01*
X95670000Y-122761928D01*
X94570000Y-122761928D01*
X94338219Y-122784756D01*
X94115345Y-122852365D01*
X93909943Y-122962154D01*
X93729906Y-123109906D01*
X93582154Y-123289943D01*
X93472365Y-123495345D01*
X93404756Y-123718219D01*
X93381928Y-123950000D01*
X93045996Y-123950000D01*
X93048072Y-123400000D01*
X93035812Y-123275518D01*
X92999502Y-123155820D01*
X92940537Y-123045506D01*
X92861185Y-122948815D01*
X92764494Y-122869463D01*
X92654180Y-122810498D01*
X92534482Y-122774188D01*
X92410000Y-122761928D01*
X91595750Y-122765000D01*
X91437000Y-122923750D01*
X91183000Y-122923750D01*
X91024250Y-122765000D01*
X90210000Y-122761928D01*
X90085518Y-122774188D01*
X89965820Y-122810498D01*
X89855506Y-122869463D01*
X89758815Y-122948815D01*
X89679463Y-123045506D01*
X89620498Y-123155820D01*
X89584188Y-123275518D01*
X89571928Y-123400000D01*
X89096673Y-123400000D01*
X89037846Y-123289943D01*
X88890094Y-123109906D01*
X88710057Y-122962154D01*
X88504655Y-122852365D01*
X88281781Y-122784756D01*
X88050000Y-122761928D01*
X86950000Y-122761928D01*
X86718219Y-122784756D01*
X86495345Y-122852365D01*
X86289943Y-122962154D01*
X86109906Y-123109906D01*
X85962154Y-123289943D01*
X85852365Y-123495345D01*
X85784756Y-123718219D01*
X85761928Y-123950000D01*
X83511998Y-123950000D01*
X83511998Y-112898061D01*
X87465000Y-112898061D01*
X87465000Y-113101939D01*
X87504774Y-113301898D01*
X87582795Y-113490256D01*
X87696063Y-113659774D01*
X87840226Y-113803937D01*
X88009744Y-113917205D01*
X88115382Y-113960962D01*
X88082787Y-114009744D01*
X88004766Y-114198102D01*
X87964992Y-114398061D01*
X87964992Y-114601939D01*
X88004766Y-114801898D01*
X88082787Y-114990256D01*
X88164992Y-115113285D01*
X88164993Y-118958964D01*
X88160952Y-118999992D01*
X88177074Y-119163680D01*
X88224820Y-119321078D01*
X88291905Y-119446584D01*
X88302357Y-119466138D01*
X88406702Y-119593283D01*
X88438566Y-119619433D01*
X88975908Y-120156776D01*
X89004774Y-120301898D01*
X89082795Y-120490256D01*
X89196063Y-120659774D01*
X89340226Y-120803937D01*
X89509744Y-120917205D01*
X89698102Y-120995226D01*
X89898061Y-121035000D01*
X90101939Y-121035000D01*
X90301898Y-120995226D01*
X90490256Y-120917205D01*
X90659774Y-120803937D01*
X90803937Y-120659774D01*
X90877376Y-120549864D01*
X91046594Y-120583523D01*
X91250472Y-120583523D01*
X91450431Y-120543749D01*
X91638789Y-120465728D01*
X91808307Y-120352460D01*
X91952470Y-120208297D01*
X92065738Y-120038779D01*
X92143759Y-119850421D01*
X92183533Y-119650462D01*
X92183533Y-119446584D01*
X92143759Y-119246625D01*
X92065738Y-119058267D01*
X91952470Y-118888749D01*
X91835000Y-118771279D01*
X91835000Y-113113285D01*
X91917205Y-112990256D01*
X91995226Y-112801898D01*
X92035000Y-112601939D01*
X92035000Y-112398061D01*
X91995226Y-112198102D01*
X91917205Y-112009744D01*
X91803937Y-111840226D01*
X91659774Y-111696063D01*
X91490256Y-111582795D01*
X91301898Y-111504774D01*
X91101939Y-111465000D01*
X90898061Y-111465000D01*
X90698102Y-111504774D01*
X90509744Y-111582795D01*
X90340226Y-111696063D01*
X90196063Y-111840226D01*
X90082795Y-112009744D01*
X90004774Y-112198102D01*
X89965000Y-112398061D01*
X89965000Y-112601939D01*
X89993929Y-112747376D01*
X89685130Y-112438578D01*
X89658976Y-112406709D01*
X89531831Y-112302364D01*
X89386772Y-112224828D01*
X89229374Y-112177082D01*
X89114423Y-112165760D01*
X88990256Y-112082795D01*
X88801898Y-112004774D01*
X88601939Y-111965000D01*
X88398061Y-111965000D01*
X88198102Y-112004774D01*
X88009744Y-112082795D01*
X87840226Y-112196063D01*
X87696063Y-112340226D01*
X87582795Y-112509744D01*
X87504774Y-112698102D01*
X87465000Y-112898061D01*
X83511998Y-112898061D01*
X83511998Y-101898061D01*
X100465000Y-101898061D01*
X100465000Y-102101939D01*
X100504774Y-102301898D01*
X100582795Y-102490256D01*
X100696063Y-102659774D01*
X100840226Y-102803937D01*
X101009744Y-102917205D01*
X101070000Y-102942164D01*
X101070001Y-108386702D01*
X100987795Y-108509732D01*
X100909774Y-108698090D01*
X100870000Y-108898049D01*
X100870000Y-109101927D01*
X100909774Y-109301886D01*
X100987795Y-109490244D01*
X101101063Y-109659762D01*
X101245226Y-109803925D01*
X101414744Y-109917193D01*
X101603102Y-109995214D01*
X101803061Y-110034988D01*
X102006939Y-110034988D01*
X102206898Y-109995214D01*
X102395256Y-109917193D01*
X102564774Y-109803925D01*
X102708937Y-109659762D01*
X102822205Y-109490244D01*
X102900226Y-109301886D01*
X102940000Y-109101927D01*
X102940000Y-108898049D01*
X102900226Y-108698090D01*
X102822205Y-108509732D01*
X102740000Y-108386703D01*
X102740000Y-102446007D01*
X102744039Y-102404999D01*
X102740000Y-102363991D01*
X102740000Y-102363981D01*
X102727918Y-102241311D01*
X102680172Y-102083913D01*
X102602636Y-101938854D01*
X102524072Y-101843124D01*
X102495226Y-101698102D01*
X102417205Y-101509744D01*
X102303937Y-101340226D01*
X102159774Y-101196063D01*
X101990256Y-101082795D01*
X101801898Y-101004774D01*
X101601939Y-100965000D01*
X101398061Y-100965000D01*
X101198102Y-101004774D01*
X101009744Y-101082795D01*
X100840226Y-101196063D01*
X100696063Y-101340226D01*
X100582795Y-101509744D01*
X100504774Y-101698102D01*
X100465000Y-101898061D01*
X83511998Y-101898061D01*
X83511998Y-98902408D01*
X100103000Y-98902408D01*
X100103000Y-99177592D01*
X100156686Y-99447490D01*
X100261995Y-99701727D01*
X100414880Y-99930535D01*
X100609465Y-100125120D01*
X100838273Y-100278005D01*
X101092510Y-100383314D01*
X101362408Y-100437000D01*
X101637592Y-100437000D01*
X101907490Y-100383314D01*
X102161727Y-100278005D01*
X102390535Y-100125120D01*
X102585120Y-99930535D01*
X102738005Y-99701727D01*
X102843314Y-99447490D01*
X102897000Y-99177592D01*
X102897000Y-98902408D01*
X102843314Y-98632510D01*
X102738005Y-98378273D01*
X102585120Y-98149465D01*
X102390535Y-97954880D01*
X102305500Y-97898061D01*
X107965000Y-97898061D01*
X107965000Y-98101939D01*
X108004774Y-98301898D01*
X108082795Y-98490256D01*
X108196063Y-98659774D01*
X108340226Y-98803937D01*
X108509744Y-98917205D01*
X108698102Y-98995226D01*
X108898061Y-99035000D01*
X109101939Y-99035000D01*
X109301898Y-98995226D01*
X109490256Y-98917205D01*
X109659774Y-98803937D01*
X109803937Y-98659774D01*
X109917205Y-98490256D01*
X109995226Y-98301898D01*
X110035000Y-98101939D01*
X110035000Y-97898061D01*
X109995226Y-97698102D01*
X109935000Y-97552705D01*
X109935000Y-92947315D01*
X109995234Y-92801898D01*
X110035008Y-92601939D01*
X110035008Y-92398061D01*
X109995234Y-92198102D01*
X109917213Y-92009744D01*
X109803945Y-91840226D01*
X109659782Y-91696063D01*
X109490264Y-91582795D01*
X109301906Y-91504774D01*
X109101947Y-91465000D01*
X108898069Y-91465000D01*
X108698110Y-91504774D01*
X108509752Y-91582795D01*
X108340234Y-91696063D01*
X108196071Y-91840226D01*
X108082803Y-92009744D01*
X108004782Y-92198102D01*
X107965008Y-92398061D01*
X107965008Y-92601939D01*
X108004782Y-92801898D01*
X108065001Y-92947278D01*
X108065000Y-97552704D01*
X108004774Y-97698102D01*
X107965000Y-97898061D01*
X102305500Y-97898061D01*
X102161727Y-97801995D01*
X102090057Y-97772308D01*
X102103023Y-97767636D01*
X102218980Y-97705656D01*
X102285960Y-97465565D01*
X101500000Y-96679605D01*
X100714040Y-97465565D01*
X100781020Y-97705656D01*
X100916760Y-97769485D01*
X100838273Y-97801995D01*
X100609465Y-97954880D01*
X100414880Y-98149465D01*
X100261995Y-98378273D01*
X100156686Y-98632510D01*
X100103000Y-98902408D01*
X83511998Y-98902408D01*
X83511998Y-96572017D01*
X100098090Y-96572017D01*
X100139078Y-96844133D01*
X100232364Y-97103023D01*
X100294344Y-97218980D01*
X100534435Y-97285960D01*
X101320395Y-96500000D01*
X101679605Y-96500000D01*
X102465565Y-97285960D01*
X102705656Y-97218980D01*
X102822756Y-96969952D01*
X102889023Y-96702865D01*
X102901910Y-96427983D01*
X102860922Y-96155867D01*
X102767636Y-95896977D01*
X102705656Y-95781020D01*
X102465565Y-95714040D01*
X101679605Y-96500000D01*
X101320395Y-96500000D01*
X100534435Y-95714040D01*
X100294344Y-95781020D01*
X100177244Y-96030048D01*
X100110977Y-96297135D01*
X100098090Y-96572017D01*
X83511998Y-96572017D01*
X83511998Y-93822408D01*
X100103000Y-93822408D01*
X100103000Y-94097592D01*
X100156686Y-94367490D01*
X100261995Y-94621727D01*
X100414880Y-94850535D01*
X100609465Y-95045120D01*
X100838273Y-95198005D01*
X100909943Y-95227692D01*
X100896977Y-95232364D01*
X100781020Y-95294344D01*
X100714040Y-95534435D01*
X101500000Y-96320395D01*
X102285960Y-95534435D01*
X102218980Y-95294344D01*
X102083240Y-95230515D01*
X102161727Y-95198005D01*
X102390535Y-95045120D01*
X102585120Y-94850535D01*
X102738005Y-94621727D01*
X102843314Y-94367490D01*
X102897000Y-94097592D01*
X102897000Y-93822408D01*
X102843314Y-93552510D01*
X102738005Y-93298273D01*
X102585120Y-93069465D01*
X102390535Y-92874880D01*
X102161727Y-92721995D01*
X101907490Y-92616686D01*
X101637592Y-92563000D01*
X101362408Y-92563000D01*
X101092510Y-92616686D01*
X100838273Y-92721995D01*
X100609465Y-92874880D01*
X100414880Y-93069465D01*
X100261995Y-93298273D01*
X100156686Y-93552510D01*
X100103000Y-93822408D01*
X83511998Y-93822408D01*
X83511999Y-64790000D01*
X86107089Y-64790000D01*
X86115000Y-64870323D01*
X86115001Y-67249669D01*
X86107089Y-67330000D01*
X86138657Y-67650516D01*
X86232148Y-67958715D01*
X86373000Y-68222230D01*
X86373000Y-69324279D01*
X86353175Y-69365901D01*
X86308524Y-69513110D01*
X86373000Y-69635285D01*
X86373000Y-70104715D01*
X86308524Y-70226890D01*
X86353175Y-70374099D01*
X86373000Y-70415721D01*
X86373000Y-71517770D01*
X86232148Y-71781285D01*
X86138657Y-72089484D01*
X86107089Y-72410000D01*
X86138657Y-72730516D01*
X86232148Y-73038715D01*
X86373000Y-73302230D01*
X86373000Y-74404279D01*
X86353175Y-74445901D01*
X86308524Y-74593110D01*
X86373000Y-74715285D01*
X86373000Y-75184715D01*
X86308524Y-75306890D01*
X86353175Y-75454099D01*
X86373000Y-75495721D01*
X86373000Y-76597770D01*
X86232148Y-76861285D01*
X86138657Y-77169484D01*
X86107089Y-77490000D01*
X86138657Y-77810516D01*
X86232148Y-78118715D01*
X86373000Y-78382230D01*
X86373000Y-79473881D01*
X86322068Y-79596842D01*
X86265000Y-79883740D01*
X86265000Y-80176260D01*
X86322068Y-80463158D01*
X86373000Y-80586119D01*
X86373000Y-82013881D01*
X86322068Y-82136842D01*
X86265000Y-82423740D01*
X86265000Y-82716260D01*
X86322068Y-83003158D01*
X86373000Y-83126119D01*
X86373000Y-84553881D01*
X86322068Y-84676842D01*
X86265000Y-84963740D01*
X86265000Y-85256260D01*
X86322068Y-85543158D01*
X86373000Y-85666119D01*
X86373000Y-87093881D01*
X86322068Y-87216842D01*
X86265000Y-87503740D01*
X86265000Y-87796260D01*
X86322068Y-88083158D01*
X86373000Y-88206119D01*
X86373000Y-88981196D01*
X86369463Y-88985506D01*
X86310498Y-89095820D01*
X86274188Y-89215518D01*
X86261928Y-89340000D01*
X86265000Y-89904250D01*
X86373000Y-90012250D01*
X86373000Y-90367750D01*
X86265000Y-90475750D01*
X86261928Y-91040000D01*
X86274188Y-91164482D01*
X86310498Y-91284180D01*
X86369463Y-91394494D01*
X86448815Y-91491185D01*
X86545506Y-91570537D01*
X86655820Y-91629502D01*
X86775518Y-91665812D01*
X86900000Y-91678072D01*
X87464250Y-91675000D01*
X87623000Y-91516250D01*
X87623000Y-91127000D01*
X87877000Y-91127000D01*
X87877000Y-91516250D01*
X88035750Y-91675000D01*
X88600000Y-91678072D01*
X88724482Y-91665812D01*
X88844180Y-91629502D01*
X88954494Y-91570537D01*
X89051185Y-91491185D01*
X89130537Y-91394494D01*
X89189502Y-91284180D01*
X89225812Y-91164482D01*
X89238072Y-91040000D01*
X89235000Y-90475750D01*
X89127000Y-90367750D01*
X89127000Y-90012250D01*
X89235000Y-89904250D01*
X89238072Y-89340000D01*
X89225812Y-89215518D01*
X89189502Y-89095820D01*
X89130537Y-88985506D01*
X89127000Y-88981196D01*
X89127000Y-88485000D01*
X105873000Y-88485000D01*
X105873000Y-88981196D01*
X105869463Y-88985506D01*
X105810498Y-89095820D01*
X105774188Y-89215518D01*
X105761928Y-89340000D01*
X105765000Y-89904250D01*
X105873000Y-90012250D01*
X105873000Y-90367750D01*
X105765000Y-90475750D01*
X105761928Y-91040000D01*
X105774188Y-91164482D01*
X105810498Y-91284180D01*
X105869463Y-91394494D01*
X105948815Y-91491185D01*
X106045506Y-91570537D01*
X106155820Y-91629502D01*
X106275518Y-91665812D01*
X106400000Y-91678072D01*
X106964250Y-91675000D01*
X107123000Y-91516250D01*
X107123000Y-91029186D01*
X107377000Y-91029186D01*
X107377000Y-91516250D01*
X107535750Y-91675000D01*
X108100000Y-91678072D01*
X108224482Y-91665812D01*
X108344180Y-91629502D01*
X108454494Y-91570537D01*
X108551185Y-91491185D01*
X108630537Y-91394494D01*
X108689502Y-91284180D01*
X108725812Y-91164482D01*
X108738072Y-91040000D01*
X108735000Y-90475750D01*
X108627000Y-90367750D01*
X108627000Y-90012250D01*
X108735000Y-89904250D01*
X108738072Y-89340000D01*
X108725812Y-89215518D01*
X108689502Y-89095820D01*
X108630537Y-88985506D01*
X108627000Y-88981196D01*
X108627000Y-88206119D01*
X108677932Y-88083158D01*
X108735000Y-87796260D01*
X108735000Y-87503740D01*
X108677932Y-87216842D01*
X108627000Y-87093881D01*
X108627000Y-85666119D01*
X108677932Y-85543158D01*
X108735000Y-85256260D01*
X108735000Y-84963740D01*
X108677932Y-84676842D01*
X108627000Y-84553881D01*
X108627000Y-83126119D01*
X108677932Y-83003158D01*
X108735000Y-82716260D01*
X108735000Y-82423740D01*
X108677932Y-82136842D01*
X108627000Y-82013881D01*
X108627000Y-80586119D01*
X108677932Y-80463158D01*
X108735000Y-80176260D01*
X108735000Y-79883740D01*
X108677932Y-79596842D01*
X108627000Y-79473881D01*
X108627000Y-78382230D01*
X108767852Y-78118715D01*
X108861343Y-77810516D01*
X108892911Y-77490000D01*
X108861343Y-77169484D01*
X108767852Y-76861285D01*
X108627000Y-76597770D01*
X108627000Y-75495721D01*
X108646825Y-75454099D01*
X108691476Y-75306890D01*
X108627000Y-75184715D01*
X108627000Y-74715285D01*
X108691476Y-74593110D01*
X108646825Y-74445901D01*
X108627000Y-74404279D01*
X108627000Y-73302230D01*
X108767852Y-73038715D01*
X108861343Y-72730516D01*
X108892911Y-72410000D01*
X108861343Y-72089484D01*
X108767852Y-71781285D01*
X108627000Y-71517770D01*
X108627000Y-70415721D01*
X108646825Y-70374099D01*
X108691476Y-70226890D01*
X108627000Y-70104715D01*
X108627000Y-69635285D01*
X108691476Y-69513110D01*
X108646825Y-69365901D01*
X108627000Y-69324279D01*
X108627000Y-68222230D01*
X108767852Y-67958715D01*
X108861343Y-67650516D01*
X108885000Y-67410322D01*
X108892911Y-67330000D01*
X108885000Y-67249678D01*
X108885000Y-64870322D01*
X108892911Y-64790000D01*
X108861343Y-64469484D01*
X108767852Y-64161285D01*
X108627000Y-63897770D01*
X108627000Y-62795721D01*
X108646825Y-62754099D01*
X108691476Y-62606890D01*
X108627000Y-62484715D01*
X108627000Y-62015285D01*
X108691476Y-61893110D01*
X108646825Y-61745901D01*
X108627000Y-61704279D01*
X108627000Y-60902186D01*
X108624560Y-60877410D01*
X108617333Y-60853585D01*
X108605597Y-60831629D01*
X108589803Y-60812383D01*
X108570557Y-60796589D01*
X108548601Y-60784853D01*
X108524776Y-60777626D01*
X108500000Y-60775186D01*
X106000000Y-60775186D01*
X105975224Y-60777626D01*
X105951399Y-60784853D01*
X105929443Y-60796589D01*
X105910197Y-60812383D01*
X105894403Y-60831629D01*
X105882667Y-60853585D01*
X105875440Y-60877410D01*
X105873000Y-60902186D01*
X105873000Y-61704279D01*
X105853175Y-61745901D01*
X105808524Y-61893110D01*
X105873000Y-62015285D01*
X105873000Y-62484715D01*
X105808524Y-62606890D01*
X105853175Y-62754099D01*
X105873000Y-62795721D01*
X105873000Y-63155000D01*
X89127000Y-63155000D01*
X89127000Y-62795721D01*
X89146825Y-62754099D01*
X89191476Y-62606890D01*
X89127000Y-62484715D01*
X89127000Y-62015285D01*
X89191476Y-61893110D01*
X89146825Y-61745901D01*
X89127000Y-61704279D01*
X89127000Y-61000000D01*
X89124560Y-60975224D01*
X89117333Y-60951399D01*
X89105597Y-60929443D01*
X89089803Y-60910197D01*
X89070557Y-60894403D01*
X89048601Y-60882667D01*
X89024776Y-60875440D01*
X89000000Y-60873000D01*
X88288666Y-60873000D01*
X88106891Y-60808519D01*
X87984044Y-60873000D01*
X87515956Y-60873000D01*
X87393109Y-60808519D01*
X87211334Y-60873000D01*
X86500000Y-60873000D01*
X86475224Y-60875440D01*
X86451399Y-60882667D01*
X86429443Y-60894403D01*
X86410197Y-60910197D01*
X86394403Y-60929443D01*
X86382667Y-60951399D01*
X86375440Y-60975224D01*
X86373000Y-61000000D01*
X86373000Y-61704279D01*
X86353175Y-61745901D01*
X86308524Y-61893110D01*
X86373000Y-62015285D01*
X86373000Y-62484715D01*
X86308524Y-62606890D01*
X86353175Y-62754099D01*
X86373000Y-62795721D01*
X86373000Y-63897770D01*
X86232148Y-64161285D01*
X86138657Y-64469484D01*
X86107089Y-64790000D01*
X83511999Y-64790000D01*
X83512000Y-57511999D01*
X87537426Y-57511999D01*
X87576082Y-57508192D01*
X87598792Y-57508192D01*
X87609373Y-57507079D01*
X87948784Y-57469008D01*
X88016328Y-57454651D01*
X88084086Y-57441235D01*
X88094250Y-57438089D01*
X88419803Y-57334818D01*
X88483333Y-57307589D01*
X88547135Y-57281292D01*
X88556494Y-57276232D01*
X88855788Y-57111694D01*
X88912764Y-57072682D01*
X88970299Y-57034456D01*
X88978496Y-57027674D01*
X89240131Y-56808136D01*
X89288443Y-56758802D01*
X89337458Y-56710128D01*
X89344182Y-56701883D01*
X89558192Y-56435709D01*
X89596014Y-56377912D01*
X89634631Y-56320660D01*
X89639619Y-56311277D01*
X89639625Y-56311268D01*
X89639629Y-56311259D01*
X89797859Y-56008592D01*
X89823731Y-55944558D01*
X89850495Y-55880890D01*
X89853566Y-55870715D01*
X89853570Y-55870705D01*
X89853572Y-55870695D01*
X89950000Y-55543060D01*
X89962941Y-55475219D01*
X89976829Y-55407565D01*
X89977867Y-55396977D01*
X90008821Y-55056842D01*
X90008339Y-54987748D01*
X90008821Y-54918721D01*
X90007783Y-54908133D01*
X89991355Y-54751821D01*
X109980192Y-54751821D01*
X109980192Y-55248179D01*
X110077027Y-55735001D01*
X110266975Y-56193577D01*
X110542738Y-56606284D01*
X110893716Y-56957262D01*
X111306423Y-57233025D01*
X111764999Y-57422973D01*
X112251821Y-57519808D01*
X112748179Y-57519808D01*
X113235001Y-57422973D01*
X113693577Y-57233025D01*
X114106284Y-56957262D01*
X114457262Y-56606284D01*
X114733025Y-56193577D01*
X114922973Y-55735001D01*
X115019808Y-55248179D01*
X115019808Y-54751821D01*
X114922973Y-54264999D01*
X114733025Y-53806423D01*
X114457262Y-53393716D01*
X114106284Y-53042738D01*
X113693577Y-52766975D01*
X113235001Y-52577027D01*
X112748179Y-52480192D01*
X112251821Y-52480192D01*
X111764999Y-52577027D01*
X111306423Y-52766975D01*
X110893716Y-53042738D01*
X110542738Y-53393716D01*
X110266975Y-53806423D01*
X110077027Y-54264999D01*
X109980192Y-54751821D01*
X89991355Y-54751821D01*
X89972083Y-54568464D01*
X89958196Y-54500808D01*
X89945255Y-54432969D01*
X89942182Y-54422794D01*
X89942180Y-54422784D01*
X89942176Y-54422775D01*
X89841183Y-54096518D01*
X89814417Y-54032844D01*
X89788548Y-53968815D01*
X89783553Y-53959422D01*
X89783553Y-53959421D01*
X89783550Y-53959417D01*
X89621108Y-53658986D01*
X89582505Y-53601755D01*
X89544671Y-53543938D01*
X89537947Y-53535693D01*
X89320241Y-53272533D01*
X89271244Y-53223877D01*
X89222913Y-53174523D01*
X89214715Y-53167741D01*
X88950040Y-52951879D01*
X88892545Y-52913679D01*
X88835532Y-52874641D01*
X88826173Y-52869581D01*
X88524611Y-52709238D01*
X88460789Y-52682932D01*
X88397279Y-52655711D01*
X88387119Y-52652567D01*
X88387113Y-52652565D01*
X88060152Y-52553850D01*
X87992406Y-52540435D01*
X87924848Y-52526075D01*
X87914280Y-52524965D01*
X87914268Y-52524963D01*
X87914257Y-52524963D01*
X87574357Y-52491636D01*
X87574354Y-52491636D01*
X87537426Y-52487999D01*
X83512000Y-52487999D01*
X83512000Y-52287266D01*
X83539162Y-52010250D01*
X83608789Y-51779630D01*
X83721887Y-51566924D01*
X83874145Y-51380237D01*
X84059761Y-51226682D01*
X84271671Y-51112102D01*
X84501797Y-51040866D01*
X84776442Y-51012000D01*
X115212734Y-51012000D01*
X115489750Y-51039162D01*
M02*
