G04 #@! TF.GenerationSoftware,KiCad,Pcbnew,5.1.5+dfsg1-2build2*
G04 #@! TF.CreationDate,2021-07-26T20:03:16+02:00*
G04 #@! TF.ProjectId,t100-dcmotor,74313030-2d64-4636-9d6f-746f722e6b69,rev?*
G04 #@! TF.SameCoordinates,Original*
G04 #@! TF.FileFunction,Paste,Top*
G04 #@! TF.FilePolarity,Positive*
%FSLAX46Y46*%
G04 Gerber Fmt 4.6, Leading zero omitted, Abs format (unit mm)*
G04 Created by KiCad (PCBNEW 5.1.5+dfsg1-2build2) date 2021-07-26 20:03:16*
%MOMM*%
%LPD*%
G04 APERTURE LIST*
%ADD10R,1.567800X2.101200*%
%ADD11R,1.505000X0.802000*%
%ADD12C,0.100000*%
%ADD13R,0.900000X0.800000*%
%ADD14R,0.800000X0.900000*%
G04 APERTURE END LIST*
D10*
X95000000Y-110000000D03*
D11*
X92502500Y-111905000D03*
X92502500Y-110635000D03*
X92502500Y-109365000D03*
X92502500Y-108095000D03*
X97497500Y-108095000D03*
X97497500Y-109365000D03*
X97497500Y-110635000D03*
X97497500Y-111905000D03*
D12*
G36*
X94862004Y-114776204D02*
G01*
X94886273Y-114779804D01*
X94910071Y-114785765D01*
X94933171Y-114794030D01*
X94955349Y-114804520D01*
X94976393Y-114817133D01*
X94996098Y-114831747D01*
X95014277Y-114848223D01*
X95030753Y-114866402D01*
X95045367Y-114886107D01*
X95057980Y-114907151D01*
X95068470Y-114929329D01*
X95076735Y-114952429D01*
X95082696Y-114976227D01*
X95086296Y-115000496D01*
X95087500Y-115025000D01*
X95087500Y-115975000D01*
X95086296Y-115999504D01*
X95082696Y-116023773D01*
X95076735Y-116047571D01*
X95068470Y-116070671D01*
X95057980Y-116092849D01*
X95045367Y-116113893D01*
X95030753Y-116133598D01*
X95014277Y-116151777D01*
X94996098Y-116168253D01*
X94976393Y-116182867D01*
X94955349Y-116195480D01*
X94933171Y-116205970D01*
X94910071Y-116214235D01*
X94886273Y-116220196D01*
X94862004Y-116223796D01*
X94837500Y-116225000D01*
X94162500Y-116225000D01*
X94137996Y-116223796D01*
X94113727Y-116220196D01*
X94089929Y-116214235D01*
X94066829Y-116205970D01*
X94044651Y-116195480D01*
X94023607Y-116182867D01*
X94003902Y-116168253D01*
X93985723Y-116151777D01*
X93969247Y-116133598D01*
X93954633Y-116113893D01*
X93942020Y-116092849D01*
X93931530Y-116070671D01*
X93923265Y-116047571D01*
X93917304Y-116023773D01*
X93913704Y-115999504D01*
X93912500Y-115975000D01*
X93912500Y-115025000D01*
X93913704Y-115000496D01*
X93917304Y-114976227D01*
X93923265Y-114952429D01*
X93931530Y-114929329D01*
X93942020Y-114907151D01*
X93954633Y-114886107D01*
X93969247Y-114866402D01*
X93985723Y-114848223D01*
X94003902Y-114831747D01*
X94023607Y-114817133D01*
X94044651Y-114804520D01*
X94066829Y-114794030D01*
X94089929Y-114785765D01*
X94113727Y-114779804D01*
X94137996Y-114776204D01*
X94162500Y-114775000D01*
X94837500Y-114775000D01*
X94862004Y-114776204D01*
G37*
G36*
X96937004Y-114776204D02*
G01*
X96961273Y-114779804D01*
X96985071Y-114785765D01*
X97008171Y-114794030D01*
X97030349Y-114804520D01*
X97051393Y-114817133D01*
X97071098Y-114831747D01*
X97089277Y-114848223D01*
X97105753Y-114866402D01*
X97120367Y-114886107D01*
X97132980Y-114907151D01*
X97143470Y-114929329D01*
X97151735Y-114952429D01*
X97157696Y-114976227D01*
X97161296Y-115000496D01*
X97162500Y-115025000D01*
X97162500Y-115975000D01*
X97161296Y-115999504D01*
X97157696Y-116023773D01*
X97151735Y-116047571D01*
X97143470Y-116070671D01*
X97132980Y-116092849D01*
X97120367Y-116113893D01*
X97105753Y-116133598D01*
X97089277Y-116151777D01*
X97071098Y-116168253D01*
X97051393Y-116182867D01*
X97030349Y-116195480D01*
X97008171Y-116205970D01*
X96985071Y-116214235D01*
X96961273Y-116220196D01*
X96937004Y-116223796D01*
X96912500Y-116225000D01*
X96237500Y-116225000D01*
X96212996Y-116223796D01*
X96188727Y-116220196D01*
X96164929Y-116214235D01*
X96141829Y-116205970D01*
X96119651Y-116195480D01*
X96098607Y-116182867D01*
X96078902Y-116168253D01*
X96060723Y-116151777D01*
X96044247Y-116133598D01*
X96029633Y-116113893D01*
X96017020Y-116092849D01*
X96006530Y-116070671D01*
X95998265Y-116047571D01*
X95992304Y-116023773D01*
X95988704Y-115999504D01*
X95987500Y-115975000D01*
X95987500Y-115025000D01*
X95988704Y-115000496D01*
X95992304Y-114976227D01*
X95998265Y-114952429D01*
X96006530Y-114929329D01*
X96017020Y-114907151D01*
X96029633Y-114886107D01*
X96044247Y-114866402D01*
X96060723Y-114848223D01*
X96078902Y-114831747D01*
X96098607Y-114817133D01*
X96119651Y-114804520D01*
X96141829Y-114794030D01*
X96164929Y-114785765D01*
X96188727Y-114779804D01*
X96212996Y-114776204D01*
X96237500Y-114775000D01*
X96912500Y-114775000D01*
X96937004Y-114776204D01*
G37*
G36*
X90899504Y-114776204D02*
G01*
X90923773Y-114779804D01*
X90947571Y-114785765D01*
X90970671Y-114794030D01*
X90992849Y-114804520D01*
X91013893Y-114817133D01*
X91033598Y-114831747D01*
X91051777Y-114848223D01*
X91068253Y-114866402D01*
X91082867Y-114886107D01*
X91095480Y-114907151D01*
X91105970Y-114929329D01*
X91114235Y-114952429D01*
X91120196Y-114976227D01*
X91123796Y-115000496D01*
X91125000Y-115025000D01*
X91125000Y-115975000D01*
X91123796Y-115999504D01*
X91120196Y-116023773D01*
X91114235Y-116047571D01*
X91105970Y-116070671D01*
X91095480Y-116092849D01*
X91082867Y-116113893D01*
X91068253Y-116133598D01*
X91051777Y-116151777D01*
X91033598Y-116168253D01*
X91013893Y-116182867D01*
X90992849Y-116195480D01*
X90970671Y-116205970D01*
X90947571Y-116214235D01*
X90923773Y-116220196D01*
X90899504Y-116223796D01*
X90875000Y-116225000D01*
X90200000Y-116225000D01*
X90175496Y-116223796D01*
X90151227Y-116220196D01*
X90127429Y-116214235D01*
X90104329Y-116205970D01*
X90082151Y-116195480D01*
X90061107Y-116182867D01*
X90041402Y-116168253D01*
X90023223Y-116151777D01*
X90006747Y-116133598D01*
X89992133Y-116113893D01*
X89979520Y-116092849D01*
X89969030Y-116070671D01*
X89960765Y-116047571D01*
X89954804Y-116023773D01*
X89951204Y-115999504D01*
X89950000Y-115975000D01*
X89950000Y-115025000D01*
X89951204Y-115000496D01*
X89954804Y-114976227D01*
X89960765Y-114952429D01*
X89969030Y-114929329D01*
X89979520Y-114907151D01*
X89992133Y-114886107D01*
X90006747Y-114866402D01*
X90023223Y-114848223D01*
X90041402Y-114831747D01*
X90061107Y-114817133D01*
X90082151Y-114804520D01*
X90104329Y-114794030D01*
X90127429Y-114785765D01*
X90151227Y-114779804D01*
X90175496Y-114776204D01*
X90200000Y-114775000D01*
X90875000Y-114775000D01*
X90899504Y-114776204D01*
G37*
G36*
X88824504Y-114776204D02*
G01*
X88848773Y-114779804D01*
X88872571Y-114785765D01*
X88895671Y-114794030D01*
X88917849Y-114804520D01*
X88938893Y-114817133D01*
X88958598Y-114831747D01*
X88976777Y-114848223D01*
X88993253Y-114866402D01*
X89007867Y-114886107D01*
X89020480Y-114907151D01*
X89030970Y-114929329D01*
X89039235Y-114952429D01*
X89045196Y-114976227D01*
X89048796Y-115000496D01*
X89050000Y-115025000D01*
X89050000Y-115975000D01*
X89048796Y-115999504D01*
X89045196Y-116023773D01*
X89039235Y-116047571D01*
X89030970Y-116070671D01*
X89020480Y-116092849D01*
X89007867Y-116113893D01*
X88993253Y-116133598D01*
X88976777Y-116151777D01*
X88958598Y-116168253D01*
X88938893Y-116182867D01*
X88917849Y-116195480D01*
X88895671Y-116205970D01*
X88872571Y-116214235D01*
X88848773Y-116220196D01*
X88824504Y-116223796D01*
X88800000Y-116225000D01*
X88125000Y-116225000D01*
X88100496Y-116223796D01*
X88076227Y-116220196D01*
X88052429Y-116214235D01*
X88029329Y-116205970D01*
X88007151Y-116195480D01*
X87986107Y-116182867D01*
X87966402Y-116168253D01*
X87948223Y-116151777D01*
X87931747Y-116133598D01*
X87917133Y-116113893D01*
X87904520Y-116092849D01*
X87894030Y-116070671D01*
X87885765Y-116047571D01*
X87879804Y-116023773D01*
X87876204Y-115999504D01*
X87875000Y-115975000D01*
X87875000Y-115025000D01*
X87876204Y-115000496D01*
X87879804Y-114976227D01*
X87885765Y-114952429D01*
X87894030Y-114929329D01*
X87904520Y-114907151D01*
X87917133Y-114886107D01*
X87931747Y-114866402D01*
X87948223Y-114848223D01*
X87966402Y-114831747D01*
X87986107Y-114817133D01*
X88007151Y-114804520D01*
X88029329Y-114794030D01*
X88052429Y-114785765D01*
X88076227Y-114779804D01*
X88100496Y-114776204D01*
X88125000Y-114775000D01*
X88800000Y-114775000D01*
X88824504Y-114776204D01*
G37*
G36*
X95374505Y-70301204D02*
G01*
X95398773Y-70304804D01*
X95422572Y-70310765D01*
X95445671Y-70319030D01*
X95467850Y-70329520D01*
X95488893Y-70342132D01*
X95508599Y-70356747D01*
X95526777Y-70373223D01*
X95543253Y-70391401D01*
X95557868Y-70411107D01*
X95570480Y-70432150D01*
X95580970Y-70454329D01*
X95589235Y-70477428D01*
X95595196Y-70501227D01*
X95598796Y-70525495D01*
X95600000Y-70549999D01*
X95600000Y-71450001D01*
X95598796Y-71474505D01*
X95595196Y-71498773D01*
X95589235Y-71522572D01*
X95580970Y-71545671D01*
X95570480Y-71567850D01*
X95557868Y-71588893D01*
X95543253Y-71608599D01*
X95526777Y-71626777D01*
X95508599Y-71643253D01*
X95488893Y-71657868D01*
X95467850Y-71670480D01*
X95445671Y-71680970D01*
X95422572Y-71689235D01*
X95398773Y-71695196D01*
X95374505Y-71698796D01*
X95350001Y-71700000D01*
X94649999Y-71700000D01*
X94625495Y-71698796D01*
X94601227Y-71695196D01*
X94577428Y-71689235D01*
X94554329Y-71680970D01*
X94532150Y-71670480D01*
X94511107Y-71657868D01*
X94491401Y-71643253D01*
X94473223Y-71626777D01*
X94456747Y-71608599D01*
X94442132Y-71588893D01*
X94429520Y-71567850D01*
X94419030Y-71545671D01*
X94410765Y-71522572D01*
X94404804Y-71498773D01*
X94401204Y-71474505D01*
X94400000Y-71450001D01*
X94400000Y-70549999D01*
X94401204Y-70525495D01*
X94404804Y-70501227D01*
X94410765Y-70477428D01*
X94419030Y-70454329D01*
X94429520Y-70432150D01*
X94442132Y-70411107D01*
X94456747Y-70391401D01*
X94473223Y-70373223D01*
X94491401Y-70356747D01*
X94511107Y-70342132D01*
X94532150Y-70329520D01*
X94554329Y-70319030D01*
X94577428Y-70310765D01*
X94601227Y-70304804D01*
X94625495Y-70301204D01*
X94649999Y-70300000D01*
X95350001Y-70300000D01*
X95374505Y-70301204D01*
G37*
G36*
X93374505Y-70301204D02*
G01*
X93398773Y-70304804D01*
X93422572Y-70310765D01*
X93445671Y-70319030D01*
X93467850Y-70329520D01*
X93488893Y-70342132D01*
X93508599Y-70356747D01*
X93526777Y-70373223D01*
X93543253Y-70391401D01*
X93557868Y-70411107D01*
X93570480Y-70432150D01*
X93580970Y-70454329D01*
X93589235Y-70477428D01*
X93595196Y-70501227D01*
X93598796Y-70525495D01*
X93600000Y-70549999D01*
X93600000Y-71450001D01*
X93598796Y-71474505D01*
X93595196Y-71498773D01*
X93589235Y-71522572D01*
X93580970Y-71545671D01*
X93570480Y-71567850D01*
X93557868Y-71588893D01*
X93543253Y-71608599D01*
X93526777Y-71626777D01*
X93508599Y-71643253D01*
X93488893Y-71657868D01*
X93467850Y-71670480D01*
X93445671Y-71680970D01*
X93422572Y-71689235D01*
X93398773Y-71695196D01*
X93374505Y-71698796D01*
X93350001Y-71700000D01*
X92649999Y-71700000D01*
X92625495Y-71698796D01*
X92601227Y-71695196D01*
X92577428Y-71689235D01*
X92554329Y-71680970D01*
X92532150Y-71670480D01*
X92511107Y-71657868D01*
X92491401Y-71643253D01*
X92473223Y-71626777D01*
X92456747Y-71608599D01*
X92442132Y-71588893D01*
X92429520Y-71567850D01*
X92419030Y-71545671D01*
X92410765Y-71522572D01*
X92404804Y-71498773D01*
X92401204Y-71474505D01*
X92400000Y-71450001D01*
X92400000Y-70549999D01*
X92401204Y-70525495D01*
X92404804Y-70501227D01*
X92410765Y-70477428D01*
X92419030Y-70454329D01*
X92429520Y-70432150D01*
X92442132Y-70411107D01*
X92456747Y-70391401D01*
X92473223Y-70373223D01*
X92491401Y-70356747D01*
X92511107Y-70342132D01*
X92532150Y-70329520D01*
X92554329Y-70319030D01*
X92577428Y-70310765D01*
X92601227Y-70304804D01*
X92625495Y-70301204D01*
X92649999Y-70300000D01*
X93350001Y-70300000D01*
X93374505Y-70301204D01*
G37*
G36*
X95374505Y-73801204D02*
G01*
X95398773Y-73804804D01*
X95422572Y-73810765D01*
X95445671Y-73819030D01*
X95467850Y-73829520D01*
X95488893Y-73842132D01*
X95508599Y-73856747D01*
X95526777Y-73873223D01*
X95543253Y-73891401D01*
X95557868Y-73911107D01*
X95570480Y-73932150D01*
X95580970Y-73954329D01*
X95589235Y-73977428D01*
X95595196Y-74001227D01*
X95598796Y-74025495D01*
X95600000Y-74049999D01*
X95600000Y-74950001D01*
X95598796Y-74974505D01*
X95595196Y-74998773D01*
X95589235Y-75022572D01*
X95580970Y-75045671D01*
X95570480Y-75067850D01*
X95557868Y-75088893D01*
X95543253Y-75108599D01*
X95526777Y-75126777D01*
X95508599Y-75143253D01*
X95488893Y-75157868D01*
X95467850Y-75170480D01*
X95445671Y-75180970D01*
X95422572Y-75189235D01*
X95398773Y-75195196D01*
X95374505Y-75198796D01*
X95350001Y-75200000D01*
X94649999Y-75200000D01*
X94625495Y-75198796D01*
X94601227Y-75195196D01*
X94577428Y-75189235D01*
X94554329Y-75180970D01*
X94532150Y-75170480D01*
X94511107Y-75157868D01*
X94491401Y-75143253D01*
X94473223Y-75126777D01*
X94456747Y-75108599D01*
X94442132Y-75088893D01*
X94429520Y-75067850D01*
X94419030Y-75045671D01*
X94410765Y-75022572D01*
X94404804Y-74998773D01*
X94401204Y-74974505D01*
X94400000Y-74950001D01*
X94400000Y-74049999D01*
X94401204Y-74025495D01*
X94404804Y-74001227D01*
X94410765Y-73977428D01*
X94419030Y-73954329D01*
X94429520Y-73932150D01*
X94442132Y-73911107D01*
X94456747Y-73891401D01*
X94473223Y-73873223D01*
X94491401Y-73856747D01*
X94511107Y-73842132D01*
X94532150Y-73829520D01*
X94554329Y-73819030D01*
X94577428Y-73810765D01*
X94601227Y-73804804D01*
X94625495Y-73801204D01*
X94649999Y-73800000D01*
X95350001Y-73800000D01*
X95374505Y-73801204D01*
G37*
G36*
X93374505Y-73801204D02*
G01*
X93398773Y-73804804D01*
X93422572Y-73810765D01*
X93445671Y-73819030D01*
X93467850Y-73829520D01*
X93488893Y-73842132D01*
X93508599Y-73856747D01*
X93526777Y-73873223D01*
X93543253Y-73891401D01*
X93557868Y-73911107D01*
X93570480Y-73932150D01*
X93580970Y-73954329D01*
X93589235Y-73977428D01*
X93595196Y-74001227D01*
X93598796Y-74025495D01*
X93600000Y-74049999D01*
X93600000Y-74950001D01*
X93598796Y-74974505D01*
X93595196Y-74998773D01*
X93589235Y-75022572D01*
X93580970Y-75045671D01*
X93570480Y-75067850D01*
X93557868Y-75088893D01*
X93543253Y-75108599D01*
X93526777Y-75126777D01*
X93508599Y-75143253D01*
X93488893Y-75157868D01*
X93467850Y-75170480D01*
X93445671Y-75180970D01*
X93422572Y-75189235D01*
X93398773Y-75195196D01*
X93374505Y-75198796D01*
X93350001Y-75200000D01*
X92649999Y-75200000D01*
X92625495Y-75198796D01*
X92601227Y-75195196D01*
X92577428Y-75189235D01*
X92554329Y-75180970D01*
X92532150Y-75170480D01*
X92511107Y-75157868D01*
X92491401Y-75143253D01*
X92473223Y-75126777D01*
X92456747Y-75108599D01*
X92442132Y-75088893D01*
X92429520Y-75067850D01*
X92419030Y-75045671D01*
X92410765Y-75022572D01*
X92404804Y-74998773D01*
X92401204Y-74974505D01*
X92400000Y-74950001D01*
X92400000Y-74049999D01*
X92401204Y-74025495D01*
X92404804Y-74001227D01*
X92410765Y-73977428D01*
X92419030Y-73954329D01*
X92429520Y-73932150D01*
X92442132Y-73911107D01*
X92456747Y-73891401D01*
X92473223Y-73873223D01*
X92491401Y-73856747D01*
X92511107Y-73842132D01*
X92532150Y-73829520D01*
X92554329Y-73819030D01*
X92577428Y-73810765D01*
X92601227Y-73804804D01*
X92625495Y-73801204D01*
X92649999Y-73800000D01*
X93350001Y-73800000D01*
X93374505Y-73801204D01*
G37*
G36*
X115474505Y-111401204D02*
G01*
X115498773Y-111404804D01*
X115522572Y-111410765D01*
X115545671Y-111419030D01*
X115567850Y-111429520D01*
X115588893Y-111442132D01*
X115608599Y-111456747D01*
X115626777Y-111473223D01*
X115643253Y-111491401D01*
X115657868Y-111511107D01*
X115670480Y-111532150D01*
X115680970Y-111554329D01*
X115689235Y-111577428D01*
X115695196Y-111601227D01*
X115698796Y-111625495D01*
X115700000Y-111649999D01*
X115700000Y-112350001D01*
X115698796Y-112374505D01*
X115695196Y-112398773D01*
X115689235Y-112422572D01*
X115680970Y-112445671D01*
X115670480Y-112467850D01*
X115657868Y-112488893D01*
X115643253Y-112508599D01*
X115626777Y-112526777D01*
X115608599Y-112543253D01*
X115588893Y-112557868D01*
X115567850Y-112570480D01*
X115545671Y-112580970D01*
X115522572Y-112589235D01*
X115498773Y-112595196D01*
X115474505Y-112598796D01*
X115450001Y-112600000D01*
X114549999Y-112600000D01*
X114525495Y-112598796D01*
X114501227Y-112595196D01*
X114477428Y-112589235D01*
X114454329Y-112580970D01*
X114432150Y-112570480D01*
X114411107Y-112557868D01*
X114391401Y-112543253D01*
X114373223Y-112526777D01*
X114356747Y-112508599D01*
X114342132Y-112488893D01*
X114329520Y-112467850D01*
X114319030Y-112445671D01*
X114310765Y-112422572D01*
X114304804Y-112398773D01*
X114301204Y-112374505D01*
X114300000Y-112350001D01*
X114300000Y-111649999D01*
X114301204Y-111625495D01*
X114304804Y-111601227D01*
X114310765Y-111577428D01*
X114319030Y-111554329D01*
X114329520Y-111532150D01*
X114342132Y-111511107D01*
X114356747Y-111491401D01*
X114373223Y-111473223D01*
X114391401Y-111456747D01*
X114411107Y-111442132D01*
X114432150Y-111429520D01*
X114454329Y-111419030D01*
X114477428Y-111410765D01*
X114501227Y-111404804D01*
X114525495Y-111401204D01*
X114549999Y-111400000D01*
X115450001Y-111400000D01*
X115474505Y-111401204D01*
G37*
G36*
X115474505Y-113401204D02*
G01*
X115498773Y-113404804D01*
X115522572Y-113410765D01*
X115545671Y-113419030D01*
X115567850Y-113429520D01*
X115588893Y-113442132D01*
X115608599Y-113456747D01*
X115626777Y-113473223D01*
X115643253Y-113491401D01*
X115657868Y-113511107D01*
X115670480Y-113532150D01*
X115680970Y-113554329D01*
X115689235Y-113577428D01*
X115695196Y-113601227D01*
X115698796Y-113625495D01*
X115700000Y-113649999D01*
X115700000Y-114350001D01*
X115698796Y-114374505D01*
X115695196Y-114398773D01*
X115689235Y-114422572D01*
X115680970Y-114445671D01*
X115670480Y-114467850D01*
X115657868Y-114488893D01*
X115643253Y-114508599D01*
X115626777Y-114526777D01*
X115608599Y-114543253D01*
X115588893Y-114557868D01*
X115567850Y-114570480D01*
X115545671Y-114580970D01*
X115522572Y-114589235D01*
X115498773Y-114595196D01*
X115474505Y-114598796D01*
X115450001Y-114600000D01*
X114549999Y-114600000D01*
X114525495Y-114598796D01*
X114501227Y-114595196D01*
X114477428Y-114589235D01*
X114454329Y-114580970D01*
X114432150Y-114570480D01*
X114411107Y-114557868D01*
X114391401Y-114543253D01*
X114373223Y-114526777D01*
X114356747Y-114508599D01*
X114342132Y-114488893D01*
X114329520Y-114467850D01*
X114319030Y-114445671D01*
X114310765Y-114422572D01*
X114304804Y-114398773D01*
X114301204Y-114374505D01*
X114300000Y-114350001D01*
X114300000Y-113649999D01*
X114301204Y-113625495D01*
X114304804Y-113601227D01*
X114310765Y-113577428D01*
X114319030Y-113554329D01*
X114329520Y-113532150D01*
X114342132Y-113511107D01*
X114356747Y-113491401D01*
X114373223Y-113473223D01*
X114391401Y-113456747D01*
X114411107Y-113442132D01*
X114432150Y-113429520D01*
X114454329Y-113419030D01*
X114477428Y-113410765D01*
X114501227Y-113404804D01*
X114525495Y-113401204D01*
X114549999Y-113400000D01*
X115450001Y-113400000D01*
X115474505Y-113401204D01*
G37*
G36*
X85474505Y-110901204D02*
G01*
X85498773Y-110904804D01*
X85522572Y-110910765D01*
X85545671Y-110919030D01*
X85567850Y-110929520D01*
X85588893Y-110942132D01*
X85608599Y-110956747D01*
X85626777Y-110973223D01*
X85643253Y-110991401D01*
X85657868Y-111011107D01*
X85670480Y-111032150D01*
X85680970Y-111054329D01*
X85689235Y-111077428D01*
X85695196Y-111101227D01*
X85698796Y-111125495D01*
X85700000Y-111149999D01*
X85700000Y-111850001D01*
X85698796Y-111874505D01*
X85695196Y-111898773D01*
X85689235Y-111922572D01*
X85680970Y-111945671D01*
X85670480Y-111967850D01*
X85657868Y-111988893D01*
X85643253Y-112008599D01*
X85626777Y-112026777D01*
X85608599Y-112043253D01*
X85588893Y-112057868D01*
X85567850Y-112070480D01*
X85545671Y-112080970D01*
X85522572Y-112089235D01*
X85498773Y-112095196D01*
X85474505Y-112098796D01*
X85450001Y-112100000D01*
X84549999Y-112100000D01*
X84525495Y-112098796D01*
X84501227Y-112095196D01*
X84477428Y-112089235D01*
X84454329Y-112080970D01*
X84432150Y-112070480D01*
X84411107Y-112057868D01*
X84391401Y-112043253D01*
X84373223Y-112026777D01*
X84356747Y-112008599D01*
X84342132Y-111988893D01*
X84329520Y-111967850D01*
X84319030Y-111945671D01*
X84310765Y-111922572D01*
X84304804Y-111898773D01*
X84301204Y-111874505D01*
X84300000Y-111850001D01*
X84300000Y-111149999D01*
X84301204Y-111125495D01*
X84304804Y-111101227D01*
X84310765Y-111077428D01*
X84319030Y-111054329D01*
X84329520Y-111032150D01*
X84342132Y-111011107D01*
X84356747Y-110991401D01*
X84373223Y-110973223D01*
X84391401Y-110956747D01*
X84411107Y-110942132D01*
X84432150Y-110929520D01*
X84454329Y-110919030D01*
X84477428Y-110910765D01*
X84501227Y-110904804D01*
X84525495Y-110901204D01*
X84549999Y-110900000D01*
X85450001Y-110900000D01*
X85474505Y-110901204D01*
G37*
G36*
X85474505Y-112901204D02*
G01*
X85498773Y-112904804D01*
X85522572Y-112910765D01*
X85545671Y-112919030D01*
X85567850Y-112929520D01*
X85588893Y-112942132D01*
X85608599Y-112956747D01*
X85626777Y-112973223D01*
X85643253Y-112991401D01*
X85657868Y-113011107D01*
X85670480Y-113032150D01*
X85680970Y-113054329D01*
X85689235Y-113077428D01*
X85695196Y-113101227D01*
X85698796Y-113125495D01*
X85700000Y-113149999D01*
X85700000Y-113850001D01*
X85698796Y-113874505D01*
X85695196Y-113898773D01*
X85689235Y-113922572D01*
X85680970Y-113945671D01*
X85670480Y-113967850D01*
X85657868Y-113988893D01*
X85643253Y-114008599D01*
X85626777Y-114026777D01*
X85608599Y-114043253D01*
X85588893Y-114057868D01*
X85567850Y-114070480D01*
X85545671Y-114080970D01*
X85522572Y-114089235D01*
X85498773Y-114095196D01*
X85474505Y-114098796D01*
X85450001Y-114100000D01*
X84549999Y-114100000D01*
X84525495Y-114098796D01*
X84501227Y-114095196D01*
X84477428Y-114089235D01*
X84454329Y-114080970D01*
X84432150Y-114070480D01*
X84411107Y-114057868D01*
X84391401Y-114043253D01*
X84373223Y-114026777D01*
X84356747Y-114008599D01*
X84342132Y-113988893D01*
X84329520Y-113967850D01*
X84319030Y-113945671D01*
X84310765Y-113922572D01*
X84304804Y-113898773D01*
X84301204Y-113874505D01*
X84300000Y-113850001D01*
X84300000Y-113149999D01*
X84301204Y-113125495D01*
X84304804Y-113101227D01*
X84310765Y-113077428D01*
X84319030Y-113054329D01*
X84329520Y-113032150D01*
X84342132Y-113011107D01*
X84356747Y-112991401D01*
X84373223Y-112973223D01*
X84391401Y-112956747D01*
X84411107Y-112942132D01*
X84432150Y-112929520D01*
X84454329Y-112919030D01*
X84477428Y-112910765D01*
X84501227Y-112904804D01*
X84525495Y-112901204D01*
X84549999Y-112900000D01*
X85450001Y-112900000D01*
X85474505Y-112901204D01*
G37*
G36*
X113374505Y-102801204D02*
G01*
X113398773Y-102804804D01*
X113422572Y-102810765D01*
X113445671Y-102819030D01*
X113467850Y-102829520D01*
X113488893Y-102842132D01*
X113508599Y-102856747D01*
X113526777Y-102873223D01*
X113543253Y-102891401D01*
X113557868Y-102911107D01*
X113570480Y-102932150D01*
X113580970Y-102954329D01*
X113589235Y-102977428D01*
X113595196Y-103001227D01*
X113598796Y-103025495D01*
X113600000Y-103049999D01*
X113600000Y-103950001D01*
X113598796Y-103974505D01*
X113595196Y-103998773D01*
X113589235Y-104022572D01*
X113580970Y-104045671D01*
X113570480Y-104067850D01*
X113557868Y-104088893D01*
X113543253Y-104108599D01*
X113526777Y-104126777D01*
X113508599Y-104143253D01*
X113488893Y-104157868D01*
X113467850Y-104170480D01*
X113445671Y-104180970D01*
X113422572Y-104189235D01*
X113398773Y-104195196D01*
X113374505Y-104198796D01*
X113350001Y-104200000D01*
X112649999Y-104200000D01*
X112625495Y-104198796D01*
X112601227Y-104195196D01*
X112577428Y-104189235D01*
X112554329Y-104180970D01*
X112532150Y-104170480D01*
X112511107Y-104157868D01*
X112491401Y-104143253D01*
X112473223Y-104126777D01*
X112456747Y-104108599D01*
X112442132Y-104088893D01*
X112429520Y-104067850D01*
X112419030Y-104045671D01*
X112410765Y-104022572D01*
X112404804Y-103998773D01*
X112401204Y-103974505D01*
X112400000Y-103950001D01*
X112400000Y-103049999D01*
X112401204Y-103025495D01*
X112404804Y-103001227D01*
X112410765Y-102977428D01*
X112419030Y-102954329D01*
X112429520Y-102932150D01*
X112442132Y-102911107D01*
X112456747Y-102891401D01*
X112473223Y-102873223D01*
X112491401Y-102856747D01*
X112511107Y-102842132D01*
X112532150Y-102829520D01*
X112554329Y-102819030D01*
X112577428Y-102810765D01*
X112601227Y-102804804D01*
X112625495Y-102801204D01*
X112649999Y-102800000D01*
X113350001Y-102800000D01*
X113374505Y-102801204D01*
G37*
G36*
X115374505Y-102801204D02*
G01*
X115398773Y-102804804D01*
X115422572Y-102810765D01*
X115445671Y-102819030D01*
X115467850Y-102829520D01*
X115488893Y-102842132D01*
X115508599Y-102856747D01*
X115526777Y-102873223D01*
X115543253Y-102891401D01*
X115557868Y-102911107D01*
X115570480Y-102932150D01*
X115580970Y-102954329D01*
X115589235Y-102977428D01*
X115595196Y-103001227D01*
X115598796Y-103025495D01*
X115600000Y-103049999D01*
X115600000Y-103950001D01*
X115598796Y-103974505D01*
X115595196Y-103998773D01*
X115589235Y-104022572D01*
X115580970Y-104045671D01*
X115570480Y-104067850D01*
X115557868Y-104088893D01*
X115543253Y-104108599D01*
X115526777Y-104126777D01*
X115508599Y-104143253D01*
X115488893Y-104157868D01*
X115467850Y-104170480D01*
X115445671Y-104180970D01*
X115422572Y-104189235D01*
X115398773Y-104195196D01*
X115374505Y-104198796D01*
X115350001Y-104200000D01*
X114649999Y-104200000D01*
X114625495Y-104198796D01*
X114601227Y-104195196D01*
X114577428Y-104189235D01*
X114554329Y-104180970D01*
X114532150Y-104170480D01*
X114511107Y-104157868D01*
X114491401Y-104143253D01*
X114473223Y-104126777D01*
X114456747Y-104108599D01*
X114442132Y-104088893D01*
X114429520Y-104067850D01*
X114419030Y-104045671D01*
X114410765Y-104022572D01*
X114404804Y-103998773D01*
X114401204Y-103974505D01*
X114400000Y-103950001D01*
X114400000Y-103049999D01*
X114401204Y-103025495D01*
X114404804Y-103001227D01*
X114410765Y-102977428D01*
X114419030Y-102954329D01*
X114429520Y-102932150D01*
X114442132Y-102911107D01*
X114456747Y-102891401D01*
X114473223Y-102873223D01*
X114491401Y-102856747D01*
X114511107Y-102842132D01*
X114532150Y-102829520D01*
X114554329Y-102819030D01*
X114577428Y-102810765D01*
X114601227Y-102804804D01*
X114625495Y-102801204D01*
X114649999Y-102800000D01*
X115350001Y-102800000D01*
X115374505Y-102801204D01*
G37*
G36*
X85474505Y-100401204D02*
G01*
X85498773Y-100404804D01*
X85522572Y-100410765D01*
X85545671Y-100419030D01*
X85567850Y-100429520D01*
X85588893Y-100442132D01*
X85608599Y-100456747D01*
X85626777Y-100473223D01*
X85643253Y-100491401D01*
X85657868Y-100511107D01*
X85670480Y-100532150D01*
X85680970Y-100554329D01*
X85689235Y-100577428D01*
X85695196Y-100601227D01*
X85698796Y-100625495D01*
X85700000Y-100649999D01*
X85700000Y-101350001D01*
X85698796Y-101374505D01*
X85695196Y-101398773D01*
X85689235Y-101422572D01*
X85680970Y-101445671D01*
X85670480Y-101467850D01*
X85657868Y-101488893D01*
X85643253Y-101508599D01*
X85626777Y-101526777D01*
X85608599Y-101543253D01*
X85588893Y-101557868D01*
X85567850Y-101570480D01*
X85545671Y-101580970D01*
X85522572Y-101589235D01*
X85498773Y-101595196D01*
X85474505Y-101598796D01*
X85450001Y-101600000D01*
X84549999Y-101600000D01*
X84525495Y-101598796D01*
X84501227Y-101595196D01*
X84477428Y-101589235D01*
X84454329Y-101580970D01*
X84432150Y-101570480D01*
X84411107Y-101557868D01*
X84391401Y-101543253D01*
X84373223Y-101526777D01*
X84356747Y-101508599D01*
X84342132Y-101488893D01*
X84329520Y-101467850D01*
X84319030Y-101445671D01*
X84310765Y-101422572D01*
X84304804Y-101398773D01*
X84301204Y-101374505D01*
X84300000Y-101350001D01*
X84300000Y-100649999D01*
X84301204Y-100625495D01*
X84304804Y-100601227D01*
X84310765Y-100577428D01*
X84319030Y-100554329D01*
X84329520Y-100532150D01*
X84342132Y-100511107D01*
X84356747Y-100491401D01*
X84373223Y-100473223D01*
X84391401Y-100456747D01*
X84411107Y-100442132D01*
X84432150Y-100429520D01*
X84454329Y-100419030D01*
X84477428Y-100410765D01*
X84501227Y-100404804D01*
X84525495Y-100401204D01*
X84549999Y-100400000D01*
X85450001Y-100400000D01*
X85474505Y-100401204D01*
G37*
G36*
X85474505Y-102401204D02*
G01*
X85498773Y-102404804D01*
X85522572Y-102410765D01*
X85545671Y-102419030D01*
X85567850Y-102429520D01*
X85588893Y-102442132D01*
X85608599Y-102456747D01*
X85626777Y-102473223D01*
X85643253Y-102491401D01*
X85657868Y-102511107D01*
X85670480Y-102532150D01*
X85680970Y-102554329D01*
X85689235Y-102577428D01*
X85695196Y-102601227D01*
X85698796Y-102625495D01*
X85700000Y-102649999D01*
X85700000Y-103350001D01*
X85698796Y-103374505D01*
X85695196Y-103398773D01*
X85689235Y-103422572D01*
X85680970Y-103445671D01*
X85670480Y-103467850D01*
X85657868Y-103488893D01*
X85643253Y-103508599D01*
X85626777Y-103526777D01*
X85608599Y-103543253D01*
X85588893Y-103557868D01*
X85567850Y-103570480D01*
X85545671Y-103580970D01*
X85522572Y-103589235D01*
X85498773Y-103595196D01*
X85474505Y-103598796D01*
X85450001Y-103600000D01*
X84549999Y-103600000D01*
X84525495Y-103598796D01*
X84501227Y-103595196D01*
X84477428Y-103589235D01*
X84454329Y-103580970D01*
X84432150Y-103570480D01*
X84411107Y-103557868D01*
X84391401Y-103543253D01*
X84373223Y-103526777D01*
X84356747Y-103508599D01*
X84342132Y-103488893D01*
X84329520Y-103467850D01*
X84319030Y-103445671D01*
X84310765Y-103422572D01*
X84304804Y-103398773D01*
X84301204Y-103374505D01*
X84300000Y-103350001D01*
X84300000Y-102649999D01*
X84301204Y-102625495D01*
X84304804Y-102601227D01*
X84310765Y-102577428D01*
X84319030Y-102554329D01*
X84329520Y-102532150D01*
X84342132Y-102511107D01*
X84356747Y-102491401D01*
X84373223Y-102473223D01*
X84391401Y-102456747D01*
X84411107Y-102442132D01*
X84432150Y-102429520D01*
X84454329Y-102419030D01*
X84477428Y-102410765D01*
X84501227Y-102404804D01*
X84525495Y-102401204D01*
X84549999Y-102400000D01*
X85450001Y-102400000D01*
X85474505Y-102401204D01*
G37*
G36*
X92974505Y-93401204D02*
G01*
X92998773Y-93404804D01*
X93022572Y-93410765D01*
X93045671Y-93419030D01*
X93067850Y-93429520D01*
X93088893Y-93442132D01*
X93108599Y-93456747D01*
X93126777Y-93473223D01*
X93143253Y-93491401D01*
X93157868Y-93511107D01*
X93170480Y-93532150D01*
X93180970Y-93554329D01*
X93189235Y-93577428D01*
X93195196Y-93601227D01*
X93198796Y-93625495D01*
X93200000Y-93649999D01*
X93200000Y-94350001D01*
X93198796Y-94374505D01*
X93195196Y-94398773D01*
X93189235Y-94422572D01*
X93180970Y-94445671D01*
X93170480Y-94467850D01*
X93157868Y-94488893D01*
X93143253Y-94508599D01*
X93126777Y-94526777D01*
X93108599Y-94543253D01*
X93088893Y-94557868D01*
X93067850Y-94570480D01*
X93045671Y-94580970D01*
X93022572Y-94589235D01*
X92998773Y-94595196D01*
X92974505Y-94598796D01*
X92950001Y-94600000D01*
X92049999Y-94600000D01*
X92025495Y-94598796D01*
X92001227Y-94595196D01*
X91977428Y-94589235D01*
X91954329Y-94580970D01*
X91932150Y-94570480D01*
X91911107Y-94557868D01*
X91891401Y-94543253D01*
X91873223Y-94526777D01*
X91856747Y-94508599D01*
X91842132Y-94488893D01*
X91829520Y-94467850D01*
X91819030Y-94445671D01*
X91810765Y-94422572D01*
X91804804Y-94398773D01*
X91801204Y-94374505D01*
X91800000Y-94350001D01*
X91800000Y-93649999D01*
X91801204Y-93625495D01*
X91804804Y-93601227D01*
X91810765Y-93577428D01*
X91819030Y-93554329D01*
X91829520Y-93532150D01*
X91842132Y-93511107D01*
X91856747Y-93491401D01*
X91873223Y-93473223D01*
X91891401Y-93456747D01*
X91911107Y-93442132D01*
X91932150Y-93429520D01*
X91954329Y-93419030D01*
X91977428Y-93410765D01*
X92001227Y-93404804D01*
X92025495Y-93401204D01*
X92049999Y-93400000D01*
X92950001Y-93400000D01*
X92974505Y-93401204D01*
G37*
G36*
X92974505Y-95401204D02*
G01*
X92998773Y-95404804D01*
X93022572Y-95410765D01*
X93045671Y-95419030D01*
X93067850Y-95429520D01*
X93088893Y-95442132D01*
X93108599Y-95456747D01*
X93126777Y-95473223D01*
X93143253Y-95491401D01*
X93157868Y-95511107D01*
X93170480Y-95532150D01*
X93180970Y-95554329D01*
X93189235Y-95577428D01*
X93195196Y-95601227D01*
X93198796Y-95625495D01*
X93200000Y-95649999D01*
X93200000Y-96350001D01*
X93198796Y-96374505D01*
X93195196Y-96398773D01*
X93189235Y-96422572D01*
X93180970Y-96445671D01*
X93170480Y-96467850D01*
X93157868Y-96488893D01*
X93143253Y-96508599D01*
X93126777Y-96526777D01*
X93108599Y-96543253D01*
X93088893Y-96557868D01*
X93067850Y-96570480D01*
X93045671Y-96580970D01*
X93022572Y-96589235D01*
X92998773Y-96595196D01*
X92974505Y-96598796D01*
X92950001Y-96600000D01*
X92049999Y-96600000D01*
X92025495Y-96598796D01*
X92001227Y-96595196D01*
X91977428Y-96589235D01*
X91954329Y-96580970D01*
X91932150Y-96570480D01*
X91911107Y-96557868D01*
X91891401Y-96543253D01*
X91873223Y-96526777D01*
X91856747Y-96508599D01*
X91842132Y-96488893D01*
X91829520Y-96467850D01*
X91819030Y-96445671D01*
X91810765Y-96422572D01*
X91804804Y-96398773D01*
X91801204Y-96374505D01*
X91800000Y-96350001D01*
X91800000Y-95649999D01*
X91801204Y-95625495D01*
X91804804Y-95601227D01*
X91810765Y-95577428D01*
X91819030Y-95554329D01*
X91829520Y-95532150D01*
X91842132Y-95511107D01*
X91856747Y-95491401D01*
X91873223Y-95473223D01*
X91891401Y-95456747D01*
X91911107Y-95442132D01*
X91932150Y-95429520D01*
X91954329Y-95419030D01*
X91977428Y-95410765D01*
X92001227Y-95404804D01*
X92025495Y-95401204D01*
X92049999Y-95400000D01*
X92950001Y-95400000D01*
X92974505Y-95401204D01*
G37*
G36*
X90474505Y-93401204D02*
G01*
X90498773Y-93404804D01*
X90522572Y-93410765D01*
X90545671Y-93419030D01*
X90567850Y-93429520D01*
X90588893Y-93442132D01*
X90608599Y-93456747D01*
X90626777Y-93473223D01*
X90643253Y-93491401D01*
X90657868Y-93511107D01*
X90670480Y-93532150D01*
X90680970Y-93554329D01*
X90689235Y-93577428D01*
X90695196Y-93601227D01*
X90698796Y-93625495D01*
X90700000Y-93649999D01*
X90700000Y-94350001D01*
X90698796Y-94374505D01*
X90695196Y-94398773D01*
X90689235Y-94422572D01*
X90680970Y-94445671D01*
X90670480Y-94467850D01*
X90657868Y-94488893D01*
X90643253Y-94508599D01*
X90626777Y-94526777D01*
X90608599Y-94543253D01*
X90588893Y-94557868D01*
X90567850Y-94570480D01*
X90545671Y-94580970D01*
X90522572Y-94589235D01*
X90498773Y-94595196D01*
X90474505Y-94598796D01*
X90450001Y-94600000D01*
X89549999Y-94600000D01*
X89525495Y-94598796D01*
X89501227Y-94595196D01*
X89477428Y-94589235D01*
X89454329Y-94580970D01*
X89432150Y-94570480D01*
X89411107Y-94557868D01*
X89391401Y-94543253D01*
X89373223Y-94526777D01*
X89356747Y-94508599D01*
X89342132Y-94488893D01*
X89329520Y-94467850D01*
X89319030Y-94445671D01*
X89310765Y-94422572D01*
X89304804Y-94398773D01*
X89301204Y-94374505D01*
X89300000Y-94350001D01*
X89300000Y-93649999D01*
X89301204Y-93625495D01*
X89304804Y-93601227D01*
X89310765Y-93577428D01*
X89319030Y-93554329D01*
X89329520Y-93532150D01*
X89342132Y-93511107D01*
X89356747Y-93491401D01*
X89373223Y-93473223D01*
X89391401Y-93456747D01*
X89411107Y-93442132D01*
X89432150Y-93429520D01*
X89454329Y-93419030D01*
X89477428Y-93410765D01*
X89501227Y-93404804D01*
X89525495Y-93401204D01*
X89549999Y-93400000D01*
X90450001Y-93400000D01*
X90474505Y-93401204D01*
G37*
G36*
X90474505Y-95401204D02*
G01*
X90498773Y-95404804D01*
X90522572Y-95410765D01*
X90545671Y-95419030D01*
X90567850Y-95429520D01*
X90588893Y-95442132D01*
X90608599Y-95456747D01*
X90626777Y-95473223D01*
X90643253Y-95491401D01*
X90657868Y-95511107D01*
X90670480Y-95532150D01*
X90680970Y-95554329D01*
X90689235Y-95577428D01*
X90695196Y-95601227D01*
X90698796Y-95625495D01*
X90700000Y-95649999D01*
X90700000Y-96350001D01*
X90698796Y-96374505D01*
X90695196Y-96398773D01*
X90689235Y-96422572D01*
X90680970Y-96445671D01*
X90670480Y-96467850D01*
X90657868Y-96488893D01*
X90643253Y-96508599D01*
X90626777Y-96526777D01*
X90608599Y-96543253D01*
X90588893Y-96557868D01*
X90567850Y-96570480D01*
X90545671Y-96580970D01*
X90522572Y-96589235D01*
X90498773Y-96595196D01*
X90474505Y-96598796D01*
X90450001Y-96600000D01*
X89549999Y-96600000D01*
X89525495Y-96598796D01*
X89501227Y-96595196D01*
X89477428Y-96589235D01*
X89454329Y-96580970D01*
X89432150Y-96570480D01*
X89411107Y-96557868D01*
X89391401Y-96543253D01*
X89373223Y-96526777D01*
X89356747Y-96508599D01*
X89342132Y-96488893D01*
X89329520Y-96467850D01*
X89319030Y-96445671D01*
X89310765Y-96422572D01*
X89304804Y-96398773D01*
X89301204Y-96374505D01*
X89300000Y-96350001D01*
X89300000Y-95649999D01*
X89301204Y-95625495D01*
X89304804Y-95601227D01*
X89310765Y-95577428D01*
X89319030Y-95554329D01*
X89329520Y-95532150D01*
X89342132Y-95511107D01*
X89356747Y-95491401D01*
X89373223Y-95473223D01*
X89391401Y-95456747D01*
X89411107Y-95442132D01*
X89432150Y-95429520D01*
X89454329Y-95419030D01*
X89477428Y-95410765D01*
X89501227Y-95404804D01*
X89525495Y-95401204D01*
X89549999Y-95400000D01*
X90450001Y-95400000D01*
X90474505Y-95401204D01*
G37*
G36*
X99374505Y-73801204D02*
G01*
X99398773Y-73804804D01*
X99422572Y-73810765D01*
X99445671Y-73819030D01*
X99467850Y-73829520D01*
X99488893Y-73842132D01*
X99508599Y-73856747D01*
X99526777Y-73873223D01*
X99543253Y-73891401D01*
X99557868Y-73911107D01*
X99570480Y-73932150D01*
X99580970Y-73954329D01*
X99589235Y-73977428D01*
X99595196Y-74001227D01*
X99598796Y-74025495D01*
X99600000Y-74049999D01*
X99600000Y-74950001D01*
X99598796Y-74974505D01*
X99595196Y-74998773D01*
X99589235Y-75022572D01*
X99580970Y-75045671D01*
X99570480Y-75067850D01*
X99557868Y-75088893D01*
X99543253Y-75108599D01*
X99526777Y-75126777D01*
X99508599Y-75143253D01*
X99488893Y-75157868D01*
X99467850Y-75170480D01*
X99445671Y-75180970D01*
X99422572Y-75189235D01*
X99398773Y-75195196D01*
X99374505Y-75198796D01*
X99350001Y-75200000D01*
X98649999Y-75200000D01*
X98625495Y-75198796D01*
X98601227Y-75195196D01*
X98577428Y-75189235D01*
X98554329Y-75180970D01*
X98532150Y-75170480D01*
X98511107Y-75157868D01*
X98491401Y-75143253D01*
X98473223Y-75126777D01*
X98456747Y-75108599D01*
X98442132Y-75088893D01*
X98429520Y-75067850D01*
X98419030Y-75045671D01*
X98410765Y-75022572D01*
X98404804Y-74998773D01*
X98401204Y-74974505D01*
X98400000Y-74950001D01*
X98400000Y-74049999D01*
X98401204Y-74025495D01*
X98404804Y-74001227D01*
X98410765Y-73977428D01*
X98419030Y-73954329D01*
X98429520Y-73932150D01*
X98442132Y-73911107D01*
X98456747Y-73891401D01*
X98473223Y-73873223D01*
X98491401Y-73856747D01*
X98511107Y-73842132D01*
X98532150Y-73829520D01*
X98554329Y-73819030D01*
X98577428Y-73810765D01*
X98601227Y-73804804D01*
X98625495Y-73801204D01*
X98649999Y-73800000D01*
X99350001Y-73800000D01*
X99374505Y-73801204D01*
G37*
G36*
X101374505Y-73801204D02*
G01*
X101398773Y-73804804D01*
X101422572Y-73810765D01*
X101445671Y-73819030D01*
X101467850Y-73829520D01*
X101488893Y-73842132D01*
X101508599Y-73856747D01*
X101526777Y-73873223D01*
X101543253Y-73891401D01*
X101557868Y-73911107D01*
X101570480Y-73932150D01*
X101580970Y-73954329D01*
X101589235Y-73977428D01*
X101595196Y-74001227D01*
X101598796Y-74025495D01*
X101600000Y-74049999D01*
X101600000Y-74950001D01*
X101598796Y-74974505D01*
X101595196Y-74998773D01*
X101589235Y-75022572D01*
X101580970Y-75045671D01*
X101570480Y-75067850D01*
X101557868Y-75088893D01*
X101543253Y-75108599D01*
X101526777Y-75126777D01*
X101508599Y-75143253D01*
X101488893Y-75157868D01*
X101467850Y-75170480D01*
X101445671Y-75180970D01*
X101422572Y-75189235D01*
X101398773Y-75195196D01*
X101374505Y-75198796D01*
X101350001Y-75200000D01*
X100649999Y-75200000D01*
X100625495Y-75198796D01*
X100601227Y-75195196D01*
X100577428Y-75189235D01*
X100554329Y-75180970D01*
X100532150Y-75170480D01*
X100511107Y-75157868D01*
X100491401Y-75143253D01*
X100473223Y-75126777D01*
X100456747Y-75108599D01*
X100442132Y-75088893D01*
X100429520Y-75067850D01*
X100419030Y-75045671D01*
X100410765Y-75022572D01*
X100404804Y-74998773D01*
X100401204Y-74974505D01*
X100400000Y-74950001D01*
X100400000Y-74049999D01*
X100401204Y-74025495D01*
X100404804Y-74001227D01*
X100410765Y-73977428D01*
X100419030Y-73954329D01*
X100429520Y-73932150D01*
X100442132Y-73911107D01*
X100456747Y-73891401D01*
X100473223Y-73873223D01*
X100491401Y-73856747D01*
X100511107Y-73842132D01*
X100532150Y-73829520D01*
X100554329Y-73819030D01*
X100577428Y-73810765D01*
X100601227Y-73804804D01*
X100625495Y-73801204D01*
X100649999Y-73800000D01*
X101350001Y-73800000D01*
X101374505Y-73801204D01*
G37*
G36*
X100999504Y-106876204D02*
G01*
X101023773Y-106879804D01*
X101047571Y-106885765D01*
X101070671Y-106894030D01*
X101092849Y-106904520D01*
X101113893Y-106917133D01*
X101133598Y-106931747D01*
X101151777Y-106948223D01*
X101168253Y-106966402D01*
X101182867Y-106986107D01*
X101195480Y-107007151D01*
X101205970Y-107029329D01*
X101214235Y-107052429D01*
X101220196Y-107076227D01*
X101223796Y-107100496D01*
X101225000Y-107125000D01*
X101225000Y-107800000D01*
X101223796Y-107824504D01*
X101220196Y-107848773D01*
X101214235Y-107872571D01*
X101205970Y-107895671D01*
X101195480Y-107917849D01*
X101182867Y-107938893D01*
X101168253Y-107958598D01*
X101151777Y-107976777D01*
X101133598Y-107993253D01*
X101113893Y-108007867D01*
X101092849Y-108020480D01*
X101070671Y-108030970D01*
X101047571Y-108039235D01*
X101023773Y-108045196D01*
X100999504Y-108048796D01*
X100975000Y-108050000D01*
X100025000Y-108050000D01*
X100000496Y-108048796D01*
X99976227Y-108045196D01*
X99952429Y-108039235D01*
X99929329Y-108030970D01*
X99907151Y-108020480D01*
X99886107Y-108007867D01*
X99866402Y-107993253D01*
X99848223Y-107976777D01*
X99831747Y-107958598D01*
X99817133Y-107938893D01*
X99804520Y-107917849D01*
X99794030Y-107895671D01*
X99785765Y-107872571D01*
X99779804Y-107848773D01*
X99776204Y-107824504D01*
X99775000Y-107800000D01*
X99775000Y-107125000D01*
X99776204Y-107100496D01*
X99779804Y-107076227D01*
X99785765Y-107052429D01*
X99794030Y-107029329D01*
X99804520Y-107007151D01*
X99817133Y-106986107D01*
X99831747Y-106966402D01*
X99848223Y-106948223D01*
X99866402Y-106931747D01*
X99886107Y-106917133D01*
X99907151Y-106904520D01*
X99929329Y-106894030D01*
X99952429Y-106885765D01*
X99976227Y-106879804D01*
X100000496Y-106876204D01*
X100025000Y-106875000D01*
X100975000Y-106875000D01*
X100999504Y-106876204D01*
G37*
G36*
X100999504Y-108951204D02*
G01*
X101023773Y-108954804D01*
X101047571Y-108960765D01*
X101070671Y-108969030D01*
X101092849Y-108979520D01*
X101113893Y-108992133D01*
X101133598Y-109006747D01*
X101151777Y-109023223D01*
X101168253Y-109041402D01*
X101182867Y-109061107D01*
X101195480Y-109082151D01*
X101205970Y-109104329D01*
X101214235Y-109127429D01*
X101220196Y-109151227D01*
X101223796Y-109175496D01*
X101225000Y-109200000D01*
X101225000Y-109875000D01*
X101223796Y-109899504D01*
X101220196Y-109923773D01*
X101214235Y-109947571D01*
X101205970Y-109970671D01*
X101195480Y-109992849D01*
X101182867Y-110013893D01*
X101168253Y-110033598D01*
X101151777Y-110051777D01*
X101133598Y-110068253D01*
X101113893Y-110082867D01*
X101092849Y-110095480D01*
X101070671Y-110105970D01*
X101047571Y-110114235D01*
X101023773Y-110120196D01*
X100999504Y-110123796D01*
X100975000Y-110125000D01*
X100025000Y-110125000D01*
X100000496Y-110123796D01*
X99976227Y-110120196D01*
X99952429Y-110114235D01*
X99929329Y-110105970D01*
X99907151Y-110095480D01*
X99886107Y-110082867D01*
X99866402Y-110068253D01*
X99848223Y-110051777D01*
X99831747Y-110033598D01*
X99817133Y-110013893D01*
X99804520Y-109992849D01*
X99794030Y-109970671D01*
X99785765Y-109947571D01*
X99779804Y-109923773D01*
X99776204Y-109899504D01*
X99775000Y-109875000D01*
X99775000Y-109200000D01*
X99776204Y-109175496D01*
X99779804Y-109151227D01*
X99785765Y-109127429D01*
X99794030Y-109104329D01*
X99804520Y-109082151D01*
X99817133Y-109061107D01*
X99831747Y-109041402D01*
X99848223Y-109023223D01*
X99866402Y-109006747D01*
X99886107Y-108992133D01*
X99907151Y-108979520D01*
X99929329Y-108969030D01*
X99952429Y-108960765D01*
X99976227Y-108954804D01*
X100000496Y-108951204D01*
X100025000Y-108950000D01*
X100975000Y-108950000D01*
X100999504Y-108951204D01*
G37*
G36*
X87824504Y-107276204D02*
G01*
X87848773Y-107279804D01*
X87872571Y-107285765D01*
X87895671Y-107294030D01*
X87917849Y-107304520D01*
X87938893Y-107317133D01*
X87958598Y-107331747D01*
X87976777Y-107348223D01*
X87993253Y-107366402D01*
X88007867Y-107386107D01*
X88020480Y-107407151D01*
X88030970Y-107429329D01*
X88039235Y-107452429D01*
X88045196Y-107476227D01*
X88048796Y-107500496D01*
X88050000Y-107525000D01*
X88050000Y-108475000D01*
X88048796Y-108499504D01*
X88045196Y-108523773D01*
X88039235Y-108547571D01*
X88030970Y-108570671D01*
X88020480Y-108592849D01*
X88007867Y-108613893D01*
X87993253Y-108633598D01*
X87976777Y-108651777D01*
X87958598Y-108668253D01*
X87938893Y-108682867D01*
X87917849Y-108695480D01*
X87895671Y-108705970D01*
X87872571Y-108714235D01*
X87848773Y-108720196D01*
X87824504Y-108723796D01*
X87800000Y-108725000D01*
X87125000Y-108725000D01*
X87100496Y-108723796D01*
X87076227Y-108720196D01*
X87052429Y-108714235D01*
X87029329Y-108705970D01*
X87007151Y-108695480D01*
X86986107Y-108682867D01*
X86966402Y-108668253D01*
X86948223Y-108651777D01*
X86931747Y-108633598D01*
X86917133Y-108613893D01*
X86904520Y-108592849D01*
X86894030Y-108570671D01*
X86885765Y-108547571D01*
X86879804Y-108523773D01*
X86876204Y-108499504D01*
X86875000Y-108475000D01*
X86875000Y-107525000D01*
X86876204Y-107500496D01*
X86879804Y-107476227D01*
X86885765Y-107452429D01*
X86894030Y-107429329D01*
X86904520Y-107407151D01*
X86917133Y-107386107D01*
X86931747Y-107366402D01*
X86948223Y-107348223D01*
X86966402Y-107331747D01*
X86986107Y-107317133D01*
X87007151Y-107304520D01*
X87029329Y-107294030D01*
X87052429Y-107285765D01*
X87076227Y-107279804D01*
X87100496Y-107276204D01*
X87125000Y-107275000D01*
X87800000Y-107275000D01*
X87824504Y-107276204D01*
G37*
G36*
X89899504Y-107276204D02*
G01*
X89923773Y-107279804D01*
X89947571Y-107285765D01*
X89970671Y-107294030D01*
X89992849Y-107304520D01*
X90013893Y-107317133D01*
X90033598Y-107331747D01*
X90051777Y-107348223D01*
X90068253Y-107366402D01*
X90082867Y-107386107D01*
X90095480Y-107407151D01*
X90105970Y-107429329D01*
X90114235Y-107452429D01*
X90120196Y-107476227D01*
X90123796Y-107500496D01*
X90125000Y-107525000D01*
X90125000Y-108475000D01*
X90123796Y-108499504D01*
X90120196Y-108523773D01*
X90114235Y-108547571D01*
X90105970Y-108570671D01*
X90095480Y-108592849D01*
X90082867Y-108613893D01*
X90068253Y-108633598D01*
X90051777Y-108651777D01*
X90033598Y-108668253D01*
X90013893Y-108682867D01*
X89992849Y-108695480D01*
X89970671Y-108705970D01*
X89947571Y-108714235D01*
X89923773Y-108720196D01*
X89899504Y-108723796D01*
X89875000Y-108725000D01*
X89200000Y-108725000D01*
X89175496Y-108723796D01*
X89151227Y-108720196D01*
X89127429Y-108714235D01*
X89104329Y-108705970D01*
X89082151Y-108695480D01*
X89061107Y-108682867D01*
X89041402Y-108668253D01*
X89023223Y-108651777D01*
X89006747Y-108633598D01*
X88992133Y-108613893D01*
X88979520Y-108592849D01*
X88969030Y-108570671D01*
X88960765Y-108547571D01*
X88954804Y-108523773D01*
X88951204Y-108499504D01*
X88950000Y-108475000D01*
X88950000Y-107525000D01*
X88951204Y-107500496D01*
X88954804Y-107476227D01*
X88960765Y-107452429D01*
X88969030Y-107429329D01*
X88979520Y-107407151D01*
X88992133Y-107386107D01*
X89006747Y-107366402D01*
X89023223Y-107348223D01*
X89041402Y-107331747D01*
X89061107Y-107317133D01*
X89082151Y-107304520D01*
X89104329Y-107294030D01*
X89127429Y-107285765D01*
X89151227Y-107279804D01*
X89175496Y-107276204D01*
X89200000Y-107275000D01*
X89875000Y-107275000D01*
X89899504Y-107276204D01*
G37*
G36*
X104749504Y-84201204D02*
G01*
X104773773Y-84204804D01*
X104797571Y-84210765D01*
X104820671Y-84219030D01*
X104842849Y-84229520D01*
X104863893Y-84242133D01*
X104883598Y-84256747D01*
X104901777Y-84273223D01*
X104918253Y-84291402D01*
X104932867Y-84311107D01*
X104945480Y-84332151D01*
X104955970Y-84354329D01*
X104964235Y-84377429D01*
X104970196Y-84401227D01*
X104973796Y-84425496D01*
X104975000Y-84450000D01*
X104975000Y-85125000D01*
X104973796Y-85149504D01*
X104970196Y-85173773D01*
X104964235Y-85197571D01*
X104955970Y-85220671D01*
X104945480Y-85242849D01*
X104932867Y-85263893D01*
X104918253Y-85283598D01*
X104901777Y-85301777D01*
X104883598Y-85318253D01*
X104863893Y-85332867D01*
X104842849Y-85345480D01*
X104820671Y-85355970D01*
X104797571Y-85364235D01*
X104773773Y-85370196D01*
X104749504Y-85373796D01*
X104725000Y-85375000D01*
X103775000Y-85375000D01*
X103750496Y-85373796D01*
X103726227Y-85370196D01*
X103702429Y-85364235D01*
X103679329Y-85355970D01*
X103657151Y-85345480D01*
X103636107Y-85332867D01*
X103616402Y-85318253D01*
X103598223Y-85301777D01*
X103581747Y-85283598D01*
X103567133Y-85263893D01*
X103554520Y-85242849D01*
X103544030Y-85220671D01*
X103535765Y-85197571D01*
X103529804Y-85173773D01*
X103526204Y-85149504D01*
X103525000Y-85125000D01*
X103525000Y-84450000D01*
X103526204Y-84425496D01*
X103529804Y-84401227D01*
X103535765Y-84377429D01*
X103544030Y-84354329D01*
X103554520Y-84332151D01*
X103567133Y-84311107D01*
X103581747Y-84291402D01*
X103598223Y-84273223D01*
X103616402Y-84256747D01*
X103636107Y-84242133D01*
X103657151Y-84229520D01*
X103679329Y-84219030D01*
X103702429Y-84210765D01*
X103726227Y-84204804D01*
X103750496Y-84201204D01*
X103775000Y-84200000D01*
X104725000Y-84200000D01*
X104749504Y-84201204D01*
G37*
G36*
X104749504Y-82126204D02*
G01*
X104773773Y-82129804D01*
X104797571Y-82135765D01*
X104820671Y-82144030D01*
X104842849Y-82154520D01*
X104863893Y-82167133D01*
X104883598Y-82181747D01*
X104901777Y-82198223D01*
X104918253Y-82216402D01*
X104932867Y-82236107D01*
X104945480Y-82257151D01*
X104955970Y-82279329D01*
X104964235Y-82302429D01*
X104970196Y-82326227D01*
X104973796Y-82350496D01*
X104975000Y-82375000D01*
X104975000Y-83050000D01*
X104973796Y-83074504D01*
X104970196Y-83098773D01*
X104964235Y-83122571D01*
X104955970Y-83145671D01*
X104945480Y-83167849D01*
X104932867Y-83188893D01*
X104918253Y-83208598D01*
X104901777Y-83226777D01*
X104883598Y-83243253D01*
X104863893Y-83257867D01*
X104842849Y-83270480D01*
X104820671Y-83280970D01*
X104797571Y-83289235D01*
X104773773Y-83295196D01*
X104749504Y-83298796D01*
X104725000Y-83300000D01*
X103775000Y-83300000D01*
X103750496Y-83298796D01*
X103726227Y-83295196D01*
X103702429Y-83289235D01*
X103679329Y-83280970D01*
X103657151Y-83270480D01*
X103636107Y-83257867D01*
X103616402Y-83243253D01*
X103598223Y-83226777D01*
X103581747Y-83208598D01*
X103567133Y-83188893D01*
X103554520Y-83167849D01*
X103544030Y-83145671D01*
X103535765Y-83122571D01*
X103529804Y-83098773D01*
X103526204Y-83074504D01*
X103525000Y-83050000D01*
X103525000Y-82375000D01*
X103526204Y-82350496D01*
X103529804Y-82326227D01*
X103535765Y-82302429D01*
X103544030Y-82279329D01*
X103554520Y-82257151D01*
X103567133Y-82236107D01*
X103581747Y-82216402D01*
X103598223Y-82198223D01*
X103616402Y-82181747D01*
X103636107Y-82167133D01*
X103657151Y-82154520D01*
X103679329Y-82144030D01*
X103702429Y-82135765D01*
X103726227Y-82129804D01*
X103750496Y-82126204D01*
X103775000Y-82125000D01*
X104725000Y-82125000D01*
X104749504Y-82126204D01*
G37*
G36*
X102539703Y-78985722D02*
G01*
X102554264Y-78987882D01*
X102568543Y-78991459D01*
X102582403Y-78996418D01*
X102595710Y-79002712D01*
X102608336Y-79010280D01*
X102620159Y-79019048D01*
X102631066Y-79028934D01*
X102640952Y-79039841D01*
X102649720Y-79051664D01*
X102657288Y-79064290D01*
X102663582Y-79077597D01*
X102668541Y-79091457D01*
X102672118Y-79105736D01*
X102674278Y-79120297D01*
X102675000Y-79135000D01*
X102675000Y-79435000D01*
X102674278Y-79449703D01*
X102672118Y-79464264D01*
X102668541Y-79478543D01*
X102663582Y-79492403D01*
X102657288Y-79505710D01*
X102649720Y-79518336D01*
X102640952Y-79530159D01*
X102631066Y-79541066D01*
X102620159Y-79550952D01*
X102608336Y-79559720D01*
X102595710Y-79567288D01*
X102582403Y-79573582D01*
X102568543Y-79578541D01*
X102554264Y-79582118D01*
X102539703Y-79584278D01*
X102525000Y-79585000D01*
X100775000Y-79585000D01*
X100760297Y-79584278D01*
X100745736Y-79582118D01*
X100731457Y-79578541D01*
X100717597Y-79573582D01*
X100704290Y-79567288D01*
X100691664Y-79559720D01*
X100679841Y-79550952D01*
X100668934Y-79541066D01*
X100659048Y-79530159D01*
X100650280Y-79518336D01*
X100642712Y-79505710D01*
X100636418Y-79492403D01*
X100631459Y-79478543D01*
X100627882Y-79464264D01*
X100625722Y-79449703D01*
X100625000Y-79435000D01*
X100625000Y-79135000D01*
X100625722Y-79120297D01*
X100627882Y-79105736D01*
X100631459Y-79091457D01*
X100636418Y-79077597D01*
X100642712Y-79064290D01*
X100650280Y-79051664D01*
X100659048Y-79039841D01*
X100668934Y-79028934D01*
X100679841Y-79019048D01*
X100691664Y-79010280D01*
X100704290Y-79002712D01*
X100717597Y-78996418D01*
X100731457Y-78991459D01*
X100745736Y-78987882D01*
X100760297Y-78985722D01*
X100775000Y-78985000D01*
X102525000Y-78985000D01*
X102539703Y-78985722D01*
G37*
G36*
X102539703Y-80255722D02*
G01*
X102554264Y-80257882D01*
X102568543Y-80261459D01*
X102582403Y-80266418D01*
X102595710Y-80272712D01*
X102608336Y-80280280D01*
X102620159Y-80289048D01*
X102631066Y-80298934D01*
X102640952Y-80309841D01*
X102649720Y-80321664D01*
X102657288Y-80334290D01*
X102663582Y-80347597D01*
X102668541Y-80361457D01*
X102672118Y-80375736D01*
X102674278Y-80390297D01*
X102675000Y-80405000D01*
X102675000Y-80705000D01*
X102674278Y-80719703D01*
X102672118Y-80734264D01*
X102668541Y-80748543D01*
X102663582Y-80762403D01*
X102657288Y-80775710D01*
X102649720Y-80788336D01*
X102640952Y-80800159D01*
X102631066Y-80811066D01*
X102620159Y-80820952D01*
X102608336Y-80829720D01*
X102595710Y-80837288D01*
X102582403Y-80843582D01*
X102568543Y-80848541D01*
X102554264Y-80852118D01*
X102539703Y-80854278D01*
X102525000Y-80855000D01*
X100775000Y-80855000D01*
X100760297Y-80854278D01*
X100745736Y-80852118D01*
X100731457Y-80848541D01*
X100717597Y-80843582D01*
X100704290Y-80837288D01*
X100691664Y-80829720D01*
X100679841Y-80820952D01*
X100668934Y-80811066D01*
X100659048Y-80800159D01*
X100650280Y-80788336D01*
X100642712Y-80775710D01*
X100636418Y-80762403D01*
X100631459Y-80748543D01*
X100627882Y-80734264D01*
X100625722Y-80719703D01*
X100625000Y-80705000D01*
X100625000Y-80405000D01*
X100625722Y-80390297D01*
X100627882Y-80375736D01*
X100631459Y-80361457D01*
X100636418Y-80347597D01*
X100642712Y-80334290D01*
X100650280Y-80321664D01*
X100659048Y-80309841D01*
X100668934Y-80298934D01*
X100679841Y-80289048D01*
X100691664Y-80280280D01*
X100704290Y-80272712D01*
X100717597Y-80266418D01*
X100731457Y-80261459D01*
X100745736Y-80257882D01*
X100760297Y-80255722D01*
X100775000Y-80255000D01*
X102525000Y-80255000D01*
X102539703Y-80255722D01*
G37*
G36*
X102539703Y-81525722D02*
G01*
X102554264Y-81527882D01*
X102568543Y-81531459D01*
X102582403Y-81536418D01*
X102595710Y-81542712D01*
X102608336Y-81550280D01*
X102620159Y-81559048D01*
X102631066Y-81568934D01*
X102640952Y-81579841D01*
X102649720Y-81591664D01*
X102657288Y-81604290D01*
X102663582Y-81617597D01*
X102668541Y-81631457D01*
X102672118Y-81645736D01*
X102674278Y-81660297D01*
X102675000Y-81675000D01*
X102675000Y-81975000D01*
X102674278Y-81989703D01*
X102672118Y-82004264D01*
X102668541Y-82018543D01*
X102663582Y-82032403D01*
X102657288Y-82045710D01*
X102649720Y-82058336D01*
X102640952Y-82070159D01*
X102631066Y-82081066D01*
X102620159Y-82090952D01*
X102608336Y-82099720D01*
X102595710Y-82107288D01*
X102582403Y-82113582D01*
X102568543Y-82118541D01*
X102554264Y-82122118D01*
X102539703Y-82124278D01*
X102525000Y-82125000D01*
X100775000Y-82125000D01*
X100760297Y-82124278D01*
X100745736Y-82122118D01*
X100731457Y-82118541D01*
X100717597Y-82113582D01*
X100704290Y-82107288D01*
X100691664Y-82099720D01*
X100679841Y-82090952D01*
X100668934Y-82081066D01*
X100659048Y-82070159D01*
X100650280Y-82058336D01*
X100642712Y-82045710D01*
X100636418Y-82032403D01*
X100631459Y-82018543D01*
X100627882Y-82004264D01*
X100625722Y-81989703D01*
X100625000Y-81975000D01*
X100625000Y-81675000D01*
X100625722Y-81660297D01*
X100627882Y-81645736D01*
X100631459Y-81631457D01*
X100636418Y-81617597D01*
X100642712Y-81604290D01*
X100650280Y-81591664D01*
X100659048Y-81579841D01*
X100668934Y-81568934D01*
X100679841Y-81559048D01*
X100691664Y-81550280D01*
X100704290Y-81542712D01*
X100717597Y-81536418D01*
X100731457Y-81531459D01*
X100745736Y-81527882D01*
X100760297Y-81525722D01*
X100775000Y-81525000D01*
X102525000Y-81525000D01*
X102539703Y-81525722D01*
G37*
G36*
X102539703Y-82795722D02*
G01*
X102554264Y-82797882D01*
X102568543Y-82801459D01*
X102582403Y-82806418D01*
X102595710Y-82812712D01*
X102608336Y-82820280D01*
X102620159Y-82829048D01*
X102631066Y-82838934D01*
X102640952Y-82849841D01*
X102649720Y-82861664D01*
X102657288Y-82874290D01*
X102663582Y-82887597D01*
X102668541Y-82901457D01*
X102672118Y-82915736D01*
X102674278Y-82930297D01*
X102675000Y-82945000D01*
X102675000Y-83245000D01*
X102674278Y-83259703D01*
X102672118Y-83274264D01*
X102668541Y-83288543D01*
X102663582Y-83302403D01*
X102657288Y-83315710D01*
X102649720Y-83328336D01*
X102640952Y-83340159D01*
X102631066Y-83351066D01*
X102620159Y-83360952D01*
X102608336Y-83369720D01*
X102595710Y-83377288D01*
X102582403Y-83383582D01*
X102568543Y-83388541D01*
X102554264Y-83392118D01*
X102539703Y-83394278D01*
X102525000Y-83395000D01*
X100775000Y-83395000D01*
X100760297Y-83394278D01*
X100745736Y-83392118D01*
X100731457Y-83388541D01*
X100717597Y-83383582D01*
X100704290Y-83377288D01*
X100691664Y-83369720D01*
X100679841Y-83360952D01*
X100668934Y-83351066D01*
X100659048Y-83340159D01*
X100650280Y-83328336D01*
X100642712Y-83315710D01*
X100636418Y-83302403D01*
X100631459Y-83288543D01*
X100627882Y-83274264D01*
X100625722Y-83259703D01*
X100625000Y-83245000D01*
X100625000Y-82945000D01*
X100625722Y-82930297D01*
X100627882Y-82915736D01*
X100631459Y-82901457D01*
X100636418Y-82887597D01*
X100642712Y-82874290D01*
X100650280Y-82861664D01*
X100659048Y-82849841D01*
X100668934Y-82838934D01*
X100679841Y-82829048D01*
X100691664Y-82820280D01*
X100704290Y-82812712D01*
X100717597Y-82806418D01*
X100731457Y-82801459D01*
X100745736Y-82797882D01*
X100760297Y-82795722D01*
X100775000Y-82795000D01*
X102525000Y-82795000D01*
X102539703Y-82795722D01*
G37*
G36*
X102539703Y-84065722D02*
G01*
X102554264Y-84067882D01*
X102568543Y-84071459D01*
X102582403Y-84076418D01*
X102595710Y-84082712D01*
X102608336Y-84090280D01*
X102620159Y-84099048D01*
X102631066Y-84108934D01*
X102640952Y-84119841D01*
X102649720Y-84131664D01*
X102657288Y-84144290D01*
X102663582Y-84157597D01*
X102668541Y-84171457D01*
X102672118Y-84185736D01*
X102674278Y-84200297D01*
X102675000Y-84215000D01*
X102675000Y-84515000D01*
X102674278Y-84529703D01*
X102672118Y-84544264D01*
X102668541Y-84558543D01*
X102663582Y-84572403D01*
X102657288Y-84585710D01*
X102649720Y-84598336D01*
X102640952Y-84610159D01*
X102631066Y-84621066D01*
X102620159Y-84630952D01*
X102608336Y-84639720D01*
X102595710Y-84647288D01*
X102582403Y-84653582D01*
X102568543Y-84658541D01*
X102554264Y-84662118D01*
X102539703Y-84664278D01*
X102525000Y-84665000D01*
X100775000Y-84665000D01*
X100760297Y-84664278D01*
X100745736Y-84662118D01*
X100731457Y-84658541D01*
X100717597Y-84653582D01*
X100704290Y-84647288D01*
X100691664Y-84639720D01*
X100679841Y-84630952D01*
X100668934Y-84621066D01*
X100659048Y-84610159D01*
X100650280Y-84598336D01*
X100642712Y-84585710D01*
X100636418Y-84572403D01*
X100631459Y-84558543D01*
X100627882Y-84544264D01*
X100625722Y-84529703D01*
X100625000Y-84515000D01*
X100625000Y-84215000D01*
X100625722Y-84200297D01*
X100627882Y-84185736D01*
X100631459Y-84171457D01*
X100636418Y-84157597D01*
X100642712Y-84144290D01*
X100650280Y-84131664D01*
X100659048Y-84119841D01*
X100668934Y-84108934D01*
X100679841Y-84099048D01*
X100691664Y-84090280D01*
X100704290Y-84082712D01*
X100717597Y-84076418D01*
X100731457Y-84071459D01*
X100745736Y-84067882D01*
X100760297Y-84065722D01*
X100775000Y-84065000D01*
X102525000Y-84065000D01*
X102539703Y-84065722D01*
G37*
G36*
X102539703Y-85335722D02*
G01*
X102554264Y-85337882D01*
X102568543Y-85341459D01*
X102582403Y-85346418D01*
X102595710Y-85352712D01*
X102608336Y-85360280D01*
X102620159Y-85369048D01*
X102631066Y-85378934D01*
X102640952Y-85389841D01*
X102649720Y-85401664D01*
X102657288Y-85414290D01*
X102663582Y-85427597D01*
X102668541Y-85441457D01*
X102672118Y-85455736D01*
X102674278Y-85470297D01*
X102675000Y-85485000D01*
X102675000Y-85785000D01*
X102674278Y-85799703D01*
X102672118Y-85814264D01*
X102668541Y-85828543D01*
X102663582Y-85842403D01*
X102657288Y-85855710D01*
X102649720Y-85868336D01*
X102640952Y-85880159D01*
X102631066Y-85891066D01*
X102620159Y-85900952D01*
X102608336Y-85909720D01*
X102595710Y-85917288D01*
X102582403Y-85923582D01*
X102568543Y-85928541D01*
X102554264Y-85932118D01*
X102539703Y-85934278D01*
X102525000Y-85935000D01*
X100775000Y-85935000D01*
X100760297Y-85934278D01*
X100745736Y-85932118D01*
X100731457Y-85928541D01*
X100717597Y-85923582D01*
X100704290Y-85917288D01*
X100691664Y-85909720D01*
X100679841Y-85900952D01*
X100668934Y-85891066D01*
X100659048Y-85880159D01*
X100650280Y-85868336D01*
X100642712Y-85855710D01*
X100636418Y-85842403D01*
X100631459Y-85828543D01*
X100627882Y-85814264D01*
X100625722Y-85799703D01*
X100625000Y-85785000D01*
X100625000Y-85485000D01*
X100625722Y-85470297D01*
X100627882Y-85455736D01*
X100631459Y-85441457D01*
X100636418Y-85427597D01*
X100642712Y-85414290D01*
X100650280Y-85401664D01*
X100659048Y-85389841D01*
X100668934Y-85378934D01*
X100679841Y-85369048D01*
X100691664Y-85360280D01*
X100704290Y-85352712D01*
X100717597Y-85346418D01*
X100731457Y-85341459D01*
X100745736Y-85337882D01*
X100760297Y-85335722D01*
X100775000Y-85335000D01*
X102525000Y-85335000D01*
X102539703Y-85335722D01*
G37*
G36*
X102539703Y-86605722D02*
G01*
X102554264Y-86607882D01*
X102568543Y-86611459D01*
X102582403Y-86616418D01*
X102595710Y-86622712D01*
X102608336Y-86630280D01*
X102620159Y-86639048D01*
X102631066Y-86648934D01*
X102640952Y-86659841D01*
X102649720Y-86671664D01*
X102657288Y-86684290D01*
X102663582Y-86697597D01*
X102668541Y-86711457D01*
X102672118Y-86725736D01*
X102674278Y-86740297D01*
X102675000Y-86755000D01*
X102675000Y-87055000D01*
X102674278Y-87069703D01*
X102672118Y-87084264D01*
X102668541Y-87098543D01*
X102663582Y-87112403D01*
X102657288Y-87125710D01*
X102649720Y-87138336D01*
X102640952Y-87150159D01*
X102631066Y-87161066D01*
X102620159Y-87170952D01*
X102608336Y-87179720D01*
X102595710Y-87187288D01*
X102582403Y-87193582D01*
X102568543Y-87198541D01*
X102554264Y-87202118D01*
X102539703Y-87204278D01*
X102525000Y-87205000D01*
X100775000Y-87205000D01*
X100760297Y-87204278D01*
X100745736Y-87202118D01*
X100731457Y-87198541D01*
X100717597Y-87193582D01*
X100704290Y-87187288D01*
X100691664Y-87179720D01*
X100679841Y-87170952D01*
X100668934Y-87161066D01*
X100659048Y-87150159D01*
X100650280Y-87138336D01*
X100642712Y-87125710D01*
X100636418Y-87112403D01*
X100631459Y-87098543D01*
X100627882Y-87084264D01*
X100625722Y-87069703D01*
X100625000Y-87055000D01*
X100625000Y-86755000D01*
X100625722Y-86740297D01*
X100627882Y-86725736D01*
X100631459Y-86711457D01*
X100636418Y-86697597D01*
X100642712Y-86684290D01*
X100650280Y-86671664D01*
X100659048Y-86659841D01*
X100668934Y-86648934D01*
X100679841Y-86639048D01*
X100691664Y-86630280D01*
X100704290Y-86622712D01*
X100717597Y-86616418D01*
X100731457Y-86611459D01*
X100745736Y-86607882D01*
X100760297Y-86605722D01*
X100775000Y-86605000D01*
X102525000Y-86605000D01*
X102539703Y-86605722D01*
G37*
G36*
X102539703Y-87875722D02*
G01*
X102554264Y-87877882D01*
X102568543Y-87881459D01*
X102582403Y-87886418D01*
X102595710Y-87892712D01*
X102608336Y-87900280D01*
X102620159Y-87909048D01*
X102631066Y-87918934D01*
X102640952Y-87929841D01*
X102649720Y-87941664D01*
X102657288Y-87954290D01*
X102663582Y-87967597D01*
X102668541Y-87981457D01*
X102672118Y-87995736D01*
X102674278Y-88010297D01*
X102675000Y-88025000D01*
X102675000Y-88325000D01*
X102674278Y-88339703D01*
X102672118Y-88354264D01*
X102668541Y-88368543D01*
X102663582Y-88382403D01*
X102657288Y-88395710D01*
X102649720Y-88408336D01*
X102640952Y-88420159D01*
X102631066Y-88431066D01*
X102620159Y-88440952D01*
X102608336Y-88449720D01*
X102595710Y-88457288D01*
X102582403Y-88463582D01*
X102568543Y-88468541D01*
X102554264Y-88472118D01*
X102539703Y-88474278D01*
X102525000Y-88475000D01*
X100775000Y-88475000D01*
X100760297Y-88474278D01*
X100745736Y-88472118D01*
X100731457Y-88468541D01*
X100717597Y-88463582D01*
X100704290Y-88457288D01*
X100691664Y-88449720D01*
X100679841Y-88440952D01*
X100668934Y-88431066D01*
X100659048Y-88420159D01*
X100650280Y-88408336D01*
X100642712Y-88395710D01*
X100636418Y-88382403D01*
X100631459Y-88368543D01*
X100627882Y-88354264D01*
X100625722Y-88339703D01*
X100625000Y-88325000D01*
X100625000Y-88025000D01*
X100625722Y-88010297D01*
X100627882Y-87995736D01*
X100631459Y-87981457D01*
X100636418Y-87967597D01*
X100642712Y-87954290D01*
X100650280Y-87941664D01*
X100659048Y-87929841D01*
X100668934Y-87918934D01*
X100679841Y-87909048D01*
X100691664Y-87900280D01*
X100704290Y-87892712D01*
X100717597Y-87886418D01*
X100731457Y-87881459D01*
X100745736Y-87877882D01*
X100760297Y-87875722D01*
X100775000Y-87875000D01*
X102525000Y-87875000D01*
X102539703Y-87875722D01*
G37*
G36*
X102539703Y-89145722D02*
G01*
X102554264Y-89147882D01*
X102568543Y-89151459D01*
X102582403Y-89156418D01*
X102595710Y-89162712D01*
X102608336Y-89170280D01*
X102620159Y-89179048D01*
X102631066Y-89188934D01*
X102640952Y-89199841D01*
X102649720Y-89211664D01*
X102657288Y-89224290D01*
X102663582Y-89237597D01*
X102668541Y-89251457D01*
X102672118Y-89265736D01*
X102674278Y-89280297D01*
X102675000Y-89295000D01*
X102675000Y-89595000D01*
X102674278Y-89609703D01*
X102672118Y-89624264D01*
X102668541Y-89638543D01*
X102663582Y-89652403D01*
X102657288Y-89665710D01*
X102649720Y-89678336D01*
X102640952Y-89690159D01*
X102631066Y-89701066D01*
X102620159Y-89710952D01*
X102608336Y-89719720D01*
X102595710Y-89727288D01*
X102582403Y-89733582D01*
X102568543Y-89738541D01*
X102554264Y-89742118D01*
X102539703Y-89744278D01*
X102525000Y-89745000D01*
X100775000Y-89745000D01*
X100760297Y-89744278D01*
X100745736Y-89742118D01*
X100731457Y-89738541D01*
X100717597Y-89733582D01*
X100704290Y-89727288D01*
X100691664Y-89719720D01*
X100679841Y-89710952D01*
X100668934Y-89701066D01*
X100659048Y-89690159D01*
X100650280Y-89678336D01*
X100642712Y-89665710D01*
X100636418Y-89652403D01*
X100631459Y-89638543D01*
X100627882Y-89624264D01*
X100625722Y-89609703D01*
X100625000Y-89595000D01*
X100625000Y-89295000D01*
X100625722Y-89280297D01*
X100627882Y-89265736D01*
X100631459Y-89251457D01*
X100636418Y-89237597D01*
X100642712Y-89224290D01*
X100650280Y-89211664D01*
X100659048Y-89199841D01*
X100668934Y-89188934D01*
X100679841Y-89179048D01*
X100691664Y-89170280D01*
X100704290Y-89162712D01*
X100717597Y-89156418D01*
X100731457Y-89151459D01*
X100745736Y-89147882D01*
X100760297Y-89145722D01*
X100775000Y-89145000D01*
X102525000Y-89145000D01*
X102539703Y-89145722D01*
G37*
G36*
X102539703Y-90415722D02*
G01*
X102554264Y-90417882D01*
X102568543Y-90421459D01*
X102582403Y-90426418D01*
X102595710Y-90432712D01*
X102608336Y-90440280D01*
X102620159Y-90449048D01*
X102631066Y-90458934D01*
X102640952Y-90469841D01*
X102649720Y-90481664D01*
X102657288Y-90494290D01*
X102663582Y-90507597D01*
X102668541Y-90521457D01*
X102672118Y-90535736D01*
X102674278Y-90550297D01*
X102675000Y-90565000D01*
X102675000Y-90865000D01*
X102674278Y-90879703D01*
X102672118Y-90894264D01*
X102668541Y-90908543D01*
X102663582Y-90922403D01*
X102657288Y-90935710D01*
X102649720Y-90948336D01*
X102640952Y-90960159D01*
X102631066Y-90971066D01*
X102620159Y-90980952D01*
X102608336Y-90989720D01*
X102595710Y-90997288D01*
X102582403Y-91003582D01*
X102568543Y-91008541D01*
X102554264Y-91012118D01*
X102539703Y-91014278D01*
X102525000Y-91015000D01*
X100775000Y-91015000D01*
X100760297Y-91014278D01*
X100745736Y-91012118D01*
X100731457Y-91008541D01*
X100717597Y-91003582D01*
X100704290Y-90997288D01*
X100691664Y-90989720D01*
X100679841Y-90980952D01*
X100668934Y-90971066D01*
X100659048Y-90960159D01*
X100650280Y-90948336D01*
X100642712Y-90935710D01*
X100636418Y-90922403D01*
X100631459Y-90908543D01*
X100627882Y-90894264D01*
X100625722Y-90879703D01*
X100625000Y-90865000D01*
X100625000Y-90565000D01*
X100625722Y-90550297D01*
X100627882Y-90535736D01*
X100631459Y-90521457D01*
X100636418Y-90507597D01*
X100642712Y-90494290D01*
X100650280Y-90481664D01*
X100659048Y-90469841D01*
X100668934Y-90458934D01*
X100679841Y-90449048D01*
X100691664Y-90440280D01*
X100704290Y-90432712D01*
X100717597Y-90426418D01*
X100731457Y-90421459D01*
X100745736Y-90417882D01*
X100760297Y-90415722D01*
X100775000Y-90415000D01*
X102525000Y-90415000D01*
X102539703Y-90415722D01*
G37*
G36*
X93239703Y-90415722D02*
G01*
X93254264Y-90417882D01*
X93268543Y-90421459D01*
X93282403Y-90426418D01*
X93295710Y-90432712D01*
X93308336Y-90440280D01*
X93320159Y-90449048D01*
X93331066Y-90458934D01*
X93340952Y-90469841D01*
X93349720Y-90481664D01*
X93357288Y-90494290D01*
X93363582Y-90507597D01*
X93368541Y-90521457D01*
X93372118Y-90535736D01*
X93374278Y-90550297D01*
X93375000Y-90565000D01*
X93375000Y-90865000D01*
X93374278Y-90879703D01*
X93372118Y-90894264D01*
X93368541Y-90908543D01*
X93363582Y-90922403D01*
X93357288Y-90935710D01*
X93349720Y-90948336D01*
X93340952Y-90960159D01*
X93331066Y-90971066D01*
X93320159Y-90980952D01*
X93308336Y-90989720D01*
X93295710Y-90997288D01*
X93282403Y-91003582D01*
X93268543Y-91008541D01*
X93254264Y-91012118D01*
X93239703Y-91014278D01*
X93225000Y-91015000D01*
X91475000Y-91015000D01*
X91460297Y-91014278D01*
X91445736Y-91012118D01*
X91431457Y-91008541D01*
X91417597Y-91003582D01*
X91404290Y-90997288D01*
X91391664Y-90989720D01*
X91379841Y-90980952D01*
X91368934Y-90971066D01*
X91359048Y-90960159D01*
X91350280Y-90948336D01*
X91342712Y-90935710D01*
X91336418Y-90922403D01*
X91331459Y-90908543D01*
X91327882Y-90894264D01*
X91325722Y-90879703D01*
X91325000Y-90865000D01*
X91325000Y-90565000D01*
X91325722Y-90550297D01*
X91327882Y-90535736D01*
X91331459Y-90521457D01*
X91336418Y-90507597D01*
X91342712Y-90494290D01*
X91350280Y-90481664D01*
X91359048Y-90469841D01*
X91368934Y-90458934D01*
X91379841Y-90449048D01*
X91391664Y-90440280D01*
X91404290Y-90432712D01*
X91417597Y-90426418D01*
X91431457Y-90421459D01*
X91445736Y-90417882D01*
X91460297Y-90415722D01*
X91475000Y-90415000D01*
X93225000Y-90415000D01*
X93239703Y-90415722D01*
G37*
G36*
X93239703Y-89145722D02*
G01*
X93254264Y-89147882D01*
X93268543Y-89151459D01*
X93282403Y-89156418D01*
X93295710Y-89162712D01*
X93308336Y-89170280D01*
X93320159Y-89179048D01*
X93331066Y-89188934D01*
X93340952Y-89199841D01*
X93349720Y-89211664D01*
X93357288Y-89224290D01*
X93363582Y-89237597D01*
X93368541Y-89251457D01*
X93372118Y-89265736D01*
X93374278Y-89280297D01*
X93375000Y-89295000D01*
X93375000Y-89595000D01*
X93374278Y-89609703D01*
X93372118Y-89624264D01*
X93368541Y-89638543D01*
X93363582Y-89652403D01*
X93357288Y-89665710D01*
X93349720Y-89678336D01*
X93340952Y-89690159D01*
X93331066Y-89701066D01*
X93320159Y-89710952D01*
X93308336Y-89719720D01*
X93295710Y-89727288D01*
X93282403Y-89733582D01*
X93268543Y-89738541D01*
X93254264Y-89742118D01*
X93239703Y-89744278D01*
X93225000Y-89745000D01*
X91475000Y-89745000D01*
X91460297Y-89744278D01*
X91445736Y-89742118D01*
X91431457Y-89738541D01*
X91417597Y-89733582D01*
X91404290Y-89727288D01*
X91391664Y-89719720D01*
X91379841Y-89710952D01*
X91368934Y-89701066D01*
X91359048Y-89690159D01*
X91350280Y-89678336D01*
X91342712Y-89665710D01*
X91336418Y-89652403D01*
X91331459Y-89638543D01*
X91327882Y-89624264D01*
X91325722Y-89609703D01*
X91325000Y-89595000D01*
X91325000Y-89295000D01*
X91325722Y-89280297D01*
X91327882Y-89265736D01*
X91331459Y-89251457D01*
X91336418Y-89237597D01*
X91342712Y-89224290D01*
X91350280Y-89211664D01*
X91359048Y-89199841D01*
X91368934Y-89188934D01*
X91379841Y-89179048D01*
X91391664Y-89170280D01*
X91404290Y-89162712D01*
X91417597Y-89156418D01*
X91431457Y-89151459D01*
X91445736Y-89147882D01*
X91460297Y-89145722D01*
X91475000Y-89145000D01*
X93225000Y-89145000D01*
X93239703Y-89145722D01*
G37*
G36*
X93239703Y-87875722D02*
G01*
X93254264Y-87877882D01*
X93268543Y-87881459D01*
X93282403Y-87886418D01*
X93295710Y-87892712D01*
X93308336Y-87900280D01*
X93320159Y-87909048D01*
X93331066Y-87918934D01*
X93340952Y-87929841D01*
X93349720Y-87941664D01*
X93357288Y-87954290D01*
X93363582Y-87967597D01*
X93368541Y-87981457D01*
X93372118Y-87995736D01*
X93374278Y-88010297D01*
X93375000Y-88025000D01*
X93375000Y-88325000D01*
X93374278Y-88339703D01*
X93372118Y-88354264D01*
X93368541Y-88368543D01*
X93363582Y-88382403D01*
X93357288Y-88395710D01*
X93349720Y-88408336D01*
X93340952Y-88420159D01*
X93331066Y-88431066D01*
X93320159Y-88440952D01*
X93308336Y-88449720D01*
X93295710Y-88457288D01*
X93282403Y-88463582D01*
X93268543Y-88468541D01*
X93254264Y-88472118D01*
X93239703Y-88474278D01*
X93225000Y-88475000D01*
X91475000Y-88475000D01*
X91460297Y-88474278D01*
X91445736Y-88472118D01*
X91431457Y-88468541D01*
X91417597Y-88463582D01*
X91404290Y-88457288D01*
X91391664Y-88449720D01*
X91379841Y-88440952D01*
X91368934Y-88431066D01*
X91359048Y-88420159D01*
X91350280Y-88408336D01*
X91342712Y-88395710D01*
X91336418Y-88382403D01*
X91331459Y-88368543D01*
X91327882Y-88354264D01*
X91325722Y-88339703D01*
X91325000Y-88325000D01*
X91325000Y-88025000D01*
X91325722Y-88010297D01*
X91327882Y-87995736D01*
X91331459Y-87981457D01*
X91336418Y-87967597D01*
X91342712Y-87954290D01*
X91350280Y-87941664D01*
X91359048Y-87929841D01*
X91368934Y-87918934D01*
X91379841Y-87909048D01*
X91391664Y-87900280D01*
X91404290Y-87892712D01*
X91417597Y-87886418D01*
X91431457Y-87881459D01*
X91445736Y-87877882D01*
X91460297Y-87875722D01*
X91475000Y-87875000D01*
X93225000Y-87875000D01*
X93239703Y-87875722D01*
G37*
G36*
X93239703Y-86605722D02*
G01*
X93254264Y-86607882D01*
X93268543Y-86611459D01*
X93282403Y-86616418D01*
X93295710Y-86622712D01*
X93308336Y-86630280D01*
X93320159Y-86639048D01*
X93331066Y-86648934D01*
X93340952Y-86659841D01*
X93349720Y-86671664D01*
X93357288Y-86684290D01*
X93363582Y-86697597D01*
X93368541Y-86711457D01*
X93372118Y-86725736D01*
X93374278Y-86740297D01*
X93375000Y-86755000D01*
X93375000Y-87055000D01*
X93374278Y-87069703D01*
X93372118Y-87084264D01*
X93368541Y-87098543D01*
X93363582Y-87112403D01*
X93357288Y-87125710D01*
X93349720Y-87138336D01*
X93340952Y-87150159D01*
X93331066Y-87161066D01*
X93320159Y-87170952D01*
X93308336Y-87179720D01*
X93295710Y-87187288D01*
X93282403Y-87193582D01*
X93268543Y-87198541D01*
X93254264Y-87202118D01*
X93239703Y-87204278D01*
X93225000Y-87205000D01*
X91475000Y-87205000D01*
X91460297Y-87204278D01*
X91445736Y-87202118D01*
X91431457Y-87198541D01*
X91417597Y-87193582D01*
X91404290Y-87187288D01*
X91391664Y-87179720D01*
X91379841Y-87170952D01*
X91368934Y-87161066D01*
X91359048Y-87150159D01*
X91350280Y-87138336D01*
X91342712Y-87125710D01*
X91336418Y-87112403D01*
X91331459Y-87098543D01*
X91327882Y-87084264D01*
X91325722Y-87069703D01*
X91325000Y-87055000D01*
X91325000Y-86755000D01*
X91325722Y-86740297D01*
X91327882Y-86725736D01*
X91331459Y-86711457D01*
X91336418Y-86697597D01*
X91342712Y-86684290D01*
X91350280Y-86671664D01*
X91359048Y-86659841D01*
X91368934Y-86648934D01*
X91379841Y-86639048D01*
X91391664Y-86630280D01*
X91404290Y-86622712D01*
X91417597Y-86616418D01*
X91431457Y-86611459D01*
X91445736Y-86607882D01*
X91460297Y-86605722D01*
X91475000Y-86605000D01*
X93225000Y-86605000D01*
X93239703Y-86605722D01*
G37*
G36*
X93239703Y-85335722D02*
G01*
X93254264Y-85337882D01*
X93268543Y-85341459D01*
X93282403Y-85346418D01*
X93295710Y-85352712D01*
X93308336Y-85360280D01*
X93320159Y-85369048D01*
X93331066Y-85378934D01*
X93340952Y-85389841D01*
X93349720Y-85401664D01*
X93357288Y-85414290D01*
X93363582Y-85427597D01*
X93368541Y-85441457D01*
X93372118Y-85455736D01*
X93374278Y-85470297D01*
X93375000Y-85485000D01*
X93375000Y-85785000D01*
X93374278Y-85799703D01*
X93372118Y-85814264D01*
X93368541Y-85828543D01*
X93363582Y-85842403D01*
X93357288Y-85855710D01*
X93349720Y-85868336D01*
X93340952Y-85880159D01*
X93331066Y-85891066D01*
X93320159Y-85900952D01*
X93308336Y-85909720D01*
X93295710Y-85917288D01*
X93282403Y-85923582D01*
X93268543Y-85928541D01*
X93254264Y-85932118D01*
X93239703Y-85934278D01*
X93225000Y-85935000D01*
X91475000Y-85935000D01*
X91460297Y-85934278D01*
X91445736Y-85932118D01*
X91431457Y-85928541D01*
X91417597Y-85923582D01*
X91404290Y-85917288D01*
X91391664Y-85909720D01*
X91379841Y-85900952D01*
X91368934Y-85891066D01*
X91359048Y-85880159D01*
X91350280Y-85868336D01*
X91342712Y-85855710D01*
X91336418Y-85842403D01*
X91331459Y-85828543D01*
X91327882Y-85814264D01*
X91325722Y-85799703D01*
X91325000Y-85785000D01*
X91325000Y-85485000D01*
X91325722Y-85470297D01*
X91327882Y-85455736D01*
X91331459Y-85441457D01*
X91336418Y-85427597D01*
X91342712Y-85414290D01*
X91350280Y-85401664D01*
X91359048Y-85389841D01*
X91368934Y-85378934D01*
X91379841Y-85369048D01*
X91391664Y-85360280D01*
X91404290Y-85352712D01*
X91417597Y-85346418D01*
X91431457Y-85341459D01*
X91445736Y-85337882D01*
X91460297Y-85335722D01*
X91475000Y-85335000D01*
X93225000Y-85335000D01*
X93239703Y-85335722D01*
G37*
G36*
X93239703Y-84065722D02*
G01*
X93254264Y-84067882D01*
X93268543Y-84071459D01*
X93282403Y-84076418D01*
X93295710Y-84082712D01*
X93308336Y-84090280D01*
X93320159Y-84099048D01*
X93331066Y-84108934D01*
X93340952Y-84119841D01*
X93349720Y-84131664D01*
X93357288Y-84144290D01*
X93363582Y-84157597D01*
X93368541Y-84171457D01*
X93372118Y-84185736D01*
X93374278Y-84200297D01*
X93375000Y-84215000D01*
X93375000Y-84515000D01*
X93374278Y-84529703D01*
X93372118Y-84544264D01*
X93368541Y-84558543D01*
X93363582Y-84572403D01*
X93357288Y-84585710D01*
X93349720Y-84598336D01*
X93340952Y-84610159D01*
X93331066Y-84621066D01*
X93320159Y-84630952D01*
X93308336Y-84639720D01*
X93295710Y-84647288D01*
X93282403Y-84653582D01*
X93268543Y-84658541D01*
X93254264Y-84662118D01*
X93239703Y-84664278D01*
X93225000Y-84665000D01*
X91475000Y-84665000D01*
X91460297Y-84664278D01*
X91445736Y-84662118D01*
X91431457Y-84658541D01*
X91417597Y-84653582D01*
X91404290Y-84647288D01*
X91391664Y-84639720D01*
X91379841Y-84630952D01*
X91368934Y-84621066D01*
X91359048Y-84610159D01*
X91350280Y-84598336D01*
X91342712Y-84585710D01*
X91336418Y-84572403D01*
X91331459Y-84558543D01*
X91327882Y-84544264D01*
X91325722Y-84529703D01*
X91325000Y-84515000D01*
X91325000Y-84215000D01*
X91325722Y-84200297D01*
X91327882Y-84185736D01*
X91331459Y-84171457D01*
X91336418Y-84157597D01*
X91342712Y-84144290D01*
X91350280Y-84131664D01*
X91359048Y-84119841D01*
X91368934Y-84108934D01*
X91379841Y-84099048D01*
X91391664Y-84090280D01*
X91404290Y-84082712D01*
X91417597Y-84076418D01*
X91431457Y-84071459D01*
X91445736Y-84067882D01*
X91460297Y-84065722D01*
X91475000Y-84065000D01*
X93225000Y-84065000D01*
X93239703Y-84065722D01*
G37*
G36*
X93239703Y-82795722D02*
G01*
X93254264Y-82797882D01*
X93268543Y-82801459D01*
X93282403Y-82806418D01*
X93295710Y-82812712D01*
X93308336Y-82820280D01*
X93320159Y-82829048D01*
X93331066Y-82838934D01*
X93340952Y-82849841D01*
X93349720Y-82861664D01*
X93357288Y-82874290D01*
X93363582Y-82887597D01*
X93368541Y-82901457D01*
X93372118Y-82915736D01*
X93374278Y-82930297D01*
X93375000Y-82945000D01*
X93375000Y-83245000D01*
X93374278Y-83259703D01*
X93372118Y-83274264D01*
X93368541Y-83288543D01*
X93363582Y-83302403D01*
X93357288Y-83315710D01*
X93349720Y-83328336D01*
X93340952Y-83340159D01*
X93331066Y-83351066D01*
X93320159Y-83360952D01*
X93308336Y-83369720D01*
X93295710Y-83377288D01*
X93282403Y-83383582D01*
X93268543Y-83388541D01*
X93254264Y-83392118D01*
X93239703Y-83394278D01*
X93225000Y-83395000D01*
X91475000Y-83395000D01*
X91460297Y-83394278D01*
X91445736Y-83392118D01*
X91431457Y-83388541D01*
X91417597Y-83383582D01*
X91404290Y-83377288D01*
X91391664Y-83369720D01*
X91379841Y-83360952D01*
X91368934Y-83351066D01*
X91359048Y-83340159D01*
X91350280Y-83328336D01*
X91342712Y-83315710D01*
X91336418Y-83302403D01*
X91331459Y-83288543D01*
X91327882Y-83274264D01*
X91325722Y-83259703D01*
X91325000Y-83245000D01*
X91325000Y-82945000D01*
X91325722Y-82930297D01*
X91327882Y-82915736D01*
X91331459Y-82901457D01*
X91336418Y-82887597D01*
X91342712Y-82874290D01*
X91350280Y-82861664D01*
X91359048Y-82849841D01*
X91368934Y-82838934D01*
X91379841Y-82829048D01*
X91391664Y-82820280D01*
X91404290Y-82812712D01*
X91417597Y-82806418D01*
X91431457Y-82801459D01*
X91445736Y-82797882D01*
X91460297Y-82795722D01*
X91475000Y-82795000D01*
X93225000Y-82795000D01*
X93239703Y-82795722D01*
G37*
G36*
X93239703Y-81525722D02*
G01*
X93254264Y-81527882D01*
X93268543Y-81531459D01*
X93282403Y-81536418D01*
X93295710Y-81542712D01*
X93308336Y-81550280D01*
X93320159Y-81559048D01*
X93331066Y-81568934D01*
X93340952Y-81579841D01*
X93349720Y-81591664D01*
X93357288Y-81604290D01*
X93363582Y-81617597D01*
X93368541Y-81631457D01*
X93372118Y-81645736D01*
X93374278Y-81660297D01*
X93375000Y-81675000D01*
X93375000Y-81975000D01*
X93374278Y-81989703D01*
X93372118Y-82004264D01*
X93368541Y-82018543D01*
X93363582Y-82032403D01*
X93357288Y-82045710D01*
X93349720Y-82058336D01*
X93340952Y-82070159D01*
X93331066Y-82081066D01*
X93320159Y-82090952D01*
X93308336Y-82099720D01*
X93295710Y-82107288D01*
X93282403Y-82113582D01*
X93268543Y-82118541D01*
X93254264Y-82122118D01*
X93239703Y-82124278D01*
X93225000Y-82125000D01*
X91475000Y-82125000D01*
X91460297Y-82124278D01*
X91445736Y-82122118D01*
X91431457Y-82118541D01*
X91417597Y-82113582D01*
X91404290Y-82107288D01*
X91391664Y-82099720D01*
X91379841Y-82090952D01*
X91368934Y-82081066D01*
X91359048Y-82070159D01*
X91350280Y-82058336D01*
X91342712Y-82045710D01*
X91336418Y-82032403D01*
X91331459Y-82018543D01*
X91327882Y-82004264D01*
X91325722Y-81989703D01*
X91325000Y-81975000D01*
X91325000Y-81675000D01*
X91325722Y-81660297D01*
X91327882Y-81645736D01*
X91331459Y-81631457D01*
X91336418Y-81617597D01*
X91342712Y-81604290D01*
X91350280Y-81591664D01*
X91359048Y-81579841D01*
X91368934Y-81568934D01*
X91379841Y-81559048D01*
X91391664Y-81550280D01*
X91404290Y-81542712D01*
X91417597Y-81536418D01*
X91431457Y-81531459D01*
X91445736Y-81527882D01*
X91460297Y-81525722D01*
X91475000Y-81525000D01*
X93225000Y-81525000D01*
X93239703Y-81525722D01*
G37*
G36*
X93239703Y-80255722D02*
G01*
X93254264Y-80257882D01*
X93268543Y-80261459D01*
X93282403Y-80266418D01*
X93295710Y-80272712D01*
X93308336Y-80280280D01*
X93320159Y-80289048D01*
X93331066Y-80298934D01*
X93340952Y-80309841D01*
X93349720Y-80321664D01*
X93357288Y-80334290D01*
X93363582Y-80347597D01*
X93368541Y-80361457D01*
X93372118Y-80375736D01*
X93374278Y-80390297D01*
X93375000Y-80405000D01*
X93375000Y-80705000D01*
X93374278Y-80719703D01*
X93372118Y-80734264D01*
X93368541Y-80748543D01*
X93363582Y-80762403D01*
X93357288Y-80775710D01*
X93349720Y-80788336D01*
X93340952Y-80800159D01*
X93331066Y-80811066D01*
X93320159Y-80820952D01*
X93308336Y-80829720D01*
X93295710Y-80837288D01*
X93282403Y-80843582D01*
X93268543Y-80848541D01*
X93254264Y-80852118D01*
X93239703Y-80854278D01*
X93225000Y-80855000D01*
X91475000Y-80855000D01*
X91460297Y-80854278D01*
X91445736Y-80852118D01*
X91431457Y-80848541D01*
X91417597Y-80843582D01*
X91404290Y-80837288D01*
X91391664Y-80829720D01*
X91379841Y-80820952D01*
X91368934Y-80811066D01*
X91359048Y-80800159D01*
X91350280Y-80788336D01*
X91342712Y-80775710D01*
X91336418Y-80762403D01*
X91331459Y-80748543D01*
X91327882Y-80734264D01*
X91325722Y-80719703D01*
X91325000Y-80705000D01*
X91325000Y-80405000D01*
X91325722Y-80390297D01*
X91327882Y-80375736D01*
X91331459Y-80361457D01*
X91336418Y-80347597D01*
X91342712Y-80334290D01*
X91350280Y-80321664D01*
X91359048Y-80309841D01*
X91368934Y-80298934D01*
X91379841Y-80289048D01*
X91391664Y-80280280D01*
X91404290Y-80272712D01*
X91417597Y-80266418D01*
X91431457Y-80261459D01*
X91445736Y-80257882D01*
X91460297Y-80255722D01*
X91475000Y-80255000D01*
X93225000Y-80255000D01*
X93239703Y-80255722D01*
G37*
G36*
X93239703Y-78985722D02*
G01*
X93254264Y-78987882D01*
X93268543Y-78991459D01*
X93282403Y-78996418D01*
X93295710Y-79002712D01*
X93308336Y-79010280D01*
X93320159Y-79019048D01*
X93331066Y-79028934D01*
X93340952Y-79039841D01*
X93349720Y-79051664D01*
X93357288Y-79064290D01*
X93363582Y-79077597D01*
X93368541Y-79091457D01*
X93372118Y-79105736D01*
X93374278Y-79120297D01*
X93375000Y-79135000D01*
X93375000Y-79435000D01*
X93374278Y-79449703D01*
X93372118Y-79464264D01*
X93368541Y-79478543D01*
X93363582Y-79492403D01*
X93357288Y-79505710D01*
X93349720Y-79518336D01*
X93340952Y-79530159D01*
X93331066Y-79541066D01*
X93320159Y-79550952D01*
X93308336Y-79559720D01*
X93295710Y-79567288D01*
X93282403Y-79573582D01*
X93268543Y-79578541D01*
X93254264Y-79582118D01*
X93239703Y-79584278D01*
X93225000Y-79585000D01*
X91475000Y-79585000D01*
X91460297Y-79584278D01*
X91445736Y-79582118D01*
X91431457Y-79578541D01*
X91417597Y-79573582D01*
X91404290Y-79567288D01*
X91391664Y-79559720D01*
X91379841Y-79550952D01*
X91368934Y-79541066D01*
X91359048Y-79530159D01*
X91350280Y-79518336D01*
X91342712Y-79505710D01*
X91336418Y-79492403D01*
X91331459Y-79478543D01*
X91327882Y-79464264D01*
X91325722Y-79449703D01*
X91325000Y-79435000D01*
X91325000Y-79135000D01*
X91325722Y-79120297D01*
X91327882Y-79105736D01*
X91331459Y-79091457D01*
X91336418Y-79077597D01*
X91342712Y-79064290D01*
X91350280Y-79051664D01*
X91359048Y-79039841D01*
X91368934Y-79028934D01*
X91379841Y-79019048D01*
X91391664Y-79010280D01*
X91404290Y-79002712D01*
X91417597Y-78996418D01*
X91431457Y-78991459D01*
X91445736Y-78987882D01*
X91460297Y-78985722D01*
X91475000Y-78985000D01*
X93225000Y-78985000D01*
X93239703Y-78985722D01*
G37*
G36*
X109974505Y-99401204D02*
G01*
X109998773Y-99404804D01*
X110022572Y-99410765D01*
X110045671Y-99419030D01*
X110067850Y-99429520D01*
X110088893Y-99442132D01*
X110108599Y-99456747D01*
X110126777Y-99473223D01*
X110143253Y-99491401D01*
X110157868Y-99511107D01*
X110170480Y-99532150D01*
X110180970Y-99554329D01*
X110189235Y-99577428D01*
X110195196Y-99601227D01*
X110198796Y-99625495D01*
X110200000Y-99649999D01*
X110200000Y-100300001D01*
X110198796Y-100324505D01*
X110195196Y-100348773D01*
X110189235Y-100372572D01*
X110180970Y-100395671D01*
X110170480Y-100417850D01*
X110157868Y-100438893D01*
X110143253Y-100458599D01*
X110126777Y-100476777D01*
X110108599Y-100493253D01*
X110088893Y-100507868D01*
X110067850Y-100520480D01*
X110045671Y-100530970D01*
X110022572Y-100539235D01*
X109998773Y-100545196D01*
X109974505Y-100548796D01*
X109950001Y-100550000D01*
X109049999Y-100550000D01*
X109025495Y-100548796D01*
X109001227Y-100545196D01*
X108977428Y-100539235D01*
X108954329Y-100530970D01*
X108932150Y-100520480D01*
X108911107Y-100507868D01*
X108891401Y-100493253D01*
X108873223Y-100476777D01*
X108856747Y-100458599D01*
X108842132Y-100438893D01*
X108829520Y-100417850D01*
X108819030Y-100395671D01*
X108810765Y-100372572D01*
X108804804Y-100348773D01*
X108801204Y-100324505D01*
X108800000Y-100300001D01*
X108800000Y-99649999D01*
X108801204Y-99625495D01*
X108804804Y-99601227D01*
X108810765Y-99577428D01*
X108819030Y-99554329D01*
X108829520Y-99532150D01*
X108842132Y-99511107D01*
X108856747Y-99491401D01*
X108873223Y-99473223D01*
X108891401Y-99456747D01*
X108911107Y-99442132D01*
X108932150Y-99429520D01*
X108954329Y-99419030D01*
X108977428Y-99410765D01*
X109001227Y-99404804D01*
X109025495Y-99401204D01*
X109049999Y-99400000D01*
X109950001Y-99400000D01*
X109974505Y-99401204D01*
G37*
G36*
X109974505Y-101451204D02*
G01*
X109998773Y-101454804D01*
X110022572Y-101460765D01*
X110045671Y-101469030D01*
X110067850Y-101479520D01*
X110088893Y-101492132D01*
X110108599Y-101506747D01*
X110126777Y-101523223D01*
X110143253Y-101541401D01*
X110157868Y-101561107D01*
X110170480Y-101582150D01*
X110180970Y-101604329D01*
X110189235Y-101627428D01*
X110195196Y-101651227D01*
X110198796Y-101675495D01*
X110200000Y-101699999D01*
X110200000Y-102350001D01*
X110198796Y-102374505D01*
X110195196Y-102398773D01*
X110189235Y-102422572D01*
X110180970Y-102445671D01*
X110170480Y-102467850D01*
X110157868Y-102488893D01*
X110143253Y-102508599D01*
X110126777Y-102526777D01*
X110108599Y-102543253D01*
X110088893Y-102557868D01*
X110067850Y-102570480D01*
X110045671Y-102580970D01*
X110022572Y-102589235D01*
X109998773Y-102595196D01*
X109974505Y-102598796D01*
X109950001Y-102600000D01*
X109049999Y-102600000D01*
X109025495Y-102598796D01*
X109001227Y-102595196D01*
X108977428Y-102589235D01*
X108954329Y-102580970D01*
X108932150Y-102570480D01*
X108911107Y-102557868D01*
X108891401Y-102543253D01*
X108873223Y-102526777D01*
X108856747Y-102508599D01*
X108842132Y-102488893D01*
X108829520Y-102467850D01*
X108819030Y-102445671D01*
X108810765Y-102422572D01*
X108804804Y-102398773D01*
X108801204Y-102374505D01*
X108800000Y-102350001D01*
X108800000Y-101699999D01*
X108801204Y-101675495D01*
X108804804Y-101651227D01*
X108810765Y-101627428D01*
X108819030Y-101604329D01*
X108829520Y-101582150D01*
X108842132Y-101561107D01*
X108856747Y-101541401D01*
X108873223Y-101523223D01*
X108891401Y-101506747D01*
X108911107Y-101492132D01*
X108932150Y-101479520D01*
X108954329Y-101469030D01*
X108977428Y-101460765D01*
X109001227Y-101454804D01*
X109025495Y-101451204D01*
X109049999Y-101450000D01*
X109950001Y-101450000D01*
X109974505Y-101451204D01*
G37*
D13*
X115000000Y-107500000D03*
X113000000Y-108450000D03*
X113000000Y-106550000D03*
D14*
X86000000Y-96500000D03*
X85050000Y-94500000D03*
X86950000Y-94500000D03*
D12*
G36*
X101374505Y-70301204D02*
G01*
X101398773Y-70304804D01*
X101422572Y-70310765D01*
X101445671Y-70319030D01*
X101467850Y-70329520D01*
X101488893Y-70342132D01*
X101508599Y-70356747D01*
X101526777Y-70373223D01*
X101543253Y-70391401D01*
X101557868Y-70411107D01*
X101570480Y-70432150D01*
X101580970Y-70454329D01*
X101589235Y-70477428D01*
X101595196Y-70501227D01*
X101598796Y-70525495D01*
X101600000Y-70549999D01*
X101600000Y-71450001D01*
X101598796Y-71474505D01*
X101595196Y-71498773D01*
X101589235Y-71522572D01*
X101580970Y-71545671D01*
X101570480Y-71567850D01*
X101557868Y-71588893D01*
X101543253Y-71608599D01*
X101526777Y-71626777D01*
X101508599Y-71643253D01*
X101488893Y-71657868D01*
X101467850Y-71670480D01*
X101445671Y-71680970D01*
X101422572Y-71689235D01*
X101398773Y-71695196D01*
X101374505Y-71698796D01*
X101350001Y-71700000D01*
X100699999Y-71700000D01*
X100675495Y-71698796D01*
X100651227Y-71695196D01*
X100627428Y-71689235D01*
X100604329Y-71680970D01*
X100582150Y-71670480D01*
X100561107Y-71657868D01*
X100541401Y-71643253D01*
X100523223Y-71626777D01*
X100506747Y-71608599D01*
X100492132Y-71588893D01*
X100479520Y-71567850D01*
X100469030Y-71545671D01*
X100460765Y-71522572D01*
X100454804Y-71498773D01*
X100451204Y-71474505D01*
X100450000Y-71450001D01*
X100450000Y-70549999D01*
X100451204Y-70525495D01*
X100454804Y-70501227D01*
X100460765Y-70477428D01*
X100469030Y-70454329D01*
X100479520Y-70432150D01*
X100492132Y-70411107D01*
X100506747Y-70391401D01*
X100523223Y-70373223D01*
X100541401Y-70356747D01*
X100561107Y-70342132D01*
X100582150Y-70329520D01*
X100604329Y-70319030D01*
X100627428Y-70310765D01*
X100651227Y-70304804D01*
X100675495Y-70301204D01*
X100699999Y-70300000D01*
X101350001Y-70300000D01*
X101374505Y-70301204D01*
G37*
G36*
X99324505Y-70301204D02*
G01*
X99348773Y-70304804D01*
X99372572Y-70310765D01*
X99395671Y-70319030D01*
X99417850Y-70329520D01*
X99438893Y-70342132D01*
X99458599Y-70356747D01*
X99476777Y-70373223D01*
X99493253Y-70391401D01*
X99507868Y-70411107D01*
X99520480Y-70432150D01*
X99530970Y-70454329D01*
X99539235Y-70477428D01*
X99545196Y-70501227D01*
X99548796Y-70525495D01*
X99550000Y-70549999D01*
X99550000Y-71450001D01*
X99548796Y-71474505D01*
X99545196Y-71498773D01*
X99539235Y-71522572D01*
X99530970Y-71545671D01*
X99520480Y-71567850D01*
X99507868Y-71588893D01*
X99493253Y-71608599D01*
X99476777Y-71626777D01*
X99458599Y-71643253D01*
X99438893Y-71657868D01*
X99417850Y-71670480D01*
X99395671Y-71680970D01*
X99372572Y-71689235D01*
X99348773Y-71695196D01*
X99324505Y-71698796D01*
X99300001Y-71700000D01*
X98649999Y-71700000D01*
X98625495Y-71698796D01*
X98601227Y-71695196D01*
X98577428Y-71689235D01*
X98554329Y-71680970D01*
X98532150Y-71670480D01*
X98511107Y-71657868D01*
X98491401Y-71643253D01*
X98473223Y-71626777D01*
X98456747Y-71608599D01*
X98442132Y-71588893D01*
X98429520Y-71567850D01*
X98419030Y-71545671D01*
X98410765Y-71522572D01*
X98404804Y-71498773D01*
X98401204Y-71474505D01*
X98400000Y-71450001D01*
X98400000Y-70549999D01*
X98401204Y-70525495D01*
X98404804Y-70501227D01*
X98410765Y-70477428D01*
X98419030Y-70454329D01*
X98429520Y-70432150D01*
X98442132Y-70411107D01*
X98456747Y-70391401D01*
X98473223Y-70373223D01*
X98491401Y-70356747D01*
X98511107Y-70342132D01*
X98532150Y-70329520D01*
X98554329Y-70319030D01*
X98577428Y-70310765D01*
X98601227Y-70304804D01*
X98625495Y-70301204D01*
X98649999Y-70300000D01*
X99300001Y-70300000D01*
X99324505Y-70301204D01*
G37*
M02*
