G04 #@! TF.GenerationSoftware,KiCad,Pcbnew,5.1.5+dfsg1-2build2*
G04 #@! TF.CreationDate,2021-07-26T20:03:16+02:00*
G04 #@! TF.ProjectId,t100-dcmotor,74313030-2d64-4636-9d6f-746f722e6b69,rev?*
G04 #@! TF.SameCoordinates,Original*
G04 #@! TF.FileFunction,Soldermask,Top*
G04 #@! TF.FilePolarity,Negative*
%FSLAX46Y46*%
G04 Gerber Fmt 4.6, Leading zero omitted, Abs format (unit mm)*
G04 Created by KiCad (PCBNEW 5.1.5+dfsg1-2build2) date 2021-07-26 20:03:16*
%MOMM*%
%LPD*%
G04 APERTURE LIST*
%ADD10C,0.100000*%
G04 APERTURE END LIST*
D10*
G36*
X92047961Y-128359450D02*
G01*
X92144088Y-128388610D01*
X92232670Y-128435958D01*
X92310318Y-128499682D01*
X92374042Y-128577330D01*
X92421390Y-128665912D01*
X92450550Y-128762039D01*
X92461000Y-128868140D01*
X92461000Y-130131860D01*
X92450550Y-130237961D01*
X92421390Y-130334088D01*
X92374042Y-130422670D01*
X92310318Y-130500318D01*
X92232670Y-130564042D01*
X92144088Y-130611390D01*
X92047961Y-130640550D01*
X91941860Y-130651000D01*
X90678140Y-130651000D01*
X90572039Y-130640550D01*
X90475912Y-130611390D01*
X90387330Y-130564042D01*
X90309682Y-130500318D01*
X90245958Y-130422670D01*
X90198610Y-130334088D01*
X90169450Y-130237961D01*
X90159000Y-130131860D01*
X90159000Y-128868140D01*
X90169450Y-128762039D01*
X90198610Y-128665912D01*
X90245958Y-128577330D01*
X90309682Y-128499682D01*
X90387330Y-128435958D01*
X90475912Y-128388610D01*
X90572039Y-128359450D01*
X90678140Y-128349000D01*
X91941860Y-128349000D01*
X92047961Y-128359450D01*
G37*
G36*
X111097961Y-128359450D02*
G01*
X111194088Y-128388610D01*
X111282670Y-128435958D01*
X111360318Y-128499682D01*
X111424042Y-128577330D01*
X111471390Y-128665912D01*
X111500550Y-128762039D01*
X111511000Y-128868140D01*
X111511000Y-130131860D01*
X111500550Y-130237961D01*
X111471390Y-130334088D01*
X111424042Y-130422670D01*
X111360318Y-130500318D01*
X111282670Y-130564042D01*
X111194088Y-130611390D01*
X111097961Y-130640550D01*
X110991860Y-130651000D01*
X109728140Y-130651000D01*
X109622039Y-130640550D01*
X109525912Y-130611390D01*
X109437330Y-130564042D01*
X109359682Y-130500318D01*
X109295958Y-130422670D01*
X109248610Y-130334088D01*
X109219450Y-130237961D01*
X109209000Y-130131860D01*
X109209000Y-128868140D01*
X109219450Y-128762039D01*
X109248610Y-128665912D01*
X109295958Y-128577330D01*
X109359682Y-128499682D01*
X109437330Y-128435958D01*
X109525912Y-128388610D01*
X109622039Y-128359450D01*
X109728140Y-128349000D01*
X110991860Y-128349000D01*
X111097961Y-128359450D01*
G37*
G36*
X88237961Y-128359450D02*
G01*
X88334088Y-128388610D01*
X88422670Y-128435958D01*
X88500318Y-128499682D01*
X88564042Y-128577330D01*
X88611390Y-128665912D01*
X88640550Y-128762039D01*
X88651000Y-128868140D01*
X88651000Y-130131860D01*
X88640550Y-130237961D01*
X88611390Y-130334088D01*
X88564042Y-130422670D01*
X88500318Y-130500318D01*
X88422670Y-130564042D01*
X88334088Y-130611390D01*
X88237961Y-130640550D01*
X88131860Y-130651000D01*
X86868140Y-130651000D01*
X86762039Y-130640550D01*
X86665912Y-130611390D01*
X86577330Y-130564042D01*
X86499682Y-130500318D01*
X86435958Y-130422670D01*
X86388610Y-130334088D01*
X86359450Y-130237961D01*
X86349000Y-130131860D01*
X86349000Y-128868140D01*
X86359450Y-128762039D01*
X86388610Y-128665912D01*
X86435958Y-128577330D01*
X86499682Y-128499682D01*
X86577330Y-128435958D01*
X86665912Y-128388610D01*
X86762039Y-128359450D01*
X86868140Y-128349000D01*
X88131860Y-128349000D01*
X88237961Y-128359450D01*
G37*
G36*
X107287961Y-128359450D02*
G01*
X107384088Y-128388610D01*
X107472670Y-128435958D01*
X107550318Y-128499682D01*
X107614042Y-128577330D01*
X107661390Y-128665912D01*
X107690550Y-128762039D01*
X107701000Y-128868140D01*
X107701000Y-130131860D01*
X107690550Y-130237961D01*
X107661390Y-130334088D01*
X107614042Y-130422670D01*
X107550318Y-130500318D01*
X107472670Y-130564042D01*
X107384088Y-130611390D01*
X107287961Y-130640550D01*
X107181860Y-130651000D01*
X105918140Y-130651000D01*
X105812039Y-130640550D01*
X105715912Y-130611390D01*
X105627330Y-130564042D01*
X105549682Y-130500318D01*
X105485958Y-130422670D01*
X105438610Y-130334088D01*
X105409450Y-130237961D01*
X105399000Y-130131860D01*
X105399000Y-128868140D01*
X105409450Y-128762039D01*
X105438610Y-128665912D01*
X105485958Y-128577330D01*
X105549682Y-128499682D01*
X105627330Y-128435958D01*
X105715912Y-128388610D01*
X105812039Y-128359450D01*
X105918140Y-128349000D01*
X107181860Y-128349000D01*
X107287961Y-128359450D01*
G37*
G36*
X103477961Y-128359450D02*
G01*
X103574088Y-128388610D01*
X103662670Y-128435958D01*
X103740318Y-128499682D01*
X103804042Y-128577330D01*
X103851390Y-128665912D01*
X103880550Y-128762039D01*
X103891000Y-128868140D01*
X103891000Y-130131860D01*
X103880550Y-130237961D01*
X103851390Y-130334088D01*
X103804042Y-130422670D01*
X103740318Y-130500318D01*
X103662670Y-130564042D01*
X103574088Y-130611390D01*
X103477961Y-130640550D01*
X103371860Y-130651000D01*
X102108140Y-130651000D01*
X102002039Y-130640550D01*
X101905912Y-130611390D01*
X101817330Y-130564042D01*
X101739682Y-130500318D01*
X101675958Y-130422670D01*
X101628610Y-130334088D01*
X101599450Y-130237961D01*
X101589000Y-130131860D01*
X101589000Y-128868140D01*
X101599450Y-128762039D01*
X101628610Y-128665912D01*
X101675958Y-128577330D01*
X101739682Y-128499682D01*
X101817330Y-128435958D01*
X101905912Y-128388610D01*
X102002039Y-128359450D01*
X102108140Y-128349000D01*
X103371860Y-128349000D01*
X103477961Y-128359450D01*
G37*
G36*
X114907961Y-128359450D02*
G01*
X115004088Y-128388610D01*
X115092670Y-128435958D01*
X115170318Y-128499682D01*
X115234042Y-128577330D01*
X115281390Y-128665912D01*
X115310550Y-128762039D01*
X115321000Y-128868140D01*
X115321000Y-130131860D01*
X115310550Y-130237961D01*
X115281390Y-130334088D01*
X115234042Y-130422670D01*
X115170318Y-130500318D01*
X115092670Y-130564042D01*
X115004088Y-130611390D01*
X114907961Y-130640550D01*
X114801860Y-130651000D01*
X113538140Y-130651000D01*
X113432039Y-130640550D01*
X113335912Y-130611390D01*
X113247330Y-130564042D01*
X113169682Y-130500318D01*
X113105958Y-130422670D01*
X113058610Y-130334088D01*
X113029450Y-130237961D01*
X113019000Y-130131860D01*
X113019000Y-128868140D01*
X113029450Y-128762039D01*
X113058610Y-128665912D01*
X113105958Y-128577330D01*
X113169682Y-128499682D01*
X113247330Y-128435958D01*
X113335912Y-128388610D01*
X113432039Y-128359450D01*
X113538140Y-128349000D01*
X114801860Y-128349000D01*
X114907961Y-128359450D01*
G37*
G36*
X99667961Y-128359450D02*
G01*
X99764088Y-128388610D01*
X99852670Y-128435958D01*
X99930318Y-128499682D01*
X99994042Y-128577330D01*
X100041390Y-128665912D01*
X100070550Y-128762039D01*
X100081000Y-128868140D01*
X100081000Y-130131860D01*
X100070550Y-130237961D01*
X100041390Y-130334088D01*
X99994042Y-130422670D01*
X99930318Y-130500318D01*
X99852670Y-130564042D01*
X99764088Y-130611390D01*
X99667961Y-130640550D01*
X99561860Y-130651000D01*
X98298140Y-130651000D01*
X98192039Y-130640550D01*
X98095912Y-130611390D01*
X98007330Y-130564042D01*
X97929682Y-130500318D01*
X97865958Y-130422670D01*
X97818610Y-130334088D01*
X97789450Y-130237961D01*
X97779000Y-130131860D01*
X97779000Y-128868140D01*
X97789450Y-128762039D01*
X97818610Y-128665912D01*
X97865958Y-128577330D01*
X97929682Y-128499682D01*
X98007330Y-128435958D01*
X98095912Y-128388610D01*
X98192039Y-128359450D01*
X98298140Y-128349000D01*
X99561860Y-128349000D01*
X99667961Y-128359450D01*
G37*
G36*
X95857961Y-128359450D02*
G01*
X95954088Y-128388610D01*
X96042670Y-128435958D01*
X96120318Y-128499682D01*
X96184042Y-128577330D01*
X96231390Y-128665912D01*
X96260550Y-128762039D01*
X96271000Y-128868140D01*
X96271000Y-130131860D01*
X96260550Y-130237961D01*
X96231390Y-130334088D01*
X96184042Y-130422670D01*
X96120318Y-130500318D01*
X96042670Y-130564042D01*
X95954088Y-130611390D01*
X95857961Y-130640550D01*
X95751860Y-130651000D01*
X94488140Y-130651000D01*
X94382039Y-130640550D01*
X94285912Y-130611390D01*
X94197330Y-130564042D01*
X94119682Y-130500318D01*
X94055958Y-130422670D01*
X94008610Y-130334088D01*
X93979450Y-130237961D01*
X93969000Y-130131860D01*
X93969000Y-128868140D01*
X93979450Y-128762039D01*
X94008610Y-128665912D01*
X94055958Y-128577330D01*
X94119682Y-128499682D01*
X94197330Y-128435958D01*
X94285912Y-128388610D01*
X94382039Y-128359450D01*
X94488140Y-128349000D01*
X95751860Y-128349000D01*
X95857961Y-128359450D01*
G37*
G36*
X114907961Y-123359450D02*
G01*
X115004088Y-123388610D01*
X115092670Y-123435958D01*
X115170318Y-123499682D01*
X115234042Y-123577330D01*
X115281390Y-123665912D01*
X115310550Y-123762039D01*
X115321000Y-123868140D01*
X115321000Y-125131860D01*
X115310550Y-125237961D01*
X115281390Y-125334088D01*
X115234042Y-125422670D01*
X115170318Y-125500318D01*
X115092670Y-125564042D01*
X115004088Y-125611390D01*
X114907961Y-125640550D01*
X114801860Y-125651000D01*
X113538140Y-125651000D01*
X113432039Y-125640550D01*
X113335912Y-125611390D01*
X113247330Y-125564042D01*
X113169682Y-125500318D01*
X113105958Y-125422670D01*
X113058610Y-125334088D01*
X113029450Y-125237961D01*
X113019000Y-125131860D01*
X113019000Y-123868140D01*
X113029450Y-123762039D01*
X113058610Y-123665912D01*
X113105958Y-123577330D01*
X113169682Y-123499682D01*
X113247330Y-123435958D01*
X113335912Y-123388610D01*
X113432039Y-123359450D01*
X113538140Y-123349000D01*
X114801860Y-123349000D01*
X114907961Y-123359450D01*
G37*
G36*
X103477961Y-123359450D02*
G01*
X103574088Y-123388610D01*
X103662670Y-123435958D01*
X103740318Y-123499682D01*
X103804042Y-123577330D01*
X103851390Y-123665912D01*
X103880550Y-123762039D01*
X103891000Y-123868140D01*
X103891000Y-125131860D01*
X103880550Y-125237961D01*
X103851390Y-125334088D01*
X103804042Y-125422670D01*
X103740318Y-125500318D01*
X103662670Y-125564042D01*
X103574088Y-125611390D01*
X103477961Y-125640550D01*
X103371860Y-125651000D01*
X102108140Y-125651000D01*
X102002039Y-125640550D01*
X101905912Y-125611390D01*
X101817330Y-125564042D01*
X101739682Y-125500318D01*
X101675958Y-125422670D01*
X101628610Y-125334088D01*
X101599450Y-125237961D01*
X101589000Y-125131860D01*
X101589000Y-123868140D01*
X101599450Y-123762039D01*
X101628610Y-123665912D01*
X101675958Y-123577330D01*
X101739682Y-123499682D01*
X101817330Y-123435958D01*
X101905912Y-123388610D01*
X102002039Y-123359450D01*
X102108140Y-123349000D01*
X103371860Y-123349000D01*
X103477961Y-123359450D01*
G37*
G36*
X111097961Y-123359450D02*
G01*
X111194088Y-123388610D01*
X111282670Y-123435958D01*
X111360318Y-123499682D01*
X111424042Y-123577330D01*
X111471390Y-123665912D01*
X111500550Y-123762039D01*
X111511000Y-123868140D01*
X111511000Y-125131860D01*
X111500550Y-125237961D01*
X111471390Y-125334088D01*
X111424042Y-125422670D01*
X111360318Y-125500318D01*
X111282670Y-125564042D01*
X111194088Y-125611390D01*
X111097961Y-125640550D01*
X110991860Y-125651000D01*
X109728140Y-125651000D01*
X109622039Y-125640550D01*
X109525912Y-125611390D01*
X109437330Y-125564042D01*
X109359682Y-125500318D01*
X109295958Y-125422670D01*
X109248610Y-125334088D01*
X109219450Y-125237961D01*
X109209000Y-125131860D01*
X109209000Y-123868140D01*
X109219450Y-123762039D01*
X109248610Y-123665912D01*
X109295958Y-123577330D01*
X109359682Y-123499682D01*
X109437330Y-123435958D01*
X109525912Y-123388610D01*
X109622039Y-123359450D01*
X109728140Y-123349000D01*
X110991860Y-123349000D01*
X111097961Y-123359450D01*
G37*
G36*
X107287961Y-123359450D02*
G01*
X107384088Y-123388610D01*
X107472670Y-123435958D01*
X107550318Y-123499682D01*
X107614042Y-123577330D01*
X107661390Y-123665912D01*
X107690550Y-123762039D01*
X107701000Y-123868140D01*
X107701000Y-125131860D01*
X107690550Y-125237961D01*
X107661390Y-125334088D01*
X107614042Y-125422670D01*
X107550318Y-125500318D01*
X107472670Y-125564042D01*
X107384088Y-125611390D01*
X107287961Y-125640550D01*
X107181860Y-125651000D01*
X105918140Y-125651000D01*
X105812039Y-125640550D01*
X105715912Y-125611390D01*
X105627330Y-125564042D01*
X105549682Y-125500318D01*
X105485958Y-125422670D01*
X105438610Y-125334088D01*
X105409450Y-125237961D01*
X105399000Y-125131860D01*
X105399000Y-123868140D01*
X105409450Y-123762039D01*
X105438610Y-123665912D01*
X105485958Y-123577330D01*
X105549682Y-123499682D01*
X105627330Y-123435958D01*
X105715912Y-123388610D01*
X105812039Y-123359450D01*
X105918140Y-123349000D01*
X107181860Y-123349000D01*
X107287961Y-123359450D01*
G37*
G36*
X99667961Y-123359450D02*
G01*
X99764088Y-123388610D01*
X99852670Y-123435958D01*
X99930318Y-123499682D01*
X99994042Y-123577330D01*
X100041390Y-123665912D01*
X100070550Y-123762039D01*
X100081000Y-123868140D01*
X100081000Y-125131860D01*
X100070550Y-125237961D01*
X100041390Y-125334088D01*
X99994042Y-125422670D01*
X99930318Y-125500318D01*
X99852670Y-125564042D01*
X99764088Y-125611390D01*
X99667961Y-125640550D01*
X99561860Y-125651000D01*
X98298140Y-125651000D01*
X98192039Y-125640550D01*
X98095912Y-125611390D01*
X98007330Y-125564042D01*
X97929682Y-125500318D01*
X97865958Y-125422670D01*
X97818610Y-125334088D01*
X97789450Y-125237961D01*
X97779000Y-125131860D01*
X97779000Y-123868140D01*
X97789450Y-123762039D01*
X97818610Y-123665912D01*
X97865958Y-123577330D01*
X97929682Y-123499682D01*
X98007330Y-123435958D01*
X98095912Y-123388610D01*
X98192039Y-123359450D01*
X98298140Y-123349000D01*
X99561860Y-123349000D01*
X99667961Y-123359450D01*
G37*
G36*
X95857961Y-123359450D02*
G01*
X95954088Y-123388610D01*
X96042670Y-123435958D01*
X96120318Y-123499682D01*
X96184042Y-123577330D01*
X96231390Y-123665912D01*
X96260550Y-123762039D01*
X96271000Y-123868140D01*
X96271000Y-125131860D01*
X96260550Y-125237961D01*
X96231390Y-125334088D01*
X96184042Y-125422670D01*
X96120318Y-125500318D01*
X96042670Y-125564042D01*
X95954088Y-125611390D01*
X95857961Y-125640550D01*
X95751860Y-125651000D01*
X94488140Y-125651000D01*
X94382039Y-125640550D01*
X94285912Y-125611390D01*
X94197330Y-125564042D01*
X94119682Y-125500318D01*
X94055958Y-125422670D01*
X94008610Y-125334088D01*
X93979450Y-125237961D01*
X93969000Y-125131860D01*
X93969000Y-123868140D01*
X93979450Y-123762039D01*
X94008610Y-123665912D01*
X94055958Y-123577330D01*
X94119682Y-123499682D01*
X94197330Y-123435958D01*
X94285912Y-123388610D01*
X94382039Y-123359450D01*
X94488140Y-123349000D01*
X95751860Y-123349000D01*
X95857961Y-123359450D01*
G37*
G36*
X92047961Y-123359450D02*
G01*
X92144088Y-123388610D01*
X92232670Y-123435958D01*
X92310318Y-123499682D01*
X92374042Y-123577330D01*
X92421390Y-123665912D01*
X92450550Y-123762039D01*
X92461000Y-123868140D01*
X92461000Y-125131860D01*
X92450550Y-125237961D01*
X92421390Y-125334088D01*
X92374042Y-125422670D01*
X92310318Y-125500318D01*
X92232670Y-125564042D01*
X92144088Y-125611390D01*
X92047961Y-125640550D01*
X91941860Y-125651000D01*
X90678140Y-125651000D01*
X90572039Y-125640550D01*
X90475912Y-125611390D01*
X90387330Y-125564042D01*
X90309682Y-125500318D01*
X90245958Y-125422670D01*
X90198610Y-125334088D01*
X90169450Y-125237961D01*
X90159000Y-125131860D01*
X90159000Y-123868140D01*
X90169450Y-123762039D01*
X90198610Y-123665912D01*
X90245958Y-123577330D01*
X90309682Y-123499682D01*
X90387330Y-123435958D01*
X90475912Y-123388610D01*
X90572039Y-123359450D01*
X90678140Y-123349000D01*
X91941860Y-123349000D01*
X92047961Y-123359450D01*
G37*
G36*
X88237961Y-123359450D02*
G01*
X88334088Y-123388610D01*
X88422670Y-123435958D01*
X88500318Y-123499682D01*
X88564042Y-123577330D01*
X88611390Y-123665912D01*
X88640550Y-123762039D01*
X88651000Y-123868140D01*
X88651000Y-125131860D01*
X88640550Y-125237961D01*
X88611390Y-125334088D01*
X88564042Y-125422670D01*
X88500318Y-125500318D01*
X88422670Y-125564042D01*
X88334088Y-125611390D01*
X88237961Y-125640550D01*
X88131860Y-125651000D01*
X86868140Y-125651000D01*
X86762039Y-125640550D01*
X86665912Y-125611390D01*
X86577330Y-125564042D01*
X86499682Y-125500318D01*
X86435958Y-125422670D01*
X86388610Y-125334088D01*
X86359450Y-125237961D01*
X86349000Y-125131860D01*
X86349000Y-123868140D01*
X86359450Y-123762039D01*
X86388610Y-123665912D01*
X86435958Y-123577330D01*
X86499682Y-123499682D01*
X86577330Y-123435958D01*
X86665912Y-123388610D01*
X86762039Y-123359450D01*
X86868140Y-123349000D01*
X88131860Y-123349000D01*
X88237961Y-123359450D01*
G37*
G36*
X114284999Y-118699737D02*
G01*
X114294608Y-118702652D01*
X114303472Y-118707390D01*
X114311212Y-118713742D01*
X114311213Y-118713743D01*
X114311237Y-118713763D01*
X114317640Y-118721573D01*
X114317677Y-118721628D01*
X114325480Y-118731147D01*
X114325511Y-118731122D01*
X114336853Y-118744972D01*
X114355779Y-118760537D01*
X114377377Y-118772111D01*
X114400819Y-118779249D01*
X114425202Y-118781676D01*
X114449591Y-118779300D01*
X114473047Y-118772211D01*
X114494670Y-118760682D01*
X114513628Y-118745157D01*
X114529193Y-118726231D01*
X114531029Y-118723175D01*
X114532418Y-118721486D01*
X114532419Y-118721484D01*
X114538801Y-118713725D01*
X114546573Y-118707360D01*
X114546575Y-118707358D01*
X114555399Y-118702654D01*
X114555438Y-118702633D01*
X114565055Y-118699727D01*
X114565085Y-118699718D01*
X114581113Y-118698148D01*
X115718860Y-118698148D01*
X115734999Y-118699737D01*
X115744608Y-118702652D01*
X115753472Y-118707390D01*
X115761237Y-118713763D01*
X115767610Y-118721528D01*
X115772348Y-118730392D01*
X115775263Y-118740001D01*
X115776852Y-118756140D01*
X115776852Y-120243860D01*
X115775263Y-120259999D01*
X115772348Y-120269608D01*
X115767610Y-120278472D01*
X115761237Y-120286237D01*
X115753472Y-120292610D01*
X115744608Y-120297348D01*
X115734999Y-120300263D01*
X115718860Y-120301852D01*
X114581140Y-120301852D01*
X114565001Y-120300263D01*
X114555392Y-120297348D01*
X114546528Y-120292610D01*
X114538763Y-120286237D01*
X114528116Y-120273263D01*
X114521947Y-120264032D01*
X114504619Y-120246706D01*
X114484244Y-120233093D01*
X114461605Y-120223717D01*
X114437572Y-120218937D01*
X114413068Y-120218938D01*
X114389035Y-120223720D01*
X114366396Y-120233098D01*
X114346022Y-120246713D01*
X114328696Y-120264041D01*
X114321825Y-120273317D01*
X114317640Y-120278427D01*
X114311275Y-120286199D01*
X114303516Y-120292581D01*
X114294661Y-120297326D01*
X114291623Y-120298251D01*
X114285085Y-120300242D01*
X114285082Y-120300242D01*
X114285050Y-120300252D01*
X114275000Y-120301247D01*
X114274935Y-120301247D01*
X114268825Y-120301852D01*
X113281140Y-120301852D01*
X113265001Y-120300263D01*
X113255392Y-120297348D01*
X113246528Y-120292610D01*
X113238763Y-120286237D01*
X113232390Y-120278472D01*
X113227652Y-120269608D01*
X113224737Y-120259999D01*
X113223148Y-120243860D01*
X113223148Y-118756140D01*
X113224737Y-118740001D01*
X113227652Y-118730392D01*
X113232390Y-118721528D01*
X113238763Y-118713763D01*
X113246528Y-118707390D01*
X113255392Y-118702652D01*
X113265001Y-118699737D01*
X113281140Y-118698148D01*
X114268860Y-118698148D01*
X114284999Y-118699737D01*
G37*
G36*
X114284999Y-115699737D02*
G01*
X114294608Y-115702652D01*
X114303472Y-115707390D01*
X114311212Y-115713742D01*
X114311213Y-115713743D01*
X114311237Y-115713763D01*
X114317640Y-115721573D01*
X114317677Y-115721628D01*
X114325480Y-115731147D01*
X114325511Y-115731122D01*
X114336853Y-115744972D01*
X114355779Y-115760537D01*
X114377377Y-115772111D01*
X114400819Y-115779249D01*
X114425202Y-115781676D01*
X114449591Y-115779300D01*
X114473047Y-115772211D01*
X114494670Y-115760682D01*
X114513628Y-115745157D01*
X114529193Y-115726231D01*
X114531029Y-115723175D01*
X114532418Y-115721486D01*
X114532419Y-115721484D01*
X114538801Y-115713725D01*
X114546573Y-115707360D01*
X114546575Y-115707358D01*
X114555399Y-115702654D01*
X114555438Y-115702633D01*
X114565055Y-115699727D01*
X114565085Y-115699718D01*
X114581113Y-115698148D01*
X115718860Y-115698148D01*
X115734999Y-115699737D01*
X115744608Y-115702652D01*
X115753472Y-115707390D01*
X115761237Y-115713763D01*
X115767610Y-115721528D01*
X115772348Y-115730392D01*
X115775263Y-115740001D01*
X115776852Y-115756140D01*
X115776852Y-117243860D01*
X115775263Y-117259999D01*
X115772348Y-117269608D01*
X115767610Y-117278472D01*
X115761237Y-117286237D01*
X115753472Y-117292610D01*
X115744608Y-117297348D01*
X115734999Y-117300263D01*
X115718860Y-117301852D01*
X114581140Y-117301852D01*
X114565001Y-117300263D01*
X114555392Y-117297348D01*
X114546528Y-117292610D01*
X114538763Y-117286237D01*
X114528116Y-117273263D01*
X114521947Y-117264032D01*
X114504619Y-117246706D01*
X114484244Y-117233093D01*
X114461605Y-117223717D01*
X114437572Y-117218937D01*
X114413068Y-117218938D01*
X114389035Y-117223720D01*
X114366396Y-117233098D01*
X114346022Y-117246713D01*
X114328696Y-117264041D01*
X114321825Y-117273317D01*
X114317640Y-117278427D01*
X114311275Y-117286199D01*
X114303516Y-117292581D01*
X114294661Y-117297326D01*
X114291623Y-117298251D01*
X114285085Y-117300242D01*
X114285082Y-117300242D01*
X114285050Y-117300252D01*
X114275000Y-117301247D01*
X114274935Y-117301247D01*
X114268825Y-117301852D01*
X113281140Y-117301852D01*
X113265001Y-117300263D01*
X113255392Y-117297348D01*
X113246528Y-117292610D01*
X113238763Y-117286237D01*
X113232390Y-117278472D01*
X113227652Y-117269608D01*
X113224737Y-117259999D01*
X113223148Y-117243860D01*
X113223148Y-115756140D01*
X113224737Y-115740001D01*
X113227652Y-115730392D01*
X113232390Y-115721528D01*
X113238763Y-115713763D01*
X113246528Y-115707390D01*
X113255392Y-115702652D01*
X113265001Y-115699737D01*
X113281140Y-115698148D01*
X114268860Y-115698148D01*
X114284999Y-115699737D01*
G37*
G36*
X88939983Y-114728434D02*
G01*
X88977372Y-114739776D01*
X89011826Y-114758191D01*
X89042025Y-114782975D01*
X89066809Y-114813174D01*
X89085224Y-114847628D01*
X89096566Y-114885017D01*
X89101000Y-114930035D01*
X89101000Y-116069965D01*
X89096566Y-116114983D01*
X89085224Y-116152372D01*
X89066809Y-116186826D01*
X89042025Y-116217025D01*
X89011826Y-116241809D01*
X88977372Y-116260224D01*
X88939983Y-116271566D01*
X88894965Y-116276000D01*
X88030035Y-116276000D01*
X87985017Y-116271566D01*
X87947628Y-116260224D01*
X87913174Y-116241809D01*
X87882975Y-116217025D01*
X87858191Y-116186826D01*
X87839776Y-116152372D01*
X87828434Y-116114983D01*
X87824000Y-116069965D01*
X87824000Y-114930035D01*
X87828434Y-114885017D01*
X87839776Y-114847628D01*
X87858191Y-114813174D01*
X87882975Y-114782975D01*
X87913174Y-114758191D01*
X87947628Y-114739776D01*
X87985017Y-114728434D01*
X88030035Y-114724000D01*
X88894965Y-114724000D01*
X88939983Y-114728434D01*
G37*
G36*
X91014983Y-114728434D02*
G01*
X91052372Y-114739776D01*
X91086826Y-114758191D01*
X91117025Y-114782975D01*
X91141809Y-114813174D01*
X91160224Y-114847628D01*
X91171566Y-114885017D01*
X91176000Y-114930035D01*
X91176000Y-116069965D01*
X91171566Y-116114983D01*
X91160224Y-116152372D01*
X91141809Y-116186826D01*
X91117025Y-116217025D01*
X91086826Y-116241809D01*
X91052372Y-116260224D01*
X91014983Y-116271566D01*
X90969965Y-116276000D01*
X90105035Y-116276000D01*
X90060017Y-116271566D01*
X90022628Y-116260224D01*
X89988174Y-116241809D01*
X89957975Y-116217025D01*
X89933191Y-116186826D01*
X89914776Y-116152372D01*
X89903434Y-116114983D01*
X89899000Y-116069965D01*
X89899000Y-114930035D01*
X89903434Y-114885017D01*
X89914776Y-114847628D01*
X89933191Y-114813174D01*
X89957975Y-114782975D01*
X89988174Y-114758191D01*
X90022628Y-114739776D01*
X90060017Y-114728434D01*
X90105035Y-114724000D01*
X90969965Y-114724000D01*
X91014983Y-114728434D01*
G37*
G36*
X97052483Y-114728434D02*
G01*
X97089872Y-114739776D01*
X97124326Y-114758191D01*
X97154525Y-114782975D01*
X97179309Y-114813174D01*
X97197724Y-114847628D01*
X97209066Y-114885017D01*
X97213500Y-114930035D01*
X97213500Y-116069965D01*
X97209066Y-116114983D01*
X97197724Y-116152372D01*
X97179309Y-116186826D01*
X97154525Y-116217025D01*
X97124326Y-116241809D01*
X97089872Y-116260224D01*
X97052483Y-116271566D01*
X97007465Y-116276000D01*
X96142535Y-116276000D01*
X96097517Y-116271566D01*
X96060128Y-116260224D01*
X96025674Y-116241809D01*
X95995475Y-116217025D01*
X95970691Y-116186826D01*
X95952276Y-116152372D01*
X95940934Y-116114983D01*
X95936500Y-116069965D01*
X95936500Y-114930035D01*
X95940934Y-114885017D01*
X95952276Y-114847628D01*
X95970691Y-114813174D01*
X95995475Y-114782975D01*
X96025674Y-114758191D01*
X96060128Y-114739776D01*
X96097517Y-114728434D01*
X96142535Y-114724000D01*
X97007465Y-114724000D01*
X97052483Y-114728434D01*
G37*
G36*
X94977483Y-114728434D02*
G01*
X95014872Y-114739776D01*
X95049326Y-114758191D01*
X95079525Y-114782975D01*
X95104309Y-114813174D01*
X95122724Y-114847628D01*
X95134066Y-114885017D01*
X95138500Y-114930035D01*
X95138500Y-116069965D01*
X95134066Y-116114983D01*
X95122724Y-116152372D01*
X95104309Y-116186826D01*
X95079525Y-116217025D01*
X95049326Y-116241809D01*
X95014872Y-116260224D01*
X94977483Y-116271566D01*
X94932465Y-116276000D01*
X94067535Y-116276000D01*
X94022517Y-116271566D01*
X93985128Y-116260224D01*
X93950674Y-116241809D01*
X93920475Y-116217025D01*
X93895691Y-116186826D01*
X93877276Y-116152372D01*
X93865934Y-116114983D01*
X93861500Y-116069965D01*
X93861500Y-114930035D01*
X93865934Y-114885017D01*
X93877276Y-114847628D01*
X93895691Y-114813174D01*
X93920475Y-114782975D01*
X93950674Y-114758191D01*
X93985128Y-114739776D01*
X94022517Y-114728434D01*
X94067535Y-114724000D01*
X94932465Y-114724000D01*
X94977483Y-114728434D01*
G37*
G36*
X115591242Y-113353404D02*
G01*
X115628337Y-113364657D01*
X115662515Y-113382925D01*
X115692481Y-113407519D01*
X115717075Y-113437485D01*
X115735343Y-113471663D01*
X115746596Y-113508758D01*
X115751000Y-113553474D01*
X115751000Y-114446526D01*
X115746596Y-114491242D01*
X115735343Y-114528337D01*
X115717075Y-114562515D01*
X115692481Y-114592481D01*
X115662515Y-114617075D01*
X115628337Y-114635343D01*
X115591242Y-114646596D01*
X115546526Y-114651000D01*
X114453474Y-114651000D01*
X114408758Y-114646596D01*
X114371663Y-114635343D01*
X114337485Y-114617075D01*
X114307519Y-114592481D01*
X114282925Y-114562515D01*
X114264657Y-114528337D01*
X114253404Y-114491242D01*
X114249000Y-114446526D01*
X114249000Y-113553474D01*
X114253404Y-113508758D01*
X114264657Y-113471663D01*
X114282925Y-113437485D01*
X114307519Y-113407519D01*
X114337485Y-113382925D01*
X114371663Y-113364657D01*
X114408758Y-113353404D01*
X114453474Y-113349000D01*
X115546526Y-113349000D01*
X115591242Y-113353404D01*
G37*
G36*
X85591242Y-112853404D02*
G01*
X85628337Y-112864657D01*
X85662515Y-112882925D01*
X85692481Y-112907519D01*
X85717075Y-112937485D01*
X85735343Y-112971663D01*
X85746596Y-113008758D01*
X85751000Y-113053474D01*
X85751000Y-113946526D01*
X85746596Y-113991242D01*
X85735343Y-114028337D01*
X85717075Y-114062515D01*
X85692481Y-114092481D01*
X85662515Y-114117075D01*
X85628337Y-114135343D01*
X85591242Y-114146596D01*
X85546526Y-114151000D01*
X84453474Y-114151000D01*
X84408758Y-114146596D01*
X84371663Y-114135343D01*
X84337485Y-114117075D01*
X84307519Y-114092481D01*
X84282925Y-114062515D01*
X84264657Y-114028337D01*
X84253404Y-113991242D01*
X84249000Y-113946526D01*
X84249000Y-113053474D01*
X84253404Y-113008758D01*
X84264657Y-112971663D01*
X84282925Y-112937485D01*
X84307519Y-112907519D01*
X84337485Y-112882925D01*
X84371663Y-112864657D01*
X84408758Y-112853404D01*
X84453474Y-112849000D01*
X85546526Y-112849000D01*
X85591242Y-112853404D01*
G37*
G36*
X115591242Y-111353404D02*
G01*
X115628337Y-111364657D01*
X115662515Y-111382925D01*
X115692481Y-111407519D01*
X115717075Y-111437485D01*
X115735343Y-111471663D01*
X115746596Y-111508758D01*
X115751000Y-111553474D01*
X115751000Y-112446526D01*
X115746596Y-112491242D01*
X115735343Y-112528337D01*
X115717075Y-112562515D01*
X115692481Y-112592481D01*
X115662515Y-112617075D01*
X115628337Y-112635343D01*
X115591242Y-112646596D01*
X115546526Y-112651000D01*
X114453474Y-112651000D01*
X114408758Y-112646596D01*
X114371663Y-112635343D01*
X114337485Y-112617075D01*
X114307519Y-112592481D01*
X114282925Y-112562515D01*
X114264657Y-112528337D01*
X114253404Y-112491242D01*
X114249000Y-112446526D01*
X114249000Y-111553474D01*
X114253404Y-111508758D01*
X114264657Y-111471663D01*
X114282925Y-111437485D01*
X114307519Y-111407519D01*
X114337485Y-111382925D01*
X114371663Y-111364657D01*
X114408758Y-111353404D01*
X114453474Y-111349000D01*
X115546526Y-111349000D01*
X115591242Y-111353404D01*
G37*
G36*
X93306000Y-112357000D02*
G01*
X91699000Y-112357000D01*
X91699000Y-111453000D01*
X93306000Y-111453000D01*
X93306000Y-112357000D01*
G37*
G36*
X98301000Y-112357000D02*
G01*
X96694000Y-112357000D01*
X96694000Y-111453000D01*
X98301000Y-111453000D01*
X98301000Y-112357000D01*
G37*
G36*
X85591242Y-110853404D02*
G01*
X85628337Y-110864657D01*
X85662515Y-110882925D01*
X85692481Y-110907519D01*
X85717075Y-110937485D01*
X85735343Y-110971663D01*
X85746596Y-111008758D01*
X85751000Y-111053474D01*
X85751000Y-111946526D01*
X85746596Y-111991242D01*
X85735343Y-112028337D01*
X85717075Y-112062515D01*
X85692481Y-112092481D01*
X85662515Y-112117075D01*
X85628337Y-112135343D01*
X85591242Y-112146596D01*
X85546526Y-112151000D01*
X84453474Y-112151000D01*
X84408758Y-112146596D01*
X84371663Y-112135343D01*
X84337485Y-112117075D01*
X84307519Y-112092481D01*
X84282925Y-112062515D01*
X84264657Y-112028337D01*
X84253404Y-111991242D01*
X84249000Y-111946526D01*
X84249000Y-111053474D01*
X84253404Y-111008758D01*
X84264657Y-110971663D01*
X84282925Y-110937485D01*
X84307519Y-110907519D01*
X84337485Y-110882925D01*
X84371663Y-110864657D01*
X84408758Y-110853404D01*
X84453474Y-110849000D01*
X85546526Y-110849000D01*
X85591242Y-110853404D01*
G37*
G36*
X96357500Y-111802000D02*
G01*
X93642500Y-111802000D01*
X93642500Y-108198000D01*
X96357500Y-108198000D01*
X96357500Y-111802000D01*
G37*
G36*
X98301000Y-111087000D02*
G01*
X96694000Y-111087000D01*
X96694000Y-110183000D01*
X98301000Y-110183000D01*
X98301000Y-111087000D01*
G37*
G36*
X93306000Y-111087000D02*
G01*
X91699000Y-111087000D01*
X91699000Y-110183000D01*
X93306000Y-110183000D01*
X93306000Y-111087000D01*
G37*
G36*
X101114983Y-108903434D02*
G01*
X101152372Y-108914776D01*
X101186826Y-108933191D01*
X101217025Y-108957975D01*
X101241809Y-108988174D01*
X101260224Y-109022628D01*
X101271566Y-109060017D01*
X101276000Y-109105035D01*
X101276000Y-109969965D01*
X101271566Y-110014983D01*
X101260224Y-110052372D01*
X101241809Y-110086826D01*
X101217025Y-110117025D01*
X101186826Y-110141809D01*
X101152372Y-110160224D01*
X101114983Y-110171566D01*
X101069965Y-110176000D01*
X99930035Y-110176000D01*
X99885017Y-110171566D01*
X99847628Y-110160224D01*
X99813174Y-110141809D01*
X99782975Y-110117025D01*
X99758191Y-110086826D01*
X99739776Y-110052372D01*
X99728434Y-110014983D01*
X99724000Y-109969965D01*
X99724000Y-109105035D01*
X99728434Y-109060017D01*
X99739776Y-109022628D01*
X99758191Y-108988174D01*
X99782975Y-108957975D01*
X99813174Y-108933191D01*
X99847628Y-108914776D01*
X99885017Y-108903434D01*
X99930035Y-108899000D01*
X101069965Y-108899000D01*
X101114983Y-108903434D01*
G37*
G36*
X93306000Y-109817000D02*
G01*
X91699000Y-109817000D01*
X91699000Y-108913000D01*
X93306000Y-108913000D01*
X93306000Y-109817000D01*
G37*
G36*
X98301000Y-109817000D02*
G01*
X96694000Y-109817000D01*
X96694000Y-108913000D01*
X98301000Y-108913000D01*
X98301000Y-109817000D01*
G37*
G36*
X113501000Y-108901000D02*
G01*
X112499000Y-108901000D01*
X112499000Y-107999000D01*
X113501000Y-107999000D01*
X113501000Y-108901000D01*
G37*
G36*
X90014983Y-107228434D02*
G01*
X90052372Y-107239776D01*
X90086826Y-107258191D01*
X90117025Y-107282975D01*
X90141809Y-107313174D01*
X90160224Y-107347628D01*
X90171566Y-107385017D01*
X90176000Y-107430035D01*
X90176000Y-108569965D01*
X90171566Y-108614983D01*
X90160224Y-108652372D01*
X90141809Y-108686826D01*
X90117025Y-108717025D01*
X90086826Y-108741809D01*
X90052372Y-108760224D01*
X90014983Y-108771566D01*
X89969965Y-108776000D01*
X89105035Y-108776000D01*
X89060017Y-108771566D01*
X89022628Y-108760224D01*
X88988174Y-108741809D01*
X88957975Y-108717025D01*
X88933191Y-108686826D01*
X88914776Y-108652372D01*
X88903434Y-108614983D01*
X88899000Y-108569965D01*
X88899000Y-107430035D01*
X88903434Y-107385017D01*
X88914776Y-107347628D01*
X88933191Y-107313174D01*
X88957975Y-107282975D01*
X88988174Y-107258191D01*
X89022628Y-107239776D01*
X89060017Y-107228434D01*
X89105035Y-107224000D01*
X89969965Y-107224000D01*
X90014983Y-107228434D01*
G37*
G36*
X87939983Y-107228434D02*
G01*
X87977372Y-107239776D01*
X88011826Y-107258191D01*
X88042025Y-107282975D01*
X88066809Y-107313174D01*
X88085224Y-107347628D01*
X88096566Y-107385017D01*
X88101000Y-107430035D01*
X88101000Y-108569965D01*
X88096566Y-108614983D01*
X88085224Y-108652372D01*
X88066809Y-108686826D01*
X88042025Y-108717025D01*
X88011826Y-108741809D01*
X87977372Y-108760224D01*
X87939983Y-108771566D01*
X87894965Y-108776000D01*
X87030035Y-108776000D01*
X86985017Y-108771566D01*
X86947628Y-108760224D01*
X86913174Y-108741809D01*
X86882975Y-108717025D01*
X86858191Y-108686826D01*
X86839776Y-108652372D01*
X86828434Y-108614983D01*
X86824000Y-108569965D01*
X86824000Y-107430035D01*
X86828434Y-107385017D01*
X86839776Y-107347628D01*
X86858191Y-107313174D01*
X86882975Y-107282975D01*
X86913174Y-107258191D01*
X86947628Y-107239776D01*
X86985017Y-107228434D01*
X87030035Y-107224000D01*
X87894965Y-107224000D01*
X87939983Y-107228434D01*
G37*
G36*
X93306000Y-108547000D02*
G01*
X91699000Y-108547000D01*
X91699000Y-107643000D01*
X93306000Y-107643000D01*
X93306000Y-108547000D01*
G37*
G36*
X98301000Y-108547000D02*
G01*
X96694000Y-108547000D01*
X96694000Y-107643000D01*
X98301000Y-107643000D01*
X98301000Y-108547000D01*
G37*
G36*
X101114983Y-106828434D02*
G01*
X101152372Y-106839776D01*
X101186826Y-106858191D01*
X101217025Y-106882975D01*
X101241809Y-106913174D01*
X101260224Y-106947628D01*
X101271566Y-106985017D01*
X101276000Y-107030035D01*
X101276000Y-107894965D01*
X101271566Y-107939983D01*
X101260224Y-107977372D01*
X101241809Y-108011826D01*
X101217025Y-108042025D01*
X101186826Y-108066809D01*
X101152372Y-108085224D01*
X101114983Y-108096566D01*
X101069965Y-108101000D01*
X99930035Y-108101000D01*
X99885017Y-108096566D01*
X99847628Y-108085224D01*
X99813174Y-108066809D01*
X99782975Y-108042025D01*
X99758191Y-108011826D01*
X99739776Y-107977372D01*
X99728434Y-107939983D01*
X99724000Y-107894965D01*
X99724000Y-107030035D01*
X99728434Y-106985017D01*
X99739776Y-106947628D01*
X99758191Y-106913174D01*
X99782975Y-106882975D01*
X99813174Y-106858191D01*
X99847628Y-106839776D01*
X99885017Y-106828434D01*
X99930035Y-106824000D01*
X101069965Y-106824000D01*
X101114983Y-106828434D01*
G37*
G36*
X115501000Y-107951000D02*
G01*
X114499000Y-107951000D01*
X114499000Y-107049000D01*
X115501000Y-107049000D01*
X115501000Y-107951000D01*
G37*
G36*
X113501000Y-107001000D02*
G01*
X112499000Y-107001000D01*
X112499000Y-106099000D01*
X113501000Y-106099000D01*
X113501000Y-107001000D01*
G37*
G36*
X115491242Y-102753404D02*
G01*
X115528337Y-102764657D01*
X115562515Y-102782925D01*
X115592481Y-102807519D01*
X115617075Y-102837485D01*
X115635343Y-102871663D01*
X115646596Y-102908758D01*
X115651000Y-102953474D01*
X115651000Y-104046526D01*
X115646596Y-104091242D01*
X115635343Y-104128337D01*
X115617075Y-104162515D01*
X115592481Y-104192481D01*
X115562515Y-104217075D01*
X115528337Y-104235343D01*
X115491242Y-104246596D01*
X115446526Y-104251000D01*
X114553474Y-104251000D01*
X114508758Y-104246596D01*
X114471663Y-104235343D01*
X114437485Y-104217075D01*
X114407519Y-104192481D01*
X114382925Y-104162515D01*
X114364657Y-104128337D01*
X114353404Y-104091242D01*
X114349000Y-104046526D01*
X114349000Y-102953474D01*
X114353404Y-102908758D01*
X114364657Y-102871663D01*
X114382925Y-102837485D01*
X114407519Y-102807519D01*
X114437485Y-102782925D01*
X114471663Y-102764657D01*
X114508758Y-102753404D01*
X114553474Y-102749000D01*
X115446526Y-102749000D01*
X115491242Y-102753404D01*
G37*
G36*
X113491242Y-102753404D02*
G01*
X113528337Y-102764657D01*
X113562515Y-102782925D01*
X113592481Y-102807519D01*
X113617075Y-102837485D01*
X113635343Y-102871663D01*
X113646596Y-102908758D01*
X113651000Y-102953474D01*
X113651000Y-104046526D01*
X113646596Y-104091242D01*
X113635343Y-104128337D01*
X113617075Y-104162515D01*
X113592481Y-104192481D01*
X113562515Y-104217075D01*
X113528337Y-104235343D01*
X113491242Y-104246596D01*
X113446526Y-104251000D01*
X112553474Y-104251000D01*
X112508758Y-104246596D01*
X112471663Y-104235343D01*
X112437485Y-104217075D01*
X112407519Y-104192481D01*
X112382925Y-104162515D01*
X112364657Y-104128337D01*
X112353404Y-104091242D01*
X112349000Y-104046526D01*
X112349000Y-102953474D01*
X112353404Y-102908758D01*
X112364657Y-102871663D01*
X112382925Y-102837485D01*
X112407519Y-102807519D01*
X112437485Y-102782925D01*
X112471663Y-102764657D01*
X112508758Y-102753404D01*
X112553474Y-102749000D01*
X113446526Y-102749000D01*
X113491242Y-102753404D01*
G37*
G36*
X85591242Y-102353404D02*
G01*
X85628337Y-102364657D01*
X85662515Y-102382925D01*
X85692481Y-102407519D01*
X85717075Y-102437485D01*
X85735343Y-102471663D01*
X85746596Y-102508758D01*
X85751000Y-102553474D01*
X85751000Y-103446526D01*
X85746596Y-103491242D01*
X85735343Y-103528337D01*
X85717075Y-103562515D01*
X85692481Y-103592481D01*
X85662515Y-103617075D01*
X85628337Y-103635343D01*
X85591242Y-103646596D01*
X85546526Y-103651000D01*
X84453474Y-103651000D01*
X84408758Y-103646596D01*
X84371663Y-103635343D01*
X84337485Y-103617075D01*
X84307519Y-103592481D01*
X84282925Y-103562515D01*
X84264657Y-103528337D01*
X84253404Y-103491242D01*
X84249000Y-103446526D01*
X84249000Y-102553474D01*
X84253404Y-102508758D01*
X84264657Y-102471663D01*
X84282925Y-102437485D01*
X84307519Y-102407519D01*
X84337485Y-102382925D01*
X84371663Y-102364657D01*
X84408758Y-102353404D01*
X84453474Y-102349000D01*
X85546526Y-102349000D01*
X85591242Y-102353404D01*
G37*
G36*
X110088674Y-101403465D02*
G01*
X110126367Y-101414899D01*
X110161103Y-101433466D01*
X110191548Y-101458452D01*
X110216534Y-101488897D01*
X110235101Y-101523633D01*
X110246535Y-101561326D01*
X110251000Y-101606661D01*
X110251000Y-102443339D01*
X110246535Y-102488674D01*
X110235101Y-102526367D01*
X110216534Y-102561103D01*
X110191548Y-102591548D01*
X110161103Y-102616534D01*
X110126367Y-102635101D01*
X110088674Y-102646535D01*
X110043339Y-102651000D01*
X108956661Y-102651000D01*
X108911326Y-102646535D01*
X108873633Y-102635101D01*
X108838897Y-102616534D01*
X108808452Y-102591548D01*
X108783466Y-102561103D01*
X108764899Y-102526367D01*
X108753465Y-102488674D01*
X108749000Y-102443339D01*
X108749000Y-101606661D01*
X108753465Y-101561326D01*
X108764899Y-101523633D01*
X108783466Y-101488897D01*
X108808452Y-101458452D01*
X108838897Y-101433466D01*
X108873633Y-101414899D01*
X108911326Y-101403465D01*
X108956661Y-101399000D01*
X110043339Y-101399000D01*
X110088674Y-101403465D01*
G37*
G36*
X85591242Y-100353404D02*
G01*
X85628337Y-100364657D01*
X85662515Y-100382925D01*
X85692481Y-100407519D01*
X85717075Y-100437485D01*
X85735343Y-100471663D01*
X85746596Y-100508758D01*
X85751000Y-100553474D01*
X85751000Y-101446526D01*
X85746596Y-101491242D01*
X85735343Y-101528337D01*
X85717075Y-101562515D01*
X85692481Y-101592481D01*
X85662515Y-101617075D01*
X85628337Y-101635343D01*
X85591242Y-101646596D01*
X85546526Y-101651000D01*
X84453474Y-101651000D01*
X84408758Y-101646596D01*
X84371663Y-101635343D01*
X84337485Y-101617075D01*
X84307519Y-101592481D01*
X84282925Y-101562515D01*
X84264657Y-101528337D01*
X84253404Y-101491242D01*
X84249000Y-101446526D01*
X84249000Y-100553474D01*
X84253404Y-100508758D01*
X84264657Y-100471663D01*
X84282925Y-100437485D01*
X84307519Y-100407519D01*
X84337485Y-100382925D01*
X84371663Y-100364657D01*
X84408758Y-100353404D01*
X84453474Y-100349000D01*
X85546526Y-100349000D01*
X85591242Y-100353404D01*
G37*
G36*
X101737142Y-99758242D02*
G01*
X101885101Y-99819529D01*
X102018255Y-99908499D01*
X102131501Y-100021745D01*
X102220471Y-100154899D01*
X102281758Y-100302858D01*
X102313000Y-100459925D01*
X102313000Y-100620075D01*
X102281758Y-100777142D01*
X102220471Y-100925101D01*
X102131501Y-101058255D01*
X102018255Y-101171501D01*
X101885101Y-101260471D01*
X101737142Y-101321758D01*
X101580075Y-101353000D01*
X101419925Y-101353000D01*
X101262858Y-101321758D01*
X101114899Y-101260471D01*
X100981745Y-101171501D01*
X100868499Y-101058255D01*
X100779529Y-100925101D01*
X100718242Y-100777142D01*
X100687000Y-100620075D01*
X100687000Y-100459925D01*
X100718242Y-100302858D01*
X100779529Y-100154899D01*
X100868499Y-100021745D01*
X100981745Y-99908499D01*
X101114899Y-99819529D01*
X101262858Y-99758242D01*
X101419925Y-99727000D01*
X101580075Y-99727000D01*
X101737142Y-99758242D01*
G37*
G36*
X110088674Y-99353465D02*
G01*
X110126367Y-99364899D01*
X110161103Y-99383466D01*
X110191548Y-99408452D01*
X110216534Y-99438897D01*
X110235101Y-99473633D01*
X110246535Y-99511326D01*
X110251000Y-99556661D01*
X110251000Y-100393339D01*
X110246535Y-100438674D01*
X110235101Y-100476367D01*
X110216534Y-100511103D01*
X110191548Y-100541548D01*
X110161103Y-100566534D01*
X110126367Y-100585101D01*
X110088674Y-100596535D01*
X110043339Y-100601000D01*
X108956661Y-100601000D01*
X108911326Y-100596535D01*
X108873633Y-100585101D01*
X108838897Y-100566534D01*
X108808452Y-100541548D01*
X108783466Y-100511103D01*
X108764899Y-100476367D01*
X108753465Y-100438674D01*
X108749000Y-100393339D01*
X108749000Y-99556661D01*
X108753465Y-99511326D01*
X108764899Y-99473633D01*
X108783466Y-99438897D01*
X108808452Y-99408452D01*
X108838897Y-99383466D01*
X108873633Y-99364899D01*
X108911326Y-99353465D01*
X108956661Y-99349000D01*
X110043339Y-99349000D01*
X110088674Y-99353465D01*
G37*
G36*
X101737142Y-97218242D02*
G01*
X101885101Y-97279529D01*
X102018255Y-97368499D01*
X102131501Y-97481745D01*
X102220471Y-97614899D01*
X102281758Y-97762858D01*
X102313000Y-97919925D01*
X102313000Y-98080075D01*
X102281758Y-98237142D01*
X102220471Y-98385101D01*
X102131501Y-98518255D01*
X102018255Y-98631501D01*
X101885101Y-98720471D01*
X101737142Y-98781758D01*
X101580075Y-98813000D01*
X101419925Y-98813000D01*
X101262858Y-98781758D01*
X101114899Y-98720471D01*
X100981745Y-98631501D01*
X100868499Y-98518255D01*
X100779529Y-98385101D01*
X100718242Y-98237142D01*
X100687000Y-98080075D01*
X100687000Y-97919925D01*
X100718242Y-97762858D01*
X100779529Y-97614899D01*
X100868499Y-97481745D01*
X100981745Y-97368499D01*
X101114899Y-97279529D01*
X101262858Y-97218242D01*
X101419925Y-97187000D01*
X101580075Y-97187000D01*
X101737142Y-97218242D01*
G37*
G36*
X86451000Y-97001000D02*
G01*
X85549000Y-97001000D01*
X85549000Y-95999000D01*
X86451000Y-95999000D01*
X86451000Y-97001000D01*
G37*
G36*
X93091242Y-95353404D02*
G01*
X93128337Y-95364657D01*
X93162515Y-95382925D01*
X93192481Y-95407519D01*
X93217075Y-95437485D01*
X93235343Y-95471663D01*
X93246596Y-95508758D01*
X93251000Y-95553474D01*
X93251000Y-96446526D01*
X93246596Y-96491242D01*
X93235343Y-96528337D01*
X93217075Y-96562515D01*
X93192481Y-96592481D01*
X93162515Y-96617075D01*
X93128337Y-96635343D01*
X93091242Y-96646596D01*
X93046526Y-96651000D01*
X91953474Y-96651000D01*
X91908758Y-96646596D01*
X91871663Y-96635343D01*
X91837485Y-96617075D01*
X91807519Y-96592481D01*
X91782925Y-96562515D01*
X91764657Y-96528337D01*
X91753404Y-96491242D01*
X91749000Y-96446526D01*
X91749000Y-95553474D01*
X91753404Y-95508758D01*
X91764657Y-95471663D01*
X91782925Y-95437485D01*
X91807519Y-95407519D01*
X91837485Y-95382925D01*
X91871663Y-95364657D01*
X91908758Y-95353404D01*
X91953474Y-95349000D01*
X93046526Y-95349000D01*
X93091242Y-95353404D01*
G37*
G36*
X90591242Y-95353404D02*
G01*
X90628337Y-95364657D01*
X90662515Y-95382925D01*
X90692481Y-95407519D01*
X90717075Y-95437485D01*
X90735343Y-95471663D01*
X90746596Y-95508758D01*
X90751000Y-95553474D01*
X90751000Y-96446526D01*
X90746596Y-96491242D01*
X90735343Y-96528337D01*
X90717075Y-96562515D01*
X90692481Y-96592481D01*
X90662515Y-96617075D01*
X90628337Y-96635343D01*
X90591242Y-96646596D01*
X90546526Y-96651000D01*
X89453474Y-96651000D01*
X89408758Y-96646596D01*
X89371663Y-96635343D01*
X89337485Y-96617075D01*
X89307519Y-96592481D01*
X89282925Y-96562515D01*
X89264657Y-96528337D01*
X89253404Y-96491242D01*
X89249000Y-96446526D01*
X89249000Y-95553474D01*
X89253404Y-95508758D01*
X89264657Y-95471663D01*
X89282925Y-95437485D01*
X89307519Y-95407519D01*
X89337485Y-95382925D01*
X89371663Y-95364657D01*
X89408758Y-95353404D01*
X89453474Y-95349000D01*
X90546526Y-95349000D01*
X90591242Y-95353404D01*
G37*
G36*
X101737142Y-94678242D02*
G01*
X101885101Y-94739529D01*
X102018255Y-94828499D01*
X102131501Y-94941745D01*
X102220471Y-95074899D01*
X102281758Y-95222858D01*
X102313000Y-95379925D01*
X102313000Y-95540075D01*
X102281758Y-95697142D01*
X102220471Y-95845101D01*
X102131501Y-95978255D01*
X102018255Y-96091501D01*
X101885101Y-96180471D01*
X101737142Y-96241758D01*
X101580075Y-96273000D01*
X101419925Y-96273000D01*
X101262858Y-96241758D01*
X101114899Y-96180471D01*
X100981745Y-96091501D01*
X100868499Y-95978255D01*
X100779529Y-95845101D01*
X100718242Y-95697142D01*
X100687000Y-95540075D01*
X100687000Y-95379925D01*
X100718242Y-95222858D01*
X100779529Y-95074899D01*
X100868499Y-94941745D01*
X100981745Y-94828499D01*
X101114899Y-94739529D01*
X101262858Y-94678242D01*
X101419925Y-94647000D01*
X101580075Y-94647000D01*
X101737142Y-94678242D01*
G37*
G36*
X87401000Y-95001000D02*
G01*
X86499000Y-95001000D01*
X86499000Y-93999000D01*
X87401000Y-93999000D01*
X87401000Y-95001000D01*
G37*
G36*
X85501000Y-95001000D02*
G01*
X84599000Y-95001000D01*
X84599000Y-93999000D01*
X85501000Y-93999000D01*
X85501000Y-95001000D01*
G37*
G36*
X90591242Y-93353404D02*
G01*
X90628337Y-93364657D01*
X90662515Y-93382925D01*
X90692481Y-93407519D01*
X90717075Y-93437485D01*
X90735343Y-93471663D01*
X90746596Y-93508758D01*
X90751000Y-93553474D01*
X90751000Y-94446526D01*
X90746596Y-94491242D01*
X90735343Y-94528337D01*
X90717075Y-94562515D01*
X90692481Y-94592481D01*
X90662515Y-94617075D01*
X90628337Y-94635343D01*
X90591242Y-94646596D01*
X90546526Y-94651000D01*
X89453474Y-94651000D01*
X89408758Y-94646596D01*
X89371663Y-94635343D01*
X89337485Y-94617075D01*
X89307519Y-94592481D01*
X89282925Y-94562515D01*
X89264657Y-94528337D01*
X89253404Y-94491242D01*
X89249000Y-94446526D01*
X89249000Y-93553474D01*
X89253404Y-93508758D01*
X89264657Y-93471663D01*
X89282925Y-93437485D01*
X89307519Y-93407519D01*
X89337485Y-93382925D01*
X89371663Y-93364657D01*
X89408758Y-93353404D01*
X89453474Y-93349000D01*
X90546526Y-93349000D01*
X90591242Y-93353404D01*
G37*
G36*
X93091242Y-93353404D02*
G01*
X93128337Y-93364657D01*
X93162515Y-93382925D01*
X93192481Y-93407519D01*
X93217075Y-93437485D01*
X93235343Y-93471663D01*
X93246596Y-93508758D01*
X93251000Y-93553474D01*
X93251000Y-94446526D01*
X93246596Y-94491242D01*
X93235343Y-94528337D01*
X93217075Y-94562515D01*
X93192481Y-94592481D01*
X93162515Y-94617075D01*
X93128337Y-94635343D01*
X93091242Y-94646596D01*
X93046526Y-94651000D01*
X91953474Y-94651000D01*
X91908758Y-94646596D01*
X91871663Y-94635343D01*
X91837485Y-94617075D01*
X91807519Y-94592481D01*
X91782925Y-94562515D01*
X91764657Y-94528337D01*
X91753404Y-94491242D01*
X91749000Y-94446526D01*
X91749000Y-93553474D01*
X91753404Y-93508758D01*
X91764657Y-93471663D01*
X91782925Y-93437485D01*
X91807519Y-93407519D01*
X91837485Y-93382925D01*
X91871663Y-93364657D01*
X91908758Y-93353404D01*
X91953474Y-93349000D01*
X93046526Y-93349000D01*
X93091242Y-93353404D01*
G37*
G36*
X93334928Y-90366764D02*
G01*
X93356009Y-90373160D01*
X93375445Y-90383548D01*
X93392476Y-90397524D01*
X93406452Y-90414555D01*
X93416840Y-90433991D01*
X93423236Y-90455072D01*
X93426000Y-90483140D01*
X93426000Y-90946860D01*
X93423236Y-90974928D01*
X93416840Y-90996009D01*
X93406452Y-91015445D01*
X93392476Y-91032476D01*
X93375445Y-91046452D01*
X93356009Y-91056840D01*
X93334928Y-91063236D01*
X93306860Y-91066000D01*
X91393140Y-91066000D01*
X91365072Y-91063236D01*
X91343991Y-91056840D01*
X91324555Y-91046452D01*
X91307524Y-91032476D01*
X91293548Y-91015445D01*
X91283160Y-90996009D01*
X91276764Y-90974928D01*
X91274000Y-90946860D01*
X91274000Y-90483140D01*
X91276764Y-90455072D01*
X91283160Y-90433991D01*
X91293548Y-90414555D01*
X91307524Y-90397524D01*
X91324555Y-90383548D01*
X91343991Y-90373160D01*
X91365072Y-90366764D01*
X91393140Y-90364000D01*
X93306860Y-90364000D01*
X93334928Y-90366764D01*
G37*
G36*
X102634928Y-90366764D02*
G01*
X102656009Y-90373160D01*
X102675445Y-90383548D01*
X102692476Y-90397524D01*
X102706452Y-90414555D01*
X102716840Y-90433991D01*
X102723236Y-90455072D01*
X102726000Y-90483140D01*
X102726000Y-90946860D01*
X102723236Y-90974928D01*
X102716840Y-90996009D01*
X102706452Y-91015445D01*
X102692476Y-91032476D01*
X102675445Y-91046452D01*
X102656009Y-91056840D01*
X102634928Y-91063236D01*
X102606860Y-91066000D01*
X100693140Y-91066000D01*
X100665072Y-91063236D01*
X100643991Y-91056840D01*
X100624555Y-91046452D01*
X100607524Y-91032476D01*
X100593548Y-91015445D01*
X100583160Y-90996009D01*
X100576764Y-90974928D01*
X100574000Y-90946860D01*
X100574000Y-90483140D01*
X100576764Y-90455072D01*
X100583160Y-90433991D01*
X100593548Y-90414555D01*
X100607524Y-90397524D01*
X100624555Y-90383548D01*
X100643991Y-90373160D01*
X100665072Y-90366764D01*
X100693140Y-90364000D01*
X102606860Y-90364000D01*
X102634928Y-90366764D01*
G37*
G36*
X93334928Y-89096764D02*
G01*
X93356009Y-89103160D01*
X93375445Y-89113548D01*
X93392476Y-89127524D01*
X93406452Y-89144555D01*
X93416840Y-89163991D01*
X93423236Y-89185072D01*
X93426000Y-89213140D01*
X93426000Y-89676860D01*
X93423236Y-89704928D01*
X93416840Y-89726009D01*
X93406452Y-89745445D01*
X93392476Y-89762476D01*
X93375445Y-89776452D01*
X93356009Y-89786840D01*
X93334928Y-89793236D01*
X93306860Y-89796000D01*
X91393140Y-89796000D01*
X91365072Y-89793236D01*
X91343991Y-89786840D01*
X91324555Y-89776452D01*
X91307524Y-89762476D01*
X91293548Y-89745445D01*
X91283160Y-89726009D01*
X91276764Y-89704928D01*
X91274000Y-89676860D01*
X91274000Y-89213140D01*
X91276764Y-89185072D01*
X91283160Y-89163991D01*
X91293548Y-89144555D01*
X91307524Y-89127524D01*
X91324555Y-89113548D01*
X91343991Y-89103160D01*
X91365072Y-89096764D01*
X91393140Y-89094000D01*
X93306860Y-89094000D01*
X93334928Y-89096764D01*
G37*
G36*
X102634928Y-89096764D02*
G01*
X102656009Y-89103160D01*
X102675445Y-89113548D01*
X102692476Y-89127524D01*
X102706452Y-89144555D01*
X102716840Y-89163991D01*
X102723236Y-89185072D01*
X102726000Y-89213140D01*
X102726000Y-89676860D01*
X102723236Y-89704928D01*
X102716840Y-89726009D01*
X102706452Y-89745445D01*
X102692476Y-89762476D01*
X102675445Y-89776452D01*
X102656009Y-89786840D01*
X102634928Y-89793236D01*
X102606860Y-89796000D01*
X100693140Y-89796000D01*
X100665072Y-89793236D01*
X100643991Y-89786840D01*
X100624555Y-89776452D01*
X100607524Y-89762476D01*
X100593548Y-89745445D01*
X100583160Y-89726009D01*
X100576764Y-89704928D01*
X100574000Y-89676860D01*
X100574000Y-89213140D01*
X100576764Y-89185072D01*
X100583160Y-89163991D01*
X100593548Y-89144555D01*
X100607524Y-89127524D01*
X100624555Y-89113548D01*
X100643991Y-89103160D01*
X100665072Y-89096764D01*
X100693140Y-89094000D01*
X102606860Y-89094000D01*
X102634928Y-89096764D01*
G37*
G36*
X93334928Y-87826764D02*
G01*
X93356009Y-87833160D01*
X93375445Y-87843548D01*
X93392476Y-87857524D01*
X93406452Y-87874555D01*
X93416840Y-87893991D01*
X93423236Y-87915072D01*
X93426000Y-87943140D01*
X93426000Y-88406860D01*
X93423236Y-88434928D01*
X93416840Y-88456009D01*
X93406452Y-88475445D01*
X93392476Y-88492476D01*
X93375445Y-88506452D01*
X93356009Y-88516840D01*
X93334928Y-88523236D01*
X93306860Y-88526000D01*
X91393140Y-88526000D01*
X91365072Y-88523236D01*
X91343991Y-88516840D01*
X91324555Y-88506452D01*
X91307524Y-88492476D01*
X91293548Y-88475445D01*
X91283160Y-88456009D01*
X91276764Y-88434928D01*
X91274000Y-88406860D01*
X91274000Y-87943140D01*
X91276764Y-87915072D01*
X91283160Y-87893991D01*
X91293548Y-87874555D01*
X91307524Y-87857524D01*
X91324555Y-87843548D01*
X91343991Y-87833160D01*
X91365072Y-87826764D01*
X91393140Y-87824000D01*
X93306860Y-87824000D01*
X93334928Y-87826764D01*
G37*
G36*
X102634928Y-87826764D02*
G01*
X102656009Y-87833160D01*
X102675445Y-87843548D01*
X102692476Y-87857524D01*
X102706452Y-87874555D01*
X102716840Y-87893991D01*
X102723236Y-87915072D01*
X102726000Y-87943140D01*
X102726000Y-88406860D01*
X102723236Y-88434928D01*
X102716840Y-88456009D01*
X102706452Y-88475445D01*
X102692476Y-88492476D01*
X102675445Y-88506452D01*
X102656009Y-88516840D01*
X102634928Y-88523236D01*
X102606860Y-88526000D01*
X100693140Y-88526000D01*
X100665072Y-88523236D01*
X100643991Y-88516840D01*
X100624555Y-88506452D01*
X100607524Y-88492476D01*
X100593548Y-88475445D01*
X100583160Y-88456009D01*
X100576764Y-88434928D01*
X100574000Y-88406860D01*
X100574000Y-87943140D01*
X100576764Y-87915072D01*
X100583160Y-87893991D01*
X100593548Y-87874555D01*
X100607524Y-87857524D01*
X100624555Y-87843548D01*
X100643991Y-87833160D01*
X100665072Y-87826764D01*
X100693140Y-87824000D01*
X102606860Y-87824000D01*
X102634928Y-87826764D01*
G37*
G36*
X102634928Y-86556764D02*
G01*
X102656009Y-86563160D01*
X102675445Y-86573548D01*
X102692476Y-86587524D01*
X102706452Y-86604555D01*
X102716840Y-86623991D01*
X102723236Y-86645072D01*
X102726000Y-86673140D01*
X102726000Y-87136860D01*
X102723236Y-87164928D01*
X102716840Y-87186009D01*
X102706452Y-87205445D01*
X102692476Y-87222476D01*
X102675445Y-87236452D01*
X102656009Y-87246840D01*
X102634928Y-87253236D01*
X102606860Y-87256000D01*
X100693140Y-87256000D01*
X100665072Y-87253236D01*
X100643991Y-87246840D01*
X100624555Y-87236452D01*
X100607524Y-87222476D01*
X100593548Y-87205445D01*
X100583160Y-87186009D01*
X100576764Y-87164928D01*
X100574000Y-87136860D01*
X100574000Y-86673140D01*
X100576764Y-86645072D01*
X100583160Y-86623991D01*
X100593548Y-86604555D01*
X100607524Y-86587524D01*
X100624555Y-86573548D01*
X100643991Y-86563160D01*
X100665072Y-86556764D01*
X100693140Y-86554000D01*
X102606860Y-86554000D01*
X102634928Y-86556764D01*
G37*
G36*
X93334928Y-86556764D02*
G01*
X93356009Y-86563160D01*
X93375445Y-86573548D01*
X93392476Y-86587524D01*
X93406452Y-86604555D01*
X93416840Y-86623991D01*
X93423236Y-86645072D01*
X93426000Y-86673140D01*
X93426000Y-87136860D01*
X93423236Y-87164928D01*
X93416840Y-87186009D01*
X93406452Y-87205445D01*
X93392476Y-87222476D01*
X93375445Y-87236452D01*
X93356009Y-87246840D01*
X93334928Y-87253236D01*
X93306860Y-87256000D01*
X91393140Y-87256000D01*
X91365072Y-87253236D01*
X91343991Y-87246840D01*
X91324555Y-87236452D01*
X91307524Y-87222476D01*
X91293548Y-87205445D01*
X91283160Y-87186009D01*
X91276764Y-87164928D01*
X91274000Y-87136860D01*
X91274000Y-86673140D01*
X91276764Y-86645072D01*
X91283160Y-86623991D01*
X91293548Y-86604555D01*
X91307524Y-86587524D01*
X91324555Y-86573548D01*
X91343991Y-86563160D01*
X91365072Y-86556764D01*
X91393140Y-86554000D01*
X93306860Y-86554000D01*
X93334928Y-86556764D01*
G37*
G36*
X88651000Y-86011000D02*
G01*
X86849000Y-86011000D01*
X86849000Y-84209000D01*
X88651000Y-84209000D01*
X88651000Y-86011000D01*
G37*
G36*
X108151000Y-86011000D02*
G01*
X106349000Y-86011000D01*
X106349000Y-84209000D01*
X108151000Y-84209000D01*
X108151000Y-86011000D01*
G37*
G36*
X93334928Y-85286764D02*
G01*
X93356009Y-85293160D01*
X93375445Y-85303548D01*
X93392476Y-85317524D01*
X93406452Y-85334555D01*
X93416840Y-85353991D01*
X93423236Y-85375072D01*
X93426000Y-85403140D01*
X93426000Y-85866860D01*
X93423236Y-85894928D01*
X93416840Y-85916009D01*
X93406452Y-85935445D01*
X93392476Y-85952476D01*
X93375445Y-85966452D01*
X93356009Y-85976840D01*
X93334928Y-85983236D01*
X93306860Y-85986000D01*
X91393140Y-85986000D01*
X91365072Y-85983236D01*
X91343991Y-85976840D01*
X91324555Y-85966452D01*
X91307524Y-85952476D01*
X91293548Y-85935445D01*
X91283160Y-85916009D01*
X91276764Y-85894928D01*
X91274000Y-85866860D01*
X91274000Y-85403140D01*
X91276764Y-85375072D01*
X91283160Y-85353991D01*
X91293548Y-85334555D01*
X91307524Y-85317524D01*
X91324555Y-85303548D01*
X91343991Y-85293160D01*
X91365072Y-85286764D01*
X91393140Y-85284000D01*
X93306860Y-85284000D01*
X93334928Y-85286764D01*
G37*
G36*
X102634928Y-85286764D02*
G01*
X102656009Y-85293160D01*
X102675445Y-85303548D01*
X102692476Y-85317524D01*
X102706452Y-85334555D01*
X102716840Y-85353991D01*
X102723236Y-85375072D01*
X102726000Y-85403140D01*
X102726000Y-85866860D01*
X102723236Y-85894928D01*
X102716840Y-85916009D01*
X102706452Y-85935445D01*
X102692476Y-85952476D01*
X102675445Y-85966452D01*
X102656009Y-85976840D01*
X102634928Y-85983236D01*
X102606860Y-85986000D01*
X100693140Y-85986000D01*
X100665072Y-85983236D01*
X100643991Y-85976840D01*
X100624555Y-85966452D01*
X100607524Y-85952476D01*
X100593548Y-85935445D01*
X100583160Y-85916009D01*
X100576764Y-85894928D01*
X100574000Y-85866860D01*
X100574000Y-85403140D01*
X100576764Y-85375072D01*
X100583160Y-85353991D01*
X100593548Y-85334555D01*
X100607524Y-85317524D01*
X100624555Y-85303548D01*
X100643991Y-85293160D01*
X100665072Y-85286764D01*
X100693140Y-85284000D01*
X102606860Y-85284000D01*
X102634928Y-85286764D01*
G37*
G36*
X104864983Y-84153434D02*
G01*
X104902372Y-84164776D01*
X104936826Y-84183191D01*
X104967025Y-84207975D01*
X104991809Y-84238174D01*
X105010224Y-84272628D01*
X105021566Y-84310017D01*
X105026000Y-84355035D01*
X105026000Y-85219965D01*
X105021566Y-85264983D01*
X105010224Y-85302372D01*
X104991809Y-85336826D01*
X104967025Y-85367025D01*
X104936826Y-85391809D01*
X104902372Y-85410224D01*
X104864983Y-85421566D01*
X104819965Y-85426000D01*
X103680035Y-85426000D01*
X103635017Y-85421566D01*
X103597628Y-85410224D01*
X103563174Y-85391809D01*
X103532975Y-85367025D01*
X103508191Y-85336826D01*
X103489776Y-85302372D01*
X103478434Y-85264983D01*
X103474000Y-85219965D01*
X103474000Y-84355035D01*
X103478434Y-84310017D01*
X103489776Y-84272628D01*
X103508191Y-84238174D01*
X103532975Y-84207975D01*
X103563174Y-84183191D01*
X103597628Y-84164776D01*
X103635017Y-84153434D01*
X103680035Y-84149000D01*
X104819965Y-84149000D01*
X104864983Y-84153434D01*
G37*
G36*
X93334928Y-84016764D02*
G01*
X93356009Y-84023160D01*
X93375445Y-84033548D01*
X93392476Y-84047524D01*
X93406452Y-84064555D01*
X93416840Y-84083991D01*
X93423236Y-84105072D01*
X93426000Y-84133140D01*
X93426000Y-84596860D01*
X93423236Y-84624928D01*
X93416840Y-84646009D01*
X93406452Y-84665445D01*
X93392476Y-84682476D01*
X93375445Y-84696452D01*
X93356009Y-84706840D01*
X93334928Y-84713236D01*
X93306860Y-84716000D01*
X91393140Y-84716000D01*
X91365072Y-84713236D01*
X91343991Y-84706840D01*
X91324555Y-84696452D01*
X91307524Y-84682476D01*
X91293548Y-84665445D01*
X91283160Y-84646009D01*
X91276764Y-84624928D01*
X91274000Y-84596860D01*
X91274000Y-84133140D01*
X91276764Y-84105072D01*
X91283160Y-84083991D01*
X91293548Y-84064555D01*
X91307524Y-84047524D01*
X91324555Y-84033548D01*
X91343991Y-84023160D01*
X91365072Y-84016764D01*
X91393140Y-84014000D01*
X93306860Y-84014000D01*
X93334928Y-84016764D01*
G37*
G36*
X102634928Y-84016764D02*
G01*
X102656009Y-84023160D01*
X102675445Y-84033548D01*
X102692476Y-84047524D01*
X102706452Y-84064555D01*
X102716840Y-84083991D01*
X102723236Y-84105072D01*
X102726000Y-84133140D01*
X102726000Y-84596860D01*
X102723236Y-84624928D01*
X102716840Y-84646009D01*
X102706452Y-84665445D01*
X102692476Y-84682476D01*
X102675445Y-84696452D01*
X102656009Y-84706840D01*
X102634928Y-84713236D01*
X102606860Y-84716000D01*
X100693140Y-84716000D01*
X100665072Y-84713236D01*
X100643991Y-84706840D01*
X100624555Y-84696452D01*
X100607524Y-84682476D01*
X100593548Y-84665445D01*
X100583160Y-84646009D01*
X100576764Y-84624928D01*
X100574000Y-84596860D01*
X100574000Y-84133140D01*
X100576764Y-84105072D01*
X100583160Y-84083991D01*
X100593548Y-84064555D01*
X100607524Y-84047524D01*
X100624555Y-84033548D01*
X100643991Y-84023160D01*
X100665072Y-84016764D01*
X100693140Y-84014000D01*
X102606860Y-84014000D01*
X102634928Y-84016764D01*
G37*
G36*
X87863512Y-81673927D02*
G01*
X88012812Y-81703624D01*
X88176784Y-81771544D01*
X88324354Y-81870147D01*
X88449853Y-81995646D01*
X88548456Y-82143216D01*
X88616376Y-82307188D01*
X88651000Y-82481259D01*
X88651000Y-82658741D01*
X88616376Y-82832812D01*
X88548456Y-82996784D01*
X88449853Y-83144354D01*
X88324354Y-83269853D01*
X88176784Y-83368456D01*
X88012812Y-83436376D01*
X87863512Y-83466073D01*
X87838742Y-83471000D01*
X87661258Y-83471000D01*
X87636488Y-83466073D01*
X87487188Y-83436376D01*
X87323216Y-83368456D01*
X87175646Y-83269853D01*
X87050147Y-83144354D01*
X86951544Y-82996784D01*
X86883624Y-82832812D01*
X86849000Y-82658741D01*
X86849000Y-82481259D01*
X86883624Y-82307188D01*
X86951544Y-82143216D01*
X87050147Y-81995646D01*
X87175646Y-81870147D01*
X87323216Y-81771544D01*
X87487188Y-81703624D01*
X87636488Y-81673927D01*
X87661258Y-81669000D01*
X87838742Y-81669000D01*
X87863512Y-81673927D01*
G37*
G36*
X107363512Y-81673927D02*
G01*
X107512812Y-81703624D01*
X107676784Y-81771544D01*
X107824354Y-81870147D01*
X107949853Y-81995646D01*
X108048456Y-82143216D01*
X108116376Y-82307188D01*
X108151000Y-82481259D01*
X108151000Y-82658741D01*
X108116376Y-82832812D01*
X108048456Y-82996784D01*
X107949853Y-83144354D01*
X107824354Y-83269853D01*
X107676784Y-83368456D01*
X107512812Y-83436376D01*
X107363512Y-83466073D01*
X107338742Y-83471000D01*
X107161258Y-83471000D01*
X107136488Y-83466073D01*
X106987188Y-83436376D01*
X106823216Y-83368456D01*
X106675646Y-83269853D01*
X106550147Y-83144354D01*
X106451544Y-82996784D01*
X106383624Y-82832812D01*
X106349000Y-82658741D01*
X106349000Y-82481259D01*
X106383624Y-82307188D01*
X106451544Y-82143216D01*
X106550147Y-81995646D01*
X106675646Y-81870147D01*
X106823216Y-81771544D01*
X106987188Y-81703624D01*
X107136488Y-81673927D01*
X107161258Y-81669000D01*
X107338742Y-81669000D01*
X107363512Y-81673927D01*
G37*
G36*
X93334928Y-82746764D02*
G01*
X93356009Y-82753160D01*
X93375445Y-82763548D01*
X93392476Y-82777524D01*
X93406452Y-82794555D01*
X93416840Y-82813991D01*
X93423236Y-82835072D01*
X93426000Y-82863140D01*
X93426000Y-83326860D01*
X93423236Y-83354928D01*
X93416840Y-83376009D01*
X93406452Y-83395445D01*
X93392476Y-83412476D01*
X93375445Y-83426452D01*
X93356009Y-83436840D01*
X93334928Y-83443236D01*
X93306860Y-83446000D01*
X91393140Y-83446000D01*
X91365072Y-83443236D01*
X91343991Y-83436840D01*
X91324555Y-83426452D01*
X91307524Y-83412476D01*
X91293548Y-83395445D01*
X91283160Y-83376009D01*
X91276764Y-83354928D01*
X91274000Y-83326860D01*
X91274000Y-82863140D01*
X91276764Y-82835072D01*
X91283160Y-82813991D01*
X91293548Y-82794555D01*
X91307524Y-82777524D01*
X91324555Y-82763548D01*
X91343991Y-82753160D01*
X91365072Y-82746764D01*
X91393140Y-82744000D01*
X93306860Y-82744000D01*
X93334928Y-82746764D01*
G37*
G36*
X102634928Y-82746764D02*
G01*
X102656009Y-82753160D01*
X102675445Y-82763548D01*
X102692476Y-82777524D01*
X102706452Y-82794555D01*
X102716840Y-82813991D01*
X102723236Y-82835072D01*
X102726000Y-82863140D01*
X102726000Y-83326860D01*
X102723236Y-83354928D01*
X102716840Y-83376009D01*
X102706452Y-83395445D01*
X102692476Y-83412476D01*
X102675445Y-83426452D01*
X102656009Y-83436840D01*
X102634928Y-83443236D01*
X102606860Y-83446000D01*
X100693140Y-83446000D01*
X100665072Y-83443236D01*
X100643991Y-83436840D01*
X100624555Y-83426452D01*
X100607524Y-83412476D01*
X100593548Y-83395445D01*
X100583160Y-83376009D01*
X100576764Y-83354928D01*
X100574000Y-83326860D01*
X100574000Y-82863140D01*
X100576764Y-82835072D01*
X100583160Y-82813991D01*
X100593548Y-82794555D01*
X100607524Y-82777524D01*
X100624555Y-82763548D01*
X100643991Y-82753160D01*
X100665072Y-82746764D01*
X100693140Y-82744000D01*
X102606860Y-82744000D01*
X102634928Y-82746764D01*
G37*
G36*
X104864983Y-82078434D02*
G01*
X104902372Y-82089776D01*
X104936826Y-82108191D01*
X104967025Y-82132975D01*
X104991809Y-82163174D01*
X105010224Y-82197628D01*
X105021566Y-82235017D01*
X105026000Y-82280035D01*
X105026000Y-83144965D01*
X105021566Y-83189983D01*
X105010224Y-83227372D01*
X104991809Y-83261826D01*
X104967025Y-83292025D01*
X104936826Y-83316809D01*
X104902372Y-83335224D01*
X104864983Y-83346566D01*
X104819965Y-83351000D01*
X103680035Y-83351000D01*
X103635017Y-83346566D01*
X103597628Y-83335224D01*
X103563174Y-83316809D01*
X103532975Y-83292025D01*
X103508191Y-83261826D01*
X103489776Y-83227372D01*
X103478434Y-83189983D01*
X103474000Y-83144965D01*
X103474000Y-82280035D01*
X103478434Y-82235017D01*
X103489776Y-82197628D01*
X103508191Y-82163174D01*
X103532975Y-82132975D01*
X103563174Y-82108191D01*
X103597628Y-82089776D01*
X103635017Y-82078434D01*
X103680035Y-82074000D01*
X104819965Y-82074000D01*
X104864983Y-82078434D01*
G37*
G36*
X93334928Y-81476764D02*
G01*
X93356009Y-81483160D01*
X93375445Y-81493548D01*
X93392476Y-81507524D01*
X93406452Y-81524555D01*
X93416840Y-81543991D01*
X93423236Y-81565072D01*
X93426000Y-81593140D01*
X93426000Y-82056860D01*
X93423236Y-82084928D01*
X93416840Y-82106009D01*
X93406452Y-82125445D01*
X93392476Y-82142476D01*
X93375445Y-82156452D01*
X93356009Y-82166840D01*
X93334928Y-82173236D01*
X93306860Y-82176000D01*
X91393140Y-82176000D01*
X91365072Y-82173236D01*
X91343991Y-82166840D01*
X91324555Y-82156452D01*
X91307524Y-82142476D01*
X91293548Y-82125445D01*
X91283160Y-82106009D01*
X91276764Y-82084928D01*
X91274000Y-82056860D01*
X91274000Y-81593140D01*
X91276764Y-81565072D01*
X91283160Y-81543991D01*
X91293548Y-81524555D01*
X91307524Y-81507524D01*
X91324555Y-81493548D01*
X91343991Y-81483160D01*
X91365072Y-81476764D01*
X91393140Y-81474000D01*
X93306860Y-81474000D01*
X93334928Y-81476764D01*
G37*
G36*
X102634928Y-81476764D02*
G01*
X102656009Y-81483160D01*
X102675445Y-81493548D01*
X102692476Y-81507524D01*
X102706452Y-81524555D01*
X102716840Y-81543991D01*
X102723236Y-81565072D01*
X102726000Y-81593140D01*
X102726000Y-82056860D01*
X102723236Y-82084928D01*
X102716840Y-82106009D01*
X102706452Y-82125445D01*
X102692476Y-82142476D01*
X102675445Y-82156452D01*
X102656009Y-82166840D01*
X102634928Y-82173236D01*
X102606860Y-82176000D01*
X100693140Y-82176000D01*
X100665072Y-82173236D01*
X100643991Y-82166840D01*
X100624555Y-82156452D01*
X100607524Y-82142476D01*
X100593548Y-82125445D01*
X100583160Y-82106009D01*
X100576764Y-82084928D01*
X100574000Y-82056860D01*
X100574000Y-81593140D01*
X100576764Y-81565072D01*
X100583160Y-81543991D01*
X100593548Y-81524555D01*
X100607524Y-81507524D01*
X100624555Y-81493548D01*
X100643991Y-81483160D01*
X100665072Y-81476764D01*
X100693140Y-81474000D01*
X102606860Y-81474000D01*
X102634928Y-81476764D01*
G37*
G36*
X107363512Y-79133927D02*
G01*
X107512812Y-79163624D01*
X107676784Y-79231544D01*
X107824354Y-79330147D01*
X107949853Y-79455646D01*
X108048456Y-79603216D01*
X108116376Y-79767188D01*
X108151000Y-79941259D01*
X108151000Y-80118741D01*
X108116376Y-80292812D01*
X108048456Y-80456784D01*
X107949853Y-80604354D01*
X107824354Y-80729853D01*
X107676784Y-80828456D01*
X107512812Y-80896376D01*
X107363512Y-80926073D01*
X107338742Y-80931000D01*
X107161258Y-80931000D01*
X107136488Y-80926073D01*
X106987188Y-80896376D01*
X106823216Y-80828456D01*
X106675646Y-80729853D01*
X106550147Y-80604354D01*
X106451544Y-80456784D01*
X106383624Y-80292812D01*
X106349000Y-80118741D01*
X106349000Y-79941259D01*
X106383624Y-79767188D01*
X106451544Y-79603216D01*
X106550147Y-79455646D01*
X106675646Y-79330147D01*
X106823216Y-79231544D01*
X106987188Y-79163624D01*
X107136488Y-79133927D01*
X107161258Y-79129000D01*
X107338742Y-79129000D01*
X107363512Y-79133927D01*
G37*
G36*
X87863512Y-79133927D02*
G01*
X88012812Y-79163624D01*
X88176784Y-79231544D01*
X88324354Y-79330147D01*
X88449853Y-79455646D01*
X88548456Y-79603216D01*
X88616376Y-79767188D01*
X88651000Y-79941259D01*
X88651000Y-80118741D01*
X88616376Y-80292812D01*
X88548456Y-80456784D01*
X88449853Y-80604354D01*
X88324354Y-80729853D01*
X88176784Y-80828456D01*
X88012812Y-80896376D01*
X87863512Y-80926073D01*
X87838742Y-80931000D01*
X87661258Y-80931000D01*
X87636488Y-80926073D01*
X87487188Y-80896376D01*
X87323216Y-80828456D01*
X87175646Y-80729853D01*
X87050147Y-80604354D01*
X86951544Y-80456784D01*
X86883624Y-80292812D01*
X86849000Y-80118741D01*
X86849000Y-79941259D01*
X86883624Y-79767188D01*
X86951544Y-79603216D01*
X87050147Y-79455646D01*
X87175646Y-79330147D01*
X87323216Y-79231544D01*
X87487188Y-79163624D01*
X87636488Y-79133927D01*
X87661258Y-79129000D01*
X87838742Y-79129000D01*
X87863512Y-79133927D01*
G37*
G36*
X102634928Y-80206764D02*
G01*
X102656009Y-80213160D01*
X102675445Y-80223548D01*
X102692476Y-80237524D01*
X102706452Y-80254555D01*
X102716840Y-80273991D01*
X102723236Y-80295072D01*
X102726000Y-80323140D01*
X102726000Y-80786860D01*
X102723236Y-80814928D01*
X102716840Y-80836009D01*
X102706452Y-80855445D01*
X102692476Y-80872476D01*
X102675445Y-80886452D01*
X102656009Y-80896840D01*
X102634928Y-80903236D01*
X102606860Y-80906000D01*
X100693140Y-80906000D01*
X100665072Y-80903236D01*
X100643991Y-80896840D01*
X100624555Y-80886452D01*
X100607524Y-80872476D01*
X100593548Y-80855445D01*
X100583160Y-80836009D01*
X100576764Y-80814928D01*
X100574000Y-80786860D01*
X100574000Y-80323140D01*
X100576764Y-80295072D01*
X100583160Y-80273991D01*
X100593548Y-80254555D01*
X100607524Y-80237524D01*
X100624555Y-80223548D01*
X100643991Y-80213160D01*
X100665072Y-80206764D01*
X100693140Y-80204000D01*
X102606860Y-80204000D01*
X102634928Y-80206764D01*
G37*
G36*
X93334928Y-80206764D02*
G01*
X93356009Y-80213160D01*
X93375445Y-80223548D01*
X93392476Y-80237524D01*
X93406452Y-80254555D01*
X93416840Y-80273991D01*
X93423236Y-80295072D01*
X93426000Y-80323140D01*
X93426000Y-80786860D01*
X93423236Y-80814928D01*
X93416840Y-80836009D01*
X93406452Y-80855445D01*
X93392476Y-80872476D01*
X93375445Y-80886452D01*
X93356009Y-80896840D01*
X93334928Y-80903236D01*
X93306860Y-80906000D01*
X91393140Y-80906000D01*
X91365072Y-80903236D01*
X91343991Y-80896840D01*
X91324555Y-80886452D01*
X91307524Y-80872476D01*
X91293548Y-80855445D01*
X91283160Y-80836009D01*
X91276764Y-80814928D01*
X91274000Y-80786860D01*
X91274000Y-80323140D01*
X91276764Y-80295072D01*
X91283160Y-80273991D01*
X91293548Y-80254555D01*
X91307524Y-80237524D01*
X91324555Y-80223548D01*
X91343991Y-80213160D01*
X91365072Y-80206764D01*
X91393140Y-80204000D01*
X93306860Y-80204000D01*
X93334928Y-80206764D01*
G37*
G36*
X93334928Y-78936764D02*
G01*
X93356009Y-78943160D01*
X93375445Y-78953548D01*
X93392476Y-78967524D01*
X93406452Y-78984555D01*
X93416840Y-79003991D01*
X93423236Y-79025072D01*
X93426000Y-79053140D01*
X93426000Y-79516860D01*
X93423236Y-79544928D01*
X93416840Y-79566009D01*
X93406452Y-79585445D01*
X93392476Y-79602476D01*
X93375445Y-79616452D01*
X93356009Y-79626840D01*
X93334928Y-79633236D01*
X93306860Y-79636000D01*
X91393140Y-79636000D01*
X91365072Y-79633236D01*
X91343991Y-79626840D01*
X91324555Y-79616452D01*
X91307524Y-79602476D01*
X91293548Y-79585445D01*
X91283160Y-79566009D01*
X91276764Y-79544928D01*
X91274000Y-79516860D01*
X91274000Y-79053140D01*
X91276764Y-79025072D01*
X91283160Y-79003991D01*
X91293548Y-78984555D01*
X91307524Y-78967524D01*
X91324555Y-78953548D01*
X91343991Y-78943160D01*
X91365072Y-78936764D01*
X91393140Y-78934000D01*
X93306860Y-78934000D01*
X93334928Y-78936764D01*
G37*
G36*
X102634928Y-78936764D02*
G01*
X102656009Y-78943160D01*
X102675445Y-78953548D01*
X102692476Y-78967524D01*
X102706452Y-78984555D01*
X102716840Y-79003991D01*
X102723236Y-79025072D01*
X102726000Y-79053140D01*
X102726000Y-79516860D01*
X102723236Y-79544928D01*
X102716840Y-79566009D01*
X102706452Y-79585445D01*
X102692476Y-79602476D01*
X102675445Y-79616452D01*
X102656009Y-79626840D01*
X102634928Y-79633236D01*
X102606860Y-79636000D01*
X100693140Y-79636000D01*
X100665072Y-79633236D01*
X100643991Y-79626840D01*
X100624555Y-79616452D01*
X100607524Y-79602476D01*
X100593548Y-79585445D01*
X100583160Y-79566009D01*
X100576764Y-79544928D01*
X100574000Y-79516860D01*
X100574000Y-79053140D01*
X100576764Y-79025072D01*
X100583160Y-79003991D01*
X100593548Y-78984555D01*
X100607524Y-78967524D01*
X100624555Y-78953548D01*
X100643991Y-78943160D01*
X100665072Y-78936764D01*
X100693140Y-78934000D01*
X102606860Y-78934000D01*
X102634928Y-78936764D01*
G37*
G36*
X107363512Y-76593927D02*
G01*
X107512812Y-76623624D01*
X107676784Y-76691544D01*
X107824354Y-76790147D01*
X107949853Y-76915646D01*
X108048456Y-77063216D01*
X108116376Y-77227188D01*
X108151000Y-77401259D01*
X108151000Y-77578741D01*
X108116376Y-77752812D01*
X108048456Y-77916784D01*
X107949853Y-78064354D01*
X107824354Y-78189853D01*
X107676784Y-78288456D01*
X107512812Y-78356376D01*
X107363512Y-78386073D01*
X107338742Y-78391000D01*
X107161258Y-78391000D01*
X107136488Y-78386073D01*
X106987188Y-78356376D01*
X106823216Y-78288456D01*
X106675646Y-78189853D01*
X106550147Y-78064354D01*
X106451544Y-77916784D01*
X106383624Y-77752812D01*
X106349000Y-77578741D01*
X106349000Y-77401259D01*
X106383624Y-77227188D01*
X106451544Y-77063216D01*
X106550147Y-76915646D01*
X106675646Y-76790147D01*
X106823216Y-76691544D01*
X106987188Y-76623624D01*
X107136488Y-76593927D01*
X107161258Y-76589000D01*
X107338742Y-76589000D01*
X107363512Y-76593927D01*
G37*
G36*
X87863512Y-76593927D02*
G01*
X88012812Y-76623624D01*
X88176784Y-76691544D01*
X88324354Y-76790147D01*
X88449853Y-76915646D01*
X88548456Y-77063216D01*
X88616376Y-77227188D01*
X88651000Y-77401259D01*
X88651000Y-77578741D01*
X88616376Y-77752812D01*
X88548456Y-77916784D01*
X88449853Y-78064354D01*
X88324354Y-78189853D01*
X88176784Y-78288456D01*
X88012812Y-78356376D01*
X87863512Y-78386073D01*
X87838742Y-78391000D01*
X87661258Y-78391000D01*
X87636488Y-78386073D01*
X87487188Y-78356376D01*
X87323216Y-78288456D01*
X87175646Y-78189853D01*
X87050147Y-78064354D01*
X86951544Y-77916784D01*
X86883624Y-77752812D01*
X86849000Y-77578741D01*
X86849000Y-77401259D01*
X86883624Y-77227188D01*
X86951544Y-77063216D01*
X87050147Y-76915646D01*
X87175646Y-76790147D01*
X87323216Y-76691544D01*
X87487188Y-76623624D01*
X87636488Y-76593927D01*
X87661258Y-76589000D01*
X87838742Y-76589000D01*
X87863512Y-76593927D01*
G37*
G36*
X107363512Y-74053927D02*
G01*
X107512812Y-74083624D01*
X107676784Y-74151544D01*
X107824354Y-74250147D01*
X107949853Y-74375646D01*
X108048456Y-74523216D01*
X108116376Y-74687188D01*
X108151000Y-74861259D01*
X108151000Y-75038741D01*
X108116376Y-75212812D01*
X108048456Y-75376784D01*
X107949853Y-75524354D01*
X107824354Y-75649853D01*
X107676784Y-75748456D01*
X107512812Y-75816376D01*
X107363512Y-75846073D01*
X107338742Y-75851000D01*
X107161258Y-75851000D01*
X107136488Y-75846073D01*
X106987188Y-75816376D01*
X106823216Y-75748456D01*
X106675646Y-75649853D01*
X106550147Y-75524354D01*
X106451544Y-75376784D01*
X106383624Y-75212812D01*
X106349000Y-75038741D01*
X106349000Y-74861259D01*
X106383624Y-74687188D01*
X106451544Y-74523216D01*
X106550147Y-74375646D01*
X106675646Y-74250147D01*
X106823216Y-74151544D01*
X106987188Y-74083624D01*
X107136488Y-74053927D01*
X107161258Y-74049000D01*
X107338742Y-74049000D01*
X107363512Y-74053927D01*
G37*
G36*
X87863512Y-74053927D02*
G01*
X88012812Y-74083624D01*
X88176784Y-74151544D01*
X88324354Y-74250147D01*
X88449853Y-74375646D01*
X88548456Y-74523216D01*
X88616376Y-74687188D01*
X88651000Y-74861259D01*
X88651000Y-75038741D01*
X88616376Y-75212812D01*
X88548456Y-75376784D01*
X88449853Y-75524354D01*
X88324354Y-75649853D01*
X88176784Y-75748456D01*
X88012812Y-75816376D01*
X87863512Y-75846073D01*
X87838742Y-75851000D01*
X87661258Y-75851000D01*
X87636488Y-75846073D01*
X87487188Y-75816376D01*
X87323216Y-75748456D01*
X87175646Y-75649853D01*
X87050147Y-75524354D01*
X86951544Y-75376784D01*
X86883624Y-75212812D01*
X86849000Y-75038741D01*
X86849000Y-74861259D01*
X86883624Y-74687188D01*
X86951544Y-74523216D01*
X87050147Y-74375646D01*
X87175646Y-74250147D01*
X87323216Y-74151544D01*
X87487188Y-74083624D01*
X87636488Y-74053927D01*
X87661258Y-74049000D01*
X87838742Y-74049000D01*
X87863512Y-74053927D01*
G37*
G36*
X99491242Y-73753404D02*
G01*
X99528337Y-73764657D01*
X99562515Y-73782925D01*
X99592481Y-73807519D01*
X99617075Y-73837485D01*
X99635343Y-73871663D01*
X99646596Y-73908758D01*
X99651000Y-73953474D01*
X99651000Y-75046526D01*
X99646596Y-75091242D01*
X99635343Y-75128337D01*
X99617075Y-75162515D01*
X99592481Y-75192481D01*
X99562515Y-75217075D01*
X99528337Y-75235343D01*
X99491242Y-75246596D01*
X99446526Y-75251000D01*
X98553474Y-75251000D01*
X98508758Y-75246596D01*
X98471663Y-75235343D01*
X98437485Y-75217075D01*
X98407519Y-75192481D01*
X98382925Y-75162515D01*
X98364657Y-75128337D01*
X98353404Y-75091242D01*
X98349000Y-75046526D01*
X98349000Y-73953474D01*
X98353404Y-73908758D01*
X98364657Y-73871663D01*
X98382925Y-73837485D01*
X98407519Y-73807519D01*
X98437485Y-73782925D01*
X98471663Y-73764657D01*
X98508758Y-73753404D01*
X98553474Y-73749000D01*
X99446526Y-73749000D01*
X99491242Y-73753404D01*
G37*
G36*
X101491242Y-73753404D02*
G01*
X101528337Y-73764657D01*
X101562515Y-73782925D01*
X101592481Y-73807519D01*
X101617075Y-73837485D01*
X101635343Y-73871663D01*
X101646596Y-73908758D01*
X101651000Y-73953474D01*
X101651000Y-75046526D01*
X101646596Y-75091242D01*
X101635343Y-75128337D01*
X101617075Y-75162515D01*
X101592481Y-75192481D01*
X101562515Y-75217075D01*
X101528337Y-75235343D01*
X101491242Y-75246596D01*
X101446526Y-75251000D01*
X100553474Y-75251000D01*
X100508758Y-75246596D01*
X100471663Y-75235343D01*
X100437485Y-75217075D01*
X100407519Y-75192481D01*
X100382925Y-75162515D01*
X100364657Y-75128337D01*
X100353404Y-75091242D01*
X100349000Y-75046526D01*
X100349000Y-73953474D01*
X100353404Y-73908758D01*
X100364657Y-73871663D01*
X100382925Y-73837485D01*
X100407519Y-73807519D01*
X100437485Y-73782925D01*
X100471663Y-73764657D01*
X100508758Y-73753404D01*
X100553474Y-73749000D01*
X101446526Y-73749000D01*
X101491242Y-73753404D01*
G37*
G36*
X95491242Y-73753404D02*
G01*
X95528337Y-73764657D01*
X95562515Y-73782925D01*
X95592481Y-73807519D01*
X95617075Y-73837485D01*
X95635343Y-73871663D01*
X95646596Y-73908758D01*
X95651000Y-73953474D01*
X95651000Y-75046526D01*
X95646596Y-75091242D01*
X95635343Y-75128337D01*
X95617075Y-75162515D01*
X95592481Y-75192481D01*
X95562515Y-75217075D01*
X95528337Y-75235343D01*
X95491242Y-75246596D01*
X95446526Y-75251000D01*
X94553474Y-75251000D01*
X94508758Y-75246596D01*
X94471663Y-75235343D01*
X94437485Y-75217075D01*
X94407519Y-75192481D01*
X94382925Y-75162515D01*
X94364657Y-75128337D01*
X94353404Y-75091242D01*
X94349000Y-75046526D01*
X94349000Y-73953474D01*
X94353404Y-73908758D01*
X94364657Y-73871663D01*
X94382925Y-73837485D01*
X94407519Y-73807519D01*
X94437485Y-73782925D01*
X94471663Y-73764657D01*
X94508758Y-73753404D01*
X94553474Y-73749000D01*
X95446526Y-73749000D01*
X95491242Y-73753404D01*
G37*
G36*
X93491242Y-73753404D02*
G01*
X93528337Y-73764657D01*
X93562515Y-73782925D01*
X93592481Y-73807519D01*
X93617075Y-73837485D01*
X93635343Y-73871663D01*
X93646596Y-73908758D01*
X93651000Y-73953474D01*
X93651000Y-75046526D01*
X93646596Y-75091242D01*
X93635343Y-75128337D01*
X93617075Y-75162515D01*
X93592481Y-75192481D01*
X93562515Y-75217075D01*
X93528337Y-75235343D01*
X93491242Y-75246596D01*
X93446526Y-75251000D01*
X92553474Y-75251000D01*
X92508758Y-75246596D01*
X92471663Y-75235343D01*
X92437485Y-75217075D01*
X92407519Y-75192481D01*
X92382925Y-75162515D01*
X92364657Y-75128337D01*
X92353404Y-75091242D01*
X92349000Y-75046526D01*
X92349000Y-73953474D01*
X92353404Y-73908758D01*
X92364657Y-73871663D01*
X92382925Y-73837485D01*
X92407519Y-73807519D01*
X92437485Y-73782925D01*
X92471663Y-73764657D01*
X92508758Y-73753404D01*
X92553474Y-73749000D01*
X93446526Y-73749000D01*
X93491242Y-73753404D01*
G37*
G36*
X87863512Y-71513927D02*
G01*
X88012812Y-71543624D01*
X88176784Y-71611544D01*
X88324354Y-71710147D01*
X88449853Y-71835646D01*
X88548456Y-71983216D01*
X88616376Y-72147188D01*
X88651000Y-72321259D01*
X88651000Y-72498741D01*
X88616376Y-72672812D01*
X88548456Y-72836784D01*
X88449853Y-72984354D01*
X88324354Y-73109853D01*
X88176784Y-73208456D01*
X88012812Y-73276376D01*
X87863512Y-73306073D01*
X87838742Y-73311000D01*
X87661258Y-73311000D01*
X87636488Y-73306073D01*
X87487188Y-73276376D01*
X87323216Y-73208456D01*
X87175646Y-73109853D01*
X87050147Y-72984354D01*
X86951544Y-72836784D01*
X86883624Y-72672812D01*
X86849000Y-72498741D01*
X86849000Y-72321259D01*
X86883624Y-72147188D01*
X86951544Y-71983216D01*
X87050147Y-71835646D01*
X87175646Y-71710147D01*
X87323216Y-71611544D01*
X87487188Y-71543624D01*
X87636488Y-71513927D01*
X87661258Y-71509000D01*
X87838742Y-71509000D01*
X87863512Y-71513927D01*
G37*
G36*
X107363512Y-71513927D02*
G01*
X107512812Y-71543624D01*
X107676784Y-71611544D01*
X107824354Y-71710147D01*
X107949853Y-71835646D01*
X108048456Y-71983216D01*
X108116376Y-72147188D01*
X108151000Y-72321259D01*
X108151000Y-72498741D01*
X108116376Y-72672812D01*
X108048456Y-72836784D01*
X107949853Y-72984354D01*
X107824354Y-73109853D01*
X107676784Y-73208456D01*
X107512812Y-73276376D01*
X107363512Y-73306073D01*
X107338742Y-73311000D01*
X107161258Y-73311000D01*
X107136488Y-73306073D01*
X106987188Y-73276376D01*
X106823216Y-73208456D01*
X106675646Y-73109853D01*
X106550147Y-72984354D01*
X106451544Y-72836784D01*
X106383624Y-72672812D01*
X106349000Y-72498741D01*
X106349000Y-72321259D01*
X106383624Y-72147188D01*
X106451544Y-71983216D01*
X106550147Y-71835646D01*
X106675646Y-71710147D01*
X106823216Y-71611544D01*
X106987188Y-71543624D01*
X107136488Y-71513927D01*
X107161258Y-71509000D01*
X107338742Y-71509000D01*
X107363512Y-71513927D01*
G37*
G36*
X101488674Y-70253465D02*
G01*
X101526367Y-70264899D01*
X101561103Y-70283466D01*
X101591548Y-70308452D01*
X101616534Y-70338897D01*
X101635101Y-70373633D01*
X101646535Y-70411326D01*
X101651000Y-70456661D01*
X101651000Y-71543339D01*
X101646535Y-71588674D01*
X101635101Y-71626367D01*
X101616534Y-71661103D01*
X101591548Y-71691548D01*
X101561103Y-71716534D01*
X101526367Y-71735101D01*
X101488674Y-71746535D01*
X101443339Y-71751000D01*
X100606661Y-71751000D01*
X100561326Y-71746535D01*
X100523633Y-71735101D01*
X100488897Y-71716534D01*
X100458452Y-71691548D01*
X100433466Y-71661103D01*
X100414899Y-71626367D01*
X100403465Y-71588674D01*
X100399000Y-71543339D01*
X100399000Y-70456661D01*
X100403465Y-70411326D01*
X100414899Y-70373633D01*
X100433466Y-70338897D01*
X100458452Y-70308452D01*
X100488897Y-70283466D01*
X100523633Y-70264899D01*
X100561326Y-70253465D01*
X100606661Y-70249000D01*
X101443339Y-70249000D01*
X101488674Y-70253465D01*
G37*
G36*
X99438674Y-70253465D02*
G01*
X99476367Y-70264899D01*
X99511103Y-70283466D01*
X99541548Y-70308452D01*
X99566534Y-70338897D01*
X99585101Y-70373633D01*
X99596535Y-70411326D01*
X99601000Y-70456661D01*
X99601000Y-71543339D01*
X99596535Y-71588674D01*
X99585101Y-71626367D01*
X99566534Y-71661103D01*
X99541548Y-71691548D01*
X99511103Y-71716534D01*
X99476367Y-71735101D01*
X99438674Y-71746535D01*
X99393339Y-71751000D01*
X98556661Y-71751000D01*
X98511326Y-71746535D01*
X98473633Y-71735101D01*
X98438897Y-71716534D01*
X98408452Y-71691548D01*
X98383466Y-71661103D01*
X98364899Y-71626367D01*
X98353465Y-71588674D01*
X98349000Y-71543339D01*
X98349000Y-70456661D01*
X98353465Y-70411326D01*
X98364899Y-70373633D01*
X98383466Y-70338897D01*
X98408452Y-70308452D01*
X98438897Y-70283466D01*
X98473633Y-70264899D01*
X98511326Y-70253465D01*
X98556661Y-70249000D01*
X99393339Y-70249000D01*
X99438674Y-70253465D01*
G37*
G36*
X95491242Y-70253404D02*
G01*
X95528337Y-70264657D01*
X95562515Y-70282925D01*
X95592481Y-70307519D01*
X95617075Y-70337485D01*
X95635343Y-70371663D01*
X95646596Y-70408758D01*
X95651000Y-70453474D01*
X95651000Y-71546526D01*
X95646596Y-71591242D01*
X95635343Y-71628337D01*
X95617075Y-71662515D01*
X95592481Y-71692481D01*
X95562515Y-71717075D01*
X95528337Y-71735343D01*
X95491242Y-71746596D01*
X95446526Y-71751000D01*
X94553474Y-71751000D01*
X94508758Y-71746596D01*
X94471663Y-71735343D01*
X94437485Y-71717075D01*
X94407519Y-71692481D01*
X94382925Y-71662515D01*
X94364657Y-71628337D01*
X94353404Y-71591242D01*
X94349000Y-71546526D01*
X94349000Y-70453474D01*
X94353404Y-70408758D01*
X94364657Y-70371663D01*
X94382925Y-70337485D01*
X94407519Y-70307519D01*
X94437485Y-70282925D01*
X94471663Y-70264657D01*
X94508758Y-70253404D01*
X94553474Y-70249000D01*
X95446526Y-70249000D01*
X95491242Y-70253404D01*
G37*
G36*
X93491242Y-70253404D02*
G01*
X93528337Y-70264657D01*
X93562515Y-70282925D01*
X93592481Y-70307519D01*
X93617075Y-70337485D01*
X93635343Y-70371663D01*
X93646596Y-70408758D01*
X93651000Y-70453474D01*
X93651000Y-71546526D01*
X93646596Y-71591242D01*
X93635343Y-71628337D01*
X93617075Y-71662515D01*
X93592481Y-71692481D01*
X93562515Y-71717075D01*
X93528337Y-71735343D01*
X93491242Y-71746596D01*
X93446526Y-71751000D01*
X92553474Y-71751000D01*
X92508758Y-71746596D01*
X92471663Y-71735343D01*
X92437485Y-71717075D01*
X92407519Y-71692481D01*
X92382925Y-71662515D01*
X92364657Y-71628337D01*
X92353404Y-71591242D01*
X92349000Y-71546526D01*
X92349000Y-70453474D01*
X92353404Y-70408758D01*
X92364657Y-70371663D01*
X92382925Y-70337485D01*
X92407519Y-70307519D01*
X92437485Y-70282925D01*
X92471663Y-70264657D01*
X92508758Y-70253404D01*
X92553474Y-70249000D01*
X93446526Y-70249000D01*
X93491242Y-70253404D01*
G37*
G36*
X87863512Y-68973927D02*
G01*
X88012812Y-69003624D01*
X88176784Y-69071544D01*
X88324354Y-69170147D01*
X88449853Y-69295646D01*
X88548456Y-69443216D01*
X88616376Y-69607188D01*
X88651000Y-69781259D01*
X88651000Y-69958741D01*
X88616376Y-70132812D01*
X88548456Y-70296784D01*
X88449853Y-70444354D01*
X88324354Y-70569853D01*
X88176784Y-70668456D01*
X88012812Y-70736376D01*
X87863512Y-70766073D01*
X87838742Y-70771000D01*
X87661258Y-70771000D01*
X87636488Y-70766073D01*
X87487188Y-70736376D01*
X87323216Y-70668456D01*
X87175646Y-70569853D01*
X87050147Y-70444354D01*
X86951544Y-70296784D01*
X86883624Y-70132812D01*
X86849000Y-69958741D01*
X86849000Y-69781259D01*
X86883624Y-69607188D01*
X86951544Y-69443216D01*
X87050147Y-69295646D01*
X87175646Y-69170147D01*
X87323216Y-69071544D01*
X87487188Y-69003624D01*
X87636488Y-68973927D01*
X87661258Y-68969000D01*
X87838742Y-68969000D01*
X87863512Y-68973927D01*
G37*
G36*
X107363512Y-68973927D02*
G01*
X107512812Y-69003624D01*
X107676784Y-69071544D01*
X107824354Y-69170147D01*
X107949853Y-69295646D01*
X108048456Y-69443216D01*
X108116376Y-69607188D01*
X108151000Y-69781259D01*
X108151000Y-69958741D01*
X108116376Y-70132812D01*
X108048456Y-70296784D01*
X107949853Y-70444354D01*
X107824354Y-70569853D01*
X107676784Y-70668456D01*
X107512812Y-70736376D01*
X107363512Y-70766073D01*
X107338742Y-70771000D01*
X107161258Y-70771000D01*
X107136488Y-70766073D01*
X106987188Y-70736376D01*
X106823216Y-70668456D01*
X106675646Y-70569853D01*
X106550147Y-70444354D01*
X106451544Y-70296784D01*
X106383624Y-70132812D01*
X106349000Y-69958741D01*
X106349000Y-69781259D01*
X106383624Y-69607188D01*
X106451544Y-69443216D01*
X106550147Y-69295646D01*
X106675646Y-69170147D01*
X106823216Y-69071544D01*
X106987188Y-69003624D01*
X107136488Y-68973927D01*
X107161258Y-68969000D01*
X107338742Y-68969000D01*
X107363512Y-68973927D01*
G37*
G36*
X104250000Y-67874911D02*
G01*
X104252402Y-67899297D01*
X104259515Y-67922746D01*
X104271066Y-67944357D01*
X104278456Y-67954310D01*
X104286199Y-67963725D01*
X104292581Y-67971484D01*
X104297326Y-67980339D01*
X104297326Y-67980340D01*
X104300242Y-67989915D01*
X104300242Y-67989918D01*
X104300252Y-67989950D01*
X104301247Y-68000000D01*
X104301247Y-68000065D01*
X104301852Y-68006175D01*
X104301852Y-68993860D01*
X104300263Y-69009999D01*
X104297348Y-69019608D01*
X104292610Y-69028472D01*
X104286237Y-69036237D01*
X104278472Y-69042610D01*
X104269608Y-69047348D01*
X104259999Y-69050263D01*
X104243860Y-69051852D01*
X102756140Y-69051852D01*
X102740001Y-69050263D01*
X102730392Y-69047348D01*
X102721528Y-69042610D01*
X102713763Y-69036237D01*
X102707390Y-69028472D01*
X102702652Y-69019608D01*
X102699737Y-69009999D01*
X102698148Y-68993860D01*
X102698148Y-68006140D01*
X102699737Y-67990001D01*
X102702652Y-67980392D01*
X102707390Y-67971528D01*
X102721258Y-67954630D01*
X102721347Y-67954541D01*
X102721423Y-67954429D01*
X102721575Y-67954243D01*
X102721557Y-67954229D01*
X102735033Y-67934214D01*
X102744489Y-67911608D01*
X102749354Y-67887592D01*
X102750000Y-67874903D01*
X102750000Y-66950000D01*
X104250000Y-66950000D01*
X104250000Y-67874911D01*
G37*
G36*
X87863512Y-66433927D02*
G01*
X88012812Y-66463624D01*
X88176784Y-66531544D01*
X88324354Y-66630147D01*
X88449853Y-66755646D01*
X88548456Y-66903216D01*
X88616376Y-67067188D01*
X88651000Y-67241259D01*
X88651000Y-67418741D01*
X88616376Y-67592812D01*
X88548456Y-67756784D01*
X88449853Y-67904354D01*
X88324354Y-68029853D01*
X88176784Y-68128456D01*
X88012812Y-68196376D01*
X87863512Y-68226073D01*
X87838742Y-68231000D01*
X87661258Y-68231000D01*
X87636488Y-68226073D01*
X87487188Y-68196376D01*
X87323216Y-68128456D01*
X87175646Y-68029853D01*
X87050147Y-67904354D01*
X86951544Y-67756784D01*
X86883624Y-67592812D01*
X86849000Y-67418741D01*
X86849000Y-67241259D01*
X86883624Y-67067188D01*
X86951544Y-66903216D01*
X87050147Y-66755646D01*
X87175646Y-66630147D01*
X87323216Y-66531544D01*
X87487188Y-66463624D01*
X87636488Y-66433927D01*
X87661258Y-66429000D01*
X87838742Y-66429000D01*
X87863512Y-66433927D01*
G37*
G36*
X107363512Y-66433927D02*
G01*
X107512812Y-66463624D01*
X107676784Y-66531544D01*
X107824354Y-66630147D01*
X107949853Y-66755646D01*
X108048456Y-66903216D01*
X108116376Y-67067188D01*
X108151000Y-67241259D01*
X108151000Y-67418741D01*
X108116376Y-67592812D01*
X108048456Y-67756784D01*
X107949853Y-67904354D01*
X107824354Y-68029853D01*
X107676784Y-68128456D01*
X107512812Y-68196376D01*
X107363512Y-68226073D01*
X107338742Y-68231000D01*
X107161258Y-68231000D01*
X107136488Y-68226073D01*
X106987188Y-68196376D01*
X106823216Y-68128456D01*
X106675646Y-68029853D01*
X106550147Y-67904354D01*
X106451544Y-67756784D01*
X106383624Y-67592812D01*
X106349000Y-67418741D01*
X106349000Y-67241259D01*
X106383624Y-67067188D01*
X106451544Y-66903216D01*
X106550147Y-66755646D01*
X106675646Y-66630147D01*
X106823216Y-66531544D01*
X106987188Y-66463624D01*
X107136488Y-66433927D01*
X107161258Y-66429000D01*
X107338742Y-66429000D01*
X107363512Y-66433927D01*
G37*
G36*
X104259999Y-63949737D02*
G01*
X104269608Y-63952652D01*
X104278472Y-63957390D01*
X104286237Y-63963763D01*
X104292610Y-63971528D01*
X104297348Y-63980392D01*
X104300263Y-63990001D01*
X104301852Y-64006140D01*
X104301852Y-64993860D01*
X104300263Y-65009999D01*
X104297348Y-65019608D01*
X104292610Y-65028472D01*
X104278742Y-65045370D01*
X104278653Y-65045459D01*
X104278577Y-65045571D01*
X104278425Y-65045757D01*
X104278443Y-65045771D01*
X104264967Y-65065786D01*
X104255511Y-65088392D01*
X104250646Y-65112408D01*
X104250000Y-65125097D01*
X104250000Y-66050000D01*
X102750000Y-66050000D01*
X102750000Y-65125089D01*
X102747598Y-65100703D01*
X102740485Y-65077254D01*
X102728934Y-65055643D01*
X102721544Y-65045690D01*
X102713439Y-65035835D01*
X102707419Y-65028516D01*
X102702674Y-65019661D01*
X102701749Y-65016623D01*
X102699758Y-65010085D01*
X102699758Y-65010082D01*
X102699748Y-65010050D01*
X102698753Y-65000000D01*
X102698753Y-64999935D01*
X102698148Y-64993825D01*
X102698148Y-64006140D01*
X102699737Y-63990001D01*
X102702652Y-63980392D01*
X102707390Y-63971528D01*
X102713763Y-63963763D01*
X102721528Y-63957390D01*
X102730392Y-63952652D01*
X102740001Y-63949737D01*
X102756140Y-63948148D01*
X104243860Y-63948148D01*
X104259999Y-63949737D01*
G37*
G36*
X87863512Y-63893927D02*
G01*
X88012812Y-63923624D01*
X88176784Y-63991544D01*
X88324354Y-64090147D01*
X88449853Y-64215646D01*
X88548456Y-64363216D01*
X88616376Y-64527188D01*
X88651000Y-64701259D01*
X88651000Y-64878741D01*
X88616376Y-65052812D01*
X88548456Y-65216784D01*
X88449853Y-65364354D01*
X88324354Y-65489853D01*
X88176784Y-65588456D01*
X88012812Y-65656376D01*
X87863512Y-65686073D01*
X87838742Y-65691000D01*
X87661258Y-65691000D01*
X87636488Y-65686073D01*
X87487188Y-65656376D01*
X87323216Y-65588456D01*
X87175646Y-65489853D01*
X87050147Y-65364354D01*
X86951544Y-65216784D01*
X86883624Y-65052812D01*
X86849000Y-64878741D01*
X86849000Y-64701259D01*
X86883624Y-64527188D01*
X86951544Y-64363216D01*
X87050147Y-64215646D01*
X87175646Y-64090147D01*
X87323216Y-63991544D01*
X87487188Y-63923624D01*
X87636488Y-63893927D01*
X87661258Y-63889000D01*
X87838742Y-63889000D01*
X87863512Y-63893927D01*
G37*
G36*
X107363512Y-63893927D02*
G01*
X107512812Y-63923624D01*
X107676784Y-63991544D01*
X107824354Y-64090147D01*
X107949853Y-64215646D01*
X108048456Y-64363216D01*
X108116376Y-64527188D01*
X108151000Y-64701259D01*
X108151000Y-64878741D01*
X108116376Y-65052812D01*
X108048456Y-65216784D01*
X107949853Y-65364354D01*
X107824354Y-65489853D01*
X107676784Y-65588456D01*
X107512812Y-65656376D01*
X107363512Y-65686073D01*
X107338742Y-65691000D01*
X107161258Y-65691000D01*
X107136488Y-65686073D01*
X106987188Y-65656376D01*
X106823216Y-65588456D01*
X106675646Y-65489853D01*
X106550147Y-65364354D01*
X106451544Y-65216784D01*
X106383624Y-65052812D01*
X106349000Y-64878741D01*
X106349000Y-64701259D01*
X106383624Y-64527188D01*
X106451544Y-64363216D01*
X106550147Y-64215646D01*
X106675646Y-64090147D01*
X106823216Y-63991544D01*
X106987188Y-63923624D01*
X107136488Y-63893927D01*
X107161258Y-63889000D01*
X107338742Y-63889000D01*
X107363512Y-63893927D01*
G37*
G36*
X107363512Y-61353927D02*
G01*
X107512812Y-61383624D01*
X107676784Y-61451544D01*
X107824354Y-61550147D01*
X107949853Y-61675646D01*
X108048456Y-61823216D01*
X108116376Y-61987188D01*
X108151000Y-62161259D01*
X108151000Y-62338741D01*
X108116376Y-62512812D01*
X108048456Y-62676784D01*
X107949853Y-62824354D01*
X107824354Y-62949853D01*
X107676784Y-63048456D01*
X107512812Y-63116376D01*
X107363512Y-63146073D01*
X107338742Y-63151000D01*
X107161258Y-63151000D01*
X107136488Y-63146073D01*
X106987188Y-63116376D01*
X106823216Y-63048456D01*
X106675646Y-62949853D01*
X106550147Y-62824354D01*
X106451544Y-62676784D01*
X106383624Y-62512812D01*
X106349000Y-62338741D01*
X106349000Y-62161259D01*
X106383624Y-61987188D01*
X106451544Y-61823216D01*
X106550147Y-61675646D01*
X106675646Y-61550147D01*
X106823216Y-61451544D01*
X106987188Y-61383624D01*
X107136488Y-61353927D01*
X107161258Y-61349000D01*
X107338742Y-61349000D01*
X107363512Y-61353927D01*
G37*
G36*
X87863512Y-61353927D02*
G01*
X88012812Y-61383624D01*
X88176784Y-61451544D01*
X88324354Y-61550147D01*
X88449853Y-61675646D01*
X88548456Y-61823216D01*
X88616376Y-61987188D01*
X88651000Y-62161259D01*
X88651000Y-62338741D01*
X88616376Y-62512812D01*
X88548456Y-62676784D01*
X88449853Y-62824354D01*
X88324354Y-62949853D01*
X88176784Y-63048456D01*
X88012812Y-63116376D01*
X87863512Y-63146073D01*
X87838742Y-63151000D01*
X87661258Y-63151000D01*
X87636488Y-63146073D01*
X87487188Y-63116376D01*
X87323216Y-63048456D01*
X87175646Y-62949853D01*
X87050147Y-62824354D01*
X86951544Y-62676784D01*
X86883624Y-62512812D01*
X86849000Y-62338741D01*
X86849000Y-62161259D01*
X86883624Y-61987188D01*
X86951544Y-61823216D01*
X87050147Y-61675646D01*
X87175646Y-61550147D01*
X87323216Y-61451544D01*
X87487188Y-61383624D01*
X87636488Y-61353927D01*
X87661258Y-61349000D01*
X87838742Y-61349000D01*
X87863512Y-61353927D01*
G37*
M02*
